M48
; DRILL file {KiCad 9.0.3-9.0.3-0~ubuntu24.04.1} date 2025-08-25T07:49:14-0400
; FORMAT={-:-/ absolute / metric / decimal}
; #@! TF.CreationDate,2025-08-25T07:49:14-04:00
; #@! TF.GenerationSoftware,Kicad,Pcbnew,9.0.3-9.0.3-0~ubuntu24.04.1
; #@! TF.FileFunction,Plated,1,2,PTH
FMAT,2
METRIC
; #@! TA.AperFunction,Plated,PTH,ComponentDrill
T1C0.889
; #@! TA.AperFunction,Plated,PTH,ComponentDrill
T2C1.000
; #@! TA.AperFunction,Plated,PTH,ComponentDrill
T3C4.300
%
G90
G05
T1
X225.82Y-102.757
X231.154Y-102.757
T2
X211.836Y-94.742
X211.836Y-97.282
X214.376Y-94.742
X214.376Y-97.282
X216.916Y-94.742
X216.916Y-97.282
X219.456Y-94.742
X219.456Y-97.282
X221.996Y-94.742
X221.996Y-97.282
X224.536Y-94.742
X224.536Y-97.282
X227.076Y-94.742
X227.076Y-97.282
X229.616Y-94.742
X229.616Y-97.282
T3
X175.256Y-60.967
X175.256Y-130.817
X233.676Y-60.967
X233.676Y-130.817
M30
