%TF.GenerationSoftware,KiCad,Pcbnew,9.0.3-9.0.3-0~ubuntu24.04.1*%
%TF.CreationDate,2025-08-25T07:49:16-04:00*%
%TF.ProjectId,optical-carrier,6f707469-6361-46c2-9d63-617272696572,rev?*%
%TF.SameCoordinates,Original*%
%TF.FileFunction,Copper,L2,Bot*%
%TF.FilePolarity,Positive*%
%FSLAX46Y46*%
G04 Gerber Fmt 4.6, Leading zero omitted, Abs format (unit mm)*
G04 Created by KiCad (PCBNEW 9.0.3-9.0.3-0~ubuntu24.04.1) date 2025-08-25 07:49:16*
%MOMM*%
%LPD*%
G01*
G04 APERTURE LIST*
%TA.AperFunction,ComponentPad*%
%ADD10C,7.500000*%
%TD*%
%TA.AperFunction,ComponentPad*%
%ADD11C,1.574800*%
%TD*%
%TA.AperFunction,ComponentPad*%
%ADD12R,1.700000X1.700000*%
%TD*%
%TA.AperFunction,ComponentPad*%
%ADD13C,1.700000*%
%TD*%
G04 APERTURE END LIST*
D10*
%TO.P,H4,1*%
%TO.N,N/C*%
X233676000Y-130817000D03*
%TD*%
%TO.P,H1,1*%
%TO.N,N/C*%
X175256000Y-60967000D03*
%TD*%
%TO.P,H3,1*%
%TO.N,N/C*%
X175256000Y-130817000D03*
%TD*%
%TO.P,H2,1*%
%TO.N,N/C*%
X233676000Y-60967000D03*
%TD*%
D11*
%TO.P,D4,1,K*%
%TO.N,Net-(D4-K)*%
X231154500Y-102757500D03*
%TO.P,D4,2,A*%
%TO.N,Net-(D4-A)*%
X225820500Y-102757500D03*
%TD*%
D12*
%TO.P,J1,1,Pin_1*%
%TO.N,Net-(D1-A)*%
X229616000Y-94742000D03*
D13*
%TO.P,J1,2,Pin_2*%
%TO.N,Net-(D4-K)*%
X229616000Y-97282000D03*
%TO.P,J1,3,Pin_3*%
%TO.N,Net-(D1-K)*%
X227076000Y-94742000D03*
%TO.P,J1,4,Pin_4*%
%TO.N,Net-(D4-A)*%
X227076000Y-97282000D03*
%TO.P,J1,5,Pin_5*%
%TO.N,Net-(D2-A)*%
X224536000Y-94742000D03*
%TO.P,J1,6,Pin_6*%
%TO.N,unconnected-(J1-Pin_6-Pad6)*%
X224536000Y-97282000D03*
%TO.P,J1,7,Pin_7*%
%TO.N,Net-(D2-K)*%
X221996000Y-94742000D03*
%TO.P,J1,8,Pin_8*%
%TO.N,unconnected-(J1-Pin_8-Pad8)*%
X221996000Y-97282000D03*
%TO.P,J1,9,Pin_9*%
%TO.N,Net-(D3-A)*%
X219456000Y-94742000D03*
%TO.P,J1,10,Pin_10*%
%TO.N,unconnected-(J1-Pin_10-Pad10)*%
X219456000Y-97282000D03*
%TO.P,J1,11,Pin_11*%
%TO.N,Net-(D3-K)*%
X216916000Y-94742000D03*
%TO.P,J1,12,Pin_12*%
%TO.N,unconnected-(J1-Pin_12-Pad12)*%
X216916000Y-97282000D03*
%TO.P,J1,13,Pin_13*%
%TO.N,unconnected-(J1-Pin_13-Pad13)*%
X214376000Y-94742000D03*
%TO.P,J1,14,Pin_14*%
%TO.N,unconnected-(J1-Pin_14-Pad14)*%
X214376000Y-97282000D03*
%TO.P,J1,15,Pin_15*%
%TO.N,unconnected-(J1-Pin_15-Pad15)*%
X211836000Y-94742000D03*
%TO.P,J1,16,Pin_16*%
%TO.N,unconnected-(J1-Pin_16-Pad16)*%
X211836000Y-97282000D03*
%TD*%
%TA.AperFunction,Conductor*%
%TO.N,Net-(D4-A)*%
G36*
X233241121Y-92984002D02*
G01*
X233287614Y-93037658D01*
X233299000Y-93090000D01*
X233299000Y-113412000D01*
X233278998Y-113480121D01*
X233225342Y-113526614D01*
X233173000Y-113538000D01*
X223519000Y-113538000D01*
X223450879Y-113517998D01*
X223404386Y-113464342D01*
X223393000Y-113412000D01*
X223393000Y-102654928D01*
X224779100Y-102654928D01*
X224779100Y-102860071D01*
X224819120Y-103061265D01*
X224819122Y-103061270D01*
X224897623Y-103250788D01*
X224997751Y-103400641D01*
X225429362Y-102969030D01*
X225464811Y-103030430D01*
X225547570Y-103113189D01*
X225608967Y-103148636D01*
X225177357Y-103580247D01*
X225327212Y-103680376D01*
X225516729Y-103758877D01*
X225516734Y-103758879D01*
X225717928Y-103798899D01*
X225717932Y-103798900D01*
X225923068Y-103798900D01*
X225923071Y-103798899D01*
X226124265Y-103758879D01*
X226124270Y-103758877D01*
X226313787Y-103680376D01*
X226463641Y-103580246D01*
X226463642Y-103580246D01*
X226032032Y-103148636D01*
X226093430Y-103113189D01*
X226176189Y-103030430D01*
X226211636Y-102969032D01*
X226643246Y-103400642D01*
X226643246Y-103400641D01*
X226743376Y-103250787D01*
X226821877Y-103061270D01*
X226821879Y-103061265D01*
X226861899Y-102860071D01*
X226861900Y-102860067D01*
X226861900Y-102654930D01*
X226861899Y-102654929D01*
X226861889Y-102654879D01*
X230112600Y-102654879D01*
X230112600Y-102860120D01*
X230127914Y-102937105D01*
X230152640Y-103061411D01*
X230231180Y-103251025D01*
X230307368Y-103365048D01*
X230345203Y-103421671D01*
X230345208Y-103421677D01*
X230490322Y-103566791D01*
X230490328Y-103566796D01*
X230660975Y-103680820D01*
X230850589Y-103759360D01*
X231051882Y-103799400D01*
X231051883Y-103799400D01*
X231257117Y-103799400D01*
X231257118Y-103799400D01*
X231458411Y-103759360D01*
X231648025Y-103680820D01*
X231818672Y-103566796D01*
X231963796Y-103421672D01*
X232077820Y-103251025D01*
X232156360Y-103061411D01*
X232196400Y-102860118D01*
X232196400Y-102654882D01*
X232156360Y-102453589D01*
X232077820Y-102263975D01*
X231963796Y-102093328D01*
X231963791Y-102093322D01*
X231818677Y-101948208D01*
X231818671Y-101948203D01*
X231762048Y-101910368D01*
X231648025Y-101834180D01*
X231458411Y-101755640D01*
X231257120Y-101715600D01*
X231257118Y-101715600D01*
X231051882Y-101715600D01*
X231051879Y-101715600D01*
X230850588Y-101755640D01*
X230850583Y-101755642D01*
X230660975Y-101834180D01*
X230490328Y-101948203D01*
X230490322Y-101948208D01*
X230345208Y-102093322D01*
X230345203Y-102093328D01*
X230231180Y-102263975D01*
X230152642Y-102453583D01*
X230152640Y-102453588D01*
X230112600Y-102654879D01*
X226861889Y-102654879D01*
X226821879Y-102453734D01*
X226821877Y-102453729D01*
X226743376Y-102264212D01*
X226643247Y-102114357D01*
X226211636Y-102545967D01*
X226176189Y-102484570D01*
X226093430Y-102401811D01*
X226032029Y-102366362D01*
X226463641Y-101934751D01*
X226463642Y-101934751D01*
X226313788Y-101834623D01*
X226124270Y-101756122D01*
X226124265Y-101756120D01*
X225923071Y-101716100D01*
X225717928Y-101716100D01*
X225516734Y-101756120D01*
X225516729Y-101756122D01*
X225327211Y-101834623D01*
X225327207Y-101834625D01*
X225177356Y-101934751D01*
X225608968Y-102366362D01*
X225547570Y-102401811D01*
X225464811Y-102484570D01*
X225429363Y-102545968D01*
X224997751Y-102114356D01*
X224897625Y-102264207D01*
X224897623Y-102264211D01*
X224819122Y-102453729D01*
X224819120Y-102453734D01*
X224779100Y-102654928D01*
X223393000Y-102654928D01*
X223393000Y-97975670D01*
X223413002Y-97907549D01*
X223466658Y-97861056D01*
X223536932Y-97850952D01*
X223601512Y-97880446D01*
X223620934Y-97901606D01*
X223693535Y-98001533D01*
X223693537Y-98001535D01*
X223693539Y-98001538D01*
X223816464Y-98124463D01*
X223816467Y-98124465D01*
X223957116Y-98226653D01*
X224112019Y-98305580D01*
X224277362Y-98359303D01*
X224449074Y-98386500D01*
X224449077Y-98386500D01*
X224622923Y-98386500D01*
X224622926Y-98386500D01*
X224794638Y-98359303D01*
X224959981Y-98305580D01*
X225114884Y-98226653D01*
X225255533Y-98124465D01*
X225255538Y-98124460D01*
X225369160Y-98010839D01*
X225378460Y-98001538D01*
X225378463Y-98001535D01*
X225378465Y-98001533D01*
X225480653Y-97860884D01*
X225559580Y-97705981D01*
X225613303Y-97540638D01*
X225640500Y-97368926D01*
X225640500Y-97195116D01*
X225972000Y-97195116D01*
X225972000Y-97368883D01*
X225999185Y-97540524D01*
X226052883Y-97705788D01*
X226052884Y-97705790D01*
X226131776Y-97860625D01*
X226210042Y-97968349D01*
X226210043Y-97968349D01*
X226644234Y-97534158D01*
X226675901Y-97589007D01*
X226768993Y-97682099D01*
X226823840Y-97713765D01*
X226389649Y-98147955D01*
X226389649Y-98147956D01*
X226497374Y-98226223D01*
X226652209Y-98305115D01*
X226652211Y-98305116D01*
X226817475Y-98358814D01*
X226989116Y-98386000D01*
X227162884Y-98386000D01*
X227334524Y-98358814D01*
X227499788Y-98305116D01*
X227499790Y-98305115D01*
X227654621Y-98226225D01*
X227762349Y-98147955D01*
X227762349Y-98147954D01*
X227328159Y-97713764D01*
X227383007Y-97682099D01*
X227476099Y-97589007D01*
X227507764Y-97534159D01*
X227941954Y-97968349D01*
X227941955Y-97968349D01*
X228020225Y-97860621D01*
X228099115Y-97705790D01*
X228099116Y-97705788D01*
X228152814Y-97540524D01*
X228180000Y-97368883D01*
X228180000Y-97195116D01*
X228179993Y-97195074D01*
X228511500Y-97195074D01*
X228511500Y-97368926D01*
X228538697Y-97540638D01*
X228592420Y-97705981D01*
X228671347Y-97860884D01*
X228671349Y-97860887D01*
X228773536Y-98001535D01*
X228896464Y-98124463D01*
X228896467Y-98124465D01*
X229037116Y-98226653D01*
X229192019Y-98305580D01*
X229357362Y-98359303D01*
X229529074Y-98386500D01*
X229529077Y-98386500D01*
X229702923Y-98386500D01*
X229702926Y-98386500D01*
X229874638Y-98359303D01*
X230039981Y-98305580D01*
X230194884Y-98226653D01*
X230335533Y-98124465D01*
X230458465Y-98001533D01*
X230560653Y-97860884D01*
X230639580Y-97705981D01*
X230693303Y-97540638D01*
X230720500Y-97368926D01*
X230720500Y-97195074D01*
X230693303Y-97023362D01*
X230639580Y-96858019D01*
X230560653Y-96703116D01*
X230458465Y-96562467D01*
X230458463Y-96562464D01*
X230335535Y-96439536D01*
X230194887Y-96337349D01*
X230194886Y-96337348D01*
X230194884Y-96337347D01*
X230039981Y-96258420D01*
X230039978Y-96258419D01*
X230039976Y-96258418D01*
X229874642Y-96204698D01*
X229874640Y-96204697D01*
X229874638Y-96204697D01*
X229702926Y-96177500D01*
X229529074Y-96177500D01*
X229357362Y-96204697D01*
X229357360Y-96204697D01*
X229357357Y-96204698D01*
X229192023Y-96258418D01*
X229192017Y-96258421D01*
X229037112Y-96337349D01*
X228896464Y-96439536D01*
X228773536Y-96562464D01*
X228671349Y-96703112D01*
X228592421Y-96858017D01*
X228592418Y-96858023D01*
X228538698Y-97023357D01*
X228538697Y-97023360D01*
X228538697Y-97023362D01*
X228511500Y-97195074D01*
X228179993Y-97195074D01*
X228152814Y-97023475D01*
X228099116Y-96858211D01*
X228099115Y-96858209D01*
X228020223Y-96703374D01*
X227941955Y-96595649D01*
X227507764Y-97029839D01*
X227476099Y-96974993D01*
X227383007Y-96881901D01*
X227328158Y-96850234D01*
X227762349Y-96416043D01*
X227762349Y-96416042D01*
X227654625Y-96337776D01*
X227499790Y-96258884D01*
X227499788Y-96258883D01*
X227334524Y-96205185D01*
X227162884Y-96178000D01*
X226989116Y-96178000D01*
X226817475Y-96205185D01*
X226652211Y-96258883D01*
X226652209Y-96258884D01*
X226497379Y-96337773D01*
X226497379Y-96337774D01*
X226389649Y-96416042D01*
X226389649Y-96416044D01*
X226823840Y-96850235D01*
X226768993Y-96881901D01*
X226675901Y-96974993D01*
X226644235Y-97029840D01*
X226210044Y-96595649D01*
X226210042Y-96595649D01*
X226131774Y-96703379D01*
X226131773Y-96703379D01*
X226052884Y-96858209D01*
X226052883Y-96858211D01*
X225999185Y-97023475D01*
X225972000Y-97195116D01*
X225640500Y-97195116D01*
X225640500Y-97195074D01*
X225613303Y-97023362D01*
X225559580Y-96858019D01*
X225480653Y-96703116D01*
X225378465Y-96562467D01*
X225378463Y-96562464D01*
X225255535Y-96439536D01*
X225114887Y-96337349D01*
X225114886Y-96337348D01*
X225114884Y-96337347D01*
X224959981Y-96258420D01*
X224959978Y-96258419D01*
X224959976Y-96258418D01*
X224794642Y-96204698D01*
X224794640Y-96204697D01*
X224794638Y-96204697D01*
X224622926Y-96177500D01*
X224449074Y-96177500D01*
X224277362Y-96204697D01*
X224277360Y-96204697D01*
X224277357Y-96204698D01*
X224112023Y-96258418D01*
X224112017Y-96258421D01*
X223957112Y-96337349D01*
X223816464Y-96439536D01*
X223693540Y-96562460D01*
X223620936Y-96662391D01*
X223564713Y-96705744D01*
X223493977Y-96711819D01*
X223431185Y-96678687D01*
X223396274Y-96616867D01*
X223393000Y-96588329D01*
X223393000Y-95435670D01*
X223413002Y-95367549D01*
X223466658Y-95321056D01*
X223536932Y-95310952D01*
X223601512Y-95340446D01*
X223620934Y-95361606D01*
X223693535Y-95461533D01*
X223693537Y-95461535D01*
X223693539Y-95461538D01*
X223816464Y-95584463D01*
X223861342Y-95617069D01*
X223957116Y-95686653D01*
X224112019Y-95765580D01*
X224277362Y-95819303D01*
X224449074Y-95846500D01*
X224449077Y-95846500D01*
X224622923Y-95846500D01*
X224622926Y-95846500D01*
X224794638Y-95819303D01*
X224959981Y-95765580D01*
X225114884Y-95686653D01*
X225255533Y-95584465D01*
X225378465Y-95461533D01*
X225480653Y-95320884D01*
X225559580Y-95165981D01*
X225613303Y-95000638D01*
X225640500Y-94828926D01*
X225640500Y-94655074D01*
X225971500Y-94655074D01*
X225971500Y-94828926D01*
X225998697Y-95000638D01*
X226052420Y-95165981D01*
X226131347Y-95320884D01*
X226131349Y-95320887D01*
X226233536Y-95461535D01*
X226356464Y-95584463D01*
X226401342Y-95617069D01*
X226497116Y-95686653D01*
X226652019Y-95765580D01*
X226817362Y-95819303D01*
X226989074Y-95846500D01*
X226989077Y-95846500D01*
X227162923Y-95846500D01*
X227162926Y-95846500D01*
X227334638Y-95819303D01*
X227499981Y-95765580D01*
X227654884Y-95686653D01*
X227795533Y-95584465D01*
X227918465Y-95461533D01*
X228020653Y-95320884D01*
X228099580Y-95165981D01*
X228153303Y-95000638D01*
X228180500Y-94828926D01*
X228180500Y-94655074D01*
X228153303Y-94483362D01*
X228099580Y-94318019D01*
X228020653Y-94163116D01*
X227918465Y-94022467D01*
X227918463Y-94022464D01*
X227795535Y-93899536D01*
X227750657Y-93866930D01*
X228511500Y-93866930D01*
X228511500Y-95617063D01*
X228511501Y-95617073D01*
X228526265Y-95691300D01*
X228582516Y-95775484D01*
X228666697Y-95831733D01*
X228666699Y-95831734D01*
X228740933Y-95846500D01*
X230491066Y-95846499D01*
X230491069Y-95846498D01*
X230491073Y-95846498D01*
X230540326Y-95836701D01*
X230565301Y-95831734D01*
X230649484Y-95775484D01*
X230705734Y-95691301D01*
X230720500Y-95617067D01*
X230720499Y-93866934D01*
X230720498Y-93866930D01*
X230720498Y-93866926D01*
X230705734Y-93792699D01*
X230656102Y-93718421D01*
X230649484Y-93708516D01*
X230583907Y-93664698D01*
X230565302Y-93652266D01*
X230491067Y-93637500D01*
X228740936Y-93637500D01*
X228740926Y-93637501D01*
X228666699Y-93652265D01*
X228582515Y-93708516D01*
X228526266Y-93792697D01*
X228511500Y-93866930D01*
X227750657Y-93866930D01*
X227654887Y-93797349D01*
X227654886Y-93797348D01*
X227654884Y-93797347D01*
X227499981Y-93718420D01*
X227499978Y-93718419D01*
X227499976Y-93718418D01*
X227334642Y-93664698D01*
X227334640Y-93664697D01*
X227334638Y-93664697D01*
X227162926Y-93637500D01*
X226989074Y-93637500D01*
X226817362Y-93664697D01*
X226817360Y-93664697D01*
X226817357Y-93664698D01*
X226652023Y-93718418D01*
X226652017Y-93718421D01*
X226497112Y-93797349D01*
X226356464Y-93899536D01*
X226233536Y-94022464D01*
X226131349Y-94163112D01*
X226052421Y-94318017D01*
X226052418Y-94318023D01*
X225998698Y-94483357D01*
X225998697Y-94483360D01*
X225998697Y-94483362D01*
X225971500Y-94655074D01*
X225640500Y-94655074D01*
X225613303Y-94483362D01*
X225559580Y-94318019D01*
X225480653Y-94163116D01*
X225378465Y-94022467D01*
X225378463Y-94022464D01*
X225255535Y-93899536D01*
X225114887Y-93797349D01*
X225114886Y-93797348D01*
X225114884Y-93797347D01*
X224959981Y-93718420D01*
X224959978Y-93718419D01*
X224959976Y-93718418D01*
X224794642Y-93664698D01*
X224794640Y-93664697D01*
X224794638Y-93664697D01*
X224622926Y-93637500D01*
X224449074Y-93637500D01*
X224277362Y-93664697D01*
X224277360Y-93664697D01*
X224277357Y-93664698D01*
X224112023Y-93718418D01*
X224112017Y-93718421D01*
X223957112Y-93797349D01*
X223816464Y-93899536D01*
X223693540Y-94022460D01*
X223620936Y-94122391D01*
X223564713Y-94165744D01*
X223493977Y-94171819D01*
X223431185Y-94138687D01*
X223396274Y-94076867D01*
X223393000Y-94048329D01*
X223393000Y-93090000D01*
X223413002Y-93021879D01*
X223466658Y-92975386D01*
X223519000Y-92964000D01*
X233173000Y-92964000D01*
X233241121Y-92984002D01*
G37*
%TD.AperFunction*%
%TD*%
M02*
