%TF.GenerationSoftware,KiCad,Pcbnew,9.0.5-9.0.5~ubuntu24.04.1*%
%TF.CreationDate,2025-10-21T16:29:03-04:00*%
%TF.ProjectId,optical-carrier,6f707469-6361-46c2-9d63-617272696572,rev?*%
%TF.SameCoordinates,Original*%
%TF.FileFunction,Copper,L2,Bot*%
%TF.FilePolarity,Positive*%
%FSLAX46Y46*%
G04 Gerber Fmt 4.6, Leading zero omitted, Abs format (unit mm)*
G04 Created by KiCad (PCBNEW 9.0.5-9.0.5~ubuntu24.04.1) date 2025-10-21 16:29:03*
%MOMM*%
%LPD*%
G01*
G04 APERTURE LIST*
%TA.AperFunction,ComponentPad*%
%ADD10R,1.700000X1.700000*%
%TD*%
%TA.AperFunction,ComponentPad*%
%ADD11C,1.700000*%
%TD*%
%TA.AperFunction,ComponentPad*%
%ADD12C,1.574800*%
%TD*%
%TA.AperFunction,ViaPad*%
%ADD13C,0.600000*%
%TD*%
%TA.AperFunction,Conductor*%
%ADD14C,0.200000*%
%TD*%
G04 APERTURE END LIST*
D10*
%TO.P,JP1,1,A*%
%TO.N,Net-(D1-GK)*%
X194183000Y-95377000D03*
D11*
%TO.P,JP1,2,C*%
%TO.N,/LED4*%
X196723000Y-95377000D03*
%TO.P,JP1,3,B*%
%TO.N,Net-(D4-K)*%
X199263000Y-95377000D03*
%TD*%
D12*
%TO.P,D6,1,K*%
%TO.N,Net-(D6-K)*%
X231154500Y-102757500D03*
%TO.P,D6,2,A*%
%TO.N,Net-(D6-A)*%
X225820500Y-102757500D03*
%TD*%
D10*
%TO.P,J1,1,Pin_1*%
%TO.N,/LED1*%
X229616000Y-94742000D03*
D11*
%TO.P,J1,2,Pin_2*%
%TO.N,Net-(D6-K)*%
X229616000Y-97282000D03*
%TO.P,J1,3,Pin_3*%
%TO.N,/LED2*%
X227076000Y-94742000D03*
%TO.P,J1,4,Pin_4*%
%TO.N,Net-(D6-A)*%
X227076000Y-97282000D03*
%TO.P,J1,5,Pin_5*%
%TO.N,/LED3*%
X224536000Y-94742000D03*
%TO.P,J1,6,Pin_6*%
%TO.N,Net-(J1-Pin_6)*%
X224536000Y-97282000D03*
%TO.P,J1,7,Pin_7*%
%TO.N,/LED4*%
X221996000Y-94742000D03*
%TO.P,J1,8,Pin_8*%
%TO.N,Net-(D1-A)*%
X221996000Y-97282000D03*
%TO.P,J1,9,Pin_9*%
%TO.N,/LED5*%
X219456000Y-94742000D03*
%TO.P,J1,10,Pin_10*%
%TO.N,Net-(D1-A)*%
X219456000Y-97282000D03*
%TO.P,J1,11,Pin_11*%
%TO.N,/LED6*%
X216916000Y-94742000D03*
%TO.P,J1,12,Pin_12*%
%TO.N,unconnected-(J1-Pin_12-Pad12)*%
X216916000Y-97282000D03*
%TO.P,J1,13,Pin_13*%
%TO.N,/LED7*%
X214376000Y-94742000D03*
%TO.P,J1,14,Pin_14*%
%TO.N,Net-(D6-A)*%
X214376000Y-97282000D03*
%TO.P,J1,15,Pin_15*%
%TO.N,/LED8*%
X211836000Y-94742000D03*
%TO.P,J1,16,Pin_16*%
%TO.N,unconnected-(J1-Pin_16-Pad16)*%
X211836000Y-97282000D03*
%TD*%
D13*
%TO.N,Net-(D1-A)*%
X186182000Y-111379000D03*
X210312000Y-108712000D03*
X211201000Y-111379000D03*
X185420000Y-108585000D03*
X196723000Y-110236000D03*
%TO.N,Net-(J1-Pin_6)*%
X223139000Y-107569000D03*
%TD*%
D14*
%TO.N,Net-(J1-Pin_6)*%
X224536000Y-97282000D02*
X223139000Y-98679000D01*
X223139000Y-98679000D02*
X223139000Y-107569000D01*
%TD*%
%TA.AperFunction,Conductor*%
%TO.N,Net-(D1-A)*%
G36*
X216489871Y-95764691D02*
G01*
X216492015Y-95765579D01*
X216565327Y-95789399D01*
X216657362Y-95819303D01*
X216829074Y-95846500D01*
X216829076Y-95846500D01*
X217002924Y-95846500D01*
X217002926Y-95846500D01*
X217174638Y-95819303D01*
X217339981Y-95765580D01*
X217339981Y-95765579D01*
X217339984Y-95765579D01*
X217342129Y-95764691D01*
X217375766Y-95758000D01*
X218996234Y-95758000D01*
X219029871Y-95764691D01*
X219032015Y-95765579D01*
X219105327Y-95789399D01*
X219197362Y-95819303D01*
X219369074Y-95846500D01*
X219369076Y-95846500D01*
X219542924Y-95846500D01*
X219542926Y-95846500D01*
X219714638Y-95819303D01*
X219879981Y-95765580D01*
X219879981Y-95765579D01*
X219879984Y-95765579D01*
X219882129Y-95764691D01*
X219915766Y-95758000D01*
X221536234Y-95758000D01*
X221569871Y-95764691D01*
X221572015Y-95765579D01*
X221645327Y-95789399D01*
X221737362Y-95819303D01*
X221909074Y-95846500D01*
X221909076Y-95846500D01*
X222082924Y-95846500D01*
X222082926Y-95846500D01*
X222254638Y-95819303D01*
X222419981Y-95765580D01*
X222419981Y-95765579D01*
X222419984Y-95765579D01*
X222422129Y-95764691D01*
X222455766Y-95758000D01*
X223305100Y-95758000D01*
X223361601Y-95778565D01*
X223391665Y-95830636D01*
X223393000Y-95845900D01*
X223393000Y-97887250D01*
X223372435Y-97943751D01*
X223367255Y-97949405D01*
X222921332Y-98395328D01*
X222921332Y-98395329D01*
X222855329Y-98461331D01*
X222808658Y-98542168D01*
X222784500Y-98632329D01*
X222784500Y-107102908D01*
X222763935Y-107159409D01*
X222758755Y-107165063D01*
X222695290Y-107228527D01*
X222622286Y-107354974D01*
X222584500Y-107495999D01*
X222584500Y-107642000D01*
X222622286Y-107783025D01*
X222622287Y-107783028D01*
X222622288Y-107783029D01*
X222695289Y-107909471D01*
X222798529Y-108012711D01*
X222924971Y-108085712D01*
X222924973Y-108085712D01*
X222924974Y-108085713D01*
X223065999Y-108123500D01*
X223212000Y-108123500D01*
X223212001Y-108123500D01*
X223282350Y-108104650D01*
X223342248Y-108109891D01*
X223384764Y-108152407D01*
X223393000Y-108189555D01*
X223393000Y-114085100D01*
X223372435Y-114141601D01*
X223320364Y-114171665D01*
X223305100Y-114173000D01*
X183856900Y-114173000D01*
X183800399Y-114152435D01*
X183770335Y-114100364D01*
X183769000Y-114085100D01*
X183769000Y-104989900D01*
X183789565Y-104933399D01*
X183841636Y-104903335D01*
X183856900Y-104902000D01*
X215645999Y-104902000D01*
X215646000Y-104902000D01*
X215646000Y-97440875D01*
X215666565Y-97384374D01*
X215718636Y-97354310D01*
X215777850Y-97364751D01*
X215816499Y-97410811D01*
X215820718Y-97427124D01*
X215838696Y-97540636D01*
X215892417Y-97705974D01*
X215892419Y-97705977D01*
X215892420Y-97705981D01*
X215971347Y-97860884D01*
X216073535Y-98001533D01*
X216196467Y-98124465D01*
X216337116Y-98226653D01*
X216492019Y-98305580D01*
X216657362Y-98359303D01*
X216829074Y-98386500D01*
X216829076Y-98386500D01*
X217002924Y-98386500D01*
X217002926Y-98386500D01*
X217174638Y-98359303D01*
X217339981Y-98305580D01*
X217494884Y-98226653D01*
X217635533Y-98124465D01*
X217758465Y-98001533D01*
X217860653Y-97860884D01*
X217939580Y-97705981D01*
X217993303Y-97540638D01*
X218020500Y-97368926D01*
X218020500Y-97195114D01*
X218352000Y-97195114D01*
X218352000Y-97368885D01*
X218379183Y-97540518D01*
X218432880Y-97705781D01*
X218432881Y-97705784D01*
X218511772Y-97860618D01*
X218511774Y-97860622D01*
X218590042Y-97968349D01*
X219024233Y-97534157D01*
X219055901Y-97589007D01*
X219148993Y-97682099D01*
X219203840Y-97713764D01*
X218769649Y-98147956D01*
X218769648Y-98147956D01*
X218877377Y-98226225D01*
X218877381Y-98226227D01*
X219032215Y-98305118D01*
X219032218Y-98305119D01*
X219197481Y-98358816D01*
X219369114Y-98385999D01*
X219369115Y-98386000D01*
X219542885Y-98386000D01*
X219542885Y-98385999D01*
X219714518Y-98358816D01*
X219879781Y-98305119D01*
X219879784Y-98305118D01*
X220034618Y-98226228D01*
X220034622Y-98226225D01*
X220142349Y-98147956D01*
X219708158Y-97713765D01*
X219763007Y-97682099D01*
X219856099Y-97589007D01*
X219887765Y-97534158D01*
X220321956Y-97968349D01*
X220400225Y-97860622D01*
X220400228Y-97860618D01*
X220479118Y-97705784D01*
X220479119Y-97705781D01*
X220532816Y-97540518D01*
X220559999Y-97368885D01*
X220560000Y-97368885D01*
X220560000Y-97195114D01*
X220892000Y-97195114D01*
X220892000Y-97368885D01*
X220919183Y-97540518D01*
X220972880Y-97705781D01*
X220972881Y-97705784D01*
X221051772Y-97860618D01*
X221051774Y-97860622D01*
X221130042Y-97968349D01*
X221564234Y-97534158D01*
X221595901Y-97589007D01*
X221688993Y-97682099D01*
X221743840Y-97713764D01*
X221309649Y-98147956D01*
X221309648Y-98147956D01*
X221417377Y-98226225D01*
X221417381Y-98226227D01*
X221572215Y-98305118D01*
X221572218Y-98305119D01*
X221737481Y-98358816D01*
X221909114Y-98385999D01*
X221909115Y-98386000D01*
X222082885Y-98386000D01*
X222082885Y-98385999D01*
X222254518Y-98358816D01*
X222419781Y-98305119D01*
X222419784Y-98305118D01*
X222574618Y-98226228D01*
X222574622Y-98226225D01*
X222682349Y-98147956D01*
X222248158Y-97713765D01*
X222303007Y-97682099D01*
X222396099Y-97589007D01*
X222427765Y-97534158D01*
X222861956Y-97968349D01*
X222940225Y-97860622D01*
X222940228Y-97860618D01*
X223019118Y-97705784D01*
X223019119Y-97705781D01*
X223072816Y-97540518D01*
X223099999Y-97368885D01*
X223100000Y-97368885D01*
X223100000Y-97195114D01*
X223072816Y-97023481D01*
X223019119Y-96858218D01*
X223019118Y-96858215D01*
X222940227Y-96703381D01*
X222940225Y-96703377D01*
X222861956Y-96595649D01*
X222427764Y-97029840D01*
X222396099Y-96974993D01*
X222303007Y-96881901D01*
X222248157Y-96850233D01*
X222682349Y-96416042D01*
X222574622Y-96337774D01*
X222574618Y-96337772D01*
X222419784Y-96258881D01*
X222419781Y-96258880D01*
X222254518Y-96205183D01*
X222082886Y-96178000D01*
X221909114Y-96178000D01*
X221737481Y-96205183D01*
X221572218Y-96258880D01*
X221572215Y-96258881D01*
X221417381Y-96337772D01*
X221417377Y-96337774D01*
X221309649Y-96416042D01*
X221743841Y-96850234D01*
X221688993Y-96881901D01*
X221595901Y-96974993D01*
X221564234Y-97029841D01*
X221130042Y-96595649D01*
X221051774Y-96703377D01*
X221051772Y-96703381D01*
X220972881Y-96858215D01*
X220972880Y-96858218D01*
X220919183Y-97023481D01*
X220892000Y-97195114D01*
X220560000Y-97195114D01*
X220532816Y-97023481D01*
X220479119Y-96858218D01*
X220479118Y-96858215D01*
X220400227Y-96703381D01*
X220400225Y-96703377D01*
X220321956Y-96595649D01*
X219887764Y-97029840D01*
X219856099Y-96974993D01*
X219763007Y-96881901D01*
X219708157Y-96850233D01*
X220142349Y-96416042D01*
X220034622Y-96337774D01*
X220034618Y-96337772D01*
X219879784Y-96258881D01*
X219879781Y-96258880D01*
X219714518Y-96205183D01*
X219542886Y-96178000D01*
X219369114Y-96178000D01*
X219197481Y-96205183D01*
X219032218Y-96258880D01*
X219032215Y-96258881D01*
X218877381Y-96337772D01*
X218877377Y-96337774D01*
X218769649Y-96416042D01*
X219203841Y-96850234D01*
X219148993Y-96881901D01*
X219055901Y-96974993D01*
X219024234Y-97029841D01*
X218590042Y-96595649D01*
X218511774Y-96703377D01*
X218511772Y-96703381D01*
X218432881Y-96858215D01*
X218432880Y-96858218D01*
X218379183Y-97023481D01*
X218352000Y-97195114D01*
X218020500Y-97195114D01*
X218020500Y-97195074D01*
X217993303Y-97023362D01*
X217939580Y-96858019D01*
X217860653Y-96703116D01*
X217758465Y-96562467D01*
X217635533Y-96439535D01*
X217494884Y-96337347D01*
X217339981Y-96258420D01*
X217339977Y-96258419D01*
X217339974Y-96258417D01*
X217174636Y-96204696D01*
X217057318Y-96186115D01*
X217002926Y-96177500D01*
X216829074Y-96177500D01*
X216782119Y-96184937D01*
X216657363Y-96204696D01*
X216492025Y-96258417D01*
X216337119Y-96337345D01*
X216337116Y-96337346D01*
X216337116Y-96337347D01*
X216309236Y-96357602D01*
X216196466Y-96439535D01*
X216073535Y-96562466D01*
X215971345Y-96703119D01*
X215892417Y-96858025D01*
X215838696Y-97023363D01*
X215820718Y-97136875D01*
X215791568Y-97189463D01*
X215735434Y-97211011D01*
X215678583Y-97191435D01*
X215647615Y-97139896D01*
X215646000Y-97123124D01*
X215646000Y-95845900D01*
X215666565Y-95789399D01*
X215718636Y-95759335D01*
X215733900Y-95758000D01*
X216456234Y-95758000D01*
X216489871Y-95764691D01*
G37*
%TD.AperFunction*%
%TD*%
%TA.AperFunction,Conductor*%
%TO.N,Net-(D6-A)*%
G36*
X226647671Y-95764167D02*
G01*
X226652017Y-95765579D01*
X226652019Y-95765580D01*
X226817362Y-95819303D01*
X226989074Y-95846500D01*
X226989077Y-95846500D01*
X227162923Y-95846500D01*
X227162926Y-95846500D01*
X227334638Y-95819303D01*
X227499981Y-95765580D01*
X227499982Y-95765579D01*
X227504329Y-95764167D01*
X227543265Y-95758000D01*
X228518127Y-95758000D01*
X228586248Y-95778002D01*
X228588114Y-95779224D01*
X228666699Y-95831734D01*
X228740933Y-95846500D01*
X230491066Y-95846499D01*
X230491069Y-95846498D01*
X230491073Y-95846498D01*
X230565301Y-95831734D01*
X230643871Y-95779235D01*
X230711624Y-95758020D01*
X230713873Y-95758000D01*
X233173000Y-95758000D01*
X233241121Y-95778002D01*
X233287614Y-95831658D01*
X233299000Y-95884000D01*
X233299000Y-114047000D01*
X233278998Y-114115121D01*
X233225342Y-114161614D01*
X233173000Y-114173000D01*
X224281000Y-114173000D01*
X224212879Y-114152998D01*
X224166386Y-114099342D01*
X224155000Y-114047000D01*
X224155000Y-102654928D01*
X224779100Y-102654928D01*
X224779100Y-102860071D01*
X224819120Y-103061265D01*
X224819122Y-103061270D01*
X224897623Y-103250788D01*
X224997751Y-103400641D01*
X225429362Y-102969030D01*
X225464811Y-103030430D01*
X225547570Y-103113189D01*
X225608967Y-103148636D01*
X225177357Y-103580247D01*
X225327212Y-103680376D01*
X225516729Y-103758877D01*
X225516734Y-103758879D01*
X225717928Y-103798899D01*
X225717932Y-103798900D01*
X225923068Y-103798900D01*
X225923071Y-103798899D01*
X226124265Y-103758879D01*
X226124270Y-103758877D01*
X226313787Y-103680376D01*
X226463641Y-103580246D01*
X226463642Y-103580246D01*
X226032032Y-103148636D01*
X226093430Y-103113189D01*
X226176189Y-103030430D01*
X226211636Y-102969032D01*
X226643246Y-103400642D01*
X226643246Y-103400641D01*
X226743376Y-103250787D01*
X226821877Y-103061270D01*
X226821879Y-103061265D01*
X226861899Y-102860071D01*
X226861900Y-102860067D01*
X226861900Y-102654930D01*
X226861899Y-102654929D01*
X226861889Y-102654879D01*
X230112600Y-102654879D01*
X230112600Y-102860120D01*
X230127914Y-102937105D01*
X230152640Y-103061411D01*
X230231180Y-103251025D01*
X230307368Y-103365048D01*
X230345203Y-103421671D01*
X230345208Y-103421677D01*
X230490322Y-103566791D01*
X230490328Y-103566796D01*
X230660975Y-103680820D01*
X230850589Y-103759360D01*
X231051882Y-103799400D01*
X231051883Y-103799400D01*
X231257117Y-103799400D01*
X231257118Y-103799400D01*
X231458411Y-103759360D01*
X231648025Y-103680820D01*
X231818672Y-103566796D01*
X231963796Y-103421672D01*
X232077820Y-103251025D01*
X232156360Y-103061411D01*
X232196400Y-102860118D01*
X232196400Y-102654882D01*
X232156360Y-102453589D01*
X232077820Y-102263975D01*
X231963796Y-102093328D01*
X231963791Y-102093322D01*
X231818677Y-101948208D01*
X231818671Y-101948203D01*
X231762048Y-101910368D01*
X231648025Y-101834180D01*
X231458411Y-101755640D01*
X231257120Y-101715600D01*
X231257118Y-101715600D01*
X231051882Y-101715600D01*
X231051879Y-101715600D01*
X230850588Y-101755640D01*
X230850583Y-101755642D01*
X230660975Y-101834180D01*
X230490328Y-101948203D01*
X230490322Y-101948208D01*
X230345208Y-102093322D01*
X230345203Y-102093328D01*
X230231180Y-102263975D01*
X230152642Y-102453583D01*
X230152640Y-102453588D01*
X230112600Y-102654879D01*
X226861889Y-102654879D01*
X226821879Y-102453734D01*
X226821877Y-102453729D01*
X226743376Y-102264212D01*
X226643247Y-102114357D01*
X226211636Y-102545967D01*
X226176189Y-102484570D01*
X226093430Y-102401811D01*
X226032029Y-102366362D01*
X226463641Y-101934751D01*
X226463642Y-101934751D01*
X226313788Y-101834623D01*
X226124270Y-101756122D01*
X226124265Y-101756120D01*
X225923071Y-101716100D01*
X225717928Y-101716100D01*
X225516734Y-101756120D01*
X225516729Y-101756122D01*
X225327211Y-101834623D01*
X225327207Y-101834625D01*
X225177356Y-101934751D01*
X225608968Y-102366362D01*
X225547570Y-102401811D01*
X225464811Y-102484570D01*
X225429363Y-102545968D01*
X224997751Y-102114356D01*
X224897625Y-102264207D01*
X224897623Y-102264211D01*
X224819122Y-102453729D01*
X224819120Y-102453734D01*
X224779100Y-102654928D01*
X224155000Y-102654928D01*
X224155000Y-98487449D01*
X224175002Y-98419328D01*
X224228658Y-98372835D01*
X224298932Y-98362731D01*
X224300527Y-98362972D01*
X224449074Y-98386500D01*
X224449078Y-98386500D01*
X224622923Y-98386500D01*
X224622926Y-98386500D01*
X224794638Y-98359303D01*
X224959981Y-98305580D01*
X225114884Y-98226653D01*
X225255533Y-98124465D01*
X225255538Y-98124460D01*
X225369160Y-98010839D01*
X225378460Y-98001538D01*
X225378463Y-98001535D01*
X225378465Y-98001533D01*
X225480653Y-97860884D01*
X225559580Y-97705981D01*
X225613303Y-97540638D01*
X225640500Y-97368926D01*
X225640500Y-97195116D01*
X225972000Y-97195116D01*
X225972000Y-97368883D01*
X225999185Y-97540524D01*
X226052883Y-97705788D01*
X226052884Y-97705790D01*
X226131776Y-97860625D01*
X226210042Y-97968349D01*
X226210043Y-97968349D01*
X226644234Y-97534158D01*
X226675901Y-97589007D01*
X226768993Y-97682099D01*
X226823840Y-97713765D01*
X226389649Y-98147955D01*
X226389649Y-98147956D01*
X226497374Y-98226223D01*
X226652209Y-98305115D01*
X226652211Y-98305116D01*
X226817475Y-98358814D01*
X226989116Y-98386000D01*
X227162884Y-98386000D01*
X227334524Y-98358814D01*
X227499788Y-98305116D01*
X227499790Y-98305115D01*
X227654621Y-98226225D01*
X227762349Y-98147955D01*
X227762349Y-98147954D01*
X227328159Y-97713764D01*
X227383007Y-97682099D01*
X227476099Y-97589007D01*
X227507764Y-97534159D01*
X227941954Y-97968349D01*
X227941955Y-97968349D01*
X228020225Y-97860621D01*
X228099115Y-97705790D01*
X228099116Y-97705788D01*
X228152814Y-97540524D01*
X228180000Y-97368883D01*
X228180000Y-97195116D01*
X228179993Y-97195074D01*
X228511500Y-97195074D01*
X228511500Y-97368926D01*
X228538697Y-97540638D01*
X228592420Y-97705981D01*
X228671347Y-97860884D01*
X228671349Y-97860887D01*
X228773536Y-98001535D01*
X228896464Y-98124463D01*
X228896467Y-98124465D01*
X229037116Y-98226653D01*
X229192019Y-98305580D01*
X229357362Y-98359303D01*
X229529074Y-98386500D01*
X229529077Y-98386500D01*
X229702923Y-98386500D01*
X229702926Y-98386500D01*
X229874638Y-98359303D01*
X230039981Y-98305580D01*
X230194884Y-98226653D01*
X230335533Y-98124465D01*
X230458465Y-98001533D01*
X230560653Y-97860884D01*
X230639580Y-97705981D01*
X230693303Y-97540638D01*
X230720500Y-97368926D01*
X230720500Y-97195074D01*
X230693303Y-97023362D01*
X230639580Y-96858019D01*
X230560653Y-96703116D01*
X230458465Y-96562467D01*
X230458463Y-96562464D01*
X230335535Y-96439536D01*
X230194887Y-96337349D01*
X230194886Y-96337348D01*
X230194884Y-96337347D01*
X230039981Y-96258420D01*
X230039978Y-96258419D01*
X230039976Y-96258418D01*
X229874642Y-96204698D01*
X229874640Y-96204697D01*
X229874638Y-96204697D01*
X229702926Y-96177500D01*
X229529074Y-96177500D01*
X229357362Y-96204697D01*
X229357360Y-96204697D01*
X229357357Y-96204698D01*
X229192023Y-96258418D01*
X229192017Y-96258421D01*
X229037112Y-96337349D01*
X228896464Y-96439536D01*
X228773536Y-96562464D01*
X228671349Y-96703112D01*
X228592421Y-96858017D01*
X228592418Y-96858023D01*
X228538698Y-97023357D01*
X228538697Y-97023360D01*
X228538697Y-97023362D01*
X228511500Y-97195074D01*
X228179993Y-97195074D01*
X228152814Y-97023475D01*
X228099116Y-96858211D01*
X228099115Y-96858209D01*
X228020223Y-96703374D01*
X227941955Y-96595649D01*
X227507764Y-97029839D01*
X227476099Y-96974993D01*
X227383007Y-96881901D01*
X227328158Y-96850234D01*
X227762349Y-96416043D01*
X227762349Y-96416042D01*
X227654625Y-96337776D01*
X227499790Y-96258884D01*
X227499788Y-96258883D01*
X227334524Y-96205185D01*
X227162884Y-96178000D01*
X226989116Y-96178000D01*
X226817475Y-96205185D01*
X226652211Y-96258883D01*
X226652209Y-96258884D01*
X226497379Y-96337773D01*
X226497379Y-96337774D01*
X226389649Y-96416042D01*
X226389649Y-96416044D01*
X226823840Y-96850235D01*
X226768993Y-96881901D01*
X226675901Y-96974993D01*
X226644235Y-97029840D01*
X226210044Y-96595649D01*
X226210042Y-96595649D01*
X226131774Y-96703379D01*
X226131773Y-96703379D01*
X226052884Y-96858209D01*
X226052883Y-96858211D01*
X225999185Y-97023475D01*
X225972000Y-97195116D01*
X225640500Y-97195116D01*
X225640500Y-97195074D01*
X225613303Y-97023362D01*
X225559580Y-96858019D01*
X225480653Y-96703116D01*
X225378465Y-96562467D01*
X225378463Y-96562464D01*
X225255535Y-96439536D01*
X225114887Y-96337349D01*
X225114886Y-96337348D01*
X225114884Y-96337347D01*
X224959981Y-96258420D01*
X224959978Y-96258419D01*
X224959976Y-96258418D01*
X224794642Y-96204698D01*
X224794640Y-96204697D01*
X224794638Y-96204697D01*
X224622926Y-96177500D01*
X224449074Y-96177500D01*
X224300710Y-96200998D01*
X224281872Y-96198564D01*
X224263068Y-96201268D01*
X224247389Y-96194107D01*
X224230300Y-96191899D01*
X224215768Y-96179665D01*
X224198488Y-96171774D01*
X224189170Y-96157275D01*
X224175986Y-96146177D01*
X224170374Y-96128029D01*
X224160104Y-96112048D01*
X224155472Y-96079834D01*
X224155013Y-96078349D01*
X224155000Y-96076550D01*
X224155000Y-95947449D01*
X224175002Y-95879328D01*
X224228658Y-95832835D01*
X224298932Y-95822731D01*
X224300527Y-95822972D01*
X224449074Y-95846500D01*
X224449078Y-95846500D01*
X224622923Y-95846500D01*
X224622926Y-95846500D01*
X224794638Y-95819303D01*
X224959981Y-95765580D01*
X224959982Y-95765579D01*
X224964329Y-95764167D01*
X225003265Y-95758000D01*
X226608735Y-95758000D01*
X226647671Y-95764167D01*
G37*
%TD.AperFunction*%
%TD*%
M02*
