%TF.GenerationSoftware,KiCad,Pcbnew,9.0.5-9.0.5~ubuntu24.04.1*%
%TF.CreationDate,2025-10-21T16:29:03-04:00*%
%TF.ProjectId,optical-carrier,6f707469-6361-46c2-9d63-617272696572,rev?*%
%TF.SameCoordinates,Original*%
%TF.FileFunction,Copper,L1,Top*%
%TF.FilePolarity,Positive*%
%FSLAX46Y46*%
G04 Gerber Fmt 4.6, Leading zero omitted, Abs format (unit mm)*
G04 Created by KiCad (PCBNEW 9.0.5-9.0.5~ubuntu24.04.1) date 2025-10-21 16:29:03*
%MOMM*%
%LPD*%
G01*
G04 APERTURE LIST*
G04 Aperture macros list*
%AMRoundRect*
0 Rectangle with rounded corners*
0 $1 Rounding radius*
0 $2 $3 $4 $5 $6 $7 $8 $9 X,Y pos of 4 corners*
0 Add a 4 corners polygon primitive as box body*
4,1,4,$2,$3,$4,$5,$6,$7,$8,$9,$2,$3,0*
0 Add four circle primitives for the rounded corners*
1,1,$1+$1,$2,$3*
1,1,$1+$1,$4,$5*
1,1,$1+$1,$6,$7*
1,1,$1+$1,$8,$9*
0 Add four rect primitives between the rounded corners*
20,1,$1+$1,$2,$3,$4,$5,0*
20,1,$1+$1,$4,$5,$6,$7,0*
20,1,$1+$1,$6,$7,$8,$9,0*
20,1,$1+$1,$8,$9,$2,$3,0*%
G04 Aperture macros list end*
%TA.AperFunction,SMDPad,CuDef*%
%ADD10R,1.700000X2.000000*%
%TD*%
%TA.AperFunction,SMDPad,CuDef*%
%ADD11R,1.000000X0.750000*%
%TD*%
%TA.AperFunction,ComponentPad*%
%ADD12R,1.700000X1.700000*%
%TD*%
%TA.AperFunction,ComponentPad*%
%ADD13C,1.700000*%
%TD*%
%TA.AperFunction,ComponentPad*%
%ADD14C,1.574800*%
%TD*%
%TA.AperFunction,SMDPad,CuDef*%
%ADD15RoundRect,0.237500X-0.237500X0.250000X-0.237500X-0.250000X0.237500X-0.250000X0.237500X0.250000X0*%
%TD*%
%TA.AperFunction,ViaPad*%
%ADD16C,0.600000*%
%TD*%
%TA.AperFunction,Conductor*%
%ADD17C,0.200000*%
%TD*%
%TA.AperFunction,Conductor*%
%ADD18C,0.381000*%
%TD*%
G04 APERTURE END LIST*
D10*
%TO.P,D3,1,K*%
%TO.N,/LED6*%
X215300000Y-108670000D03*
%TO.P,D3,2,A*%
%TO.N,Net-(D1-A)*%
X211800000Y-108670000D03*
%TD*%
%TO.P,D4,1,K*%
%TO.N,Net-(D4-K)*%
X200300000Y-108670000D03*
%TO.P,D4,2,A*%
%TO.N,Net-(D1-A)*%
X196800000Y-108670000D03*
%TD*%
D11*
%TO.P,D1,1,A*%
%TO.N,Net-(D1-A)*%
X187200000Y-111425500D03*
%TO.P,D1,2,GK*%
%TO.N,/LED1*%
X187200000Y-112875500D03*
%TO.P,D1,3,BK*%
%TO.N,Net-(D1-GK)*%
X189900000Y-112875500D03*
%TO.P,D1,4,RK*%
%TO.N,/LED3*%
X189900000Y-111425500D03*
%TD*%
D10*
%TO.P,D2,1,K*%
%TO.N,/LED2*%
X190300000Y-108670000D03*
%TO.P,D2,2,A*%
%TO.N,Net-(D1-A)*%
X186800000Y-108670000D03*
%TD*%
D12*
%TO.P,JP1,1,A*%
%TO.N,Net-(D1-GK)*%
X194183000Y-95377000D03*
D13*
%TO.P,JP1,2,C*%
%TO.N,/LED4*%
X196723000Y-95377000D03*
%TO.P,JP1,3,B*%
%TO.N,Net-(D4-K)*%
X199263000Y-95377000D03*
%TD*%
D14*
%TO.P,D6,1,K*%
%TO.N,Net-(D6-K)*%
X231154500Y-102757500D03*
%TO.P,D6,2,A*%
%TO.N,Net-(D6-A)*%
X225820500Y-102757500D03*
%TD*%
D11*
%TO.P,D5,1,A*%
%TO.N,Net-(D1-A)*%
X212200000Y-111425500D03*
%TO.P,D5,2,GK*%
%TO.N,/LED5*%
X212200000Y-112875500D03*
%TO.P,D5,3,BK*%
%TO.N,/LED8*%
X214900000Y-112875500D03*
%TO.P,D5,4,RK*%
%TO.N,/LED7*%
X214900000Y-111425500D03*
%TD*%
D15*
%TO.P,TH1,1*%
%TO.N,Net-(J1-Pin_6)*%
X223630000Y-108587500D03*
%TO.P,TH1,2*%
%TO.N,Net-(D6-A)*%
X223630000Y-110412500D03*
%TD*%
D12*
%TO.P,J1,1,Pin_1*%
%TO.N,/LED1*%
X229616000Y-94742000D03*
D13*
%TO.P,J1,2,Pin_2*%
%TO.N,Net-(D6-K)*%
X229616000Y-97282000D03*
%TO.P,J1,3,Pin_3*%
%TO.N,/LED2*%
X227076000Y-94742000D03*
%TO.P,J1,4,Pin_4*%
%TO.N,Net-(D6-A)*%
X227076000Y-97282000D03*
%TO.P,J1,5,Pin_5*%
%TO.N,/LED3*%
X224536000Y-94742000D03*
%TO.P,J1,6,Pin_6*%
%TO.N,Net-(J1-Pin_6)*%
X224536000Y-97282000D03*
%TO.P,J1,7,Pin_7*%
%TO.N,/LED4*%
X221996000Y-94742000D03*
%TO.P,J1,8,Pin_8*%
%TO.N,Net-(D1-A)*%
X221996000Y-97282000D03*
%TO.P,J1,9,Pin_9*%
%TO.N,/LED5*%
X219456000Y-94742000D03*
%TO.P,J1,10,Pin_10*%
%TO.N,Net-(D1-A)*%
X219456000Y-97282000D03*
%TO.P,J1,11,Pin_11*%
%TO.N,/LED6*%
X216916000Y-94742000D03*
%TO.P,J1,12,Pin_12*%
%TO.N,unconnected-(J1-Pin_12-Pad12)*%
X216916000Y-97282000D03*
%TO.P,J1,13,Pin_13*%
%TO.N,/LED7*%
X214376000Y-94742000D03*
%TO.P,J1,14,Pin_14*%
%TO.N,Net-(D6-A)*%
X214376000Y-97282000D03*
%TO.P,J1,15,Pin_15*%
%TO.N,/LED8*%
X211836000Y-94742000D03*
%TO.P,J1,16,Pin_16*%
%TO.N,unconnected-(J1-Pin_16-Pad16)*%
X211836000Y-97282000D03*
%TD*%
D16*
%TO.N,Net-(D1-A)*%
X186182000Y-111379000D03*
X210312000Y-108712000D03*
X211201000Y-111379000D03*
X185420000Y-108585000D03*
X196723000Y-110236000D03*
%TO.N,Net-(J1-Pin_6)*%
X223139000Y-107569000D03*
%TD*%
D17*
%TO.N,/LED4*%
X196723000Y-95377000D02*
X196723000Y-93345000D01*
X200406000Y-89662000D02*
X218440000Y-89662000D01*
X221996000Y-93218000D02*
X221996000Y-94742000D01*
X218440000Y-89662000D02*
X221996000Y-93218000D01*
X196723000Y-93345000D02*
X200406000Y-89662000D01*
D18*
%TO.N,Net-(D1-A)*%
X210354000Y-108670000D02*
X210312000Y-108712000D01*
X186228500Y-111425500D02*
X186182000Y-111379000D01*
X212200000Y-111425500D02*
X211247500Y-111425500D01*
X186800000Y-108670000D02*
X185505000Y-108670000D01*
X196800000Y-108670000D02*
X196800000Y-110159000D01*
X187200000Y-111425500D02*
X186228500Y-111425500D01*
X211247500Y-111425500D02*
X211201000Y-111379000D01*
X185505000Y-108670000D02*
X185420000Y-108585000D01*
X211800000Y-108670000D02*
X210354000Y-108670000D01*
X196800000Y-110159000D02*
X196723000Y-110236000D01*
D17*
%TO.N,/LED1*%
X185138500Y-112875500D02*
X187200000Y-112875500D01*
X223139000Y-85852000D02*
X187071000Y-85852000D01*
X187071000Y-85852000D02*
X180594000Y-92329000D01*
X229616000Y-92329000D02*
X223139000Y-85852000D01*
X180594000Y-108331000D02*
X185138500Y-112875500D01*
X180594000Y-92329000D02*
X180594000Y-108331000D01*
X229616000Y-94742000D02*
X229616000Y-92329000D01*
%TO.N,/LED2*%
X221488000Y-87249000D02*
X227330000Y-93091000D01*
X190300000Y-108670000D02*
X190300000Y-108004000D01*
X190300000Y-108004000D02*
X185674000Y-103378000D01*
X227330000Y-93091000D02*
X227330000Y-94488000D01*
X185674000Y-91313000D02*
X189738000Y-87249000D01*
X189738000Y-87249000D02*
X221488000Y-87249000D01*
X227330000Y-94488000D02*
X227076000Y-94742000D01*
X185674000Y-103378000D02*
X185674000Y-91313000D01*
%TO.N,/LED7*%
X208534000Y-94107000D02*
X208534000Y-100584000D01*
X216107500Y-111425500D02*
X214900000Y-111425500D01*
X209931000Y-92710000D02*
X208534000Y-94107000D01*
X214376000Y-94742000D02*
X214376000Y-93345000D01*
X214376000Y-93345000D02*
X213741000Y-92710000D01*
X217043000Y-101981000D02*
X217678000Y-102616000D01*
X217678000Y-102616000D02*
X217678000Y-109855000D01*
X217678000Y-109855000D02*
X216107500Y-111425500D01*
X213741000Y-92710000D02*
X209931000Y-92710000D01*
X208534000Y-100584000D02*
X209931000Y-101981000D01*
X209931000Y-101981000D02*
X217043000Y-101981000D01*
%TO.N,Net-(D6-K)*%
X229616000Y-97282000D02*
X231154500Y-98820500D01*
X231154500Y-98820500D02*
X231154500Y-102757500D01*
%TO.N,Net-(D4-K)*%
X200300000Y-96414000D02*
X199263000Y-95377000D01*
X200300000Y-108670000D02*
X200300000Y-96414000D01*
%TO.N,Net-(J1-Pin_6)*%
X223139000Y-107569000D02*
X223139000Y-108096500D01*
X223139000Y-108096500D02*
X223630000Y-108587500D01*
%TO.N,/LED8*%
X217424000Y-100203000D02*
X218694000Y-101473000D01*
X218694000Y-101473000D02*
X218694000Y-111252000D01*
X210058000Y-99187000D02*
X211074000Y-100203000D01*
X210058000Y-96520000D02*
X210058000Y-99187000D01*
X211074000Y-100203000D02*
X217424000Y-100203000D01*
X218694000Y-111252000D02*
X217070500Y-112875500D01*
X217070500Y-112875500D02*
X214900000Y-112875500D01*
X211836000Y-94742000D02*
X210058000Y-96520000D01*
%TO.N,/LED3*%
X192786000Y-109982000D02*
X192786000Y-103251000D01*
X224536000Y-92964000D02*
X224536000Y-94742000D01*
X189900000Y-111425500D02*
X191342500Y-111425500D01*
X219837000Y-88265000D02*
X224536000Y-92964000D01*
X192659000Y-88265000D02*
X219837000Y-88265000D01*
X187960000Y-92964000D02*
X192659000Y-88265000D01*
X192786000Y-103251000D02*
X187960000Y-98425000D01*
X187960000Y-98425000D02*
X187960000Y-92964000D01*
X191342500Y-111425500D02*
X192786000Y-109982000D01*
%TO.N,/LED6*%
X209042000Y-106934000D02*
X206502000Y-104394000D01*
X215300000Y-108670000D02*
X213564000Y-106934000D01*
X213564000Y-106934000D02*
X209042000Y-106934000D01*
X215265000Y-91821000D02*
X216916000Y-93472000D01*
X208280000Y-91821000D02*
X215265000Y-91821000D01*
X216916000Y-93472000D02*
X216916000Y-94742000D01*
X206502000Y-93599000D02*
X208280000Y-91821000D01*
X206502000Y-104394000D02*
X206502000Y-93599000D01*
%TO.N,/LED5*%
X203962000Y-108077000D02*
X208760500Y-112875500D01*
X203962000Y-93980000D02*
X203962000Y-108077000D01*
X208760500Y-112875500D02*
X212200000Y-112875500D01*
X219456000Y-94742000D02*
X219456000Y-93726000D01*
X207137000Y-90805000D02*
X203962000Y-93980000D01*
X216535000Y-90805000D02*
X207137000Y-90805000D01*
X219456000Y-93726000D02*
X216535000Y-90805000D01*
%TO.N,Net-(D1-GK)*%
X192051500Y-112875500D02*
X194564000Y-110363000D01*
X194183000Y-99949000D02*
X194183000Y-95377000D01*
X194564000Y-100330000D02*
X194183000Y-99949000D01*
X189900000Y-112875500D02*
X192051500Y-112875500D01*
X194564000Y-110363000D02*
X194564000Y-100330000D01*
%TD*%
%TA.AperFunction,Conductor*%
%TO.N,Net-(D6-A)*%
G36*
X213947671Y-95764167D02*
G01*
X213952017Y-95765579D01*
X213952019Y-95765580D01*
X214117362Y-95819303D01*
X214289074Y-95846500D01*
X214289077Y-95846500D01*
X214462923Y-95846500D01*
X214462926Y-95846500D01*
X214634638Y-95819303D01*
X214799981Y-95765580D01*
X214799982Y-95765579D01*
X214804329Y-95764167D01*
X214843265Y-95758000D01*
X216448735Y-95758000D01*
X216487671Y-95764167D01*
X216492017Y-95765579D01*
X216492019Y-95765580D01*
X216657362Y-95819303D01*
X216829074Y-95846500D01*
X216829077Y-95846500D01*
X217002923Y-95846500D01*
X217002926Y-95846500D01*
X217174638Y-95819303D01*
X217339981Y-95765580D01*
X217339982Y-95765579D01*
X217344329Y-95764167D01*
X217383265Y-95758000D01*
X218988735Y-95758000D01*
X219027671Y-95764167D01*
X219032017Y-95765579D01*
X219032019Y-95765580D01*
X219197362Y-95819303D01*
X219369074Y-95846500D01*
X219369077Y-95846500D01*
X219542923Y-95846500D01*
X219542926Y-95846500D01*
X219714638Y-95819303D01*
X219879981Y-95765580D01*
X219879982Y-95765579D01*
X219884329Y-95764167D01*
X219923265Y-95758000D01*
X221528735Y-95758000D01*
X221567671Y-95764167D01*
X221572017Y-95765579D01*
X221572019Y-95765580D01*
X221737362Y-95819303D01*
X221909074Y-95846500D01*
X221909077Y-95846500D01*
X222082923Y-95846500D01*
X222082926Y-95846500D01*
X222254638Y-95819303D01*
X222419981Y-95765580D01*
X222419982Y-95765579D01*
X222424329Y-95764167D01*
X222463265Y-95758000D01*
X224068735Y-95758000D01*
X224107671Y-95764167D01*
X224112017Y-95765579D01*
X224112019Y-95765580D01*
X224277362Y-95819303D01*
X224449074Y-95846500D01*
X224449077Y-95846500D01*
X224622923Y-95846500D01*
X224622926Y-95846500D01*
X224794638Y-95819303D01*
X224959981Y-95765580D01*
X224959982Y-95765579D01*
X224964329Y-95764167D01*
X225003265Y-95758000D01*
X226608735Y-95758000D01*
X226647671Y-95764167D01*
X226652017Y-95765579D01*
X226652019Y-95765580D01*
X226817362Y-95819303D01*
X226989074Y-95846500D01*
X226989077Y-95846500D01*
X227162923Y-95846500D01*
X227162926Y-95846500D01*
X227334638Y-95819303D01*
X227499981Y-95765580D01*
X227499982Y-95765579D01*
X227504329Y-95764167D01*
X227543265Y-95758000D01*
X228518127Y-95758000D01*
X228586248Y-95778002D01*
X228588114Y-95779224D01*
X228666699Y-95831734D01*
X228740933Y-95846500D01*
X230491066Y-95846499D01*
X230491069Y-95846498D01*
X230491073Y-95846498D01*
X230565301Y-95831734D01*
X230643871Y-95779235D01*
X230711624Y-95758020D01*
X230713873Y-95758000D01*
X233173000Y-95758000D01*
X233241121Y-95778002D01*
X233287614Y-95831658D01*
X233299000Y-95884000D01*
X233299000Y-114047000D01*
X233278998Y-114115121D01*
X233225342Y-114161614D01*
X233173000Y-114173000D01*
X220344000Y-114173000D01*
X220275879Y-114152998D01*
X220229386Y-114099342D01*
X220218000Y-114047000D01*
X220218000Y-110709515D01*
X222901000Y-110709515D01*
X222907294Y-110768049D01*
X222956685Y-110900471D01*
X223041383Y-111013616D01*
X223154528Y-111098314D01*
X223286950Y-111147705D01*
X223345484Y-111153999D01*
X223345496Y-111154000D01*
X223503000Y-111154000D01*
X223757000Y-111154000D01*
X223914504Y-111154000D01*
X223914515Y-111153999D01*
X223973049Y-111147705D01*
X224105471Y-111098314D01*
X224218616Y-111013616D01*
X224303314Y-110900471D01*
X224352705Y-110768049D01*
X224358999Y-110709515D01*
X224359000Y-110709503D01*
X224359000Y-110539500D01*
X223757000Y-110539500D01*
X223757000Y-111154000D01*
X223503000Y-111154000D01*
X223503000Y-110539500D01*
X222901000Y-110539500D01*
X222901000Y-110709515D01*
X220218000Y-110709515D01*
X220218000Y-110115484D01*
X222901000Y-110115484D01*
X222901000Y-110285500D01*
X223503000Y-110285500D01*
X223757000Y-110285500D01*
X224359000Y-110285500D01*
X224359000Y-110115496D01*
X224358999Y-110115484D01*
X224352705Y-110056950D01*
X224303314Y-109924528D01*
X224218616Y-109811383D01*
X224105471Y-109726685D01*
X223973049Y-109677294D01*
X223914515Y-109671000D01*
X223757000Y-109671000D01*
X223757000Y-110285500D01*
X223503000Y-110285500D01*
X223503000Y-109671000D01*
X223345484Y-109671000D01*
X223286950Y-109677294D01*
X223154528Y-109726685D01*
X223041383Y-109811383D01*
X222956685Y-109924528D01*
X222907294Y-110056950D01*
X222901000Y-110115484D01*
X220218000Y-110115484D01*
X220218000Y-107495999D01*
X222584500Y-107495999D01*
X222584500Y-107642001D01*
X222585286Y-107644933D01*
X222622289Y-107783033D01*
X222695286Y-107909467D01*
X222695288Y-107909470D01*
X222695289Y-107909471D01*
X222747596Y-107961778D01*
X222781620Y-108024088D01*
X222784500Y-108050872D01*
X222784500Y-108143174D01*
X222808659Y-108233333D01*
X222855326Y-108314164D01*
X222855329Y-108314168D01*
X222863593Y-108322432D01*
X222897620Y-108384741D01*
X222900500Y-108411529D01*
X222900500Y-108884548D01*
X222900502Y-108884572D01*
X222906798Y-108943151D01*
X222906799Y-108943156D01*
X222906800Y-108943157D01*
X222956242Y-109075715D01*
X222956243Y-109075716D01*
X222956244Y-109075719D01*
X223041025Y-109188974D01*
X223154281Y-109273755D01*
X223154285Y-109273758D01*
X223286839Y-109323199D01*
X223286847Y-109323201D01*
X223316143Y-109326350D01*
X223345443Y-109329500D01*
X223914556Y-109329499D01*
X223940408Y-109326720D01*
X223973151Y-109323201D01*
X223973152Y-109323200D01*
X223973157Y-109323200D01*
X224105715Y-109273758D01*
X224218974Y-109188974D01*
X224303758Y-109075715D01*
X224353200Y-108943157D01*
X224359499Y-108884572D01*
X224359499Y-108884568D01*
X224359499Y-108884566D01*
X224359500Y-108884557D01*
X224359499Y-108290444D01*
X224357785Y-108274503D01*
X224353201Y-108231848D01*
X224353200Y-108231846D01*
X224353200Y-108231843D01*
X224303758Y-108099285D01*
X224303755Y-108099281D01*
X224303755Y-108099280D01*
X224218974Y-107986025D01*
X224105718Y-107901244D01*
X224105714Y-107901241D01*
X223973160Y-107851800D01*
X223973152Y-107851798D01*
X223914568Y-107845500D01*
X223914557Y-107845500D01*
X223803179Y-107845500D01*
X223735058Y-107825498D01*
X223688565Y-107771842D01*
X223678461Y-107701568D01*
X223681472Y-107686889D01*
X223692714Y-107644933D01*
X223693500Y-107642001D01*
X223693500Y-107495999D01*
X223655712Y-107354971D01*
X223655710Y-107354968D01*
X223655710Y-107354966D01*
X223582713Y-107228532D01*
X223582705Y-107228522D01*
X223479477Y-107125294D01*
X223479467Y-107125286D01*
X223353033Y-107052289D01*
X223336372Y-107047824D01*
X223212001Y-107014500D01*
X223065999Y-107014500D01*
X222979686Y-107037627D01*
X222924966Y-107052289D01*
X222798532Y-107125286D01*
X222798522Y-107125294D01*
X222695294Y-107228522D01*
X222695286Y-107228532D01*
X222622289Y-107354966D01*
X222622288Y-107354971D01*
X222584500Y-107495999D01*
X220218000Y-107495999D01*
X220218000Y-102654928D01*
X224779100Y-102654928D01*
X224779100Y-102860071D01*
X224819120Y-103061265D01*
X224819122Y-103061270D01*
X224897623Y-103250788D01*
X224997751Y-103400641D01*
X225429362Y-102969030D01*
X225464811Y-103030430D01*
X225547570Y-103113189D01*
X225608967Y-103148636D01*
X225177357Y-103580247D01*
X225327212Y-103680376D01*
X225516729Y-103758877D01*
X225516734Y-103758879D01*
X225717928Y-103798899D01*
X225717932Y-103798900D01*
X225923068Y-103798900D01*
X225923071Y-103798899D01*
X226124265Y-103758879D01*
X226124270Y-103758877D01*
X226313787Y-103680376D01*
X226463641Y-103580246D01*
X226463642Y-103580246D01*
X226032032Y-103148636D01*
X226093430Y-103113189D01*
X226176189Y-103030430D01*
X226211636Y-102969032D01*
X226643246Y-103400642D01*
X226643246Y-103400641D01*
X226743376Y-103250787D01*
X226821877Y-103061270D01*
X226821879Y-103061265D01*
X226861899Y-102860071D01*
X226861900Y-102860067D01*
X226861900Y-102654932D01*
X226861899Y-102654928D01*
X226821879Y-102453734D01*
X226821877Y-102453729D01*
X226743376Y-102264212D01*
X226643247Y-102114357D01*
X226211636Y-102545967D01*
X226176189Y-102484570D01*
X226093430Y-102401811D01*
X226032029Y-102366362D01*
X226463641Y-101934751D01*
X226463642Y-101934751D01*
X226313788Y-101834623D01*
X226124270Y-101756122D01*
X226124265Y-101756120D01*
X225923071Y-101716100D01*
X225717928Y-101716100D01*
X225516734Y-101756120D01*
X225516729Y-101756122D01*
X225327211Y-101834623D01*
X225327207Y-101834625D01*
X225177356Y-101934751D01*
X225608968Y-102366362D01*
X225547570Y-102401811D01*
X225464811Y-102484570D01*
X225429363Y-102545968D01*
X224997751Y-102114356D01*
X224897625Y-102264207D01*
X224897623Y-102264211D01*
X224819122Y-102453729D01*
X224819120Y-102453734D01*
X224779100Y-102654928D01*
X220218000Y-102654928D01*
X220218000Y-99441000D01*
X213105000Y-99441000D01*
X213036879Y-99420998D01*
X212990386Y-99367342D01*
X212979000Y-99315000D01*
X212979000Y-97195116D01*
X213272000Y-97195116D01*
X213272000Y-97368883D01*
X213299185Y-97540524D01*
X213352883Y-97705788D01*
X213352884Y-97705790D01*
X213431776Y-97860625D01*
X213510042Y-97968349D01*
X213510043Y-97968349D01*
X213944234Y-97534158D01*
X213975901Y-97589007D01*
X214068993Y-97682099D01*
X214123840Y-97713765D01*
X213689649Y-98147955D01*
X213689649Y-98147956D01*
X213797374Y-98226223D01*
X213952209Y-98305115D01*
X213952211Y-98305116D01*
X214117475Y-98358814D01*
X214289116Y-98386000D01*
X214462884Y-98386000D01*
X214634524Y-98358814D01*
X214799788Y-98305116D01*
X214799790Y-98305115D01*
X214954621Y-98226225D01*
X215062349Y-98147955D01*
X215062349Y-98147954D01*
X214628159Y-97713764D01*
X214683007Y-97682099D01*
X214776099Y-97589007D01*
X214807764Y-97534159D01*
X215241954Y-97968349D01*
X215241955Y-97968349D01*
X215320225Y-97860621D01*
X215399115Y-97705790D01*
X215399116Y-97705788D01*
X215452814Y-97540524D01*
X215480000Y-97368883D01*
X215480000Y-97195116D01*
X215479993Y-97195074D01*
X215811500Y-97195074D01*
X215811500Y-97368926D01*
X215838697Y-97540638D01*
X215892420Y-97705981D01*
X215971347Y-97860884D01*
X215971349Y-97860887D01*
X216073536Y-98001535D01*
X216196464Y-98124463D01*
X216196467Y-98124465D01*
X216337116Y-98226653D01*
X216492019Y-98305580D01*
X216657362Y-98359303D01*
X216829074Y-98386500D01*
X216829077Y-98386500D01*
X217002923Y-98386500D01*
X217002926Y-98386500D01*
X217174638Y-98359303D01*
X217339981Y-98305580D01*
X217494884Y-98226653D01*
X217635533Y-98124465D01*
X217758465Y-98001533D01*
X217860653Y-97860884D01*
X217939580Y-97705981D01*
X217993303Y-97540638D01*
X218020500Y-97368926D01*
X218020500Y-97195074D01*
X218351500Y-97195074D01*
X218351500Y-97368926D01*
X218378697Y-97540638D01*
X218432420Y-97705981D01*
X218511347Y-97860884D01*
X218511349Y-97860887D01*
X218613536Y-98001535D01*
X218736464Y-98124463D01*
X218736467Y-98124465D01*
X218877116Y-98226653D01*
X219032019Y-98305580D01*
X219197362Y-98359303D01*
X219369074Y-98386500D01*
X219369077Y-98386500D01*
X219542923Y-98386500D01*
X219542926Y-98386500D01*
X219714638Y-98359303D01*
X219879981Y-98305580D01*
X220034884Y-98226653D01*
X220175533Y-98124465D01*
X220298465Y-98001533D01*
X220400653Y-97860884D01*
X220479580Y-97705981D01*
X220533303Y-97540638D01*
X220560500Y-97368926D01*
X220560500Y-97195074D01*
X220891500Y-97195074D01*
X220891500Y-97368926D01*
X220918697Y-97540638D01*
X220972420Y-97705981D01*
X221051347Y-97860884D01*
X221051349Y-97860887D01*
X221153536Y-98001535D01*
X221276464Y-98124463D01*
X221276467Y-98124465D01*
X221417116Y-98226653D01*
X221572019Y-98305580D01*
X221737362Y-98359303D01*
X221909074Y-98386500D01*
X221909077Y-98386500D01*
X222082923Y-98386500D01*
X222082926Y-98386500D01*
X222254638Y-98359303D01*
X222419981Y-98305580D01*
X222574884Y-98226653D01*
X222715533Y-98124465D01*
X222838465Y-98001533D01*
X222940653Y-97860884D01*
X223019580Y-97705981D01*
X223073303Y-97540638D01*
X223100500Y-97368926D01*
X223100500Y-97195074D01*
X223431500Y-97195074D01*
X223431500Y-97368926D01*
X223458697Y-97540638D01*
X223512420Y-97705981D01*
X223591347Y-97860884D01*
X223591349Y-97860887D01*
X223693536Y-98001535D01*
X223816464Y-98124463D01*
X223816467Y-98124465D01*
X223957116Y-98226653D01*
X224112019Y-98305580D01*
X224277362Y-98359303D01*
X224449074Y-98386500D01*
X224449077Y-98386500D01*
X224622923Y-98386500D01*
X224622926Y-98386500D01*
X224794638Y-98359303D01*
X224959981Y-98305580D01*
X225114884Y-98226653D01*
X225255533Y-98124465D01*
X225255538Y-98124460D01*
X225369160Y-98010839D01*
X225378460Y-98001538D01*
X225378463Y-98001535D01*
X225378465Y-98001533D01*
X225480653Y-97860884D01*
X225559580Y-97705981D01*
X225613303Y-97540638D01*
X225640500Y-97368926D01*
X225640500Y-97195116D01*
X225972000Y-97195116D01*
X225972000Y-97368883D01*
X225999185Y-97540524D01*
X226052883Y-97705788D01*
X226052884Y-97705790D01*
X226131776Y-97860625D01*
X226210042Y-97968349D01*
X226210043Y-97968349D01*
X226644234Y-97534158D01*
X226675901Y-97589007D01*
X226768993Y-97682099D01*
X226823840Y-97713765D01*
X226389649Y-98147955D01*
X226389649Y-98147956D01*
X226497374Y-98226223D01*
X226652209Y-98305115D01*
X226652211Y-98305116D01*
X226817475Y-98358814D01*
X226989116Y-98386000D01*
X227162884Y-98386000D01*
X227334524Y-98358814D01*
X227499788Y-98305116D01*
X227499790Y-98305115D01*
X227654621Y-98226225D01*
X227762349Y-98147955D01*
X227762349Y-98147954D01*
X227328159Y-97713764D01*
X227383007Y-97682099D01*
X227476099Y-97589007D01*
X227507764Y-97534159D01*
X227941954Y-97968349D01*
X227941955Y-97968349D01*
X228020225Y-97860621D01*
X228099115Y-97705790D01*
X228099116Y-97705788D01*
X228152814Y-97540524D01*
X228180000Y-97368883D01*
X228180000Y-97195116D01*
X228179993Y-97195074D01*
X228511500Y-97195074D01*
X228511500Y-97368926D01*
X228538697Y-97540638D01*
X228592420Y-97705981D01*
X228671347Y-97860884D01*
X228671349Y-97860887D01*
X228773536Y-98001535D01*
X228896464Y-98124463D01*
X228896467Y-98124465D01*
X229037116Y-98226653D01*
X229192019Y-98305580D01*
X229357362Y-98359303D01*
X229529074Y-98386500D01*
X229529077Y-98386500D01*
X229702923Y-98386500D01*
X229702926Y-98386500D01*
X229874638Y-98359303D01*
X230039981Y-98305580D01*
X230039988Y-98305575D01*
X230040709Y-98305342D01*
X230111677Y-98303314D01*
X230168741Y-98336080D01*
X230763095Y-98930434D01*
X230797121Y-98992746D01*
X230800000Y-99019529D01*
X230800000Y-101692403D01*
X230779998Y-101760524D01*
X230726342Y-101807017D01*
X230722219Y-101808812D01*
X230660973Y-101834181D01*
X230490328Y-101948203D01*
X230490322Y-101948208D01*
X230345208Y-102093322D01*
X230345203Y-102093328D01*
X230231180Y-102263975D01*
X230152642Y-102453583D01*
X230152640Y-102453588D01*
X230112600Y-102654879D01*
X230112600Y-102860120D01*
X230127914Y-102937105D01*
X230152640Y-103061411D01*
X230231180Y-103251025D01*
X230307368Y-103365048D01*
X230345203Y-103421671D01*
X230345208Y-103421677D01*
X230490322Y-103566791D01*
X230490328Y-103566796D01*
X230660975Y-103680820D01*
X230850589Y-103759360D01*
X231051882Y-103799400D01*
X231051883Y-103799400D01*
X231257117Y-103799400D01*
X231257118Y-103799400D01*
X231458411Y-103759360D01*
X231648025Y-103680820D01*
X231818672Y-103566796D01*
X231963796Y-103421672D01*
X232077820Y-103251025D01*
X232156360Y-103061411D01*
X232196400Y-102860118D01*
X232196400Y-102654882D01*
X232156360Y-102453589D01*
X232077820Y-102263975D01*
X231963796Y-102093328D01*
X231963791Y-102093322D01*
X231818677Y-101948208D01*
X231818671Y-101948203D01*
X231662973Y-101844168D01*
X231648025Y-101834180D01*
X231586780Y-101808811D01*
X231531501Y-101764263D01*
X231509080Y-101696900D01*
X231509000Y-101692403D01*
X231509000Y-98877334D01*
X231509001Y-98877321D01*
X231509001Y-98773829D01*
X231509000Y-98773825D01*
X231484843Y-98683672D01*
X231484842Y-98683671D01*
X231484842Y-98683669D01*
X231438171Y-98602832D01*
X230670078Y-97834739D01*
X230636055Y-97772429D01*
X230639342Y-97706709D01*
X230639575Y-97705988D01*
X230639580Y-97705981D01*
X230693303Y-97540638D01*
X230720500Y-97368926D01*
X230720500Y-97195074D01*
X230693303Y-97023362D01*
X230639580Y-96858019D01*
X230560653Y-96703116D01*
X230458465Y-96562467D01*
X230458463Y-96562464D01*
X230335535Y-96439536D01*
X230194887Y-96337349D01*
X230194886Y-96337348D01*
X230194884Y-96337347D01*
X230039981Y-96258420D01*
X230039978Y-96258419D01*
X230039976Y-96258418D01*
X229874642Y-96204698D01*
X229874640Y-96204697D01*
X229874638Y-96204697D01*
X229702926Y-96177500D01*
X229529074Y-96177500D01*
X229357362Y-96204697D01*
X229357360Y-96204697D01*
X229357357Y-96204698D01*
X229192023Y-96258418D01*
X229192017Y-96258421D01*
X229037112Y-96337349D01*
X228896464Y-96439536D01*
X228773536Y-96562464D01*
X228671349Y-96703112D01*
X228592421Y-96858017D01*
X228592418Y-96858023D01*
X228538698Y-97023357D01*
X228538697Y-97023360D01*
X228538697Y-97023362D01*
X228511500Y-97195074D01*
X228179993Y-97195074D01*
X228152814Y-97023475D01*
X228099116Y-96858211D01*
X228099115Y-96858209D01*
X228020223Y-96703374D01*
X227941955Y-96595649D01*
X227507764Y-97029839D01*
X227476099Y-96974993D01*
X227383007Y-96881901D01*
X227328158Y-96850234D01*
X227762349Y-96416043D01*
X227762349Y-96416042D01*
X227654625Y-96337776D01*
X227499790Y-96258884D01*
X227499788Y-96258883D01*
X227334524Y-96205185D01*
X227162884Y-96178000D01*
X226989116Y-96178000D01*
X226817475Y-96205185D01*
X226652211Y-96258883D01*
X226652209Y-96258884D01*
X226497379Y-96337773D01*
X226497379Y-96337774D01*
X226389649Y-96416042D01*
X226389649Y-96416044D01*
X226823840Y-96850235D01*
X226768993Y-96881901D01*
X226675901Y-96974993D01*
X226644235Y-97029840D01*
X226210044Y-96595649D01*
X226210042Y-96595649D01*
X226131774Y-96703379D01*
X226131773Y-96703379D01*
X226052884Y-96858209D01*
X226052883Y-96858211D01*
X225999185Y-97023475D01*
X225972000Y-97195116D01*
X225640500Y-97195116D01*
X225640500Y-97195074D01*
X225613303Y-97023362D01*
X225559580Y-96858019D01*
X225480653Y-96703116D01*
X225378465Y-96562467D01*
X225378463Y-96562464D01*
X225255535Y-96439536D01*
X225114887Y-96337349D01*
X225114886Y-96337348D01*
X225114884Y-96337347D01*
X224959981Y-96258420D01*
X224959978Y-96258419D01*
X224959976Y-96258418D01*
X224794642Y-96204698D01*
X224794640Y-96204697D01*
X224794638Y-96204697D01*
X224622926Y-96177500D01*
X224449074Y-96177500D01*
X224277362Y-96204697D01*
X224277360Y-96204697D01*
X224277357Y-96204698D01*
X224112023Y-96258418D01*
X224112017Y-96258421D01*
X223957112Y-96337349D01*
X223816464Y-96439536D01*
X223693536Y-96562464D01*
X223591349Y-96703112D01*
X223512421Y-96858017D01*
X223512418Y-96858023D01*
X223458698Y-97023357D01*
X223458697Y-97023360D01*
X223458697Y-97023362D01*
X223431500Y-97195074D01*
X223100500Y-97195074D01*
X223073303Y-97023362D01*
X223019580Y-96858019D01*
X222940653Y-96703116D01*
X222838465Y-96562467D01*
X222838463Y-96562464D01*
X222715535Y-96439536D01*
X222574887Y-96337349D01*
X222574886Y-96337348D01*
X222574884Y-96337347D01*
X222419981Y-96258420D01*
X222419978Y-96258419D01*
X222419976Y-96258418D01*
X222254642Y-96204698D01*
X222254640Y-96204697D01*
X222254638Y-96204697D01*
X222082926Y-96177500D01*
X221909074Y-96177500D01*
X221737362Y-96204697D01*
X221737360Y-96204697D01*
X221737357Y-96204698D01*
X221572023Y-96258418D01*
X221572017Y-96258421D01*
X221417112Y-96337349D01*
X221276464Y-96439536D01*
X221153536Y-96562464D01*
X221051349Y-96703112D01*
X220972421Y-96858017D01*
X220972418Y-96858023D01*
X220918698Y-97023357D01*
X220918697Y-97023360D01*
X220918697Y-97023362D01*
X220891500Y-97195074D01*
X220560500Y-97195074D01*
X220533303Y-97023362D01*
X220479580Y-96858019D01*
X220400653Y-96703116D01*
X220298465Y-96562467D01*
X220298463Y-96562464D01*
X220175535Y-96439536D01*
X220034887Y-96337349D01*
X220034886Y-96337348D01*
X220034884Y-96337347D01*
X219879981Y-96258420D01*
X219879978Y-96258419D01*
X219879976Y-96258418D01*
X219714642Y-96204698D01*
X219714640Y-96204697D01*
X219714638Y-96204697D01*
X219542926Y-96177500D01*
X219369074Y-96177500D01*
X219197362Y-96204697D01*
X219197360Y-96204697D01*
X219197357Y-96204698D01*
X219032023Y-96258418D01*
X219032017Y-96258421D01*
X218877112Y-96337349D01*
X218736464Y-96439536D01*
X218613536Y-96562464D01*
X218511349Y-96703112D01*
X218432421Y-96858017D01*
X218432418Y-96858023D01*
X218378698Y-97023357D01*
X218378697Y-97023360D01*
X218378697Y-97023362D01*
X218351500Y-97195074D01*
X218020500Y-97195074D01*
X217993303Y-97023362D01*
X217939580Y-96858019D01*
X217860653Y-96703116D01*
X217758465Y-96562467D01*
X217758463Y-96562464D01*
X217635535Y-96439536D01*
X217494887Y-96337349D01*
X217494886Y-96337348D01*
X217494884Y-96337347D01*
X217339981Y-96258420D01*
X217339978Y-96258419D01*
X217339976Y-96258418D01*
X217174642Y-96204698D01*
X217174640Y-96204697D01*
X217174638Y-96204697D01*
X217002926Y-96177500D01*
X216829074Y-96177500D01*
X216657362Y-96204697D01*
X216657360Y-96204697D01*
X216657357Y-96204698D01*
X216492023Y-96258418D01*
X216492017Y-96258421D01*
X216337112Y-96337349D01*
X216196464Y-96439536D01*
X216073536Y-96562464D01*
X215971349Y-96703112D01*
X215892421Y-96858017D01*
X215892418Y-96858023D01*
X215838698Y-97023357D01*
X215838697Y-97023360D01*
X215838697Y-97023362D01*
X215811500Y-97195074D01*
X215479993Y-97195074D01*
X215452814Y-97023475D01*
X215399116Y-96858211D01*
X215399115Y-96858209D01*
X215320223Y-96703374D01*
X215241955Y-96595649D01*
X214807764Y-97029839D01*
X214776099Y-96974993D01*
X214683007Y-96881901D01*
X214628158Y-96850234D01*
X215062349Y-96416043D01*
X215062349Y-96416042D01*
X214954625Y-96337776D01*
X214799790Y-96258884D01*
X214799788Y-96258883D01*
X214634524Y-96205185D01*
X214462884Y-96178000D01*
X214289116Y-96178000D01*
X214117475Y-96205185D01*
X213952211Y-96258883D01*
X213952209Y-96258884D01*
X213797379Y-96337773D01*
X213797379Y-96337774D01*
X213689649Y-96416042D01*
X213689649Y-96416044D01*
X214123840Y-96850235D01*
X214068993Y-96881901D01*
X213975901Y-96974993D01*
X213944235Y-97029840D01*
X213510044Y-96595649D01*
X213510042Y-96595649D01*
X213431774Y-96703379D01*
X213431773Y-96703379D01*
X213352884Y-96858209D01*
X213352883Y-96858211D01*
X213299185Y-97023475D01*
X213272000Y-97195116D01*
X212979000Y-97195116D01*
X212979000Y-95884000D01*
X212999002Y-95815879D01*
X213052658Y-95769386D01*
X213105000Y-95758000D01*
X213908735Y-95758000D01*
X213947671Y-95764167D01*
G37*
%TD.AperFunction*%
%TD*%
M02*
