%TF.GenerationSoftware,KiCad,Pcbnew,9.0.3-9.0.3-0~ubuntu24.04.1*%
%TF.CreationDate,2025-08-17T08:06:19-04:00*%
%TF.ProjectId,led-photodiode-avr,6c65642d-7068-46f7-946f-64696f64652d,rev?*%
%TF.SameCoordinates,Original*%
%TF.FileFunction,Copper,L1,Top*%
%TF.FilePolarity,Positive*%
%FSLAX46Y46*%
G04 Gerber Fmt 4.6, Leading zero omitted, Abs format (unit mm)*
G04 Created by KiCad (PCBNEW 9.0.3-9.0.3-0~ubuntu24.04.1) date 2025-08-17 08:06:19*
%MOMM*%
%LPD*%
G01*
G04 APERTURE LIST*
G04 Aperture macros list*
%AMRoundRect*
0 Rectangle with rounded corners*
0 $1 Rounding radius*
0 $2 $3 $4 $5 $6 $7 $8 $9 X,Y pos of 4 corners*
0 Add a 4 corners polygon primitive as box body*
4,1,4,$2,$3,$4,$5,$6,$7,$8,$9,$2,$3,0*
0 Add four circle primitives for the rounded corners*
1,1,$1+$1,$2,$3*
1,1,$1+$1,$4,$5*
1,1,$1+$1,$6,$7*
1,1,$1+$1,$8,$9*
0 Add four rect primitives between the rounded corners*
20,1,$1+$1,$2,$3,$4,$5,0*
20,1,$1+$1,$4,$5,$6,$7,0*
20,1,$1+$1,$6,$7,$8,$9,0*
20,1,$1+$1,$8,$9,$2,$3,0*%
G04 Aperture macros list end*
%TA.AperFunction,ComponentPad*%
%ADD10RoundRect,0.250001X1.149999X-1.149999X1.149999X1.149999X-1.149999X1.149999X-1.149999X-1.149999X0*%
%TD*%
%TA.AperFunction,ComponentPad*%
%ADD11C,2.800000*%
%TD*%
%TA.AperFunction,SMDPad,CuDef*%
%ADD12RoundRect,0.250000X-0.450000X0.325000X-0.450000X-0.325000X0.450000X-0.325000X0.450000X0.325000X0*%
%TD*%
%TA.AperFunction,SMDPad,CuDef*%
%ADD13RoundRect,0.200000X0.200000X-0.250000X0.200000X0.250000X-0.200000X0.250000X-0.200000X-0.250000X0*%
%TD*%
%TA.AperFunction,SMDPad,CuDef*%
%ADD14RoundRect,0.250000X0.337500X0.475000X-0.337500X0.475000X-0.337500X-0.475000X0.337500X-0.475000X0*%
%TD*%
%TA.AperFunction,SMDPad,CuDef*%
%ADD15RoundRect,0.150000X-0.825000X-0.150000X0.825000X-0.150000X0.825000X0.150000X-0.825000X0.150000X0*%
%TD*%
%TA.AperFunction,ComponentPad*%
%ADD16R,1.700000X1.700000*%
%TD*%
%TA.AperFunction,ComponentPad*%
%ADD17C,1.700000*%
%TD*%
%TA.AperFunction,ComponentPad*%
%ADD18C,7.500000*%
%TD*%
%TA.AperFunction,SMDPad,CuDef*%
%ADD19RoundRect,0.250000X0.450000X-0.350000X0.450000X0.350000X-0.450000X0.350000X-0.450000X-0.350000X0*%
%TD*%
%TA.AperFunction,SMDPad,CuDef*%
%ADD20RoundRect,0.250000X-0.475000X0.337500X-0.475000X-0.337500X0.475000X-0.337500X0.475000X0.337500X0*%
%TD*%
%TA.AperFunction,SMDPad,CuDef*%
%ADD21RoundRect,0.250000X-0.400000X-0.300000X0.400000X-0.300000X0.400000X0.300000X-0.400000X0.300000X0*%
%TD*%
%TA.AperFunction,SMDPad,CuDef*%
%ADD22RoundRect,0.250000X0.475000X-0.337500X0.475000X0.337500X-0.475000X0.337500X-0.475000X-0.337500X0*%
%TD*%
%TA.AperFunction,SMDPad,CuDef*%
%ADD23RoundRect,0.375000X-0.625000X-0.375000X0.625000X-0.375000X0.625000X0.375000X-0.625000X0.375000X0*%
%TD*%
%TA.AperFunction,SMDPad,CuDef*%
%ADD24RoundRect,0.500000X-0.500000X-1.400000X0.500000X-1.400000X0.500000X1.400000X-0.500000X1.400000X0*%
%TD*%
%TA.AperFunction,SMDPad,CuDef*%
%ADD25RoundRect,0.250000X-0.337500X-0.475000X0.337500X-0.475000X0.337500X0.475000X-0.337500X0.475000X0*%
%TD*%
%TA.AperFunction,SMDPad,CuDef*%
%ADD26RoundRect,0.150000X-0.150000X0.875000X-0.150000X-0.875000X0.150000X-0.875000X0.150000X0.875000X0*%
%TD*%
%TA.AperFunction,SMDPad,CuDef*%
%ADD27RoundRect,0.150000X0.587500X0.150000X-0.587500X0.150000X-0.587500X-0.150000X0.587500X-0.150000X0*%
%TD*%
%TA.AperFunction,SMDPad,CuDef*%
%ADD28RoundRect,0.150000X0.825000X0.150000X-0.825000X0.150000X-0.825000X-0.150000X0.825000X-0.150000X0*%
%TD*%
%TA.AperFunction,SMDPad,CuDef*%
%ADD29RoundRect,0.250000X0.350000X0.450000X-0.350000X0.450000X-0.350000X-0.450000X0.350000X-0.450000X0*%
%TD*%
%TA.AperFunction,SMDPad,CuDef*%
%ADD30RoundRect,0.250000X-0.325000X-0.450000X0.325000X-0.450000X0.325000X0.450000X-0.325000X0.450000X0*%
%TD*%
%TA.AperFunction,SMDPad,CuDef*%
%ADD31RoundRect,0.250000X0.450000X-0.325000X0.450000X0.325000X-0.450000X0.325000X-0.450000X-0.325000X0*%
%TD*%
%TA.AperFunction,SMDPad,CuDef*%
%ADD32RoundRect,0.250000X-0.350000X-0.450000X0.350000X-0.450000X0.350000X0.450000X-0.350000X0.450000X0*%
%TD*%
%TA.AperFunction,SMDPad,CuDef*%
%ADD33RoundRect,0.125000X-0.537500X-0.125000X0.537500X-0.125000X0.537500X0.125000X-0.537500X0.125000X0*%
%TD*%
%TA.AperFunction,SMDPad,CuDef*%
%ADD34RoundRect,0.137500X-0.600000X-0.137500X0.600000X-0.137500X0.600000X0.137500X-0.600000X0.137500X0*%
%TD*%
%TA.AperFunction,SMDPad,CuDef*%
%ADD35RoundRect,0.137500X-0.137500X-0.600000X0.137500X-0.600000X0.137500X0.600000X-0.137500X0.600000X0*%
%TD*%
%TA.AperFunction,SMDPad,CuDef*%
%ADD36RoundRect,0.250000X0.625000X-0.312500X0.625000X0.312500X-0.625000X0.312500X-0.625000X-0.312500X0*%
%TD*%
%TA.AperFunction,SMDPad,CuDef*%
%ADD37RoundRect,0.250000X-0.450000X0.350000X-0.450000X-0.350000X0.450000X-0.350000X0.450000X0.350000X0*%
%TD*%
%TA.AperFunction,ViaPad*%
%ADD38C,1.016000*%
%TD*%
%TA.AperFunction,ViaPad*%
%ADD39C,0.635000*%
%TD*%
%TA.AperFunction,Conductor*%
%ADD40C,0.635000*%
%TD*%
%TA.AperFunction,Conductor*%
%ADD41C,1.270000*%
%TD*%
%TA.AperFunction,Conductor*%
%ADD42C,0.381000*%
%TD*%
%TA.AperFunction,Conductor*%
%ADD43C,0.254000*%
%TD*%
%TA.AperFunction,Conductor*%
%ADD44C,0.177800*%
%TD*%
G04 APERTURE END LIST*
D10*
%TO.P,J1,1,Pin_1*%
%TO.N,VBUS*%
X120617500Y-117820000D03*
D11*
%TO.P,J1,2,Pin_2*%
%TO.N,GND*%
X120617500Y-112820000D03*
%TD*%
D12*
%TO.P,L2,1,1*%
%TO.N,VCC*%
X152400000Y-89145000D03*
%TO.P,L2,2,2*%
%TO.N,Net-(U7-AVCC)*%
X152400000Y-91195000D03*
%TD*%
D13*
%TO.P,Q2,1,B*%
%TO.N,Net-(Q2-B)*%
X161991676Y-88760000D03*
%TO.P,Q2,2,E*%
%TO.N,/LED_driver/LED_2*%
X163891676Y-88760000D03*
%TO.P,Q2,3,C*%
%TO.N,+5VA*%
X162941676Y-86360000D03*
%TD*%
D14*
%TO.P,C7,1*%
%TO.N,VBUS*%
X131847500Y-129540000D03*
%TO.P,C7,2*%
%TO.N,GND*%
X129772500Y-129540000D03*
%TD*%
D15*
%TO.P,U3,1,NC*%
%TO.N,unconnected-(U3-NC-Pad1)*%
X170245000Y-111760000D03*
%TO.P,U3,2,-*%
%TO.N,/VREF*%
X170245000Y-113030000D03*
%TO.P,U3,3,+*%
%TO.N,Net-(U3-+)*%
X170245000Y-114300000D03*
%TO.P,U3,4,V-*%
%TO.N,Earth*%
X170245000Y-115570000D03*
%TO.P,U3,5,NC*%
%TO.N,unconnected-(U3-NC-Pad5)*%
X175195000Y-115570000D03*
%TO.P,U3,6*%
%TO.N,/VREF*%
X175195000Y-114300000D03*
%TO.P,U3,7,V+*%
%TO.N,+5VA*%
X175195000Y-113030000D03*
%TO.P,U3,8,NC*%
%TO.N,unconnected-(U3-NC-Pad8)*%
X175195000Y-111760000D03*
%TD*%
D16*
%TO.P,J4,1,Pin_1*%
%TO.N,GND*%
X124460000Y-100330000D03*
D17*
%TO.P,J4,2,Pin_2*%
%TO.N,unconnected-(J4-Pin_2-Pad2)*%
X124460000Y-97790000D03*
%TO.P,J4,3,Pin_3*%
%TO.N,Net-(J4-Pin_3)*%
X124460000Y-95250000D03*
%TO.P,J4,4,Pin_4*%
%TO.N,/RXD*%
X124460000Y-92710000D03*
%TO.P,J4,5,Pin_5*%
%TO.N,/TXD*%
X124460000Y-90170000D03*
%TO.P,J4,6,Pin_6*%
%TO.N,unconnected-(J4-Pin_6-Pad6)*%
X124460000Y-87630000D03*
%TD*%
D18*
%TO.P,H3,1*%
%TO.N,N/C*%
X121920000Y-132080000D03*
%TD*%
D19*
%TO.P,R10,1*%
%TO.N,VCC*%
X147320000Y-130270000D03*
%TO.P,R10,2*%
%TO.N,Net-(D2-A)*%
X147320000Y-128270000D03*
%TD*%
D20*
%TO.P,C18,1*%
%TO.N,+5VA*%
X163195000Y-66272500D03*
%TO.P,C18,2*%
%TO.N,Earth*%
X163195000Y-68347500D03*
%TD*%
D21*
%TO.P,Y1,1,EN*%
%TO.N,unconnected-(Y1-EN-Pad1)*%
X132935000Y-102425000D03*
%TO.P,Y1,2,GND*%
%TO.N,GND*%
X135035000Y-102425000D03*
%TO.P,Y1,3,OUT*%
%TO.N,/CLK16*%
X135035000Y-100775000D03*
%TO.P,Y1,4,Vcc*%
%TO.N,VCC*%
X132935000Y-100775000D03*
%TD*%
D22*
%TO.P,C20,1*%
%TO.N,Net-(C20-Pad1)*%
X161925000Y-126767500D03*
%TO.P,C20,2*%
%TO.N,Net-(C20-Pad2)*%
X161925000Y-124692500D03*
%TD*%
D23*
%TO.P,U10,1,IN*%
%TO.N,VBUS*%
X162585000Y-130020000D03*
%TO.P,U10,2,GND*%
%TO.N,Earth*%
X162585000Y-132320000D03*
D24*
X168885000Y-132320000D03*
D23*
%TO.P,U10,3,OUT*%
%TO.N,+5VA*%
X162585000Y-134620000D03*
%TD*%
D20*
%TO.P,C11,1*%
%TO.N,/VREF*%
X156442500Y-124692500D03*
%TO.P,C11,2*%
%TO.N,Earth*%
X156442500Y-126767500D03*
%TD*%
D25*
%TO.P,C5,1*%
%TO.N,Net-(U3-+)*%
X178265000Y-109220000D03*
%TO.P,C5,2*%
%TO.N,Earth*%
X180340000Y-109220000D03*
%TD*%
D26*
%TO.P,U5,1,IN1*%
%TO.N,Net-(J2-Pin_2)*%
X164207500Y-112190000D03*
%TO.P,U5,2,AGND*%
%TO.N,Earth*%
X162937500Y-112190000D03*
%TO.P,U5,3,CAP1B*%
%TO.N,unconnected-(U5-CAP1B-Pad3)*%
X161667500Y-112190000D03*
%TO.P,U5,4,CAP1B*%
%TO.N,Net-(C19-Pad2)*%
X160397500Y-112190000D03*
%TO.P,U5,5,CAP1A*%
%TO.N,Net-(C19-Pad1)*%
X159127500Y-112190000D03*
%TO.P,U5,6,CAP1A*%
%TO.N,unconnected-(U5-CAP1A-Pad6)*%
X157857500Y-112190000D03*
%TO.P,U5,7,AVDD*%
%TO.N,+5VA*%
X156587500Y-112190000D03*
%TO.P,U5,8,TEST*%
%TO.N,/PD5*%
X155317500Y-112190000D03*
%TO.P,U5,9,CONV*%
%TO.N,/PB1{slash}OC1A*%
X154047500Y-112190000D03*
%TO.P,U5,10,CLK*%
%TO.N,/PD6{slash}OC0A*%
X152777500Y-112190000D03*
%TO.P,U5,11,DCLK*%
%TO.N,/SCK*%
X151507500Y-112190000D03*
%TO.P,U5,12,~{DXMIT}*%
%TO.N,/PB0*%
X150237500Y-112190000D03*
%TO.P,U5,13,DIN*%
%TO.N,/MOSI*%
X148967500Y-112190000D03*
%TO.P,U5,14,DVDD*%
%TO.N,VCC*%
X147697500Y-112190000D03*
%TO.P,U5,15,DGND*%
%TO.N,GND*%
X147697500Y-121490000D03*
%TO.P,U5,16,DOUT*%
%TO.N,/MISO*%
X148967500Y-121490000D03*
%TO.P,U5,17,~{DVALID}*%
%TO.N,/PD7*%
X150237500Y-121490000D03*
%TO.P,U5,18,RANGE0*%
%TO.N,/PC0{slash}ADC0*%
X151507500Y-121490000D03*
%TO.P,U5,19,RANGE1*%
%TO.N,/PC1{slash}ADC1*%
X152777500Y-121490000D03*
%TO.P,U5,20,RANGE2*%
%TO.N,/PC2{slash}ADC2*%
X154047500Y-121490000D03*
%TO.P,U5,21,AGND*%
%TO.N,Earth*%
X155317500Y-121490000D03*
%TO.P,U5,22,VREF*%
%TO.N,/VREF*%
X156587500Y-121490000D03*
%TO.P,U5,23,CAP2A*%
%TO.N,unconnected-(U5-CAP2A-Pad23)*%
X157857500Y-121490000D03*
%TO.P,U5,24,CAP2A*%
%TO.N,Net-(C20-Pad1)*%
X159127500Y-121490000D03*
%TO.P,U5,25,CAP2B*%
%TO.N,Net-(C20-Pad2)*%
X160397500Y-121490000D03*
%TO.P,U5,26,CAP2B*%
%TO.N,unconnected-(U5-CAP2B-Pad26)*%
X161667500Y-121490000D03*
%TO.P,U5,27,AGND*%
%TO.N,Earth*%
X162937500Y-121490000D03*
%TO.P,U5,28,IN2*%
%TO.N,Net-(J2-Pin_16)*%
X164207500Y-121490000D03*
%TD*%
D19*
%TO.P,R2,1*%
%TO.N,+5VA*%
X172675000Y-130240000D03*
%TO.P,R2,2*%
%TO.N,Net-(D1-A)*%
X172675000Y-128240000D03*
%TD*%
D14*
%TO.P,C6,1*%
%TO.N,+5VA*%
X173990000Y-108585000D03*
%TO.P,C6,2*%
%TO.N,Earth*%
X171915000Y-108585000D03*
%TD*%
D27*
%TO.P,U1,1,IN*%
%TO.N,+5VA*%
X180240000Y-118425000D03*
%TO.P,U1,2,OUT*%
%TO.N,Net-(U1-OUT)*%
X180240000Y-116525000D03*
%TO.P,U1,3,GND*%
%TO.N,Earth*%
X178365000Y-117475000D03*
%TD*%
D13*
%TO.P,Q1,1,B*%
%TO.N,Net-(Q1-B)*%
X157165000Y-88760000D03*
%TO.P,Q1,2,E*%
%TO.N,/LED_driver/LED_1*%
X159065000Y-88760000D03*
%TO.P,Q1,3,C*%
%TO.N,+5VA*%
X158115000Y-86360000D03*
%TD*%
D23*
%TO.P,U2,1,IN*%
%TO.N,VBUS*%
X135940000Y-129780000D03*
%TO.P,U2,2,GND*%
%TO.N,GND*%
X135940000Y-132080000D03*
D24*
X142240000Y-132080000D03*
D23*
%TO.P,U2,3,OUT*%
%TO.N,VCC*%
X135940000Y-134380000D03*
%TD*%
D13*
%TO.P,Q4,1,B*%
%TO.N,Net-(Q4-B)*%
X171645028Y-88760000D03*
%TO.P,Q4,2,E*%
%TO.N,/LED_driver/LED_4*%
X173545028Y-88760000D03*
%TO.P,Q4,3,C*%
%TO.N,+5VA*%
X172595028Y-86360000D03*
%TD*%
D18*
%TO.P,H4,1*%
%TO.N,N/C*%
X180340000Y-132080000D03*
%TD*%
D20*
%TO.P,C19,1*%
%TO.N,Net-(C19-Pad1)*%
X163195000Y-106912500D03*
%TO.P,C19,2*%
%TO.N,Net-(C19-Pad2)*%
X163195000Y-108987500D03*
%TD*%
D28*
%TO.P,U6,1,0*%
%TO.N,Net-(Q1-B)*%
X161163000Y-81661000D03*
%TO.P,U6,2,1*%
%TO.N,Net-(Q2-B)*%
X161163000Y-80391000D03*
%TO.P,U6,3,2*%
%TO.N,Net-(Q3-B)*%
X161163000Y-79121000D03*
%TO.P,U6,4,3*%
%TO.N,Net-(Q4-B)*%
X161163000Y-77851000D03*
%TO.P,U6,5,4*%
%TO.N,unconnected-(U6-4-Pad5)*%
X161163000Y-76581000D03*
%TO.P,U6,6,5*%
%TO.N,unconnected-(U6-5-Pad6)*%
X161163000Y-75311000D03*
%TO.P,U6,7,6*%
%TO.N,unconnected-(U6-6-Pad7)*%
X161163000Y-74041000D03*
%TO.P,U6,8,7*%
%TO.N,unconnected-(U6-7-Pad8)*%
X161163000Y-72771000D03*
%TO.P,U6,9,I/O*%
%TO.N,Net-(U6-I{slash}O)*%
X156213000Y-72771000D03*
%TO.P,U6,10,VEE*%
%TO.N,Earth*%
X156213000Y-74041000D03*
%TO.P,U6,11,GND*%
%TO.N,GND*%
X156213000Y-75311000D03*
%TO.P,U6,12,A1*%
X156213000Y-76581000D03*
%TO.P,U6,13,A0*%
X156213000Y-77851000D03*
%TO.P,U6,14,SDA*%
%TO.N,/SDA*%
X156213000Y-79121000D03*
%TO.P,U6,15,SCL*%
%TO.N,/SCL*%
X156213000Y-80391000D03*
%TO.P,U6,16,VCC*%
%TO.N,+5VA*%
X156213000Y-81661000D03*
%TD*%
D25*
%TO.P,C23,1*%
%TO.N,VCC*%
X133180000Y-97790000D03*
%TO.P,C23,2*%
%TO.N,GND*%
X135255000Y-97790000D03*
%TD*%
D14*
%TO.P,C3,1*%
%TO.N,+5VA*%
X159152500Y-134620000D03*
%TO.P,C3,2*%
%TO.N,Earth*%
X157077500Y-134620000D03*
%TD*%
D29*
%TO.P,R1,1*%
%TO.N,Net-(U1-OUT)*%
X180302500Y-114300000D03*
%TO.P,R1,2*%
%TO.N,Net-(U3-+)*%
X178302500Y-114300000D03*
%TD*%
D20*
%TO.P,C21,1*%
%TO.N,Net-(U8-+)*%
X158369000Y-66272500D03*
%TO.P,C21,2*%
%TO.N,Earth*%
X158369000Y-68347500D03*
%TD*%
D14*
%TO.P,C1,1*%
%TO.N,+5VA*%
X180340000Y-121285000D03*
%TO.P,C1,2*%
%TO.N,Earth*%
X178265000Y-121285000D03*
%TD*%
D30*
%TO.P,D3,1,K*%
%TO.N,GND*%
X144000000Y-97790000D03*
%TO.P,D3,2,A*%
%TO.N,Net-(D3-A)*%
X146050000Y-97790000D03*
%TD*%
D22*
%TO.P,C10,1*%
%TO.N,+5VA*%
X160252500Y-108987500D03*
%TO.P,C10,2*%
%TO.N,Earth*%
X160252500Y-106912500D03*
%TD*%
D19*
%TO.P,R9,1*%
%TO.N,/SCL*%
X140335000Y-77835000D03*
%TO.P,R9,2*%
%TO.N,VCC*%
X140335000Y-75835000D03*
%TD*%
D31*
%TO.P,D2,1,K*%
%TO.N,GND*%
X147320000Y-135040000D03*
%TO.P,D2,2,A*%
%TO.N,Net-(D2-A)*%
X147320000Y-132990000D03*
%TD*%
D19*
%TO.P,R6,1*%
%TO.N,/LED_driver/LED_K*%
X177165000Y-88630000D03*
%TO.P,R6,2*%
%TO.N,Net-(U8--)*%
X177165000Y-86630000D03*
%TD*%
D14*
%TO.P,C14,1*%
%TO.N,VCC*%
X144801500Y-116205000D03*
%TO.P,C14,2*%
%TO.N,GND*%
X142726500Y-116205000D03*
%TD*%
D16*
%TO.P,J3,1,MISO*%
%TO.N,/MISO*%
X122560000Y-78740000D03*
D17*
%TO.P,J3,2,VCC*%
%TO.N,VCC*%
X120020000Y-78740000D03*
%TO.P,J3,3,SCK*%
%TO.N,/SCK*%
X122560000Y-76200000D03*
%TO.P,J3,4,MOSI*%
%TO.N,/MOSI*%
X120020000Y-76200000D03*
%TO.P,J3,5,~{RST}*%
%TO.N,/~{RESET}*%
X122560000Y-73660000D03*
%TO.P,J3,6,GND*%
%TO.N,GND*%
X120020000Y-73660000D03*
%TD*%
D20*
%TO.P,C12,1*%
%TO.N,/VREF*%
X158982500Y-124692500D03*
%TO.P,C12,2*%
%TO.N,Earth*%
X158982500Y-126767500D03*
%TD*%
D22*
%TO.P,C55,1*%
%TO.N,Net-(U7-AREF)*%
X149860000Y-86762500D03*
%TO.P,C55,2*%
%TO.N,GND*%
X149860000Y-84687500D03*
%TD*%
D19*
%TO.P,R8,1*%
%TO.N,/SDA*%
X143510000Y-77835000D03*
%TO.P,R8,2*%
%TO.N,VCC*%
X143510000Y-75835000D03*
%TD*%
D15*
%TO.P,U8,1,NC*%
%TO.N,unconnected-(U8-NC-Pad1)*%
X166689000Y-65278000D03*
%TO.P,U8,2,-*%
%TO.N,Net-(U8--)*%
X166689000Y-66548000D03*
%TO.P,U8,3,+*%
%TO.N,Net-(U8-+)*%
X166689000Y-67818000D03*
%TO.P,U8,4,V-*%
%TO.N,Earth*%
X166689000Y-69088000D03*
%TO.P,U8,5,NC*%
%TO.N,unconnected-(U8-NC-Pad5)*%
X171639000Y-69088000D03*
%TO.P,U8,6*%
%TO.N,Net-(C17-Pad2)*%
X171639000Y-67818000D03*
%TO.P,U8,7,V+*%
%TO.N,+5VA*%
X171639000Y-66548000D03*
%TO.P,U8,8,NC*%
%TO.N,unconnected-(U8-NC-Pad8)*%
X171639000Y-65278000D03*
%TD*%
D16*
%TO.P,J2,1,Pin_1*%
%TO.N,/LED_driver/LED_3*%
X176280000Y-96000000D03*
D17*
%TO.P,J2,2,Pin_2*%
%TO.N,Net-(J2-Pin_2)*%
X176280000Y-98540000D03*
%TO.P,J2,3,Pin_3*%
%TO.N,/LED_driver/LED_K*%
X173740000Y-96000000D03*
%TO.P,J2,4,Pin_4*%
%TO.N,Earth*%
X173740000Y-98540000D03*
%TO.P,J2,5,Pin_5*%
%TO.N,/LED_driver/LED_2*%
X171200000Y-96000000D03*
%TO.P,J2,6,Pin_6*%
%TO.N,unconnected-(J2-Pin_6-Pad6)*%
X171200000Y-98540000D03*
%TO.P,J2,7,Pin_7*%
%TO.N,/LED_driver/LED_K*%
X168660000Y-96000000D03*
%TO.P,J2,8,Pin_8*%
%TO.N,unconnected-(J2-Pin_8-Pad8)*%
X168660000Y-98540000D03*
%TO.P,J2,9,Pin_9*%
%TO.N,/LED_driver/LED_1*%
X166120000Y-96000000D03*
%TO.P,J2,10,Pin_10*%
%TO.N,unconnected-(J2-Pin_10-Pad10)*%
X166120000Y-98540000D03*
%TO.P,J2,11,Pin_11*%
%TO.N,/LED_driver/LED_K*%
X163580000Y-96000000D03*
%TO.P,J2,12,Pin_12*%
%TO.N,unconnected-(J2-Pin_12-Pad12)*%
X163580000Y-98540000D03*
%TO.P,J2,13,Pin_13*%
%TO.N,unconnected-(J2-Pin_13-Pad13)*%
X161040000Y-96000000D03*
%TO.P,J2,14,Pin_14*%
%TO.N,Earth*%
X161040000Y-98540000D03*
%TO.P,J2,15,Pin_15*%
%TO.N,unconnected-(J2-Pin_15-Pad15)*%
X158500000Y-96000000D03*
%TO.P,J2,16,Pin_16*%
%TO.N,Net-(J2-Pin_16)*%
X158500000Y-98540000D03*
%TD*%
D32*
%TO.P,R45,1*%
%TO.N,/~{RESET}*%
X131080000Y-77470000D03*
%TO.P,R45,2*%
%TO.N,VCC*%
X133080000Y-77470000D03*
%TD*%
D25*
%TO.P,C4,1*%
%TO.N,Net-(U3-+)*%
X178265000Y-111760000D03*
%TO.P,C4,2*%
%TO.N,Earth*%
X180340000Y-111760000D03*
%TD*%
D33*
%TO.P,U9,1,CA0*%
%TO.N,GND*%
X149992500Y-66970000D03*
%TO.P,U9,2,SCL*%
%TO.N,/SCL*%
X149992500Y-67620000D03*
%TO.P,U9,3,SDA*%
%TO.N,/SDA*%
X149992500Y-68270000D03*
%TO.P,U9,4,GND*%
%TO.N,GND*%
X149992500Y-68920000D03*
%TO.P,U9,5,VCC*%
%TO.N,VCC*%
X152267500Y-68920000D03*
%TO.P,U9,6,REF*%
%TO.N,Net-(U9-REF)*%
X152267500Y-68270000D03*
%TO.P,U9,7,Vout*%
%TO.N,Net-(U9-Vout)*%
X152267500Y-67620000D03*
%TO.P,U9,8,REF_SEL*%
%TO.N,VCC*%
X152267500Y-66970000D03*
%TD*%
D25*
%TO.P,C17,1*%
%TO.N,Net-(U8--)*%
X168380500Y-71501000D03*
%TO.P,C17,2*%
%TO.N,Net-(C17-Pad2)*%
X170455500Y-71501000D03*
%TD*%
D22*
%TO.P,C54,1*%
%TO.N,Net-(U7-AVCC)*%
X149860000Y-91200000D03*
%TO.P,C54,2*%
%TO.N,GND*%
X149860000Y-89125000D03*
%TD*%
D14*
%TO.P,C8,1*%
%TO.N,VCC*%
X131847500Y-134620000D03*
%TO.P,C8,2*%
%TO.N,GND*%
X129772500Y-134620000D03*
%TD*%
D29*
%TO.P,R29,1*%
%TO.N,VCC*%
X131032000Y-94234000D03*
%TO.P,R29,2*%
%TO.N,Net-(J4-Pin_3)*%
X129032000Y-94234000D03*
%TD*%
D14*
%TO.P,C16,1*%
%TO.N,VCC*%
X152167500Y-71755000D03*
%TO.P,C16,2*%
%TO.N,GND*%
X150092500Y-71755000D03*
%TD*%
D32*
%TO.P,R5,1*%
%TO.N,Net-(U6-I{slash}O)*%
X164100000Y-71501000D03*
%TO.P,R5,2*%
%TO.N,Net-(C17-Pad2)*%
X166100000Y-71501000D03*
%TD*%
D30*
%TO.P,L1,1,1*%
%TO.N,GND*%
X153915000Y-103505000D03*
%TO.P,L1,2,2*%
%TO.N,Earth*%
X155965000Y-103505000D03*
%TD*%
D32*
%TO.P,R47,1*%
%TO.N,/GP_LED*%
X139580000Y-97820000D03*
%TO.P,R47,2*%
%TO.N,Net-(D3-A)*%
X141580000Y-97820000D03*
%TD*%
D22*
%TO.P,C9,1*%
%TO.N,+5VA*%
X157302500Y-108987500D03*
%TO.P,C9,2*%
%TO.N,Earth*%
X157302500Y-106912500D03*
%TD*%
D18*
%TO.P,H2,1*%
%TO.N,N/C*%
X180340000Y-62230000D03*
%TD*%
D14*
%TO.P,C13,1*%
%TO.N,VCC*%
X144801500Y-113665000D03*
%TO.P,C13,2*%
%TO.N,GND*%
X142726500Y-113665000D03*
%TD*%
D34*
%TO.P,U7,1,PD3*%
%TO.N,unconnected-(U7-PD3-Pad1)*%
X138077500Y-84830000D03*
%TO.P,U7,2,PD4*%
%TO.N,unconnected-(U7-PD4-Pad2)*%
X138077500Y-85630000D03*
%TO.P,U7,3,GND*%
%TO.N,GND*%
X138077500Y-86430000D03*
%TO.P,U7,4,VCC*%
%TO.N,VCC*%
X138077500Y-87230000D03*
%TO.P,U7,5,GND*%
%TO.N,GND*%
X138077500Y-88030000D03*
%TO.P,U7,6,VCC*%
%TO.N,VCC*%
X138077500Y-88830000D03*
%TO.P,U7,7,XTAL1/PB6*%
%TO.N,/CLK16*%
X138077500Y-89630000D03*
%TO.P,U7,8,XTAL2/PB7*%
%TO.N,unconnected-(U7-XTAL2{slash}PB7-Pad8)*%
X138077500Y-90430000D03*
D35*
%TO.P,U7,9,PD5*%
%TO.N,/PD5*%
X139440000Y-91792500D03*
%TO.P,U7,10,PD6*%
%TO.N,/PD6{slash}OC0A*%
X140240000Y-91792500D03*
%TO.P,U7,11,PD7*%
%TO.N,/PD7*%
X141040000Y-91792500D03*
%TO.P,U7,12,PB0*%
%TO.N,/PB0*%
X141840000Y-91792500D03*
%TO.P,U7,13,PB1*%
%TO.N,/PB1{slash}OC1A*%
X142640000Y-91792500D03*
%TO.P,U7,14,PB2*%
%TO.N,unconnected-(U7-PB2-Pad14)*%
X143440000Y-91792500D03*
%TO.P,U7,15,PB3*%
%TO.N,/MOSI*%
X144240000Y-91792500D03*
%TO.P,U7,16,PB4*%
%TO.N,/MISO*%
X145040000Y-91792500D03*
D34*
%TO.P,U7,17,PB5*%
%TO.N,/SCK*%
X146402500Y-90430000D03*
%TO.P,U7,18,AVCC*%
%TO.N,Net-(U7-AVCC)*%
X146402500Y-89630000D03*
%TO.P,U7,19,ADC6*%
%TO.N,unconnected-(U7-ADC6-Pad19)*%
X146402500Y-88830000D03*
%TO.P,U7,20,AREF*%
%TO.N,Net-(U7-AREF)*%
X146402500Y-88030000D03*
%TO.P,U7,21,GND*%
%TO.N,GND*%
X146402500Y-87230000D03*
%TO.P,U7,22,ADC7*%
%TO.N,unconnected-(U7-ADC7-Pad22)*%
X146402500Y-86430000D03*
%TO.P,U7,23,PC0*%
%TO.N,/PC0{slash}ADC0*%
X146402500Y-85630000D03*
%TO.P,U7,24,PC1*%
%TO.N,/PC1{slash}ADC1*%
X146402500Y-84830000D03*
D35*
%TO.P,U7,25,PC2*%
%TO.N,/PC2{slash}ADC2*%
X145040000Y-83467500D03*
%TO.P,U7,26,PC3*%
%TO.N,unconnected-(U7-PC3-Pad26)*%
X144240000Y-83467500D03*
%TO.P,U7,27,PC4*%
%TO.N,/SDA*%
X143440000Y-83467500D03*
%TO.P,U7,28,PC5*%
%TO.N,/SCL*%
X142640000Y-83467500D03*
%TO.P,U7,29,~{RESET}/PC6*%
%TO.N,/~{RESET}*%
X141840000Y-83467500D03*
%TO.P,U7,30,PD0*%
%TO.N,/RXD*%
X141040000Y-83467500D03*
%TO.P,U7,31,PD1*%
%TO.N,/TXD*%
X140240000Y-83467500D03*
%TO.P,U7,32,PD2*%
%TO.N,/GP_LED*%
X139440000Y-83467500D03*
%TD*%
D20*
%TO.P,C52,1*%
%TO.N,VCC*%
X133985000Y-86995000D03*
%TO.P,C52,2*%
%TO.N,GND*%
X133985000Y-89070000D03*
%TD*%
D18*
%TO.P,H1,1*%
%TO.N,N/C*%
X121920000Y-62230000D03*
%TD*%
D14*
%TO.P,C15,1*%
%TO.N,Net-(U9-REF)*%
X152167500Y-63500000D03*
%TO.P,C15,2*%
%TO.N,GND*%
X150092500Y-63500000D03*
%TD*%
D13*
%TO.P,Q3,1,B*%
%TO.N,Net-(Q3-B)*%
X166818352Y-88760000D03*
%TO.P,Q3,2,E*%
%TO.N,/LED_driver/LED_3*%
X168718352Y-88760000D03*
%TO.P,Q3,3,C*%
%TO.N,+5VA*%
X167768352Y-86360000D03*
%TD*%
D36*
%TO.P,R7,1*%
%TO.N,Earth*%
X180975000Y-89092500D03*
%TO.P,R7,2*%
%TO.N,/LED_driver/LED_K*%
X180975000Y-86167500D03*
%TD*%
D14*
%TO.P,C2,1*%
%TO.N,VBUS*%
X159152500Y-130175000D03*
%TO.P,C2,2*%
%TO.N,Earth*%
X157077500Y-130175000D03*
%TD*%
D20*
%TO.P,C22,1*%
%TO.N,+5VA*%
X179070000Y-77300000D03*
%TO.P,C22,2*%
%TO.N,Earth*%
X179070000Y-79375000D03*
%TD*%
D31*
%TO.P,D1,1,K*%
%TO.N,Earth*%
X172720000Y-135010000D03*
%TO.P,D1,2,A*%
%TO.N,Net-(D1-A)*%
X172720000Y-132960000D03*
%TD*%
D37*
%TO.P,R3,1*%
%TO.N,Net-(U8-+)*%
X155956000Y-66310000D03*
%TO.P,R3,2*%
%TO.N,Net-(U9-Vout)*%
X155956000Y-68310000D03*
%TD*%
%TO.P,R4,1*%
%TO.N,Net-(U8-+)*%
X160655000Y-66310000D03*
%TO.P,R4,2*%
%TO.N,Earth*%
X160655000Y-68310000D03*
%TD*%
D38*
%TO.N,Earth*%
X160796000Y-132320000D03*
X180340000Y-110490000D03*
X157353000Y-105664000D03*
X163322000Y-110363000D03*
X168656000Y-115570000D03*
X170688000Y-108585000D03*
X178435000Y-123063000D03*
X155575000Y-119126000D03*
X157353000Y-103505000D03*
X162052000Y-69215000D03*
X174362000Y-135010000D03*
X177694500Y-79375000D03*
X160252500Y-105812500D03*
X176784000Y-117348000D03*
X180975000Y-90424000D03*
X170815000Y-132334000D03*
X157734000Y-125984000D03*
X155829000Y-130175000D03*
X155829000Y-134620000D03*
X168402000Y-69088000D03*
X163195000Y-123190000D03*
X157734000Y-74041000D03*
%TO.N,+5VA*%
X172595028Y-84965028D03*
X158115000Y-85217000D03*
X164465000Y-134620000D03*
X173101000Y-66548000D03*
X162941676Y-85090676D03*
X181422000Y-118425000D03*
X163195000Y-64897000D03*
X156210000Y-82550000D03*
X173355000Y-113030000D03*
X177694500Y-77300000D03*
X167768352Y-84964352D03*
X175260000Y-108585000D03*
X174117000Y-130302000D03*
X180340000Y-122936000D03*
X156587500Y-110236000D03*
%TO.N,GND*%
X144145000Y-99314000D03*
X153543000Y-75311000D03*
D39*
X148717000Y-66548000D03*
D38*
X144780000Y-86487000D03*
X141224000Y-116205000D03*
X132504000Y-89070000D03*
D39*
X146138000Y-135040000D03*
D38*
X148717000Y-63500000D03*
X151130000Y-90043000D03*
D39*
X148717000Y-69342000D03*
D38*
X134366000Y-132080000D03*
X139573000Y-88011000D03*
X147697500Y-123313500D03*
X152654000Y-103505000D03*
X150981500Y-84687500D03*
X128524000Y-129667000D03*
X143764000Y-132080000D03*
X141351000Y-113665000D03*
X128651000Y-134620000D03*
X148971000Y-71755000D03*
X136398000Y-97790000D03*
X136398000Y-102489000D03*
X139630000Y-86430000D03*
%TO.N,VCC*%
X134620000Y-77470000D03*
D39*
X153416000Y-66675000D03*
D38*
X153543000Y-71755000D03*
X133223000Y-134620000D03*
X132572000Y-94234000D03*
X132588000Y-87122000D03*
D39*
X153289000Y-69215000D03*
D38*
X142113000Y-74676000D03*
X146431000Y-112141000D03*
X131572000Y-97790000D03*
D39*
X145923000Y-130175000D03*
D38*
X136652000Y-87122000D03*
X137795000Y-134620000D03*
X131445000Y-100711000D03*
X151130000Y-88138000D03*
%TO.N,Net-(U8--)*%
X168402000Y-72898000D03*
X168402000Y-74803000D03*
D39*
%TO.N,Net-(U7-AVCC)*%
X144780000Y-89789000D03*
X149606000Y-90297000D03*
%TO.N,Net-(U7-AREF)*%
X144780000Y-88265000D03*
X150876000Y-86741000D03*
D38*
%TO.N,Net-(J2-Pin_16)*%
X164207500Y-119637500D03*
%TO.N,/LED_driver/LED_K*%
X177165000Y-90043000D03*
D39*
%TO.N,/MOSI*%
X147348600Y-96266000D03*
X127381000Y-96774000D03*
X144272000Y-95849800D03*
%TO.N,/MISO*%
X143637000Y-90297000D03*
X127889000Y-90424000D03*
D38*
%TO.N,/~{RESET}*%
X131064000Y-75565000D03*
X137795000Y-75565000D03*
D39*
%TO.N,/SCK*%
X128524000Y-92456000D03*
X146318401Y-92851401D03*
X148508820Y-92851401D03*
%TO.N,/RXD*%
X138303000Y-81407000D03*
%TO.N,/TXD*%
X139065000Y-82042000D03*
%TO.N,/SCL*%
X145161000Y-80391000D03*
X142621000Y-80137000D03*
%TO.N,/GP_LED*%
X138430000Y-95377000D03*
X135255000Y-95377000D03*
%TO.N,/PB0*%
X141859000Y-95377000D03*
X148578006Y-96531994D03*
%TO.N,/PD5*%
X139446000Y-94107000D03*
X151257000Y-94107000D03*
%TO.N,/PD6{slash}OC0A*%
X140335000Y-94742000D03*
X149860000Y-94742000D03*
%TO.N,/PB1{slash}OC1A*%
X150622000Y-93472000D03*
X142621000Y-93472000D03*
%TO.N,/PD7*%
X141097000Y-96012000D03*
X147861000Y-95471000D03*
%TD*%
D40*
%TO.N,VBUS*%
X131847500Y-129540000D02*
X131847500Y-127402500D01*
X131847500Y-127402500D02*
X131826000Y-127381000D01*
D41*
X128778000Y-124333000D02*
X131826000Y-127381000D01*
X128778000Y-117820000D02*
X128778000Y-124333000D01*
X132080000Y-117820000D02*
X128778000Y-117820000D01*
X140299000Y-117820000D02*
X132080000Y-117820000D01*
D40*
X135940000Y-129780000D02*
X132087500Y-129780000D01*
X132087500Y-129780000D02*
X131847500Y-129540000D01*
D41*
X159004000Y-128397000D02*
X150876000Y-128397000D01*
X150876000Y-128397000D02*
X140299000Y-117820000D01*
X128778000Y-117820000D02*
X120617500Y-117820000D01*
D42*
%TO.N,Earth*%
X168885000Y-132320000D02*
X170801000Y-132320000D01*
X157302500Y-105714500D02*
X157353000Y-105664000D01*
X158369000Y-68347500D02*
X160617500Y-68347500D01*
X162937500Y-110747500D02*
X163322000Y-110363000D01*
X162937500Y-122932500D02*
X163195000Y-123190000D01*
X160692500Y-68347500D02*
X160655000Y-68310000D01*
X162937500Y-121490000D02*
X162937500Y-122932500D01*
X162052000Y-68347500D02*
X162052000Y-69215000D01*
X156213000Y-74041000D02*
X157734000Y-74041000D01*
X157302500Y-106912500D02*
X157302500Y-105714500D01*
X176911000Y-117475000D02*
X176784000Y-117348000D01*
X160274000Y-105791000D02*
X160252500Y-105812500D01*
X179070000Y-79375000D02*
X177694500Y-79375000D01*
X157077500Y-134620000D02*
X155829000Y-134620000D01*
X158517500Y-126767500D02*
X157734000Y-125984000D01*
X172720000Y-135010000D02*
X174362000Y-135010000D01*
X155317500Y-121490000D02*
X155317500Y-119383500D01*
X162937500Y-112190000D02*
X162937500Y-110747500D01*
X174371000Y-135001000D02*
X174362000Y-135010000D01*
X162585000Y-132320000D02*
X160796000Y-132320000D01*
X160782000Y-132334000D02*
X160796000Y-132320000D01*
X178265000Y-122893000D02*
X178435000Y-123063000D01*
X156442500Y-126767500D02*
X156950500Y-126767500D01*
X156950500Y-126767500D02*
X157734000Y-125984000D01*
X162052000Y-68347500D02*
X160692500Y-68347500D01*
X155965000Y-103505000D02*
X157353000Y-103505000D01*
X170801000Y-132320000D02*
X170815000Y-132334000D01*
X158982500Y-126767500D02*
X158517500Y-126767500D01*
X180340000Y-109220000D02*
X180340000Y-110490000D01*
X171915000Y-108585000D02*
X170688000Y-108585000D01*
X178265000Y-121285000D02*
X178265000Y-122893000D01*
X166689000Y-69088000D02*
X168402000Y-69088000D01*
X177673000Y-79353500D02*
X177694500Y-79375000D01*
X160252500Y-106912500D02*
X160252500Y-105812500D01*
X178365000Y-117475000D02*
X176911000Y-117475000D01*
X180340000Y-111760000D02*
X180340000Y-110490000D01*
X160617500Y-68347500D02*
X160655000Y-68310000D01*
X170245000Y-115570000D02*
X168656000Y-115570000D01*
X155317500Y-119383500D02*
X155575000Y-119126000D01*
X157077500Y-130175000D02*
X155829000Y-130175000D01*
X163195000Y-68347500D02*
X162052000Y-68347500D01*
X180975000Y-89092500D02*
X180975000Y-90424000D01*
%TO.N,+5VA*%
X162941000Y-85090000D02*
X162941676Y-85090676D01*
X175195000Y-113030000D02*
X173355000Y-113030000D01*
X180240000Y-118425000D02*
X181422000Y-118425000D01*
X181483000Y-118364000D02*
X181422000Y-118425000D01*
X162941676Y-86360000D02*
X162941676Y-85090676D01*
X156213000Y-82547000D02*
X156210000Y-82550000D01*
X171639000Y-66548000D02*
X173101000Y-66548000D01*
X180340000Y-121285000D02*
X180340000Y-122936000D01*
X156587500Y-109702500D02*
X156587500Y-110236000D01*
X173990000Y-108585000D02*
X175260000Y-108585000D01*
X174055000Y-130240000D02*
X174117000Y-130302000D01*
X172593000Y-84963000D02*
X172595028Y-84965028D01*
X159152500Y-134620000D02*
X162585000Y-134620000D01*
X157302500Y-108987500D02*
X156587500Y-109702500D01*
X158115000Y-86360000D02*
X158115000Y-85217000D01*
X156213000Y-81661000D02*
X156213000Y-82547000D01*
X172675000Y-130240000D02*
X174055000Y-130240000D01*
X156587500Y-112190000D02*
X156587500Y-110236000D01*
X179070000Y-77300000D02*
X177694500Y-77300000D01*
X172595028Y-86360000D02*
X172595028Y-84965028D01*
X177673000Y-77321500D02*
X177694500Y-77300000D01*
X162585000Y-134620000D02*
X164465000Y-134620000D01*
X167767000Y-84963000D02*
X167768352Y-84964352D01*
X160252500Y-108987500D02*
X157302500Y-108987500D01*
X163195000Y-66272500D02*
X163195000Y-64897000D01*
X167768352Y-86360000D02*
X167768352Y-84964352D01*
D41*
%TO.N,VBUS*%
X162585000Y-130020000D02*
X160962000Y-128397000D01*
X160962000Y-128397000D02*
X159004000Y-128397000D01*
D40*
X159152500Y-130175000D02*
X159152500Y-128545500D01*
X159152500Y-128545500D02*
X159004000Y-128397000D01*
D43*
%TO.N,Net-(U3-+)*%
X178302500Y-111797500D02*
X178265000Y-111760000D01*
X173736000Y-116713000D02*
X175889500Y-116713000D01*
X170245000Y-114300000D02*
X171323000Y-114300000D01*
X178302500Y-114300000D02*
X178302500Y-111797500D01*
X171323000Y-114300000D02*
X173736000Y-116713000D01*
X175889500Y-116713000D02*
X178302500Y-114300000D01*
X178265000Y-111760000D02*
X178265000Y-109220000D01*
%TO.N,GND*%
X132461000Y-89027000D02*
X132504000Y-89070000D01*
D42*
X128651000Y-129540000D02*
X128524000Y-129667000D01*
X144000000Y-99169000D02*
X144145000Y-99314000D01*
X136334000Y-102425000D02*
X136398000Y-102489000D01*
D43*
X144799000Y-87230000D02*
X146402500Y-87230000D01*
X139700000Y-86360000D02*
X139630000Y-86430000D01*
X133985000Y-89070000D02*
X132504000Y-89070000D01*
D42*
X150092500Y-63500000D02*
X148717000Y-63500000D01*
D44*
X156213000Y-77851000D02*
X153670000Y-77851000D01*
D43*
X138077500Y-86430000D02*
X139630000Y-86430000D01*
D44*
X153543000Y-76454000D02*
X153543000Y-75311000D01*
D42*
X142240000Y-132080000D02*
X143764000Y-132080000D01*
D43*
X139554000Y-88030000D02*
X139573000Y-88011000D01*
D42*
X129772500Y-129540000D02*
X128651000Y-129540000D01*
D43*
X149992500Y-66970000D02*
X149139000Y-66970000D01*
X151003000Y-84709000D02*
X150981500Y-84687500D01*
X144780000Y-86487000D02*
X144780000Y-87211000D01*
D42*
X144000000Y-97790000D02*
X144000000Y-99169000D01*
X129772500Y-134620000D02*
X128651000Y-134620000D01*
D43*
X150212000Y-89125000D02*
X151130000Y-90043000D01*
D42*
X135940000Y-132080000D02*
X134366000Y-132080000D01*
D43*
X144780000Y-87211000D02*
X144799000Y-87230000D01*
D42*
X147701000Y-123317000D02*
X147697500Y-123313500D01*
D44*
X153670000Y-76581000D02*
X153543000Y-76454000D01*
D42*
X153915000Y-103505000D02*
X152654000Y-103505000D01*
D43*
X149992500Y-68920000D02*
X149139000Y-68920000D01*
X149860000Y-84687500D02*
X150981500Y-84687500D01*
D42*
X135255000Y-97790000D02*
X136398000Y-97790000D01*
X147697500Y-121490000D02*
X147697500Y-123313500D01*
D44*
X156213000Y-76581000D02*
X153670000Y-76581000D01*
X147320000Y-135040000D02*
X146138000Y-135040000D01*
D43*
X138077500Y-88030000D02*
X139554000Y-88030000D01*
X149139000Y-68920000D02*
X148717000Y-69342000D01*
D42*
X156213000Y-75311000D02*
X153543000Y-75311000D01*
X142726500Y-116205000D02*
X141224000Y-116205000D01*
X150092500Y-71755000D02*
X148971000Y-71755000D01*
D44*
X153670000Y-77851000D02*
X153670000Y-76581000D01*
D42*
X135035000Y-102425000D02*
X136334000Y-102425000D01*
X142726500Y-113665000D02*
X141351000Y-113665000D01*
D44*
X146050000Y-135128000D02*
X146138000Y-135040000D01*
D43*
X149139000Y-66970000D02*
X148717000Y-66548000D01*
X149860000Y-89125000D02*
X150212000Y-89125000D01*
D42*
%TO.N,VCC*%
X131509000Y-100775000D02*
X131445000Y-100711000D01*
D44*
X146018000Y-130270000D02*
X145923000Y-130175000D01*
D42*
X135940000Y-134380000D02*
X137555000Y-134380000D01*
X131032000Y-94234000D02*
X132572000Y-94234000D01*
D43*
X153121000Y-66970000D02*
X153416000Y-66675000D01*
D44*
X147320000Y-130270000D02*
X146018000Y-130270000D01*
D42*
X132935000Y-100775000D02*
X131509000Y-100775000D01*
D43*
X136760000Y-87230000D02*
X136652000Y-87122000D01*
D42*
X146480000Y-112190000D02*
X146431000Y-112141000D01*
X144801500Y-116205000D02*
X144801500Y-113665000D01*
D43*
X137340001Y-88830000D02*
X136652000Y-88141999D01*
D42*
X140954000Y-75835000D02*
X142113000Y-74676000D01*
X143510000Y-75835000D02*
X143272000Y-75835000D01*
X133080000Y-77470000D02*
X134620000Y-77470000D01*
D43*
X152267500Y-68920000D02*
X152994000Y-68920000D01*
X152267500Y-66970000D02*
X153121000Y-66970000D01*
D42*
X143272000Y-75835000D02*
X142113000Y-74676000D01*
X144907000Y-113665000D02*
X146431000Y-112141000D01*
X133985000Y-86995000D02*
X132715000Y-86995000D01*
X131847500Y-134620000D02*
X133223000Y-134620000D01*
X137555000Y-134380000D02*
X137795000Y-134620000D01*
D43*
X138077500Y-87230000D02*
X136760000Y-87230000D01*
X152167500Y-71755000D02*
X153543000Y-71755000D01*
X152994000Y-68920000D02*
X153289000Y-69215000D01*
D42*
X144801500Y-113665000D02*
X144907000Y-113665000D01*
D43*
X136652000Y-88141999D02*
X136652000Y-87122000D01*
X152400000Y-89145000D02*
X152137000Y-89145000D01*
D42*
X133180000Y-97790000D02*
X131572000Y-97790000D01*
X140335000Y-75835000D02*
X140954000Y-75835000D01*
D43*
X152137000Y-89145000D02*
X151130000Y-88138000D01*
D42*
X132715000Y-86995000D02*
X132588000Y-87122000D01*
D43*
X138077500Y-88830000D02*
X137340001Y-88830000D01*
D42*
X147697500Y-112190000D02*
X146480000Y-112190000D01*
D43*
%TO.N,/VREF*%
X156587500Y-119764500D02*
X156587500Y-121490000D01*
X156587500Y-121490000D02*
X156587500Y-124547500D01*
X172593000Y-114300000D02*
X175195000Y-114300000D01*
X163936001Y-118364000D02*
X157988000Y-118364000D01*
X170245000Y-113030000D02*
X169270001Y-113030000D01*
X171323000Y-113030000D02*
X172593000Y-114300000D01*
X157988000Y-118364000D02*
X156587500Y-119764500D01*
X170245000Y-113030000D02*
X171323000Y-113030000D01*
X169270001Y-113030000D02*
X163936001Y-118364000D01*
X156587500Y-124547500D02*
X156442500Y-124692500D01*
X158982500Y-124692500D02*
X156442500Y-124692500D01*
D44*
%TO.N,Net-(U9-REF)*%
X151130000Y-67794999D02*
X151130000Y-64537500D01*
X151605001Y-68270000D02*
X151130000Y-67794999D01*
X152267500Y-68270000D02*
X151605001Y-68270000D01*
X151130000Y-64537500D02*
X152167500Y-63500000D01*
%TO.N,Net-(U8--)*%
X169545000Y-69977000D02*
X169545000Y-67691000D01*
X168380500Y-71501000D02*
X168380500Y-71141500D01*
X177165000Y-86630000D02*
X177165000Y-83566000D01*
X177165000Y-83566000D02*
X168402000Y-74803000D01*
X168402000Y-72898000D02*
X168402000Y-71522500D01*
X169545000Y-67691000D02*
X168402000Y-66548000D01*
X168380500Y-71141500D02*
X169545000Y-69977000D01*
X168402000Y-71522500D02*
X168380500Y-71501000D01*
X168402000Y-66548000D02*
X166689000Y-66548000D01*
%TO.N,Net-(C17-Pad2)*%
X171639000Y-67818000D02*
X172593000Y-67818000D01*
X166100000Y-72120000D02*
X167767000Y-73787000D01*
X173355000Y-68580000D02*
X173355000Y-70358000D01*
X172593000Y-67818000D02*
X173355000Y-68580000D01*
X173355000Y-70358000D02*
X172212000Y-71501000D01*
X166100000Y-71501000D02*
X166100000Y-72120000D01*
X167767000Y-73787000D02*
X168910000Y-73787000D01*
X168910000Y-73787000D02*
X170455500Y-72241500D01*
X170455500Y-72241500D02*
X170455500Y-71501000D01*
X172212000Y-71501000D02*
X170455500Y-71501000D01*
%TO.N,Net-(C19-Pad2)*%
X160397500Y-111785000D02*
X160397500Y-112190000D01*
X163195000Y-108987500D02*
X160397500Y-111785000D01*
%TO.N,Net-(C19-Pad1)*%
X160909000Y-110363000D02*
X160528000Y-110363000D01*
X160528000Y-110363000D02*
X159127500Y-111763500D01*
X162180100Y-107927400D02*
X162180100Y-109091900D01*
X162180100Y-109091900D02*
X160909000Y-110363000D01*
X159127500Y-111763500D02*
X159127500Y-112190000D01*
X163195000Y-106912500D02*
X162180100Y-107927400D01*
%TO.N,Net-(C20-Pad1)*%
X159127500Y-123254540D02*
X160910100Y-125037140D01*
X160910100Y-125752600D02*
X161925000Y-126767500D01*
X159127500Y-121490000D02*
X159127500Y-123254540D01*
X160910100Y-125037140D02*
X160910100Y-125752600D01*
%TO.N,Net-(C20-Pad2)*%
X160397500Y-123165000D02*
X160397500Y-121490000D01*
X161925000Y-124692500D02*
X160397500Y-123165000D01*
%TO.N,Net-(U8-+)*%
X161782000Y-67437000D02*
X160655000Y-66310000D01*
X165354000Y-67818000D02*
X164973000Y-67437000D01*
X166689000Y-67818000D02*
X165354000Y-67818000D01*
X155993500Y-66272500D02*
X155956000Y-66310000D01*
X164973000Y-67437000D02*
X161782000Y-67437000D01*
X158369000Y-66272500D02*
X155993500Y-66272500D01*
X160655000Y-66310000D02*
X158406500Y-66310000D01*
X158406500Y-66310000D02*
X158369000Y-66272500D01*
D43*
%TO.N,Net-(U7-AVCC)*%
X149606000Y-90946000D02*
X149860000Y-91200000D01*
X144939000Y-89630000D02*
X144780000Y-89789000D01*
X146402500Y-89630000D02*
X144939000Y-89630000D01*
D44*
X152395000Y-91200000D02*
X152400000Y-91195000D01*
D43*
X149606000Y-90297000D02*
X149606000Y-90946000D01*
D44*
X149860000Y-91200000D02*
X152395000Y-91200000D01*
D43*
%TO.N,Net-(U7-AREF)*%
X149881500Y-86741000D02*
X149860000Y-86762500D01*
X150876000Y-86741000D02*
X149881500Y-86741000D01*
X145034000Y-88011000D02*
X145377000Y-88011000D01*
X144780000Y-88265000D02*
X145034000Y-88011000D01*
X145377000Y-88011000D02*
X145396000Y-88030000D01*
X145396000Y-88030000D02*
X146402500Y-88030000D01*
D44*
%TO.N,Net-(D3-A)*%
X142621000Y-100711000D02*
X145415000Y-100711000D01*
X141580000Y-97820000D02*
X141580000Y-99670000D01*
X146050000Y-100076000D02*
X146050000Y-97790000D01*
X145415000Y-100711000D02*
X146050000Y-100076000D01*
X141580000Y-99670000D02*
X142621000Y-100711000D01*
D42*
%TO.N,/LED_driver/LED_1*%
X159065000Y-88760000D02*
X159065000Y-88945000D01*
X159065000Y-88945000D02*
X166120000Y-96000000D01*
%TO.N,/LED_driver/LED_3*%
X169040000Y-88760000D02*
X176280000Y-96000000D01*
X168718352Y-88760000D02*
X169040000Y-88760000D01*
D43*
%TO.N,Net-(J2-Pin_16)*%
X164211000Y-119634000D02*
X164207500Y-119637500D01*
X164207500Y-121490000D02*
X164207500Y-119637500D01*
D42*
%TO.N,/LED_driver/LED_2*%
X163891676Y-88760000D02*
X163960000Y-88760000D01*
X163960000Y-88760000D02*
X171200000Y-96000000D01*
%TO.N,/LED_driver/LED_K*%
X177165000Y-90043000D02*
X177165000Y-88630000D01*
X177165000Y-88630000D02*
X178512500Y-88630000D01*
X178512500Y-88630000D02*
X180975000Y-86167500D01*
D44*
%TO.N,/MOSI*%
X123440900Y-96389900D02*
X121412000Y-94361000D01*
X147447000Y-106834704D02*
X147447000Y-96266000D01*
X147447000Y-96266000D02*
X147348600Y-96266000D01*
X148967500Y-108355204D02*
X147447000Y-106834704D01*
X126996900Y-96389900D02*
X123440900Y-96389900D01*
X121412000Y-94361000D02*
X121412000Y-77592000D01*
X127381000Y-96774000D02*
X126996900Y-96389900D01*
X121412000Y-77592000D02*
X120020000Y-76200000D01*
X144240000Y-95817800D02*
X144240000Y-91792500D01*
X148967500Y-112190000D02*
X148967500Y-108355204D01*
X144272000Y-95849800D02*
X144240000Y-95817800D01*
%TO.N,/MISO*%
X148377600Y-114849600D02*
X148377600Y-108301008D01*
X145040000Y-91792500D02*
X145040000Y-91055001D01*
X145040000Y-95002000D02*
X145040000Y-91792500D01*
X127889000Y-90424000D02*
X127889000Y-84069000D01*
X146914900Y-106838308D02*
X146914900Y-96876900D01*
X146914900Y-96876900D02*
X145040000Y-95002000D01*
X144281999Y-90297000D02*
X143637000Y-90297000D01*
X145040000Y-91055001D02*
X144281999Y-90297000D01*
X148967500Y-115439500D02*
X148377600Y-114849600D01*
X148967500Y-121490000D02*
X148967500Y-115439500D01*
X127889000Y-84069000D02*
X122560000Y-78740000D01*
X148377600Y-108301008D02*
X146914900Y-106838308D01*
D43*
%TO.N,/~{RESET}*%
X131080000Y-77470000D02*
X131080000Y-75581000D01*
X131080000Y-75581000D02*
X131064000Y-75565000D01*
X137795000Y-78232000D02*
X137795000Y-75565000D01*
X141840000Y-82277000D02*
X137795000Y-78232000D01*
X141840000Y-83467500D02*
X141840000Y-82277000D01*
D44*
%TO.N,/SCK*%
X149614800Y-96175504D02*
X148846200Y-95406904D01*
X128524000Y-79629000D02*
X125095000Y-76200000D01*
X128524000Y-92456000D02*
X128524000Y-79629000D01*
X148669758Y-92690463D02*
X148508820Y-92851401D01*
X146318401Y-92851401D02*
X146402500Y-92767302D01*
X151507500Y-107958020D02*
X149617000Y-106067520D01*
X149617000Y-106067520D02*
X149617000Y-105785816D01*
X125095000Y-76200000D02*
X122560000Y-76200000D01*
X151507500Y-112190000D02*
X151507500Y-107958020D01*
X148846200Y-95406904D02*
X148846200Y-92866904D01*
X148846200Y-92866904D02*
X148669758Y-92690463D01*
X149614800Y-105783616D02*
X149614800Y-96175504D01*
X146402500Y-92767302D02*
X146402500Y-90430000D01*
X149617000Y-105785816D02*
X149614800Y-105783616D01*
D42*
%TO.N,Net-(J4-Pin_3)*%
X125476000Y-94234000D02*
X124460000Y-95250000D01*
X129032000Y-94234000D02*
X125476000Y-94234000D01*
D44*
%TO.N,/RXD*%
X141040000Y-83467500D02*
X141040000Y-82730001D01*
X139716999Y-81407000D02*
X138303000Y-81407000D01*
X141040000Y-82730001D02*
X139716999Y-81407000D01*
%TO.N,/TXD*%
X139551999Y-82042000D02*
X139065000Y-82042000D01*
X140240000Y-83467500D02*
X140240000Y-82730001D01*
X140240000Y-82730001D02*
X139551999Y-82042000D01*
%TO.N,Net-(Q4-B)*%
X161163000Y-77851000D02*
X163703000Y-77851000D01*
X171645028Y-85793028D02*
X171645028Y-88760000D01*
X163703000Y-77851000D02*
X171645028Y-85793028D01*
D42*
%TO.N,Net-(U1-OUT)*%
X180302500Y-116462500D02*
X180240000Y-116525000D01*
X180302500Y-114300000D02*
X180302500Y-116462500D01*
D44*
%TO.N,Net-(U9-Vout)*%
X155266000Y-67620000D02*
X155956000Y-68310000D01*
X152267500Y-67620000D02*
X155266000Y-67620000D01*
%TO.N,Net-(U6-I{slash}O)*%
X156213000Y-72012000D02*
X156213000Y-72771000D01*
X164100000Y-71501000D02*
X156718000Y-71501000D01*
X156718000Y-71501000D02*
X156210000Y-72009000D01*
X156210000Y-72009000D02*
X156213000Y-72012000D01*
%TO.N,/SDA*%
X147884000Y-68270000D02*
X149992500Y-68270000D01*
X146812000Y-69342000D02*
X147884000Y-68270000D01*
X143510000Y-77835000D02*
X144315704Y-77835000D01*
X143440000Y-83467500D02*
X143440000Y-77905000D01*
X144315704Y-77835000D02*
X146812000Y-75338704D01*
X150594296Y-79121000D02*
X146812000Y-75338704D01*
X146812000Y-75338704D02*
X146812000Y-69342000D01*
X156213000Y-79121000D02*
X150594296Y-79121000D01*
X143440000Y-77905000D02*
X143510000Y-77835000D01*
%TO.N,/SCL*%
X142640000Y-83467500D02*
X142640000Y-80140000D01*
X145796000Y-75819000D02*
X145796000Y-68707000D01*
X142640000Y-80140000D02*
X140335000Y-77835000D01*
X156213000Y-80391000D02*
X145161000Y-80391000D01*
X141224900Y-76945100D02*
X144669900Y-76945100D01*
X146883000Y-67620000D02*
X149992500Y-67620000D01*
X144669900Y-76945100D02*
X145796000Y-75819000D01*
X140335000Y-77835000D02*
X141224900Y-76945100D01*
X145796000Y-68707000D02*
X146883000Y-67620000D01*
%TO.N,/GP_LED*%
X139440000Y-83467500D02*
X136877500Y-83467500D01*
X138430000Y-95377000D02*
X138430000Y-95504000D01*
X139580000Y-96654000D02*
X139580000Y-97820000D01*
X136877500Y-83467500D02*
X135255000Y-85090000D01*
X138430000Y-95504000D02*
X139580000Y-96654000D01*
X135255000Y-85090000D02*
X135255000Y-95377000D01*
%TO.N,/PC1{slash}ADC1*%
X148717000Y-85344000D02*
X148203000Y-84830000D01*
X152777500Y-121490000D02*
X152777500Y-117598500D01*
X149993600Y-96018600D02*
X149225000Y-95250000D01*
X152187600Y-117008600D02*
X152187600Y-108102416D01*
X149995800Y-105628912D02*
X149993600Y-105626712D01*
X149225000Y-95250000D02*
X149225000Y-92710000D01*
X148717000Y-92202000D02*
X148717000Y-85344000D01*
X149225000Y-92710000D02*
X148717000Y-92202000D01*
X152187600Y-108102416D02*
X149995800Y-105910616D01*
X149995800Y-105910616D02*
X149995800Y-105628912D01*
X152777500Y-117598500D02*
X152187600Y-117008600D01*
X148203000Y-84830000D02*
X146402500Y-84830000D01*
X149993600Y-105626712D02*
X149993600Y-96018600D01*
%TO.N,/PB0*%
X141859000Y-95377000D02*
X141840000Y-95358000D01*
X141840000Y-95358000D02*
X141840000Y-91792500D01*
X148590000Y-96520000D02*
X148578006Y-96531994D01*
X148590000Y-106111928D02*
X148590000Y-96520000D01*
X150237500Y-107759428D02*
X148590000Y-106111928D01*
X150237500Y-112190000D02*
X150237500Y-107759428D01*
%TO.N,/PC0{slash}ADC0*%
X148467400Y-93458801D02*
X148467400Y-95563808D01*
X148338200Y-86828201D02*
X148338200Y-92244001D01*
X147901420Y-92599807D02*
X147901420Y-93102995D01*
X151511000Y-118364000D02*
X151507500Y-118367500D01*
X149238200Y-106224424D02*
X150917600Y-107903824D01*
X146402500Y-85630000D02*
X147139999Y-85630000D01*
X151507500Y-118367500D02*
X151507500Y-121490000D01*
X148257226Y-93458801D02*
X148467400Y-93458801D01*
X149238200Y-105942720D02*
X149238200Y-106224424D01*
X148257226Y-92244001D02*
X147901420Y-92599807D01*
X147139999Y-85630000D02*
X148338200Y-86828201D01*
X149236000Y-105940520D02*
X149238200Y-105942720D01*
X148338200Y-92244001D02*
X148257226Y-92244001D01*
X149236000Y-96332408D02*
X149236000Y-105940520D01*
X150917600Y-107903824D02*
X150917600Y-117770600D01*
X148467400Y-95563808D02*
X149236000Y-96332408D01*
X150917600Y-117770600D02*
X151511000Y-118364000D01*
X147901420Y-93102995D02*
X148257226Y-93458801D01*
%TO.N,/PD5*%
X155317500Y-112190000D02*
X155317500Y-109625204D01*
X155317500Y-109625204D02*
X151132200Y-105439904D01*
X151132200Y-105158200D02*
X151130000Y-105156000D01*
X139446000Y-94107000D02*
X139440000Y-94101000D01*
X139440000Y-94101000D02*
X139440000Y-91792500D01*
X151132200Y-105439904D02*
X151132200Y-105158200D01*
X151130000Y-94234000D02*
X151257000Y-94107000D01*
X151130000Y-105156000D02*
X151130000Y-94234000D01*
%TO.N,/PD6{slash}OC0A*%
X150374600Y-105753712D02*
X150374600Y-105472008D01*
X150374600Y-105472008D02*
X150372400Y-105469808D01*
X140335000Y-94742000D02*
X140240000Y-94647000D01*
X149987000Y-94742000D02*
X149860000Y-94742000D01*
X150372400Y-95127400D02*
X149987000Y-94742000D01*
X152777500Y-108156612D02*
X150374600Y-105753712D01*
X152777500Y-112190000D02*
X152777500Y-108156612D01*
X150372400Y-105469808D02*
X150372400Y-95127400D01*
X140240000Y-94647000D02*
X140240000Y-91792500D01*
%TO.N,/PB1{slash}OC1A*%
X154047500Y-108890908D02*
X150753400Y-105596808D01*
X150649600Y-94007600D02*
X150622000Y-93980000D01*
X142621000Y-91811500D02*
X142640000Y-91792500D01*
X150751200Y-94460194D02*
X150649600Y-94358594D01*
X154047500Y-112190000D02*
X154047500Y-108890908D01*
X142621000Y-93472000D02*
X142621000Y-91811500D01*
X150649600Y-94358594D02*
X150649600Y-94007600D01*
X150751200Y-105312904D02*
X150751200Y-94460194D01*
X150622000Y-93980000D02*
X150622000Y-93472000D01*
X150753400Y-105596808D02*
X150753400Y-105315104D01*
X150753400Y-105315104D02*
X150751200Y-105312904D01*
%TO.N,/PD7*%
X148082000Y-106934000D02*
X149647600Y-108499600D01*
X141097000Y-96012000D02*
X141040000Y-95955000D01*
X148082000Y-97282000D02*
X148082000Y-106934000D01*
X150237500Y-117090500D02*
X150237500Y-121490000D01*
X149647600Y-108499600D02*
X149647600Y-116500600D01*
X147955000Y-95565000D02*
X147955000Y-97155000D01*
X147955000Y-97155000D02*
X148082000Y-97282000D01*
X147861000Y-95471000D02*
X147955000Y-95565000D01*
X149647600Y-116500600D02*
X150237500Y-117090500D01*
X141040000Y-95955000D02*
X141040000Y-91792500D01*
%TO.N,/PC2{slash}ADC2*%
X151511000Y-100076000D02*
X153389900Y-98197100D01*
X153389900Y-98197100D02*
X153389900Y-83031900D01*
X153389900Y-83031900D02*
X152019000Y-81661000D01*
X154047500Y-121490000D02*
X154047500Y-115192500D01*
X145923000Y-81661000D02*
X145040000Y-82544000D01*
X154047500Y-115192500D02*
X155907400Y-113332600D01*
X155696300Y-109468300D02*
X151511000Y-105283000D01*
X155696300Y-110473202D02*
X155696300Y-109468300D01*
X145040000Y-82544000D02*
X145040000Y-83467500D01*
X155907400Y-110684302D02*
X155696300Y-110473202D01*
X155907400Y-113332600D02*
X155907400Y-110684302D01*
X152019000Y-81661000D02*
X145923000Y-81661000D01*
X151511000Y-105283000D02*
X151511000Y-100076000D01*
D43*
%TO.N,/CLK16*%
X135890000Y-91080001D02*
X137340001Y-89630000D01*
X137541000Y-93726000D02*
X135890000Y-92075000D01*
X135572000Y-100775000D02*
X137541000Y-98806000D01*
X137541000Y-98806000D02*
X137541000Y-93726000D01*
X137340001Y-89630000D02*
X138077500Y-89630000D01*
X135035000Y-100775000D02*
X135572000Y-100775000D01*
X135890000Y-92075000D02*
X135890000Y-91080001D01*
%TO.N,Net-(J2-Pin_2)*%
X166194000Y-112190000D02*
X167513000Y-110871000D01*
X167513000Y-110871000D02*
X167513000Y-104394000D01*
X176280000Y-101088000D02*
X176280000Y-98540000D01*
X164207500Y-112190000D02*
X166194000Y-112190000D01*
X169545000Y-102362000D02*
X175006000Y-102362000D01*
X175006000Y-102362000D02*
X176280000Y-101088000D01*
X167513000Y-104394000D02*
X169545000Y-102362000D01*
D44*
%TO.N,Net-(Q1-B)*%
X160020000Y-86360000D02*
X158877000Y-87503000D01*
X157165000Y-88199000D02*
X157165000Y-88760000D01*
X158877000Y-87503000D02*
X157861000Y-87503000D01*
X157861000Y-87503000D02*
X157165000Y-88199000D01*
X161163000Y-81661000D02*
X160020000Y-82804000D01*
X160020000Y-82804000D02*
X160020000Y-86360000D01*
%TO.N,Net-(Q2-B)*%
X162137999Y-80391000D02*
X162687000Y-80940001D01*
X162687000Y-80940001D02*
X162687000Y-82169000D01*
X161991676Y-87569676D02*
X161991676Y-88760000D01*
X161290000Y-86868000D02*
X161991676Y-87569676D01*
X161163000Y-80391000D02*
X162137999Y-80391000D01*
X162687000Y-82169000D02*
X161290000Y-83566000D01*
X161290000Y-83566000D02*
X161290000Y-86868000D01*
%TO.N,Net-(Q3-B)*%
X164973000Y-85979000D02*
X166818352Y-87824352D01*
X166818352Y-87824352D02*
X166818352Y-88760000D01*
X164973000Y-81788000D02*
X164973000Y-85979000D01*
X161163000Y-79121000D02*
X162306000Y-79121000D01*
X162306000Y-79121000D02*
X164973000Y-81788000D01*
%TO.N,Net-(D1-A)*%
X171685100Y-131925100D02*
X171685100Y-129229900D01*
X172720000Y-132960000D02*
X171685100Y-131925100D01*
X171685100Y-129229900D02*
X172675000Y-128240000D01*
%TO.N,Net-(D2-A)*%
X148309900Y-129259900D02*
X148309900Y-132000100D01*
X147320000Y-128270000D02*
X148309900Y-129259900D01*
X148309900Y-132000100D02*
X147320000Y-132990000D01*
%TD*%
%TA.AperFunction,Conductor*%
%TO.N,Earth*%
G36*
X172756820Y-96540002D02*
G01*
X172791574Y-96575505D01*
X172792437Y-96574879D01*
X172897536Y-96719535D01*
X173020464Y-96842463D01*
X173065342Y-96875069D01*
X173161116Y-96944653D01*
X173316019Y-97023580D01*
X173481362Y-97077303D01*
X173653074Y-97104500D01*
X173653077Y-97104500D01*
X173826923Y-97104500D01*
X173826926Y-97104500D01*
X173998638Y-97077303D01*
X174163981Y-97023580D01*
X174318884Y-96944653D01*
X174459533Y-96842465D01*
X174582465Y-96719533D01*
X174684653Y-96578884D01*
X174684652Y-96578884D01*
X174687563Y-96574879D01*
X174688751Y-96575742D01*
X174736526Y-96532529D01*
X174791301Y-96520000D01*
X175049501Y-96520000D01*
X175117622Y-96540002D01*
X175164115Y-96593658D01*
X175175501Y-96646000D01*
X175175501Y-96875072D01*
X175190265Y-96949300D01*
X175246516Y-97033484D01*
X175330697Y-97089733D01*
X175330699Y-97089734D01*
X175404933Y-97104500D01*
X177155066Y-97104499D01*
X177155069Y-97104498D01*
X177155073Y-97104498D01*
X177204326Y-97094701D01*
X177229301Y-97089734D01*
X177313484Y-97033484D01*
X177369734Y-96949301D01*
X177384500Y-96875067D01*
X177384500Y-96646000D01*
X177404502Y-96577879D01*
X177458158Y-96531386D01*
X177510500Y-96520000D01*
X179579000Y-96520000D01*
X179647121Y-96540002D01*
X179693614Y-96593658D01*
X179705000Y-96646000D01*
X179705000Y-101547810D01*
X179684998Y-101615931D01*
X179668095Y-101636905D01*
X177201905Y-104103095D01*
X177139593Y-104137121D01*
X177112810Y-104140000D01*
X170814998Y-104140000D01*
X169545000Y-105409998D01*
X169545000Y-111072810D01*
X169536216Y-111102725D01*
X169529588Y-111133195D01*
X169525773Y-111138290D01*
X169524998Y-111140931D01*
X169508095Y-111161905D01*
X169501405Y-111168595D01*
X169439093Y-111202621D01*
X169412310Y-111205500D01*
X169388166Y-111205500D01*
X169362266Y-111209602D01*
X169293446Y-111220501D01*
X169179276Y-111278673D01*
X169088673Y-111369276D01*
X169030501Y-111483446D01*
X169015500Y-111578167D01*
X169015500Y-111602310D01*
X168995498Y-111670431D01*
X168978595Y-111691405D01*
X165771905Y-114898095D01*
X165709593Y-114932121D01*
X165682810Y-114935000D01*
X161416000Y-114935000D01*
X161347879Y-114914998D01*
X161301386Y-114861342D01*
X161290000Y-114809000D01*
X161290000Y-113586036D01*
X161310002Y-113517915D01*
X161363658Y-113471422D01*
X161433932Y-113461318D01*
X161435541Y-113461561D01*
X161485666Y-113469500D01*
X161485670Y-113469500D01*
X161849332Y-113469500D01*
X161849334Y-113469500D01*
X161944055Y-113454498D01*
X162058223Y-113396326D01*
X162148826Y-113305723D01*
X162190514Y-113223905D01*
X162239260Y-113172291D01*
X162308175Y-113155225D01*
X162375377Y-113178125D01*
X162415047Y-113223906D01*
X162456582Y-113305423D01*
X162456584Y-113305426D01*
X162547075Y-113395917D01*
X162661099Y-113454015D01*
X162755707Y-113468999D01*
X162810500Y-113468998D01*
X162810500Y-110911000D01*
X163064500Y-110911000D01*
X163064500Y-113468999D01*
X163119292Y-113468999D01*
X163213897Y-113454016D01*
X163327924Y-113395917D01*
X163418415Y-113305426D01*
X163418418Y-113305422D01*
X163459952Y-113223907D01*
X163508700Y-113172291D01*
X163577614Y-113155225D01*
X163644816Y-113178125D01*
X163684485Y-113223905D01*
X163691460Y-113237595D01*
X163726173Y-113305723D01*
X163816776Y-113396326D01*
X163864658Y-113420723D01*
X163930945Y-113454498D01*
X164025666Y-113469500D01*
X164025668Y-113469500D01*
X164389332Y-113469500D01*
X164389334Y-113469500D01*
X164484055Y-113454498D01*
X164598223Y-113396326D01*
X164688826Y-113305723D01*
X164746998Y-113191555D01*
X164762000Y-113096834D01*
X164762000Y-112697500D01*
X164782002Y-112629379D01*
X164835658Y-112582886D01*
X164888000Y-112571500D01*
X166244223Y-112571500D01*
X166244225Y-112571500D01*
X166341254Y-112545501D01*
X166341257Y-112545499D01*
X166341258Y-112545499D01*
X166384750Y-112520388D01*
X166428247Y-112495276D01*
X166499276Y-112424247D01*
X167818276Y-111105247D01*
X167868502Y-111018253D01*
X167894501Y-110921225D01*
X167894501Y-110820775D01*
X167894501Y-110813058D01*
X167894500Y-110813040D01*
X167894500Y-104604213D01*
X167914502Y-104536092D01*
X167931405Y-104515118D01*
X169666118Y-102780405D01*
X169728430Y-102746379D01*
X169755213Y-102743500D01*
X175056223Y-102743500D01*
X175056225Y-102743500D01*
X175153254Y-102717501D01*
X175153257Y-102717499D01*
X175153258Y-102717499D01*
X175196750Y-102692388D01*
X175240247Y-102667276D01*
X175311276Y-102596247D01*
X176585276Y-101322247D01*
X176635501Y-101235254D01*
X176661500Y-101138225D01*
X176661500Y-99662438D01*
X176681502Y-99594317D01*
X176730296Y-99550171D01*
X176858884Y-99484653D01*
X176999533Y-99382465D01*
X177122465Y-99259533D01*
X177224653Y-99118884D01*
X177303580Y-98963981D01*
X177357303Y-98798638D01*
X177384500Y-98626926D01*
X177384500Y-98453074D01*
X177357303Y-98281362D01*
X177303580Y-98116019D01*
X177224653Y-97961116D01*
X177122465Y-97820467D01*
X177122463Y-97820464D01*
X176999535Y-97697536D01*
X176858887Y-97595349D01*
X176858886Y-97595348D01*
X176858884Y-97595347D01*
X176703981Y-97516420D01*
X176703978Y-97516419D01*
X176703976Y-97516418D01*
X176538642Y-97462698D01*
X176538640Y-97462697D01*
X176538638Y-97462697D01*
X176366926Y-97435500D01*
X176193074Y-97435500D01*
X176021362Y-97462697D01*
X176021360Y-97462697D01*
X176021357Y-97462698D01*
X175856023Y-97516418D01*
X175856017Y-97516421D01*
X175701112Y-97595349D01*
X175560464Y-97697536D01*
X175437536Y-97820464D01*
X175335349Y-97961112D01*
X175256421Y-98116017D01*
X175256418Y-98116023D01*
X175202698Y-98281357D01*
X175202697Y-98281360D01*
X175202697Y-98281362D01*
X175175500Y-98453074D01*
X175175500Y-98626926D01*
X175202697Y-98798638D01*
X175256420Y-98963981D01*
X175335347Y-99118884D01*
X175335349Y-99118887D01*
X175437536Y-99259535D01*
X175560464Y-99382463D01*
X175560467Y-99382465D01*
X175701116Y-99484653D01*
X175829703Y-99550171D01*
X175881318Y-99598919D01*
X175898500Y-99662438D01*
X175898500Y-100877787D01*
X175878498Y-100945908D01*
X175861595Y-100966882D01*
X174884882Y-101943595D01*
X174822570Y-101977621D01*
X174795787Y-101980500D01*
X169494775Y-101980500D01*
X169435390Y-101996412D01*
X169397741Y-102006500D01*
X169310756Y-102056721D01*
X169310746Y-102056729D01*
X167278753Y-104088724D01*
X167243239Y-104124238D01*
X167207725Y-104159751D01*
X167207721Y-104159756D01*
X167157500Y-104246741D01*
X167131500Y-104343776D01*
X167131500Y-110660787D01*
X167111498Y-110728908D01*
X167094595Y-110749882D01*
X166072882Y-111771595D01*
X166010570Y-111805621D01*
X165983787Y-111808500D01*
X164888000Y-111808500D01*
X164819879Y-111788498D01*
X164773386Y-111734842D01*
X164762000Y-111682500D01*
X164762000Y-111283167D01*
X164761289Y-111278674D01*
X164746998Y-111188445D01*
X164703321Y-111102725D01*
X164688826Y-111074276D01*
X164598223Y-110983673D01*
X164484053Y-110925501D01*
X164419336Y-110915251D01*
X164389334Y-110910500D01*
X164025666Y-110910500D01*
X163999766Y-110914602D01*
X163930946Y-110925501D01*
X163816776Y-110983673D01*
X163726175Y-111074274D01*
X163726173Y-111074277D01*
X163684486Y-111156093D01*
X163635737Y-111207708D01*
X163566822Y-111224774D01*
X163499621Y-111201873D01*
X163459952Y-111156093D01*
X163418417Y-111074575D01*
X163327924Y-110984082D01*
X163213900Y-110925984D01*
X163119292Y-110911000D01*
X163064500Y-110911000D01*
X162810500Y-110911000D01*
X162810499Y-110910999D01*
X162755707Y-110911000D01*
X162661102Y-110925983D01*
X162547075Y-110984082D01*
X162456584Y-111074573D01*
X162456580Y-111074578D01*
X162415046Y-111156094D01*
X162366298Y-111207709D01*
X162297383Y-111224774D01*
X162230181Y-111201873D01*
X162190513Y-111156092D01*
X162181442Y-111138290D01*
X162148826Y-111074277D01*
X162148825Y-111074276D01*
X162148824Y-111074274D01*
X162058225Y-110983675D01*
X162058218Y-110983670D01*
X161965146Y-110936247D01*
X161913531Y-110887499D01*
X161896465Y-110818584D01*
X161919366Y-110751383D01*
X161933249Y-110734891D01*
X162801736Y-109866403D01*
X162864048Y-109832378D01*
X162890831Y-109829499D01*
X163718247Y-109829499D01*
X163718254Y-109829499D01*
X163778342Y-109823040D01*
X163914267Y-109772342D01*
X164030404Y-109685404D01*
X164117342Y-109569267D01*
X164168040Y-109433342D01*
X164174500Y-109373255D01*
X164174499Y-108710999D01*
X164194501Y-108642879D01*
X164248157Y-108596386D01*
X164300499Y-108585000D01*
X165100000Y-108585000D01*
X165100000Y-103557190D01*
X165120002Y-103489069D01*
X165136905Y-103468095D01*
X168238095Y-100366905D01*
X168300407Y-100332879D01*
X168327190Y-100330000D01*
X171450000Y-100330000D01*
X171450000Y-99711653D01*
X171470002Y-99643532D01*
X171523658Y-99597039D01*
X171537055Y-99591823D01*
X171623981Y-99563580D01*
X171778884Y-99484653D01*
X171919533Y-99382465D01*
X171919538Y-99382460D01*
X172033160Y-99268839D01*
X172042460Y-99259538D01*
X172042463Y-99259535D01*
X172042465Y-99259533D01*
X172144653Y-99118884D01*
X172223580Y-98963981D01*
X172277303Y-98798638D01*
X172304500Y-98626926D01*
X172304500Y-98453116D01*
X172636000Y-98453116D01*
X172636000Y-98626883D01*
X172663185Y-98798524D01*
X172716883Y-98963788D01*
X172716884Y-98963790D01*
X172795776Y-99118625D01*
X172874042Y-99226349D01*
X172874043Y-99226349D01*
X173308234Y-98792158D01*
X173339901Y-98847007D01*
X173432993Y-98940099D01*
X173487840Y-98971765D01*
X173053649Y-99405955D01*
X173053649Y-99405956D01*
X173161374Y-99484223D01*
X173316209Y-99563115D01*
X173316211Y-99563116D01*
X173481475Y-99616814D01*
X173653116Y-99644000D01*
X173826884Y-99644000D01*
X173998524Y-99616814D01*
X174163788Y-99563116D01*
X174163790Y-99563115D01*
X174318621Y-99484225D01*
X174426349Y-99405955D01*
X174426349Y-99405954D01*
X173992159Y-98971764D01*
X174047007Y-98940099D01*
X174140099Y-98847007D01*
X174171764Y-98792159D01*
X174605954Y-99226349D01*
X174605955Y-99226349D01*
X174684225Y-99118621D01*
X174763115Y-98963790D01*
X174763116Y-98963788D01*
X174816814Y-98798524D01*
X174844000Y-98626883D01*
X174844000Y-98453116D01*
X174816814Y-98281475D01*
X174763116Y-98116211D01*
X174763115Y-98116209D01*
X174684223Y-97961374D01*
X174605955Y-97853649D01*
X174171764Y-98287839D01*
X174140099Y-98232993D01*
X174047007Y-98139901D01*
X173992158Y-98108234D01*
X174426349Y-97674043D01*
X174426349Y-97674042D01*
X174318625Y-97595776D01*
X174163790Y-97516884D01*
X174163788Y-97516883D01*
X173998524Y-97463185D01*
X173826884Y-97436000D01*
X173653116Y-97436000D01*
X173481475Y-97463185D01*
X173316211Y-97516883D01*
X173316209Y-97516884D01*
X173161379Y-97595773D01*
X173161379Y-97595774D01*
X173053649Y-97674042D01*
X173053649Y-97674044D01*
X173487840Y-98108235D01*
X173432993Y-98139901D01*
X173339901Y-98232993D01*
X173308235Y-98287840D01*
X172874044Y-97853649D01*
X172874042Y-97853649D01*
X172795774Y-97961379D01*
X172795773Y-97961379D01*
X172716884Y-98116209D01*
X172716883Y-98116211D01*
X172663185Y-98281475D01*
X172636000Y-98453116D01*
X172304500Y-98453116D01*
X172304500Y-98453074D01*
X172277303Y-98281362D01*
X172223580Y-98116019D01*
X172144653Y-97961116D01*
X172042465Y-97820467D01*
X172042463Y-97820464D01*
X171919535Y-97697536D01*
X171778887Y-97595349D01*
X171778886Y-97595348D01*
X171778884Y-97595347D01*
X171623981Y-97516420D01*
X171623978Y-97516419D01*
X171623976Y-97516418D01*
X171537064Y-97488179D01*
X171516333Y-97474003D01*
X171493488Y-97463570D01*
X171487540Y-97454315D01*
X171478458Y-97448105D01*
X171468680Y-97424969D01*
X171455104Y-97403844D01*
X171452706Y-97387171D01*
X171450821Y-97382709D01*
X171450000Y-97368346D01*
X171450000Y-97171653D01*
X171470002Y-97103532D01*
X171523658Y-97057039D01*
X171537055Y-97051823D01*
X171623981Y-97023580D01*
X171778884Y-96944653D01*
X171919533Y-96842465D01*
X172042465Y-96719533D01*
X172144653Y-96578884D01*
X172144652Y-96578884D01*
X172147563Y-96574879D01*
X172148751Y-96575742D01*
X172196526Y-96532529D01*
X172251301Y-96520000D01*
X172688699Y-96520000D01*
X172756820Y-96540002D01*
G37*
%TD.AperFunction*%
%TD*%
%TA.AperFunction,Conductor*%
%TO.N,GND*%
G36*
X144426988Y-123210002D02*
G01*
X144447962Y-123226905D01*
X146013095Y-124792038D01*
X146047121Y-124854350D01*
X146050000Y-124881133D01*
X146050000Y-129477000D01*
X146029998Y-129545121D01*
X145976342Y-129591614D01*
X145924000Y-129603000D01*
X145847695Y-129603000D01*
X145769735Y-129623889D01*
X145702218Y-129641980D01*
X145702211Y-129641983D01*
X145571787Y-129717283D01*
X145571777Y-129717291D01*
X145465291Y-129823777D01*
X145465283Y-129823787D01*
X145389983Y-129954211D01*
X145389981Y-129954216D01*
X145351000Y-130099695D01*
X145351000Y-130250305D01*
X145367804Y-130313019D01*
X145389980Y-130395781D01*
X145389983Y-130395788D01*
X145465283Y-130526212D01*
X145465291Y-130526222D01*
X145571777Y-130632708D01*
X145571782Y-130632712D01*
X145571784Y-130632714D01*
X145571785Y-130632715D01*
X145571787Y-130632716D01*
X145663464Y-130685645D01*
X145702216Y-130708019D01*
X145847695Y-130747000D01*
X145847697Y-130747000D01*
X145924000Y-130747000D01*
X145992121Y-130767002D01*
X146038614Y-130820658D01*
X146050000Y-130873000D01*
X146050000Y-136399000D01*
X146029998Y-136467121D01*
X145976342Y-136513614D01*
X145924000Y-136525000D01*
X134111000Y-136525000D01*
X134042879Y-136504998D01*
X133996386Y-136451342D01*
X133985000Y-136399000D01*
X133985000Y-134697613D01*
X133985500Y-134695100D01*
X133985500Y-134544900D01*
X133985000Y-134542386D01*
X133985000Y-133941424D01*
X134685500Y-133941424D01*
X134685500Y-134818566D01*
X134688308Y-134854255D01*
X134732683Y-135006996D01*
X134813641Y-135143887D01*
X134813646Y-135143894D01*
X134926105Y-135256353D01*
X134926112Y-135256358D01*
X135063003Y-135337316D01*
X135063006Y-135337316D01*
X135063008Y-135337318D01*
X135215742Y-135381691D01*
X135251433Y-135384500D01*
X136628566Y-135384499D01*
X136664258Y-135381691D01*
X136816992Y-135337318D01*
X136816994Y-135337316D01*
X136816996Y-135337316D01*
X136887337Y-135295716D01*
X136953891Y-135256356D01*
X137064361Y-135145885D01*
X137126671Y-135111862D01*
X137197487Y-135116926D01*
X137242550Y-135145887D01*
X137308935Y-135212272D01*
X137433821Y-135295718D01*
X137572587Y-135353197D01*
X137719900Y-135382500D01*
X137870100Y-135382500D01*
X138017413Y-135353197D01*
X138156179Y-135295718D01*
X138281065Y-135212272D01*
X138387272Y-135106065D01*
X138470718Y-134981179D01*
X138528197Y-134842413D01*
X138557500Y-134695100D01*
X138557500Y-134544900D01*
X138528197Y-134397587D01*
X138470718Y-134258821D01*
X138387272Y-134133935D01*
X138281065Y-134027728D01*
X138156179Y-133944282D01*
X138017414Y-133886803D01*
X137870103Y-133857500D01*
X137870100Y-133857500D01*
X137719900Y-133857500D01*
X137719896Y-133857500D01*
X137602049Y-133880942D01*
X137572587Y-133886803D01*
X137479385Y-133925409D01*
X137471074Y-133927061D01*
X137466665Y-133929896D01*
X137431167Y-133935000D01*
X137294794Y-133935000D01*
X137226673Y-133914998D01*
X137180180Y-133861342D01*
X137173799Y-133844159D01*
X137147318Y-133753008D01*
X137076650Y-133633516D01*
X137066358Y-133616112D01*
X137066353Y-133616105D01*
X136980491Y-133530243D01*
X140986001Y-133530243D01*
X140996549Y-133633510D01*
X141051990Y-133800819D01*
X141144524Y-133950841D01*
X141144529Y-133950847D01*
X141269152Y-134075470D01*
X141269158Y-134075475D01*
X141419180Y-134168009D01*
X141586483Y-134223448D01*
X141586495Y-134223450D01*
X141689748Y-134233999D01*
X141986000Y-134233999D01*
X142494000Y-134233999D01*
X142790243Y-134233999D01*
X142893510Y-134223450D01*
X143060819Y-134168009D01*
X143210841Y-134075475D01*
X143210847Y-134075470D01*
X143335470Y-133950847D01*
X143335475Y-133950841D01*
X143428009Y-133800819D01*
X143483448Y-133633516D01*
X143483450Y-133633504D01*
X143493999Y-133530251D01*
X143494000Y-133530251D01*
X143494000Y-132334000D01*
X142494000Y-132334000D01*
X142494000Y-134233999D01*
X141986000Y-134233999D01*
X141986000Y-132334000D01*
X140986001Y-132334000D01*
X140986001Y-133530243D01*
X136980491Y-133530243D01*
X136953894Y-133503646D01*
X136953887Y-133503641D01*
X136816996Y-133422683D01*
X136664256Y-133378308D01*
X136628575Y-133375500D01*
X135251434Y-133375500D01*
X135215744Y-133378308D01*
X135063003Y-133422683D01*
X134926112Y-133503641D01*
X134926105Y-133503646D01*
X134813646Y-133616105D01*
X134813641Y-133616112D01*
X134732683Y-133753003D01*
X134688308Y-133905743D01*
X134685500Y-133941424D01*
X133985000Y-133941424D01*
X133985000Y-132518513D01*
X134686001Y-132518513D01*
X134688806Y-132554178D01*
X134733142Y-132706789D01*
X134814042Y-132843581D01*
X134814045Y-132843585D01*
X134926414Y-132955954D01*
X134926418Y-132955957D01*
X135063210Y-133036857D01*
X135215819Y-133081192D01*
X135215822Y-133081193D01*
X135251476Y-133083999D01*
X135686000Y-133083999D01*
X136194000Y-133083999D01*
X136628514Y-133083999D01*
X136664178Y-133081193D01*
X136816789Y-133036857D01*
X136953581Y-132955957D01*
X136953585Y-132955954D01*
X137065954Y-132843585D01*
X137065957Y-132843581D01*
X137146857Y-132706789D01*
X137191192Y-132554180D01*
X137191193Y-132554177D01*
X137194000Y-132518523D01*
X137194000Y-132334000D01*
X136194000Y-132334000D01*
X136194000Y-133083999D01*
X135686000Y-133083999D01*
X135686000Y-132334000D01*
X134686001Y-132334000D01*
X134686001Y-132518513D01*
X133985000Y-132518513D01*
X133985000Y-131641476D01*
X134686000Y-131641476D01*
X134686000Y-131826000D01*
X135686000Y-131826000D01*
X136194000Y-131826000D01*
X137193999Y-131826000D01*
X137193999Y-131641486D01*
X137191193Y-131605821D01*
X137146857Y-131453210D01*
X137065957Y-131316418D01*
X137065954Y-131316414D01*
X136953585Y-131204045D01*
X136953581Y-131204042D01*
X136816789Y-131123142D01*
X136664180Y-131078807D01*
X136664177Y-131078806D01*
X136628523Y-131076000D01*
X136194000Y-131076000D01*
X136194000Y-131826000D01*
X135686000Y-131826000D01*
X135686000Y-131076000D01*
X135251486Y-131076000D01*
X135215821Y-131078806D01*
X135063210Y-131123142D01*
X134926418Y-131204042D01*
X134926414Y-131204045D01*
X134814045Y-131316414D01*
X134814042Y-131316418D01*
X134733142Y-131453210D01*
X134688807Y-131605819D01*
X134688806Y-131605822D01*
X134686000Y-131641476D01*
X133985000Y-131641476D01*
X133985000Y-130478000D01*
X134005002Y-130409879D01*
X134058658Y-130363386D01*
X134111000Y-130352000D01*
X134628290Y-130352000D01*
X134696411Y-130372002D01*
X134736743Y-130413860D01*
X134813643Y-130543890D01*
X134813646Y-130543894D01*
X134926105Y-130656353D01*
X134926112Y-130656358D01*
X135063003Y-130737316D01*
X135063006Y-130737316D01*
X135063008Y-130737318D01*
X135215742Y-130781691D01*
X135251433Y-130784500D01*
X136628566Y-130784499D01*
X136664258Y-130781691D01*
X136816992Y-130737318D01*
X136816994Y-130737316D01*
X136816996Y-130737316D01*
X136885441Y-130696837D01*
X136953891Y-130656356D01*
X136980499Y-130629748D01*
X140986000Y-130629748D01*
X140986000Y-131826000D01*
X141986000Y-131826000D01*
X142494000Y-131826000D01*
X143493999Y-131826000D01*
X143493999Y-130629756D01*
X143483450Y-130526489D01*
X143428009Y-130359180D01*
X143335475Y-130209158D01*
X143335470Y-130209152D01*
X143210847Y-130084529D01*
X143210841Y-130084524D01*
X143060819Y-129991990D01*
X142893516Y-129936551D01*
X142893504Y-129936549D01*
X142790251Y-129926000D01*
X142494000Y-129926000D01*
X142494000Y-131826000D01*
X141986000Y-131826000D01*
X141986000Y-129926000D01*
X141689756Y-129926000D01*
X141586489Y-129936549D01*
X141419180Y-129991990D01*
X141269158Y-130084524D01*
X141269152Y-130084529D01*
X141144529Y-130209152D01*
X141144524Y-130209158D01*
X141051990Y-130359180D01*
X140996551Y-130526483D01*
X140996549Y-130526495D01*
X140986000Y-130629748D01*
X136980499Y-130629748D01*
X137066356Y-130543891D01*
X137076651Y-130526483D01*
X137147316Y-130406996D01*
X137147316Y-130406994D01*
X137147318Y-130406992D01*
X137191691Y-130254258D01*
X137194500Y-130218567D01*
X137194499Y-129341434D01*
X137191691Y-129305742D01*
X137147318Y-129153008D01*
X137147316Y-129153006D01*
X137147316Y-129153003D01*
X137066358Y-129016112D01*
X137066353Y-129016105D01*
X136953894Y-128903646D01*
X136953887Y-128903641D01*
X136816996Y-128822683D01*
X136664256Y-128778308D01*
X136628575Y-128775500D01*
X135251434Y-128775500D01*
X135215744Y-128778308D01*
X135063003Y-128822683D01*
X134926112Y-128903641D01*
X134926105Y-128903646D01*
X134813646Y-129016105D01*
X134813643Y-129016109D01*
X134736743Y-129146140D01*
X134684850Y-129194592D01*
X134628290Y-129208000D01*
X134111000Y-129208000D01*
X134042879Y-129187998D01*
X133996386Y-129134342D01*
X133985000Y-129082000D01*
X133985000Y-123316000D01*
X134005002Y-123247879D01*
X134058658Y-123201386D01*
X134111000Y-123190000D01*
X144358867Y-123190000D01*
X144426988Y-123210002D01*
G37*
%TD.AperFunction*%
%TD*%
%TA.AperFunction,Conductor*%
%TO.N,Earth*%
G36*
X175837121Y-125115002D02*
G01*
X175883614Y-125168658D01*
X175895000Y-125221000D01*
X175895000Y-136533500D01*
X175874998Y-136601621D01*
X175821342Y-136648114D01*
X175769000Y-136659500D01*
X160781000Y-136659500D01*
X160712879Y-136639498D01*
X160666386Y-136585842D01*
X160655000Y-136533500D01*
X160655000Y-135191000D01*
X160675002Y-135122879D01*
X160728658Y-135076386D01*
X160781000Y-135065000D01*
X161230206Y-135065000D01*
X161298327Y-135085002D01*
X161344820Y-135138658D01*
X161351200Y-135155840D01*
X161359913Y-135185829D01*
X161377683Y-135246995D01*
X161458641Y-135383887D01*
X161458646Y-135383894D01*
X161571105Y-135496353D01*
X161571112Y-135496358D01*
X161708003Y-135577316D01*
X161708006Y-135577316D01*
X161708008Y-135577318D01*
X161860742Y-135621691D01*
X161896433Y-135624500D01*
X163273566Y-135624499D01*
X163309258Y-135621691D01*
X163461992Y-135577318D01*
X163461994Y-135577316D01*
X163461996Y-135577316D01*
X163530441Y-135536837D01*
X163598891Y-135496356D01*
X163711356Y-135383891D01*
X163711763Y-135383202D01*
X171766001Y-135383202D01*
X171766002Y-135383226D01*
X171772452Y-135443232D01*
X171772452Y-135443234D01*
X171823100Y-135579023D01*
X171909952Y-135695047D01*
X172025976Y-135781899D01*
X172025975Y-135781899D01*
X172161761Y-135832546D01*
X172161769Y-135832548D01*
X172221785Y-135838999D01*
X172466000Y-135838999D01*
X172974000Y-135838999D01*
X173218203Y-135838999D01*
X173218226Y-135838997D01*
X173278232Y-135832547D01*
X173278234Y-135832547D01*
X173414023Y-135781899D01*
X173530047Y-135695047D01*
X173616899Y-135579023D01*
X173667546Y-135443238D01*
X173667548Y-135443230D01*
X173673999Y-135383222D01*
X173674000Y-135383205D01*
X173674000Y-135264000D01*
X172974000Y-135264000D01*
X172974000Y-135838999D01*
X172466000Y-135838999D01*
X172466000Y-135264000D01*
X171766001Y-135264000D01*
X171766001Y-135383202D01*
X163711763Y-135383202D01*
X163792318Y-135246992D01*
X163792318Y-135246988D01*
X163792320Y-135246987D01*
X163844213Y-135198534D01*
X163914064Y-135185829D01*
X163972932Y-135210114D01*
X163973788Y-135208833D01*
X163978935Y-135212272D01*
X164103821Y-135295718D01*
X164242587Y-135353197D01*
X164389900Y-135382500D01*
X164540100Y-135382500D01*
X164687413Y-135353197D01*
X164826179Y-135295718D01*
X164951065Y-135212272D01*
X165057272Y-135106065D01*
X165140718Y-134981179D01*
X165198197Y-134842413D01*
X165227500Y-134695100D01*
X165227500Y-134636777D01*
X171766000Y-134636777D01*
X171766000Y-134756000D01*
X172466000Y-134756000D01*
X172974000Y-134756000D01*
X173673999Y-134756000D01*
X173673999Y-134636797D01*
X173673997Y-134636773D01*
X173667547Y-134576767D01*
X173667547Y-134576765D01*
X173616899Y-134440976D01*
X173530047Y-134324952D01*
X173414023Y-134238100D01*
X173414024Y-134238100D01*
X173278238Y-134187453D01*
X173278230Y-134187451D01*
X173218222Y-134181000D01*
X172974000Y-134181000D01*
X172974000Y-134756000D01*
X172466000Y-134756000D01*
X172466000Y-134181000D01*
X172221797Y-134181000D01*
X172221773Y-134181002D01*
X172161767Y-134187452D01*
X172161765Y-134187452D01*
X172025976Y-134238100D01*
X171909952Y-134324952D01*
X171823100Y-134440976D01*
X171772453Y-134576761D01*
X171772451Y-134576769D01*
X171766000Y-134636777D01*
X165227500Y-134636777D01*
X165227500Y-134544900D01*
X165198197Y-134397587D01*
X165140718Y-134258821D01*
X165057272Y-134133935D01*
X164951065Y-134027728D01*
X164826179Y-133944282D01*
X164687414Y-133886803D01*
X164540103Y-133857500D01*
X164540100Y-133857500D01*
X164389900Y-133857500D01*
X164389896Y-133857500D01*
X164242585Y-133886803D01*
X164242584Y-133886804D01*
X164103819Y-133944283D01*
X163973788Y-134031167D01*
X163972772Y-134029647D01*
X163915338Y-134054028D01*
X163845362Y-134042035D01*
X163792979Y-133994113D01*
X163792321Y-133993012D01*
X163711358Y-133856112D01*
X163711353Y-133856105D01*
X163625491Y-133770243D01*
X167631001Y-133770243D01*
X167641549Y-133873510D01*
X167696990Y-134040819D01*
X167789524Y-134190841D01*
X167789529Y-134190847D01*
X167914152Y-134315470D01*
X167914158Y-134315475D01*
X168064180Y-134408009D01*
X168231483Y-134463448D01*
X168231495Y-134463450D01*
X168334748Y-134473999D01*
X168631000Y-134473999D01*
X169139000Y-134473999D01*
X169435243Y-134473999D01*
X169538510Y-134463450D01*
X169705819Y-134408009D01*
X169855841Y-134315475D01*
X169855847Y-134315470D01*
X169980470Y-134190847D01*
X169980475Y-134190841D01*
X170073009Y-134040819D01*
X170128448Y-133873516D01*
X170128450Y-133873504D01*
X170138999Y-133770251D01*
X170139000Y-133770251D01*
X170139000Y-132574000D01*
X169139000Y-132574000D01*
X169139000Y-134473999D01*
X168631000Y-134473999D01*
X168631000Y-132574000D01*
X167631001Y-132574000D01*
X167631001Y-133770243D01*
X163625491Y-133770243D01*
X163598894Y-133743646D01*
X163598887Y-133743641D01*
X163461996Y-133662683D01*
X163309256Y-133618308D01*
X163273575Y-133615500D01*
X161896434Y-133615500D01*
X161860744Y-133618308D01*
X161708003Y-133662683D01*
X161571112Y-133743641D01*
X161571105Y-133743646D01*
X161458646Y-133856105D01*
X161458641Y-133856112D01*
X161377683Y-133993003D01*
X161351202Y-134084153D01*
X161312989Y-134143989D01*
X161248492Y-134173666D01*
X161230205Y-134175000D01*
X160781000Y-134175000D01*
X160712879Y-134154998D01*
X160666386Y-134101342D01*
X160655000Y-134049000D01*
X160655000Y-132758513D01*
X161331001Y-132758513D01*
X161333806Y-132794178D01*
X161378142Y-132946789D01*
X161459042Y-133083581D01*
X161459045Y-133083585D01*
X161571414Y-133195954D01*
X161571418Y-133195957D01*
X161708210Y-133276857D01*
X161860819Y-133321192D01*
X161860822Y-133321193D01*
X161896476Y-133323999D01*
X162331000Y-133323999D01*
X162839000Y-133323999D01*
X163273514Y-133323999D01*
X163309178Y-133321193D01*
X163461789Y-133276857D01*
X163598581Y-133195957D01*
X163598585Y-133195954D01*
X163710954Y-133083585D01*
X163710957Y-133083581D01*
X163791857Y-132946789D01*
X163836192Y-132794180D01*
X163836193Y-132794177D01*
X163839000Y-132758523D01*
X163839000Y-132574000D01*
X162839000Y-132574000D01*
X162839000Y-133323999D01*
X162331000Y-133323999D01*
X162331000Y-132574000D01*
X161331001Y-132574000D01*
X161331001Y-132758513D01*
X160655000Y-132758513D01*
X160655000Y-131881476D01*
X161331000Y-131881476D01*
X161331000Y-132066000D01*
X162331000Y-132066000D01*
X162839000Y-132066000D01*
X163838999Y-132066000D01*
X163838999Y-131881486D01*
X163836193Y-131845821D01*
X163791857Y-131693210D01*
X163710957Y-131556418D01*
X163710954Y-131556414D01*
X163598585Y-131444045D01*
X163598581Y-131444042D01*
X163461789Y-131363142D01*
X163309180Y-131318807D01*
X163309177Y-131318806D01*
X163273523Y-131316000D01*
X162839000Y-131316000D01*
X162839000Y-132066000D01*
X162331000Y-132066000D01*
X162331000Y-131316000D01*
X161896486Y-131316000D01*
X161860821Y-131318806D01*
X161708210Y-131363142D01*
X161571418Y-131444042D01*
X161571414Y-131444045D01*
X161459045Y-131556414D01*
X161459042Y-131556418D01*
X161378142Y-131693210D01*
X161333807Y-131845819D01*
X161333806Y-131845822D01*
X161331000Y-131881476D01*
X160655000Y-131881476D01*
X160655000Y-129652133D01*
X160675002Y-129584012D01*
X160728658Y-129537519D01*
X160798932Y-129527415D01*
X160863512Y-129556909D01*
X160870095Y-129563038D01*
X161293595Y-129986538D01*
X161327621Y-130048850D01*
X161330500Y-130075633D01*
X161330500Y-130458566D01*
X161333308Y-130494255D01*
X161377683Y-130646996D01*
X161458641Y-130783887D01*
X161458646Y-130783894D01*
X161571105Y-130896353D01*
X161571112Y-130896358D01*
X161708003Y-130977316D01*
X161708006Y-130977316D01*
X161708008Y-130977318D01*
X161860742Y-131021691D01*
X161896433Y-131024500D01*
X163273566Y-131024499D01*
X163309258Y-131021691D01*
X163461992Y-130977318D01*
X163461994Y-130977316D01*
X163461996Y-130977316D01*
X163530441Y-130936837D01*
X163598891Y-130896356D01*
X163625499Y-130869748D01*
X167631000Y-130869748D01*
X167631000Y-132066000D01*
X168631000Y-132066000D01*
X169139000Y-132066000D01*
X170138999Y-132066000D01*
X170138999Y-130869756D01*
X170128450Y-130766489D01*
X170073009Y-130599180D01*
X169980475Y-130449158D01*
X169980470Y-130449152D01*
X169855847Y-130324529D01*
X169855841Y-130324524D01*
X169705819Y-130231990D01*
X169538516Y-130176551D01*
X169538504Y-130176549D01*
X169435251Y-130166000D01*
X169139000Y-130166000D01*
X169139000Y-132066000D01*
X168631000Y-132066000D01*
X168631000Y-130166000D01*
X168334756Y-130166000D01*
X168231489Y-130176549D01*
X168064180Y-130231990D01*
X167914158Y-130324524D01*
X167914152Y-130324529D01*
X167789529Y-130449152D01*
X167789524Y-130449158D01*
X167696990Y-130599180D01*
X167641551Y-130766483D01*
X167641549Y-130766495D01*
X167631000Y-130869748D01*
X163625499Y-130869748D01*
X163711356Y-130783891D01*
X163721651Y-130766483D01*
X163792316Y-130646996D01*
X163792316Y-130646994D01*
X163792318Y-130646992D01*
X163836691Y-130494258D01*
X163839500Y-130458567D01*
X163839499Y-129581434D01*
X163836691Y-129545742D01*
X163792318Y-129393008D01*
X163792316Y-129393006D01*
X163792316Y-129393003D01*
X163711360Y-129256115D01*
X163711358Y-129256112D01*
X163711356Y-129256109D01*
X163711353Y-129256106D01*
X163711350Y-129256102D01*
X163639940Y-129184692D01*
X171341700Y-129184692D01*
X171341700Y-131970313D01*
X171358829Y-132034244D01*
X171358830Y-132034244D01*
X171358831Y-132034246D01*
X171365102Y-132057648D01*
X171385856Y-132093595D01*
X171407163Y-132130500D01*
X171410312Y-132135953D01*
X171732154Y-132457795D01*
X171766178Y-132520106D01*
X171768336Y-132560355D01*
X171765501Y-132586727D01*
X171765500Y-132586749D01*
X171765500Y-133333246D01*
X171765502Y-133333270D01*
X171771959Y-133393339D01*
X171771959Y-133393341D01*
X171822657Y-133529266D01*
X171822658Y-133529267D01*
X171909596Y-133645404D01*
X172025733Y-133732342D01*
X172161658Y-133783040D01*
X172221745Y-133789500D01*
X173218254Y-133789499D01*
X173278342Y-133783040D01*
X173414267Y-133732342D01*
X173530404Y-133645404D01*
X173617342Y-133529267D01*
X173668040Y-133393342D01*
X173674500Y-133333255D01*
X173674499Y-132586746D01*
X173668040Y-132526658D01*
X173617342Y-132390733D01*
X173530404Y-132274596D01*
X173414267Y-132187658D01*
X173414265Y-132187657D01*
X173414266Y-132187657D01*
X173278349Y-132136962D01*
X173278344Y-132136960D01*
X173278342Y-132136960D01*
X173268994Y-132135955D01*
X173218262Y-132130500D01*
X173218255Y-132130500D01*
X172428331Y-132130500D01*
X172360210Y-132110498D01*
X172339236Y-132093595D01*
X172065405Y-131819764D01*
X172031379Y-131757452D01*
X172028500Y-131730669D01*
X172028500Y-131218834D01*
X172048502Y-131150713D01*
X172102158Y-131104220D01*
X172167975Y-131093557D01*
X172176745Y-131094500D01*
X173173254Y-131094499D01*
X173233342Y-131088040D01*
X173369267Y-131037342D01*
X173485404Y-130950404D01*
X173490362Y-130943779D01*
X173547193Y-130901230D01*
X173618009Y-130896161D01*
X173661234Y-130914517D01*
X173755821Y-130977718D01*
X173894587Y-131035197D01*
X174041900Y-131064500D01*
X174192100Y-131064500D01*
X174339413Y-131035197D01*
X174478179Y-130977718D01*
X174603065Y-130894272D01*
X174709272Y-130788065D01*
X174792718Y-130663179D01*
X174850197Y-130524413D01*
X174879500Y-130377100D01*
X174879500Y-130226900D01*
X174850197Y-130079587D01*
X174792718Y-129940821D01*
X174709272Y-129815935D01*
X174603065Y-129709728D01*
X174478179Y-129626282D01*
X174339414Y-129568803D01*
X174192103Y-129539500D01*
X174192100Y-129539500D01*
X174041900Y-129539500D01*
X174041896Y-129539500D01*
X173894585Y-129568803D01*
X173894584Y-129568804D01*
X173755818Y-129626283D01*
X173723108Y-129648139D01*
X173655355Y-129669352D01*
X173586889Y-129650567D01*
X173552240Y-129618880D01*
X173526138Y-129584012D01*
X173485404Y-129529596D01*
X173482490Y-129527415D01*
X173446396Y-129500396D01*
X173369267Y-129442658D01*
X173369265Y-129442657D01*
X173369266Y-129442657D01*
X173233349Y-129391962D01*
X173233344Y-129391960D01*
X173233342Y-129391960D01*
X173225831Y-129391152D01*
X173173262Y-129385500D01*
X172319330Y-129385500D01*
X172297739Y-129379160D01*
X172275296Y-129377555D01*
X172264340Y-129369353D01*
X172251209Y-129365498D01*
X172236473Y-129348492D01*
X172218461Y-129335008D01*
X172213678Y-129322185D01*
X172204716Y-129311842D01*
X172201513Y-129289567D01*
X172193651Y-129268487D01*
X172196559Y-129255115D01*
X172194612Y-129241568D01*
X172203959Y-129221100D01*
X172208743Y-129199113D01*
X172222228Y-129181099D01*
X172224106Y-129176988D01*
X172230218Y-129170421D01*
X172269238Y-129131401D01*
X172331550Y-129097378D01*
X172358332Y-129094499D01*
X173173247Y-129094499D01*
X173173254Y-129094499D01*
X173233342Y-129088040D01*
X173369267Y-129037342D01*
X173485404Y-128950404D01*
X173572342Y-128834267D01*
X173623040Y-128698342D01*
X173629500Y-128638255D01*
X173629499Y-127841746D01*
X173623040Y-127781658D01*
X173572342Y-127645733D01*
X173485404Y-127529596D01*
X173369267Y-127442658D01*
X173369265Y-127442657D01*
X173369266Y-127442657D01*
X173233349Y-127391962D01*
X173233344Y-127391960D01*
X173233342Y-127391960D01*
X173203298Y-127388730D01*
X173173256Y-127385500D01*
X172176753Y-127385500D01*
X172176729Y-127385502D01*
X172116660Y-127391959D01*
X172116658Y-127391959D01*
X171980733Y-127442657D01*
X171864596Y-127529596D01*
X171777657Y-127645734D01*
X171726962Y-127781650D01*
X171726960Y-127781658D01*
X171720500Y-127841737D01*
X171720500Y-128638246D01*
X171720502Y-128638271D01*
X171720911Y-128642076D01*
X171708299Y-128711944D01*
X171684728Y-128744629D01*
X171410314Y-129019044D01*
X171410311Y-129019047D01*
X171365101Y-129097352D01*
X171365102Y-129097353D01*
X171342663Y-129181099D01*
X171341700Y-129184692D01*
X163639940Y-129184692D01*
X163598894Y-129143646D01*
X163598887Y-129143641D01*
X163461996Y-129062683D01*
X163309256Y-129018308D01*
X163273575Y-129015500D01*
X163273567Y-129015500D01*
X162890633Y-129015500D01*
X162822512Y-128995498D01*
X162801538Y-128978595D01*
X161647537Y-127824594D01*
X161613511Y-127762282D01*
X161618576Y-127691467D01*
X161661123Y-127634631D01*
X161727643Y-127609820D01*
X161736612Y-127609499D01*
X162448254Y-127609499D01*
X162508342Y-127603040D01*
X162644267Y-127552342D01*
X162760404Y-127465404D01*
X162847342Y-127349267D01*
X162898040Y-127213342D01*
X162904500Y-127153255D01*
X162904499Y-126381746D01*
X162898040Y-126321658D01*
X162847342Y-126185733D01*
X162760404Y-126069596D01*
X162644267Y-125982658D01*
X162644265Y-125982657D01*
X162644266Y-125982657D01*
X162508349Y-125931962D01*
X162508344Y-125931960D01*
X162508342Y-125931960D01*
X162500831Y-125931152D01*
X162448262Y-125925500D01*
X162448255Y-125925500D01*
X161620831Y-125925500D01*
X161590915Y-125916716D01*
X161560446Y-125910088D01*
X161555350Y-125906273D01*
X161552710Y-125905498D01*
X161531736Y-125888595D01*
X161392735Y-125749594D01*
X161358709Y-125687282D01*
X161363774Y-125616467D01*
X161406321Y-125559631D01*
X161472841Y-125534820D01*
X161481804Y-125534499D01*
X162448254Y-125534499D01*
X162508342Y-125528040D01*
X162644267Y-125477342D01*
X162760404Y-125390404D01*
X162847342Y-125274267D01*
X162868238Y-125218240D01*
X162883634Y-125176967D01*
X162926181Y-125120131D01*
X162992701Y-125095321D01*
X163001689Y-125095000D01*
X175769000Y-125095000D01*
X175837121Y-125115002D01*
G37*
%TD.AperFunction*%
%TD*%
M02*
