M48
; DRILL file {KiCad 9.0.3-9.0.3-0~ubuntu24.04.1} date 2025-08-16T11:08:12-0400
; FORMAT={-:-/ absolute / metric / decimal}
; #@! TF.CreationDate,2025-08-16T11:08:12-04:00
; #@! TF.GenerationSoftware,Kicad,Pcbnew,9.0.3-9.0.3-0~ubuntu24.04.1
; #@! TF.FileFunction,Plated,1,4,PTH
FMAT,2
METRIC
; #@! TA.AperFunction,Plated,PTH,ComponentDrill
T1C1.000
; #@! TA.AperFunction,Plated,PTH,ComponentDrill
T2C1.300
%
G90
G05
T1
X133.925Y-65.405
X133.925Y-67.945
X133.925Y-70.485
X133.925Y-73.025
X133.925Y-75.565
X133.925Y-78.105
X139.065Y-68.585
X139.065Y-71.125
X141.605Y-68.585
X141.605Y-71.125
X144.145Y-68.585
X144.145Y-71.125
X158.5Y-96.0
X158.5Y-98.54
X161.04Y-96.0
X161.04Y-98.54
X163.58Y-96.0
X163.58Y-98.54
X166.12Y-96.0
X166.12Y-98.54
X168.66Y-96.0
X168.66Y-98.54
X171.2Y-96.0
X171.2Y-98.54
X173.74Y-96.0
X173.74Y-98.54
X176.28Y-96.0
X176.28Y-98.54
T2
X127.602Y-86.785
X127.602Y-91.785
M30
