%TF.GenerationSoftware,KiCad,Pcbnew,9.0.3-9.0.3-0~ubuntu24.04.1*%
%TF.CreationDate,2025-08-16T11:08:08-04:00*%
%TF.ProjectId,led-photodiode-avr,6c65642d-7068-46f7-946f-64696f64652d,rev?*%
%TF.SameCoordinates,Original*%
%TF.FileFunction,Copper,L2,Inr*%
%TF.FilePolarity,Positive*%
%FSLAX46Y46*%
G04 Gerber Fmt 4.6, Leading zero omitted, Abs format (unit mm)*
G04 Created by KiCad (PCBNEW 9.0.3-9.0.3-0~ubuntu24.04.1) date 2025-08-16 11:08:08*
%MOMM*%
%LPD*%
G01*
G04 APERTURE LIST*
G04 Aperture macros list*
%AMRoundRect*
0 Rectangle with rounded corners*
0 $1 Rounding radius*
0 $2 $3 $4 $5 $6 $7 $8 $9 X,Y pos of 4 corners*
0 Add a 4 corners polygon primitive as box body*
4,1,4,$2,$3,$4,$5,$6,$7,$8,$9,$2,$3,0*
0 Add four circle primitives for the rounded corners*
1,1,$1+$1,$2,$3*
1,1,$1+$1,$4,$5*
1,1,$1+$1,$6,$7*
1,1,$1+$1,$8,$9*
0 Add four rect primitives between the rounded corners*
20,1,$1+$1,$2,$3,$4,$5,0*
20,1,$1+$1,$4,$5,$6,$7,0*
20,1,$1+$1,$6,$7,$8,$9,0*
20,1,$1+$1,$8,$9,$2,$3,0*%
G04 Aperture macros list end*
%TA.AperFunction,ComponentPad*%
%ADD10R,1.700000X1.700000*%
%TD*%
%TA.AperFunction,ComponentPad*%
%ADD11C,1.700000*%
%TD*%
%TA.AperFunction,ComponentPad*%
%ADD12RoundRect,0.250001X1.149999X-1.149999X1.149999X1.149999X-1.149999X1.149999X-1.149999X-1.149999X0*%
%TD*%
%TA.AperFunction,ComponentPad*%
%ADD13C,2.800000*%
%TD*%
G04 APERTURE END LIST*
D10*
%TO.N,GND*%
%TO.C,J4*%
X133925000Y-78105000D03*
D11*
%TO.N,unconnected-(J4-Pin_2-Pad2)*%
X133925000Y-75565000D03*
%TO.N,Net-(J4-Pin_3)*%
X133925000Y-73025000D03*
%TO.N,/RXD*%
X133925000Y-70485000D03*
%TO.N,/TXD*%
X133925000Y-67945000D03*
%TO.N,unconnected-(J4-Pin_6-Pad6)*%
X133925000Y-65405000D03*
%TD*%
D12*
%TO.N,VBUS*%
%TO.C,J1*%
X127602500Y-91785000D03*
D13*
%TO.N,GND*%
X127602500Y-86785000D03*
%TD*%
D10*
%TO.N,/MISO*%
%TO.C,J3*%
X139065000Y-71125000D03*
D11*
%TO.N,VCC*%
X139065000Y-68585000D03*
%TO.N,/SCK*%
X141605000Y-71125000D03*
%TO.N,/MOSI*%
X141605000Y-68585000D03*
%TO.N,/~{RESET}*%
X144145000Y-71125000D03*
%TO.N,GND*%
X144145000Y-68585000D03*
%TD*%
D10*
%TO.N,/LED_driver/LED_1*%
%TO.C,J2*%
X176280000Y-96000000D03*
D11*
%TO.N,Net-(J2-Pin_2)*%
X176280000Y-98540000D03*
%TO.N,/LED_driver/LED_K*%
X173740000Y-96000000D03*
%TO.N,Earth*%
X173740000Y-98540000D03*
%TO.N,/LED_driver/LED_2*%
X171200000Y-96000000D03*
%TO.N,unconnected-(J2-Pin_6-Pad6)*%
X171200000Y-98540000D03*
%TO.N,/LED_driver/LED_K*%
X168660000Y-96000000D03*
%TO.N,unconnected-(J2-Pin_8-Pad8)*%
X168660000Y-98540000D03*
%TO.N,/LED_driver/LED_3*%
X166120000Y-96000000D03*
%TO.N,unconnected-(J2-Pin_10-Pad10)*%
X166120000Y-98540000D03*
%TO.N,/LED_driver/LED_K*%
X163580000Y-96000000D03*
%TO.N,unconnected-(J2-Pin_12-Pad12)*%
X163580000Y-98540000D03*
%TO.N,unconnected-(J2-Pin_13-Pad13)*%
X161040000Y-96000000D03*
%TO.N,Earth*%
X161040000Y-98540000D03*
%TO.N,unconnected-(J2-Pin_15-Pad15)*%
X158500000Y-96000000D03*
%TO.N,Net-(J2-Pin_16)*%
X158500000Y-98540000D03*
%TD*%
%TA.AperFunction,Conductor*%
%TO.N,GND*%
G36*
X155517121Y-57670502D02*
G01*
X155563614Y-57724158D01*
X155575000Y-57776500D01*
X155575000Y-136533500D01*
X155554998Y-136601621D01*
X155501342Y-136648114D01*
X155449000Y-136659500D01*
X117466500Y-136659500D01*
X117398379Y-136639498D01*
X117351886Y-136585842D01*
X117340500Y-136533500D01*
X117340500Y-90586733D01*
X125948000Y-90586733D01*
X125948000Y-92983266D01*
X125954458Y-93043335D01*
X125954459Y-93043340D01*
X125954460Y-93043341D01*
X126005158Y-93179267D01*
X126092096Y-93295404D01*
X126208233Y-93382342D01*
X126344159Y-93433040D01*
X126344162Y-93433040D01*
X126344164Y-93433041D01*
X126404233Y-93439499D01*
X126404241Y-93439499D01*
X126404246Y-93439500D01*
X126404250Y-93439500D01*
X128800750Y-93439500D01*
X128800754Y-93439500D01*
X128800759Y-93439499D01*
X128800766Y-93439499D01*
X128860835Y-93433041D01*
X128860836Y-93433040D01*
X128860841Y-93433040D01*
X128996767Y-93382342D01*
X129112904Y-93295404D01*
X129199842Y-93179267D01*
X129250540Y-93043341D01*
X129257000Y-92983254D01*
X129257000Y-90586746D01*
X129250540Y-90526659D01*
X129199842Y-90390733D01*
X129112904Y-90274596D01*
X128996767Y-90187658D01*
X128860841Y-90136960D01*
X128860840Y-90136959D01*
X128860835Y-90136958D01*
X128800766Y-90130500D01*
X128800754Y-90130500D01*
X126404246Y-90130500D01*
X126404233Y-90130500D01*
X126344164Y-90136958D01*
X126344159Y-90136960D01*
X126208233Y-90187658D01*
X126208232Y-90187658D01*
X126208231Y-90187659D01*
X126092096Y-90274596D01*
X126005159Y-90390731D01*
X125954458Y-90526664D01*
X125948000Y-90586733D01*
X117340500Y-90586733D01*
X117340500Y-86654830D01*
X125948500Y-86654830D01*
X125948500Y-86915169D01*
X125989227Y-87172314D01*
X126069678Y-87419913D01*
X126187875Y-87651888D01*
X126340901Y-87862510D01*
X126343142Y-87864751D01*
X126343144Y-87864751D01*
X127061936Y-87145958D01*
X127097612Y-87199351D01*
X127188149Y-87289888D01*
X127241540Y-87325562D01*
X126522748Y-88044355D01*
X126522748Y-88044357D01*
X126524989Y-88046598D01*
X126735611Y-88199624D01*
X126967586Y-88317821D01*
X127215185Y-88398272D01*
X127472330Y-88439000D01*
X127732670Y-88439000D01*
X127989814Y-88398272D01*
X128237413Y-88317821D01*
X128469388Y-88199624D01*
X128680008Y-88046599D01*
X128682251Y-88044356D01*
X128682250Y-88044354D01*
X127963458Y-87325562D01*
X128016851Y-87289888D01*
X128107388Y-87199351D01*
X128143062Y-87145958D01*
X128861854Y-87864750D01*
X128861856Y-87864751D01*
X128864099Y-87862508D01*
X129017124Y-87651888D01*
X129135321Y-87419913D01*
X129215772Y-87172314D01*
X129256500Y-86915169D01*
X129256500Y-86654830D01*
X129215772Y-86397685D01*
X129135321Y-86150086D01*
X129017124Y-85918111D01*
X128864098Y-85707489D01*
X128861857Y-85705248D01*
X128861855Y-85705248D01*
X128143062Y-86424040D01*
X128107388Y-86370649D01*
X128016851Y-86280112D01*
X127963458Y-86244436D01*
X128682251Y-85525644D01*
X128682251Y-85525642D01*
X128680010Y-85523401D01*
X128469388Y-85370375D01*
X128237413Y-85252178D01*
X127989814Y-85171727D01*
X127732670Y-85131000D01*
X127472330Y-85131000D01*
X127215185Y-85171727D01*
X126967586Y-85252178D01*
X126735611Y-85370375D01*
X126524994Y-85523398D01*
X126524989Y-85523403D01*
X126522747Y-85525643D01*
X127241541Y-86244436D01*
X127188149Y-86280112D01*
X127097612Y-86370649D01*
X127061937Y-86424041D01*
X126343143Y-85705247D01*
X126340903Y-85707489D01*
X126340898Y-85707494D01*
X126187875Y-85918111D01*
X126069678Y-86150086D01*
X125989227Y-86397685D01*
X125948500Y-86654830D01*
X117340500Y-86654830D01*
X117340500Y-77229977D01*
X132821000Y-77229977D01*
X132821000Y-77978000D01*
X133441392Y-77978000D01*
X133425000Y-78039174D01*
X133425000Y-78170826D01*
X133441392Y-78232000D01*
X132821001Y-78232000D01*
X132821001Y-78980022D01*
X132835737Y-79054105D01*
X132835737Y-79054107D01*
X132891875Y-79138124D01*
X132975893Y-79194262D01*
X132975894Y-79194263D01*
X133049980Y-79208999D01*
X133798000Y-79208999D01*
X133798000Y-78588608D01*
X133859174Y-78605000D01*
X133990826Y-78605000D01*
X134052000Y-78588608D01*
X134052000Y-79208999D01*
X134800014Y-79208999D01*
X134800022Y-79208998D01*
X134874105Y-79194262D01*
X134874107Y-79194262D01*
X134958124Y-79138124D01*
X135014262Y-79054106D01*
X135014263Y-79054105D01*
X135028999Y-78980022D01*
X135029000Y-78980015D01*
X135029000Y-78232000D01*
X134408608Y-78232000D01*
X134425000Y-78170826D01*
X134425000Y-78039174D01*
X134408608Y-77978000D01*
X135028999Y-77978000D01*
X135028999Y-77229986D01*
X135028998Y-77229977D01*
X135014262Y-77155894D01*
X135014262Y-77155892D01*
X134958124Y-77071875D01*
X134874106Y-77015737D01*
X134874105Y-77015736D01*
X134800022Y-77001000D01*
X134052000Y-77001000D01*
X134052000Y-77621391D01*
X133990826Y-77605000D01*
X133859174Y-77605000D01*
X133798000Y-77621391D01*
X133798000Y-77001000D01*
X133049986Y-77001000D01*
X133049976Y-77001001D01*
X132975894Y-77015737D01*
X132975892Y-77015737D01*
X132891875Y-77071875D01*
X132835737Y-77155893D01*
X132835736Y-77155894D01*
X132821000Y-77229977D01*
X117340500Y-77229977D01*
X117340500Y-75478074D01*
X132820500Y-75478074D01*
X132820500Y-75651926D01*
X132847697Y-75823638D01*
X132901420Y-75988981D01*
X132901421Y-75988982D01*
X132980349Y-76143887D01*
X133082536Y-76284535D01*
X133205464Y-76407463D01*
X133205467Y-76407465D01*
X133346116Y-76509653D01*
X133501019Y-76588580D01*
X133666362Y-76642303D01*
X133838074Y-76669500D01*
X133838077Y-76669500D01*
X134011923Y-76669500D01*
X134011926Y-76669500D01*
X134183638Y-76642303D01*
X134348981Y-76588580D01*
X134503884Y-76509653D01*
X134644533Y-76407465D01*
X134767465Y-76284533D01*
X134869653Y-76143884D01*
X134948580Y-75988981D01*
X135002303Y-75823638D01*
X135029500Y-75651926D01*
X135029500Y-75478074D01*
X135002303Y-75306362D01*
X134948580Y-75141019D01*
X134869653Y-74986116D01*
X134767465Y-74845467D01*
X134767463Y-74845464D01*
X134644535Y-74722536D01*
X134503887Y-74620349D01*
X134503886Y-74620348D01*
X134503884Y-74620347D01*
X134348981Y-74541420D01*
X134348978Y-74541419D01*
X134348976Y-74541418D01*
X134183642Y-74487698D01*
X134183640Y-74487697D01*
X134183638Y-74487697D01*
X134011926Y-74460500D01*
X133838074Y-74460500D01*
X133666362Y-74487697D01*
X133666360Y-74487697D01*
X133666357Y-74487698D01*
X133501023Y-74541418D01*
X133501017Y-74541421D01*
X133346112Y-74620349D01*
X133205464Y-74722536D01*
X133082536Y-74845464D01*
X132980349Y-74986112D01*
X132901421Y-75141017D01*
X132901418Y-75141023D01*
X132847698Y-75306357D01*
X132847697Y-75306360D01*
X132847697Y-75306362D01*
X132820500Y-75478074D01*
X117340500Y-75478074D01*
X117340500Y-72938074D01*
X132820500Y-72938074D01*
X132820500Y-73111926D01*
X132847697Y-73283638D01*
X132901420Y-73448981D01*
X132901421Y-73448982D01*
X132980349Y-73603887D01*
X133082536Y-73744535D01*
X133205464Y-73867463D01*
X133205467Y-73867465D01*
X133346116Y-73969653D01*
X133501019Y-74048580D01*
X133666362Y-74102303D01*
X133838074Y-74129500D01*
X133838077Y-74129500D01*
X134011923Y-74129500D01*
X134011926Y-74129500D01*
X134183638Y-74102303D01*
X134348981Y-74048580D01*
X134503884Y-73969653D01*
X134644533Y-73867465D01*
X134767465Y-73744533D01*
X134869653Y-73603884D01*
X134948580Y-73448981D01*
X135002303Y-73283638D01*
X135029500Y-73111926D01*
X135029500Y-72938074D01*
X135002303Y-72766362D01*
X134948580Y-72601019D01*
X134869653Y-72446116D01*
X134767465Y-72305467D01*
X134767463Y-72305464D01*
X134644535Y-72182536D01*
X134503887Y-72080349D01*
X134503886Y-72080348D01*
X134503884Y-72080347D01*
X134348981Y-72001420D01*
X134348978Y-72001419D01*
X134348976Y-72001418D01*
X134183642Y-71947698D01*
X134183640Y-71947697D01*
X134183638Y-71947697D01*
X134011926Y-71920500D01*
X133838074Y-71920500D01*
X133666362Y-71947697D01*
X133666360Y-71947697D01*
X133666357Y-71947698D01*
X133501023Y-72001418D01*
X133501017Y-72001421D01*
X133346112Y-72080349D01*
X133205464Y-72182536D01*
X133082536Y-72305464D01*
X132980349Y-72446112D01*
X132901421Y-72601017D01*
X132901418Y-72601023D01*
X132847698Y-72766357D01*
X132847697Y-72766360D01*
X132847697Y-72766362D01*
X132820500Y-72938074D01*
X117340500Y-72938074D01*
X117340500Y-70398074D01*
X132820500Y-70398074D01*
X132820500Y-70571926D01*
X132847697Y-70743638D01*
X132847698Y-70743642D01*
X132887570Y-70866357D01*
X132901420Y-70908981D01*
X132967198Y-71038077D01*
X132980349Y-71063887D01*
X133082536Y-71204535D01*
X133205464Y-71327463D01*
X133205467Y-71327465D01*
X133346116Y-71429653D01*
X133501019Y-71508580D01*
X133666362Y-71562303D01*
X133838074Y-71589500D01*
X133838077Y-71589500D01*
X134011923Y-71589500D01*
X134011926Y-71589500D01*
X134183638Y-71562303D01*
X134348981Y-71508580D01*
X134503884Y-71429653D01*
X134644533Y-71327465D01*
X134767465Y-71204533D01*
X134869653Y-71063884D01*
X134948580Y-70908981D01*
X135002303Y-70743638D01*
X135029500Y-70571926D01*
X135029500Y-70398074D01*
X135006036Y-70249930D01*
X137960500Y-70249930D01*
X137960500Y-72000063D01*
X137960501Y-72000073D01*
X137975265Y-72074300D01*
X138031516Y-72158484D01*
X138115697Y-72214733D01*
X138115699Y-72214734D01*
X138189933Y-72229500D01*
X139940066Y-72229499D01*
X139940069Y-72229498D01*
X139940073Y-72229498D01*
X139989326Y-72219701D01*
X140014301Y-72214734D01*
X140098484Y-72158484D01*
X140154734Y-72074301D01*
X140169500Y-72000067D01*
X140169499Y-71038074D01*
X140500500Y-71038074D01*
X140500500Y-71211926D01*
X140527697Y-71383638D01*
X140581420Y-71548981D01*
X140660347Y-71703884D01*
X140660349Y-71703887D01*
X140762536Y-71844535D01*
X140885464Y-71967463D01*
X140930342Y-72000069D01*
X141026116Y-72069653D01*
X141181019Y-72148580D01*
X141346362Y-72202303D01*
X141518074Y-72229500D01*
X141518077Y-72229500D01*
X141691923Y-72229500D01*
X141691926Y-72229500D01*
X141863638Y-72202303D01*
X142028981Y-72148580D01*
X142183884Y-72069653D01*
X142324533Y-71967465D01*
X142447465Y-71844533D01*
X142549653Y-71703884D01*
X142628580Y-71548981D01*
X142682303Y-71383638D01*
X142709500Y-71211926D01*
X142709500Y-71038074D01*
X143040500Y-71038074D01*
X143040500Y-71211926D01*
X143067697Y-71383638D01*
X143121420Y-71548981D01*
X143200347Y-71703884D01*
X143200349Y-71703887D01*
X143302536Y-71844535D01*
X143425464Y-71967463D01*
X143470342Y-72000069D01*
X143566116Y-72069653D01*
X143721019Y-72148580D01*
X143886362Y-72202303D01*
X144058074Y-72229500D01*
X144058077Y-72229500D01*
X144231923Y-72229500D01*
X144231926Y-72229500D01*
X144403638Y-72202303D01*
X144568981Y-72148580D01*
X144723884Y-72069653D01*
X144864533Y-71967465D01*
X144987465Y-71844533D01*
X145089653Y-71703884D01*
X145168580Y-71548981D01*
X145222303Y-71383638D01*
X145249500Y-71211926D01*
X145249500Y-71038074D01*
X145222303Y-70866362D01*
X145168580Y-70701019D01*
X145089653Y-70546116D01*
X144987465Y-70405467D01*
X144987463Y-70405464D01*
X144864535Y-70282536D01*
X144723887Y-70180349D01*
X144723886Y-70180348D01*
X144723884Y-70180347D01*
X144568981Y-70101420D01*
X144568978Y-70101419D01*
X144568976Y-70101418D01*
X144403642Y-70047698D01*
X144403640Y-70047697D01*
X144403638Y-70047697D01*
X144231926Y-70020500D01*
X144058074Y-70020500D01*
X143886362Y-70047697D01*
X143886360Y-70047697D01*
X143886357Y-70047698D01*
X143721023Y-70101418D01*
X143721017Y-70101421D01*
X143566112Y-70180349D01*
X143425464Y-70282536D01*
X143302536Y-70405464D01*
X143200349Y-70546112D01*
X143121421Y-70701017D01*
X143121418Y-70701023D01*
X143067698Y-70866357D01*
X143067697Y-70866360D01*
X143067697Y-70866362D01*
X143040500Y-71038074D01*
X142709500Y-71038074D01*
X142682303Y-70866362D01*
X142628580Y-70701019D01*
X142549653Y-70546116D01*
X142447465Y-70405467D01*
X142447463Y-70405464D01*
X142324535Y-70282536D01*
X142183887Y-70180349D01*
X142183886Y-70180348D01*
X142183884Y-70180347D01*
X142028981Y-70101420D01*
X142028978Y-70101419D01*
X142028976Y-70101418D01*
X141863642Y-70047698D01*
X141863640Y-70047697D01*
X141863638Y-70047697D01*
X141691926Y-70020500D01*
X141518074Y-70020500D01*
X141346362Y-70047697D01*
X141346360Y-70047697D01*
X141346357Y-70047698D01*
X141181023Y-70101418D01*
X141181017Y-70101421D01*
X141026112Y-70180349D01*
X140885464Y-70282536D01*
X140762536Y-70405464D01*
X140660349Y-70546112D01*
X140581421Y-70701017D01*
X140581418Y-70701023D01*
X140527698Y-70866357D01*
X140527697Y-70866360D01*
X140527697Y-70866362D01*
X140500500Y-71038074D01*
X140169499Y-71038074D01*
X140169499Y-70249934D01*
X140169498Y-70249930D01*
X140169498Y-70249926D01*
X140154734Y-70175699D01*
X140105102Y-70101421D01*
X140098484Y-70091516D01*
X140032907Y-70047698D01*
X140014302Y-70035266D01*
X139940067Y-70020500D01*
X138189936Y-70020500D01*
X138189926Y-70020501D01*
X138115699Y-70035265D01*
X138031515Y-70091516D01*
X137975266Y-70175697D01*
X137960500Y-70249930D01*
X135006036Y-70249930D01*
X135002303Y-70226362D01*
X135002301Y-70226357D01*
X134948581Y-70061023D01*
X134948580Y-70061019D01*
X134869653Y-69906116D01*
X134767465Y-69765467D01*
X134767463Y-69765464D01*
X134644535Y-69642536D01*
X134503887Y-69540349D01*
X134503886Y-69540348D01*
X134503884Y-69540347D01*
X134348981Y-69461420D01*
X134348978Y-69461419D01*
X134348976Y-69461418D01*
X134183642Y-69407698D01*
X134183640Y-69407697D01*
X134183638Y-69407697D01*
X134011926Y-69380500D01*
X133838074Y-69380500D01*
X133666362Y-69407697D01*
X133666360Y-69407697D01*
X133666357Y-69407698D01*
X133501023Y-69461418D01*
X133501017Y-69461421D01*
X133346112Y-69540349D01*
X133205464Y-69642536D01*
X133082536Y-69765464D01*
X132980349Y-69906112D01*
X132901421Y-70061017D01*
X132901418Y-70061023D01*
X132847698Y-70226357D01*
X132847698Y-70226358D01*
X132847697Y-70226362D01*
X132820500Y-70398074D01*
X117340500Y-70398074D01*
X117340500Y-67858074D01*
X132820500Y-67858074D01*
X132820500Y-68031926D01*
X132847697Y-68203638D01*
X132847698Y-68203642D01*
X132887570Y-68326357D01*
X132901420Y-68368981D01*
X132980347Y-68523884D01*
X132980349Y-68523887D01*
X133082536Y-68664535D01*
X133205464Y-68787463D01*
X133205467Y-68787465D01*
X133346116Y-68889653D01*
X133501019Y-68968580D01*
X133666362Y-69022303D01*
X133838074Y-69049500D01*
X133838077Y-69049500D01*
X134011923Y-69049500D01*
X134011926Y-69049500D01*
X134183638Y-69022303D01*
X134348981Y-68968580D01*
X134503884Y-68889653D01*
X134644533Y-68787465D01*
X134767465Y-68664533D01*
X134869653Y-68523884D01*
X134882804Y-68498074D01*
X137960500Y-68498074D01*
X137960500Y-68671926D01*
X137987697Y-68843638D01*
X138041420Y-69008981D01*
X138120347Y-69163884D01*
X138120349Y-69163887D01*
X138222536Y-69304535D01*
X138345464Y-69427463D01*
X138345467Y-69427465D01*
X138486116Y-69529653D01*
X138641019Y-69608580D01*
X138806362Y-69662303D01*
X138978074Y-69689500D01*
X138978077Y-69689500D01*
X139151923Y-69689500D01*
X139151926Y-69689500D01*
X139323638Y-69662303D01*
X139488981Y-69608580D01*
X139643884Y-69529653D01*
X139784533Y-69427465D01*
X139907465Y-69304533D01*
X140009653Y-69163884D01*
X140088580Y-69008981D01*
X140142303Y-68843638D01*
X140169500Y-68671926D01*
X140169500Y-68498074D01*
X140500500Y-68498074D01*
X140500500Y-68671926D01*
X140527697Y-68843638D01*
X140581420Y-69008981D01*
X140660347Y-69163884D01*
X140660349Y-69163887D01*
X140762536Y-69304535D01*
X140885464Y-69427463D01*
X140885467Y-69427465D01*
X141026116Y-69529653D01*
X141181019Y-69608580D01*
X141346362Y-69662303D01*
X141518074Y-69689500D01*
X141518077Y-69689500D01*
X141691923Y-69689500D01*
X141691926Y-69689500D01*
X141863638Y-69662303D01*
X142028981Y-69608580D01*
X142183884Y-69529653D01*
X142324533Y-69427465D01*
X142371498Y-69380500D01*
X142438160Y-69313839D01*
X142447460Y-69304538D01*
X142447463Y-69304535D01*
X142447465Y-69304533D01*
X142549653Y-69163884D01*
X142628580Y-69008981D01*
X142682303Y-68843638D01*
X142709500Y-68671926D01*
X142709500Y-68498116D01*
X143041000Y-68498116D01*
X143041000Y-68671883D01*
X143068185Y-68843524D01*
X143121883Y-69008788D01*
X143121884Y-69008790D01*
X143200776Y-69163625D01*
X143279042Y-69271349D01*
X143279043Y-69271349D01*
X143713234Y-68837158D01*
X143744901Y-68892007D01*
X143837993Y-68985099D01*
X143892840Y-69016765D01*
X143458649Y-69450955D01*
X143458649Y-69450956D01*
X143566374Y-69529223D01*
X143721209Y-69608115D01*
X143721211Y-69608116D01*
X143886475Y-69661814D01*
X144058116Y-69689000D01*
X144231884Y-69689000D01*
X144403524Y-69661814D01*
X144568788Y-69608116D01*
X144568790Y-69608115D01*
X144723621Y-69529225D01*
X144831349Y-69450955D01*
X144831349Y-69450954D01*
X144397159Y-69016764D01*
X144452007Y-68985099D01*
X144545099Y-68892007D01*
X144576764Y-68837159D01*
X145010954Y-69271349D01*
X145010955Y-69271349D01*
X145089225Y-69163621D01*
X145168115Y-69008790D01*
X145168116Y-69008788D01*
X145221814Y-68843524D01*
X145249000Y-68671883D01*
X145249000Y-68498116D01*
X145221814Y-68326475D01*
X145168116Y-68161211D01*
X145168115Y-68161209D01*
X145089223Y-68006374D01*
X145010955Y-67898649D01*
X144576764Y-68332839D01*
X144545099Y-68277993D01*
X144452007Y-68184901D01*
X144397158Y-68153234D01*
X144831349Y-67719043D01*
X144831349Y-67719042D01*
X144723625Y-67640776D01*
X144568790Y-67561884D01*
X144568788Y-67561883D01*
X144403524Y-67508185D01*
X144231884Y-67481000D01*
X144058116Y-67481000D01*
X143886475Y-67508185D01*
X143721211Y-67561883D01*
X143721209Y-67561884D01*
X143566379Y-67640773D01*
X143566379Y-67640774D01*
X143458649Y-67719042D01*
X143458649Y-67719044D01*
X143892840Y-68153235D01*
X143837993Y-68184901D01*
X143744901Y-68277993D01*
X143713235Y-68332840D01*
X143279044Y-67898649D01*
X143279042Y-67898649D01*
X143200774Y-68006379D01*
X143200773Y-68006379D01*
X143121884Y-68161209D01*
X143121883Y-68161211D01*
X143068185Y-68326475D01*
X143041000Y-68498116D01*
X142709500Y-68498116D01*
X142709500Y-68498074D01*
X142682303Y-68326362D01*
X142628580Y-68161019D01*
X142549653Y-68006116D01*
X142447465Y-67865467D01*
X142447463Y-67865464D01*
X142324535Y-67742536D01*
X142183887Y-67640349D01*
X142183886Y-67640348D01*
X142183884Y-67640347D01*
X142028981Y-67561420D01*
X142028978Y-67561419D01*
X142028976Y-67561418D01*
X141863642Y-67507698D01*
X141863640Y-67507697D01*
X141863638Y-67507697D01*
X141691926Y-67480500D01*
X141518074Y-67480500D01*
X141346362Y-67507697D01*
X141346360Y-67507697D01*
X141346357Y-67507698D01*
X141181023Y-67561418D01*
X141181017Y-67561421D01*
X141026112Y-67640349D01*
X140885464Y-67742536D01*
X140762536Y-67865464D01*
X140660349Y-68006112D01*
X140581421Y-68161017D01*
X140581418Y-68161023D01*
X140527698Y-68326357D01*
X140527697Y-68326360D01*
X140527697Y-68326362D01*
X140500500Y-68498074D01*
X140169500Y-68498074D01*
X140142303Y-68326362D01*
X140088580Y-68161019D01*
X140009653Y-68006116D01*
X139907465Y-67865467D01*
X139907463Y-67865464D01*
X139784535Y-67742536D01*
X139643887Y-67640349D01*
X139643886Y-67640348D01*
X139643884Y-67640347D01*
X139488981Y-67561420D01*
X139488978Y-67561419D01*
X139488976Y-67561418D01*
X139323642Y-67507698D01*
X139323640Y-67507697D01*
X139323638Y-67507697D01*
X139151926Y-67480500D01*
X138978074Y-67480500D01*
X138806362Y-67507697D01*
X138806360Y-67507697D01*
X138806357Y-67507698D01*
X138641023Y-67561418D01*
X138641017Y-67561421D01*
X138486112Y-67640349D01*
X138345464Y-67742536D01*
X138222536Y-67865464D01*
X138120349Y-68006112D01*
X138041421Y-68161017D01*
X138041418Y-68161023D01*
X137987698Y-68326357D01*
X137987697Y-68326360D01*
X137987697Y-68326362D01*
X137960500Y-68498074D01*
X134882804Y-68498074D01*
X134948580Y-68368981D01*
X135002303Y-68203638D01*
X135029500Y-68031926D01*
X135029500Y-67858074D01*
X135002303Y-67686362D01*
X134948580Y-67521019D01*
X134869653Y-67366116D01*
X134767465Y-67225467D01*
X134767463Y-67225464D01*
X134644535Y-67102536D01*
X134503887Y-67000349D01*
X134503886Y-67000348D01*
X134503884Y-67000347D01*
X134348981Y-66921420D01*
X134348978Y-66921419D01*
X134348976Y-66921418D01*
X134183642Y-66867698D01*
X134183640Y-66867697D01*
X134183638Y-66867697D01*
X134011926Y-66840500D01*
X133838074Y-66840500D01*
X133666362Y-66867697D01*
X133666360Y-66867697D01*
X133666357Y-66867698D01*
X133501023Y-66921418D01*
X133501017Y-66921421D01*
X133346112Y-67000349D01*
X133205464Y-67102536D01*
X133082536Y-67225464D01*
X132980349Y-67366112D01*
X132901421Y-67521017D01*
X132901418Y-67521023D01*
X132847698Y-67686357D01*
X132847697Y-67686360D01*
X132847697Y-67686362D01*
X132820500Y-67858074D01*
X117340500Y-67858074D01*
X117340500Y-65318074D01*
X132820500Y-65318074D01*
X132820500Y-65491926D01*
X132847697Y-65663638D01*
X132901420Y-65828981D01*
X132901421Y-65828982D01*
X132980349Y-65983887D01*
X133082536Y-66124535D01*
X133205464Y-66247463D01*
X133205467Y-66247465D01*
X133346116Y-66349653D01*
X133501019Y-66428580D01*
X133666362Y-66482303D01*
X133838074Y-66509500D01*
X133838077Y-66509500D01*
X134011923Y-66509500D01*
X134011926Y-66509500D01*
X134183638Y-66482303D01*
X134348981Y-66428580D01*
X134503884Y-66349653D01*
X134644533Y-66247465D01*
X134767465Y-66124533D01*
X134869653Y-65983884D01*
X134948580Y-65828981D01*
X135002303Y-65663638D01*
X135029500Y-65491926D01*
X135029500Y-65318074D01*
X135002303Y-65146362D01*
X134948580Y-64981019D01*
X134869653Y-64826116D01*
X134767465Y-64685467D01*
X134767463Y-64685464D01*
X134644535Y-64562536D01*
X134503887Y-64460349D01*
X134503886Y-64460348D01*
X134503884Y-64460347D01*
X134348981Y-64381420D01*
X134348978Y-64381419D01*
X134348976Y-64381418D01*
X134183642Y-64327698D01*
X134183640Y-64327697D01*
X134183638Y-64327697D01*
X134011926Y-64300500D01*
X133838074Y-64300500D01*
X133666362Y-64327697D01*
X133666360Y-64327697D01*
X133666357Y-64327698D01*
X133501023Y-64381418D01*
X133501017Y-64381421D01*
X133346112Y-64460349D01*
X133205464Y-64562536D01*
X133082536Y-64685464D01*
X132980349Y-64826112D01*
X132901421Y-64981017D01*
X132901418Y-64981023D01*
X132847698Y-65146357D01*
X132847697Y-65146360D01*
X132847697Y-65146362D01*
X132820500Y-65318074D01*
X117340500Y-65318074D01*
X117340500Y-57776500D01*
X117360502Y-57708379D01*
X117414158Y-57661886D01*
X117466500Y-57650500D01*
X155449000Y-57650500D01*
X155517121Y-57670502D01*
G37*
%TD.AperFunction*%
%TD*%
%TA.AperFunction,Conductor*%
%TO.N,Earth*%
G36*
X184861621Y-57670502D02*
G01*
X184908114Y-57724158D01*
X184919500Y-57776500D01*
X184919500Y-136533500D01*
X184899498Y-136601621D01*
X184845842Y-136648114D01*
X184793500Y-136659500D01*
X156336000Y-136659500D01*
X156267879Y-136639498D01*
X156221386Y-136585842D01*
X156210000Y-136533500D01*
X156210000Y-98453074D01*
X157395500Y-98453074D01*
X157395500Y-98626926D01*
X157422697Y-98798638D01*
X157476420Y-98963981D01*
X157555347Y-99118884D01*
X157555349Y-99118887D01*
X157657536Y-99259535D01*
X157780464Y-99382463D01*
X157780467Y-99382465D01*
X157921116Y-99484653D01*
X158076019Y-99563580D01*
X158241362Y-99617303D01*
X158413074Y-99644500D01*
X158413077Y-99644500D01*
X158586923Y-99644500D01*
X158586926Y-99644500D01*
X158758638Y-99617303D01*
X158923981Y-99563580D01*
X159078884Y-99484653D01*
X159219533Y-99382465D01*
X159219538Y-99382460D01*
X159333160Y-99268839D01*
X159342460Y-99259538D01*
X159342463Y-99259535D01*
X159342465Y-99259533D01*
X159444653Y-99118884D01*
X159523580Y-98963981D01*
X159577303Y-98798638D01*
X159604500Y-98626926D01*
X159604500Y-98453116D01*
X159936000Y-98453116D01*
X159936000Y-98626883D01*
X159963185Y-98798524D01*
X160016883Y-98963788D01*
X160016884Y-98963790D01*
X160095776Y-99118625D01*
X160174042Y-99226349D01*
X160174043Y-99226349D01*
X160608234Y-98792158D01*
X160639901Y-98847007D01*
X160732993Y-98940099D01*
X160787840Y-98971765D01*
X160353649Y-99405955D01*
X160353649Y-99405956D01*
X160461374Y-99484223D01*
X160616209Y-99563115D01*
X160616211Y-99563116D01*
X160781475Y-99616814D01*
X160953116Y-99644000D01*
X161126884Y-99644000D01*
X161298524Y-99616814D01*
X161463788Y-99563116D01*
X161463790Y-99563115D01*
X161618621Y-99484225D01*
X161726349Y-99405955D01*
X161726349Y-99405954D01*
X161292159Y-98971764D01*
X161347007Y-98940099D01*
X161440099Y-98847007D01*
X161471764Y-98792159D01*
X161905954Y-99226349D01*
X161905955Y-99226349D01*
X161984225Y-99118621D01*
X162063115Y-98963790D01*
X162063116Y-98963788D01*
X162116814Y-98798524D01*
X162144000Y-98626883D01*
X162144000Y-98453116D01*
X162143993Y-98453074D01*
X162475500Y-98453074D01*
X162475500Y-98626926D01*
X162502697Y-98798638D01*
X162556420Y-98963981D01*
X162635347Y-99118884D01*
X162635349Y-99118887D01*
X162737536Y-99259535D01*
X162860464Y-99382463D01*
X162860467Y-99382465D01*
X163001116Y-99484653D01*
X163156019Y-99563580D01*
X163321362Y-99617303D01*
X163493074Y-99644500D01*
X163493077Y-99644500D01*
X163666923Y-99644500D01*
X163666926Y-99644500D01*
X163838638Y-99617303D01*
X164003981Y-99563580D01*
X164158884Y-99484653D01*
X164299533Y-99382465D01*
X164422465Y-99259533D01*
X164524653Y-99118884D01*
X164603580Y-98963981D01*
X164657303Y-98798638D01*
X164684500Y-98626926D01*
X164684500Y-98453074D01*
X165015500Y-98453074D01*
X165015500Y-98626926D01*
X165042697Y-98798638D01*
X165096420Y-98963981D01*
X165175347Y-99118884D01*
X165175349Y-99118887D01*
X165277536Y-99259535D01*
X165400464Y-99382463D01*
X165400467Y-99382465D01*
X165541116Y-99484653D01*
X165696019Y-99563580D01*
X165861362Y-99617303D01*
X166033074Y-99644500D01*
X166033077Y-99644500D01*
X166206923Y-99644500D01*
X166206926Y-99644500D01*
X166378638Y-99617303D01*
X166543981Y-99563580D01*
X166698884Y-99484653D01*
X166839533Y-99382465D01*
X166962465Y-99259533D01*
X167064653Y-99118884D01*
X167143580Y-98963981D01*
X167197303Y-98798638D01*
X167224500Y-98626926D01*
X167224500Y-98453074D01*
X167555500Y-98453074D01*
X167555500Y-98626926D01*
X167582697Y-98798638D01*
X167636420Y-98963981D01*
X167715347Y-99118884D01*
X167715349Y-99118887D01*
X167817536Y-99259535D01*
X167940464Y-99382463D01*
X167940467Y-99382465D01*
X168081116Y-99484653D01*
X168236019Y-99563580D01*
X168401362Y-99617303D01*
X168573074Y-99644500D01*
X168573077Y-99644500D01*
X168746923Y-99644500D01*
X168746926Y-99644500D01*
X168918638Y-99617303D01*
X169083981Y-99563580D01*
X169238884Y-99484653D01*
X169379533Y-99382465D01*
X169502465Y-99259533D01*
X169604653Y-99118884D01*
X169683580Y-98963981D01*
X169737303Y-98798638D01*
X169764500Y-98626926D01*
X169764500Y-98453074D01*
X170095500Y-98453074D01*
X170095500Y-98626926D01*
X170122697Y-98798638D01*
X170176420Y-98963981D01*
X170255347Y-99118884D01*
X170255349Y-99118887D01*
X170357536Y-99259535D01*
X170480464Y-99382463D01*
X170480467Y-99382465D01*
X170621116Y-99484653D01*
X170776019Y-99563580D01*
X170941362Y-99617303D01*
X171113074Y-99644500D01*
X171113077Y-99644500D01*
X171286923Y-99644500D01*
X171286926Y-99644500D01*
X171458638Y-99617303D01*
X171623981Y-99563580D01*
X171778884Y-99484653D01*
X171919533Y-99382465D01*
X171919538Y-99382460D01*
X172033160Y-99268839D01*
X172042460Y-99259538D01*
X172042463Y-99259535D01*
X172042465Y-99259533D01*
X172144653Y-99118884D01*
X172223580Y-98963981D01*
X172277303Y-98798638D01*
X172304500Y-98626926D01*
X172304500Y-98453116D01*
X172636000Y-98453116D01*
X172636000Y-98626883D01*
X172663185Y-98798524D01*
X172716883Y-98963788D01*
X172716884Y-98963790D01*
X172795776Y-99118625D01*
X172874042Y-99226349D01*
X172874043Y-99226349D01*
X173308234Y-98792158D01*
X173339901Y-98847007D01*
X173432993Y-98940099D01*
X173487840Y-98971765D01*
X173053649Y-99405955D01*
X173053649Y-99405956D01*
X173161374Y-99484223D01*
X173316209Y-99563115D01*
X173316211Y-99563116D01*
X173481475Y-99616814D01*
X173653116Y-99644000D01*
X173826884Y-99644000D01*
X173998524Y-99616814D01*
X174163788Y-99563116D01*
X174163790Y-99563115D01*
X174318621Y-99484225D01*
X174426349Y-99405955D01*
X174426349Y-99405954D01*
X173992159Y-98971764D01*
X174047007Y-98940099D01*
X174140099Y-98847007D01*
X174171764Y-98792159D01*
X174605954Y-99226349D01*
X174605955Y-99226349D01*
X174684225Y-99118621D01*
X174763115Y-98963790D01*
X174763116Y-98963788D01*
X174816814Y-98798524D01*
X174844000Y-98626883D01*
X174844000Y-98453116D01*
X174843993Y-98453074D01*
X175175500Y-98453074D01*
X175175500Y-98626926D01*
X175202697Y-98798638D01*
X175256420Y-98963981D01*
X175335347Y-99118884D01*
X175335349Y-99118887D01*
X175437536Y-99259535D01*
X175560464Y-99382463D01*
X175560467Y-99382465D01*
X175701116Y-99484653D01*
X175856019Y-99563580D01*
X176021362Y-99617303D01*
X176193074Y-99644500D01*
X176193077Y-99644500D01*
X176366923Y-99644500D01*
X176366926Y-99644500D01*
X176538638Y-99617303D01*
X176703981Y-99563580D01*
X176858884Y-99484653D01*
X176999533Y-99382465D01*
X177122465Y-99259533D01*
X177224653Y-99118884D01*
X177303580Y-98963981D01*
X177357303Y-98798638D01*
X177384500Y-98626926D01*
X177384500Y-98453074D01*
X177357303Y-98281362D01*
X177303580Y-98116019D01*
X177224653Y-97961116D01*
X177122465Y-97820467D01*
X177122463Y-97820464D01*
X176999535Y-97697536D01*
X176858887Y-97595349D01*
X176858886Y-97595348D01*
X176858884Y-97595347D01*
X176703981Y-97516420D01*
X176703978Y-97516419D01*
X176703976Y-97516418D01*
X176538642Y-97462698D01*
X176538640Y-97462697D01*
X176538638Y-97462697D01*
X176366926Y-97435500D01*
X176193074Y-97435500D01*
X176021362Y-97462697D01*
X176021360Y-97462697D01*
X176021357Y-97462698D01*
X175856023Y-97516418D01*
X175856017Y-97516421D01*
X175701112Y-97595349D01*
X175560464Y-97697536D01*
X175437536Y-97820464D01*
X175335349Y-97961112D01*
X175256421Y-98116017D01*
X175256418Y-98116023D01*
X175202698Y-98281357D01*
X175202697Y-98281360D01*
X175202697Y-98281362D01*
X175175500Y-98453074D01*
X174843993Y-98453074D01*
X174816814Y-98281475D01*
X174763116Y-98116211D01*
X174763115Y-98116209D01*
X174684223Y-97961374D01*
X174605955Y-97853649D01*
X174171764Y-98287839D01*
X174140099Y-98232993D01*
X174047007Y-98139901D01*
X173992158Y-98108234D01*
X174426349Y-97674043D01*
X174426349Y-97674042D01*
X174318625Y-97595776D01*
X174163790Y-97516884D01*
X174163788Y-97516883D01*
X173998524Y-97463185D01*
X173826884Y-97436000D01*
X173653116Y-97436000D01*
X173481475Y-97463185D01*
X173316211Y-97516883D01*
X173316209Y-97516884D01*
X173161379Y-97595773D01*
X173161379Y-97595774D01*
X173053649Y-97674042D01*
X173053649Y-97674044D01*
X173487840Y-98108235D01*
X173432993Y-98139901D01*
X173339901Y-98232993D01*
X173308235Y-98287840D01*
X172874044Y-97853649D01*
X172874042Y-97853649D01*
X172795774Y-97961379D01*
X172795773Y-97961379D01*
X172716884Y-98116209D01*
X172716883Y-98116211D01*
X172663185Y-98281475D01*
X172636000Y-98453116D01*
X172304500Y-98453116D01*
X172304500Y-98453074D01*
X172277303Y-98281362D01*
X172223580Y-98116019D01*
X172144653Y-97961116D01*
X172042465Y-97820467D01*
X172042463Y-97820464D01*
X171919535Y-97697536D01*
X171778887Y-97595349D01*
X171778886Y-97595348D01*
X171778884Y-97595347D01*
X171623981Y-97516420D01*
X171623978Y-97516419D01*
X171623976Y-97516418D01*
X171458642Y-97462698D01*
X171458640Y-97462697D01*
X171458638Y-97462697D01*
X171286926Y-97435500D01*
X171113074Y-97435500D01*
X170941362Y-97462697D01*
X170941360Y-97462697D01*
X170941357Y-97462698D01*
X170776023Y-97516418D01*
X170776017Y-97516421D01*
X170621112Y-97595349D01*
X170480464Y-97697536D01*
X170357536Y-97820464D01*
X170255349Y-97961112D01*
X170176421Y-98116017D01*
X170176418Y-98116023D01*
X170122698Y-98281357D01*
X170122697Y-98281360D01*
X170122697Y-98281362D01*
X170095500Y-98453074D01*
X169764500Y-98453074D01*
X169737303Y-98281362D01*
X169683580Y-98116019D01*
X169604653Y-97961116D01*
X169502465Y-97820467D01*
X169502463Y-97820464D01*
X169379535Y-97697536D01*
X169238887Y-97595349D01*
X169238886Y-97595348D01*
X169238884Y-97595347D01*
X169083981Y-97516420D01*
X169083978Y-97516419D01*
X169083976Y-97516418D01*
X168918642Y-97462698D01*
X168918640Y-97462697D01*
X168918638Y-97462697D01*
X168746926Y-97435500D01*
X168573074Y-97435500D01*
X168401362Y-97462697D01*
X168401360Y-97462697D01*
X168401357Y-97462698D01*
X168236023Y-97516418D01*
X168236017Y-97516421D01*
X168081112Y-97595349D01*
X167940464Y-97697536D01*
X167817536Y-97820464D01*
X167715349Y-97961112D01*
X167636421Y-98116017D01*
X167636418Y-98116023D01*
X167582698Y-98281357D01*
X167582697Y-98281360D01*
X167582697Y-98281362D01*
X167555500Y-98453074D01*
X167224500Y-98453074D01*
X167197303Y-98281362D01*
X167143580Y-98116019D01*
X167064653Y-97961116D01*
X166962465Y-97820467D01*
X166962463Y-97820464D01*
X166839535Y-97697536D01*
X166698887Y-97595349D01*
X166698886Y-97595348D01*
X166698884Y-97595347D01*
X166543981Y-97516420D01*
X166543978Y-97516419D01*
X166543976Y-97516418D01*
X166378642Y-97462698D01*
X166378640Y-97462697D01*
X166378638Y-97462697D01*
X166206926Y-97435500D01*
X166033074Y-97435500D01*
X165861362Y-97462697D01*
X165861360Y-97462697D01*
X165861357Y-97462698D01*
X165696023Y-97516418D01*
X165696017Y-97516421D01*
X165541112Y-97595349D01*
X165400464Y-97697536D01*
X165277536Y-97820464D01*
X165175349Y-97961112D01*
X165096421Y-98116017D01*
X165096418Y-98116023D01*
X165042698Y-98281357D01*
X165042697Y-98281360D01*
X165042697Y-98281362D01*
X165015500Y-98453074D01*
X164684500Y-98453074D01*
X164657303Y-98281362D01*
X164603580Y-98116019D01*
X164524653Y-97961116D01*
X164422465Y-97820467D01*
X164422463Y-97820464D01*
X164299535Y-97697536D01*
X164158887Y-97595349D01*
X164158886Y-97595348D01*
X164158884Y-97595347D01*
X164003981Y-97516420D01*
X164003978Y-97516419D01*
X164003976Y-97516418D01*
X163838642Y-97462698D01*
X163838640Y-97462697D01*
X163838638Y-97462697D01*
X163666926Y-97435500D01*
X163493074Y-97435500D01*
X163321362Y-97462697D01*
X163321360Y-97462697D01*
X163321357Y-97462698D01*
X163156023Y-97516418D01*
X163156017Y-97516421D01*
X163001112Y-97595349D01*
X162860464Y-97697536D01*
X162737536Y-97820464D01*
X162635349Y-97961112D01*
X162556421Y-98116017D01*
X162556418Y-98116023D01*
X162502698Y-98281357D01*
X162502697Y-98281360D01*
X162502697Y-98281362D01*
X162475500Y-98453074D01*
X162143993Y-98453074D01*
X162116814Y-98281475D01*
X162063116Y-98116211D01*
X162063115Y-98116209D01*
X161984223Y-97961374D01*
X161905955Y-97853649D01*
X161471764Y-98287839D01*
X161440099Y-98232993D01*
X161347007Y-98139901D01*
X161292158Y-98108234D01*
X161726349Y-97674043D01*
X161726349Y-97674042D01*
X161618625Y-97595776D01*
X161463790Y-97516884D01*
X161463788Y-97516883D01*
X161298524Y-97463185D01*
X161126884Y-97436000D01*
X160953116Y-97436000D01*
X160781475Y-97463185D01*
X160616211Y-97516883D01*
X160616209Y-97516884D01*
X160461379Y-97595773D01*
X160461379Y-97595774D01*
X160353649Y-97674042D01*
X160353649Y-97674044D01*
X160787840Y-98108235D01*
X160732993Y-98139901D01*
X160639901Y-98232993D01*
X160608235Y-98287840D01*
X160174044Y-97853649D01*
X160174042Y-97853649D01*
X160095774Y-97961379D01*
X160095773Y-97961379D01*
X160016884Y-98116209D01*
X160016883Y-98116211D01*
X159963185Y-98281475D01*
X159936000Y-98453116D01*
X159604500Y-98453116D01*
X159604500Y-98453074D01*
X159577303Y-98281362D01*
X159523580Y-98116019D01*
X159444653Y-97961116D01*
X159342465Y-97820467D01*
X159342463Y-97820464D01*
X159219535Y-97697536D01*
X159078887Y-97595349D01*
X159078886Y-97595348D01*
X159078884Y-97595347D01*
X158923981Y-97516420D01*
X158923978Y-97516419D01*
X158923976Y-97516418D01*
X158758642Y-97462698D01*
X158758640Y-97462697D01*
X158758638Y-97462697D01*
X158586926Y-97435500D01*
X158413074Y-97435500D01*
X158241362Y-97462697D01*
X158241360Y-97462697D01*
X158241357Y-97462698D01*
X158076023Y-97516418D01*
X158076017Y-97516421D01*
X157921112Y-97595349D01*
X157780464Y-97697536D01*
X157657536Y-97820464D01*
X157555349Y-97961112D01*
X157476421Y-98116017D01*
X157476418Y-98116023D01*
X157422698Y-98281357D01*
X157422697Y-98281360D01*
X157422697Y-98281362D01*
X157395500Y-98453074D01*
X156210000Y-98453074D01*
X156210000Y-95913074D01*
X157395500Y-95913074D01*
X157395500Y-96086926D01*
X157422697Y-96258638D01*
X157476420Y-96423981D01*
X157476421Y-96423982D01*
X157555349Y-96578887D01*
X157657536Y-96719535D01*
X157780464Y-96842463D01*
X157825342Y-96875069D01*
X157921116Y-96944653D01*
X158076019Y-97023580D01*
X158241362Y-97077303D01*
X158413074Y-97104500D01*
X158413077Y-97104500D01*
X158586923Y-97104500D01*
X158586926Y-97104500D01*
X158758638Y-97077303D01*
X158923981Y-97023580D01*
X159078884Y-96944653D01*
X159219533Y-96842465D01*
X159342465Y-96719533D01*
X159444653Y-96578884D01*
X159523580Y-96423981D01*
X159577303Y-96258638D01*
X159604500Y-96086926D01*
X159604500Y-95913074D01*
X159935500Y-95913074D01*
X159935500Y-96086926D01*
X159962697Y-96258638D01*
X160016420Y-96423981D01*
X160016421Y-96423982D01*
X160095349Y-96578887D01*
X160197536Y-96719535D01*
X160320464Y-96842463D01*
X160365342Y-96875069D01*
X160461116Y-96944653D01*
X160616019Y-97023580D01*
X160781362Y-97077303D01*
X160953074Y-97104500D01*
X160953077Y-97104500D01*
X161126923Y-97104500D01*
X161126926Y-97104500D01*
X161298638Y-97077303D01*
X161463981Y-97023580D01*
X161618884Y-96944653D01*
X161759533Y-96842465D01*
X161882465Y-96719533D01*
X161984653Y-96578884D01*
X162063580Y-96423981D01*
X162117303Y-96258638D01*
X162144500Y-96086926D01*
X162144500Y-95913074D01*
X162475500Y-95913074D01*
X162475500Y-96086926D01*
X162502697Y-96258638D01*
X162556420Y-96423981D01*
X162556421Y-96423982D01*
X162635349Y-96578887D01*
X162737536Y-96719535D01*
X162860464Y-96842463D01*
X162905342Y-96875069D01*
X163001116Y-96944653D01*
X163156019Y-97023580D01*
X163321362Y-97077303D01*
X163493074Y-97104500D01*
X163493077Y-97104500D01*
X163666923Y-97104500D01*
X163666926Y-97104500D01*
X163838638Y-97077303D01*
X164003981Y-97023580D01*
X164158884Y-96944653D01*
X164299533Y-96842465D01*
X164422465Y-96719533D01*
X164524653Y-96578884D01*
X164603580Y-96423981D01*
X164657303Y-96258638D01*
X164684500Y-96086926D01*
X164684500Y-95913074D01*
X165015500Y-95913074D01*
X165015500Y-96086926D01*
X165042697Y-96258638D01*
X165096420Y-96423981D01*
X165096421Y-96423982D01*
X165175349Y-96578887D01*
X165277536Y-96719535D01*
X165400464Y-96842463D01*
X165445342Y-96875069D01*
X165541116Y-96944653D01*
X165696019Y-97023580D01*
X165861362Y-97077303D01*
X166033074Y-97104500D01*
X166033077Y-97104500D01*
X166206923Y-97104500D01*
X166206926Y-97104500D01*
X166378638Y-97077303D01*
X166543981Y-97023580D01*
X166698884Y-96944653D01*
X166839533Y-96842465D01*
X166962465Y-96719533D01*
X167064653Y-96578884D01*
X167143580Y-96423981D01*
X167197303Y-96258638D01*
X167224500Y-96086926D01*
X167224500Y-95913074D01*
X167555500Y-95913074D01*
X167555500Y-96086926D01*
X167582697Y-96258638D01*
X167636420Y-96423981D01*
X167636421Y-96423982D01*
X167715349Y-96578887D01*
X167817536Y-96719535D01*
X167940464Y-96842463D01*
X167985342Y-96875069D01*
X168081116Y-96944653D01*
X168236019Y-97023580D01*
X168401362Y-97077303D01*
X168573074Y-97104500D01*
X168573077Y-97104500D01*
X168746923Y-97104500D01*
X168746926Y-97104500D01*
X168918638Y-97077303D01*
X169083981Y-97023580D01*
X169238884Y-96944653D01*
X169379533Y-96842465D01*
X169502465Y-96719533D01*
X169604653Y-96578884D01*
X169683580Y-96423981D01*
X169737303Y-96258638D01*
X169764500Y-96086926D01*
X169764500Y-95913074D01*
X170095500Y-95913074D01*
X170095500Y-96086926D01*
X170122697Y-96258638D01*
X170176420Y-96423981D01*
X170176421Y-96423982D01*
X170255349Y-96578887D01*
X170357536Y-96719535D01*
X170480464Y-96842463D01*
X170525342Y-96875069D01*
X170621116Y-96944653D01*
X170776019Y-97023580D01*
X170941362Y-97077303D01*
X171113074Y-97104500D01*
X171113077Y-97104500D01*
X171286923Y-97104500D01*
X171286926Y-97104500D01*
X171458638Y-97077303D01*
X171623981Y-97023580D01*
X171778884Y-96944653D01*
X171919533Y-96842465D01*
X172042465Y-96719533D01*
X172144653Y-96578884D01*
X172223580Y-96423981D01*
X172277303Y-96258638D01*
X172304500Y-96086926D01*
X172304500Y-95913074D01*
X172635500Y-95913074D01*
X172635500Y-96086926D01*
X172662697Y-96258638D01*
X172716420Y-96423981D01*
X172716421Y-96423982D01*
X172795349Y-96578887D01*
X172897536Y-96719535D01*
X173020464Y-96842463D01*
X173065342Y-96875069D01*
X173161116Y-96944653D01*
X173316019Y-97023580D01*
X173481362Y-97077303D01*
X173653074Y-97104500D01*
X173653077Y-97104500D01*
X173826923Y-97104500D01*
X173826926Y-97104500D01*
X173998638Y-97077303D01*
X174163981Y-97023580D01*
X174318884Y-96944653D01*
X174459533Y-96842465D01*
X174582465Y-96719533D01*
X174684653Y-96578884D01*
X174763580Y-96423981D01*
X174817303Y-96258638D01*
X174844500Y-96086926D01*
X174844500Y-95913074D01*
X174817303Y-95741362D01*
X174763580Y-95576019D01*
X174684653Y-95421116D01*
X174582465Y-95280467D01*
X174582463Y-95280464D01*
X174459535Y-95157536D01*
X174414657Y-95124930D01*
X175175500Y-95124930D01*
X175175500Y-96875063D01*
X175175501Y-96875073D01*
X175190265Y-96949300D01*
X175246516Y-97033484D01*
X175330697Y-97089733D01*
X175330699Y-97089734D01*
X175404933Y-97104500D01*
X177155066Y-97104499D01*
X177155069Y-97104498D01*
X177155073Y-97104498D01*
X177204326Y-97094701D01*
X177229301Y-97089734D01*
X177313484Y-97033484D01*
X177369734Y-96949301D01*
X177384500Y-96875067D01*
X177384499Y-95124934D01*
X177384498Y-95124930D01*
X177384498Y-95124926D01*
X177369734Y-95050699D01*
X177320102Y-94976421D01*
X177313484Y-94966516D01*
X177247907Y-94922698D01*
X177229302Y-94910266D01*
X177155067Y-94895500D01*
X175404936Y-94895500D01*
X175404926Y-94895501D01*
X175330699Y-94910265D01*
X175246515Y-94966516D01*
X175190266Y-95050697D01*
X175175500Y-95124930D01*
X174414657Y-95124930D01*
X174318887Y-95055349D01*
X174318886Y-95055348D01*
X174318884Y-95055347D01*
X174163981Y-94976420D01*
X174163978Y-94976419D01*
X174163976Y-94976418D01*
X173998642Y-94922698D01*
X173998640Y-94922697D01*
X173998638Y-94922697D01*
X173826926Y-94895500D01*
X173653074Y-94895500D01*
X173481362Y-94922697D01*
X173481360Y-94922697D01*
X173481357Y-94922698D01*
X173316023Y-94976418D01*
X173316017Y-94976421D01*
X173161112Y-95055349D01*
X173020464Y-95157536D01*
X172897536Y-95280464D01*
X172795349Y-95421112D01*
X172716421Y-95576017D01*
X172716418Y-95576023D01*
X172662698Y-95741357D01*
X172662697Y-95741360D01*
X172662697Y-95741362D01*
X172635500Y-95913074D01*
X172304500Y-95913074D01*
X172277303Y-95741362D01*
X172223580Y-95576019D01*
X172144653Y-95421116D01*
X172042465Y-95280467D01*
X172042463Y-95280464D01*
X171919535Y-95157536D01*
X171778887Y-95055349D01*
X171778886Y-95055348D01*
X171778884Y-95055347D01*
X171623981Y-94976420D01*
X171623978Y-94976419D01*
X171623976Y-94976418D01*
X171458642Y-94922698D01*
X171458640Y-94922697D01*
X171458638Y-94922697D01*
X171286926Y-94895500D01*
X171113074Y-94895500D01*
X170941362Y-94922697D01*
X170941360Y-94922697D01*
X170941357Y-94922698D01*
X170776023Y-94976418D01*
X170776017Y-94976421D01*
X170621112Y-95055349D01*
X170480464Y-95157536D01*
X170357536Y-95280464D01*
X170255349Y-95421112D01*
X170176421Y-95576017D01*
X170176418Y-95576023D01*
X170122698Y-95741357D01*
X170122697Y-95741360D01*
X170122697Y-95741362D01*
X170095500Y-95913074D01*
X169764500Y-95913074D01*
X169737303Y-95741362D01*
X169683580Y-95576019D01*
X169604653Y-95421116D01*
X169502465Y-95280467D01*
X169502463Y-95280464D01*
X169379535Y-95157536D01*
X169238887Y-95055349D01*
X169238886Y-95055348D01*
X169238884Y-95055347D01*
X169083981Y-94976420D01*
X169083978Y-94976419D01*
X169083976Y-94976418D01*
X168918642Y-94922698D01*
X168918640Y-94922697D01*
X168918638Y-94922697D01*
X168746926Y-94895500D01*
X168573074Y-94895500D01*
X168401362Y-94922697D01*
X168401360Y-94922697D01*
X168401357Y-94922698D01*
X168236023Y-94976418D01*
X168236017Y-94976421D01*
X168081112Y-95055349D01*
X167940464Y-95157536D01*
X167817536Y-95280464D01*
X167715349Y-95421112D01*
X167636421Y-95576017D01*
X167636418Y-95576023D01*
X167582698Y-95741357D01*
X167582697Y-95741360D01*
X167582697Y-95741362D01*
X167555500Y-95913074D01*
X167224500Y-95913074D01*
X167197303Y-95741362D01*
X167143580Y-95576019D01*
X167064653Y-95421116D01*
X166962465Y-95280467D01*
X166962463Y-95280464D01*
X166839535Y-95157536D01*
X166698887Y-95055349D01*
X166698886Y-95055348D01*
X166698884Y-95055347D01*
X166543981Y-94976420D01*
X166543978Y-94976419D01*
X166543976Y-94976418D01*
X166378642Y-94922698D01*
X166378640Y-94922697D01*
X166378638Y-94922697D01*
X166206926Y-94895500D01*
X166033074Y-94895500D01*
X165861362Y-94922697D01*
X165861360Y-94922697D01*
X165861357Y-94922698D01*
X165696023Y-94976418D01*
X165696017Y-94976421D01*
X165541112Y-95055349D01*
X165400464Y-95157536D01*
X165277536Y-95280464D01*
X165175349Y-95421112D01*
X165096421Y-95576017D01*
X165096418Y-95576023D01*
X165042698Y-95741357D01*
X165042697Y-95741360D01*
X165042697Y-95741362D01*
X165015500Y-95913074D01*
X164684500Y-95913074D01*
X164657303Y-95741362D01*
X164603580Y-95576019D01*
X164524653Y-95421116D01*
X164422465Y-95280467D01*
X164422463Y-95280464D01*
X164299535Y-95157536D01*
X164158887Y-95055349D01*
X164158886Y-95055348D01*
X164158884Y-95055347D01*
X164003981Y-94976420D01*
X164003978Y-94976419D01*
X164003976Y-94976418D01*
X163838642Y-94922698D01*
X163838640Y-94922697D01*
X163838638Y-94922697D01*
X163666926Y-94895500D01*
X163493074Y-94895500D01*
X163321362Y-94922697D01*
X163321360Y-94922697D01*
X163321357Y-94922698D01*
X163156023Y-94976418D01*
X163156017Y-94976421D01*
X163001112Y-95055349D01*
X162860464Y-95157536D01*
X162737536Y-95280464D01*
X162635349Y-95421112D01*
X162556421Y-95576017D01*
X162556418Y-95576023D01*
X162502698Y-95741357D01*
X162502697Y-95741360D01*
X162502697Y-95741362D01*
X162475500Y-95913074D01*
X162144500Y-95913074D01*
X162117303Y-95741362D01*
X162063580Y-95576019D01*
X161984653Y-95421116D01*
X161882465Y-95280467D01*
X161882463Y-95280464D01*
X161759535Y-95157536D01*
X161618887Y-95055349D01*
X161618886Y-95055348D01*
X161618884Y-95055347D01*
X161463981Y-94976420D01*
X161463978Y-94976419D01*
X161463976Y-94976418D01*
X161298642Y-94922698D01*
X161298640Y-94922697D01*
X161298638Y-94922697D01*
X161126926Y-94895500D01*
X160953074Y-94895500D01*
X160781362Y-94922697D01*
X160781360Y-94922697D01*
X160781357Y-94922698D01*
X160616023Y-94976418D01*
X160616017Y-94976421D01*
X160461112Y-95055349D01*
X160320464Y-95157536D01*
X160197536Y-95280464D01*
X160095349Y-95421112D01*
X160016421Y-95576017D01*
X160016418Y-95576023D01*
X159962698Y-95741357D01*
X159962697Y-95741360D01*
X159962697Y-95741362D01*
X159935500Y-95913074D01*
X159604500Y-95913074D01*
X159577303Y-95741362D01*
X159523580Y-95576019D01*
X159444653Y-95421116D01*
X159342465Y-95280467D01*
X159342463Y-95280464D01*
X159219535Y-95157536D01*
X159078887Y-95055349D01*
X159078886Y-95055348D01*
X159078884Y-95055347D01*
X158923981Y-94976420D01*
X158923978Y-94976419D01*
X158923976Y-94976418D01*
X158758642Y-94922698D01*
X158758640Y-94922697D01*
X158758638Y-94922697D01*
X158586926Y-94895500D01*
X158413074Y-94895500D01*
X158241362Y-94922697D01*
X158241360Y-94922697D01*
X158241357Y-94922698D01*
X158076023Y-94976418D01*
X158076017Y-94976421D01*
X157921112Y-95055349D01*
X157780464Y-95157536D01*
X157657536Y-95280464D01*
X157555349Y-95421112D01*
X157476421Y-95576017D01*
X157476418Y-95576023D01*
X157422698Y-95741357D01*
X157422697Y-95741360D01*
X157422697Y-95741362D01*
X157395500Y-95913074D01*
X156210000Y-95913074D01*
X156210000Y-57776500D01*
X156230002Y-57708379D01*
X156283658Y-57661886D01*
X156336000Y-57650500D01*
X184793500Y-57650500D01*
X184861621Y-57670502D01*
G37*
%TD.AperFunction*%
%TD*%
M02*
