%TF.GenerationSoftware,KiCad,Pcbnew,9.0.5-9.0.5~ubuntu24.04.1*%
%TF.CreationDate,2025-10-21T16:22:32-04:00*%
%TF.ProjectId,led-photodiode-avr,6c65642d-7068-46f7-946f-64696f64652d,rev?*%
%TF.SameCoordinates,Original*%
%TF.FileFunction,Copper,L1,Top*%
%TF.FilePolarity,Positive*%
%FSLAX46Y46*%
G04 Gerber Fmt 4.6, Leading zero omitted, Abs format (unit mm)*
G04 Created by KiCad (PCBNEW 9.0.5-9.0.5~ubuntu24.04.1) date 2025-10-21 16:22:32*
%MOMM*%
%LPD*%
G01*
G04 APERTURE LIST*
G04 Aperture macros list*
%AMRoundRect*
0 Rectangle with rounded corners*
0 $1 Rounding radius*
0 $2 $3 $4 $5 $6 $7 $8 $9 X,Y pos of 4 corners*
0 Add a 4 corners polygon primitive as box body*
4,1,4,$2,$3,$4,$5,$6,$7,$8,$9,$2,$3,0*
0 Add four circle primitives for the rounded corners*
1,1,$1+$1,$2,$3*
1,1,$1+$1,$4,$5*
1,1,$1+$1,$6,$7*
1,1,$1+$1,$8,$9*
0 Add four rect primitives between the rounded corners*
20,1,$1+$1,$2,$3,$4,$5,0*
20,1,$1+$1,$4,$5,$6,$7,0*
20,1,$1+$1,$6,$7,$8,$9,0*
20,1,$1+$1,$8,$9,$2,$3,0*%
G04 Aperture macros list end*
%TA.AperFunction,SMDPad,CuDef*%
%ADD10RoundRect,0.250000X-0.450000X0.325000X-0.450000X-0.325000X0.450000X-0.325000X0.450000X0.325000X0*%
%TD*%
%TA.AperFunction,SMDPad,CuDef*%
%ADD11RoundRect,0.150000X0.825000X0.150000X-0.825000X0.150000X-0.825000X-0.150000X0.825000X-0.150000X0*%
%TD*%
%TA.AperFunction,SMDPad,CuDef*%
%ADD12RoundRect,0.200000X-0.200000X0.250000X-0.200000X-0.250000X0.200000X-0.250000X0.200000X0.250000X0*%
%TD*%
%TA.AperFunction,SMDPad,CuDef*%
%ADD13RoundRect,0.250000X0.337500X0.475000X-0.337500X0.475000X-0.337500X-0.475000X0.337500X-0.475000X0*%
%TD*%
%TA.AperFunction,SMDPad,CuDef*%
%ADD14RoundRect,0.250000X-0.350000X-0.450000X0.350000X-0.450000X0.350000X0.450000X-0.350000X0.450000X0*%
%TD*%
%TA.AperFunction,SMDPad,CuDef*%
%ADD15RoundRect,0.150000X-0.825000X-0.150000X0.825000X-0.150000X0.825000X0.150000X-0.825000X0.150000X0*%
%TD*%
%TA.AperFunction,ComponentPad*%
%ADD16R,1.700000X1.700000*%
%TD*%
%TA.AperFunction,ComponentPad*%
%ADD17C,1.700000*%
%TD*%
%TA.AperFunction,ComponentPad*%
%ADD18C,7.500000*%
%TD*%
%TA.AperFunction,SMDPad,CuDef*%
%ADD19RoundRect,0.250000X0.450000X-0.350000X0.450000X0.350000X-0.450000X0.350000X-0.450000X-0.350000X0*%
%TD*%
%TA.AperFunction,SMDPad,CuDef*%
%ADD20C,1.000000*%
%TD*%
%TA.AperFunction,SMDPad,CuDef*%
%ADD21RoundRect,0.250000X-0.475000X0.337500X-0.475000X-0.337500X0.475000X-0.337500X0.475000X0.337500X0*%
%TD*%
%TA.AperFunction,SMDPad,CuDef*%
%ADD22RoundRect,0.250000X-0.400000X-0.300000X0.400000X-0.300000X0.400000X0.300000X-0.400000X0.300000X0*%
%TD*%
%TA.AperFunction,SMDPad,CuDef*%
%ADD23RoundRect,0.237500X0.300000X0.237500X-0.300000X0.237500X-0.300000X-0.237500X0.300000X-0.237500X0*%
%TD*%
%TA.AperFunction,SMDPad,CuDef*%
%ADD24RoundRect,0.375000X-0.625000X-0.375000X0.625000X-0.375000X0.625000X0.375000X-0.625000X0.375000X0*%
%TD*%
%TA.AperFunction,SMDPad,CuDef*%
%ADD25RoundRect,0.500000X-0.500000X-1.400000X0.500000X-1.400000X0.500000X1.400000X-0.500000X1.400000X0*%
%TD*%
%TA.AperFunction,SMDPad,CuDef*%
%ADD26RoundRect,0.250000X-0.337500X-0.475000X0.337500X-0.475000X0.337500X0.475000X-0.337500X0.475000X0*%
%TD*%
%TA.AperFunction,SMDPad,CuDef*%
%ADD27RoundRect,0.150000X-0.150000X0.875000X-0.150000X-0.875000X0.150000X-0.875000X0.150000X0.875000X0*%
%TD*%
%TA.AperFunction,ComponentPad*%
%ADD28RoundRect,0.250001X1.149999X-1.149999X1.149999X1.149999X-1.149999X1.149999X-1.149999X-1.149999X0*%
%TD*%
%TA.AperFunction,ComponentPad*%
%ADD29C,2.800000*%
%TD*%
%TA.AperFunction,SMDPad,CuDef*%
%ADD30RoundRect,0.150000X0.587500X0.150000X-0.587500X0.150000X-0.587500X-0.150000X0.587500X-0.150000X0*%
%TD*%
%TA.AperFunction,SMDPad,CuDef*%
%ADD31RoundRect,0.237500X-0.300000X-0.237500X0.300000X-0.237500X0.300000X0.237500X-0.300000X0.237500X0*%
%TD*%
%TA.AperFunction,SMDPad,CuDef*%
%ADD32RoundRect,0.250000X0.350000X0.450000X-0.350000X0.450000X-0.350000X-0.450000X0.350000X-0.450000X0*%
%TD*%
%TA.AperFunction,SMDPad,CuDef*%
%ADD33RoundRect,0.250000X-0.325000X-0.450000X0.325000X-0.450000X0.325000X0.450000X-0.325000X0.450000X0*%
%TD*%
%TA.AperFunction,SMDPad,CuDef*%
%ADD34RoundRect,0.250000X0.475000X-0.337500X0.475000X0.337500X-0.475000X0.337500X-0.475000X-0.337500X0*%
%TD*%
%TA.AperFunction,SMDPad,CuDef*%
%ADD35RoundRect,0.250000X0.450000X-0.325000X0.450000X0.325000X-0.450000X0.325000X-0.450000X-0.325000X0*%
%TD*%
%TA.AperFunction,ComponentPad*%
%ADD36RoundRect,0.250000X0.600000X0.600000X-0.600000X0.600000X-0.600000X-0.600000X0.600000X-0.600000X0*%
%TD*%
%TA.AperFunction,SMDPad,CuDef*%
%ADD37RoundRect,0.125000X-0.537500X-0.125000X0.537500X-0.125000X0.537500X0.125000X-0.537500X0.125000X0*%
%TD*%
%TA.AperFunction,SMDPad,CuDef*%
%ADD38RoundRect,0.150000X0.512500X0.150000X-0.512500X0.150000X-0.512500X-0.150000X0.512500X-0.150000X0*%
%TD*%
%TA.AperFunction,SMDPad,CuDef*%
%ADD39RoundRect,0.137500X-0.600000X-0.137500X0.600000X-0.137500X0.600000X0.137500X-0.600000X0.137500X0*%
%TD*%
%TA.AperFunction,SMDPad,CuDef*%
%ADD40RoundRect,0.137500X-0.137500X-0.600000X0.137500X-0.600000X0.137500X0.600000X-0.137500X0.600000X0*%
%TD*%
%TA.AperFunction,SMDPad,CuDef*%
%ADD41RoundRect,0.250000X0.312500X0.625000X-0.312500X0.625000X-0.312500X-0.625000X0.312500X-0.625000X0*%
%TD*%
%TA.AperFunction,SMDPad,CuDef*%
%ADD42RoundRect,0.250000X-0.450000X0.350000X-0.450000X-0.350000X0.450000X-0.350000X0.450000X0.350000X0*%
%TD*%
%TA.AperFunction,ViaPad*%
%ADD43C,0.635000*%
%TD*%
%TA.AperFunction,ViaPad*%
%ADD44C,1.016000*%
%TD*%
%TA.AperFunction,Conductor*%
%ADD45C,0.177800*%
%TD*%
%TA.AperFunction,Conductor*%
%ADD46C,0.220980*%
%TD*%
%TA.AperFunction,Conductor*%
%ADD47C,0.381000*%
%TD*%
%TA.AperFunction,Conductor*%
%ADD48C,0.635000*%
%TD*%
%TA.AperFunction,Conductor*%
%ADD49C,1.270000*%
%TD*%
%TA.AperFunction,Conductor*%
%ADD50C,0.254000*%
%TD*%
G04 APERTURE END LIST*
D10*
%TO.P,L1,1,1*%
%TO.N,VCC*%
X152400000Y-89145000D03*
%TO.P,L1,2,2*%
%TO.N,Net-(U6-AVCC)*%
X152400000Y-91195000D03*
%TD*%
D11*
%TO.P,U4,1,NC*%
%TO.N,unconnected-(U4-NC-Pad1)*%
X162241000Y-65278000D03*
%TO.P,U4,2,-*%
%TO.N,Net-(U1-A_{IN})*%
X162241000Y-64008000D03*
%TO.P,U4,3,+*%
%TO.N,Net-(J2-Pin_6)*%
X162241000Y-62738000D03*
%TO.P,U4,4,V-*%
%TO.N,Earth*%
X162241000Y-61468000D03*
%TO.P,U4,5,NC*%
%TO.N,unconnected-(U4-NC-Pad5)*%
X157291000Y-61468000D03*
%TO.P,U4,6*%
%TO.N,Net-(U1-A_{IN})*%
X157291000Y-62738000D03*
%TO.P,U4,7,V+*%
%TO.N,+5VA*%
X157291000Y-64008000D03*
%TO.P,U4,8,NC*%
%TO.N,unconnected-(U4-NC-Pad8)*%
X157291000Y-65278000D03*
%TD*%
D12*
%TO.P,Q7,1,B*%
%TO.N,Net-(Q7-B)*%
X180020000Y-88335000D03*
%TO.P,Q7,2,E*%
%TO.N,Net-(Q1-E)*%
X178120000Y-88335000D03*
%TO.P,Q7,3,C*%
%TO.N,/LED_driver/LED_2*%
X179070000Y-90735000D03*
%TD*%
D13*
%TO.P,C25,1*%
%TO.N,VBUS*%
X131847500Y-129540000D03*
%TO.P,C25,2*%
%TO.N,GND*%
X129772500Y-129540000D03*
%TD*%
D14*
%TO.P,R12,1*%
%TO.N,/GP_LED2*%
X138954000Y-102743000D03*
%TO.P,R12,2*%
%TO.N,Net-(D2-A)*%
X140954000Y-102743000D03*
%TD*%
D15*
%TO.P,U8,1,NC*%
%TO.N,unconnected-(U8-NC-Pad1)*%
X170245000Y-111760000D03*
%TO.P,U8,2,-*%
%TO.N,/VREF*%
X170245000Y-113030000D03*
%TO.P,U8,3,+*%
%TO.N,Net-(U8-+)*%
X170245000Y-114300000D03*
%TO.P,U8,4,V-*%
%TO.N,Earth*%
X170245000Y-115570000D03*
%TO.P,U8,5,NC*%
%TO.N,unconnected-(U8-NC-Pad5)*%
X175195000Y-115570000D03*
%TO.P,U8,6*%
%TO.N,/VREF*%
X175195000Y-114300000D03*
%TO.P,U8,7,V+*%
%TO.N,+5VA*%
X175195000Y-113030000D03*
%TO.P,U8,8,NC*%
%TO.N,unconnected-(U8-NC-Pad8)*%
X175195000Y-111760000D03*
%TD*%
D16*
%TO.P,J3,1,Pin_1*%
%TO.N,GND*%
X124460000Y-100330000D03*
D17*
%TO.P,J3,2,Pin_2*%
%TO.N,unconnected-(J3-Pin_2-Pad2)*%
X124460000Y-97790000D03*
%TO.P,J3,3,Pin_3*%
%TO.N,Net-(J3-Pin_3)*%
X124460000Y-95250000D03*
%TO.P,J3,4,Pin_4*%
%TO.N,/RXD*%
X124460000Y-92710000D03*
%TO.P,J3,5,Pin_5*%
%TO.N,/TXD*%
X124460000Y-90170000D03*
%TO.P,J3,6,Pin_6*%
%TO.N,unconnected-(J3-Pin_6-Pad6)*%
X124460000Y-87630000D03*
%TD*%
D12*
%TO.P,Q2,1,B*%
%TO.N,Net-(Q2-B)*%
X157160000Y-88335000D03*
%TO.P,Q2,2,E*%
%TO.N,Net-(Q1-E)*%
X155260000Y-88335000D03*
%TO.P,Q2,3,C*%
%TO.N,/LED_driver/LED_8*%
X156210000Y-90735000D03*
%TD*%
D18*
%TO.P,H3,1*%
%TO.N,N/C*%
X121920000Y-132080000D03*
%TD*%
D19*
%TO.P,R14,1*%
%TO.N,VCC*%
X147320000Y-130270000D03*
%TO.P,R14,2*%
%TO.N,Net-(D3-A)*%
X147320000Y-128270000D03*
%TD*%
D20*
%TO.P,TP6,1,1*%
%TO.N,/PB1{slash}OC1A*%
X152273000Y-93091000D03*
%TD*%
D21*
%TO.P,C5,1*%
%TO.N,+5VA*%
X163387000Y-71479500D03*
%TO.P,C5,2*%
%TO.N,Earth*%
X163387000Y-73554500D03*
%TD*%
D22*
%TO.P,Y1,1,EN*%
%TO.N,unconnected-(Y1-EN-Pad1)*%
X132935000Y-102425000D03*
%TO.P,Y1,2,GND*%
%TO.N,GND*%
X135035000Y-102425000D03*
%TO.P,Y1,3,OUT*%
%TO.N,/CLK16*%
X135035000Y-100775000D03*
%TO.P,Y1,4,Vcc*%
%TO.N,VCC*%
X132935000Y-100775000D03*
%TD*%
D23*
%TO.P,C23,1*%
%TO.N,Net-(C23-Pad1)*%
X163015000Y-123698000D03*
%TO.P,C23,2*%
%TO.N,Net-(C23-Pad2)*%
X161290000Y-123698000D03*
%TD*%
D24*
%TO.P,U11,1,IN*%
%TO.N,VBUS*%
X162585000Y-130020000D03*
%TO.P,U11,2,GND*%
%TO.N,Earth*%
X162585000Y-132320000D03*
D25*
X168885000Y-132320000D03*
D24*
%TO.P,U11,3,OUT*%
%TO.N,+5VA*%
X162585000Y-134620000D03*
%TD*%
D21*
%TO.P,C26,1*%
%TO.N,/VREF*%
X155702000Y-125433000D03*
%TO.P,C26,2*%
%TO.N,Earth*%
X155702000Y-127508000D03*
%TD*%
D20*
%TO.P,TP1,1,1*%
%TO.N,/SCK*%
X126492000Y-77597000D03*
%TD*%
D26*
%TO.P,C18,1*%
%TO.N,Net-(U8-+)*%
X178265000Y-109220000D03*
%TO.P,C18,2*%
%TO.N,Earth*%
X180340000Y-109220000D03*
%TD*%
D27*
%TO.P,U7,1,IN1*%
%TO.N,Net-(J2-Pin_2)*%
X164207500Y-112190000D03*
%TO.P,U7,2,AGND*%
%TO.N,Earth*%
X162937500Y-112190000D03*
%TO.P,U7,3,CAP1B*%
%TO.N,Net-(C16-Pad2)*%
X161667500Y-112190000D03*
%TO.P,U7,4,CAP1B*%
%TO.N,Net-(C16-Pad1)*%
X160397500Y-112190000D03*
%TO.P,U7,5,CAP1A*%
%TO.N,Net-(C14-Pad2)*%
X159127500Y-112190000D03*
%TO.P,U7,6,CAP1A*%
%TO.N,Net-(C14-Pad1)*%
X157857500Y-112190000D03*
%TO.P,U7,7,AVDD*%
%TO.N,+5VA*%
X156587500Y-112190000D03*
%TO.P,U7,8,TEST*%
%TO.N,/PD5*%
X155317500Y-112190000D03*
%TO.P,U7,9,CONV*%
%TO.N,/PB1{slash}OC1A*%
X154047500Y-112190000D03*
%TO.P,U7,10,CLK*%
%TO.N,/PD6{slash}OC0A*%
X152777500Y-112190000D03*
%TO.P,U7,11,DCLK*%
%TO.N,/SCK*%
X151507500Y-112190000D03*
%TO.P,U7,12,~{DXMIT}*%
%TO.N,/PB0*%
X150237500Y-112190000D03*
%TO.P,U7,13,DIN*%
%TO.N,/MOSI*%
X148967500Y-112190000D03*
%TO.P,U7,14,DVDD*%
%TO.N,VCC*%
X147697500Y-112190000D03*
%TO.P,U7,15,DGND*%
%TO.N,GND*%
X147697500Y-121490000D03*
%TO.P,U7,16,DOUT*%
%TO.N,/MISO*%
X148967500Y-121490000D03*
%TO.P,U7,17,~{DVALID}*%
%TO.N,/PD7*%
X150237500Y-121490000D03*
%TO.P,U7,18,RANGE0*%
%TO.N,/PC0{slash}ADC0*%
X151507500Y-121490000D03*
%TO.P,U7,19,RANGE1*%
%TO.N,/PC1{slash}ADC1*%
X152777500Y-121490000D03*
%TO.P,U7,20,RANGE2*%
%TO.N,/PC2{slash}ADC2*%
X154047500Y-121490000D03*
%TO.P,U7,21,AGND*%
%TO.N,Earth*%
X155317500Y-121490000D03*
%TO.P,U7,22,VREF*%
%TO.N,/VREF*%
X156587500Y-121490000D03*
%TO.P,U7,23,CAP2A*%
%TO.N,Net-(C22-Pad2)*%
X157857500Y-121490000D03*
%TO.P,U7,24,CAP2A*%
%TO.N,Net-(C22-Pad1)*%
X159127500Y-121490000D03*
%TO.P,U7,25,CAP2B*%
%TO.N,Net-(C23-Pad2)*%
X160397500Y-121490000D03*
%TO.P,U7,26,CAP2B*%
%TO.N,Net-(C23-Pad1)*%
X161667500Y-121490000D03*
%TO.P,U7,27,AGND*%
%TO.N,Earth*%
X162937500Y-121490000D03*
%TO.P,U7,28,IN2*%
%TO.N,Net-(J2-Pin_16)*%
X164207500Y-121490000D03*
%TD*%
D19*
%TO.P,R15,1*%
%TO.N,+5VA*%
X172675000Y-130240000D03*
%TO.P,R15,2*%
%TO.N,Net-(D4-A)*%
X172675000Y-128240000D03*
%TD*%
D28*
%TO.P,J4,1,Pin_1*%
%TO.N,VBUS*%
X120617500Y-117820000D03*
D29*
%TO.P,J4,2,Pin_2*%
%TO.N,GND*%
X120617500Y-112820000D03*
%TD*%
D12*
%TO.P,Q1,1,B*%
%TO.N,Net-(Q1-B)*%
X160970000Y-88335000D03*
%TO.P,Q1,2,E*%
%TO.N,Net-(Q1-E)*%
X159070000Y-88335000D03*
%TO.P,Q1,3,C*%
%TO.N,/LED_driver/LED_7*%
X160020000Y-90735000D03*
%TD*%
D13*
%TO.P,C17,1*%
%TO.N,+5VA*%
X173990000Y-108585000D03*
%TO.P,C17,2*%
%TO.N,Earth*%
X171915000Y-108585000D03*
%TD*%
D30*
%TO.P,U9,1,IN*%
%TO.N,+5VA*%
X180240000Y-118425000D03*
%TO.P,U9,2,OUT*%
%TO.N,Net-(U9-OUT)*%
X180240000Y-116525000D03*
%TO.P,U9,3,GND*%
%TO.N,Earth*%
X178365000Y-117475000D03*
%TD*%
D12*
%TO.P,Q8,1,B*%
%TO.N,Net-(Q8-B)*%
X183830000Y-88335000D03*
%TO.P,Q8,2,E*%
%TO.N,Net-(Q1-E)*%
X181930000Y-88335000D03*
%TO.P,Q8,3,C*%
%TO.N,/LED_driver/LED_1*%
X182880000Y-90735000D03*
%TD*%
D24*
%TO.P,U10,1,IN*%
%TO.N,VBUS*%
X135940000Y-129780000D03*
%TO.P,U10,2,GND*%
%TO.N,GND*%
X135940000Y-132080000D03*
D25*
X142240000Y-132080000D03*
D24*
%TO.P,U10,3,OUT*%
%TO.N,VCC*%
X135940000Y-134380000D03*
%TD*%
D12*
%TO.P,Q5,1,B*%
%TO.N,Net-(Q5-B)*%
X172400000Y-88335000D03*
%TO.P,Q5,2,E*%
%TO.N,Net-(Q1-E)*%
X170500000Y-88335000D03*
%TO.P,Q5,3,C*%
%TO.N,/LED_driver/LED_4*%
X171450000Y-90735000D03*
%TD*%
D18*
%TO.P,H4,1*%
%TO.N,N/C*%
X180340000Y-132080000D03*
%TD*%
D31*
%TO.P,C14,1*%
%TO.N,Net-(C14-Pad1)*%
X158395500Y-109855000D03*
%TO.P,C14,2*%
%TO.N,Net-(C14-Pad2)*%
X160120500Y-109855000D03*
%TD*%
D11*
%TO.P,U5,1,0*%
%TO.N,Net-(Q4-B)*%
X161290000Y-85090000D03*
%TO.P,U5,2,1*%
%TO.N,Net-(Q3-B)*%
X161290000Y-83820000D03*
%TO.P,U5,3,2*%
%TO.N,Net-(Q5-B)*%
X161290000Y-82550000D03*
%TO.P,U5,4,3*%
%TO.N,Net-(Q6-B)*%
X161290000Y-81280000D03*
%TO.P,U5,5,4*%
%TO.N,Net-(Q7-B)*%
X161290000Y-80010000D03*
%TO.P,U5,6,5*%
%TO.N,Net-(Q8-B)*%
X161290000Y-78740000D03*
%TO.P,U5,7,6*%
%TO.N,Net-(Q1-B)*%
X161290000Y-77470000D03*
%TO.P,U5,8,7*%
%TO.N,Net-(Q2-B)*%
X161290000Y-76200000D03*
%TO.P,U5,9,I/O*%
%TO.N,Net-(U5-I{slash}O)*%
X156340000Y-76200000D03*
%TO.P,U5,10,VEE*%
%TO.N,Earth*%
X156340000Y-77470000D03*
%TO.P,U5,11,GND*%
%TO.N,GND*%
X156340000Y-78740000D03*
%TO.P,U5,12,A1*%
X156340000Y-80010000D03*
%TO.P,U5,13,A0*%
X156340000Y-81280000D03*
%TO.P,U5,14,SDA*%
%TO.N,/SDA*%
X156340000Y-82550000D03*
%TO.P,U5,15,SCL*%
%TO.N,/SCL*%
X156340000Y-83820000D03*
%TO.P,U5,16,VCC*%
%TO.N,+5VA*%
X156340000Y-85090000D03*
%TD*%
D26*
%TO.P,C12,1*%
%TO.N,VCC*%
X133180000Y-97790000D03*
%TO.P,C12,2*%
%TO.N,GND*%
X135255000Y-97790000D03*
%TD*%
D13*
%TO.P,C30,1*%
%TO.N,+5VA*%
X159152500Y-134620000D03*
%TO.P,C30,2*%
%TO.N,Earth*%
X157077500Y-134620000D03*
%TD*%
D32*
%TO.P,R13,1*%
%TO.N,Net-(U9-OUT)*%
X180302500Y-114300000D03*
%TO.P,R13,2*%
%TO.N,Net-(U8-+)*%
X178302500Y-114300000D03*
%TD*%
D21*
%TO.P,C4,1*%
%TO.N,Net-(U3-+)*%
X158561000Y-71479500D03*
%TO.P,C4,2*%
%TO.N,Earth*%
X158561000Y-73554500D03*
%TD*%
D13*
%TO.P,C24,1*%
%TO.N,+5VA*%
X180340000Y-121285000D03*
%TO.P,C24,2*%
%TO.N,Earth*%
X178265000Y-121285000D03*
%TD*%
D31*
%TO.P,C16,1*%
%TO.N,Net-(C16-Pad1)*%
X162078500Y-109855000D03*
%TO.P,C16,2*%
%TO.N,Net-(C16-Pad2)*%
X163803500Y-109855000D03*
%TD*%
D33*
%TO.P,D1,1,K*%
%TO.N,GND*%
X144000000Y-97790000D03*
%TO.P,D1,2,A*%
%TO.N,Net-(D1-A)*%
X146050000Y-97790000D03*
%TD*%
D20*
%TO.P,TP2,1,1*%
%TO.N,/PD5*%
X137668000Y-92583000D03*
%TD*%
D34*
%TO.P,C15,1*%
%TO.N,+5VA*%
X158369000Y-107336500D03*
%TO.P,C15,2*%
%TO.N,Earth*%
X158369000Y-105261500D03*
%TD*%
D19*
%TO.P,R5,1*%
%TO.N,/SCL*%
X140208000Y-78994000D03*
%TO.P,R5,2*%
%TO.N,VCC*%
X140208000Y-76994000D03*
%TD*%
D33*
%TO.P,D2,1,K*%
%TO.N,GND*%
X143501000Y-102743000D03*
%TO.P,D2,2,A*%
%TO.N,Net-(D2-A)*%
X145551000Y-102743000D03*
%TD*%
D35*
%TO.P,D3,1,K*%
%TO.N,GND*%
X147320000Y-135040000D03*
%TO.P,D3,2,A*%
%TO.N,Net-(D3-A)*%
X147320000Y-132990000D03*
%TD*%
D32*
%TO.P,R8,1*%
%TO.N,Net-(Q1-E)*%
X176702500Y-84455000D03*
%TO.P,R8,2*%
%TO.N,Net-(U3--)*%
X174702500Y-84455000D03*
%TD*%
D13*
%TO.P,C20,1*%
%TO.N,VCC*%
X144801500Y-116205000D03*
%TO.P,C20,2*%
%TO.N,GND*%
X142726500Y-116205000D03*
%TD*%
D36*
%TO.P,J1,1,MISO*%
%TO.N,/MISO*%
X122560000Y-78740000D03*
D17*
%TO.P,J1,2,VCC*%
%TO.N,VCC*%
X120020000Y-78740000D03*
%TO.P,J1,3,SCK*%
%TO.N,/SCK*%
X122560000Y-76200000D03*
%TO.P,J1,4,MOSI*%
%TO.N,/MOSI*%
X120020000Y-76200000D03*
%TO.P,J1,5,~{RST}*%
%TO.N,/~{RESET}*%
X122560000Y-73660000D03*
%TO.P,J1,6,GND*%
%TO.N,GND*%
X120020000Y-73660000D03*
%TD*%
D21*
%TO.P,C28,1*%
%TO.N,/VREF*%
X158242000Y-125433000D03*
%TO.P,C28,2*%
%TO.N,Earth*%
X158242000Y-127508000D03*
%TD*%
D34*
%TO.P,C8,1*%
%TO.N,Net-(U6-AREF)*%
X149860000Y-86762500D03*
%TO.P,C8,2*%
%TO.N,GND*%
X149860000Y-84687500D03*
%TD*%
D19*
%TO.P,R6,1*%
%TO.N,/SDA*%
X143383000Y-78994000D03*
%TO.P,R6,2*%
%TO.N,VCC*%
X143383000Y-76994000D03*
%TD*%
D15*
%TO.P,U3,1,NC*%
%TO.N,unconnected-(U3-NC-Pad1)*%
X166881000Y-70485000D03*
%TO.P,U3,2,-*%
%TO.N,Net-(U3--)*%
X166881000Y-71755000D03*
%TO.P,U3,3,+*%
%TO.N,Net-(U3-+)*%
X166881000Y-73025000D03*
%TO.P,U3,4,V-*%
%TO.N,Earth*%
X166881000Y-74295000D03*
%TO.P,U3,5,NC*%
%TO.N,unconnected-(U3-NC-Pad5)*%
X171831000Y-74295000D03*
%TO.P,U3,6*%
%TO.N,Net-(C6-Pad2)*%
X171831000Y-73025000D03*
%TO.P,U3,7,V+*%
%TO.N,+5VA*%
X171831000Y-71755000D03*
%TO.P,U3,8,NC*%
%TO.N,unconnected-(U3-NC-Pad8)*%
X171831000Y-70485000D03*
%TD*%
D12*
%TO.P,Q3,1,B*%
%TO.N,Net-(Q3-B)*%
X168590000Y-88335000D03*
%TO.P,Q3,2,E*%
%TO.N,Net-(Q1-E)*%
X166690000Y-88335000D03*
%TO.P,Q3,3,C*%
%TO.N,/LED_driver/LED_5*%
X167640000Y-90735000D03*
%TD*%
D16*
%TO.P,J2,1,Pin_1*%
%TO.N,/LED_driver/LED_1*%
X176280000Y-96000000D03*
D17*
%TO.P,J2,2,Pin_2*%
%TO.N,Net-(J2-Pin_2)*%
X176280000Y-98540000D03*
%TO.P,J2,3,Pin_3*%
%TO.N,/LED_driver/LED_2*%
X173740000Y-96000000D03*
%TO.P,J2,4,Pin_4*%
%TO.N,Earth*%
X173740000Y-98540000D03*
%TO.P,J2,5,Pin_5*%
%TO.N,/LED_driver/LED_3*%
X171200000Y-96000000D03*
%TO.P,J2,6,Pin_6*%
%TO.N,Net-(J2-Pin_6)*%
X171200000Y-98540000D03*
%TO.P,J2,7,Pin_7*%
%TO.N,/LED_driver/LED_4*%
X168660000Y-96000000D03*
%TO.P,J2,8,Pin_8*%
%TO.N,+5VA*%
X168660000Y-98540000D03*
%TO.P,J2,9,Pin_9*%
%TO.N,/LED_driver/LED_5*%
X166120000Y-96000000D03*
%TO.P,J2,10,Pin_10*%
%TO.N,+5VA*%
X166120000Y-98540000D03*
%TO.P,J2,11,Pin_11*%
%TO.N,/LED_driver/LED_6*%
X163580000Y-96000000D03*
%TO.P,J2,12,Pin_12*%
%TO.N,unconnected-(J2-Pin_12-Pad12)*%
X163580000Y-98540000D03*
%TO.P,J2,13,Pin_13*%
%TO.N,/LED_driver/LED_7*%
X161040000Y-96000000D03*
%TO.P,J2,14,Pin_14*%
%TO.N,Earth*%
X161040000Y-98540000D03*
%TO.P,J2,15,Pin_15*%
%TO.N,/LED_driver/LED_8*%
X158500000Y-96000000D03*
%TO.P,J2,16,Pin_16*%
%TO.N,Net-(J2-Pin_16)*%
X158500000Y-98540000D03*
%TD*%
D14*
%TO.P,R4,1*%
%TO.N,/~{RESET}*%
X131080000Y-77470000D03*
%TO.P,R4,2*%
%TO.N,VCC*%
X133080000Y-77470000D03*
%TD*%
D26*
%TO.P,C21,1*%
%TO.N,Net-(U8-+)*%
X178265000Y-111760000D03*
%TO.P,C21,2*%
%TO.N,Earth*%
X180340000Y-111760000D03*
%TD*%
D37*
%TO.P,U2,1,CA0*%
%TO.N,GND*%
X150184500Y-72177000D03*
%TO.P,U2,2,SCL*%
%TO.N,/SCL*%
X150184500Y-72827000D03*
%TO.P,U2,3,SDA*%
%TO.N,/SDA*%
X150184500Y-73477000D03*
%TO.P,U2,4,GND*%
%TO.N,GND*%
X150184500Y-74127000D03*
%TO.P,U2,5,VCC*%
%TO.N,VCC*%
X152459500Y-74127000D03*
%TO.P,U2,6,REF*%
%TO.N,Net-(U2-REF)*%
X152459500Y-73477000D03*
%TO.P,U2,7,Vout*%
%TO.N,Net-(U2-Vout)*%
X152459500Y-72827000D03*
%TO.P,U2,8,CA1*%
%TO.N,VCC*%
X152459500Y-72177000D03*
%TD*%
D20*
%TO.P,TP7,1,1*%
%TO.N,/MISO*%
X143891000Y-106807000D03*
%TD*%
D26*
%TO.P,C6,1*%
%TO.N,Net-(U3--)*%
X168572500Y-76708000D03*
%TO.P,C6,2*%
%TO.N,Net-(C6-Pad2)*%
X170647500Y-76708000D03*
%TD*%
D34*
%TO.P,C11,1*%
%TO.N,Net-(U6-AVCC)*%
X149860000Y-91200000D03*
%TO.P,C11,2*%
%TO.N,GND*%
X149860000Y-89125000D03*
%TD*%
D13*
%TO.P,C29,1*%
%TO.N,VCC*%
X131847500Y-134620000D03*
%TO.P,C29,2*%
%TO.N,GND*%
X129772500Y-134620000D03*
%TD*%
D32*
%TO.P,R10,1*%
%TO.N,VCC*%
X131032000Y-94234000D03*
%TO.P,R10,2*%
%TO.N,Net-(J3-Pin_3)*%
X129032000Y-94234000D03*
%TD*%
D13*
%TO.P,C3,1*%
%TO.N,VCC*%
X152359500Y-76962000D03*
%TO.P,C3,2*%
%TO.N,GND*%
X150284500Y-76962000D03*
%TD*%
D14*
%TO.P,R3,1*%
%TO.N,Net-(U5-I{slash}O)*%
X164292000Y-76708000D03*
%TO.P,R3,2*%
%TO.N,Net-(C6-Pad2)*%
X166292000Y-76708000D03*
%TD*%
D33*
%TO.P,L2,1,1*%
%TO.N,GND*%
X153593000Y-101727000D03*
%TO.P,L2,2,2*%
%TO.N,Earth*%
X155643000Y-101727000D03*
%TD*%
D14*
%TO.P,R11,1*%
%TO.N,/GP_LED*%
X139580000Y-97820000D03*
%TO.P,R11,2*%
%TO.N,Net-(D1-A)*%
X141580000Y-97820000D03*
%TD*%
D32*
%TO.P,R7,1*%
%TO.N,+5VA*%
X170164000Y-65405000D03*
%TO.P,R7,2*%
%TO.N,Net-(J2-Pin_6)*%
X168164000Y-65405000D03*
%TD*%
D20*
%TO.P,TP5,1,1*%
%TO.N,/PD7*%
X152273000Y-97790000D03*
%TD*%
D34*
%TO.P,C13,1*%
%TO.N,+5VA*%
X156083000Y-107336500D03*
%TO.P,C13,2*%
%TO.N,Earth*%
X156083000Y-105261500D03*
%TD*%
D18*
%TO.P,H2,1*%
%TO.N,N/C*%
X180340000Y-62230000D03*
%TD*%
D13*
%TO.P,C19,1*%
%TO.N,VCC*%
X144801500Y-113665000D03*
%TO.P,C19,2*%
%TO.N,GND*%
X142726500Y-113665000D03*
%TD*%
D38*
%TO.P,U1,5,SCL*%
%TO.N,/SCL*%
X149998000Y-66675000D03*
%TO.P,U1,4,SDA*%
%TO.N,/SDA*%
X149998000Y-64775000D03*
%TO.P,U1,3,A_{IN}*%
%TO.N,Net-(U1-A_{IN})*%
X152273000Y-64775000D03*
%TO.P,U1,2,V_{SS}*%
%TO.N,GND*%
X152273000Y-65725000D03*
%TO.P,U1,1,V_{DD}*%
%TO.N,VCC*%
X152273000Y-66675000D03*
%TD*%
D39*
%TO.P,U6,1,PD3*%
%TO.N,/GP_LED2*%
X138077500Y-84830000D03*
%TO.P,U6,2,PD4*%
%TO.N,unconnected-(U6-PD4-Pad2)*%
X138077500Y-85630000D03*
%TO.P,U6,3,GND*%
%TO.N,GND*%
X138077500Y-86430000D03*
%TO.P,U6,4,VCC*%
%TO.N,VCC*%
X138077500Y-87230000D03*
%TO.P,U6,5,GND*%
%TO.N,GND*%
X138077500Y-88030000D03*
%TO.P,U6,6,VCC*%
%TO.N,VCC*%
X138077500Y-88830000D03*
%TO.P,U6,7,XTAL1/PB6*%
%TO.N,/CLK16*%
X138077500Y-89630000D03*
%TO.P,U6,8,XTAL2/PB7*%
%TO.N,unconnected-(U6-XTAL2{slash}PB7-Pad8)*%
X138077500Y-90430000D03*
D40*
%TO.P,U6,9,PD5*%
%TO.N,/PD5*%
X139440000Y-91792500D03*
%TO.P,U6,10,PD6*%
%TO.N,/PD6{slash}OC0A*%
X140240000Y-91792500D03*
%TO.P,U6,11,PD7*%
%TO.N,/PD7*%
X141040000Y-91792500D03*
%TO.P,U6,12,PB0*%
%TO.N,/PB0*%
X141840000Y-91792500D03*
%TO.P,U6,13,PB1*%
%TO.N,/PB1{slash}OC1A*%
X142640000Y-91792500D03*
%TO.P,U6,14,PB2*%
%TO.N,/SS{slash}DONT_USE*%
X143440000Y-91792500D03*
%TO.P,U6,15,PB3*%
%TO.N,/MOSI*%
X144240000Y-91792500D03*
%TO.P,U6,16,PB4*%
%TO.N,/MISO*%
X145040000Y-91792500D03*
D39*
%TO.P,U6,17,PB5*%
%TO.N,/SCK*%
X146402500Y-90430000D03*
%TO.P,U6,18,AVCC*%
%TO.N,Net-(U6-AVCC)*%
X146402500Y-89630000D03*
%TO.P,U6,19,ADC6*%
%TO.N,unconnected-(U6-ADC6-Pad19)*%
X146402500Y-88830000D03*
%TO.P,U6,20,AREF*%
%TO.N,Net-(U6-AREF)*%
X146402500Y-88030000D03*
%TO.P,U6,21,GND*%
%TO.N,GND*%
X146402500Y-87230000D03*
%TO.P,U6,22,ADC7*%
%TO.N,unconnected-(U6-ADC7-Pad22)*%
X146402500Y-86430000D03*
%TO.P,U6,23,PC0*%
%TO.N,/PC0{slash}ADC0*%
X146402500Y-85630000D03*
%TO.P,U6,24,PC1*%
%TO.N,/PC1{slash}ADC1*%
X146402500Y-84830000D03*
D40*
%TO.P,U6,25,PC2*%
%TO.N,/PC2{slash}ADC2*%
X145040000Y-83467500D03*
%TO.P,U6,26,PC3*%
%TO.N,unconnected-(U6-PC3-Pad26)*%
X144240000Y-83467500D03*
%TO.P,U6,27,PC4*%
%TO.N,/SDA*%
X143440000Y-83467500D03*
%TO.P,U6,28,PC5*%
%TO.N,/SCL*%
X142640000Y-83467500D03*
%TO.P,U6,29,~{RESET}/PC6*%
%TO.N,/~{RESET}*%
X141840000Y-83467500D03*
%TO.P,U6,30,PD0*%
%TO.N,/RXD*%
X141040000Y-83467500D03*
%TO.P,U6,31,PD1*%
%TO.N,/TXD*%
X140240000Y-83467500D03*
%TO.P,U6,32,PD2*%
%TO.N,/GP_LED*%
X139440000Y-83467500D03*
%TD*%
D21*
%TO.P,C10,1*%
%TO.N,VCC*%
X133985000Y-86995000D03*
%TO.P,C10,2*%
%TO.N,GND*%
X133985000Y-89070000D03*
%TD*%
D18*
%TO.P,H1,1*%
%TO.N,N/C*%
X121920000Y-62230000D03*
%TD*%
D13*
%TO.P,C1,1*%
%TO.N,Net-(U2-REF)*%
X152400000Y-69977000D03*
%TO.P,C1,2*%
%TO.N,GND*%
X150325000Y-69977000D03*
%TD*%
D12*
%TO.P,Q6,1,B*%
%TO.N,Net-(Q6-B)*%
X176210000Y-88335000D03*
%TO.P,Q6,2,E*%
%TO.N,Net-(Q1-E)*%
X174310000Y-88335000D03*
%TO.P,Q6,3,C*%
%TO.N,/LED_driver/LED_3*%
X175260000Y-90735000D03*
%TD*%
D26*
%TO.P,C2,2*%
%TO.N,GND*%
X152300000Y-62550000D03*
%TO.P,C2,1*%
%TO.N,VCC*%
X150225000Y-62550000D03*
%TD*%
D23*
%TO.P,C22,1*%
%TO.N,Net-(C22-Pad1)*%
X159332000Y-123698000D03*
%TO.P,C22,2*%
%TO.N,Net-(C22-Pad2)*%
X157607000Y-123698000D03*
%TD*%
D41*
%TO.P,R9,1*%
%TO.N,Earth*%
X182880000Y-84455000D03*
%TO.P,R9,2*%
%TO.N,Net-(Q1-E)*%
X179955000Y-84455000D03*
%TD*%
D26*
%TO.P,C9,1*%
%TO.N,+5VA*%
X159236500Y-59055000D03*
%TO.P,C9,2*%
%TO.N,Earth*%
X161311500Y-59055000D03*
%TD*%
D13*
%TO.P,C27,1*%
%TO.N,VBUS*%
X159152500Y-130175000D03*
%TO.P,C27,2*%
%TO.N,Earth*%
X157077500Y-130175000D03*
%TD*%
D12*
%TO.P,Q4,1,B*%
%TO.N,Net-(Q4-B)*%
X164780000Y-88335000D03*
%TO.P,Q4,2,E*%
%TO.N,Net-(Q1-E)*%
X162880000Y-88335000D03*
%TO.P,Q4,3,C*%
%TO.N,/LED_driver/LED_6*%
X163830000Y-90735000D03*
%TD*%
D20*
%TO.P,TP3,1,1*%
%TO.N,/PD6{slash}OC0A*%
X139827000Y-95504000D03*
%TD*%
%TO.P,TP4,1,1*%
%TO.N,/PB0*%
X152273000Y-95377000D03*
%TD*%
D34*
%TO.P,C7,1*%
%TO.N,+5VA*%
X164022000Y-84857500D03*
%TO.P,C7,2*%
%TO.N,Earth*%
X164022000Y-82782500D03*
%TD*%
D35*
%TO.P,D4,1,K*%
%TO.N,Earth*%
X172720000Y-135010000D03*
%TO.P,D4,2,A*%
%TO.N,Net-(D4-A)*%
X172720000Y-132960000D03*
%TD*%
D42*
%TO.P,R1,1*%
%TO.N,Net-(U3-+)*%
X156148000Y-71517000D03*
%TO.P,R1,2*%
%TO.N,Net-(U2-Vout)*%
X156148000Y-73517000D03*
%TD*%
%TO.P,R2,1*%
%TO.N,Net-(U3-+)*%
X160847000Y-71517000D03*
%TO.P,R2,2*%
%TO.N,Earth*%
X160847000Y-73517000D03*
%TD*%
D43*
%TO.N,/SCL*%
X146558000Y-81153000D03*
%TO.N,/SDA*%
X147828000Y-81026000D03*
X147828000Y-64770000D03*
X147828000Y-74168000D03*
%TO.N,/SCL*%
X146939000Y-66548000D03*
X146812000Y-74168000D03*
%TO.N,+5VA*%
X171196000Y-65405000D03*
%TO.N,Earth*%
X163322000Y-60706000D03*
%TO.N,+5VA*%
X155702000Y-64008000D03*
%TO.N,GND*%
X153543000Y-65405000D03*
%TO.N,VCC*%
X153543000Y-66675000D03*
X149098000Y-62611000D03*
%TO.N,GND*%
X153228000Y-62550000D03*
%TO.N,+5VA*%
X157988000Y-59182000D03*
%TO.N,Earth*%
X162433000Y-59182000D03*
%TO.N,Net-(J2-Pin_6)*%
X167132000Y-65405000D03*
%TO.N,Net-(U3--)*%
X169418000Y-76708000D03*
X173609000Y-84455000D03*
%TO.N,Net-(Q6-B)*%
X176276000Y-87503000D03*
X176530000Y-81915000D03*
%TO.N,Net-(Q7-B)*%
X178562000Y-81788000D03*
X179959000Y-87503000D03*
D44*
%TO.N,Earth*%
X160796000Y-132320000D03*
X180340000Y-110490000D03*
X156083000Y-104013000D03*
X168656000Y-115570000D03*
X170688000Y-108585000D03*
X156972000Y-127508000D03*
X178435000Y-123063000D03*
X155575000Y-119126000D03*
X157031000Y-101727000D03*
X182880000Y-82931000D03*
X162687000Y-119507000D03*
X162244000Y-74422000D03*
X174362000Y-135010000D03*
X158369000Y-104013000D03*
X176784000Y-117348000D03*
D43*
X165165000Y-82804000D03*
D44*
X170815000Y-132334000D03*
X155829000Y-130175000D03*
X155829000Y-134620000D03*
X168594000Y-74295000D03*
X157861000Y-77470000D03*
D43*
X162937500Y-114169500D03*
D44*
%TO.N,+5VA*%
X157926000Y-85090000D03*
X164465000Y-134620000D03*
X173293000Y-71755000D03*
X181422000Y-118425000D03*
X163387000Y-70104000D03*
X173355000Y-113030000D03*
X175260000Y-108585000D03*
D43*
X165143500Y-84857500D03*
D44*
X174117000Y-130302000D03*
X180340000Y-122936000D03*
X156587500Y-110236000D03*
%TO.N,GND*%
X144145000Y-99314000D03*
X153670000Y-78740000D03*
D43*
X148909000Y-71755000D03*
X142621000Y-101727000D03*
D44*
X144780000Y-86487000D03*
X141224000Y-116205000D03*
X132504000Y-89070000D03*
D43*
X146138000Y-135040000D03*
D44*
X148949500Y-69977000D03*
X151130000Y-90043000D03*
D43*
X148909000Y-74549000D03*
D44*
X134366000Y-132080000D03*
X139573000Y-88011000D03*
X147697500Y-123313500D03*
X152332000Y-101727000D03*
X150981500Y-84687500D03*
X128524000Y-129667000D03*
X143764000Y-132080000D03*
X141351000Y-113665000D03*
X128651000Y-134620000D03*
X149163000Y-76962000D03*
X136398000Y-97790000D03*
X136398000Y-102489000D03*
X139630000Y-86430000D03*
%TO.N,VCC*%
X134620000Y-77470000D03*
D43*
X153608000Y-71882000D03*
D44*
X153735000Y-76962000D03*
X133223000Y-134620000D03*
X132572000Y-94234000D03*
X132588000Y-87122000D03*
D43*
X153481000Y-74422000D03*
D44*
X141859000Y-76978000D03*
X146431000Y-112141000D03*
X131572000Y-97790000D03*
D43*
X145923000Y-130175000D03*
D44*
X136652000Y-87122000D03*
X137795000Y-134620000D03*
X131445000Y-100711000D03*
X151130000Y-88138000D03*
D43*
%TO.N,Net-(J2-Pin_16)*%
X164338000Y-119507000D03*
%TO.N,/MOSI*%
X147348600Y-96266000D03*
X127381000Y-96774000D03*
X144272000Y-95849800D03*
%TO.N,/MISO*%
X143637000Y-90297000D03*
X127889000Y-90424000D03*
D44*
%TO.N,/~{RESET}*%
X131064000Y-75565000D03*
X137795000Y-75565000D03*
D43*
%TO.N,/SCK*%
X128524000Y-92456000D03*
X146318401Y-92851401D03*
X148508820Y-92851401D03*
%TO.N,/RXD*%
X138303000Y-81407000D03*
%TO.N,/TXD*%
X139065000Y-82042000D03*
%TO.N,/GP_LED*%
X138430000Y-95377000D03*
X135255000Y-95377000D03*
%TO.N,/PB0*%
X141859000Y-95377000D03*
X152273000Y-95377000D03*
X148578006Y-96531994D03*
%TO.N,/PD5*%
X139446000Y-94107000D03*
X151257000Y-94107000D03*
%TO.N,/PD6{slash}OC0A*%
X140335000Y-94742000D03*
X149860000Y-94742000D03*
%TO.N,/PB1{slash}OC1A*%
X150622000Y-93472000D03*
X142621000Y-93472000D03*
%TO.N,/PD7*%
X152273000Y-97790000D03*
X141097000Y-96012000D03*
X147861000Y-95471000D03*
%TO.N,/GP_LED2*%
X138176000Y-101727000D03*
X135763000Y-99314000D03*
%TO.N,Net-(U6-AREF)*%
X144780000Y-88265000D03*
X150876000Y-86741000D03*
%TO.N,Net-(U6-AVCC)*%
X144780000Y-89789000D03*
X149606000Y-90297000D03*
%TD*%
D45*
%TO.N,/SCL*%
X148463000Y-83058000D02*
X146558000Y-81153000D01*
X156340000Y-83820000D02*
X156111968Y-83820000D01*
X156111968Y-83820000D02*
X155349968Y-83058000D01*
X155349968Y-83058000D02*
X148463000Y-83058000D01*
%TO.N,/SDA*%
X147828000Y-81026000D02*
X149352000Y-82550000D01*
X149352000Y-82550000D02*
X156340000Y-82550000D01*
X147828000Y-64770000D02*
X147833000Y-64775000D01*
X147833000Y-64775000D02*
X149998000Y-64775000D01*
%TO.N,/SCL*%
X146939000Y-66548000D02*
X147066000Y-66548000D01*
X147066000Y-66548000D02*
X147193000Y-66675000D01*
X147193000Y-66675000D02*
X149998000Y-66675000D01*
X140208000Y-78994000D02*
X141224000Y-77978000D01*
X141224000Y-77978000D02*
X144780000Y-77978000D01*
X146685000Y-74295000D02*
X148153000Y-72827000D01*
X144780000Y-77978000D02*
X146685000Y-76073000D01*
X146685000Y-76073000D02*
X146685000Y-74295000D01*
X148153000Y-72827000D02*
X150184500Y-72827000D01*
%TO.N,Net-(U2-REF)*%
X151709000Y-73477000D02*
X151257000Y-73025000D01*
X152459500Y-73477000D02*
X151709000Y-73477000D01*
X151257000Y-73025000D02*
X151257000Y-71120000D01*
X151257000Y-71120000D02*
X152400000Y-69977000D01*
%TO.N,/SDA*%
X143383000Y-78994000D02*
X146050000Y-78994000D01*
X146050000Y-78994000D02*
X147828000Y-77216000D01*
X147828000Y-77216000D02*
X147828000Y-74168000D01*
X147828000Y-74168000D02*
X148519000Y-73477000D01*
X148519000Y-73477000D02*
X150184500Y-73477000D01*
%TO.N,/SCL*%
X140208000Y-78994000D02*
X142640000Y-81426000D01*
X142640000Y-81426000D02*
X142640000Y-83467500D01*
%TO.N,+5VA*%
X170164000Y-65405000D02*
X171196000Y-65405000D01*
%TO.N,Earth*%
X163003000Y-60706000D02*
X163322000Y-60706000D01*
X162241000Y-61468000D02*
X163003000Y-60706000D01*
%TO.N,+5VA*%
X157291000Y-64008000D02*
X155702000Y-64008000D01*
%TO.N,GND*%
X153223000Y-65725000D02*
X153543000Y-65405000D01*
X152273000Y-65725000D02*
X153223000Y-65725000D01*
%TO.N,VCC*%
X152273000Y-66675000D02*
X153543000Y-66675000D01*
X149159000Y-62550000D02*
X149098000Y-62611000D01*
X150225000Y-62550000D02*
X149159000Y-62550000D01*
%TO.N,GND*%
X152300000Y-62550000D02*
X153228000Y-62550000D01*
X153289000Y-62611000D02*
X153228000Y-62550000D01*
%TO.N,Net-(U1-A_{IN})*%
X152273000Y-64775000D02*
X154310000Y-62738000D01*
X154310000Y-62738000D02*
X157291000Y-62738000D01*
X157291000Y-62738000D02*
X158265999Y-62738000D01*
X158265999Y-62738000D02*
X159535999Y-64008000D01*
X159535999Y-64008000D02*
X162241000Y-64008000D01*
%TO.N,+5VA*%
X158115000Y-59055000D02*
X157988000Y-59182000D01*
X159236500Y-59055000D02*
X158115000Y-59055000D01*
%TO.N,Earth*%
X162306000Y-59055000D02*
X162433000Y-59182000D01*
X161311500Y-59055000D02*
X162306000Y-59055000D01*
%TO.N,Net-(J2-Pin_6)*%
X162241000Y-62738000D02*
X164465000Y-62738000D01*
X164465000Y-62738000D02*
X167132000Y-65405000D01*
X167132000Y-65405000D02*
X168164000Y-65405000D01*
%TO.N,Net-(U3--)*%
X169418000Y-76708000D02*
X168572500Y-76708000D01*
X174702500Y-84455000D02*
X173609000Y-84455000D01*
%TO.N,Net-(Q6-B)*%
X176276000Y-87503000D02*
X176276000Y-88269000D01*
X176276000Y-88269000D02*
X176210000Y-88335000D01*
X175895000Y-81280000D02*
X176530000Y-81915000D01*
X161290000Y-81280000D02*
X175895000Y-81280000D01*
%TO.N,Net-(Q7-B)*%
X179959000Y-87503000D02*
X179959000Y-88274000D01*
X179959000Y-88274000D02*
X180020000Y-88335000D01*
X161290000Y-80010000D02*
X176784000Y-80010000D01*
X176784000Y-80010000D02*
X178562000Y-81788000D01*
%TO.N,Net-(Q8-B)*%
X183830000Y-88335000D02*
X183830000Y-86680000D01*
X183830000Y-86680000D02*
X184658000Y-85852000D01*
X184658000Y-85852000D02*
X184658000Y-81280000D01*
X184658000Y-81280000D02*
X182118000Y-78740000D01*
X182118000Y-78740000D02*
X161290000Y-78740000D01*
%TO.N,Net-(C6-Pad2)*%
X166292000Y-76708000D02*
X166292000Y-77327000D01*
X170647500Y-77448500D02*
X170647500Y-76708000D01*
X166292000Y-77327000D02*
X167070000Y-78105000D01*
X167070000Y-78105000D02*
X169991000Y-78105000D01*
X169991000Y-78105000D02*
X170647500Y-77448500D01*
%TO.N,Net-(Q5-B)*%
X162560000Y-82550000D02*
X163449000Y-81661000D01*
X165726000Y-81661000D02*
X172400000Y-88335000D01*
X161290000Y-82550000D02*
X162560000Y-82550000D01*
X163449000Y-81661000D02*
X165726000Y-81661000D01*
%TO.N,Net-(Q3-B)*%
X161290000Y-83820000D02*
X164861756Y-83820000D01*
X164861756Y-83820000D02*
X168590000Y-87548244D01*
X168590000Y-87548244D02*
X168590000Y-88335000D01*
%TO.N,Net-(Q4-B)*%
X161290000Y-85090000D02*
X162433000Y-85090000D01*
X162433000Y-85090000D02*
X164780000Y-87437000D01*
X164780000Y-87437000D02*
X164780000Y-88335000D01*
%TO.N,Net-(Q1-B)*%
X161290000Y-77470000D02*
X161061968Y-77470000D01*
X161061968Y-77470000D02*
X159131000Y-79400968D01*
X159131000Y-79400968D02*
X159131000Y-85725000D01*
X159131000Y-85725000D02*
X160970000Y-87564000D01*
X160970000Y-87564000D02*
X160970000Y-88335000D01*
%TO.N,Net-(Q2-B)*%
X161290000Y-76200000D02*
X159512000Y-76200000D01*
X159512000Y-76200000D02*
X158750000Y-76962000D01*
X158750000Y-85471000D02*
X157160000Y-87061000D01*
X158750000Y-76962000D02*
X158750000Y-85471000D01*
X157160000Y-87061000D02*
X157160000Y-88335000D01*
D46*
%TO.N,Net-(U3--)*%
X168572500Y-76708000D02*
X168572500Y-75967500D01*
X168572500Y-75967500D02*
X169483000Y-75057000D01*
X169483000Y-75057000D02*
X169483000Y-72517000D01*
X169483000Y-72517000D02*
X168721000Y-71755000D01*
X168721000Y-71755000D02*
X166881000Y-71755000D01*
D47*
%TO.N,Earth*%
X168885000Y-132320000D02*
X170801000Y-132320000D01*
X158561000Y-73554500D02*
X160809500Y-73554500D01*
X182880000Y-84455000D02*
X182880000Y-82931000D01*
X160884500Y-73554500D02*
X160847000Y-73517000D01*
X162244000Y-73554500D02*
X162244000Y-74422000D01*
D46*
X164022000Y-82782500D02*
X165143500Y-82782500D01*
X165143500Y-82782500D02*
X165165000Y-82804000D01*
D47*
X176911000Y-117475000D02*
X176784000Y-117348000D01*
X162941000Y-114173000D02*
X162937500Y-114169500D01*
X157077500Y-134620000D02*
X155829000Y-134620000D01*
X172720000Y-135010000D02*
X174362000Y-135010000D01*
X155317500Y-121490000D02*
X155317500Y-119383500D01*
X158369000Y-105261500D02*
X158369000Y-104013000D01*
X174371000Y-135001000D02*
X174362000Y-135010000D01*
X162585000Y-132320000D02*
X160796000Y-132320000D01*
X162937500Y-112190000D02*
X162937500Y-114169500D01*
X160782000Y-132334000D02*
X160796000Y-132320000D01*
X178265000Y-122893000D02*
X178435000Y-123063000D01*
D48*
X155702000Y-127508000D02*
X158242000Y-127508000D01*
D47*
X162244000Y-73554500D02*
X160884500Y-73554500D01*
X155643000Y-101727000D02*
X157031000Y-101727000D01*
X170801000Y-132320000D02*
X170815000Y-132334000D01*
D48*
X155702000Y-127508000D02*
X156972000Y-127508000D01*
D47*
X156083000Y-105261500D02*
X156083000Y-104013000D01*
X180340000Y-109220000D02*
X180340000Y-110490000D01*
X171915000Y-108585000D02*
X170688000Y-108585000D01*
X178265000Y-121285000D02*
X178265000Y-122893000D01*
X166881000Y-74295000D02*
X168594000Y-74295000D01*
X178365000Y-117475000D02*
X176911000Y-117475000D01*
D46*
X157861000Y-77470000D02*
X156340000Y-77470000D01*
D47*
X180340000Y-111760000D02*
X180340000Y-110490000D01*
X160809500Y-73554500D02*
X160847000Y-73517000D01*
X170245000Y-115570000D02*
X168656000Y-115570000D01*
X155317500Y-119383500D02*
X155575000Y-119126000D01*
X157077500Y-130175000D02*
X155829000Y-130175000D01*
X162937500Y-121490000D02*
X162937500Y-119757500D01*
X163387000Y-73554500D02*
X162244000Y-73554500D01*
X162937500Y-119757500D02*
X162687000Y-119507000D01*
%TO.N,+5VA*%
X156083000Y-107336500D02*
X156083000Y-109198000D01*
X175195000Y-113030000D02*
X173355000Y-113030000D01*
X180240000Y-118425000D02*
X181422000Y-118425000D01*
X181483000Y-118364000D02*
X181422000Y-118425000D01*
X156340000Y-85090000D02*
X157926000Y-85090000D01*
X156083000Y-109198000D02*
X156587500Y-109702500D01*
X171831000Y-71755000D02*
X173293000Y-71755000D01*
X180340000Y-121285000D02*
X180340000Y-122936000D01*
X173990000Y-108585000D02*
X175260000Y-108585000D01*
D46*
X164022000Y-84857500D02*
X165143500Y-84857500D01*
D47*
X174055000Y-130240000D02*
X174117000Y-130302000D01*
X159152500Y-134620000D02*
X162585000Y-134620000D01*
X156587500Y-109702500D02*
X156587500Y-110236000D01*
X172675000Y-130240000D02*
X174055000Y-130240000D01*
X156587500Y-112190000D02*
X156587500Y-110236000D01*
D46*
X165165000Y-84836000D02*
X165143500Y-84857500D01*
D47*
X158369000Y-107336500D02*
X156083000Y-107336500D01*
X162585000Y-134620000D02*
X164465000Y-134620000D01*
X163387000Y-71479500D02*
X163387000Y-70104000D01*
D48*
%TO.N,VBUS*%
X132087500Y-129780000D02*
X131847500Y-129540000D01*
X131847500Y-127402500D02*
X131826000Y-127381000D01*
X159152500Y-130175000D02*
X159152500Y-131931500D01*
D49*
X154432000Y-131953000D02*
X159131000Y-131953000D01*
X140299000Y-117820000D02*
X128778000Y-117820000D01*
X154432000Y-131953000D02*
X140299000Y-117820000D01*
X128778000Y-117820000D02*
X120617500Y-117820000D01*
D48*
X135940000Y-129780000D02*
X132087500Y-129780000D01*
X159152500Y-131931500D02*
X159131000Y-131953000D01*
X159152500Y-130175000D02*
X162430000Y-130175000D01*
D49*
X128778000Y-124333000D02*
X131826000Y-127381000D01*
X128778000Y-117820000D02*
X128778000Y-124333000D01*
D48*
X162430000Y-130175000D02*
X162585000Y-130020000D01*
X131847500Y-129540000D02*
X131847500Y-127402500D01*
D45*
%TO.N,Net-(U3-+)*%
X161974000Y-72644000D02*
X160847000Y-71517000D01*
X165546000Y-73025000D02*
X165165000Y-72644000D01*
X166881000Y-73025000D02*
X165546000Y-73025000D01*
X156185500Y-71479500D02*
X156148000Y-71517000D01*
X165165000Y-72644000D02*
X161974000Y-72644000D01*
X158561000Y-71479500D02*
X156185500Y-71479500D01*
X160847000Y-71517000D02*
X158598500Y-71517000D01*
X158598500Y-71517000D02*
X158561000Y-71479500D01*
D50*
%TO.N,GND*%
X132461000Y-89027000D02*
X132504000Y-89070000D01*
D47*
X128651000Y-129540000D02*
X128524000Y-129667000D01*
X144000000Y-99169000D02*
X144145000Y-99314000D01*
X136334000Y-102425000D02*
X136398000Y-102489000D01*
D50*
X144799000Y-87230000D02*
X146402500Y-87230000D01*
X139700000Y-86360000D02*
X139630000Y-86430000D01*
X133985000Y-89070000D02*
X132504000Y-89070000D01*
D47*
X150325000Y-69977000D02*
X148949500Y-69977000D01*
D45*
X156340000Y-81280000D02*
X153797000Y-81280000D01*
D50*
X138077500Y-86430000D02*
X139630000Y-86430000D01*
D45*
X153670000Y-79883000D02*
X153670000Y-78740000D01*
D47*
X142240000Y-132080000D02*
X143764000Y-132080000D01*
D50*
X139554000Y-88030000D02*
X139573000Y-88011000D01*
D47*
X129772500Y-129540000D02*
X128651000Y-129540000D01*
D50*
X150184500Y-72177000D02*
X149331000Y-72177000D01*
X151003000Y-84709000D02*
X150981500Y-84687500D01*
X144780000Y-86487000D02*
X144780000Y-87211000D01*
D47*
X144000000Y-97790000D02*
X144000000Y-99169000D01*
X129772500Y-134620000D02*
X128651000Y-134620000D01*
D45*
X143501000Y-102743000D02*
X143501000Y-102607000D01*
D50*
X150212000Y-89125000D02*
X151130000Y-90043000D01*
D47*
X135940000Y-132080000D02*
X134366000Y-132080000D01*
D50*
X144780000Y-87211000D02*
X144799000Y-87230000D01*
D47*
X147701000Y-123317000D02*
X147697500Y-123313500D01*
D45*
X153797000Y-80010000D02*
X153670000Y-79883000D01*
D47*
X153593000Y-101727000D02*
X152332000Y-101727000D01*
D50*
X150184500Y-74127000D02*
X149331000Y-74127000D01*
X149860000Y-84687500D02*
X150981500Y-84687500D01*
D47*
X135255000Y-97790000D02*
X136398000Y-97790000D01*
X147697500Y-121490000D02*
X147697500Y-123313500D01*
D45*
X156340000Y-80010000D02*
X153797000Y-80010000D01*
X147320000Y-135040000D02*
X146138000Y-135040000D01*
X143501000Y-102607000D02*
X142621000Y-101727000D01*
D50*
X138077500Y-88030000D02*
X139554000Y-88030000D01*
X149331000Y-74127000D02*
X148909000Y-74549000D01*
D47*
X156340000Y-78740000D02*
X153670000Y-78740000D01*
X142726500Y-116205000D02*
X141224000Y-116205000D01*
X150284500Y-76962000D02*
X149163000Y-76962000D01*
D45*
X153797000Y-81280000D02*
X153797000Y-80010000D01*
D47*
X135035000Y-102425000D02*
X136334000Y-102425000D01*
X142726500Y-113665000D02*
X141351000Y-113665000D01*
D45*
X146050000Y-135128000D02*
X146138000Y-135040000D01*
D50*
X149331000Y-72177000D02*
X148909000Y-71755000D01*
X149860000Y-89125000D02*
X150212000Y-89125000D01*
D47*
%TO.N,VCC*%
X141859000Y-76978000D02*
X143145000Y-76994000D01*
X131509000Y-100775000D02*
X131445000Y-100711000D01*
D45*
X146018000Y-130270000D02*
X145923000Y-130175000D01*
D47*
X135940000Y-134380000D02*
X137555000Y-134380000D01*
X131032000Y-94234000D02*
X132572000Y-94234000D01*
D50*
X153313000Y-72177000D02*
X153608000Y-71882000D01*
D45*
X147320000Y-130270000D02*
X146018000Y-130270000D01*
D47*
X132935000Y-100775000D02*
X131509000Y-100775000D01*
D50*
X136760000Y-87230000D02*
X136652000Y-87122000D01*
D47*
X146480000Y-112190000D02*
X146431000Y-112141000D01*
X144801500Y-116205000D02*
X144801500Y-113665000D01*
D50*
X137340001Y-88830000D02*
X136652000Y-88141999D01*
D47*
X140827000Y-76994000D02*
X140208000Y-76994000D01*
X141859000Y-76978000D02*
X140827000Y-76994000D01*
X133080000Y-77470000D02*
X134620000Y-77470000D01*
D50*
X152459500Y-74127000D02*
X153186000Y-74127000D01*
X152459500Y-72177000D02*
X153313000Y-72177000D01*
D47*
X144907000Y-113665000D02*
X146431000Y-112141000D01*
X133985000Y-86995000D02*
X132715000Y-86995000D01*
X131847500Y-134620000D02*
X133223000Y-134620000D01*
X137555000Y-134380000D02*
X137795000Y-134620000D01*
D50*
X138077500Y-87230000D02*
X136760000Y-87230000D01*
X152359500Y-76962000D02*
X153735000Y-76962000D01*
D47*
X143145000Y-76994000D02*
X143383000Y-76994000D01*
D50*
X153186000Y-74127000D02*
X153481000Y-74422000D01*
D47*
X144801500Y-113665000D02*
X144907000Y-113665000D01*
D50*
X136652000Y-88141999D02*
X136652000Y-87122000D01*
X152400000Y-89145000D02*
X152137000Y-89145000D01*
D47*
X133180000Y-97790000D02*
X131572000Y-97790000D01*
D50*
X152137000Y-89145000D02*
X151130000Y-88138000D01*
D47*
X132715000Y-86995000D02*
X132588000Y-87122000D01*
D50*
X138077500Y-88830000D02*
X137340001Y-88830000D01*
D47*
X147697500Y-112190000D02*
X146480000Y-112190000D01*
D50*
%TO.N,/VREF*%
X156587500Y-119764500D02*
X156587500Y-121490000D01*
X172593000Y-114300000D02*
X175195000Y-114300000D01*
X163936001Y-118364000D02*
X157988000Y-118364000D01*
D47*
X155702000Y-123444000D02*
X155702000Y-125433000D01*
D50*
X170245000Y-113030000D02*
X169270001Y-113030000D01*
D47*
X156587500Y-122558500D02*
X155702000Y-123444000D01*
D50*
X171323000Y-113030000D02*
X172593000Y-114300000D01*
X157988000Y-118364000D02*
X156587500Y-119764500D01*
X170245000Y-113030000D02*
X171323000Y-113030000D01*
X169270001Y-113030000D02*
X163936001Y-118364000D01*
D47*
X156587500Y-121490000D02*
X156587500Y-122558500D01*
D50*
X158242000Y-125433000D02*
X155702000Y-125433000D01*
%TO.N,Net-(U8-+)*%
X178302500Y-111797500D02*
X178265000Y-111760000D01*
X173736000Y-116713000D02*
X175889500Y-116713000D01*
X170245000Y-114300000D02*
X171323000Y-114300000D01*
X178302500Y-114300000D02*
X178302500Y-111797500D01*
X171323000Y-114300000D02*
X173736000Y-116713000D01*
X175889500Y-116713000D02*
X178302500Y-114300000D01*
X178265000Y-111760000D02*
X178265000Y-109220000D01*
D45*
%TO.N,Net-(D3-A)*%
X148309900Y-129259900D02*
X148309900Y-132000100D01*
X147320000Y-128270000D02*
X148309900Y-129259900D01*
X148309900Y-132000100D02*
X147320000Y-132990000D01*
D47*
%TO.N,/LED_driver/LED_1*%
X181545000Y-90735000D02*
X176280000Y-96000000D01*
X182880000Y-90735000D02*
X181545000Y-90735000D01*
%TO.N,/LED_driver/LED_3*%
X175260000Y-90735000D02*
X175260000Y-91940000D01*
X175260000Y-91940000D02*
X171200000Y-96000000D01*
D50*
%TO.N,Net-(J2-Pin_16)*%
X164338000Y-121359500D02*
X164207500Y-121490000D01*
X164338000Y-119507000D02*
X164338000Y-121359500D01*
D47*
%TO.N,/LED_driver/LED_2*%
X179070000Y-90735000D02*
X179005000Y-90735000D01*
X179005000Y-90735000D02*
X173740000Y-96000000D01*
%TO.N,/LED_driver/LED_5*%
X167640000Y-94480000D02*
X166120000Y-96000000D01*
X167640000Y-90735000D02*
X167640000Y-94480000D01*
%TO.N,/LED_driver/LED_7*%
X160020000Y-94980000D02*
X161040000Y-96000000D01*
X160020000Y-90735000D02*
X160020000Y-94980000D01*
D45*
%TO.N,/MOSI*%
X123440900Y-96389900D02*
X121412000Y-94361000D01*
X147447000Y-106834704D02*
X147447000Y-96266000D01*
X147447000Y-96266000D02*
X147348600Y-96266000D01*
X148967500Y-108355204D02*
X147447000Y-106834704D01*
X126996900Y-96389900D02*
X123440900Y-96389900D01*
X121412000Y-94361000D02*
X121412000Y-77592000D01*
X127381000Y-96774000D02*
X126996900Y-96389900D01*
X121412000Y-77592000D02*
X120020000Y-76200000D01*
X144240000Y-95817800D02*
X144240000Y-91792500D01*
X148967500Y-112190000D02*
X148967500Y-108355204D01*
X144272000Y-95849800D02*
X144240000Y-95817800D01*
%TO.N,/MISO*%
X148377600Y-114849600D02*
X148377600Y-108301008D01*
X146914900Y-106838308D02*
X146914900Y-106807000D01*
X145040000Y-91792500D02*
X145040000Y-91055001D01*
X145040000Y-95002000D02*
X145040000Y-91792500D01*
X127889000Y-90424000D02*
X127889000Y-84069000D01*
X146914900Y-106807000D02*
X146914900Y-96876900D01*
X146914900Y-96876900D02*
X145040000Y-95002000D01*
X144281999Y-90297000D02*
X143637000Y-90297000D01*
X145040000Y-91055001D02*
X144281999Y-90297000D01*
X148967500Y-115439500D02*
X148377600Y-114849600D01*
X148967500Y-121490000D02*
X148967500Y-115439500D01*
X143891000Y-106807000D02*
X146914900Y-106807000D01*
X127889000Y-84069000D02*
X122560000Y-78740000D01*
X148377600Y-108301008D02*
X146914900Y-106838308D01*
D50*
%TO.N,/~{RESET}*%
X131080000Y-77470000D02*
X131080000Y-75581000D01*
D45*
X141840000Y-83467500D02*
X141840000Y-82785000D01*
D50*
X131080000Y-75581000D02*
X131064000Y-75565000D01*
D45*
X137795000Y-78740000D02*
X137795000Y-75565000D01*
X141840000Y-82785000D02*
X137795000Y-78740000D01*
%TO.N,/SCK*%
X149614800Y-96175504D02*
X148846200Y-95406904D01*
X128524000Y-79629000D02*
X125095000Y-76200000D01*
X128524000Y-92456000D02*
X128524000Y-79629000D01*
X148669758Y-92690463D02*
X148508820Y-92851401D01*
X146318401Y-92851401D02*
X146402500Y-92767302D01*
X151507500Y-107958020D02*
X149617000Y-106067520D01*
X149617000Y-106067520D02*
X149617000Y-105785816D01*
X125095000Y-76200000D02*
X122560000Y-76200000D01*
X151507500Y-112190000D02*
X151507500Y-107958020D01*
X148846200Y-95406904D02*
X148846200Y-92866904D01*
X148846200Y-92866904D02*
X148669758Y-92690463D01*
X149614800Y-105783616D02*
X149614800Y-96175504D01*
X146402500Y-92767302D02*
X146402500Y-90430000D01*
X149617000Y-105785816D02*
X149614800Y-105783616D01*
%TO.N,/RXD*%
X141040000Y-83467500D02*
X141040000Y-82730001D01*
X139716999Y-81407000D02*
X138303000Y-81407000D01*
X141040000Y-82730001D02*
X139716999Y-81407000D01*
%TO.N,/TXD*%
X139551999Y-82042000D02*
X139065000Y-82042000D01*
X140240000Y-83467500D02*
X140240000Y-82730001D01*
X140240000Y-82730001D02*
X139551999Y-82042000D01*
D47*
%TO.N,/LED_driver/LED_4*%
X171450000Y-90735000D02*
X171450000Y-93210000D01*
X171450000Y-93210000D02*
X168660000Y-96000000D01*
D45*
%TO.N,/SDA*%
X143440000Y-79051000D02*
X143383000Y-78994000D01*
X143440000Y-83467500D02*
X143440000Y-79051000D01*
%TO.N,/GP_LED*%
X135001000Y-95123000D02*
X135255000Y-95377000D01*
X138430000Y-95377000D02*
X138430000Y-95504000D01*
X139580000Y-96654000D02*
X139580000Y-97820000D01*
X139440000Y-83467500D02*
X136877500Y-83467500D01*
X135001000Y-85344000D02*
X135001000Y-95123000D01*
X138430000Y-95504000D02*
X139580000Y-96654000D01*
X136877500Y-83467500D02*
X135001000Y-85344000D01*
D47*
%TO.N,/LED_driver/LED_8*%
X156210000Y-90735000D02*
X156210000Y-93710000D01*
X156210000Y-93710000D02*
X158500000Y-96000000D01*
D45*
%TO.N,/PC1{slash}ADC1*%
X148717000Y-85344000D02*
X148203000Y-84830000D01*
X152777500Y-121490000D02*
X152777500Y-117598500D01*
X149993600Y-96018600D02*
X149225000Y-95250000D01*
X152187600Y-117008600D02*
X152187600Y-108102416D01*
X149995800Y-105628912D02*
X149993600Y-105626712D01*
X149225000Y-95250000D02*
X149225000Y-92710000D01*
X148717000Y-92202000D02*
X148717000Y-85344000D01*
X149225000Y-92710000D02*
X148717000Y-92202000D01*
X152187600Y-108102416D02*
X149995800Y-105910616D01*
X149995800Y-105910616D02*
X149995800Y-105628912D01*
X152777500Y-117598500D02*
X152187600Y-117008600D01*
X148203000Y-84830000D02*
X146402500Y-84830000D01*
X149993600Y-105626712D02*
X149993600Y-96018600D01*
%TO.N,/PB0*%
X141859000Y-95377000D02*
X141840000Y-95358000D01*
X141840000Y-95358000D02*
X141840000Y-91792500D01*
X148590000Y-106426000D02*
X148590000Y-96520000D01*
X148590000Y-96520000D02*
X148578006Y-96531994D01*
X150237500Y-112190000D02*
X150237500Y-108073500D01*
X150237500Y-108073500D02*
X148590000Y-106426000D01*
D47*
%TO.N,/LED_driver/LED_6*%
X163830000Y-95750000D02*
X163580000Y-96000000D01*
X163830000Y-90735000D02*
X163830000Y-95750000D01*
D45*
%TO.N,/PC0{slash}ADC0*%
X148467400Y-93458801D02*
X148467400Y-95563808D01*
X148338200Y-86828201D02*
X148338200Y-92244001D01*
X147901420Y-92599807D02*
X147901420Y-93102995D01*
X151511000Y-118364000D02*
X151507500Y-118367500D01*
X149238200Y-106224424D02*
X150917600Y-107903824D01*
X146402500Y-85630000D02*
X147139999Y-85630000D01*
X151507500Y-118367500D02*
X151507500Y-121490000D01*
X148257226Y-93458801D02*
X148467400Y-93458801D01*
X149238200Y-105942720D02*
X149238200Y-106224424D01*
X148257226Y-92244001D02*
X147901420Y-92599807D01*
X147139999Y-85630000D02*
X148338200Y-86828201D01*
X149236000Y-105940520D02*
X149238200Y-105942720D01*
X148338200Y-92244001D02*
X148257226Y-92244001D01*
X149236000Y-96332408D02*
X149236000Y-105940520D01*
X150917600Y-107903824D02*
X150917600Y-117770600D01*
X148467400Y-95563808D02*
X149236000Y-96332408D01*
X150917600Y-117770600D02*
X151511000Y-118364000D01*
X147901420Y-93102995D02*
X148257226Y-93458801D01*
%TO.N,/PD5*%
X155317500Y-112190000D02*
X155317500Y-109625204D01*
X155317500Y-109625204D02*
X151132200Y-105439904D01*
X151132200Y-105158200D02*
X151130000Y-105156000D01*
X139446000Y-94107000D02*
X139440000Y-94101000D01*
X139192000Y-94107000D02*
X139446000Y-94107000D01*
X139440000Y-94101000D02*
X139440000Y-91792500D01*
X151132200Y-105439904D02*
X151132200Y-105158200D01*
X137668000Y-92583000D02*
X139192000Y-94107000D01*
X151130000Y-94234000D02*
X151257000Y-94107000D01*
X151130000Y-105156000D02*
X151130000Y-94234000D01*
%TO.N,/PD6{slash}OC0A*%
X150374600Y-105753712D02*
X150374600Y-105472008D01*
X150374600Y-105472008D02*
X150372400Y-105469808D01*
X140335000Y-94742000D02*
X140240000Y-94647000D01*
X149987000Y-94742000D02*
X149860000Y-94742000D01*
X150372400Y-95127400D02*
X149987000Y-94742000D01*
X140335000Y-94742000D02*
X140335000Y-94996000D01*
X140335000Y-94996000D02*
X139827000Y-95504000D01*
X152777500Y-108156612D02*
X150374600Y-105753712D01*
X152777500Y-112190000D02*
X152777500Y-108156612D01*
X150372400Y-105469808D02*
X150372400Y-95127400D01*
X140240000Y-94647000D02*
X140240000Y-91792500D01*
%TO.N,/PB1{slash}OC1A*%
X154047500Y-108890908D02*
X150753400Y-105596808D01*
X150649600Y-94007600D02*
X150622000Y-93980000D01*
X142621000Y-91811500D02*
X142640000Y-91792500D01*
X150751200Y-94460194D02*
X150649600Y-94358594D01*
X154047500Y-112190000D02*
X154047500Y-108890908D01*
X142621000Y-93472000D02*
X142621000Y-91811500D01*
X150649600Y-94358594D02*
X150649600Y-94007600D01*
X150622000Y-93472000D02*
X151003000Y-93091000D01*
X150751200Y-105312904D02*
X150751200Y-94460194D01*
X150622000Y-93980000D02*
X150622000Y-93472000D01*
X150753400Y-105596808D02*
X150753400Y-105315104D01*
X151003000Y-93091000D02*
X152273000Y-93091000D01*
X150753400Y-105315104D02*
X150751200Y-105312904D01*
%TO.N,/PD7*%
X148082000Y-106934000D02*
X149647600Y-108499600D01*
X141097000Y-96012000D02*
X141040000Y-95955000D01*
X148082000Y-97282000D02*
X148082000Y-106934000D01*
X150237500Y-117090500D02*
X150237500Y-121490000D01*
X149647600Y-108499600D02*
X149647600Y-116500600D01*
X147955000Y-95565000D02*
X147955000Y-97155000D01*
X147955000Y-97155000D02*
X148082000Y-97282000D01*
X147861000Y-95471000D02*
X147955000Y-95565000D01*
X149647600Y-116500600D02*
X150237500Y-117090500D01*
X141040000Y-95955000D02*
X141040000Y-91792500D01*
%TO.N,/PC2{slash}ADC2*%
X153389900Y-98197100D02*
X153389900Y-84074000D01*
X155696300Y-109468300D02*
X151511000Y-105283000D01*
X155907400Y-110684302D02*
X155696300Y-110473202D01*
X154047500Y-115192500D02*
X155907400Y-113332600D01*
X147066000Y-83566000D02*
X145796000Y-82296000D01*
X145288000Y-82296000D02*
X145040000Y-82544000D01*
X145796000Y-82296000D02*
X145288000Y-82296000D01*
X151511000Y-100076000D02*
X153389900Y-98197100D01*
X154047500Y-121490000D02*
X154047500Y-115192500D01*
X145040000Y-82544000D02*
X145040000Y-83467500D01*
X151511000Y-105283000D02*
X151511000Y-100076000D01*
X153363800Y-84074000D02*
X152855800Y-83566000D01*
X153389900Y-84074000D02*
X153363800Y-84074000D01*
X155696300Y-110473202D02*
X155696300Y-109468300D01*
X152855800Y-83566000D02*
X147066000Y-83566000D01*
X155907400Y-113332600D02*
X155907400Y-110684302D01*
%TO.N,Net-(D4-A)*%
X171685100Y-131925100D02*
X171685100Y-129229900D01*
X172720000Y-132960000D02*
X171685100Y-131925100D01*
X171685100Y-129229900D02*
X172675000Y-128240000D01*
%TO.N,/GP_LED2*%
X135382000Y-86788001D02*
X135382000Y-93345000D01*
X138077500Y-84830000D02*
X137340001Y-84830000D01*
X137122900Y-98090264D02*
X135899164Y-99314000D01*
X137122900Y-95085900D02*
X137122900Y-98090264D01*
X138176000Y-101727000D02*
X138176000Y-101965000D01*
X137340001Y-84830000D02*
X135382000Y-86788001D01*
X135899164Y-99314000D02*
X135763000Y-99314000D01*
X135382000Y-93345000D02*
X137122900Y-95085900D01*
X138176000Y-101965000D02*
X138954000Y-102743000D01*
D50*
%TO.N,/CLK16*%
X135890000Y-91080001D02*
X137340001Y-89630000D01*
X137541000Y-93726000D02*
X135890000Y-92075000D01*
X135572000Y-100775000D02*
X137541000Y-98806000D01*
X137541000Y-98806000D02*
X137541000Y-93726000D01*
X137340001Y-89630000D02*
X138077500Y-89630000D01*
X135035000Y-100775000D02*
X135572000Y-100775000D01*
X135890000Y-92075000D02*
X135890000Y-91080001D01*
%TO.N,Net-(J2-Pin_2)*%
X166194000Y-112190000D02*
X167513000Y-110871000D01*
X167513000Y-110871000D02*
X167513000Y-104394000D01*
X176280000Y-101088000D02*
X176280000Y-98540000D01*
X164207500Y-112190000D02*
X166194000Y-112190000D01*
X169545000Y-102362000D02*
X175006000Y-102362000D01*
X175006000Y-102362000D02*
X176280000Y-101088000D01*
X167513000Y-104394000D02*
X169545000Y-102362000D01*
D45*
%TO.N,Net-(D1-A)*%
X142621000Y-100711000D02*
X145415000Y-100711000D01*
X141580000Y-97820000D02*
X141580000Y-99670000D01*
X146050000Y-100076000D02*
X146050000Y-97790000D01*
X145415000Y-100711000D02*
X146050000Y-100076000D01*
X141580000Y-99670000D02*
X142621000Y-100711000D01*
%TO.N,Net-(D2-A)*%
X140954000Y-102743000D02*
X140954000Y-103362000D01*
X142494000Y-104902000D02*
X144018000Y-104902000D01*
X144018000Y-104902000D02*
X145551000Y-103369000D01*
X145551000Y-103369000D02*
X145551000Y-102743000D01*
X140954000Y-103362000D02*
X142494000Y-104902000D01*
%TO.N,Net-(C6-Pad2)*%
X171831000Y-73025000D02*
X172785000Y-73025000D01*
X173547000Y-73787000D02*
X173547000Y-75565000D01*
X172785000Y-73025000D02*
X173547000Y-73787000D01*
X173547000Y-75565000D02*
X172404000Y-76708000D01*
X172404000Y-76708000D02*
X170647500Y-76708000D01*
D50*
%TO.N,Net-(U6-AREF)*%
X149881500Y-86741000D02*
X149860000Y-86762500D01*
X150876000Y-86741000D02*
X149881500Y-86741000D01*
X145034000Y-88011000D02*
X145377000Y-88011000D01*
X144780000Y-88265000D02*
X145034000Y-88011000D01*
X145377000Y-88011000D02*
X145396000Y-88030000D01*
X145396000Y-88030000D02*
X146402500Y-88030000D01*
%TO.N,Net-(U6-AVCC)*%
X149606000Y-90946000D02*
X149860000Y-91200000D01*
X144939000Y-89630000D02*
X144780000Y-89789000D01*
X146402500Y-89630000D02*
X144939000Y-89630000D01*
D45*
X152395000Y-91200000D02*
X152400000Y-91195000D01*
D50*
X149606000Y-90297000D02*
X149606000Y-90946000D01*
D45*
X149860000Y-91200000D02*
X152395000Y-91200000D01*
D46*
%TO.N,Net-(C14-Pad2)*%
X160120500Y-109855000D02*
X160020000Y-109855000D01*
X159127500Y-110747500D02*
X159127500Y-112190000D01*
X160020000Y-109855000D02*
X159127500Y-110747500D01*
%TO.N,Net-(C14-Pad1)*%
X158395500Y-110209500D02*
X157857500Y-110747500D01*
X158395500Y-109855000D02*
X158395500Y-110209500D01*
X157857500Y-110747500D02*
X157857500Y-112190000D01*
%TO.N,Net-(C16-Pad1)*%
X162078500Y-109855000D02*
X161671000Y-109855000D01*
X160397500Y-111128500D02*
X160397500Y-112190000D01*
X161671000Y-109855000D02*
X160397500Y-111128500D01*
%TO.N,Net-(C16-Pad2)*%
X162052000Y-110617000D02*
X161667500Y-111001500D01*
X163041500Y-110617000D02*
X162052000Y-110617000D01*
X161667500Y-111001500D02*
X161667500Y-112190000D01*
X163803500Y-109855000D02*
X163041500Y-110617000D01*
%TO.N,Net-(C22-Pad1)*%
X159127500Y-121490000D02*
X159127500Y-123493500D01*
X159127500Y-123493500D02*
X159332000Y-123698000D01*
%TO.N,Net-(C22-Pad2)*%
X157857500Y-123447500D02*
X157607000Y-123698000D01*
X157857500Y-121490000D02*
X157857500Y-123447500D01*
%TO.N,Net-(C23-Pad1)*%
X161667500Y-121490000D02*
X161667500Y-122350500D01*
X161667500Y-122350500D02*
X163015000Y-123698000D01*
%TO.N,Net-(C23-Pad2)*%
X160397500Y-122805500D02*
X161290000Y-123698000D01*
X160397500Y-121490000D02*
X160397500Y-122805500D01*
D47*
%TO.N,Net-(J3-Pin_3)*%
X125476000Y-94234000D02*
X124460000Y-95250000D01*
X129032000Y-94234000D02*
X125476000Y-94234000D01*
D45*
%TO.N,Net-(U2-Vout)*%
X155458000Y-72827000D02*
X156148000Y-73517000D01*
X152459500Y-72827000D02*
X155458000Y-72827000D01*
%TO.N,Net-(U5-I{slash}O)*%
X159323000Y-75565000D02*
X163149000Y-75565000D01*
X163149000Y-75565000D02*
X164292000Y-76708000D01*
X156340000Y-76200000D02*
X158688000Y-76200000D01*
X158688000Y-76200000D02*
X159323000Y-75565000D01*
D47*
%TO.N,Net-(U9-OUT)*%
X180302500Y-116462500D02*
X180240000Y-116525000D01*
X180302500Y-114300000D02*
X180302500Y-116462500D01*
%TD*%
%TA.AperFunction,Conductor*%
%TO.N,Earth*%
G36*
X172756820Y-96540002D02*
G01*
X172791574Y-96575505D01*
X172792437Y-96574879D01*
X172897536Y-96719535D01*
X173020464Y-96842463D01*
X173065342Y-96875069D01*
X173161116Y-96944653D01*
X173316019Y-97023580D01*
X173481362Y-97077303D01*
X173653074Y-97104500D01*
X173653077Y-97104500D01*
X173826923Y-97104500D01*
X173826926Y-97104500D01*
X173998638Y-97077303D01*
X174163981Y-97023580D01*
X174318884Y-96944653D01*
X174459533Y-96842465D01*
X174582465Y-96719533D01*
X174684653Y-96578884D01*
X174684652Y-96578884D01*
X174687563Y-96574879D01*
X174688751Y-96575742D01*
X174736526Y-96532529D01*
X174791301Y-96520000D01*
X175049501Y-96520000D01*
X175117622Y-96540002D01*
X175164115Y-96593658D01*
X175175501Y-96646000D01*
X175175501Y-96875072D01*
X175190265Y-96949300D01*
X175246516Y-97033484D01*
X175330697Y-97089733D01*
X175330699Y-97089734D01*
X175404933Y-97104500D01*
X177155066Y-97104499D01*
X177155069Y-97104498D01*
X177155073Y-97104498D01*
X177204326Y-97094701D01*
X177229301Y-97089734D01*
X177313484Y-97033484D01*
X177369734Y-96949301D01*
X177384500Y-96875067D01*
X177384500Y-96646000D01*
X177404502Y-96577879D01*
X177458158Y-96531386D01*
X177510500Y-96520000D01*
X179579000Y-96520000D01*
X179647121Y-96540002D01*
X179693614Y-96593658D01*
X179705000Y-96646000D01*
X179705000Y-101547810D01*
X179684998Y-101615931D01*
X179668095Y-101636905D01*
X177201905Y-104103095D01*
X177139593Y-104137121D01*
X177112810Y-104140000D01*
X170814998Y-104140000D01*
X169545000Y-105409998D01*
X169545000Y-111072810D01*
X169536216Y-111102725D01*
X169529588Y-111133195D01*
X169525773Y-111138290D01*
X169524998Y-111140931D01*
X169508095Y-111161905D01*
X169501405Y-111168595D01*
X169439093Y-111202621D01*
X169412310Y-111205500D01*
X169388166Y-111205500D01*
X169362266Y-111209602D01*
X169293446Y-111220501D01*
X169179276Y-111278673D01*
X169088673Y-111369276D01*
X169030501Y-111483446D01*
X169015500Y-111578167D01*
X169015500Y-111602310D01*
X168995498Y-111670431D01*
X168978595Y-111691405D01*
X165771905Y-114898095D01*
X165709593Y-114932121D01*
X165682810Y-114935000D01*
X157225000Y-114935000D01*
X157156879Y-114914998D01*
X157110386Y-114861342D01*
X157099000Y-114809000D01*
X157099000Y-113286567D01*
X157119002Y-113218446D01*
X157172658Y-113171953D01*
X157242932Y-113161849D01*
X157307512Y-113191343D01*
X157337267Y-113229364D01*
X157376173Y-113305723D01*
X157466776Y-113396326D01*
X157514658Y-113420723D01*
X157580945Y-113454498D01*
X157675666Y-113469500D01*
X157675668Y-113469500D01*
X158039332Y-113469500D01*
X158039334Y-113469500D01*
X158134055Y-113454498D01*
X158248223Y-113396326D01*
X158338826Y-113305723D01*
X158380233Y-113224455D01*
X158428981Y-113172842D01*
X158497896Y-113155776D01*
X158565098Y-113178677D01*
X158604767Y-113224457D01*
X158646173Y-113305723D01*
X158736776Y-113396326D01*
X158784658Y-113420723D01*
X158850945Y-113454498D01*
X158945666Y-113469500D01*
X158945668Y-113469500D01*
X159309332Y-113469500D01*
X159309334Y-113469500D01*
X159404055Y-113454498D01*
X159518223Y-113396326D01*
X159608826Y-113305723D01*
X159650233Y-113224455D01*
X159698981Y-113172842D01*
X159767896Y-113155776D01*
X159835098Y-113178677D01*
X159874767Y-113224457D01*
X159916173Y-113305723D01*
X160006776Y-113396326D01*
X160054658Y-113420723D01*
X160120945Y-113454498D01*
X160215666Y-113469500D01*
X160215668Y-113469500D01*
X160579332Y-113469500D01*
X160579334Y-113469500D01*
X160674055Y-113454498D01*
X160788223Y-113396326D01*
X160878826Y-113305723D01*
X160920233Y-113224455D01*
X160968981Y-113172842D01*
X161037896Y-113155776D01*
X161105098Y-113178677D01*
X161144767Y-113224457D01*
X161186173Y-113305723D01*
X161276776Y-113396326D01*
X161324658Y-113420723D01*
X161390945Y-113454498D01*
X161485666Y-113469500D01*
X161485668Y-113469500D01*
X161849332Y-113469500D01*
X161849334Y-113469500D01*
X161944055Y-113454498D01*
X162058223Y-113396326D01*
X162148826Y-113305723D01*
X162190514Y-113223905D01*
X162239260Y-113172291D01*
X162308175Y-113155225D01*
X162375377Y-113178125D01*
X162415047Y-113223906D01*
X162456582Y-113305423D01*
X162456584Y-113305426D01*
X162547075Y-113395917D01*
X162661099Y-113454015D01*
X162755707Y-113468999D01*
X162810500Y-113468998D01*
X162810500Y-112316000D01*
X162813091Y-112307174D01*
X162811782Y-112298068D01*
X162822937Y-112273642D01*
X162830502Y-112247879D01*
X162837455Y-112241854D01*
X162841276Y-112233488D01*
X162863861Y-112218973D01*
X162884158Y-112201386D01*
X162894844Y-112199061D01*
X162901002Y-112195104D01*
X162936500Y-112190000D01*
X162938500Y-112190000D01*
X163006621Y-112210002D01*
X163053114Y-112263658D01*
X163064500Y-112316000D01*
X163064500Y-113468999D01*
X163119292Y-113468999D01*
X163213897Y-113454016D01*
X163327924Y-113395917D01*
X163418415Y-113305426D01*
X163418418Y-113305422D01*
X163459952Y-113223907D01*
X163508700Y-113172291D01*
X163577614Y-113155225D01*
X163644816Y-113178125D01*
X163684485Y-113223905D01*
X163684767Y-113224457D01*
X163726173Y-113305723D01*
X163816776Y-113396326D01*
X163864658Y-113420723D01*
X163930945Y-113454498D01*
X164025666Y-113469500D01*
X164025668Y-113469500D01*
X164389332Y-113469500D01*
X164389334Y-113469500D01*
X164484055Y-113454498D01*
X164598223Y-113396326D01*
X164688826Y-113305723D01*
X164746998Y-113191555D01*
X164762000Y-113096834D01*
X164762000Y-112697500D01*
X164782002Y-112629379D01*
X164835658Y-112582886D01*
X164888000Y-112571500D01*
X166244223Y-112571500D01*
X166244225Y-112571500D01*
X166341254Y-112545501D01*
X166341257Y-112545499D01*
X166341258Y-112545499D01*
X166384750Y-112520388D01*
X166428247Y-112495276D01*
X166499276Y-112424247D01*
X167818276Y-111105247D01*
X167868502Y-111018253D01*
X167894501Y-110921225D01*
X167894501Y-110820775D01*
X167894501Y-110813058D01*
X167894500Y-110813040D01*
X167894500Y-104604213D01*
X167914502Y-104536092D01*
X167931405Y-104515118D01*
X169666118Y-102780405D01*
X169728430Y-102746379D01*
X169755213Y-102743500D01*
X175056223Y-102743500D01*
X175056225Y-102743500D01*
X175153254Y-102717501D01*
X175153257Y-102717499D01*
X175153258Y-102717499D01*
X175196750Y-102692388D01*
X175240247Y-102667276D01*
X175311276Y-102596247D01*
X176585276Y-101322247D01*
X176635501Y-101235254D01*
X176661500Y-101138225D01*
X176661500Y-99662438D01*
X176681502Y-99594317D01*
X176730296Y-99550171D01*
X176858884Y-99484653D01*
X176999533Y-99382465D01*
X177122465Y-99259533D01*
X177224653Y-99118884D01*
X177303580Y-98963981D01*
X177357303Y-98798638D01*
X177384500Y-98626926D01*
X177384500Y-98453074D01*
X177357303Y-98281362D01*
X177303580Y-98116019D01*
X177224653Y-97961116D01*
X177122465Y-97820467D01*
X177122463Y-97820464D01*
X176999535Y-97697536D01*
X176858887Y-97595349D01*
X176858886Y-97595348D01*
X176858884Y-97595347D01*
X176703981Y-97516420D01*
X176703978Y-97516419D01*
X176703976Y-97516418D01*
X176538642Y-97462698D01*
X176538640Y-97462697D01*
X176538638Y-97462697D01*
X176366926Y-97435500D01*
X176193074Y-97435500D01*
X176021362Y-97462697D01*
X176021360Y-97462697D01*
X176021357Y-97462698D01*
X175856023Y-97516418D01*
X175856017Y-97516421D01*
X175701112Y-97595349D01*
X175560464Y-97697536D01*
X175437536Y-97820464D01*
X175335349Y-97961112D01*
X175256421Y-98116017D01*
X175256418Y-98116023D01*
X175202698Y-98281357D01*
X175202697Y-98281360D01*
X175202697Y-98281362D01*
X175175500Y-98453074D01*
X175175500Y-98626926D01*
X175202697Y-98798638D01*
X175256420Y-98963981D01*
X175335347Y-99118884D01*
X175335349Y-99118887D01*
X175437536Y-99259535D01*
X175560464Y-99382463D01*
X175560467Y-99382465D01*
X175701116Y-99484653D01*
X175829703Y-99550171D01*
X175881318Y-99598919D01*
X175898500Y-99662438D01*
X175898500Y-100877787D01*
X175878498Y-100945908D01*
X175861595Y-100966882D01*
X174884882Y-101943595D01*
X174822570Y-101977621D01*
X174795787Y-101980500D01*
X169494775Y-101980500D01*
X169435390Y-101996412D01*
X169397741Y-102006500D01*
X169310756Y-102056721D01*
X169310746Y-102056729D01*
X167278753Y-104088724D01*
X167243239Y-104124238D01*
X167207725Y-104159751D01*
X167207721Y-104159756D01*
X167157500Y-104246741D01*
X167131500Y-104343776D01*
X167131500Y-110660787D01*
X167111498Y-110728908D01*
X167094595Y-110749882D01*
X166072882Y-111771595D01*
X166010570Y-111805621D01*
X165983787Y-111808500D01*
X164888000Y-111808500D01*
X164819879Y-111788498D01*
X164773386Y-111734842D01*
X164762000Y-111682500D01*
X164762000Y-111283167D01*
X164761289Y-111278674D01*
X164746998Y-111188445D01*
X164698586Y-111093432D01*
X164688826Y-111074276D01*
X164598223Y-110983673D01*
X164484053Y-110925501D01*
X164419336Y-110915251D01*
X164389334Y-110910500D01*
X164025666Y-110910500D01*
X163999766Y-110914602D01*
X163930946Y-110925501D01*
X163816776Y-110983673D01*
X163726175Y-111074274D01*
X163726173Y-111074277D01*
X163684486Y-111156093D01*
X163635737Y-111207708D01*
X163566822Y-111224774D01*
X163499621Y-111201873D01*
X163470671Y-111173482D01*
X163335900Y-110990007D01*
X163326932Y-110965282D01*
X163314327Y-110942197D01*
X163315024Y-110932449D01*
X163311693Y-110923265D01*
X163317516Y-110897616D01*
X163319393Y-110871382D01*
X163325700Y-110861566D01*
X163327412Y-110854030D01*
X163335903Y-110845691D01*
X163348349Y-110826323D01*
X163553270Y-110621402D01*
X163615582Y-110587378D01*
X163642365Y-110584499D01*
X164150549Y-110584499D01*
X164150556Y-110584499D01*
X164176408Y-110581720D01*
X164209151Y-110578201D01*
X164209152Y-110578200D01*
X164209157Y-110578200D01*
X164341715Y-110528758D01*
X164454974Y-110443974D01*
X164539758Y-110330715D01*
X164588699Y-110199500D01*
X164589199Y-110198160D01*
X164589201Y-110198152D01*
X164595499Y-110139568D01*
X164595499Y-110139566D01*
X164595500Y-110139557D01*
X164595499Y-109570444D01*
X164589200Y-109511847D01*
X164589200Y-109511846D01*
X164589200Y-109511843D01*
X164539758Y-109379285D01*
X164539755Y-109379281D01*
X164539755Y-109379280D01*
X164454974Y-109266025D01*
X164341718Y-109181244D01*
X164341714Y-109181241D01*
X164209160Y-109131800D01*
X164209152Y-109131798D01*
X164150560Y-109125500D01*
X163456451Y-109125500D01*
X163456427Y-109125502D01*
X163397848Y-109131798D01*
X163265280Y-109181244D01*
X163152025Y-109266025D01*
X163067244Y-109379281D01*
X163067242Y-109379285D01*
X163059053Y-109401238D01*
X163016504Y-109458072D01*
X162949983Y-109482880D01*
X162880609Y-109467786D01*
X162830409Y-109417582D01*
X162822945Y-109401237D01*
X162814758Y-109379285D01*
X162790149Y-109346411D01*
X162729974Y-109266025D01*
X162616718Y-109181244D01*
X162616714Y-109181241D01*
X162484160Y-109131800D01*
X162484152Y-109131798D01*
X162425560Y-109125500D01*
X161731451Y-109125500D01*
X161731427Y-109125502D01*
X161672848Y-109131798D01*
X161540280Y-109181244D01*
X161427025Y-109266025D01*
X161342244Y-109379281D01*
X161342241Y-109379285D01*
X161292800Y-109511839D01*
X161292798Y-109511847D01*
X161286500Y-109570431D01*
X161286500Y-109671135D01*
X161277716Y-109701050D01*
X161271088Y-109731520D01*
X161267273Y-109736615D01*
X161266498Y-109739256D01*
X161249595Y-109760230D01*
X161127594Y-109882231D01*
X161065282Y-109916257D01*
X160994467Y-109911192D01*
X160937631Y-109868645D01*
X160912820Y-109802125D01*
X160912499Y-109793136D01*
X160912499Y-109570451D01*
X160912499Y-109570444D01*
X160906200Y-109511847D01*
X160906200Y-109511846D01*
X160906200Y-109511843D01*
X160856758Y-109379285D01*
X160856755Y-109379281D01*
X160856755Y-109379280D01*
X160771974Y-109266025D01*
X160658718Y-109181244D01*
X160658714Y-109181241D01*
X160526160Y-109131800D01*
X160526152Y-109131798D01*
X160467560Y-109125500D01*
X159773451Y-109125500D01*
X159773427Y-109125502D01*
X159714848Y-109131798D01*
X159582280Y-109181244D01*
X159469025Y-109266025D01*
X159384244Y-109379281D01*
X159384242Y-109379285D01*
X159376053Y-109401238D01*
X159333504Y-109458072D01*
X159266983Y-109482880D01*
X159197609Y-109467786D01*
X159147409Y-109417582D01*
X159139945Y-109401237D01*
X159131758Y-109379285D01*
X159107149Y-109346411D01*
X159046974Y-109266025D01*
X158933718Y-109181244D01*
X158933714Y-109181241D01*
X158801160Y-109131800D01*
X158801152Y-109131798D01*
X158742560Y-109125500D01*
X158048451Y-109125500D01*
X158048427Y-109125502D01*
X157989848Y-109131798D01*
X157857280Y-109181244D01*
X157744025Y-109266025D01*
X157659244Y-109379281D01*
X157659241Y-109379285D01*
X157609800Y-109511839D01*
X157609798Y-109511847D01*
X157603500Y-109570431D01*
X157603500Y-110139548D01*
X157603502Y-110139572D01*
X157609799Y-110198153D01*
X157609799Y-110198155D01*
X157609800Y-110198157D01*
X157610301Y-110199499D01*
X157657802Y-110326855D01*
X157658780Y-110340541D01*
X157664474Y-110353027D01*
X157661263Y-110375262D01*
X157662866Y-110397670D01*
X157656069Y-110411237D01*
X157654329Y-110423295D01*
X157638918Y-110445478D01*
X157634923Y-110453454D01*
X157631986Y-110456839D01*
X157565435Y-110523391D01*
X157547894Y-110553773D01*
X157539983Y-110562893D01*
X157519853Y-110575813D01*
X157502543Y-110592319D01*
X157490531Y-110594633D01*
X157480319Y-110601188D01*
X157490405Y-110614405D01*
X157496124Y-110685171D01*
X157494469Y-110692132D01*
X157492510Y-110699441D01*
X157492510Y-110905750D01*
X157483943Y-110934924D01*
X157477863Y-110964712D01*
X157473438Y-110970701D01*
X157472508Y-110973871D01*
X157468589Y-110977266D01*
X157455605Y-110994845D01*
X157376175Y-111074274D01*
X157376173Y-111074277D01*
X157337267Y-111150635D01*
X157288518Y-111202250D01*
X157219603Y-111219316D01*
X157152402Y-111196415D01*
X157108250Y-111140817D01*
X157099000Y-111093432D01*
X157099000Y-110855027D01*
X157107566Y-110825852D01*
X157113647Y-110796065D01*
X157117461Y-110792150D01*
X157119002Y-110786906D01*
X157135905Y-110765932D01*
X157154961Y-110746876D01*
X157179772Y-110722065D01*
X157263218Y-110597179D01*
X157263218Y-110597178D01*
X157266657Y-110592032D01*
X157268437Y-110593221D01*
X157311356Y-110549502D01*
X157340461Y-110542888D01*
X157339609Y-110541020D01*
X157325736Y-110521537D01*
X157324853Y-110508658D01*
X157320078Y-110498186D01*
X157322829Y-110479127D01*
X157321227Y-110455747D01*
X157350000Y-110311100D01*
X157350000Y-110160900D01*
X157320697Y-110013587D01*
X157263218Y-109874821D01*
X157179772Y-109749935D01*
X157135905Y-109706068D01*
X157101879Y-109643756D01*
X157099000Y-109616973D01*
X157099000Y-108330452D01*
X157119002Y-108262331D01*
X157172658Y-108215838D01*
X157225448Y-108204453D01*
X160385381Y-108215791D01*
X160400999Y-108215848D01*
X160401000Y-108215848D01*
X160401001Y-108215848D01*
X168238084Y-100366972D01*
X168300370Y-100332900D01*
X168327246Y-100330000D01*
X171450000Y-100330000D01*
X171450000Y-99711653D01*
X171470002Y-99643532D01*
X171523658Y-99597039D01*
X171537055Y-99591823D01*
X171623981Y-99563580D01*
X171778884Y-99484653D01*
X171919533Y-99382465D01*
X171919538Y-99382460D01*
X172033160Y-99268839D01*
X172042460Y-99259538D01*
X172042463Y-99259535D01*
X172042465Y-99259533D01*
X172144653Y-99118884D01*
X172223580Y-98963981D01*
X172277303Y-98798638D01*
X172304500Y-98626926D01*
X172304500Y-98453116D01*
X172636000Y-98453116D01*
X172636000Y-98626883D01*
X172663185Y-98798524D01*
X172716883Y-98963788D01*
X172716884Y-98963790D01*
X172795776Y-99118625D01*
X172874042Y-99226349D01*
X172874043Y-99226349D01*
X173308234Y-98792158D01*
X173339901Y-98847007D01*
X173432993Y-98940099D01*
X173487840Y-98971765D01*
X173053649Y-99405955D01*
X173053649Y-99405956D01*
X173161374Y-99484223D01*
X173316209Y-99563115D01*
X173316211Y-99563116D01*
X173481475Y-99616814D01*
X173653116Y-99644000D01*
X173826884Y-99644000D01*
X173998524Y-99616814D01*
X174163788Y-99563116D01*
X174163790Y-99563115D01*
X174318621Y-99484225D01*
X174426349Y-99405955D01*
X174426349Y-99405954D01*
X173992159Y-98971764D01*
X174047007Y-98940099D01*
X174140099Y-98847007D01*
X174171764Y-98792159D01*
X174605954Y-99226349D01*
X174605955Y-99226349D01*
X174684225Y-99118621D01*
X174763115Y-98963790D01*
X174763116Y-98963788D01*
X174816814Y-98798524D01*
X174844000Y-98626883D01*
X174844000Y-98453116D01*
X174816814Y-98281475D01*
X174763116Y-98116211D01*
X174763115Y-98116209D01*
X174684223Y-97961374D01*
X174605955Y-97853649D01*
X174171764Y-98287839D01*
X174140099Y-98232993D01*
X174047007Y-98139901D01*
X173992158Y-98108234D01*
X174426349Y-97674043D01*
X174426349Y-97674042D01*
X174318625Y-97595776D01*
X174163790Y-97516884D01*
X174163788Y-97516883D01*
X173998524Y-97463185D01*
X173826884Y-97436000D01*
X173653116Y-97436000D01*
X173481475Y-97463185D01*
X173316211Y-97516883D01*
X173316209Y-97516884D01*
X173161379Y-97595773D01*
X173161379Y-97595774D01*
X173053649Y-97674042D01*
X173053649Y-97674044D01*
X173487840Y-98108235D01*
X173432993Y-98139901D01*
X173339901Y-98232993D01*
X173308235Y-98287840D01*
X172874044Y-97853649D01*
X172874042Y-97853649D01*
X172795774Y-97961379D01*
X172795773Y-97961379D01*
X172716884Y-98116209D01*
X172716883Y-98116211D01*
X172663185Y-98281475D01*
X172636000Y-98453116D01*
X172304500Y-98453116D01*
X172304500Y-98453074D01*
X172277303Y-98281362D01*
X172223580Y-98116019D01*
X172144653Y-97961116D01*
X172042465Y-97820467D01*
X172042463Y-97820464D01*
X171919535Y-97697536D01*
X171778887Y-97595349D01*
X171778886Y-97595348D01*
X171778884Y-97595347D01*
X171623981Y-97516420D01*
X171623978Y-97516419D01*
X171623976Y-97516418D01*
X171537064Y-97488179D01*
X171516333Y-97474003D01*
X171493488Y-97463570D01*
X171487540Y-97454315D01*
X171478458Y-97448105D01*
X171468680Y-97424969D01*
X171455104Y-97403844D01*
X171452706Y-97387171D01*
X171450821Y-97382709D01*
X171450000Y-97368346D01*
X171450000Y-97171653D01*
X171470002Y-97103532D01*
X171523658Y-97057039D01*
X171537055Y-97051823D01*
X171623981Y-97023580D01*
X171778884Y-96944653D01*
X171919533Y-96842465D01*
X172042465Y-96719533D01*
X172144653Y-96578884D01*
X172144652Y-96578884D01*
X172147563Y-96574879D01*
X172148751Y-96575742D01*
X172196526Y-96532529D01*
X172251301Y-96520000D01*
X172688699Y-96520000D01*
X172756820Y-96540002D01*
G37*
%TD.AperFunction*%
%TD*%
%TA.AperFunction,Conductor*%
%TO.N,Earth*%
G36*
X169482697Y-117220805D02*
G01*
X169526832Y-117239249D01*
X169545000Y-117283305D01*
X169545000Y-124778500D01*
X169526694Y-124822694D01*
X169482500Y-124841000D01*
X160274000Y-124841000D01*
X160257813Y-125541943D01*
X160238492Y-125585703D01*
X160195330Y-125603000D01*
X159284000Y-125603000D01*
X159239806Y-125584694D01*
X159221500Y-125540500D01*
X159221499Y-125047253D01*
X159221498Y-125047236D01*
X159220469Y-125037664D01*
X159215040Y-124987158D01*
X159164342Y-124851233D01*
X159077404Y-124735096D01*
X158961267Y-124648158D01*
X158961265Y-124648157D01*
X158961263Y-124648156D01*
X158825343Y-124597460D01*
X158765255Y-124591000D01*
X157718753Y-124591000D01*
X157718736Y-124591001D01*
X157658656Y-124597460D01*
X157522736Y-124648156D01*
X157522731Y-124648159D01*
X157406596Y-124735096D01*
X157319659Y-124851231D01*
X157319656Y-124851236D01*
X157268960Y-124987156D01*
X157268044Y-124995680D01*
X157245120Y-125037664D01*
X157205902Y-125051500D01*
X156738098Y-125051500D01*
X156693904Y-125033194D01*
X156675956Y-124995680D01*
X156675040Y-124987158D01*
X156624342Y-124851233D01*
X156537404Y-124735096D01*
X156421267Y-124648158D01*
X156421265Y-124648157D01*
X156421263Y-124648156D01*
X156285343Y-124597460D01*
X156225262Y-124591000D01*
X156225255Y-124591000D01*
X156209500Y-124591000D01*
X156165306Y-124572694D01*
X156147000Y-124528500D01*
X156147000Y-123654213D01*
X156165306Y-123610019D01*
X156361890Y-123413435D01*
X156815000Y-123413435D01*
X156815000Y-123982548D01*
X156815001Y-123982565D01*
X156821300Y-124041156D01*
X156821301Y-124041161D01*
X156870740Y-124173711D01*
X156870741Y-124173713D01*
X156870742Y-124173715D01*
X156955526Y-124286974D01*
X157068785Y-124371758D01*
X157201343Y-124421200D01*
X157259943Y-124427500D01*
X157954056Y-124427499D01*
X158012657Y-124421200D01*
X158145215Y-124371758D01*
X158258474Y-124286974D01*
X158343258Y-124173715D01*
X158392700Y-124041157D01*
X158399000Y-123982557D01*
X158398999Y-123413444D01*
X158398998Y-123413435D01*
X158540000Y-123413435D01*
X158540000Y-123982548D01*
X158540001Y-123982565D01*
X158546300Y-124041156D01*
X158546301Y-124041161D01*
X158595740Y-124173711D01*
X158595741Y-124173713D01*
X158595742Y-124173715D01*
X158680526Y-124286974D01*
X158793785Y-124371758D01*
X158926343Y-124421200D01*
X158984943Y-124427500D01*
X159679056Y-124427499D01*
X159737657Y-124421200D01*
X159870215Y-124371758D01*
X159983474Y-124286974D01*
X160068258Y-124173715D01*
X160117700Y-124041157D01*
X160124000Y-123982557D01*
X160123999Y-123413444D01*
X160117700Y-123354843D01*
X160068258Y-123222285D01*
X159983474Y-123109026D01*
X159870215Y-123024242D01*
X159870213Y-123024241D01*
X159870211Y-123024240D01*
X159737658Y-122974800D01*
X159679064Y-122968500D01*
X159679057Y-122968500D01*
X159554990Y-122968500D01*
X159510796Y-122950194D01*
X159492490Y-122906000D01*
X159492490Y-122746867D01*
X159510796Y-122702673D01*
X159518194Y-122696355D01*
X159563363Y-122651186D01*
X159608826Y-122605723D01*
X159666998Y-122491555D01*
X159682000Y-122396834D01*
X159682000Y-120583166D01*
X159682000Y-120583164D01*
X159843000Y-120583164D01*
X159843000Y-122396835D01*
X159858002Y-122491555D01*
X159858002Y-122491556D01*
X159916174Y-122605723D01*
X160010255Y-122699805D01*
X160009407Y-122700652D01*
X160031739Y-122737078D01*
X160032510Y-122746867D01*
X160032510Y-122853557D01*
X160057383Y-122946378D01*
X160057385Y-122946384D01*
X160070154Y-122968501D01*
X160070155Y-122968501D01*
X160105435Y-123029609D01*
X160479694Y-123403868D01*
X160498000Y-123448062D01*
X160498000Y-123982548D01*
X160498001Y-123982565D01*
X160504300Y-124041156D01*
X160504301Y-124041161D01*
X160553740Y-124173711D01*
X160553741Y-124173713D01*
X160553742Y-124173715D01*
X160638526Y-124286974D01*
X160751785Y-124371758D01*
X160884343Y-124421200D01*
X160942943Y-124427500D01*
X161637056Y-124427499D01*
X161695657Y-124421200D01*
X161828215Y-124371758D01*
X161941474Y-124286974D01*
X162026258Y-124173715D01*
X162075700Y-124041157D01*
X162082000Y-123982557D01*
X162081999Y-123432060D01*
X162100305Y-123387867D01*
X162144499Y-123369561D01*
X162188693Y-123387867D01*
X162204694Y-123403868D01*
X162223000Y-123448062D01*
X162223000Y-123982548D01*
X162223001Y-123982565D01*
X162229300Y-124041156D01*
X162229301Y-124041161D01*
X162278740Y-124173711D01*
X162278741Y-124173713D01*
X162278742Y-124173715D01*
X162363526Y-124286974D01*
X162476785Y-124371758D01*
X162609343Y-124421200D01*
X162667943Y-124427500D01*
X163362056Y-124427499D01*
X163420657Y-124421200D01*
X163553215Y-124371758D01*
X163666474Y-124286974D01*
X163751258Y-124173715D01*
X163800700Y-124041157D01*
X163807000Y-123982557D01*
X163806999Y-123413444D01*
X163800700Y-123354843D01*
X163751258Y-123222285D01*
X163666474Y-123109026D01*
X163553215Y-123024242D01*
X163553213Y-123024241D01*
X163553211Y-123024240D01*
X163420658Y-122974800D01*
X163362064Y-122968500D01*
X163362057Y-122968500D01*
X162827562Y-122968500D01*
X162783368Y-122950194D01*
X162708851Y-122875677D01*
X162690545Y-122831483D01*
X162708851Y-122787289D01*
X162753045Y-122768983D01*
X162753455Y-122768999D01*
X162810499Y-122768999D01*
X163064500Y-122768999D01*
X163119291Y-122768999D01*
X163119294Y-122768998D01*
X163213900Y-122754015D01*
X163327924Y-122695917D01*
X163418417Y-122605424D01*
X163476515Y-122491400D01*
X163476517Y-122491395D01*
X163491498Y-122396808D01*
X163491500Y-122396792D01*
X163491500Y-121617000D01*
X163064500Y-121617000D01*
X163064500Y-122768999D01*
X162810499Y-122768999D01*
X162810500Y-122768998D01*
X162810500Y-121617000D01*
X162383501Y-121617000D01*
X162383501Y-122399249D01*
X162381818Y-122399249D01*
X162368501Y-122440094D01*
X162325857Y-122461767D01*
X162280378Y-122446939D01*
X162276823Y-122443649D01*
X162240306Y-122407132D01*
X162222000Y-122362938D01*
X162222000Y-120583207D01*
X162383500Y-120583207D01*
X162383500Y-121363000D01*
X162810500Y-121363000D01*
X163064500Y-121363000D01*
X163491499Y-121363000D01*
X163491499Y-120583207D01*
X163491492Y-120583164D01*
X163653000Y-120583164D01*
X163653000Y-122396835D01*
X163668002Y-122491555D01*
X163668002Y-122491556D01*
X163701502Y-122557302D01*
X163726174Y-122605723D01*
X163816777Y-122696326D01*
X163930945Y-122754498D01*
X164025666Y-122769500D01*
X164025668Y-122769500D01*
X164389332Y-122769500D01*
X164389334Y-122769500D01*
X164484055Y-122754498D01*
X164598223Y-122696326D01*
X164688826Y-122605723D01*
X164746998Y-122491555D01*
X164762000Y-122396834D01*
X164762000Y-120583166D01*
X164746998Y-120488445D01*
X164746996Y-120488442D01*
X164746996Y-120488440D01*
X164726312Y-120447846D01*
X164719500Y-120419472D01*
X164719500Y-119960318D01*
X164737806Y-119916124D01*
X164795714Y-119858216D01*
X164871019Y-119727784D01*
X164910000Y-119582305D01*
X164910000Y-119431695D01*
X164871019Y-119286216D01*
X164795714Y-119155784D01*
X164795712Y-119155782D01*
X164795709Y-119155778D01*
X164689221Y-119049290D01*
X164689217Y-119049287D01*
X164689216Y-119049286D01*
X164624000Y-119011633D01*
X164558783Y-118973980D01*
X164558780Y-118973979D01*
X164413311Y-118935001D01*
X164413306Y-118935000D01*
X164413305Y-118935000D01*
X164262695Y-118935000D01*
X164262694Y-118935000D01*
X164262688Y-118935001D01*
X164117219Y-118973979D01*
X164117216Y-118973980D01*
X163986782Y-119049287D01*
X163986778Y-119049290D01*
X163880290Y-119155778D01*
X163880287Y-119155782D01*
X163804980Y-119286216D01*
X163804979Y-119286219D01*
X163766001Y-119431688D01*
X163766000Y-119431696D01*
X163766000Y-119582303D01*
X163766001Y-119582311D01*
X163804979Y-119727780D01*
X163804980Y-119727783D01*
X163804981Y-119727784D01*
X163880286Y-119858216D01*
X163938194Y-119916124D01*
X163956500Y-119960317D01*
X163956500Y-120174180D01*
X163938194Y-120218374D01*
X163922375Y-120229868D01*
X163816776Y-120283674D01*
X163726174Y-120374276D01*
X163668002Y-120488443D01*
X163668002Y-120488444D01*
X163653000Y-120583164D01*
X163491492Y-120583164D01*
X163476515Y-120488599D01*
X163418417Y-120374575D01*
X163327924Y-120284082D01*
X163213900Y-120225984D01*
X163213895Y-120225982D01*
X163119308Y-120211001D01*
X163119293Y-120211000D01*
X163064500Y-120211000D01*
X163064500Y-121363000D01*
X162810500Y-121363000D01*
X162810500Y-120211000D01*
X162755708Y-120211000D01*
X162755704Y-120211001D01*
X162661099Y-120225984D01*
X162547075Y-120284082D01*
X162456582Y-120374575D01*
X162398484Y-120488599D01*
X162398482Y-120488604D01*
X162383501Y-120583191D01*
X162383500Y-120583207D01*
X162222000Y-120583207D01*
X162222000Y-120583168D01*
X162222000Y-120583166D01*
X162206998Y-120488445D01*
X162148826Y-120374277D01*
X162058223Y-120283674D01*
X161944055Y-120225502D01*
X161849335Y-120210500D01*
X161849334Y-120210500D01*
X161485666Y-120210500D01*
X161485664Y-120210500D01*
X161390944Y-120225502D01*
X161390943Y-120225502D01*
X161276776Y-120283674D01*
X161186174Y-120374276D01*
X161128002Y-120488443D01*
X161128002Y-120488444D01*
X161113000Y-120583164D01*
X161113000Y-122396835D01*
X161128002Y-122491555D01*
X161128002Y-122491556D01*
X161161502Y-122557302D01*
X161186174Y-122605723D01*
X161276777Y-122696326D01*
X161390945Y-122754498D01*
X161485666Y-122769500D01*
X161544438Y-122769500D01*
X161588632Y-122787806D01*
X161662632Y-122861806D01*
X161680938Y-122906000D01*
X161662632Y-122950194D01*
X161618438Y-122968500D01*
X161102562Y-122968500D01*
X161058368Y-122950194D01*
X160840555Y-122732381D01*
X160822249Y-122688187D01*
X160840554Y-122643993D01*
X160878826Y-122605723D01*
X160936998Y-122491555D01*
X160952000Y-122396834D01*
X160952000Y-120583166D01*
X160936998Y-120488445D01*
X160878826Y-120374277D01*
X160788223Y-120283674D01*
X160674055Y-120225502D01*
X160579335Y-120210500D01*
X160579334Y-120210500D01*
X160215666Y-120210500D01*
X160215664Y-120210500D01*
X160120944Y-120225502D01*
X160120943Y-120225502D01*
X160006776Y-120283674D01*
X159916174Y-120374276D01*
X159858002Y-120488443D01*
X159858002Y-120488444D01*
X159843000Y-120583164D01*
X159682000Y-120583164D01*
X159666998Y-120488445D01*
X159608826Y-120374277D01*
X159518223Y-120283674D01*
X159404055Y-120225502D01*
X159309335Y-120210500D01*
X159309334Y-120210500D01*
X158945666Y-120210500D01*
X158945664Y-120210500D01*
X158850944Y-120225502D01*
X158850943Y-120225502D01*
X158736776Y-120283674D01*
X158646174Y-120374276D01*
X158588002Y-120488443D01*
X158588002Y-120488444D01*
X158573000Y-120583164D01*
X158573000Y-122396835D01*
X158588002Y-122491555D01*
X158588002Y-122491556D01*
X158646174Y-122605723D01*
X158740255Y-122699805D01*
X158739407Y-122700652D01*
X158761739Y-122737078D01*
X158762510Y-122746867D01*
X158762510Y-123016367D01*
X158744204Y-123060561D01*
X158737465Y-123066401D01*
X158680528Y-123109023D01*
X158680526Y-123109025D01*
X158595743Y-123222283D01*
X158595740Y-123222288D01*
X158546300Y-123354841D01*
X158540000Y-123413435D01*
X158398998Y-123413435D01*
X158392700Y-123354843D01*
X158343258Y-123222285D01*
X158258474Y-123109026D01*
X158258473Y-123109025D01*
X158258471Y-123109023D01*
X158247535Y-123100837D01*
X158223126Y-123059698D01*
X158222490Y-123050803D01*
X158222490Y-122746867D01*
X158240796Y-122702673D01*
X158248194Y-122696355D01*
X158293363Y-122651186D01*
X158338826Y-122605723D01*
X158396998Y-122491555D01*
X158412000Y-122396834D01*
X158412000Y-120583166D01*
X158396998Y-120488445D01*
X158338826Y-120374277D01*
X158248223Y-120283674D01*
X158134055Y-120225502D01*
X158039335Y-120210500D01*
X158039334Y-120210500D01*
X157675666Y-120210500D01*
X157675664Y-120210500D01*
X157580944Y-120225502D01*
X157580943Y-120225502D01*
X157466776Y-120283674D01*
X157376174Y-120374276D01*
X157318002Y-120488443D01*
X157318002Y-120488444D01*
X157303000Y-120583164D01*
X157303000Y-122396835D01*
X157318002Y-122491555D01*
X157318002Y-122491556D01*
X157376174Y-122605723D01*
X157470255Y-122699805D01*
X157469407Y-122700652D01*
X157491739Y-122737078D01*
X157492510Y-122746867D01*
X157492510Y-122906000D01*
X157474204Y-122950194D01*
X157430010Y-122968500D01*
X157259951Y-122968500D01*
X157259934Y-122968501D01*
X157201343Y-122974800D01*
X157201338Y-122974801D01*
X157068788Y-123024240D01*
X157068783Y-123024243D01*
X156955526Y-123109026D01*
X156870743Y-123222283D01*
X156870740Y-123222288D01*
X156821300Y-123354841D01*
X156815000Y-123413435D01*
X156361890Y-123413435D01*
X156943583Y-122831742D01*
X156943588Y-122831737D01*
X156979521Y-122769500D01*
X157002174Y-122730264D01*
X157019922Y-122664024D01*
X157021176Y-122660812D01*
X157025274Y-122656541D01*
X157035202Y-122639345D01*
X157068826Y-122605723D01*
X157126998Y-122491555D01*
X157142000Y-122396834D01*
X157142000Y-120583166D01*
X157126998Y-120488445D01*
X157068826Y-120374277D01*
X157068825Y-120374276D01*
X156987306Y-120292756D01*
X156969000Y-120248562D01*
X156969000Y-119948411D01*
X156987306Y-119904217D01*
X158127717Y-118763806D01*
X158171911Y-118745500D01*
X163986225Y-118745500D01*
X163986226Y-118745500D01*
X164083255Y-118719501D01*
X164170248Y-118669276D01*
X164241277Y-118598247D01*
X165612329Y-117227194D01*
X165656518Y-117208890D01*
X169482697Y-117220805D01*
G37*
%TD.AperFunction*%
%TA.AperFunction,Conductor*%
G36*
X164404791Y-117204992D02*
G01*
X164448928Y-117223436D01*
X164467096Y-117267687D01*
X164448790Y-117311686D01*
X163796284Y-117964194D01*
X163752090Y-117982500D01*
X157937770Y-117982500D01*
X157840748Y-118008498D01*
X157840746Y-118008498D01*
X157753751Y-118058725D01*
X156282225Y-119530251D01*
X156231998Y-119617246D01*
X156231998Y-119617248D01*
X156206000Y-119714270D01*
X156206000Y-120248562D01*
X156187694Y-120292756D01*
X156106174Y-120374276D01*
X156048002Y-120488443D01*
X156048002Y-120488444D01*
X156033000Y-120583164D01*
X156033000Y-122396837D01*
X156039891Y-122440349D01*
X156038687Y-122445362D01*
X156040660Y-122450125D01*
X156033246Y-122468024D01*
X156028723Y-122486863D01*
X156022354Y-122494319D01*
X155959372Y-122557301D01*
X155915179Y-122575607D01*
X155870985Y-122557302D01*
X155852679Y-122513107D01*
X155855738Y-122493792D01*
X155856517Y-122491392D01*
X155871498Y-122396808D01*
X155871500Y-122396792D01*
X155871500Y-121617000D01*
X155444500Y-121617000D01*
X155444500Y-122768999D01*
X155499291Y-122768999D01*
X155499294Y-122768998D01*
X155593898Y-122754015D01*
X155596291Y-122753238D01*
X155597972Y-122753370D01*
X155598757Y-122753246D01*
X155598786Y-122753434D01*
X155643979Y-122756988D01*
X155675048Y-122793361D01*
X155671298Y-122841049D01*
X155659802Y-122856872D01*
X155428764Y-123087911D01*
X155345915Y-123170758D01*
X155345912Y-123170762D01*
X155287325Y-123272236D01*
X155287324Y-123272239D01*
X155257001Y-123385408D01*
X155257000Y-123385416D01*
X155257000Y-124528500D01*
X155238694Y-124572694D01*
X155194504Y-124591000D01*
X155178755Y-124591000D01*
X155178736Y-124591001D01*
X155118656Y-124597460D01*
X154982736Y-124648156D01*
X154982731Y-124648159D01*
X154866596Y-124735096D01*
X154798534Y-124826017D01*
X154757395Y-124850426D01*
X154711045Y-124838596D01*
X154686636Y-124797457D01*
X154686000Y-124788562D01*
X154686000Y-122570220D01*
X154704306Y-122526026D01*
X154748500Y-122507720D01*
X154792694Y-122526026D01*
X154804188Y-122541846D01*
X154836582Y-122605424D01*
X154927075Y-122695917D01*
X155041099Y-122754015D01*
X155041104Y-122754017D01*
X155135691Y-122768998D01*
X155135706Y-122768999D01*
X155190499Y-122768999D01*
X155190500Y-122768998D01*
X155190500Y-121363000D01*
X155444500Y-121363000D01*
X155871499Y-121363000D01*
X155871499Y-120583209D01*
X155871498Y-120583205D01*
X155856515Y-120488599D01*
X155798417Y-120374575D01*
X155707924Y-120284082D01*
X155593900Y-120225984D01*
X155593895Y-120225982D01*
X155499308Y-120211001D01*
X155499293Y-120211000D01*
X155444500Y-120211000D01*
X155444500Y-121363000D01*
X155190500Y-121363000D01*
X155190500Y-120211000D01*
X155135708Y-120211000D01*
X155135704Y-120211001D01*
X155041099Y-120225984D01*
X154927075Y-120284082D01*
X154836582Y-120374575D01*
X154804188Y-120438153D01*
X154767813Y-120469220D01*
X154720126Y-120465467D01*
X154689059Y-120429092D01*
X154686000Y-120409779D01*
X154686000Y-117237421D01*
X154704306Y-117193227D01*
X154748500Y-117174921D01*
X154748616Y-117174921D01*
X164404791Y-117204992D01*
G37*
%TD.AperFunction*%
%TD*%
%TA.AperFunction,Conductor*%
%TO.N,Earth*%
G36*
X175837121Y-125115002D02*
G01*
X175883614Y-125168658D01*
X175895000Y-125221000D01*
X175895000Y-136533500D01*
X175874998Y-136601621D01*
X175821342Y-136648114D01*
X175769000Y-136659500D01*
X160781000Y-136659500D01*
X160712879Y-136639498D01*
X160666386Y-136585842D01*
X160655000Y-136533500D01*
X160655000Y-135191000D01*
X160675002Y-135122879D01*
X160728658Y-135076386D01*
X160781000Y-135065000D01*
X161230206Y-135065000D01*
X161298327Y-135085002D01*
X161344820Y-135138658D01*
X161351200Y-135155840D01*
X161359913Y-135185829D01*
X161377683Y-135246995D01*
X161458641Y-135383887D01*
X161458646Y-135383894D01*
X161571105Y-135496353D01*
X161571112Y-135496358D01*
X161708003Y-135577316D01*
X161708006Y-135577316D01*
X161708008Y-135577318D01*
X161860742Y-135621691D01*
X161896433Y-135624500D01*
X163273566Y-135624499D01*
X163309258Y-135621691D01*
X163461992Y-135577318D01*
X163461994Y-135577316D01*
X163461996Y-135577316D01*
X163530441Y-135536837D01*
X163598891Y-135496356D01*
X163711356Y-135383891D01*
X163711763Y-135383202D01*
X171766001Y-135383202D01*
X171766002Y-135383226D01*
X171772452Y-135443232D01*
X171772452Y-135443234D01*
X171823100Y-135579023D01*
X171909952Y-135695047D01*
X172025976Y-135781899D01*
X172025975Y-135781899D01*
X172161761Y-135832546D01*
X172161769Y-135832548D01*
X172221785Y-135838999D01*
X172466000Y-135838999D01*
X172974000Y-135838999D01*
X173218203Y-135838999D01*
X173218226Y-135838997D01*
X173278232Y-135832547D01*
X173278234Y-135832547D01*
X173414023Y-135781899D01*
X173530047Y-135695047D01*
X173616899Y-135579023D01*
X173667546Y-135443238D01*
X173667548Y-135443230D01*
X173673999Y-135383222D01*
X173674000Y-135383205D01*
X173674000Y-135264000D01*
X172974000Y-135264000D01*
X172974000Y-135838999D01*
X172466000Y-135838999D01*
X172466000Y-135264000D01*
X171766001Y-135264000D01*
X171766001Y-135383202D01*
X163711763Y-135383202D01*
X163792318Y-135246992D01*
X163792318Y-135246988D01*
X163792320Y-135246987D01*
X163844213Y-135198534D01*
X163914064Y-135185829D01*
X163972932Y-135210114D01*
X163973788Y-135208833D01*
X163978935Y-135212272D01*
X164103821Y-135295718D01*
X164242587Y-135353197D01*
X164389900Y-135382500D01*
X164540100Y-135382500D01*
X164687413Y-135353197D01*
X164826179Y-135295718D01*
X164951065Y-135212272D01*
X165057272Y-135106065D01*
X165140718Y-134981179D01*
X165198197Y-134842413D01*
X165227500Y-134695100D01*
X165227500Y-134636777D01*
X171766000Y-134636777D01*
X171766000Y-134756000D01*
X172466000Y-134756000D01*
X172974000Y-134756000D01*
X173673999Y-134756000D01*
X173673999Y-134636797D01*
X173673997Y-134636773D01*
X173667547Y-134576767D01*
X173667547Y-134576765D01*
X173616899Y-134440976D01*
X173530047Y-134324952D01*
X173414023Y-134238100D01*
X173414024Y-134238100D01*
X173278238Y-134187453D01*
X173278230Y-134187451D01*
X173218222Y-134181000D01*
X172974000Y-134181000D01*
X172974000Y-134756000D01*
X172466000Y-134756000D01*
X172466000Y-134181000D01*
X172221797Y-134181000D01*
X172221773Y-134181002D01*
X172161767Y-134187452D01*
X172161765Y-134187452D01*
X172025976Y-134238100D01*
X171909952Y-134324952D01*
X171823100Y-134440976D01*
X171772453Y-134576761D01*
X171772451Y-134576769D01*
X171766000Y-134636777D01*
X165227500Y-134636777D01*
X165227500Y-134544900D01*
X165198197Y-134397587D01*
X165140718Y-134258821D01*
X165057272Y-134133935D01*
X164951065Y-134027728D01*
X164826179Y-133944282D01*
X164687414Y-133886803D01*
X164540103Y-133857500D01*
X164540100Y-133857500D01*
X164389900Y-133857500D01*
X164389896Y-133857500D01*
X164242585Y-133886803D01*
X164242584Y-133886804D01*
X164103819Y-133944283D01*
X163973788Y-134031167D01*
X163972772Y-134029647D01*
X163915338Y-134054028D01*
X163845362Y-134042035D01*
X163792979Y-133994113D01*
X163792321Y-133993012D01*
X163711358Y-133856112D01*
X163711353Y-133856105D01*
X163625491Y-133770243D01*
X167631001Y-133770243D01*
X167641549Y-133873510D01*
X167696990Y-134040819D01*
X167789524Y-134190841D01*
X167789529Y-134190847D01*
X167914152Y-134315470D01*
X167914158Y-134315475D01*
X168064180Y-134408009D01*
X168231483Y-134463448D01*
X168231495Y-134463450D01*
X168334748Y-134473999D01*
X168631000Y-134473999D01*
X169139000Y-134473999D01*
X169435243Y-134473999D01*
X169538510Y-134463450D01*
X169705819Y-134408009D01*
X169855841Y-134315475D01*
X169855847Y-134315470D01*
X169980470Y-134190847D01*
X169980475Y-134190841D01*
X170073009Y-134040819D01*
X170128448Y-133873516D01*
X170128450Y-133873504D01*
X170138999Y-133770251D01*
X170139000Y-133770251D01*
X170139000Y-132574000D01*
X169139000Y-132574000D01*
X169139000Y-134473999D01*
X168631000Y-134473999D01*
X168631000Y-132574000D01*
X167631001Y-132574000D01*
X167631001Y-133770243D01*
X163625491Y-133770243D01*
X163598894Y-133743646D01*
X163598887Y-133743641D01*
X163461996Y-133662683D01*
X163309256Y-133618308D01*
X163273575Y-133615500D01*
X161896434Y-133615500D01*
X161860744Y-133618308D01*
X161708003Y-133662683D01*
X161571112Y-133743641D01*
X161571105Y-133743646D01*
X161458646Y-133856105D01*
X161458641Y-133856112D01*
X161377683Y-133993003D01*
X161351202Y-134084153D01*
X161312989Y-134143989D01*
X161248492Y-134173666D01*
X161230205Y-134175000D01*
X160781000Y-134175000D01*
X160712879Y-134154998D01*
X160666386Y-134101342D01*
X160655000Y-134049000D01*
X160655000Y-132758513D01*
X161331001Y-132758513D01*
X161333806Y-132794178D01*
X161378142Y-132946789D01*
X161459042Y-133083581D01*
X161459045Y-133083585D01*
X161571414Y-133195954D01*
X161571418Y-133195957D01*
X161708210Y-133276857D01*
X161860819Y-133321192D01*
X161860822Y-133321193D01*
X161896476Y-133323999D01*
X162331000Y-133323999D01*
X162839000Y-133323999D01*
X163273514Y-133323999D01*
X163309178Y-133321193D01*
X163461789Y-133276857D01*
X163598581Y-133195957D01*
X163598585Y-133195954D01*
X163710954Y-133083585D01*
X163710957Y-133083581D01*
X163791857Y-132946789D01*
X163836192Y-132794180D01*
X163836193Y-132794177D01*
X163839000Y-132758523D01*
X163839000Y-132574000D01*
X162839000Y-132574000D01*
X162839000Y-133323999D01*
X162331000Y-133323999D01*
X162331000Y-132574000D01*
X161331001Y-132574000D01*
X161331001Y-132758513D01*
X160655000Y-132758513D01*
X160655000Y-131881476D01*
X161331000Y-131881476D01*
X161331000Y-132066000D01*
X162331000Y-132066000D01*
X162839000Y-132066000D01*
X163838999Y-132066000D01*
X163838999Y-131881486D01*
X163836193Y-131845821D01*
X163791857Y-131693210D01*
X163710957Y-131556418D01*
X163710954Y-131556414D01*
X163598585Y-131444045D01*
X163598581Y-131444042D01*
X163461789Y-131363142D01*
X163309180Y-131318807D01*
X163309177Y-131318806D01*
X163273523Y-131316000D01*
X162839000Y-131316000D01*
X162839000Y-132066000D01*
X162331000Y-132066000D01*
X162331000Y-131316000D01*
X161896486Y-131316000D01*
X161860821Y-131318806D01*
X161708210Y-131363142D01*
X161571418Y-131444042D01*
X161571414Y-131444045D01*
X161459045Y-131556414D01*
X161459042Y-131556418D01*
X161378142Y-131693210D01*
X161333807Y-131845819D01*
X161333806Y-131845822D01*
X161331000Y-131881476D01*
X160655000Y-131881476D01*
X160655000Y-130873000D01*
X160675002Y-130804879D01*
X160728658Y-130758386D01*
X160781000Y-130747000D01*
X161369562Y-130747000D01*
X161437683Y-130767002D01*
X161458657Y-130783905D01*
X161571105Y-130896353D01*
X161571112Y-130896358D01*
X161708003Y-130977316D01*
X161708006Y-130977316D01*
X161708008Y-130977318D01*
X161860742Y-131021691D01*
X161896433Y-131024500D01*
X163273566Y-131024499D01*
X163309258Y-131021691D01*
X163461992Y-130977318D01*
X163461994Y-130977316D01*
X163461996Y-130977316D01*
X163530441Y-130936837D01*
X163598891Y-130896356D01*
X163625499Y-130869748D01*
X167631000Y-130869748D01*
X167631000Y-132066000D01*
X168631000Y-132066000D01*
X169139000Y-132066000D01*
X170138999Y-132066000D01*
X170138999Y-130869756D01*
X170128450Y-130766489D01*
X170073009Y-130599180D01*
X169980475Y-130449158D01*
X169980470Y-130449152D01*
X169855847Y-130324529D01*
X169855841Y-130324524D01*
X169705819Y-130231990D01*
X169538516Y-130176551D01*
X169538504Y-130176549D01*
X169435251Y-130166000D01*
X169139000Y-130166000D01*
X169139000Y-132066000D01*
X168631000Y-132066000D01*
X168631000Y-130166000D01*
X168334756Y-130166000D01*
X168231489Y-130176549D01*
X168064180Y-130231990D01*
X167914158Y-130324524D01*
X167914152Y-130324529D01*
X167789529Y-130449152D01*
X167789524Y-130449158D01*
X167696990Y-130599180D01*
X167641551Y-130766483D01*
X167641549Y-130766495D01*
X167631000Y-130869748D01*
X163625499Y-130869748D01*
X163711356Y-130783891D01*
X163726440Y-130758386D01*
X163792316Y-130646996D01*
X163792316Y-130646994D01*
X163792318Y-130646992D01*
X163836691Y-130494258D01*
X163839500Y-130458567D01*
X163839499Y-129581434D01*
X163836691Y-129545742D01*
X163792318Y-129393008D01*
X163792316Y-129393006D01*
X163792316Y-129393003D01*
X163711360Y-129256115D01*
X163711358Y-129256112D01*
X163711356Y-129256109D01*
X163711352Y-129256105D01*
X163711350Y-129256102D01*
X163639940Y-129184692D01*
X171341700Y-129184692D01*
X171341700Y-131970313D01*
X171358829Y-132034244D01*
X171358830Y-132034244D01*
X171358831Y-132034246D01*
X171365102Y-132057648D01*
X171385856Y-132093595D01*
X171407163Y-132130500D01*
X171410312Y-132135953D01*
X171732154Y-132457795D01*
X171766178Y-132520106D01*
X171768336Y-132560355D01*
X171765501Y-132586727D01*
X171765500Y-132586749D01*
X171765500Y-133333246D01*
X171765502Y-133333270D01*
X171771959Y-133393339D01*
X171771959Y-133393341D01*
X171822657Y-133529266D01*
X171822658Y-133529267D01*
X171909596Y-133645404D01*
X172025733Y-133732342D01*
X172161658Y-133783040D01*
X172221745Y-133789500D01*
X173218254Y-133789499D01*
X173278342Y-133783040D01*
X173414267Y-133732342D01*
X173530404Y-133645404D01*
X173617342Y-133529267D01*
X173668040Y-133393342D01*
X173674500Y-133333255D01*
X173674499Y-132586746D01*
X173668040Y-132526658D01*
X173617342Y-132390733D01*
X173530404Y-132274596D01*
X173414267Y-132187658D01*
X173414265Y-132187657D01*
X173414266Y-132187657D01*
X173278349Y-132136962D01*
X173278344Y-132136960D01*
X173278342Y-132136960D01*
X173268994Y-132135955D01*
X173218262Y-132130500D01*
X173218255Y-132130500D01*
X172428331Y-132130500D01*
X172360210Y-132110498D01*
X172339236Y-132093595D01*
X172065405Y-131819764D01*
X172031379Y-131757452D01*
X172028500Y-131730669D01*
X172028500Y-131218834D01*
X172048502Y-131150713D01*
X172102158Y-131104220D01*
X172167975Y-131093557D01*
X172176745Y-131094500D01*
X173173254Y-131094499D01*
X173233342Y-131088040D01*
X173369267Y-131037342D01*
X173485404Y-130950404D01*
X173490362Y-130943779D01*
X173547193Y-130901230D01*
X173618009Y-130896161D01*
X173661234Y-130914517D01*
X173755821Y-130977718D01*
X173894587Y-131035197D01*
X174041900Y-131064500D01*
X174192100Y-131064500D01*
X174339413Y-131035197D01*
X174478179Y-130977718D01*
X174603065Y-130894272D01*
X174709272Y-130788065D01*
X174792718Y-130663179D01*
X174850197Y-130524413D01*
X174879500Y-130377100D01*
X174879500Y-130226900D01*
X174850197Y-130079587D01*
X174792718Y-129940821D01*
X174709272Y-129815935D01*
X174603065Y-129709728D01*
X174478179Y-129626282D01*
X174339414Y-129568803D01*
X174192103Y-129539500D01*
X174192100Y-129539500D01*
X174041900Y-129539500D01*
X174041896Y-129539500D01*
X173894585Y-129568803D01*
X173894584Y-129568804D01*
X173755818Y-129626283D01*
X173723108Y-129648139D01*
X173655355Y-129669352D01*
X173586889Y-129650567D01*
X173552240Y-129618880D01*
X173525379Y-129582998D01*
X173485404Y-129529596D01*
X173369267Y-129442658D01*
X173369265Y-129442657D01*
X173369266Y-129442657D01*
X173233349Y-129391962D01*
X173233344Y-129391960D01*
X173233342Y-129391960D01*
X173225831Y-129391152D01*
X173173262Y-129385500D01*
X172319330Y-129385500D01*
X172297739Y-129379160D01*
X172275296Y-129377555D01*
X172264340Y-129369353D01*
X172251209Y-129365498D01*
X172236473Y-129348492D01*
X172218461Y-129335008D01*
X172213678Y-129322185D01*
X172204716Y-129311842D01*
X172201513Y-129289567D01*
X172193651Y-129268487D01*
X172196559Y-129255115D01*
X172194612Y-129241568D01*
X172203959Y-129221100D01*
X172208743Y-129199113D01*
X172222228Y-129181099D01*
X172224106Y-129176988D01*
X172230218Y-129170421D01*
X172269238Y-129131401D01*
X172331550Y-129097378D01*
X172358332Y-129094499D01*
X173173247Y-129094499D01*
X173173254Y-129094499D01*
X173233342Y-129088040D01*
X173369267Y-129037342D01*
X173485404Y-128950404D01*
X173572342Y-128834267D01*
X173623040Y-128698342D01*
X173629500Y-128638255D01*
X173629499Y-127841746D01*
X173623040Y-127781658D01*
X173572342Y-127645733D01*
X173485404Y-127529596D01*
X173369267Y-127442658D01*
X173369265Y-127442657D01*
X173369266Y-127442657D01*
X173233349Y-127391962D01*
X173233344Y-127391960D01*
X173233342Y-127391960D01*
X173203298Y-127388730D01*
X173173256Y-127385500D01*
X172176753Y-127385500D01*
X172176729Y-127385502D01*
X172116660Y-127391959D01*
X172116658Y-127391959D01*
X171980733Y-127442657D01*
X171864596Y-127529596D01*
X171777657Y-127645734D01*
X171726962Y-127781650D01*
X171726960Y-127781658D01*
X171720500Y-127841737D01*
X171720500Y-128638246D01*
X171720502Y-128638271D01*
X171720911Y-128642076D01*
X171708299Y-128711944D01*
X171684728Y-128744629D01*
X171410314Y-129019044D01*
X171410311Y-129019047D01*
X171365101Y-129097352D01*
X171365102Y-129097353D01*
X171342663Y-129181099D01*
X171341700Y-129184692D01*
X163639940Y-129184692D01*
X163598894Y-129143646D01*
X163598887Y-129143641D01*
X163461996Y-129062683D01*
X163309256Y-129018308D01*
X163273575Y-129015500D01*
X161896434Y-129015500D01*
X161860744Y-129018308D01*
X161708003Y-129062683D01*
X161571112Y-129143641D01*
X161571105Y-129143646D01*
X161458646Y-129256105D01*
X161458641Y-129256112D01*
X161377683Y-129393003D01*
X161377682Y-129393008D01*
X161343066Y-129512154D01*
X161304855Y-129571988D01*
X161240359Y-129601666D01*
X161222071Y-129603000D01*
X160781000Y-129603000D01*
X160712879Y-129582998D01*
X160666386Y-129529342D01*
X160655000Y-129477000D01*
X160655000Y-125221000D01*
X160675002Y-125152879D01*
X160728658Y-125106386D01*
X160781000Y-125095000D01*
X175769000Y-125095000D01*
X175837121Y-125115002D01*
G37*
%TD.AperFunction*%
%TD*%
%TA.AperFunction,Conductor*%
%TO.N,Net-(Q1-E)*%
G36*
X181553039Y-82569685D02*
G01*
X181598794Y-82622489D01*
X181610000Y-82674000D01*
X181610000Y-86360000D01*
X183403453Y-86360000D01*
X183470492Y-86379685D01*
X183516247Y-86432489D01*
X183526191Y-86501647D01*
X183510841Y-86545998D01*
X183510002Y-86547451D01*
X183510001Y-86547452D01*
X183510002Y-86547453D01*
X183486600Y-86634791D01*
X183486600Y-87566192D01*
X183466915Y-87633231D01*
X183420542Y-87675822D01*
X183415227Y-87678630D01*
X183304989Y-87759989D01*
X183223630Y-87870228D01*
X183178380Y-87999541D01*
X183178378Y-87999553D01*
X183175500Y-88030246D01*
X183175500Y-88639742D01*
X183175501Y-88639748D01*
X183178379Y-88670451D01*
X183178379Y-88670453D01*
X183178380Y-88670455D01*
X183223630Y-88799771D01*
X183304989Y-88910010D01*
X183360108Y-88950689D01*
X183415227Y-88991369D01*
X183454600Y-89005146D01*
X183544541Y-89036619D01*
X183544545Y-89036619D01*
X183544549Y-89036621D01*
X183575251Y-89039500D01*
X184084748Y-89039499D01*
X184115451Y-89036621D01*
X184244773Y-88991369D01*
X184355010Y-88910010D01*
X184436369Y-88799773D01*
X184481621Y-88670451D01*
X184484500Y-88639749D01*
X184484499Y-88030252D01*
X184481621Y-87999549D01*
X184436369Y-87870227D01*
X184384806Y-87800362D01*
X184355010Y-87759989D01*
X184244772Y-87678630D01*
X184239458Y-87675822D01*
X184189385Y-87627092D01*
X184173400Y-87566192D01*
X184173400Y-86873603D01*
X184193085Y-86806564D01*
X184209719Y-86785922D01*
X184599322Y-86396319D01*
X184626249Y-86381615D01*
X184652068Y-86365023D01*
X184658268Y-86364131D01*
X184660645Y-86362834D01*
X184687003Y-86360000D01*
X184795500Y-86360000D01*
X184862539Y-86379685D01*
X184908294Y-86432489D01*
X184919500Y-86484000D01*
X184919500Y-90046000D01*
X184899815Y-90113039D01*
X184847011Y-90158794D01*
X184795500Y-90170000D01*
X183459376Y-90170000D01*
X183392337Y-90150315D01*
X183385752Y-90145777D01*
X183294773Y-90078631D01*
X183294771Y-90078630D01*
X183165458Y-90033380D01*
X183165446Y-90033378D01*
X183134753Y-90030500D01*
X182625257Y-90030500D01*
X182609900Y-90031940D01*
X182594549Y-90033379D01*
X182594546Y-90033379D01*
X182594544Y-90033380D01*
X182465228Y-90078630D01*
X182465227Y-90078631D01*
X182374256Y-90145770D01*
X182308629Y-90169741D01*
X182300624Y-90170000D01*
X179649376Y-90170000D01*
X179582337Y-90150315D01*
X179575752Y-90145777D01*
X179484773Y-90078631D01*
X179484771Y-90078630D01*
X179355458Y-90033380D01*
X179355446Y-90033378D01*
X179324753Y-90030500D01*
X178815257Y-90030500D01*
X178799900Y-90031940D01*
X178784549Y-90033379D01*
X178784546Y-90033379D01*
X178784544Y-90033380D01*
X178655228Y-90078630D01*
X178655227Y-90078631D01*
X178564256Y-90145770D01*
X178498629Y-90169741D01*
X178490624Y-90170000D01*
X175839376Y-90170000D01*
X175772337Y-90150315D01*
X175765752Y-90145777D01*
X175674773Y-90078631D01*
X175674771Y-90078630D01*
X175545458Y-90033380D01*
X175545446Y-90033378D01*
X175514753Y-90030500D01*
X175005257Y-90030500D01*
X174989900Y-90031940D01*
X174974549Y-90033379D01*
X174974546Y-90033379D01*
X174974544Y-90033380D01*
X174845228Y-90078630D01*
X174845227Y-90078631D01*
X174754256Y-90145770D01*
X174688629Y-90169741D01*
X174680624Y-90170000D01*
X172029376Y-90170000D01*
X171962337Y-90150315D01*
X171955752Y-90145777D01*
X171864773Y-90078631D01*
X171864771Y-90078630D01*
X171735458Y-90033380D01*
X171735446Y-90033378D01*
X171704753Y-90030500D01*
X171195257Y-90030500D01*
X171179900Y-90031940D01*
X171164549Y-90033379D01*
X171164546Y-90033379D01*
X171164544Y-90033380D01*
X171035228Y-90078630D01*
X171035227Y-90078631D01*
X170944256Y-90145770D01*
X170878629Y-90169741D01*
X170870624Y-90170000D01*
X168219376Y-90170000D01*
X168152337Y-90150315D01*
X168145752Y-90145777D01*
X168054773Y-90078631D01*
X168054771Y-90078630D01*
X167925458Y-90033380D01*
X167925446Y-90033378D01*
X167894753Y-90030500D01*
X167385257Y-90030500D01*
X167369900Y-90031940D01*
X167354549Y-90033379D01*
X167354546Y-90033379D01*
X167354544Y-90033380D01*
X167225228Y-90078630D01*
X167225227Y-90078631D01*
X167134256Y-90145770D01*
X167068629Y-90169741D01*
X167060624Y-90170000D01*
X164409376Y-90170000D01*
X164342337Y-90150315D01*
X164335752Y-90145777D01*
X164244773Y-90078631D01*
X164244771Y-90078630D01*
X164115458Y-90033380D01*
X164115446Y-90033378D01*
X164084753Y-90030500D01*
X163575257Y-90030500D01*
X163559900Y-90031940D01*
X163544549Y-90033379D01*
X163544546Y-90033379D01*
X163544544Y-90033380D01*
X163415228Y-90078630D01*
X163415227Y-90078631D01*
X163324256Y-90145770D01*
X163258629Y-90169741D01*
X163250624Y-90170000D01*
X160599376Y-90170000D01*
X160532337Y-90150315D01*
X160525752Y-90145777D01*
X160434773Y-90078631D01*
X160434771Y-90078630D01*
X160305458Y-90033380D01*
X160305446Y-90033378D01*
X160274753Y-90030500D01*
X159765257Y-90030500D01*
X159749900Y-90031940D01*
X159734549Y-90033379D01*
X159734546Y-90033379D01*
X159734544Y-90033380D01*
X159605228Y-90078630D01*
X159605227Y-90078631D01*
X159514256Y-90145770D01*
X159448629Y-90169741D01*
X159440624Y-90170000D01*
X156789376Y-90170000D01*
X156722337Y-90150315D01*
X156715752Y-90145777D01*
X156624773Y-90078631D01*
X156624771Y-90078630D01*
X156495458Y-90033380D01*
X156495446Y-90033378D01*
X156464753Y-90030500D01*
X155955257Y-90030500D01*
X155939900Y-90031940D01*
X155924549Y-90033379D01*
X155924546Y-90033379D01*
X155924544Y-90033380D01*
X155795228Y-90078630D01*
X155795227Y-90078631D01*
X155704256Y-90145770D01*
X155638629Y-90169741D01*
X155630624Y-90170000D01*
X155064000Y-90170000D01*
X154996961Y-90150315D01*
X154951206Y-90097511D01*
X154940000Y-90046000D01*
X154940000Y-89163000D01*
X154959685Y-89095961D01*
X155012489Y-89050206D01*
X155064000Y-89039000D01*
X155133000Y-89039000D01*
X155387000Y-89039000D01*
X155514690Y-89039000D01*
X155545352Y-89036124D01*
X155545364Y-89036122D01*
X155674536Y-88990921D01*
X155674537Y-88990921D01*
X155784652Y-88909653D01*
X155784653Y-88909652D01*
X155865921Y-88799537D01*
X155865921Y-88799536D01*
X155911122Y-88670364D01*
X155911124Y-88670352D01*
X155914000Y-88639690D01*
X155914000Y-88462000D01*
X155387000Y-88462000D01*
X155387000Y-89039000D01*
X155133000Y-89039000D01*
X155133000Y-88208000D01*
X155387000Y-88208000D01*
X155914000Y-88208000D01*
X155914000Y-88030309D01*
X155911124Y-87999647D01*
X155911122Y-87999635D01*
X155865921Y-87870463D01*
X155865921Y-87870462D01*
X155784653Y-87760347D01*
X155784652Y-87760346D01*
X155674536Y-87679078D01*
X155545364Y-87633877D01*
X155545352Y-87633875D01*
X155514690Y-87631000D01*
X155387000Y-87631000D01*
X155387000Y-88208000D01*
X155133000Y-88208000D01*
X155133000Y-87631000D01*
X155064000Y-87631000D01*
X154996961Y-87611315D01*
X154951206Y-87558511D01*
X154940000Y-87507000D01*
X154940000Y-86484000D01*
X154959685Y-86416961D01*
X155012489Y-86371206D01*
X155064000Y-86360000D01*
X157075997Y-86360000D01*
X157143036Y-86379685D01*
X157188791Y-86432489D01*
X157198735Y-86501647D01*
X157169710Y-86565203D01*
X157163678Y-86571681D01*
X156885214Y-86850144D01*
X156885210Y-86850150D01*
X156840000Y-86928454D01*
X156839999Y-86928457D01*
X156833730Y-86951851D01*
X156833731Y-86951852D01*
X156816600Y-87015785D01*
X156816600Y-87566192D01*
X156796915Y-87633231D01*
X156750542Y-87675822D01*
X156745227Y-87678630D01*
X156634989Y-87759989D01*
X156553630Y-87870228D01*
X156508380Y-87999541D01*
X156508378Y-87999553D01*
X156505500Y-88030246D01*
X156505500Y-88639742D01*
X156505501Y-88639748D01*
X156508379Y-88670451D01*
X156508379Y-88670453D01*
X156508380Y-88670455D01*
X156553630Y-88799771D01*
X156634989Y-88910010D01*
X156690108Y-88950689D01*
X156745227Y-88991369D01*
X156784600Y-89005146D01*
X156874541Y-89036619D01*
X156874545Y-89036619D01*
X156874549Y-89036621D01*
X156905251Y-89039500D01*
X157414748Y-89039499D01*
X157445451Y-89036621D01*
X157574773Y-88991369D01*
X157685010Y-88910010D01*
X157766369Y-88799773D01*
X157811621Y-88670451D01*
X157814500Y-88639749D01*
X157814500Y-88639690D01*
X158416000Y-88639690D01*
X158418875Y-88670352D01*
X158418877Y-88670364D01*
X158464078Y-88799536D01*
X158464078Y-88799537D01*
X158545346Y-88909652D01*
X158545347Y-88909653D01*
X158655463Y-88990921D01*
X158784635Y-89036122D01*
X158784647Y-89036124D01*
X158815310Y-89039000D01*
X158943000Y-89039000D01*
X159197000Y-89039000D01*
X159324690Y-89039000D01*
X159355352Y-89036124D01*
X159355364Y-89036122D01*
X159484536Y-88990921D01*
X159484537Y-88990921D01*
X159594652Y-88909653D01*
X159594653Y-88909652D01*
X159675921Y-88799537D01*
X159675921Y-88799536D01*
X159721122Y-88670364D01*
X159721124Y-88670352D01*
X159724000Y-88639690D01*
X159724000Y-88462000D01*
X159197000Y-88462000D01*
X159197000Y-89039000D01*
X158943000Y-89039000D01*
X158943000Y-88462000D01*
X158416000Y-88462000D01*
X158416000Y-88639690D01*
X157814500Y-88639690D01*
X157814499Y-88030309D01*
X158416000Y-88030309D01*
X158416000Y-88208000D01*
X158943000Y-88208000D01*
X159197000Y-88208000D01*
X159724000Y-88208000D01*
X159724000Y-88030309D01*
X159721124Y-87999647D01*
X159721122Y-87999635D01*
X159675921Y-87870463D01*
X159675921Y-87870462D01*
X159594653Y-87760347D01*
X159594652Y-87760346D01*
X159484536Y-87679078D01*
X159355364Y-87633877D01*
X159355352Y-87633875D01*
X159324690Y-87631000D01*
X159197000Y-87631000D01*
X159197000Y-88208000D01*
X158943000Y-88208000D01*
X158943000Y-87631000D01*
X158815310Y-87631000D01*
X158784647Y-87633875D01*
X158784635Y-87633877D01*
X158655463Y-87679078D01*
X158655462Y-87679078D01*
X158545347Y-87760346D01*
X158545346Y-87760347D01*
X158464078Y-87870462D01*
X158464078Y-87870463D01*
X158418877Y-87999635D01*
X158418875Y-87999647D01*
X158416000Y-88030309D01*
X157814499Y-88030309D01*
X157814499Y-88030252D01*
X157811621Y-87999549D01*
X157766369Y-87870227D01*
X157714806Y-87800362D01*
X157685010Y-87759989D01*
X157574772Y-87678630D01*
X157569458Y-87675822D01*
X157519385Y-87627092D01*
X157503400Y-87566192D01*
X157503400Y-87254602D01*
X157523085Y-87187563D01*
X157539714Y-87166926D01*
X158310321Y-86396318D01*
X158371644Y-86362834D01*
X158398002Y-86360000D01*
X159228997Y-86360000D01*
X159296036Y-86379685D01*
X159316678Y-86396319D01*
X160478519Y-87558160D01*
X160512004Y-87619483D01*
X160507020Y-87689175D01*
X160465148Y-87745108D01*
X160464473Y-87745611D01*
X160444988Y-87759991D01*
X160363630Y-87870228D01*
X160318380Y-87999541D01*
X160318378Y-87999553D01*
X160315500Y-88030246D01*
X160315500Y-88639742D01*
X160315501Y-88639748D01*
X160318379Y-88670451D01*
X160318379Y-88670453D01*
X160318380Y-88670455D01*
X160363630Y-88799771D01*
X160444989Y-88910010D01*
X160500108Y-88950689D01*
X160555227Y-88991369D01*
X160594600Y-89005146D01*
X160684541Y-89036619D01*
X160684545Y-89036619D01*
X160684549Y-89036621D01*
X160715251Y-89039500D01*
X161224748Y-89039499D01*
X161255451Y-89036621D01*
X161384773Y-88991369D01*
X161495010Y-88910010D01*
X161576369Y-88799773D01*
X161621621Y-88670451D01*
X161624500Y-88639749D01*
X161624500Y-88639690D01*
X162226000Y-88639690D01*
X162228875Y-88670352D01*
X162228877Y-88670364D01*
X162274078Y-88799536D01*
X162274078Y-88799537D01*
X162355346Y-88909652D01*
X162355347Y-88909653D01*
X162465463Y-88990921D01*
X162594635Y-89036122D01*
X162594647Y-89036124D01*
X162625310Y-89039000D01*
X162753000Y-89039000D01*
X163007000Y-89039000D01*
X163134690Y-89039000D01*
X163165352Y-89036124D01*
X163165364Y-89036122D01*
X163294536Y-88990921D01*
X163294537Y-88990921D01*
X163404652Y-88909653D01*
X163404653Y-88909652D01*
X163485921Y-88799537D01*
X163485921Y-88799536D01*
X163531122Y-88670364D01*
X163531124Y-88670352D01*
X163534000Y-88639690D01*
X163534000Y-88462000D01*
X163007000Y-88462000D01*
X163007000Y-89039000D01*
X162753000Y-89039000D01*
X162753000Y-88462000D01*
X162226000Y-88462000D01*
X162226000Y-88639690D01*
X161624500Y-88639690D01*
X161624499Y-88030309D01*
X162226000Y-88030309D01*
X162226000Y-88208000D01*
X162753000Y-88208000D01*
X163007000Y-88208000D01*
X163534000Y-88208000D01*
X163534000Y-88030309D01*
X163531124Y-87999647D01*
X163531122Y-87999635D01*
X163485921Y-87870463D01*
X163485921Y-87870462D01*
X163404653Y-87760347D01*
X163404652Y-87760346D01*
X163294536Y-87679078D01*
X163165364Y-87633877D01*
X163165352Y-87633875D01*
X163134690Y-87631000D01*
X163007000Y-87631000D01*
X163007000Y-88208000D01*
X162753000Y-88208000D01*
X162753000Y-87631000D01*
X162625310Y-87631000D01*
X162594647Y-87633875D01*
X162594635Y-87633877D01*
X162465463Y-87679078D01*
X162465462Y-87679078D01*
X162355347Y-87760346D01*
X162355346Y-87760347D01*
X162274078Y-87870462D01*
X162274078Y-87870463D01*
X162228877Y-87999635D01*
X162228875Y-87999647D01*
X162226000Y-88030309D01*
X161624499Y-88030309D01*
X161624499Y-88030252D01*
X161621621Y-87999549D01*
X161576369Y-87870227D01*
X161524806Y-87800362D01*
X161495010Y-87759989D01*
X161384772Y-87678630D01*
X161379458Y-87675822D01*
X161329385Y-87627092D01*
X161315016Y-87586144D01*
X161313400Y-87576231D01*
X161313400Y-87518791D01*
X161289998Y-87431453D01*
X161289998Y-87431452D01*
X161244788Y-87353147D01*
X160463322Y-86571681D01*
X160429837Y-86510358D01*
X160434821Y-86440666D01*
X160476693Y-86384733D01*
X160542157Y-86360316D01*
X160551003Y-86360000D01*
X163165997Y-86360000D01*
X163233036Y-86379685D01*
X163253678Y-86396319D01*
X164361590Y-87504231D01*
X164395075Y-87565554D01*
X164390091Y-87635246D01*
X164348219Y-87691179D01*
X164347543Y-87691682D01*
X164254989Y-87759989D01*
X164173630Y-87870228D01*
X164128380Y-87999541D01*
X164128378Y-87999553D01*
X164125500Y-88030246D01*
X164125500Y-88639742D01*
X164125501Y-88639748D01*
X164128379Y-88670451D01*
X164128379Y-88670453D01*
X164128380Y-88670455D01*
X164173630Y-88799771D01*
X164254989Y-88910010D01*
X164310108Y-88950689D01*
X164365227Y-88991369D01*
X164404600Y-89005146D01*
X164494541Y-89036619D01*
X164494545Y-89036619D01*
X164494549Y-89036621D01*
X164525251Y-89039500D01*
X165034748Y-89039499D01*
X165065451Y-89036621D01*
X165194773Y-88991369D01*
X165305010Y-88910010D01*
X165386369Y-88799773D01*
X165431621Y-88670451D01*
X165434500Y-88639749D01*
X165434500Y-88639690D01*
X166036000Y-88639690D01*
X166038875Y-88670352D01*
X166038877Y-88670364D01*
X166084078Y-88799536D01*
X166084078Y-88799537D01*
X166165346Y-88909652D01*
X166165347Y-88909653D01*
X166275463Y-88990921D01*
X166404635Y-89036122D01*
X166404647Y-89036124D01*
X166435310Y-89039000D01*
X166563000Y-89039000D01*
X166817000Y-89039000D01*
X166944690Y-89039000D01*
X166975352Y-89036124D01*
X166975364Y-89036122D01*
X167104536Y-88990921D01*
X167104537Y-88990921D01*
X167214652Y-88909653D01*
X167214653Y-88909652D01*
X167295921Y-88799537D01*
X167295921Y-88799536D01*
X167341122Y-88670364D01*
X167341124Y-88670352D01*
X167344000Y-88639690D01*
X167344000Y-88462000D01*
X166817000Y-88462000D01*
X166817000Y-89039000D01*
X166563000Y-89039000D01*
X166563000Y-88462000D01*
X166036000Y-88462000D01*
X166036000Y-88639690D01*
X165434500Y-88639690D01*
X165434499Y-88030309D01*
X166036000Y-88030309D01*
X166036000Y-88208000D01*
X166563000Y-88208000D01*
X166817000Y-88208000D01*
X167344000Y-88208000D01*
X167344000Y-88030309D01*
X167341124Y-87999647D01*
X167341122Y-87999635D01*
X167295921Y-87870463D01*
X167295921Y-87870462D01*
X167214653Y-87760347D01*
X167214652Y-87760346D01*
X167104536Y-87679078D01*
X166975364Y-87633877D01*
X166975352Y-87633875D01*
X166944690Y-87631000D01*
X166817000Y-87631000D01*
X166817000Y-88208000D01*
X166563000Y-88208000D01*
X166563000Y-87631000D01*
X166435310Y-87631000D01*
X166404647Y-87633875D01*
X166404635Y-87633877D01*
X166275463Y-87679078D01*
X166275462Y-87679078D01*
X166165347Y-87760346D01*
X166165346Y-87760347D01*
X166084078Y-87870462D01*
X166084078Y-87870463D01*
X166038877Y-87999635D01*
X166038875Y-87999647D01*
X166036000Y-88030309D01*
X165434499Y-88030309D01*
X165434499Y-88030252D01*
X165431621Y-87999549D01*
X165386369Y-87870227D01*
X165334806Y-87800362D01*
X165305010Y-87759989D01*
X165194772Y-87678630D01*
X165189458Y-87675822D01*
X165139385Y-87627092D01*
X165123400Y-87566192D01*
X165123400Y-87391793D01*
X165123400Y-87391791D01*
X165099998Y-87304453D01*
X165080889Y-87271357D01*
X165054788Y-87226147D01*
X165054786Y-87226145D01*
X165054785Y-87226143D01*
X165054784Y-87226142D01*
X164400322Y-86571681D01*
X164366837Y-86510358D01*
X164371821Y-86440667D01*
X164413692Y-86384733D01*
X164479157Y-86360316D01*
X164488003Y-86360000D01*
X166864753Y-86360000D01*
X166931792Y-86379685D01*
X166952434Y-86396319D01*
X168107584Y-87551469D01*
X168141069Y-87612792D01*
X168136085Y-87682484D01*
X168094213Y-87738417D01*
X168093539Y-87738919D01*
X168064989Y-87759990D01*
X167983630Y-87870228D01*
X167938380Y-87999541D01*
X167938378Y-87999553D01*
X167935500Y-88030246D01*
X167935500Y-88639742D01*
X167935501Y-88639748D01*
X167938379Y-88670451D01*
X167938379Y-88670453D01*
X167938380Y-88670455D01*
X167983630Y-88799771D01*
X168064989Y-88910010D01*
X168120108Y-88950689D01*
X168175227Y-88991369D01*
X168214600Y-89005146D01*
X168304541Y-89036619D01*
X168304545Y-89036619D01*
X168304549Y-89036621D01*
X168335251Y-89039500D01*
X168844748Y-89039499D01*
X168875451Y-89036621D01*
X169004773Y-88991369D01*
X169115010Y-88910010D01*
X169196369Y-88799773D01*
X169241621Y-88670451D01*
X169244500Y-88639749D01*
X169244500Y-88639690D01*
X169846000Y-88639690D01*
X169848875Y-88670352D01*
X169848877Y-88670364D01*
X169894078Y-88799536D01*
X169894078Y-88799537D01*
X169975346Y-88909652D01*
X169975347Y-88909653D01*
X170085463Y-88990921D01*
X170214635Y-89036122D01*
X170214647Y-89036124D01*
X170245310Y-89039000D01*
X170373000Y-89039000D01*
X170627000Y-89039000D01*
X170754690Y-89039000D01*
X170785352Y-89036124D01*
X170785364Y-89036122D01*
X170914536Y-88990921D01*
X170914537Y-88990921D01*
X171024652Y-88909653D01*
X171024653Y-88909652D01*
X171105921Y-88799537D01*
X171105921Y-88799536D01*
X171151122Y-88670364D01*
X171151124Y-88670352D01*
X171154000Y-88639690D01*
X171154000Y-88462000D01*
X170627000Y-88462000D01*
X170627000Y-89039000D01*
X170373000Y-89039000D01*
X170373000Y-88462000D01*
X169846000Y-88462000D01*
X169846000Y-88639690D01*
X169244500Y-88639690D01*
X169244499Y-88030309D01*
X169846000Y-88030309D01*
X169846000Y-88208000D01*
X170373000Y-88208000D01*
X170373000Y-87631000D01*
X170245310Y-87631000D01*
X170214647Y-87633875D01*
X170214635Y-87633877D01*
X170085463Y-87679078D01*
X170085462Y-87679078D01*
X169975347Y-87760346D01*
X169975346Y-87760347D01*
X169894078Y-87870462D01*
X169894078Y-87870463D01*
X169848877Y-87999635D01*
X169848875Y-87999647D01*
X169846000Y-88030309D01*
X169244499Y-88030309D01*
X169244499Y-88030252D01*
X169241621Y-87999549D01*
X169196369Y-87870227D01*
X169144806Y-87800362D01*
X169115010Y-87759989D01*
X169004772Y-87678630D01*
X168999458Y-87675822D01*
X168949385Y-87627092D01*
X168933400Y-87566192D01*
X168933400Y-87503037D01*
X168933400Y-87503035D01*
X168909998Y-87415697D01*
X168873885Y-87353148D01*
X168864788Y-87337391D01*
X168099078Y-86571681D01*
X168065593Y-86510358D01*
X168070577Y-86440666D01*
X168112449Y-86384733D01*
X168177913Y-86360316D01*
X168186759Y-86360000D01*
X169887997Y-86360000D01*
X169955036Y-86379685D01*
X169975678Y-86396319D01*
X171062210Y-87482851D01*
X171095695Y-87544174D01*
X171090711Y-87613866D01*
X171048839Y-87669799D01*
X170983375Y-87694216D01*
X170923492Y-87681615D01*
X170923307Y-87682147D01*
X170919216Y-87680715D01*
X170916590Y-87680163D01*
X170914537Y-87679078D01*
X170785364Y-87633877D01*
X170785352Y-87633875D01*
X170754690Y-87631000D01*
X170627000Y-87631000D01*
X170627000Y-88208000D01*
X171154000Y-88208000D01*
X171154000Y-88030309D01*
X171151124Y-87999647D01*
X171151122Y-87999635D01*
X171105922Y-87870464D01*
X171104838Y-87868413D01*
X171104329Y-87865912D01*
X171102853Y-87861693D01*
X171103430Y-87861490D01*
X171090915Y-87799945D01*
X171116218Y-87734818D01*
X171172716Y-87693710D01*
X171242469Y-87689673D01*
X171302148Y-87722789D01*
X171709181Y-88129822D01*
X171742666Y-88191145D01*
X171745500Y-88217503D01*
X171745500Y-88639742D01*
X171745501Y-88639748D01*
X171748379Y-88670451D01*
X171748379Y-88670453D01*
X171748380Y-88670455D01*
X171793630Y-88799771D01*
X171874989Y-88910010D01*
X171930108Y-88950689D01*
X171985227Y-88991369D01*
X172024600Y-89005146D01*
X172114541Y-89036619D01*
X172114545Y-89036619D01*
X172114549Y-89036621D01*
X172145251Y-89039500D01*
X172654748Y-89039499D01*
X172685451Y-89036621D01*
X172814773Y-88991369D01*
X172925010Y-88910010D01*
X173006369Y-88799773D01*
X173051621Y-88670451D01*
X173054500Y-88639749D01*
X173054500Y-88639690D01*
X173656000Y-88639690D01*
X173658875Y-88670352D01*
X173658877Y-88670364D01*
X173704078Y-88799536D01*
X173704078Y-88799537D01*
X173785346Y-88909652D01*
X173785347Y-88909653D01*
X173895463Y-88990921D01*
X174024635Y-89036122D01*
X174024647Y-89036124D01*
X174055310Y-89039000D01*
X174183000Y-89039000D01*
X174437000Y-89039000D01*
X174564690Y-89039000D01*
X174595352Y-89036124D01*
X174595364Y-89036122D01*
X174724536Y-88990921D01*
X174724537Y-88990921D01*
X174834652Y-88909653D01*
X174834653Y-88909652D01*
X174915921Y-88799537D01*
X174915921Y-88799536D01*
X174961122Y-88670364D01*
X174961124Y-88670352D01*
X174964000Y-88639690D01*
X174964000Y-88462000D01*
X174437000Y-88462000D01*
X174437000Y-89039000D01*
X174183000Y-89039000D01*
X174183000Y-88462000D01*
X173656000Y-88462000D01*
X173656000Y-88639690D01*
X173054500Y-88639690D01*
X173054499Y-88030309D01*
X173656000Y-88030309D01*
X173656000Y-88208000D01*
X174183000Y-88208000D01*
X174437000Y-88208000D01*
X174964000Y-88208000D01*
X174964000Y-88030309D01*
X174963994Y-88030246D01*
X175555500Y-88030246D01*
X175555500Y-88639742D01*
X175555501Y-88639748D01*
X175558379Y-88670451D01*
X175558379Y-88670453D01*
X175558380Y-88670455D01*
X175603630Y-88799771D01*
X175684989Y-88910010D01*
X175740108Y-88950689D01*
X175795227Y-88991369D01*
X175834600Y-89005146D01*
X175924541Y-89036619D01*
X175924545Y-89036619D01*
X175924549Y-89036621D01*
X175955251Y-89039500D01*
X176464748Y-89039499D01*
X176495451Y-89036621D01*
X176624773Y-88991369D01*
X176735010Y-88910010D01*
X176816369Y-88799773D01*
X176861621Y-88670451D01*
X176864500Y-88639749D01*
X176864500Y-88639690D01*
X177466000Y-88639690D01*
X177468875Y-88670352D01*
X177468877Y-88670364D01*
X177514078Y-88799536D01*
X177514078Y-88799537D01*
X177595346Y-88909652D01*
X177595347Y-88909653D01*
X177705463Y-88990921D01*
X177834635Y-89036122D01*
X177834647Y-89036124D01*
X177865310Y-89039000D01*
X177993000Y-89039000D01*
X178247000Y-89039000D01*
X178374690Y-89039000D01*
X178405352Y-89036124D01*
X178405364Y-89036122D01*
X178534536Y-88990921D01*
X178534537Y-88990921D01*
X178644652Y-88909653D01*
X178644653Y-88909652D01*
X178725921Y-88799537D01*
X178725921Y-88799536D01*
X178771122Y-88670364D01*
X178771124Y-88670352D01*
X178774000Y-88639690D01*
X178774000Y-88462000D01*
X178247000Y-88462000D01*
X178247000Y-89039000D01*
X177993000Y-89039000D01*
X177993000Y-88462000D01*
X177466000Y-88462000D01*
X177466000Y-88639690D01*
X176864500Y-88639690D01*
X176864499Y-88030309D01*
X177466000Y-88030309D01*
X177466000Y-88208000D01*
X177993000Y-88208000D01*
X178247000Y-88208000D01*
X178774000Y-88208000D01*
X178774000Y-88030309D01*
X178773994Y-88030246D01*
X179365500Y-88030246D01*
X179365500Y-88639742D01*
X179365501Y-88639748D01*
X179368379Y-88670451D01*
X179368379Y-88670453D01*
X179368380Y-88670455D01*
X179413630Y-88799771D01*
X179494989Y-88910010D01*
X179550108Y-88950689D01*
X179605227Y-88991369D01*
X179644600Y-89005146D01*
X179734541Y-89036619D01*
X179734545Y-89036619D01*
X179734549Y-89036621D01*
X179765251Y-89039500D01*
X180274748Y-89039499D01*
X180305451Y-89036621D01*
X180434773Y-88991369D01*
X180545010Y-88910010D01*
X180626369Y-88799773D01*
X180671621Y-88670451D01*
X180674500Y-88639749D01*
X180674500Y-88639690D01*
X181276000Y-88639690D01*
X181278875Y-88670352D01*
X181278877Y-88670364D01*
X181324078Y-88799536D01*
X181324078Y-88799537D01*
X181405346Y-88909652D01*
X181405347Y-88909653D01*
X181515463Y-88990921D01*
X181644635Y-89036122D01*
X181644647Y-89036124D01*
X181675310Y-89039000D01*
X181803000Y-89039000D01*
X182057000Y-89039000D01*
X182184690Y-89039000D01*
X182215352Y-89036124D01*
X182215364Y-89036122D01*
X182344536Y-88990921D01*
X182344537Y-88990921D01*
X182454652Y-88909653D01*
X182454653Y-88909652D01*
X182535921Y-88799537D01*
X182535921Y-88799536D01*
X182581122Y-88670364D01*
X182581124Y-88670352D01*
X182584000Y-88639690D01*
X182584000Y-88462000D01*
X182057000Y-88462000D01*
X182057000Y-89039000D01*
X181803000Y-89039000D01*
X181803000Y-88462000D01*
X181276000Y-88462000D01*
X181276000Y-88639690D01*
X180674500Y-88639690D01*
X180674499Y-88030309D01*
X181276000Y-88030309D01*
X181276000Y-88208000D01*
X181803000Y-88208000D01*
X182057000Y-88208000D01*
X182584000Y-88208000D01*
X182584000Y-88030309D01*
X182581124Y-87999647D01*
X182581122Y-87999635D01*
X182535921Y-87870463D01*
X182535921Y-87870462D01*
X182454653Y-87760347D01*
X182454652Y-87760346D01*
X182344536Y-87679078D01*
X182215364Y-87633877D01*
X182215352Y-87633875D01*
X182184690Y-87631000D01*
X182057000Y-87631000D01*
X182057000Y-88208000D01*
X181803000Y-88208000D01*
X181803000Y-87631000D01*
X181675310Y-87631000D01*
X181644647Y-87633875D01*
X181644635Y-87633877D01*
X181515463Y-87679078D01*
X181515462Y-87679078D01*
X181405347Y-87760346D01*
X181405346Y-87760347D01*
X181324078Y-87870462D01*
X181324078Y-87870463D01*
X181278877Y-87999635D01*
X181278875Y-87999647D01*
X181276000Y-88030309D01*
X180674499Y-88030309D01*
X180674499Y-88030252D01*
X180671621Y-87999549D01*
X180626369Y-87870227D01*
X180560043Y-87780359D01*
X180539492Y-87752513D01*
X180540897Y-87751475D01*
X180512705Y-87699856D01*
X180514094Y-87641394D01*
X180531000Y-87578305D01*
X180531000Y-87427695D01*
X180492019Y-87282216D01*
X180416714Y-87151784D01*
X180310216Y-87045286D01*
X180259119Y-87015785D01*
X180179787Y-86969982D01*
X180179788Y-86969982D01*
X180162599Y-86965376D01*
X180034305Y-86931000D01*
X179883695Y-86931000D01*
X179755400Y-86965376D01*
X179738212Y-86969982D01*
X179607787Y-87045284D01*
X179607781Y-87045288D01*
X179501288Y-87151781D01*
X179501284Y-87151787D01*
X179425982Y-87282212D01*
X179425981Y-87282216D01*
X179387000Y-87427695D01*
X179387000Y-87578305D01*
X179425981Y-87723784D01*
X179425982Y-87723787D01*
X179427408Y-87726257D01*
X179427977Y-87728603D01*
X179429093Y-87731298D01*
X179428672Y-87731472D01*
X179443876Y-87794158D01*
X179421020Y-87860184D01*
X179419790Y-87861881D01*
X179413630Y-87870227D01*
X179368380Y-87999541D01*
X179368378Y-87999553D01*
X179365500Y-88030246D01*
X178773994Y-88030246D01*
X178771124Y-87999647D01*
X178771122Y-87999635D01*
X178725921Y-87870463D01*
X178725921Y-87870462D01*
X178644653Y-87760347D01*
X178644652Y-87760346D01*
X178534536Y-87679078D01*
X178405364Y-87633877D01*
X178405352Y-87633875D01*
X178374690Y-87631000D01*
X178247000Y-87631000D01*
X178247000Y-88208000D01*
X177993000Y-88208000D01*
X177993000Y-87631000D01*
X177865310Y-87631000D01*
X177834647Y-87633875D01*
X177834635Y-87633877D01*
X177705463Y-87679078D01*
X177705462Y-87679078D01*
X177595347Y-87760346D01*
X177595346Y-87760347D01*
X177514078Y-87870462D01*
X177514078Y-87870463D01*
X177468877Y-87999635D01*
X177468875Y-87999647D01*
X177466000Y-88030309D01*
X176864499Y-88030309D01*
X176864499Y-88030252D01*
X176861621Y-87999549D01*
X176816369Y-87870227D01*
X176800960Y-87849349D01*
X176794744Y-87830024D01*
X176794348Y-87814574D01*
X176789046Y-87800059D01*
X176793471Y-87780359D01*
X176792954Y-87760178D01*
X176800972Y-87746968D01*
X176804360Y-87731888D01*
X176805403Y-87730047D01*
X176807591Y-87726257D01*
X176809019Y-87723784D01*
X176848000Y-87578305D01*
X176848000Y-87427695D01*
X176809019Y-87282216D01*
X176733714Y-87151784D01*
X176627216Y-87045286D01*
X176576119Y-87015785D01*
X176496787Y-86969982D01*
X176496788Y-86969982D01*
X176479599Y-86965376D01*
X176351305Y-86931000D01*
X176200695Y-86931000D01*
X176072400Y-86965376D01*
X176055212Y-86969982D01*
X175924787Y-87045284D01*
X175924781Y-87045288D01*
X175818288Y-87151781D01*
X175818284Y-87151787D01*
X175742982Y-87282212D01*
X175742981Y-87282216D01*
X175704000Y-87427695D01*
X175704000Y-87578305D01*
X175718757Y-87633379D01*
X175719848Y-87637451D01*
X175718185Y-87707301D01*
X175687759Y-87757221D01*
X175684990Y-87759989D01*
X175603630Y-87870228D01*
X175558380Y-87999541D01*
X175558378Y-87999553D01*
X175555500Y-88030246D01*
X174963994Y-88030246D01*
X174961124Y-87999647D01*
X174961122Y-87999635D01*
X174915921Y-87870463D01*
X174915921Y-87870462D01*
X174834653Y-87760347D01*
X174834652Y-87760346D01*
X174724536Y-87679078D01*
X174595364Y-87633877D01*
X174595352Y-87633875D01*
X174564690Y-87631000D01*
X174437000Y-87631000D01*
X174437000Y-88208000D01*
X174183000Y-88208000D01*
X174183000Y-87631000D01*
X174055310Y-87631000D01*
X174024647Y-87633875D01*
X174024635Y-87633877D01*
X173895463Y-87679078D01*
X173895462Y-87679078D01*
X173785347Y-87760346D01*
X173785346Y-87760347D01*
X173704078Y-87870462D01*
X173704078Y-87870463D01*
X173658877Y-87999635D01*
X173658875Y-87999647D01*
X173656000Y-88030309D01*
X173054499Y-88030309D01*
X173054499Y-88030252D01*
X173051621Y-87999549D01*
X173006369Y-87870227D01*
X172954806Y-87800362D01*
X172925010Y-87759989D01*
X172829734Y-87689673D01*
X172814773Y-87678631D01*
X172814771Y-87678630D01*
X172685458Y-87633380D01*
X172685446Y-87633378D01*
X172654753Y-87630500D01*
X172654749Y-87630500D01*
X172232503Y-87630500D01*
X172165464Y-87610815D01*
X172144822Y-87594181D01*
X171122322Y-86571681D01*
X171088837Y-86510358D01*
X171093821Y-86440666D01*
X171135693Y-86384733D01*
X171201157Y-86360316D01*
X171210003Y-86360000D01*
X175260000Y-86360000D01*
X175260000Y-85441935D01*
X175279685Y-85374896D01*
X175309691Y-85342667D01*
X175334595Y-85324025D01*
X175412904Y-85265404D01*
X175499842Y-85149267D01*
X175550540Y-85013342D01*
X175554546Y-84976084D01*
X175556999Y-84953271D01*
X175557000Y-84953254D01*
X175557000Y-84953216D01*
X175848501Y-84953216D01*
X175854952Y-85013235D01*
X175854953Y-85013238D01*
X175905599Y-85149021D01*
X175905603Y-85149027D01*
X175992452Y-85265047D01*
X176108472Y-85351896D01*
X176108474Y-85351897D01*
X176244268Y-85402547D01*
X176304280Y-85408999D01*
X176575499Y-85408999D01*
X176829500Y-85408999D01*
X177100707Y-85408999D01*
X177100716Y-85408998D01*
X177160735Y-85402547D01*
X177160738Y-85402546D01*
X177296521Y-85351900D01*
X177296527Y-85351896D01*
X177412547Y-85265047D01*
X177499396Y-85149027D01*
X177499397Y-85149025D01*
X177507159Y-85128216D01*
X179138501Y-85128216D01*
X179144952Y-85188235D01*
X179144953Y-85188238D01*
X179195599Y-85324021D01*
X179195603Y-85324027D01*
X179282452Y-85440047D01*
X179398472Y-85526896D01*
X179398474Y-85526897D01*
X179534268Y-85577547D01*
X179594280Y-85583999D01*
X179827999Y-85583999D01*
X180082000Y-85583999D01*
X180315707Y-85583999D01*
X180315716Y-85583998D01*
X180375735Y-85577547D01*
X180375738Y-85577546D01*
X180511521Y-85526900D01*
X180511527Y-85526896D01*
X180627547Y-85440047D01*
X180714396Y-85324027D01*
X180714397Y-85324025D01*
X180765047Y-85188231D01*
X180771499Y-85128227D01*
X180771500Y-85128210D01*
X180771500Y-84582000D01*
X180082000Y-84582000D01*
X180082000Y-85583999D01*
X179827999Y-85583999D01*
X179828000Y-85583998D01*
X179828000Y-84582000D01*
X179138501Y-84582000D01*
X179138501Y-85128216D01*
X177507159Y-85128216D01*
X177550047Y-85013231D01*
X177556499Y-84953227D01*
X177556500Y-84953210D01*
X177556500Y-84582000D01*
X176829500Y-84582000D01*
X176829500Y-85408999D01*
X176575499Y-85408999D01*
X176575500Y-85408998D01*
X176575500Y-84582000D01*
X175848501Y-84582000D01*
X175848501Y-84953216D01*
X175557000Y-84953216D01*
X175557000Y-84530638D01*
X175556999Y-83956772D01*
X175848500Y-83956772D01*
X175848500Y-84328000D01*
X176575500Y-84328000D01*
X176829500Y-84328000D01*
X177556499Y-84328000D01*
X177556499Y-83956792D01*
X177556498Y-83956783D01*
X177550047Y-83896764D01*
X177550046Y-83896761D01*
X177522087Y-83821803D01*
X177522086Y-83821801D01*
X177507156Y-83781772D01*
X179138500Y-83781772D01*
X179138500Y-84328000D01*
X179828000Y-84328000D01*
X180082000Y-84328000D01*
X180771499Y-84328000D01*
X180771499Y-83781792D01*
X180771498Y-83781783D01*
X180765047Y-83721764D01*
X180765046Y-83721761D01*
X180714400Y-83585978D01*
X180714396Y-83585972D01*
X180627547Y-83469952D01*
X180511527Y-83383103D01*
X180511525Y-83383102D01*
X180375731Y-83332452D01*
X180315727Y-83326000D01*
X180082000Y-83326000D01*
X180082000Y-84328000D01*
X179828000Y-84328000D01*
X179828000Y-83326000D01*
X179594293Y-83326000D01*
X179594283Y-83326001D01*
X179534264Y-83332452D01*
X179534261Y-83332453D01*
X179398478Y-83383099D01*
X179398472Y-83383103D01*
X179282452Y-83469952D01*
X179195603Y-83585972D01*
X179195602Y-83585974D01*
X179144952Y-83721768D01*
X179138500Y-83781772D01*
X177507156Y-83781772D01*
X177499401Y-83760980D01*
X177499396Y-83760972D01*
X177412547Y-83644952D01*
X177296527Y-83558103D01*
X177296525Y-83558102D01*
X177160731Y-83507452D01*
X177100727Y-83501000D01*
X176829500Y-83501000D01*
X176829500Y-84328000D01*
X176575500Y-84328000D01*
X176575500Y-83501000D01*
X176304293Y-83501000D01*
X176304283Y-83501001D01*
X176244264Y-83507452D01*
X176244261Y-83507453D01*
X176108478Y-83558099D01*
X176108472Y-83558103D01*
X175992452Y-83644952D01*
X175905603Y-83760972D01*
X175905602Y-83760974D01*
X175854952Y-83896768D01*
X175848500Y-83956772D01*
X175556999Y-83956772D01*
X175556999Y-83956748D01*
X175556999Y-83956746D01*
X175550540Y-83896658D01*
X175522620Y-83821803D01*
X175499844Y-83760738D01*
X175499843Y-83760737D01*
X175499842Y-83760733D01*
X175434638Y-83673630D01*
X175412905Y-83644597D01*
X175334598Y-83585978D01*
X175309689Y-83567331D01*
X175267818Y-83511398D01*
X175260000Y-83468064D01*
X175260000Y-82674000D01*
X175279685Y-82606961D01*
X175332489Y-82561206D01*
X175384000Y-82550000D01*
X181486000Y-82550000D01*
X181553039Y-82569685D01*
G37*
%TD.AperFunction*%
%TD*%
%TA.AperFunction,Conductor*%
%TO.N,GND*%
G36*
X144426988Y-123210002D02*
G01*
X144447962Y-123226905D01*
X146013095Y-124792038D01*
X146047120Y-124854349D01*
X146050000Y-124881132D01*
X146050000Y-129477000D01*
X146029998Y-129545121D01*
X145976342Y-129591614D01*
X145924000Y-129603000D01*
X145847695Y-129603000D01*
X145769735Y-129623889D01*
X145702218Y-129641980D01*
X145702211Y-129641983D01*
X145571787Y-129717283D01*
X145571777Y-129717291D01*
X145465291Y-129823777D01*
X145465283Y-129823787D01*
X145389983Y-129954211D01*
X145389981Y-129954216D01*
X145351000Y-130099695D01*
X145351000Y-130250305D01*
X145367804Y-130313019D01*
X145389980Y-130395781D01*
X145389983Y-130395788D01*
X145465283Y-130526212D01*
X145465291Y-130526222D01*
X145571777Y-130632708D01*
X145571782Y-130632712D01*
X145571784Y-130632714D01*
X145571785Y-130632715D01*
X145571787Y-130632716D01*
X145663464Y-130685645D01*
X145702216Y-130708019D01*
X145847695Y-130747000D01*
X145847697Y-130747000D01*
X145924000Y-130747000D01*
X145992121Y-130767002D01*
X146038614Y-130820658D01*
X146050000Y-130873000D01*
X146050000Y-136399000D01*
X146029998Y-136467121D01*
X145976342Y-136513614D01*
X145924000Y-136525000D01*
X134111000Y-136525000D01*
X134042879Y-136504998D01*
X133996386Y-136451342D01*
X133985000Y-136399000D01*
X133985000Y-134697613D01*
X133985500Y-134695100D01*
X133985500Y-134544900D01*
X133985000Y-134542386D01*
X133985000Y-133941424D01*
X134685500Y-133941424D01*
X134685500Y-134818566D01*
X134688308Y-134854255D01*
X134732683Y-135006996D01*
X134813641Y-135143887D01*
X134813646Y-135143894D01*
X134926105Y-135256353D01*
X134926112Y-135256358D01*
X135063003Y-135337316D01*
X135063006Y-135337316D01*
X135063008Y-135337318D01*
X135215742Y-135381691D01*
X135251433Y-135384500D01*
X136628566Y-135384499D01*
X136664258Y-135381691D01*
X136816992Y-135337318D01*
X136816994Y-135337316D01*
X136816996Y-135337316D01*
X136887337Y-135295716D01*
X136953891Y-135256356D01*
X137064361Y-135145885D01*
X137126671Y-135111862D01*
X137197487Y-135116926D01*
X137242550Y-135145887D01*
X137308935Y-135212272D01*
X137433821Y-135295718D01*
X137572587Y-135353197D01*
X137719900Y-135382500D01*
X137870100Y-135382500D01*
X138017413Y-135353197D01*
X138156179Y-135295718D01*
X138281065Y-135212272D01*
X138387272Y-135106065D01*
X138470718Y-134981179D01*
X138528197Y-134842413D01*
X138557500Y-134695100D01*
X138557500Y-134544900D01*
X138528197Y-134397587D01*
X138470718Y-134258821D01*
X138387272Y-134133935D01*
X138281065Y-134027728D01*
X138156179Y-133944282D01*
X138017414Y-133886803D01*
X137870103Y-133857500D01*
X137870100Y-133857500D01*
X137719900Y-133857500D01*
X137719896Y-133857500D01*
X137602049Y-133880942D01*
X137572587Y-133886803D01*
X137479385Y-133925409D01*
X137471074Y-133927061D01*
X137466665Y-133929896D01*
X137431167Y-133935000D01*
X137294794Y-133935000D01*
X137226673Y-133914998D01*
X137180180Y-133861342D01*
X137173799Y-133844159D01*
X137147318Y-133753008D01*
X137076650Y-133633516D01*
X137066358Y-133616112D01*
X137066353Y-133616105D01*
X136980491Y-133530243D01*
X140986001Y-133530243D01*
X140996549Y-133633510D01*
X141051990Y-133800819D01*
X141144524Y-133950841D01*
X141144529Y-133950847D01*
X141269152Y-134075470D01*
X141269158Y-134075475D01*
X141419180Y-134168009D01*
X141586483Y-134223448D01*
X141586495Y-134223450D01*
X141689748Y-134233999D01*
X141986000Y-134233999D01*
X142494000Y-134233999D01*
X142790243Y-134233999D01*
X142893510Y-134223450D01*
X143060819Y-134168009D01*
X143210841Y-134075475D01*
X143210847Y-134075470D01*
X143335470Y-133950847D01*
X143335475Y-133950841D01*
X143428009Y-133800819D01*
X143483448Y-133633516D01*
X143483450Y-133633504D01*
X143493999Y-133530251D01*
X143494000Y-133530251D01*
X143494000Y-132334000D01*
X142494000Y-132334000D01*
X142494000Y-134233999D01*
X141986000Y-134233999D01*
X141986000Y-132334000D01*
X140986001Y-132334000D01*
X140986001Y-133530243D01*
X136980491Y-133530243D01*
X136953894Y-133503646D01*
X136953887Y-133503641D01*
X136816996Y-133422683D01*
X136664256Y-133378308D01*
X136628575Y-133375500D01*
X135251434Y-133375500D01*
X135215744Y-133378308D01*
X135063003Y-133422683D01*
X134926112Y-133503641D01*
X134926105Y-133503646D01*
X134813646Y-133616105D01*
X134813641Y-133616112D01*
X134732683Y-133753003D01*
X134688308Y-133905743D01*
X134685500Y-133941424D01*
X133985000Y-133941424D01*
X133985000Y-132518513D01*
X134686001Y-132518513D01*
X134688806Y-132554178D01*
X134733142Y-132706789D01*
X134814042Y-132843581D01*
X134814045Y-132843585D01*
X134926414Y-132955954D01*
X134926418Y-132955957D01*
X135063210Y-133036857D01*
X135215819Y-133081192D01*
X135215822Y-133081193D01*
X135251476Y-133083999D01*
X135686000Y-133083999D01*
X136194000Y-133083999D01*
X136628514Y-133083999D01*
X136664178Y-133081193D01*
X136816789Y-133036857D01*
X136953581Y-132955957D01*
X136953585Y-132955954D01*
X137065954Y-132843585D01*
X137065957Y-132843581D01*
X137146857Y-132706789D01*
X137191192Y-132554180D01*
X137191193Y-132554177D01*
X137194000Y-132518523D01*
X137194000Y-132334000D01*
X136194000Y-132334000D01*
X136194000Y-133083999D01*
X135686000Y-133083999D01*
X135686000Y-132334000D01*
X134686001Y-132334000D01*
X134686001Y-132518513D01*
X133985000Y-132518513D01*
X133985000Y-131641476D01*
X134686000Y-131641476D01*
X134686000Y-131826000D01*
X135686000Y-131826000D01*
X136194000Y-131826000D01*
X137193999Y-131826000D01*
X137193999Y-131641486D01*
X137191193Y-131605821D01*
X137146857Y-131453210D01*
X137065957Y-131316418D01*
X137065954Y-131316414D01*
X136953585Y-131204045D01*
X136953581Y-131204042D01*
X136816789Y-131123142D01*
X136664180Y-131078807D01*
X136664177Y-131078806D01*
X136628523Y-131076000D01*
X136194000Y-131076000D01*
X136194000Y-131826000D01*
X135686000Y-131826000D01*
X135686000Y-131076000D01*
X135251486Y-131076000D01*
X135215821Y-131078806D01*
X135063210Y-131123142D01*
X134926418Y-131204042D01*
X134926414Y-131204045D01*
X134814045Y-131316414D01*
X134814042Y-131316418D01*
X134733142Y-131453210D01*
X134688807Y-131605819D01*
X134688806Y-131605822D01*
X134686000Y-131641476D01*
X133985000Y-131641476D01*
X133985000Y-130478000D01*
X134005002Y-130409879D01*
X134058658Y-130363386D01*
X134111000Y-130352000D01*
X134628290Y-130352000D01*
X134696411Y-130372002D01*
X134736743Y-130413860D01*
X134813643Y-130543890D01*
X134813646Y-130543894D01*
X134926105Y-130656353D01*
X134926112Y-130656358D01*
X135063003Y-130737316D01*
X135063006Y-130737316D01*
X135063008Y-130737318D01*
X135215742Y-130781691D01*
X135251433Y-130784500D01*
X136628566Y-130784499D01*
X136664258Y-130781691D01*
X136816992Y-130737318D01*
X136816994Y-130737316D01*
X136816996Y-130737316D01*
X136885441Y-130696837D01*
X136953891Y-130656356D01*
X136980499Y-130629748D01*
X140986000Y-130629748D01*
X140986000Y-131826000D01*
X141986000Y-131826000D01*
X142494000Y-131826000D01*
X143493999Y-131826000D01*
X143493999Y-130629756D01*
X143483450Y-130526489D01*
X143428009Y-130359180D01*
X143335475Y-130209158D01*
X143335470Y-130209152D01*
X143210847Y-130084529D01*
X143210841Y-130084524D01*
X143060819Y-129991990D01*
X142893516Y-129936551D01*
X142893504Y-129936549D01*
X142790251Y-129926000D01*
X142494000Y-129926000D01*
X142494000Y-131826000D01*
X141986000Y-131826000D01*
X141986000Y-129926000D01*
X141689756Y-129926000D01*
X141586489Y-129936549D01*
X141419180Y-129991990D01*
X141269158Y-130084524D01*
X141269152Y-130084529D01*
X141144529Y-130209152D01*
X141144524Y-130209158D01*
X141051990Y-130359180D01*
X140996551Y-130526483D01*
X140996549Y-130526495D01*
X140986000Y-130629748D01*
X136980499Y-130629748D01*
X137066356Y-130543891D01*
X137076651Y-130526483D01*
X137147316Y-130406996D01*
X137147316Y-130406994D01*
X137147318Y-130406992D01*
X137191691Y-130254258D01*
X137194500Y-130218567D01*
X137194499Y-129341434D01*
X137191691Y-129305742D01*
X137147318Y-129153008D01*
X137147316Y-129153006D01*
X137147316Y-129153003D01*
X137066358Y-129016112D01*
X137066353Y-129016105D01*
X136953894Y-128903646D01*
X136953887Y-128903641D01*
X136816996Y-128822683D01*
X136664256Y-128778308D01*
X136628575Y-128775500D01*
X135251434Y-128775500D01*
X135215744Y-128778308D01*
X135063003Y-128822683D01*
X134926112Y-128903641D01*
X134926105Y-128903646D01*
X134813646Y-129016105D01*
X134813643Y-129016109D01*
X134736743Y-129146140D01*
X134684850Y-129194592D01*
X134628290Y-129208000D01*
X134111000Y-129208000D01*
X134042879Y-129187998D01*
X133996386Y-129134342D01*
X133985000Y-129082000D01*
X133985000Y-123316000D01*
X134005002Y-123247879D01*
X134058658Y-123201386D01*
X134111000Y-123190000D01*
X144358867Y-123190000D01*
X144426988Y-123210002D01*
G37*
%TD.AperFunction*%
%TD*%
M02*
