%TF.GenerationSoftware,KiCad,Pcbnew,9.0.3-9.0.3-0~ubuntu24.04.1*%
%TF.CreationDate,2025-08-16T11:08:08-04:00*%
%TF.ProjectId,led-photodiode-avr,6c65642d-7068-46f7-946f-64696f64652d,rev?*%
%TF.SameCoordinates,Original*%
%TF.FileFunction,Copper,L1,Top*%
%TF.FilePolarity,Positive*%
%FSLAX46Y46*%
G04 Gerber Fmt 4.6, Leading zero omitted, Abs format (unit mm)*
G04 Created by KiCad (PCBNEW 9.0.3-9.0.3-0~ubuntu24.04.1) date 2025-08-16 11:08:08*
%MOMM*%
%LPD*%
G01*
G04 APERTURE LIST*
G04 Aperture macros list*
%AMRoundRect*
0 Rectangle with rounded corners*
0 $1 Rounding radius*
0 $2 $3 $4 $5 $6 $7 $8 $9 X,Y pos of 4 corners*
0 Add a 4 corners polygon primitive as box body*
4,1,4,$2,$3,$4,$5,$6,$7,$8,$9,$2,$3,0*
0 Add four circle primitives for the rounded corners*
1,1,$1+$1,$2,$3*
1,1,$1+$1,$4,$5*
1,1,$1+$1,$6,$7*
1,1,$1+$1,$8,$9*
0 Add four rect primitives between the rounded corners*
20,1,$1+$1,$2,$3,$4,$5,0*
20,1,$1+$1,$4,$5,$6,$7,0*
20,1,$1+$1,$6,$7,$8,$9,0*
20,1,$1+$1,$8,$9,$2,$3,0*%
%AMFreePoly0*
4,1,9,3.862500,-0.866500,0.737500,-0.866500,0.737500,-0.450000,-0.737500,-0.450000,-0.737500,0.450000,0.737500,0.450000,0.737500,0.866500,3.862500,0.866500,3.862500,-0.866500,3.862500,-0.866500,$1*%
G04 Aperture macros list end*
%TA.AperFunction,SMDPad,CuDef*%
%ADD10RoundRect,0.237500X-0.237500X0.287500X-0.237500X-0.287500X0.237500X-0.287500X0.237500X0.287500X0*%
%TD*%
%TA.AperFunction,SMDPad,CuDef*%
%ADD11RoundRect,0.200000X0.200000X-0.250000X0.200000X0.250000X-0.200000X0.250000X-0.200000X-0.250000X0*%
%TD*%
%TA.AperFunction,SMDPad,CuDef*%
%ADD12RoundRect,0.250000X0.337500X0.475000X-0.337500X0.475000X-0.337500X-0.475000X0.337500X-0.475000X0*%
%TD*%
%TA.AperFunction,ComponentPad*%
%ADD13R,1.700000X1.700000*%
%TD*%
%TA.AperFunction,ComponentPad*%
%ADD14C,1.700000*%
%TD*%
%TA.AperFunction,SMDPad,CuDef*%
%ADD15RoundRect,0.250000X-0.475000X0.337500X-0.475000X-0.337500X0.475000X-0.337500X0.475000X0.337500X0*%
%TD*%
%TA.AperFunction,SMDPad,CuDef*%
%ADD16RoundRect,0.250000X-0.400000X-0.300000X0.400000X-0.300000X0.400000X0.300000X-0.400000X0.300000X0*%
%TD*%
%TA.AperFunction,SMDPad,CuDef*%
%ADD17RoundRect,0.250000X0.475000X-0.337500X0.475000X0.337500X-0.475000X0.337500X-0.475000X-0.337500X0*%
%TD*%
%TA.AperFunction,SMDPad,CuDef*%
%ADD18RoundRect,0.250000X-0.337500X-0.475000X0.337500X-0.475000X0.337500X0.475000X-0.337500X0.475000X0*%
%TD*%
%TA.AperFunction,SMDPad,CuDef*%
%ADD19RoundRect,0.150000X-0.150000X0.875000X-0.150000X-0.875000X0.150000X-0.875000X0.150000X0.875000X0*%
%TD*%
%TA.AperFunction,ComponentPad*%
%ADD20RoundRect,0.250001X1.149999X-1.149999X1.149999X1.149999X-1.149999X1.149999X-1.149999X-1.149999X0*%
%TD*%
%TA.AperFunction,ComponentPad*%
%ADD21C,2.800000*%
%TD*%
%TA.AperFunction,SMDPad,CuDef*%
%ADD22RoundRect,0.150000X0.587500X0.150000X-0.587500X0.150000X-0.587500X-0.150000X0.587500X-0.150000X0*%
%TD*%
%TA.AperFunction,SMDPad,CuDef*%
%ADD23RoundRect,0.150000X0.150000X-0.825000X0.150000X0.825000X-0.150000X0.825000X-0.150000X-0.825000X0*%
%TD*%
%TA.AperFunction,SMDPad,CuDef*%
%ADD24RoundRect,0.250000X0.350000X0.450000X-0.350000X0.450000X-0.350000X-0.450000X0.350000X-0.450000X0*%
%TD*%
%TA.AperFunction,SMDPad,CuDef*%
%ADD25RoundRect,0.250000X-0.325000X-0.450000X0.325000X-0.450000X0.325000X0.450000X-0.325000X0.450000X0*%
%TD*%
%TA.AperFunction,SMDPad,CuDef*%
%ADD26RoundRect,0.250000X0.450000X-0.350000X0.450000X0.350000X-0.450000X0.350000X-0.450000X-0.350000X0*%
%TD*%
%TA.AperFunction,SMDPad,CuDef*%
%ADD27RoundRect,0.225000X-0.425000X-0.225000X0.425000X-0.225000X0.425000X0.225000X-0.425000X0.225000X0*%
%TD*%
%TA.AperFunction,SMDPad,CuDef*%
%ADD28FreePoly0,0.000000*%
%TD*%
%TA.AperFunction,SMDPad,CuDef*%
%ADD29RoundRect,0.150000X-0.150000X0.825000X-0.150000X-0.825000X0.150000X-0.825000X0.150000X0.825000X0*%
%TD*%
%TA.AperFunction,SMDPad,CuDef*%
%ADD30RoundRect,0.250000X-0.350000X-0.450000X0.350000X-0.450000X0.350000X0.450000X-0.350000X0.450000X0*%
%TD*%
%TA.AperFunction,SMDPad,CuDef*%
%ADD31RoundRect,0.125000X-0.537500X-0.125000X0.537500X-0.125000X0.537500X0.125000X-0.537500X0.125000X0*%
%TD*%
%TA.AperFunction,SMDPad,CuDef*%
%ADD32RoundRect,0.137500X-0.600000X-0.137500X0.600000X-0.137500X0.600000X0.137500X-0.600000X0.137500X0*%
%TD*%
%TA.AperFunction,SMDPad,CuDef*%
%ADD33RoundRect,0.137500X-0.137500X-0.600000X0.137500X-0.600000X0.137500X0.600000X-0.137500X0.600000X0*%
%TD*%
%TA.AperFunction,SMDPad,CuDef*%
%ADD34RoundRect,0.250000X0.625000X-0.312500X0.625000X0.312500X-0.625000X0.312500X-0.625000X-0.312500X0*%
%TD*%
%TA.AperFunction,SMDPad,CuDef*%
%ADD35RoundRect,0.250000X-0.450000X0.350000X-0.450000X-0.350000X0.450000X-0.350000X0.450000X0.350000X0*%
%TD*%
G04 APERTURE END LIST*
D10*
%TO.P,L2,1,1*%
%TO.N,VCC*%
X152400000Y-89295000D03*
%TO.P,L2,2,2*%
%TO.N,Net-(U7-AVCC)*%
X152400000Y-91045000D03*
%TD*%
D11*
%TO.P,Q2,1,B*%
%TO.N,Net-(Q2-B)*%
X161991676Y-88760000D03*
%TO.P,Q2,2,E*%
%TO.N,/LED_driver/LED_2*%
X163891676Y-88760000D03*
%TO.P,Q2,3,C*%
%TO.N,+5VA*%
X162941676Y-86360000D03*
%TD*%
D12*
%TO.P,C7,1*%
%TO.N,VBUS*%
X141372500Y-107315000D03*
%TO.P,C7,2*%
%TO.N,GND*%
X139297500Y-107315000D03*
%TD*%
D13*
%TO.P,J4,1,Pin_1*%
%TO.N,GND*%
X133925000Y-78105000D03*
D14*
%TO.P,J4,2,Pin_2*%
%TO.N,unconnected-(J4-Pin_2-Pad2)*%
X133925000Y-75565000D03*
%TO.P,J4,3,Pin_3*%
%TO.N,Net-(J4-Pin_3)*%
X133925000Y-73025000D03*
%TO.P,J4,4,Pin_4*%
%TO.N,/RXD*%
X133925000Y-70485000D03*
%TO.P,J4,5,Pin_5*%
%TO.N,/TXD*%
X133925000Y-67945000D03*
%TO.P,J4,6,Pin_6*%
%TO.N,unconnected-(J4-Pin_6-Pad6)*%
X133925000Y-65405000D03*
%TD*%
D15*
%TO.P,C18,1*%
%TO.N,+5VA*%
X163195000Y-66272500D03*
%TO.P,C18,2*%
%TO.N,Earth*%
X163195000Y-68347500D03*
%TD*%
D16*
%TO.P,Y1,1,EN*%
%TO.N,unconnected-(Y1-EN-Pad1)*%
X132935000Y-102425000D03*
%TO.P,Y1,2,GND*%
%TO.N,GND*%
X135035000Y-102425000D03*
%TO.P,Y1,3,OUT*%
%TO.N,/CLK16*%
X135035000Y-100775000D03*
%TO.P,Y1,4,Vcc*%
%TO.N,VCC*%
X132935000Y-100775000D03*
%TD*%
D17*
%TO.P,C20,1*%
%TO.N,Net-(C20-Pad1)*%
X161925000Y-126767500D03*
%TO.P,C20,2*%
%TO.N,Net-(C20-Pad2)*%
X161925000Y-124692500D03*
%TD*%
D15*
%TO.P,C11,1*%
%TO.N,/VREF*%
X156442500Y-124692500D03*
%TO.P,C11,2*%
%TO.N,Earth*%
X156442500Y-126767500D03*
%TD*%
D18*
%TO.P,C5,1*%
%TO.N,Net-(U3A-+)*%
X175725000Y-109220000D03*
%TO.P,C5,2*%
%TO.N,Earth*%
X177800000Y-109220000D03*
%TD*%
D19*
%TO.P,U5,1,IN1*%
%TO.N,Net-(J2-Pin_2)*%
X164207500Y-112190000D03*
%TO.P,U5,2,AGND*%
%TO.N,Earth*%
X162937500Y-112190000D03*
%TO.P,U5,3,CAP1B*%
%TO.N,unconnected-(U5-CAP1B-Pad3)*%
X161667500Y-112190000D03*
%TO.P,U5,4,CAP1B*%
%TO.N,Net-(C19-Pad2)*%
X160397500Y-112190000D03*
%TO.P,U5,5,CAP1A*%
%TO.N,Net-(C19-Pad1)*%
X159127500Y-112190000D03*
%TO.P,U5,6,CAP1A*%
%TO.N,unconnected-(U5-CAP1A-Pad6)*%
X157857500Y-112190000D03*
%TO.P,U5,7,AVDD*%
%TO.N,+5VA*%
X156587500Y-112190000D03*
%TO.P,U5,8,TEST*%
%TO.N,/PD5*%
X155317500Y-112190000D03*
%TO.P,U5,9,CONV*%
%TO.N,/PB1{slash}OC1A*%
X154047500Y-112190000D03*
%TO.P,U5,10,CLK*%
%TO.N,/PD6{slash}OC0A*%
X152777500Y-112190000D03*
%TO.P,U5,11,DCLK*%
%TO.N,/SCK*%
X151507500Y-112190000D03*
%TO.P,U5,12,~{DXMIT}*%
%TO.N,/PB0*%
X150237500Y-112190000D03*
%TO.P,U5,13,DIN*%
%TO.N,/MOSI*%
X148967500Y-112190000D03*
%TO.P,U5,14,DVDD*%
%TO.N,VCC*%
X147697500Y-112190000D03*
%TO.P,U5,15,DGND*%
%TO.N,GND*%
X147697500Y-121490000D03*
%TO.P,U5,16,DOUT*%
%TO.N,/MISO*%
X148967500Y-121490000D03*
%TO.P,U5,17,~{DVALID}*%
%TO.N,/PD7*%
X150237500Y-121490000D03*
%TO.P,U5,18,RANGE0*%
%TO.N,/PC0{slash}ADC0*%
X151507500Y-121490000D03*
%TO.P,U5,19,RANGE1*%
%TO.N,/PC1{slash}ADC1*%
X152777500Y-121490000D03*
%TO.P,U5,20,RANGE2*%
%TO.N,/PC2{slash}ADC2*%
X154047500Y-121490000D03*
%TO.P,U5,21,AGND*%
%TO.N,Earth*%
X155317500Y-121490000D03*
%TO.P,U5,22,VREF*%
%TO.N,/VREF*%
X156587500Y-121490000D03*
%TO.P,U5,23,CAP2A*%
%TO.N,unconnected-(U5-CAP2A-Pad23)*%
X157857500Y-121490000D03*
%TO.P,U5,24,CAP2A*%
%TO.N,Net-(C20-Pad1)*%
X159127500Y-121490000D03*
%TO.P,U5,25,CAP2B*%
%TO.N,Net-(C20-Pad2)*%
X160397500Y-121490000D03*
%TO.P,U5,26,CAP2B*%
%TO.N,unconnected-(U5-CAP2B-Pad26)*%
X161667500Y-121490000D03*
%TO.P,U5,27,AGND*%
%TO.N,Earth*%
X162937500Y-121490000D03*
%TO.P,U5,28,IN2*%
%TO.N,Net-(J2-Pin_16)*%
X164207500Y-121490000D03*
%TD*%
D20*
%TO.P,J1,1,Pin_1*%
%TO.N,VBUS*%
X127602500Y-91785000D03*
D21*
%TO.P,J1,2,Pin_2*%
%TO.N,GND*%
X127602500Y-86785000D03*
%TD*%
D12*
%TO.P,C6,1*%
%TO.N,+5VA*%
X171450000Y-119380000D03*
%TO.P,C6,2*%
%TO.N,Earth*%
X169375000Y-119380000D03*
%TD*%
D22*
%TO.P,U1,1,IN*%
%TO.N,+5VA*%
X177700000Y-118425000D03*
%TO.P,U1,2,OUT*%
%TO.N,Net-(U1-OUT)*%
X177700000Y-116525000D03*
%TO.P,U1,3,GND*%
%TO.N,Earth*%
X175825000Y-117475000D03*
%TD*%
D11*
%TO.P,Q1,1,B*%
%TO.N,Net-(Q1-B)*%
X157165000Y-88760000D03*
%TO.P,Q1,2,E*%
%TO.N,/LED_driver/LED_1*%
X159065000Y-88760000D03*
%TO.P,Q1,3,C*%
%TO.N,+5VA*%
X158115000Y-86360000D03*
%TD*%
%TO.P,Q4,1,B*%
%TO.N,Net-(Q4-B)*%
X171645028Y-88760000D03*
%TO.P,Q4,2,E*%
%TO.N,/LED_driver/LED_4*%
X173545028Y-88760000D03*
%TO.P,Q4,3,C*%
%TO.N,+5VA*%
X172595028Y-86360000D03*
%TD*%
D15*
%TO.P,C19,1*%
%TO.N,Net-(C19-Pad1)*%
X163195000Y-106912500D03*
%TO.P,C19,2*%
%TO.N,Net-(C19-Pad2)*%
X163195000Y-108987500D03*
%TD*%
D23*
%TO.P,U6,1,0*%
%TO.N,Net-(Q1-B)*%
X165100000Y-80812500D03*
%TO.P,U6,2,1*%
%TO.N,Net-(Q2-B)*%
X166370000Y-80812500D03*
%TO.P,U6,3,2*%
%TO.N,Net-(Q3-B)*%
X167640000Y-80812500D03*
%TO.P,U6,4,3*%
%TO.N,Net-(Q4-B)*%
X168910000Y-80812500D03*
%TO.P,U6,5,4*%
%TO.N,unconnected-(U6-4-Pad5)*%
X170180000Y-80812500D03*
%TO.P,U6,6,5*%
%TO.N,unconnected-(U6-5-Pad6)*%
X171450000Y-80812500D03*
%TO.P,U6,7,6*%
%TO.N,unconnected-(U6-6-Pad7)*%
X172720000Y-80812500D03*
%TO.P,U6,8,7*%
%TO.N,unconnected-(U6-7-Pad8)*%
X173990000Y-80812500D03*
%TO.P,U6,9,I/O*%
%TO.N,Net-(U6-I{slash}O)*%
X173990000Y-75862500D03*
%TO.P,U6,10,VEE*%
%TO.N,Earth*%
X172720000Y-75862500D03*
%TO.P,U6,11,GND*%
X171450000Y-75862500D03*
%TO.P,U6,12,A1*%
X170180000Y-75862500D03*
%TO.P,U6,13,A0*%
X168910000Y-75862500D03*
%TO.P,U6,14,SDA*%
%TO.N,/SDA*%
X167640000Y-75862500D03*
%TO.P,U6,15,SCL*%
%TO.N,/SCL*%
X166370000Y-75862500D03*
%TO.P,U6,16,VCC*%
%TO.N,+5VA*%
X165100000Y-75862500D03*
%TD*%
D18*
%TO.P,C23,1*%
%TO.N,VCC*%
X133180000Y-97790000D03*
%TO.P,C23,2*%
%TO.N,GND*%
X135255000Y-97790000D03*
%TD*%
D12*
%TO.P,C3,1*%
%TO.N,+5VA*%
X169947500Y-126775000D03*
%TO.P,C3,2*%
%TO.N,Earth*%
X167872500Y-126775000D03*
%TD*%
D24*
%TO.P,R1,1*%
%TO.N,Net-(U1-OUT)*%
X177762500Y-114300000D03*
%TO.P,R1,2*%
%TO.N,Net-(U3A-+)*%
X175762500Y-114300000D03*
%TD*%
D18*
%TO.P,C21,1*%
%TO.N,Net-(U8-+)*%
X155172500Y-72390000D03*
%TO.P,C21,2*%
%TO.N,Earth*%
X157247500Y-72390000D03*
%TD*%
D12*
%TO.P,C1,1*%
%TO.N,+5VA*%
X177800000Y-121285000D03*
%TO.P,C1,2*%
%TO.N,Earth*%
X175725000Y-121285000D03*
%TD*%
D25*
%TO.P,D3,1,K*%
%TO.N,GND*%
X144000000Y-97790000D03*
%TO.P,D3,2,A*%
%TO.N,Net-(D3-A)*%
X146050000Y-97790000D03*
%TD*%
D17*
%TO.P,C10,1*%
%TO.N,+5VA*%
X160252500Y-108987500D03*
%TO.P,C10,2*%
%TO.N,Earth*%
X160252500Y-106912500D03*
%TD*%
D26*
%TO.P,R9,1*%
%TO.N,/SCL*%
X141605000Y-79740000D03*
%TO.P,R9,2*%
%TO.N,VCC*%
X141605000Y-77740000D03*
%TD*%
%TO.P,R6,1*%
%TO.N,/LED_driver/LED_K*%
X177165000Y-88630000D03*
%TO.P,R6,2*%
%TO.N,Net-(U8--)*%
X177165000Y-86630000D03*
%TD*%
D12*
%TO.P,C14,1*%
%TO.N,VCC*%
X144801500Y-116205000D03*
%TO.P,C14,2*%
%TO.N,GND*%
X142726500Y-116205000D03*
%TD*%
D13*
%TO.P,J3,1,MISO*%
%TO.N,/MISO*%
X139065000Y-71125000D03*
D14*
%TO.P,J3,2,VCC*%
%TO.N,VCC*%
X139065000Y-68585000D03*
%TO.P,J3,3,SCK*%
%TO.N,/SCK*%
X141605000Y-71125000D03*
%TO.P,J3,4,MOSI*%
%TO.N,/MOSI*%
X141605000Y-68585000D03*
%TO.P,J3,5,~{RST}*%
%TO.N,/~{RESET}*%
X144145000Y-71125000D03*
%TO.P,J3,6,GND*%
%TO.N,GND*%
X144145000Y-68585000D03*
%TD*%
D27*
%TO.P,U4,1,OUT*%
%TO.N,VCC*%
X144100000Y-103910000D03*
D28*
%TO.P,U4,2,GND*%
%TO.N,GND*%
X144187500Y-105410000D03*
D27*
%TO.P,U4,3,IN*%
%TO.N,VBUS*%
X144100000Y-106910000D03*
%TD*%
%TO.P,U2,1,OUT*%
%TO.N,+5VA*%
X172675000Y-126770000D03*
D28*
%TO.P,U2,2,GND*%
%TO.N,Earth*%
X172762500Y-128270000D03*
D27*
%TO.P,U2,3,IN*%
%TO.N,VBUS*%
X172675000Y-129770000D03*
%TD*%
D15*
%TO.P,C12,1*%
%TO.N,/VREF*%
X158982500Y-124692500D03*
%TO.P,C12,2*%
%TO.N,Earth*%
X158982500Y-126767500D03*
%TD*%
D29*
%TO.P,U3,1*%
%TO.N,/VREF*%
X172317500Y-111190000D03*
%TO.P,U3,2,-*%
X171047500Y-111190000D03*
%TO.P,U3,3,+*%
%TO.N,Net-(U3A-+)*%
X169777500Y-111190000D03*
%TO.P,U3,4,V-*%
%TO.N,Earth*%
X168507500Y-111190000D03*
%TO.P,U3,5*%
%TO.N,N/C*%
X168507500Y-116140000D03*
%TO.P,U3,6*%
X169777500Y-116140000D03*
%TO.P,U3,7*%
X171047500Y-116140000D03*
%TO.P,U3,8,V+*%
%TO.N,+5VA*%
X172317500Y-116140000D03*
%TD*%
D17*
%TO.P,C55,1*%
%TO.N,Net-(U7-AREF)*%
X149860000Y-86762500D03*
%TO.P,C55,2*%
%TO.N,GND*%
X149860000Y-84687500D03*
%TD*%
D26*
%TO.P,R8,1*%
%TO.N,/SDA*%
X144780000Y-79740000D03*
%TO.P,R8,2*%
%TO.N,VCC*%
X144780000Y-77740000D03*
%TD*%
D23*
%TO.P,U8,1,NC*%
%TO.N,unconnected-(U8-NC-Pad1)*%
X166010000Y-70125000D03*
%TO.P,U8,2,-*%
%TO.N,Net-(U8--)*%
X167280000Y-70125000D03*
%TO.P,U8,3,+*%
%TO.N,Net-(U8-+)*%
X168550000Y-70125000D03*
%TO.P,U8,4,V-*%
%TO.N,Earth*%
X169820000Y-70125000D03*
%TO.P,U8,5,NC*%
%TO.N,unconnected-(U8-NC-Pad5)*%
X169820000Y-65175000D03*
%TO.P,U8,6*%
%TO.N,Net-(C17-Pad2)*%
X168550000Y-65175000D03*
%TO.P,U8,7,V+*%
%TO.N,+5VA*%
X167280000Y-65175000D03*
%TO.P,U8,8,NC*%
%TO.N,unconnected-(U8-NC-Pad8)*%
X166010000Y-65175000D03*
%TD*%
D13*
%TO.P,J2,1,Pin_1*%
%TO.N,/LED_driver/LED_1*%
X176280000Y-96000000D03*
D14*
%TO.P,J2,2,Pin_2*%
%TO.N,Net-(J2-Pin_2)*%
X176280000Y-98540000D03*
%TO.P,J2,3,Pin_3*%
%TO.N,/LED_driver/LED_K*%
X173740000Y-96000000D03*
%TO.P,J2,4,Pin_4*%
%TO.N,Earth*%
X173740000Y-98540000D03*
%TO.P,J2,5,Pin_5*%
%TO.N,/LED_driver/LED_2*%
X171200000Y-96000000D03*
%TO.P,J2,6,Pin_6*%
%TO.N,unconnected-(J2-Pin_6-Pad6)*%
X171200000Y-98540000D03*
%TO.P,J2,7,Pin_7*%
%TO.N,/LED_driver/LED_K*%
X168660000Y-96000000D03*
%TO.P,J2,8,Pin_8*%
%TO.N,unconnected-(J2-Pin_8-Pad8)*%
X168660000Y-98540000D03*
%TO.P,J2,9,Pin_9*%
%TO.N,/LED_driver/LED_3*%
X166120000Y-96000000D03*
%TO.P,J2,10,Pin_10*%
%TO.N,unconnected-(J2-Pin_10-Pad10)*%
X166120000Y-98540000D03*
%TO.P,J2,11,Pin_11*%
%TO.N,/LED_driver/LED_K*%
X163580000Y-96000000D03*
%TO.P,J2,12,Pin_12*%
%TO.N,unconnected-(J2-Pin_12-Pad12)*%
X163580000Y-98540000D03*
%TO.P,J2,13,Pin_13*%
%TO.N,unconnected-(J2-Pin_13-Pad13)*%
X161040000Y-96000000D03*
%TO.P,J2,14,Pin_14*%
%TO.N,Earth*%
X161040000Y-98540000D03*
%TO.P,J2,15,Pin_15*%
%TO.N,unconnected-(J2-Pin_15-Pad15)*%
X158500000Y-96000000D03*
%TO.P,J2,16,Pin_16*%
%TO.N,Net-(J2-Pin_16)*%
X158500000Y-98540000D03*
%TD*%
D30*
%TO.P,R45,1*%
%TO.N,/~{RESET}*%
X144050000Y-64770000D03*
%TO.P,R45,2*%
%TO.N,VCC*%
X146050000Y-64770000D03*
%TD*%
D18*
%TO.P,C4,1*%
%TO.N,Net-(U3A-+)*%
X175725000Y-111760000D03*
%TO.P,C4,2*%
%TO.N,Earth*%
X177800000Y-111760000D03*
%TD*%
D31*
%TO.P,U9,1,CA0*%
%TO.N,GND*%
X150627500Y-66605000D03*
%TO.P,U9,2,SCL*%
%TO.N,/SCL*%
X150627500Y-67255000D03*
%TO.P,U9,3,SDA*%
%TO.N,/SDA*%
X150627500Y-67905000D03*
%TO.P,U9,4,GND*%
%TO.N,GND*%
X150627500Y-68555000D03*
%TO.P,U9,5,VCC*%
%TO.N,+5VA*%
X152902500Y-68555000D03*
%TO.P,U9,6,REF*%
%TO.N,Net-(U9-REF)*%
X152902500Y-67905000D03*
%TO.P,U9,7,Vout*%
%TO.N,Net-(U9-Vout)*%
X152902500Y-67255000D03*
%TO.P,U9,8,REF_SEL*%
%TO.N,+5VA*%
X152902500Y-66605000D03*
%TD*%
D17*
%TO.P,C17,1*%
%TO.N,Net-(U8--)*%
X172720000Y-68580000D03*
%TO.P,C17,2*%
%TO.N,Net-(C17-Pad2)*%
X172720000Y-66505000D03*
%TD*%
%TO.P,C54,1*%
%TO.N,Net-(U7-AVCC)*%
X149860000Y-91200000D03*
%TO.P,C54,2*%
%TO.N,GND*%
X149860000Y-89125000D03*
%TD*%
D30*
%TO.P,R2,1*%
%TO.N,GND*%
X154829000Y-103251000D03*
%TO.P,R2,2*%
%TO.N,Earth*%
X156829000Y-103251000D03*
%TD*%
D12*
%TO.P,C8,1*%
%TO.N,VCC*%
X141372500Y-104140000D03*
%TO.P,C8,2*%
%TO.N,GND*%
X139297500Y-104140000D03*
%TD*%
D30*
%TO.P,R29,1*%
%TO.N,VCC*%
X138700000Y-64770000D03*
%TO.P,R29,2*%
%TO.N,Net-(J4-Pin_3)*%
X140700000Y-64770000D03*
%TD*%
D12*
%TO.P,C16,1*%
%TO.N,+5VA*%
X152802500Y-71390000D03*
%TO.P,C16,2*%
%TO.N,GND*%
X150727500Y-71390000D03*
%TD*%
D26*
%TO.P,R5,1*%
%TO.N,Net-(U6-I{slash}O)*%
X175895000Y-68542500D03*
%TO.P,R5,2*%
%TO.N,Net-(C17-Pad2)*%
X175895000Y-66542500D03*
%TD*%
D30*
%TO.P,R47,1*%
%TO.N,/GP_LED*%
X139580000Y-97820000D03*
%TO.P,R47,2*%
%TO.N,Net-(D3-A)*%
X141580000Y-97820000D03*
%TD*%
D17*
%TO.P,C9,1*%
%TO.N,+5VA*%
X157302500Y-108987500D03*
%TO.P,C9,2*%
%TO.N,Earth*%
X157302500Y-106912500D03*
%TD*%
D12*
%TO.P,C13,1*%
%TO.N,VCC*%
X144801500Y-113665000D03*
%TO.P,C13,2*%
%TO.N,GND*%
X142726500Y-113665000D03*
%TD*%
D32*
%TO.P,U7,1,PD3*%
%TO.N,unconnected-(U7-PD3-Pad1)*%
X138077500Y-84830000D03*
%TO.P,U7,2,PD4*%
%TO.N,unconnected-(U7-PD4-Pad2)*%
X138077500Y-85630000D03*
%TO.P,U7,3,GND*%
%TO.N,GND*%
X138077500Y-86430000D03*
%TO.P,U7,4,VCC*%
%TO.N,VCC*%
X138077500Y-87230000D03*
%TO.P,U7,5,GND*%
%TO.N,GND*%
X138077500Y-88030000D03*
%TO.P,U7,6,VCC*%
%TO.N,VCC*%
X138077500Y-88830000D03*
%TO.P,U7,7,XTAL1/PB6*%
%TO.N,/CLK16*%
X138077500Y-89630000D03*
%TO.P,U7,8,XTAL2/PB7*%
%TO.N,unconnected-(U7-XTAL2{slash}PB7-Pad8)*%
X138077500Y-90430000D03*
D33*
%TO.P,U7,9,PD5*%
%TO.N,/PD5*%
X139440000Y-91792500D03*
%TO.P,U7,10,PD6*%
%TO.N,/PD6{slash}OC0A*%
X140240000Y-91792500D03*
%TO.P,U7,11,PD7*%
%TO.N,/PD7*%
X141040000Y-91792500D03*
%TO.P,U7,12,PB0*%
%TO.N,/PB0*%
X141840000Y-91792500D03*
%TO.P,U7,13,PB1*%
%TO.N,/PB1{slash}OC1A*%
X142640000Y-91792500D03*
%TO.P,U7,14,PB2*%
%TO.N,unconnected-(U7-PB2-Pad14)*%
X143440000Y-91792500D03*
%TO.P,U7,15,PB3*%
%TO.N,/MOSI*%
X144240000Y-91792500D03*
%TO.P,U7,16,PB4*%
%TO.N,/MISO*%
X145040000Y-91792500D03*
D32*
%TO.P,U7,17,PB5*%
%TO.N,/SCK*%
X146402500Y-90430000D03*
%TO.P,U7,18,AVCC*%
%TO.N,Net-(U7-AVCC)*%
X146402500Y-89630000D03*
%TO.P,U7,19,ADC6*%
%TO.N,unconnected-(U7-ADC6-Pad19)*%
X146402500Y-88830000D03*
%TO.P,U7,20,AREF*%
%TO.N,Net-(U7-AREF)*%
X146402500Y-88030000D03*
%TO.P,U7,21,GND*%
%TO.N,GND*%
X146402500Y-87230000D03*
%TO.P,U7,22,ADC7*%
%TO.N,unconnected-(U7-ADC7-Pad22)*%
X146402500Y-86430000D03*
%TO.P,U7,23,PC0*%
%TO.N,/PC0{slash}ADC0*%
X146402500Y-85630000D03*
%TO.P,U7,24,PC1*%
%TO.N,/PC1{slash}ADC1*%
X146402500Y-84830000D03*
D33*
%TO.P,U7,25,PC2*%
%TO.N,/PC2{slash}ADC2*%
X145040000Y-83467500D03*
%TO.P,U7,26,PC3*%
%TO.N,unconnected-(U7-PC3-Pad26)*%
X144240000Y-83467500D03*
%TO.P,U7,27,PC4*%
%TO.N,/SDA*%
X143440000Y-83467500D03*
%TO.P,U7,28,PC5*%
%TO.N,/SCL*%
X142640000Y-83467500D03*
%TO.P,U7,29,~{RESET}/PC6*%
%TO.N,/~{RESET}*%
X141840000Y-83467500D03*
%TO.P,U7,30,PD0*%
%TO.N,/RXD*%
X141040000Y-83467500D03*
%TO.P,U7,31,PD1*%
%TO.N,/TXD*%
X140240000Y-83467500D03*
%TO.P,U7,32,PD2*%
%TO.N,/GP_LED*%
X139440000Y-83467500D03*
%TD*%
D15*
%TO.P,C52,1*%
%TO.N,VCC*%
X135255000Y-86995000D03*
%TO.P,C52,2*%
%TO.N,GND*%
X135255000Y-89070000D03*
%TD*%
D12*
%TO.P,C15,1*%
%TO.N,Net-(U9-REF)*%
X152802500Y-63135000D03*
%TO.P,C15,2*%
%TO.N,GND*%
X150727500Y-63135000D03*
%TD*%
D11*
%TO.P,Q3,1,B*%
%TO.N,Net-(Q3-B)*%
X166818352Y-88760000D03*
%TO.P,Q3,2,E*%
%TO.N,/LED_driver/LED_3*%
X168718352Y-88760000D03*
%TO.P,Q3,3,C*%
%TO.N,+5VA*%
X167768352Y-86360000D03*
%TD*%
D34*
%TO.P,R7,1*%
%TO.N,Earth*%
X180340000Y-89092500D03*
%TO.P,R7,2*%
%TO.N,/LED_driver/LED_K*%
X180340000Y-86167500D03*
%TD*%
D12*
%TO.P,C2,1*%
%TO.N,VBUS*%
X169947500Y-129950000D03*
%TO.P,C2,2*%
%TO.N,Earth*%
X167872500Y-129950000D03*
%TD*%
D15*
%TO.P,C22,1*%
%TO.N,+5VA*%
X161925000Y-75797500D03*
%TO.P,C22,2*%
%TO.N,Earth*%
X161925000Y-77872500D03*
%TD*%
D26*
%TO.P,R3,1*%
%TO.N,Net-(U8-+)*%
X156210000Y-68945000D03*
%TO.P,R3,2*%
%TO.N,Net-(U9-Vout)*%
X156210000Y-66945000D03*
%TD*%
D35*
%TO.P,R4,1*%
%TO.N,Net-(U8-+)*%
X160655000Y-66310000D03*
%TO.P,R4,2*%
%TO.N,Earth*%
X160655000Y-68310000D03*
%TD*%
M02*
