%TF.GenerationSoftware,KiCad,Pcbnew,9.0.3-9.0.3-0~ubuntu24.04.1*%
%TF.CreationDate,2025-08-25T07:44:28-04:00*%
%TF.ProjectId,led-photodiode-avr,6c65642d-7068-46f7-946f-64696f64652d,rev?*%
%TF.SameCoordinates,Original*%
%TF.FileFunction,Soldermask,Top*%
%TF.FilePolarity,Negative*%
%FSLAX46Y46*%
G04 Gerber Fmt 4.6, Leading zero omitted, Abs format (unit mm)*
G04 Created by KiCad (PCBNEW 9.0.3-9.0.3-0~ubuntu24.04.1) date 2025-08-25 07:44:28*
%MOMM*%
%LPD*%
G01*
G04 APERTURE LIST*
G04 Aperture macros list*
%AMRoundRect*
0 Rectangle with rounded corners*
0 $1 Rounding radius*
0 $2 $3 $4 $5 $6 $7 $8 $9 X,Y pos of 4 corners*
0 Add a 4 corners polygon primitive as box body*
4,1,4,$2,$3,$4,$5,$6,$7,$8,$9,$2,$3,0*
0 Add four circle primitives for the rounded corners*
1,1,$1+$1,$2,$3*
1,1,$1+$1,$4,$5*
1,1,$1+$1,$6,$7*
1,1,$1+$1,$8,$9*
0 Add four rect primitives between the rounded corners*
20,1,$1+$1,$2,$3,$4,$5,0*
20,1,$1+$1,$4,$5,$6,$7,0*
20,1,$1+$1,$6,$7,$8,$9,0*
20,1,$1+$1,$8,$9,$2,$3,0*%
G04 Aperture macros list end*
%ADD10RoundRect,0.250000X-0.350000X-0.450000X0.350000X-0.450000X0.350000X0.450000X-0.350000X0.450000X0*%
%ADD11RoundRect,0.250001X1.149999X-1.149999X1.149999X1.149999X-1.149999X1.149999X-1.149999X-1.149999X0*%
%ADD12C,2.800000*%
%ADD13RoundRect,0.250000X-0.325000X-0.450000X0.325000X-0.450000X0.325000X0.450000X-0.325000X0.450000X0*%
%ADD14RoundRect,0.250000X-0.450000X0.325000X-0.450000X-0.325000X0.450000X-0.325000X0.450000X0.325000X0*%
%ADD15RoundRect,0.200000X0.200000X-0.250000X0.200000X0.250000X-0.200000X0.250000X-0.200000X-0.250000X0*%
%ADD16RoundRect,0.250000X0.337500X0.475000X-0.337500X0.475000X-0.337500X-0.475000X0.337500X-0.475000X0*%
%ADD17RoundRect,0.150000X-0.825000X-0.150000X0.825000X-0.150000X0.825000X0.150000X-0.825000X0.150000X0*%
%ADD18R,1.700000X1.700000*%
%ADD19C,1.700000*%
%ADD20C,7.500000*%
%ADD21RoundRect,0.250000X0.450000X-0.350000X0.450000X0.350000X-0.450000X0.350000X-0.450000X-0.350000X0*%
%ADD22RoundRect,0.250000X-0.475000X0.337500X-0.475000X-0.337500X0.475000X-0.337500X0.475000X0.337500X0*%
%ADD23RoundRect,0.250000X-0.400000X-0.300000X0.400000X-0.300000X0.400000X0.300000X-0.400000X0.300000X0*%
%ADD24RoundRect,0.250000X0.475000X-0.337500X0.475000X0.337500X-0.475000X0.337500X-0.475000X-0.337500X0*%
%ADD25RoundRect,0.375000X-0.625000X-0.375000X0.625000X-0.375000X0.625000X0.375000X-0.625000X0.375000X0*%
%ADD26RoundRect,0.500000X-0.500000X-1.400000X0.500000X-1.400000X0.500000X1.400000X-0.500000X1.400000X0*%
%ADD27RoundRect,0.250000X-0.337500X-0.475000X0.337500X-0.475000X0.337500X0.475000X-0.337500X0.475000X0*%
%ADD28RoundRect,0.150000X-0.150000X0.875000X-0.150000X-0.875000X0.150000X-0.875000X0.150000X0.875000X0*%
%ADD29RoundRect,0.150000X0.587500X0.150000X-0.587500X0.150000X-0.587500X-0.150000X0.587500X-0.150000X0*%
%ADD30RoundRect,0.150000X0.825000X0.150000X-0.825000X0.150000X-0.825000X-0.150000X0.825000X-0.150000X0*%
%ADD31RoundRect,0.250000X0.350000X0.450000X-0.350000X0.450000X-0.350000X-0.450000X0.350000X-0.450000X0*%
%ADD32RoundRect,0.250000X0.450000X-0.325000X0.450000X0.325000X-0.450000X0.325000X-0.450000X-0.325000X0*%
%ADD33RoundRect,0.250000X0.600000X0.600000X-0.600000X0.600000X-0.600000X-0.600000X0.600000X-0.600000X0*%
%ADD34RoundRect,0.125000X-0.537500X-0.125000X0.537500X-0.125000X0.537500X0.125000X-0.537500X0.125000X0*%
%ADD35RoundRect,0.137500X-0.600000X-0.137500X0.600000X-0.137500X0.600000X0.137500X-0.600000X0.137500X0*%
%ADD36RoundRect,0.137500X-0.137500X-0.600000X0.137500X-0.600000X0.137500X0.600000X-0.137500X0.600000X0*%
%ADD37RoundRect,0.250000X0.625000X-0.312500X0.625000X0.312500X-0.625000X0.312500X-0.625000X-0.312500X0*%
%ADD38RoundRect,0.250000X-0.450000X0.350000X-0.450000X-0.350000X0.450000X-0.350000X0.450000X0.350000X0*%
G04 APERTURE END LIST*
D10*
%TO.C,R11*%
X138954000Y-102743000D03*
X140954000Y-102743000D03*
%TD*%
D11*
%TO.C,J1*%
X120617500Y-117820000D03*
D12*
X120617500Y-112820000D03*
%TD*%
D13*
%TO.C,D4*%
X143501000Y-102743000D03*
X145551000Y-102743000D03*
%TD*%
D14*
%TO.C,L2*%
X152400000Y-89145000D03*
X152400000Y-91195000D03*
%TD*%
D15*
%TO.C,Q2*%
X161991676Y-88760000D03*
X163891676Y-88760000D03*
X162941676Y-86360000D03*
%TD*%
D16*
%TO.C,C7*%
X131847500Y-129540000D03*
X129772500Y-129540000D03*
%TD*%
D17*
%TO.C,U3*%
X170245000Y-111760000D03*
X170245000Y-113030000D03*
X170245000Y-114300000D03*
X170245000Y-115570000D03*
X175195000Y-115570000D03*
X175195000Y-114300000D03*
X175195000Y-113030000D03*
X175195000Y-111760000D03*
%TD*%
D18*
%TO.C,J4*%
X124460000Y-100330000D03*
D19*
X124460000Y-97790000D03*
X124460000Y-95250000D03*
X124460000Y-92710000D03*
X124460000Y-90170000D03*
X124460000Y-87630000D03*
%TD*%
D20*
%TO.C,H3*%
X121920000Y-132080000D03*
%TD*%
D21*
%TO.C,R10*%
X147320000Y-130270000D03*
X147320000Y-128270000D03*
%TD*%
D22*
%TO.C,C18*%
X163195000Y-66272500D03*
X163195000Y-68347500D03*
%TD*%
D23*
%TO.C,Y1*%
X132935000Y-102425000D03*
X135035000Y-102425000D03*
X135035000Y-100775000D03*
X132935000Y-100775000D03*
%TD*%
D24*
%TO.C,C20*%
X161925000Y-126767500D03*
X161925000Y-124692500D03*
%TD*%
D25*
%TO.C,U10*%
X162585000Y-130020000D03*
X162585000Y-132320000D03*
D26*
X168885000Y-132320000D03*
D25*
X162585000Y-134620000D03*
%TD*%
D22*
%TO.C,C11*%
X156442500Y-124692500D03*
X156442500Y-126767500D03*
%TD*%
D27*
%TO.C,C5*%
X178265000Y-109220000D03*
X180340000Y-109220000D03*
%TD*%
D28*
%TO.C,U5*%
X164207500Y-112190000D03*
X162937500Y-112190000D03*
X161667500Y-112190000D03*
X160397500Y-112190000D03*
X159127500Y-112190000D03*
X157857500Y-112190000D03*
X156587500Y-112190000D03*
X155317500Y-112190000D03*
X154047500Y-112190000D03*
X152777500Y-112190000D03*
X151507500Y-112190000D03*
X150237500Y-112190000D03*
X148967500Y-112190000D03*
X147697500Y-112190000D03*
X147697500Y-121490000D03*
X148967500Y-121490000D03*
X150237500Y-121490000D03*
X151507500Y-121490000D03*
X152777500Y-121490000D03*
X154047500Y-121490000D03*
X155317500Y-121490000D03*
X156587500Y-121490000D03*
X157857500Y-121490000D03*
X159127500Y-121490000D03*
X160397500Y-121490000D03*
X161667500Y-121490000D03*
X162937500Y-121490000D03*
X164207500Y-121490000D03*
%TD*%
D21*
%TO.C,R2*%
X172675000Y-130240000D03*
X172675000Y-128240000D03*
%TD*%
D16*
%TO.C,C6*%
X173990000Y-108585000D03*
X171915000Y-108585000D03*
%TD*%
D29*
%TO.C,U1*%
X180240000Y-118425000D03*
X180240000Y-116525000D03*
X178365000Y-117475000D03*
%TD*%
D15*
%TO.C,Q1*%
X157165000Y-88760000D03*
X159065000Y-88760000D03*
X158115000Y-86360000D03*
%TD*%
D25*
%TO.C,U2*%
X135940000Y-129780000D03*
X135940000Y-132080000D03*
D26*
X142240000Y-132080000D03*
D25*
X135940000Y-134380000D03*
%TD*%
D15*
%TO.C,Q4*%
X171645028Y-88760000D03*
X173545028Y-88760000D03*
X172595028Y-86360000D03*
%TD*%
D20*
%TO.C,H4*%
X180340000Y-132080000D03*
%TD*%
D22*
%TO.C,C19*%
X163195000Y-106912500D03*
X163195000Y-108987500D03*
%TD*%
D30*
%TO.C,U6*%
X161163000Y-81661000D03*
X161163000Y-80391000D03*
X161163000Y-79121000D03*
X161163000Y-77851000D03*
X161163000Y-76581000D03*
X161163000Y-75311000D03*
X161163000Y-74041000D03*
X161163000Y-72771000D03*
X156213000Y-72771000D03*
X156213000Y-74041000D03*
X156213000Y-75311000D03*
X156213000Y-76581000D03*
X156213000Y-77851000D03*
X156213000Y-79121000D03*
X156213000Y-80391000D03*
X156213000Y-81661000D03*
%TD*%
D27*
%TO.C,C23*%
X133180000Y-97790000D03*
X135255000Y-97790000D03*
%TD*%
D16*
%TO.C,C3*%
X159152500Y-134620000D03*
X157077500Y-134620000D03*
%TD*%
D31*
%TO.C,R1*%
X180302500Y-114300000D03*
X178302500Y-114300000D03*
%TD*%
D22*
%TO.C,C21*%
X158369000Y-66272500D03*
X158369000Y-68347500D03*
%TD*%
D16*
%TO.C,C1*%
X180340000Y-121285000D03*
X178265000Y-121285000D03*
%TD*%
D13*
%TO.C,D3*%
X144000000Y-97790000D03*
X146050000Y-97790000D03*
%TD*%
D24*
%TO.C,C10*%
X160252500Y-108987500D03*
X160252500Y-106912500D03*
%TD*%
D21*
%TO.C,R9*%
X140335000Y-77835000D03*
X140335000Y-75835000D03*
%TD*%
D32*
%TO.C,D2*%
X147320000Y-135040000D03*
X147320000Y-132990000D03*
%TD*%
D21*
%TO.C,R6*%
X177165000Y-88630000D03*
X177165000Y-86630000D03*
%TD*%
D16*
%TO.C,C14*%
X144801500Y-116205000D03*
X142726500Y-116205000D03*
%TD*%
D33*
%TO.C,J3*%
X122560000Y-78740000D03*
D19*
X120020000Y-78740000D03*
X122560000Y-76200000D03*
X120020000Y-76200000D03*
X122560000Y-73660000D03*
X120020000Y-73660000D03*
%TD*%
D22*
%TO.C,C12*%
X158982500Y-124692500D03*
X158982500Y-126767500D03*
%TD*%
D24*
%TO.C,C55*%
X149860000Y-86762500D03*
X149860000Y-84687500D03*
%TD*%
D21*
%TO.C,R8*%
X143510000Y-77835000D03*
X143510000Y-75835000D03*
%TD*%
D17*
%TO.C,U8*%
X166689000Y-65278000D03*
X166689000Y-66548000D03*
X166689000Y-67818000D03*
X166689000Y-69088000D03*
X171639000Y-69088000D03*
X171639000Y-67818000D03*
X171639000Y-66548000D03*
X171639000Y-65278000D03*
%TD*%
D18*
%TO.C,J2*%
X176280000Y-96000000D03*
D19*
X176280000Y-98540000D03*
X173740000Y-96000000D03*
X173740000Y-98540000D03*
X171200000Y-96000000D03*
X171200000Y-98540000D03*
X168660000Y-96000000D03*
X168660000Y-98540000D03*
X166120000Y-96000000D03*
X166120000Y-98540000D03*
X163580000Y-96000000D03*
X163580000Y-98540000D03*
X161040000Y-96000000D03*
X161040000Y-98540000D03*
X158500000Y-96000000D03*
X158500000Y-98540000D03*
%TD*%
D10*
%TO.C,R45*%
X131080000Y-77470000D03*
X133080000Y-77470000D03*
%TD*%
D27*
%TO.C,C4*%
X178265000Y-111760000D03*
X180340000Y-111760000D03*
%TD*%
D34*
%TO.C,U9*%
X149992500Y-66970000D03*
X149992500Y-67620000D03*
X149992500Y-68270000D03*
X149992500Y-68920000D03*
X152267500Y-68920000D03*
X152267500Y-68270000D03*
X152267500Y-67620000D03*
X152267500Y-66970000D03*
%TD*%
D27*
%TO.C,C17*%
X168380500Y-71501000D03*
X170455500Y-71501000D03*
%TD*%
D24*
%TO.C,C54*%
X149860000Y-91200000D03*
X149860000Y-89125000D03*
%TD*%
D16*
%TO.C,C8*%
X131847500Y-134620000D03*
X129772500Y-134620000D03*
%TD*%
D31*
%TO.C,R29*%
X131032000Y-94234000D03*
X129032000Y-94234000D03*
%TD*%
D16*
%TO.C,C16*%
X152167500Y-71755000D03*
X150092500Y-71755000D03*
%TD*%
D10*
%TO.C,R5*%
X164100000Y-71501000D03*
X166100000Y-71501000D03*
%TD*%
D13*
%TO.C,L1*%
X153915000Y-103505000D03*
X155965000Y-103505000D03*
%TD*%
D10*
%TO.C,R47*%
X139580000Y-97820000D03*
X141580000Y-97820000D03*
%TD*%
D24*
%TO.C,C9*%
X157302500Y-108987500D03*
X157302500Y-106912500D03*
%TD*%
D20*
%TO.C,H2*%
X180340000Y-62230000D03*
%TD*%
D16*
%TO.C,C13*%
X144801500Y-113665000D03*
X142726500Y-113665000D03*
%TD*%
D35*
%TO.C,U7*%
X138077500Y-84830000D03*
X138077500Y-85630000D03*
X138077500Y-86430000D03*
X138077500Y-87230000D03*
X138077500Y-88030000D03*
X138077500Y-88830000D03*
X138077500Y-89630000D03*
X138077500Y-90430000D03*
D36*
X139440000Y-91792500D03*
X140240000Y-91792500D03*
X141040000Y-91792500D03*
X141840000Y-91792500D03*
X142640000Y-91792500D03*
X143440000Y-91792500D03*
X144240000Y-91792500D03*
X145040000Y-91792500D03*
D35*
X146402500Y-90430000D03*
X146402500Y-89630000D03*
X146402500Y-88830000D03*
X146402500Y-88030000D03*
X146402500Y-87230000D03*
X146402500Y-86430000D03*
X146402500Y-85630000D03*
X146402500Y-84830000D03*
D36*
X145040000Y-83467500D03*
X144240000Y-83467500D03*
X143440000Y-83467500D03*
X142640000Y-83467500D03*
X141840000Y-83467500D03*
X141040000Y-83467500D03*
X140240000Y-83467500D03*
X139440000Y-83467500D03*
%TD*%
D22*
%TO.C,C52*%
X133985000Y-86995000D03*
X133985000Y-89070000D03*
%TD*%
D20*
%TO.C,H1*%
X121920000Y-62230000D03*
%TD*%
D16*
%TO.C,C15*%
X152167500Y-63500000D03*
X150092500Y-63500000D03*
%TD*%
D15*
%TO.C,Q3*%
X166818352Y-88760000D03*
X168718352Y-88760000D03*
X167768352Y-86360000D03*
%TD*%
D37*
%TO.C,R7*%
X180975000Y-89092500D03*
X180975000Y-86167500D03*
%TD*%
D16*
%TO.C,C2*%
X159152500Y-130175000D03*
X157077500Y-130175000D03*
%TD*%
D22*
%TO.C,C22*%
X179070000Y-77300000D03*
X179070000Y-79375000D03*
%TD*%
D32*
%TO.C,D1*%
X172720000Y-135010000D03*
X172720000Y-132960000D03*
%TD*%
D38*
%TO.C,R3*%
X155956000Y-66310000D03*
X155956000Y-68310000D03*
%TD*%
%TO.C,R4*%
X160655000Y-66310000D03*
X160655000Y-68310000D03*
%TD*%
M02*
