%TF.GenerationSoftware,KiCad,Pcbnew,9.0.5-9.0.5~ubuntu24.04.1*%
%TF.CreationDate,2025-10-21T16:22:32-04:00*%
%TF.ProjectId,led-photodiode-avr,6c65642d-7068-46f7-946f-64696f64652d,rev?*%
%TF.SameCoordinates,Original*%
%TF.FileFunction,Legend,Top*%
%TF.FilePolarity,Positive*%
%FSLAX46Y46*%
G04 Gerber Fmt 4.6, Leading zero omitted, Abs format (unit mm)*
G04 Created by KiCad (PCBNEW 9.0.5-9.0.5~ubuntu24.04.1) date 2025-10-21 16:22:32*
%MOMM*%
%LPD*%
G01*
G04 APERTURE LIST*
%ADD10C,0.177800*%
%ADD11C,0.150000*%
%ADD12C,0.120000*%
G04 APERTURE END LIST*
D10*
X128368830Y-59372580D02*
X128368830Y-57848580D01*
X128368830Y-57848580D02*
X129239687Y-59372580D01*
X129239687Y-59372580D02*
X129239687Y-57848580D01*
X129965401Y-59372580D02*
X129965401Y-57848580D01*
X131561972Y-59372580D02*
X131053972Y-58646866D01*
X130691115Y-59372580D02*
X130691115Y-57848580D01*
X130691115Y-57848580D02*
X131271686Y-57848580D01*
X131271686Y-57848580D02*
X131416829Y-57921151D01*
X131416829Y-57921151D02*
X131489400Y-57993723D01*
X131489400Y-57993723D02*
X131561972Y-58138866D01*
X131561972Y-58138866D02*
X131561972Y-58356580D01*
X131561972Y-58356580D02*
X131489400Y-58501723D01*
X131489400Y-58501723D02*
X131416829Y-58574294D01*
X131416829Y-58574294D02*
X131271686Y-58646866D01*
X131271686Y-58646866D02*
X130691115Y-58646866D01*
X133231115Y-57848580D02*
X133593972Y-59372580D01*
X133593972Y-59372580D02*
X133884258Y-58284009D01*
X133884258Y-58284009D02*
X134174543Y-59372580D01*
X134174543Y-59372580D02*
X134537401Y-57848580D01*
X135698543Y-59300009D02*
X135553400Y-59372580D01*
X135553400Y-59372580D02*
X135263115Y-59372580D01*
X135263115Y-59372580D02*
X135117972Y-59300009D01*
X135117972Y-59300009D02*
X135045400Y-59154866D01*
X135045400Y-59154866D02*
X135045400Y-58574294D01*
X135045400Y-58574294D02*
X135117972Y-58429151D01*
X135117972Y-58429151D02*
X135263115Y-58356580D01*
X135263115Y-58356580D02*
X135553400Y-58356580D01*
X135553400Y-58356580D02*
X135698543Y-58429151D01*
X135698543Y-58429151D02*
X135771115Y-58574294D01*
X135771115Y-58574294D02*
X135771115Y-58719437D01*
X135771115Y-58719437D02*
X135045400Y-58864580D01*
X137077401Y-59372580D02*
X137077401Y-58574294D01*
X137077401Y-58574294D02*
X137004829Y-58429151D01*
X137004829Y-58429151D02*
X136859686Y-58356580D01*
X136859686Y-58356580D02*
X136569401Y-58356580D01*
X136569401Y-58356580D02*
X136424258Y-58429151D01*
X137077401Y-59300009D02*
X136932258Y-59372580D01*
X136932258Y-59372580D02*
X136569401Y-59372580D01*
X136569401Y-59372580D02*
X136424258Y-59300009D01*
X136424258Y-59300009D02*
X136351686Y-59154866D01*
X136351686Y-59154866D02*
X136351686Y-59009723D01*
X136351686Y-59009723D02*
X136424258Y-58864580D01*
X136424258Y-58864580D02*
X136569401Y-58792009D01*
X136569401Y-58792009D02*
X136932258Y-58792009D01*
X136932258Y-58792009D02*
X137077401Y-58719437D01*
X137803115Y-59372580D02*
X137803115Y-58356580D01*
X137803115Y-58646866D02*
X137875686Y-58501723D01*
X137875686Y-58501723D02*
X137948258Y-58429151D01*
X137948258Y-58429151D02*
X138093400Y-58356580D01*
X138093400Y-58356580D02*
X138238543Y-58356580D01*
X139399687Y-59372580D02*
X139399687Y-58574294D01*
X139399687Y-58574294D02*
X139327115Y-58429151D01*
X139327115Y-58429151D02*
X139181972Y-58356580D01*
X139181972Y-58356580D02*
X138891687Y-58356580D01*
X138891687Y-58356580D02*
X138746544Y-58429151D01*
X139399687Y-59300009D02*
X139254544Y-59372580D01*
X139254544Y-59372580D02*
X138891687Y-59372580D01*
X138891687Y-59372580D02*
X138746544Y-59300009D01*
X138746544Y-59300009D02*
X138673972Y-59154866D01*
X138673972Y-59154866D02*
X138673972Y-59009723D01*
X138673972Y-59009723D02*
X138746544Y-58864580D01*
X138746544Y-58864580D02*
X138891687Y-58792009D01*
X138891687Y-58792009D02*
X139254544Y-58792009D01*
X139254544Y-58792009D02*
X139399687Y-58719437D01*
X140125401Y-59372580D02*
X140125401Y-57848580D01*
X140125401Y-58429151D02*
X140270544Y-58356580D01*
X140270544Y-58356580D02*
X140560829Y-58356580D01*
X140560829Y-58356580D02*
X140705972Y-58429151D01*
X140705972Y-58429151D02*
X140778544Y-58501723D01*
X140778544Y-58501723D02*
X140851115Y-58646866D01*
X140851115Y-58646866D02*
X140851115Y-59082294D01*
X140851115Y-59082294D02*
X140778544Y-59227437D01*
X140778544Y-59227437D02*
X140705972Y-59300009D01*
X140705972Y-59300009D02*
X140560829Y-59372580D01*
X140560829Y-59372580D02*
X140270544Y-59372580D01*
X140270544Y-59372580D02*
X140125401Y-59300009D01*
X141721972Y-59372580D02*
X141576829Y-59300009D01*
X141576829Y-59300009D02*
X141504258Y-59154866D01*
X141504258Y-59154866D02*
X141504258Y-57848580D01*
X142883115Y-59300009D02*
X142737972Y-59372580D01*
X142737972Y-59372580D02*
X142447687Y-59372580D01*
X142447687Y-59372580D02*
X142302544Y-59300009D01*
X142302544Y-59300009D02*
X142229972Y-59154866D01*
X142229972Y-59154866D02*
X142229972Y-58574294D01*
X142229972Y-58574294D02*
X142302544Y-58429151D01*
X142302544Y-58429151D02*
X142447687Y-58356580D01*
X142447687Y-58356580D02*
X142737972Y-58356580D01*
X142737972Y-58356580D02*
X142883115Y-58429151D01*
X142883115Y-58429151D02*
X142955687Y-58574294D01*
X142955687Y-58574294D02*
X142955687Y-58719437D01*
X142955687Y-58719437D02*
X142229972Y-58864580D01*
X128659115Y-60302135D02*
X128949401Y-60302135D01*
X128949401Y-60302135D02*
X129094544Y-60374706D01*
X129094544Y-60374706D02*
X129239687Y-60519849D01*
X129239687Y-60519849D02*
X129312258Y-60810135D01*
X129312258Y-60810135D02*
X129312258Y-61318135D01*
X129312258Y-61318135D02*
X129239687Y-61608421D01*
X129239687Y-61608421D02*
X129094544Y-61753564D01*
X129094544Y-61753564D02*
X128949401Y-61826135D01*
X128949401Y-61826135D02*
X128659115Y-61826135D01*
X128659115Y-61826135D02*
X128513973Y-61753564D01*
X128513973Y-61753564D02*
X128368830Y-61608421D01*
X128368830Y-61608421D02*
X128296258Y-61318135D01*
X128296258Y-61318135D02*
X128296258Y-60810135D01*
X128296258Y-60810135D02*
X128368830Y-60519849D01*
X128368830Y-60519849D02*
X128513973Y-60374706D01*
X128513973Y-60374706D02*
X128659115Y-60302135D01*
X129965401Y-60810135D02*
X129965401Y-62334135D01*
X129965401Y-60882706D02*
X130110544Y-60810135D01*
X130110544Y-60810135D02*
X130400829Y-60810135D01*
X130400829Y-60810135D02*
X130545972Y-60882706D01*
X130545972Y-60882706D02*
X130618544Y-60955278D01*
X130618544Y-60955278D02*
X130691115Y-61100421D01*
X130691115Y-61100421D02*
X130691115Y-61535849D01*
X130691115Y-61535849D02*
X130618544Y-61680992D01*
X130618544Y-61680992D02*
X130545972Y-61753564D01*
X130545972Y-61753564D02*
X130400829Y-61826135D01*
X130400829Y-61826135D02*
X130110544Y-61826135D01*
X130110544Y-61826135D02*
X129965401Y-61753564D01*
X131126543Y-60810135D02*
X131707115Y-60810135D01*
X131344258Y-60302135D02*
X131344258Y-61608421D01*
X131344258Y-61608421D02*
X131416829Y-61753564D01*
X131416829Y-61753564D02*
X131561972Y-61826135D01*
X131561972Y-61826135D02*
X131707115Y-61826135D01*
X132215115Y-61826135D02*
X132215115Y-60810135D01*
X132215115Y-60302135D02*
X132142543Y-60374706D01*
X132142543Y-60374706D02*
X132215115Y-60447278D01*
X132215115Y-60447278D02*
X132287686Y-60374706D01*
X132287686Y-60374706D02*
X132215115Y-60302135D01*
X132215115Y-60302135D02*
X132215115Y-60447278D01*
X133593972Y-61753564D02*
X133448829Y-61826135D01*
X133448829Y-61826135D02*
X133158543Y-61826135D01*
X133158543Y-61826135D02*
X133013400Y-61753564D01*
X133013400Y-61753564D02*
X132940829Y-61680992D01*
X132940829Y-61680992D02*
X132868257Y-61535849D01*
X132868257Y-61535849D02*
X132868257Y-61100421D01*
X132868257Y-61100421D02*
X132940829Y-60955278D01*
X132940829Y-60955278D02*
X133013400Y-60882706D01*
X133013400Y-60882706D02*
X133158543Y-60810135D01*
X133158543Y-60810135D02*
X133448829Y-60810135D01*
X133448829Y-60810135D02*
X133593972Y-60882706D01*
X134900258Y-61826135D02*
X134900258Y-61027849D01*
X134900258Y-61027849D02*
X134827686Y-60882706D01*
X134827686Y-60882706D02*
X134682543Y-60810135D01*
X134682543Y-60810135D02*
X134392258Y-60810135D01*
X134392258Y-60810135D02*
X134247115Y-60882706D01*
X134900258Y-61753564D02*
X134755115Y-61826135D01*
X134755115Y-61826135D02*
X134392258Y-61826135D01*
X134392258Y-61826135D02*
X134247115Y-61753564D01*
X134247115Y-61753564D02*
X134174543Y-61608421D01*
X134174543Y-61608421D02*
X134174543Y-61463278D01*
X134174543Y-61463278D02*
X134247115Y-61318135D01*
X134247115Y-61318135D02*
X134392258Y-61245564D01*
X134392258Y-61245564D02*
X134755115Y-61245564D01*
X134755115Y-61245564D02*
X134900258Y-61172992D01*
X135843686Y-61826135D02*
X135698543Y-61753564D01*
X135698543Y-61753564D02*
X135625972Y-61608421D01*
X135625972Y-61608421D02*
X135625972Y-60302135D01*
X137367686Y-60302135D02*
X138238544Y-60302135D01*
X137803115Y-61826135D02*
X137803115Y-60302135D01*
X139327115Y-61753564D02*
X139181972Y-61826135D01*
X139181972Y-61826135D02*
X138891687Y-61826135D01*
X138891687Y-61826135D02*
X138746544Y-61753564D01*
X138746544Y-61753564D02*
X138673972Y-61608421D01*
X138673972Y-61608421D02*
X138673972Y-61027849D01*
X138673972Y-61027849D02*
X138746544Y-60882706D01*
X138746544Y-60882706D02*
X138891687Y-60810135D01*
X138891687Y-60810135D02*
X139181972Y-60810135D01*
X139181972Y-60810135D02*
X139327115Y-60882706D01*
X139327115Y-60882706D02*
X139399687Y-61027849D01*
X139399687Y-61027849D02*
X139399687Y-61172992D01*
X139399687Y-61172992D02*
X138673972Y-61318135D01*
X139980258Y-61753564D02*
X140125401Y-61826135D01*
X140125401Y-61826135D02*
X140415687Y-61826135D01*
X140415687Y-61826135D02*
X140560830Y-61753564D01*
X140560830Y-61753564D02*
X140633401Y-61608421D01*
X140633401Y-61608421D02*
X140633401Y-61535849D01*
X140633401Y-61535849D02*
X140560830Y-61390706D01*
X140560830Y-61390706D02*
X140415687Y-61318135D01*
X140415687Y-61318135D02*
X140197973Y-61318135D01*
X140197973Y-61318135D02*
X140052830Y-61245564D01*
X140052830Y-61245564D02*
X139980258Y-61100421D01*
X139980258Y-61100421D02*
X139980258Y-61027849D01*
X139980258Y-61027849D02*
X140052830Y-60882706D01*
X140052830Y-60882706D02*
X140197973Y-60810135D01*
X140197973Y-60810135D02*
X140415687Y-60810135D01*
X140415687Y-60810135D02*
X140560830Y-60882706D01*
X141068829Y-60810135D02*
X141649401Y-60810135D01*
X141286544Y-60302135D02*
X141286544Y-61608421D01*
X141286544Y-61608421D02*
X141359115Y-61753564D01*
X141359115Y-61753564D02*
X141504258Y-61826135D01*
X141504258Y-61826135D02*
X141649401Y-61826135D01*
X128151115Y-62755690D02*
X128659115Y-64279690D01*
X128659115Y-64279690D02*
X129167115Y-62755690D01*
X129602544Y-62900833D02*
X129675116Y-62828261D01*
X129675116Y-62828261D02*
X129820259Y-62755690D01*
X129820259Y-62755690D02*
X130183116Y-62755690D01*
X130183116Y-62755690D02*
X130328259Y-62828261D01*
X130328259Y-62828261D02*
X130400830Y-62900833D01*
X130400830Y-62900833D02*
X130473401Y-63045976D01*
X130473401Y-63045976D02*
X130473401Y-63191119D01*
X130473401Y-63191119D02*
X130400830Y-63408833D01*
X130400830Y-63408833D02*
X129529973Y-64279690D01*
X129529973Y-64279690D02*
X130473401Y-64279690D01*
X131126545Y-64134547D02*
X131199116Y-64207119D01*
X131199116Y-64207119D02*
X131126545Y-64279690D01*
X131126545Y-64279690D02*
X131053973Y-64207119D01*
X131053973Y-64207119D02*
X131126545Y-64134547D01*
X131126545Y-64134547D02*
X131126545Y-64279690D01*
X132142544Y-62755690D02*
X132287687Y-62755690D01*
X132287687Y-62755690D02*
X132432830Y-62828261D01*
X132432830Y-62828261D02*
X132505402Y-62900833D01*
X132505402Y-62900833D02*
X132577973Y-63045976D01*
X132577973Y-63045976D02*
X132650544Y-63336261D01*
X132650544Y-63336261D02*
X132650544Y-63699119D01*
X132650544Y-63699119D02*
X132577973Y-63989404D01*
X132577973Y-63989404D02*
X132505402Y-64134547D01*
X132505402Y-64134547D02*
X132432830Y-64207119D01*
X132432830Y-64207119D02*
X132287687Y-64279690D01*
X132287687Y-64279690D02*
X132142544Y-64279690D01*
X132142544Y-64279690D02*
X131997402Y-64207119D01*
X131997402Y-64207119D02*
X131924830Y-64134547D01*
X131924830Y-64134547D02*
X131852259Y-63989404D01*
X131852259Y-63989404D02*
X131779687Y-63699119D01*
X131779687Y-63699119D02*
X131779687Y-63336261D01*
X131779687Y-63336261D02*
X131852259Y-63045976D01*
X131852259Y-63045976D02*
X131924830Y-62900833D01*
X131924830Y-62900833D02*
X131997402Y-62828261D01*
X131997402Y-62828261D02*
X132142544Y-62755690D01*
X134464831Y-63699119D02*
X135625974Y-63699119D01*
X136279116Y-62900833D02*
X136351688Y-62828261D01*
X136351688Y-62828261D02*
X136496831Y-62755690D01*
X136496831Y-62755690D02*
X136859688Y-62755690D01*
X136859688Y-62755690D02*
X137004831Y-62828261D01*
X137004831Y-62828261D02*
X137077402Y-62900833D01*
X137077402Y-62900833D02*
X137149973Y-63045976D01*
X137149973Y-63045976D02*
X137149973Y-63191119D01*
X137149973Y-63191119D02*
X137077402Y-63408833D01*
X137077402Y-63408833D02*
X136206545Y-64279690D01*
X136206545Y-64279690D02*
X137149973Y-64279690D01*
X138093402Y-62755690D02*
X138238545Y-62755690D01*
X138238545Y-62755690D02*
X138383688Y-62828261D01*
X138383688Y-62828261D02*
X138456260Y-62900833D01*
X138456260Y-62900833D02*
X138528831Y-63045976D01*
X138528831Y-63045976D02*
X138601402Y-63336261D01*
X138601402Y-63336261D02*
X138601402Y-63699119D01*
X138601402Y-63699119D02*
X138528831Y-63989404D01*
X138528831Y-63989404D02*
X138456260Y-64134547D01*
X138456260Y-64134547D02*
X138383688Y-64207119D01*
X138383688Y-64207119D02*
X138238545Y-64279690D01*
X138238545Y-64279690D02*
X138093402Y-64279690D01*
X138093402Y-64279690D02*
X137948260Y-64207119D01*
X137948260Y-64207119D02*
X137875688Y-64134547D01*
X137875688Y-64134547D02*
X137803117Y-63989404D01*
X137803117Y-63989404D02*
X137730545Y-63699119D01*
X137730545Y-63699119D02*
X137730545Y-63336261D01*
X137730545Y-63336261D02*
X137803117Y-63045976D01*
X137803117Y-63045976D02*
X137875688Y-62900833D01*
X137875688Y-62900833D02*
X137948260Y-62828261D01*
X137948260Y-62828261D02*
X138093402Y-62755690D01*
X139181974Y-62900833D02*
X139254546Y-62828261D01*
X139254546Y-62828261D02*
X139399689Y-62755690D01*
X139399689Y-62755690D02*
X139762546Y-62755690D01*
X139762546Y-62755690D02*
X139907689Y-62828261D01*
X139907689Y-62828261D02*
X139980260Y-62900833D01*
X139980260Y-62900833D02*
X140052831Y-63045976D01*
X140052831Y-63045976D02*
X140052831Y-63191119D01*
X140052831Y-63191119D02*
X139980260Y-63408833D01*
X139980260Y-63408833D02*
X139109403Y-64279690D01*
X139109403Y-64279690D02*
X140052831Y-64279690D01*
X141431689Y-62755690D02*
X140705975Y-62755690D01*
X140705975Y-62755690D02*
X140633403Y-63481404D01*
X140633403Y-63481404D02*
X140705975Y-63408833D01*
X140705975Y-63408833D02*
X140851118Y-63336261D01*
X140851118Y-63336261D02*
X141213975Y-63336261D01*
X141213975Y-63336261D02*
X141359118Y-63408833D01*
X141359118Y-63408833D02*
X141431689Y-63481404D01*
X141431689Y-63481404D02*
X141504260Y-63626547D01*
X141504260Y-63626547D02*
X141504260Y-63989404D01*
X141504260Y-63989404D02*
X141431689Y-64134547D01*
X141431689Y-64134547D02*
X141359118Y-64207119D01*
X141359118Y-64207119D02*
X141213975Y-64279690D01*
X141213975Y-64279690D02*
X140851118Y-64279690D01*
X140851118Y-64279690D02*
X140705975Y-64207119D01*
X140705975Y-64207119D02*
X140633403Y-64134547D01*
X142157404Y-63699119D02*
X143318547Y-63699119D01*
X144842546Y-64279690D02*
X143971689Y-64279690D01*
X144407118Y-64279690D02*
X144407118Y-62755690D01*
X144407118Y-62755690D02*
X144261975Y-62973404D01*
X144261975Y-62973404D02*
X144116832Y-63118547D01*
X144116832Y-63118547D02*
X143971689Y-63191119D01*
X145785975Y-62755690D02*
X145931118Y-62755690D01*
X145931118Y-62755690D02*
X146076261Y-62828261D01*
X146076261Y-62828261D02*
X146148833Y-62900833D01*
X146148833Y-62900833D02*
X146221404Y-63045976D01*
X146221404Y-63045976D02*
X146293975Y-63336261D01*
X146293975Y-63336261D02*
X146293975Y-63699119D01*
X146293975Y-63699119D02*
X146221404Y-63989404D01*
X146221404Y-63989404D02*
X146148833Y-64134547D01*
X146148833Y-64134547D02*
X146076261Y-64207119D01*
X146076261Y-64207119D02*
X145931118Y-64279690D01*
X145931118Y-64279690D02*
X145785975Y-64279690D01*
X145785975Y-64279690D02*
X145640833Y-64207119D01*
X145640833Y-64207119D02*
X145568261Y-64134547D01*
X145568261Y-64134547D02*
X145495690Y-63989404D01*
X145495690Y-63989404D02*
X145423118Y-63699119D01*
X145423118Y-63699119D02*
X145423118Y-63336261D01*
X145423118Y-63336261D02*
X145495690Y-63045976D01*
X145495690Y-63045976D02*
X145568261Y-62900833D01*
X145568261Y-62900833D02*
X145640833Y-62828261D01*
X145640833Y-62828261D02*
X145785975Y-62755690D01*
X128368830Y-65934959D02*
X128876830Y-65934959D01*
X129094544Y-66733245D02*
X128368830Y-66733245D01*
X128368830Y-66733245D02*
X128368830Y-65209245D01*
X128368830Y-65209245D02*
X129094544Y-65209245D01*
X129747687Y-66588102D02*
X129820258Y-66660674D01*
X129820258Y-66660674D02*
X129747687Y-66733245D01*
X129747687Y-66733245D02*
X129675115Y-66660674D01*
X129675115Y-66660674D02*
X129747687Y-66588102D01*
X129747687Y-66588102D02*
X129747687Y-66733245D01*
X131634544Y-66733245D02*
X131634544Y-65209245D01*
X131634544Y-65934959D02*
X132505401Y-65934959D01*
X132505401Y-66733245D02*
X132505401Y-65209245D01*
X133884258Y-66733245D02*
X133884258Y-65934959D01*
X133884258Y-65934959D02*
X133811686Y-65789816D01*
X133811686Y-65789816D02*
X133666543Y-65717245D01*
X133666543Y-65717245D02*
X133376258Y-65717245D01*
X133376258Y-65717245D02*
X133231115Y-65789816D01*
X133884258Y-66660674D02*
X133739115Y-66733245D01*
X133739115Y-66733245D02*
X133376258Y-66733245D01*
X133376258Y-66733245D02*
X133231115Y-66660674D01*
X133231115Y-66660674D02*
X133158543Y-66515531D01*
X133158543Y-66515531D02*
X133158543Y-66370388D01*
X133158543Y-66370388D02*
X133231115Y-66225245D01*
X133231115Y-66225245D02*
X133376258Y-66152674D01*
X133376258Y-66152674D02*
X133739115Y-66152674D01*
X133739115Y-66152674D02*
X133884258Y-66080102D01*
X134464829Y-65717245D02*
X135263115Y-65717245D01*
X135263115Y-65717245D02*
X134464829Y-66733245D01*
X134464829Y-66733245D02*
X135263115Y-66733245D01*
X136424257Y-66660674D02*
X136279114Y-66733245D01*
X136279114Y-66733245D02*
X135988829Y-66733245D01*
X135988829Y-66733245D02*
X135843686Y-66660674D01*
X135843686Y-66660674D02*
X135771114Y-66515531D01*
X135771114Y-66515531D02*
X135771114Y-65934959D01*
X135771114Y-65934959D02*
X135843686Y-65789816D01*
X135843686Y-65789816D02*
X135988829Y-65717245D01*
X135988829Y-65717245D02*
X136279114Y-65717245D01*
X136279114Y-65717245D02*
X136424257Y-65789816D01*
X136424257Y-65789816D02*
X136496829Y-65934959D01*
X136496829Y-65934959D02*
X136496829Y-66080102D01*
X136496829Y-66080102D02*
X135771114Y-66225245D01*
X137149972Y-65717245D02*
X137149972Y-66733245D01*
X137149972Y-65862388D02*
X137222543Y-65789816D01*
X137222543Y-65789816D02*
X137367686Y-65717245D01*
X137367686Y-65717245D02*
X137585400Y-65717245D01*
X137585400Y-65717245D02*
X137730543Y-65789816D01*
X137730543Y-65789816D02*
X137803115Y-65934959D01*
X137803115Y-65934959D02*
X137803115Y-66733245D01*
X126209830Y-117968674D02*
X127370973Y-117968674D01*
X126790401Y-118549245D02*
X126790401Y-117388102D01*
X128169258Y-118549245D02*
X128459544Y-118549245D01*
X128459544Y-118549245D02*
X128604687Y-118476674D01*
X128604687Y-118476674D02*
X128677258Y-118404102D01*
X128677258Y-118404102D02*
X128822401Y-118186388D01*
X128822401Y-118186388D02*
X128894972Y-117896102D01*
X128894972Y-117896102D02*
X128894972Y-117315531D01*
X128894972Y-117315531D02*
X128822401Y-117170388D01*
X128822401Y-117170388D02*
X128749830Y-117097816D01*
X128749830Y-117097816D02*
X128604687Y-117025245D01*
X128604687Y-117025245D02*
X128314401Y-117025245D01*
X128314401Y-117025245D02*
X128169258Y-117097816D01*
X128169258Y-117097816D02*
X128096687Y-117170388D01*
X128096687Y-117170388D02*
X128024115Y-117315531D01*
X128024115Y-117315531D02*
X128024115Y-117678388D01*
X128024115Y-117678388D02*
X128096687Y-117823531D01*
X128096687Y-117823531D02*
X128169258Y-117896102D01*
X128169258Y-117896102D02*
X128314401Y-117968674D01*
X128314401Y-117968674D02*
X128604687Y-117968674D01*
X128604687Y-117968674D02*
X128749830Y-117896102D01*
X128749830Y-117896102D02*
X128822401Y-117823531D01*
X128822401Y-117823531D02*
X128894972Y-117678388D01*
X129330401Y-117025245D02*
X129838401Y-118549245D01*
X129838401Y-118549245D02*
X130346401Y-117025245D01*
X126373115Y-80449245D02*
X125502258Y-80449245D01*
X125937687Y-80449245D02*
X125937687Y-78925245D01*
X125937687Y-78925245D02*
X125792544Y-79142959D01*
X125792544Y-79142959D02*
X125647401Y-79288102D01*
X125647401Y-79288102D02*
X125502258Y-79360674D01*
X127643115Y-99571816D02*
X127497973Y-99499245D01*
X127497973Y-99499245D02*
X127280258Y-99499245D01*
X127280258Y-99499245D02*
X127062544Y-99571816D01*
X127062544Y-99571816D02*
X126917401Y-99716959D01*
X126917401Y-99716959D02*
X126844830Y-99862102D01*
X126844830Y-99862102D02*
X126772258Y-100152388D01*
X126772258Y-100152388D02*
X126772258Y-100370102D01*
X126772258Y-100370102D02*
X126844830Y-100660388D01*
X126844830Y-100660388D02*
X126917401Y-100805531D01*
X126917401Y-100805531D02*
X127062544Y-100950674D01*
X127062544Y-100950674D02*
X127280258Y-101023245D01*
X127280258Y-101023245D02*
X127425401Y-101023245D01*
X127425401Y-101023245D02*
X127643115Y-100950674D01*
X127643115Y-100950674D02*
X127715687Y-100878102D01*
X127715687Y-100878102D02*
X127715687Y-100370102D01*
X127715687Y-100370102D02*
X127425401Y-100370102D01*
X128368830Y-101023245D02*
X128368830Y-99499245D01*
X128368830Y-99499245D02*
X129239687Y-101023245D01*
X129239687Y-101023245D02*
X129239687Y-99499245D01*
X129965401Y-101023245D02*
X129965401Y-99499245D01*
X129965401Y-99499245D02*
X130328258Y-99499245D01*
X130328258Y-99499245D02*
X130545972Y-99571816D01*
X130545972Y-99571816D02*
X130691115Y-99716959D01*
X130691115Y-99716959D02*
X130763686Y-99862102D01*
X130763686Y-99862102D02*
X130836258Y-100152388D01*
X130836258Y-100152388D02*
X130836258Y-100370102D01*
X130836258Y-100370102D02*
X130763686Y-100660388D01*
X130763686Y-100660388D02*
X130691115Y-100805531D01*
X130691115Y-100805531D02*
X130545972Y-100950674D01*
X130545972Y-100950674D02*
X130328258Y-101023245D01*
X130328258Y-101023245D02*
X129965401Y-101023245D01*
X118589830Y-70924245D02*
X118589830Y-69400245D01*
X119242972Y-70851674D02*
X119460687Y-70924245D01*
X119460687Y-70924245D02*
X119823544Y-70924245D01*
X119823544Y-70924245D02*
X119968687Y-70851674D01*
X119968687Y-70851674D02*
X120041258Y-70779102D01*
X120041258Y-70779102D02*
X120113829Y-70633959D01*
X120113829Y-70633959D02*
X120113829Y-70488816D01*
X120113829Y-70488816D02*
X120041258Y-70343674D01*
X120041258Y-70343674D02*
X119968687Y-70271102D01*
X119968687Y-70271102D02*
X119823544Y-70198531D01*
X119823544Y-70198531D02*
X119533258Y-70125959D01*
X119533258Y-70125959D02*
X119388115Y-70053388D01*
X119388115Y-70053388D02*
X119315544Y-69980816D01*
X119315544Y-69980816D02*
X119242972Y-69835674D01*
X119242972Y-69835674D02*
X119242972Y-69690531D01*
X119242972Y-69690531D02*
X119315544Y-69545388D01*
X119315544Y-69545388D02*
X119388115Y-69472816D01*
X119388115Y-69472816D02*
X119533258Y-69400245D01*
X119533258Y-69400245D02*
X119896115Y-69400245D01*
X119896115Y-69400245D02*
X120113829Y-69472816D01*
X120766973Y-70924245D02*
X120766973Y-69400245D01*
X120766973Y-69400245D02*
X121347544Y-69400245D01*
X121347544Y-69400245D02*
X121492687Y-69472816D01*
X121492687Y-69472816D02*
X121565258Y-69545388D01*
X121565258Y-69545388D02*
X121637830Y-69690531D01*
X121637830Y-69690531D02*
X121637830Y-69908245D01*
X121637830Y-69908245D02*
X121565258Y-70053388D01*
X121565258Y-70053388D02*
X121492687Y-70125959D01*
X121492687Y-70125959D02*
X121347544Y-70198531D01*
X121347544Y-70198531D02*
X120766973Y-70198531D01*
X124177830Y-69400245D02*
X123452116Y-69400245D01*
X123452116Y-69400245D02*
X123379544Y-70125959D01*
X123379544Y-70125959D02*
X123452116Y-70053388D01*
X123452116Y-70053388D02*
X123597259Y-69980816D01*
X123597259Y-69980816D02*
X123960116Y-69980816D01*
X123960116Y-69980816D02*
X124105259Y-70053388D01*
X124105259Y-70053388D02*
X124177830Y-70125959D01*
X124177830Y-70125959D02*
X124250401Y-70271102D01*
X124250401Y-70271102D02*
X124250401Y-70633959D01*
X124250401Y-70633959D02*
X124177830Y-70779102D01*
X124177830Y-70779102D02*
X124105259Y-70851674D01*
X124105259Y-70851674D02*
X123960116Y-70924245D01*
X123960116Y-70924245D02*
X123597259Y-70924245D01*
X123597259Y-70924245D02*
X123452116Y-70851674D01*
X123452116Y-70851674D02*
X123379544Y-70779102D01*
X124685830Y-69400245D02*
X125193830Y-70924245D01*
X125193830Y-70924245D02*
X125701830Y-69400245D01*
X126500115Y-89339245D02*
X127370973Y-89339245D01*
X126935544Y-90863245D02*
X126935544Y-89339245D01*
X127733830Y-89339245D02*
X128749830Y-90863245D01*
X128749830Y-89339245D02*
X127733830Y-90863245D01*
X127461687Y-93403245D02*
X126953687Y-92677531D01*
X126590830Y-93403245D02*
X126590830Y-91879245D01*
X126590830Y-91879245D02*
X127171401Y-91879245D01*
X127171401Y-91879245D02*
X127316544Y-91951816D01*
X127316544Y-91951816D02*
X127389115Y-92024388D01*
X127389115Y-92024388D02*
X127461687Y-92169531D01*
X127461687Y-92169531D02*
X127461687Y-92387245D01*
X127461687Y-92387245D02*
X127389115Y-92532388D01*
X127389115Y-92532388D02*
X127316544Y-92604959D01*
X127316544Y-92604959D02*
X127171401Y-92677531D01*
X127171401Y-92677531D02*
X126590830Y-92677531D01*
X127969687Y-91879245D02*
X128985687Y-93403245D01*
X128985687Y-91879245D02*
X127969687Y-93403245D01*
X127008115Y-112017816D02*
X126862973Y-111945245D01*
X126862973Y-111945245D02*
X126645258Y-111945245D01*
X126645258Y-111945245D02*
X126427544Y-112017816D01*
X126427544Y-112017816D02*
X126282401Y-112162959D01*
X126282401Y-112162959D02*
X126209830Y-112308102D01*
X126209830Y-112308102D02*
X126137258Y-112598388D01*
X126137258Y-112598388D02*
X126137258Y-112816102D01*
X126137258Y-112816102D02*
X126209830Y-113106388D01*
X126209830Y-113106388D02*
X126282401Y-113251531D01*
X126282401Y-113251531D02*
X126427544Y-113396674D01*
X126427544Y-113396674D02*
X126645258Y-113469245D01*
X126645258Y-113469245D02*
X126790401Y-113469245D01*
X126790401Y-113469245D02*
X127008115Y-113396674D01*
X127008115Y-113396674D02*
X127080687Y-113324102D01*
X127080687Y-113324102D02*
X127080687Y-112816102D01*
X127080687Y-112816102D02*
X126790401Y-112816102D01*
X127733830Y-113469245D02*
X127733830Y-111945245D01*
X127733830Y-111945245D02*
X128604687Y-113469245D01*
X128604687Y-113469245D02*
X128604687Y-111945245D01*
X129330401Y-113469245D02*
X129330401Y-111945245D01*
X129330401Y-111945245D02*
X129693258Y-111945245D01*
X129693258Y-111945245D02*
X129910972Y-112017816D01*
X129910972Y-112017816D02*
X130056115Y-112162959D01*
X130056115Y-112162959D02*
X130128686Y-112308102D01*
X130128686Y-112308102D02*
X130201258Y-112598388D01*
X130201258Y-112598388D02*
X130201258Y-112816102D01*
X130201258Y-112816102D02*
X130128686Y-113106388D01*
X130128686Y-113106388D02*
X130056115Y-113251531D01*
X130056115Y-113251531D02*
X129910972Y-113396674D01*
X129910972Y-113396674D02*
X129693258Y-113469245D01*
X129693258Y-113469245D02*
X129330401Y-113469245D01*
X153173527Y-87439499D02*
X153173527Y-87983785D01*
X153173527Y-87983785D02*
X152030527Y-87983785D01*
X153173527Y-86459784D02*
X153173527Y-87112927D01*
X153173527Y-86786356D02*
X152030527Y-86786356D01*
X152030527Y-86786356D02*
X152193813Y-86895213D01*
X152193813Y-86895213D02*
X152302670Y-87004070D01*
X152302670Y-87004070D02*
X152357099Y-87112927D01*
D11*
X163830095Y-61303819D02*
X163830095Y-62113342D01*
X163830095Y-62113342D02*
X163877714Y-62208580D01*
X163877714Y-62208580D02*
X163925333Y-62256200D01*
X163925333Y-62256200D02*
X164020571Y-62303819D01*
X164020571Y-62303819D02*
X164211047Y-62303819D01*
X164211047Y-62303819D02*
X164306285Y-62256200D01*
X164306285Y-62256200D02*
X164353904Y-62208580D01*
X164353904Y-62208580D02*
X164401523Y-62113342D01*
X164401523Y-62113342D02*
X164401523Y-61303819D01*
X165306285Y-61637152D02*
X165306285Y-62303819D01*
X165068190Y-61256200D02*
X164830095Y-61970485D01*
X164830095Y-61970485D02*
X165449142Y-61970485D01*
D10*
X179088142Y-92957384D02*
X178979285Y-92902956D01*
X178979285Y-92902956D02*
X178870428Y-92794099D01*
X178870428Y-92794099D02*
X178707142Y-92630813D01*
X178707142Y-92630813D02*
X178598285Y-92576384D01*
X178598285Y-92576384D02*
X178489428Y-92576384D01*
X178543857Y-92848527D02*
X178435000Y-92794099D01*
X178435000Y-92794099D02*
X178326142Y-92685241D01*
X178326142Y-92685241D02*
X178271714Y-92467527D01*
X178271714Y-92467527D02*
X178271714Y-92086527D01*
X178271714Y-92086527D02*
X178326142Y-91868813D01*
X178326142Y-91868813D02*
X178435000Y-91759956D01*
X178435000Y-91759956D02*
X178543857Y-91705527D01*
X178543857Y-91705527D02*
X178761571Y-91705527D01*
X178761571Y-91705527D02*
X178870428Y-91759956D01*
X178870428Y-91759956D02*
X178979285Y-91868813D01*
X178979285Y-91868813D02*
X179033714Y-92086527D01*
X179033714Y-92086527D02*
X179033714Y-92467527D01*
X179033714Y-92467527D02*
X178979285Y-92685241D01*
X178979285Y-92685241D02*
X178870428Y-92794099D01*
X178870428Y-92794099D02*
X178761571Y-92848527D01*
X178761571Y-92848527D02*
X178543857Y-92848527D01*
X179414714Y-91705527D02*
X180176714Y-91705527D01*
X180176714Y-91705527D02*
X179686857Y-92848527D01*
X130075214Y-128045670D02*
X130020786Y-128100099D01*
X130020786Y-128100099D02*
X129857500Y-128154527D01*
X129857500Y-128154527D02*
X129748643Y-128154527D01*
X129748643Y-128154527D02*
X129585357Y-128100099D01*
X129585357Y-128100099D02*
X129476500Y-127991241D01*
X129476500Y-127991241D02*
X129422071Y-127882384D01*
X129422071Y-127882384D02*
X129367643Y-127664670D01*
X129367643Y-127664670D02*
X129367643Y-127501384D01*
X129367643Y-127501384D02*
X129422071Y-127283670D01*
X129422071Y-127283670D02*
X129476500Y-127174813D01*
X129476500Y-127174813D02*
X129585357Y-127065956D01*
X129585357Y-127065956D02*
X129748643Y-127011527D01*
X129748643Y-127011527D02*
X129857500Y-127011527D01*
X129857500Y-127011527D02*
X130020786Y-127065956D01*
X130020786Y-127065956D02*
X130075214Y-127120384D01*
X130510643Y-127120384D02*
X130565071Y-127065956D01*
X130565071Y-127065956D02*
X130673929Y-127011527D01*
X130673929Y-127011527D02*
X130946071Y-127011527D01*
X130946071Y-127011527D02*
X131054929Y-127065956D01*
X131054929Y-127065956D02*
X131109357Y-127120384D01*
X131109357Y-127120384D02*
X131163786Y-127229241D01*
X131163786Y-127229241D02*
X131163786Y-127338099D01*
X131163786Y-127338099D02*
X131109357Y-127501384D01*
X131109357Y-127501384D02*
X130456214Y-128154527D01*
X130456214Y-128154527D02*
X131163786Y-128154527D01*
X132197928Y-127011527D02*
X131653642Y-127011527D01*
X131653642Y-127011527D02*
X131599214Y-127555813D01*
X131599214Y-127555813D02*
X131653642Y-127501384D01*
X131653642Y-127501384D02*
X131762500Y-127446956D01*
X131762500Y-127446956D02*
X132034642Y-127446956D01*
X132034642Y-127446956D02*
X132143500Y-127501384D01*
X132143500Y-127501384D02*
X132197928Y-127555813D01*
X132197928Y-127555813D02*
X132252357Y-127664670D01*
X132252357Y-127664670D02*
X132252357Y-127936813D01*
X132252357Y-127936813D02*
X132197928Y-128045670D01*
X132197928Y-128045670D02*
X132143500Y-128100099D01*
X132143500Y-128100099D02*
X132034642Y-128154527D01*
X132034642Y-128154527D02*
X131762500Y-128154527D01*
X131762500Y-128154527D02*
X131653642Y-128100099D01*
X131653642Y-128100099D02*
X131599214Y-128045670D01*
X139219214Y-105167527D02*
X138838214Y-104623241D01*
X138566071Y-105167527D02*
X138566071Y-104024527D01*
X138566071Y-104024527D02*
X139001500Y-104024527D01*
X139001500Y-104024527D02*
X139110357Y-104078956D01*
X139110357Y-104078956D02*
X139164786Y-104133384D01*
X139164786Y-104133384D02*
X139219214Y-104242241D01*
X139219214Y-104242241D02*
X139219214Y-104405527D01*
X139219214Y-104405527D02*
X139164786Y-104514384D01*
X139164786Y-104514384D02*
X139110357Y-104568813D01*
X139110357Y-104568813D02*
X139001500Y-104623241D01*
X139001500Y-104623241D02*
X138566071Y-104623241D01*
X140307786Y-105167527D02*
X139654643Y-105167527D01*
X139981214Y-105167527D02*
X139981214Y-104024527D01*
X139981214Y-104024527D02*
X139872357Y-104187813D01*
X139872357Y-104187813D02*
X139763500Y-104296670D01*
X139763500Y-104296670D02*
X139654643Y-104351099D01*
X140743214Y-104133384D02*
X140797642Y-104078956D01*
X140797642Y-104078956D02*
X140906500Y-104024527D01*
X140906500Y-104024527D02*
X141178642Y-104024527D01*
X141178642Y-104024527D02*
X141287500Y-104078956D01*
X141287500Y-104078956D02*
X141341928Y-104133384D01*
X141341928Y-104133384D02*
X141396357Y-104242241D01*
X141396357Y-104242241D02*
X141396357Y-104351099D01*
X141396357Y-104351099D02*
X141341928Y-104514384D01*
X141341928Y-104514384D02*
X140688785Y-105167527D01*
X140688785Y-105167527D02*
X141396357Y-105167527D01*
X171849142Y-117486527D02*
X171849142Y-118411813D01*
X171849142Y-118411813D02*
X171903571Y-118520670D01*
X171903571Y-118520670D02*
X171958000Y-118575099D01*
X171958000Y-118575099D02*
X172066857Y-118629527D01*
X172066857Y-118629527D02*
X172284571Y-118629527D01*
X172284571Y-118629527D02*
X172393428Y-118575099D01*
X172393428Y-118575099D02*
X172447857Y-118520670D01*
X172447857Y-118520670D02*
X172502285Y-118411813D01*
X172502285Y-118411813D02*
X172502285Y-117486527D01*
X173209857Y-117976384D02*
X173101000Y-117921956D01*
X173101000Y-117921956D02*
X173046571Y-117867527D01*
X173046571Y-117867527D02*
X172992143Y-117758670D01*
X172992143Y-117758670D02*
X172992143Y-117704241D01*
X172992143Y-117704241D02*
X173046571Y-117595384D01*
X173046571Y-117595384D02*
X173101000Y-117540956D01*
X173101000Y-117540956D02*
X173209857Y-117486527D01*
X173209857Y-117486527D02*
X173427571Y-117486527D01*
X173427571Y-117486527D02*
X173536429Y-117540956D01*
X173536429Y-117540956D02*
X173590857Y-117595384D01*
X173590857Y-117595384D02*
X173645286Y-117704241D01*
X173645286Y-117704241D02*
X173645286Y-117758670D01*
X173645286Y-117758670D02*
X173590857Y-117867527D01*
X173590857Y-117867527D02*
X173536429Y-117921956D01*
X173536429Y-117921956D02*
X173427571Y-117976384D01*
X173427571Y-117976384D02*
X173209857Y-117976384D01*
X173209857Y-117976384D02*
X173101000Y-118030813D01*
X173101000Y-118030813D02*
X173046571Y-118085241D01*
X173046571Y-118085241D02*
X172992143Y-118194099D01*
X172992143Y-118194099D02*
X172992143Y-118411813D01*
X172992143Y-118411813D02*
X173046571Y-118520670D01*
X173046571Y-118520670D02*
X173101000Y-118575099D01*
X173101000Y-118575099D02*
X173209857Y-118629527D01*
X173209857Y-118629527D02*
X173427571Y-118629527D01*
X173427571Y-118629527D02*
X173536429Y-118575099D01*
X173536429Y-118575099D02*
X173590857Y-118520670D01*
X173590857Y-118520670D02*
X173645286Y-118411813D01*
X173645286Y-118411813D02*
X173645286Y-118194099D01*
X173645286Y-118194099D02*
X173590857Y-118085241D01*
X173590857Y-118085241D02*
X173536429Y-118030813D01*
X173536429Y-118030813D02*
X173427571Y-117976384D01*
X123571000Y-83831527D02*
X123571000Y-84647956D01*
X123571000Y-84647956D02*
X123516571Y-84811241D01*
X123516571Y-84811241D02*
X123407714Y-84920099D01*
X123407714Y-84920099D02*
X123244428Y-84974527D01*
X123244428Y-84974527D02*
X123135571Y-84974527D01*
X124006428Y-83831527D02*
X124714000Y-83831527D01*
X124714000Y-83831527D02*
X124333000Y-84266956D01*
X124333000Y-84266956D02*
X124496285Y-84266956D01*
X124496285Y-84266956D02*
X124605143Y-84321384D01*
X124605143Y-84321384D02*
X124659571Y-84375813D01*
X124659571Y-84375813D02*
X124714000Y-84484670D01*
X124714000Y-84484670D02*
X124714000Y-84756813D01*
X124714000Y-84756813D02*
X124659571Y-84865670D01*
X124659571Y-84865670D02*
X124605143Y-84920099D01*
X124605143Y-84920099D02*
X124496285Y-84974527D01*
X124496285Y-84974527D02*
X124169714Y-84974527D01*
X124169714Y-84974527D02*
X124060857Y-84920099D01*
X124060857Y-84920099D02*
X124006428Y-84865670D01*
X156101142Y-92957384D02*
X155992285Y-92902956D01*
X155992285Y-92902956D02*
X155883428Y-92794099D01*
X155883428Y-92794099D02*
X155720142Y-92630813D01*
X155720142Y-92630813D02*
X155611285Y-92576384D01*
X155611285Y-92576384D02*
X155502428Y-92576384D01*
X155556857Y-92848527D02*
X155448000Y-92794099D01*
X155448000Y-92794099D02*
X155339142Y-92685241D01*
X155339142Y-92685241D02*
X155284714Y-92467527D01*
X155284714Y-92467527D02*
X155284714Y-92086527D01*
X155284714Y-92086527D02*
X155339142Y-91868813D01*
X155339142Y-91868813D02*
X155448000Y-91759956D01*
X155448000Y-91759956D02*
X155556857Y-91705527D01*
X155556857Y-91705527D02*
X155774571Y-91705527D01*
X155774571Y-91705527D02*
X155883428Y-91759956D01*
X155883428Y-91759956D02*
X155992285Y-91868813D01*
X155992285Y-91868813D02*
X156046714Y-92086527D01*
X156046714Y-92086527D02*
X156046714Y-92467527D01*
X156046714Y-92467527D02*
X155992285Y-92685241D01*
X155992285Y-92685241D02*
X155883428Y-92794099D01*
X155883428Y-92794099D02*
X155774571Y-92848527D01*
X155774571Y-92848527D02*
X155556857Y-92848527D01*
X156482143Y-91814384D02*
X156536571Y-91759956D01*
X156536571Y-91759956D02*
X156645429Y-91705527D01*
X156645429Y-91705527D02*
X156917571Y-91705527D01*
X156917571Y-91705527D02*
X157026429Y-91759956D01*
X157026429Y-91759956D02*
X157080857Y-91814384D01*
X157080857Y-91814384D02*
X157135286Y-91923241D01*
X157135286Y-91923241D02*
X157135286Y-92032099D01*
X157135286Y-92032099D02*
X157080857Y-92195384D01*
X157080857Y-92195384D02*
X156427714Y-92848527D01*
X156427714Y-92848527D02*
X157135286Y-92848527D01*
X150379527Y-130231849D02*
X149835241Y-130612849D01*
X150379527Y-130884992D02*
X149236527Y-130884992D01*
X149236527Y-130884992D02*
X149236527Y-130449563D01*
X149236527Y-130449563D02*
X149290956Y-130340706D01*
X149290956Y-130340706D02*
X149345384Y-130286277D01*
X149345384Y-130286277D02*
X149454241Y-130231849D01*
X149454241Y-130231849D02*
X149617527Y-130231849D01*
X149617527Y-130231849D02*
X149726384Y-130286277D01*
X149726384Y-130286277D02*
X149780813Y-130340706D01*
X149780813Y-130340706D02*
X149835241Y-130449563D01*
X149835241Y-130449563D02*
X149835241Y-130884992D01*
X150379527Y-129143277D02*
X150379527Y-129796420D01*
X150379527Y-129469849D02*
X149236527Y-129469849D01*
X149236527Y-129469849D02*
X149399813Y-129578706D01*
X149399813Y-129578706D02*
X149508670Y-129687563D01*
X149508670Y-129687563D02*
X149563099Y-129796420D01*
X149617527Y-128163564D02*
X150379527Y-128163564D01*
X149182099Y-128435706D02*
X149998527Y-128707849D01*
X149998527Y-128707849D02*
X149998527Y-128000278D01*
X153370643Y-93610527D02*
X154023786Y-93610527D01*
X153697214Y-94753527D02*
X153697214Y-93610527D01*
X154404785Y-94753527D02*
X154404785Y-93610527D01*
X154404785Y-93610527D02*
X154840214Y-93610527D01*
X154840214Y-93610527D02*
X154949071Y-93664956D01*
X154949071Y-93664956D02*
X155003500Y-93719384D01*
X155003500Y-93719384D02*
X155057928Y-93828241D01*
X155057928Y-93828241D02*
X155057928Y-93991527D01*
X155057928Y-93991527D02*
X155003500Y-94100384D01*
X155003500Y-94100384D02*
X154949071Y-94154813D01*
X154949071Y-94154813D02*
X154840214Y-94209241D01*
X154840214Y-94209241D02*
X154404785Y-94209241D01*
X156037643Y-93610527D02*
X155819928Y-93610527D01*
X155819928Y-93610527D02*
X155711071Y-93664956D01*
X155711071Y-93664956D02*
X155656643Y-93719384D01*
X155656643Y-93719384D02*
X155547785Y-93882670D01*
X155547785Y-93882670D02*
X155493357Y-94100384D01*
X155493357Y-94100384D02*
X155493357Y-94535813D01*
X155493357Y-94535813D02*
X155547785Y-94644670D01*
X155547785Y-94644670D02*
X155602214Y-94699099D01*
X155602214Y-94699099D02*
X155711071Y-94753527D01*
X155711071Y-94753527D02*
X155928785Y-94753527D01*
X155928785Y-94753527D02*
X156037643Y-94699099D01*
X156037643Y-94699099D02*
X156092071Y-94644670D01*
X156092071Y-94644670D02*
X156146500Y-94535813D01*
X156146500Y-94535813D02*
X156146500Y-94263670D01*
X156146500Y-94263670D02*
X156092071Y-94154813D01*
X156092071Y-94154813D02*
X156037643Y-94100384D01*
X156037643Y-94100384D02*
X155928785Y-94045956D01*
X155928785Y-94045956D02*
X155711071Y-94045956D01*
X155711071Y-94045956D02*
X155602214Y-94100384D01*
X155602214Y-94100384D02*
X155547785Y-94154813D01*
X155547785Y-94154813D02*
X155493357Y-94263670D01*
X163859670Y-69405499D02*
X163914099Y-69459927D01*
X163914099Y-69459927D02*
X163968527Y-69623213D01*
X163968527Y-69623213D02*
X163968527Y-69732070D01*
X163968527Y-69732070D02*
X163914099Y-69895356D01*
X163914099Y-69895356D02*
X163805241Y-70004213D01*
X163805241Y-70004213D02*
X163696384Y-70058642D01*
X163696384Y-70058642D02*
X163478670Y-70113070D01*
X163478670Y-70113070D02*
X163315384Y-70113070D01*
X163315384Y-70113070D02*
X163097670Y-70058642D01*
X163097670Y-70058642D02*
X162988813Y-70004213D01*
X162988813Y-70004213D02*
X162879956Y-69895356D01*
X162879956Y-69895356D02*
X162825527Y-69732070D01*
X162825527Y-69732070D02*
X162825527Y-69623213D01*
X162825527Y-69623213D02*
X162879956Y-69459927D01*
X162879956Y-69459927D02*
X162934384Y-69405499D01*
X162825527Y-68371356D02*
X162825527Y-68915642D01*
X162825527Y-68915642D02*
X163369813Y-68970070D01*
X163369813Y-68970070D02*
X163315384Y-68915642D01*
X163315384Y-68915642D02*
X163260956Y-68806785D01*
X163260956Y-68806785D02*
X163260956Y-68534642D01*
X163260956Y-68534642D02*
X163315384Y-68425785D01*
X163315384Y-68425785D02*
X163369813Y-68371356D01*
X163369813Y-68371356D02*
X163478670Y-68316927D01*
X163478670Y-68316927D02*
X163750813Y-68316927D01*
X163750813Y-68316927D02*
X163859670Y-68371356D01*
X163859670Y-68371356D02*
X163914099Y-68425785D01*
X163914099Y-68425785D02*
X163968527Y-68534642D01*
X163968527Y-68534642D02*
X163968527Y-68806785D01*
X163968527Y-68806785D02*
X163914099Y-68915642D01*
X163914099Y-68915642D02*
X163859670Y-68970070D01*
X133821715Y-104242241D02*
X133821715Y-104786527D01*
X133440715Y-103643527D02*
X133821715Y-104242241D01*
X133821715Y-104242241D02*
X134202715Y-103643527D01*
X135182429Y-104786527D02*
X134529286Y-104786527D01*
X134855857Y-104786527D02*
X134855857Y-103643527D01*
X134855857Y-103643527D02*
X134747000Y-103806813D01*
X134747000Y-103806813D02*
X134638143Y-103915670D01*
X134638143Y-103915670D02*
X134529286Y-103970099D01*
X164873214Y-124235670D02*
X164818786Y-124290099D01*
X164818786Y-124290099D02*
X164655500Y-124344527D01*
X164655500Y-124344527D02*
X164546643Y-124344527D01*
X164546643Y-124344527D02*
X164383357Y-124290099D01*
X164383357Y-124290099D02*
X164274500Y-124181241D01*
X164274500Y-124181241D02*
X164220071Y-124072384D01*
X164220071Y-124072384D02*
X164165643Y-123854670D01*
X164165643Y-123854670D02*
X164165643Y-123691384D01*
X164165643Y-123691384D02*
X164220071Y-123473670D01*
X164220071Y-123473670D02*
X164274500Y-123364813D01*
X164274500Y-123364813D02*
X164383357Y-123255956D01*
X164383357Y-123255956D02*
X164546643Y-123201527D01*
X164546643Y-123201527D02*
X164655500Y-123201527D01*
X164655500Y-123201527D02*
X164818786Y-123255956D01*
X164818786Y-123255956D02*
X164873214Y-123310384D01*
X165308643Y-123310384D02*
X165363071Y-123255956D01*
X165363071Y-123255956D02*
X165471929Y-123201527D01*
X165471929Y-123201527D02*
X165744071Y-123201527D01*
X165744071Y-123201527D02*
X165852929Y-123255956D01*
X165852929Y-123255956D02*
X165907357Y-123310384D01*
X165907357Y-123310384D02*
X165961786Y-123419241D01*
X165961786Y-123419241D02*
X165961786Y-123528099D01*
X165961786Y-123528099D02*
X165907357Y-123691384D01*
X165907357Y-123691384D02*
X165254214Y-124344527D01*
X165254214Y-124344527D02*
X165961786Y-124344527D01*
X166342785Y-123201527D02*
X167050357Y-123201527D01*
X167050357Y-123201527D02*
X166669357Y-123636956D01*
X166669357Y-123636956D02*
X166832642Y-123636956D01*
X166832642Y-123636956D02*
X166941500Y-123691384D01*
X166941500Y-123691384D02*
X166995928Y-123745813D01*
X166995928Y-123745813D02*
X167050357Y-123854670D01*
X167050357Y-123854670D02*
X167050357Y-124126813D01*
X167050357Y-124126813D02*
X166995928Y-124235670D01*
X166995928Y-124235670D02*
X166941500Y-124290099D01*
X166941500Y-124290099D02*
X166832642Y-124344527D01*
X166832642Y-124344527D02*
X166506071Y-124344527D01*
X166506071Y-124344527D02*
X166397214Y-124290099D01*
X166397214Y-124290099D02*
X166342785Y-124235670D01*
X164319857Y-127196527D02*
X164319857Y-128121813D01*
X164319857Y-128121813D02*
X164374286Y-128230670D01*
X164374286Y-128230670D02*
X164428715Y-128285099D01*
X164428715Y-128285099D02*
X164537572Y-128339527D01*
X164537572Y-128339527D02*
X164755286Y-128339527D01*
X164755286Y-128339527D02*
X164864143Y-128285099D01*
X164864143Y-128285099D02*
X164918572Y-128230670D01*
X164918572Y-128230670D02*
X164973000Y-128121813D01*
X164973000Y-128121813D02*
X164973000Y-127196527D01*
X166116001Y-128339527D02*
X165462858Y-128339527D01*
X165789429Y-128339527D02*
X165789429Y-127196527D01*
X165789429Y-127196527D02*
X165680572Y-127359813D01*
X165680572Y-127359813D02*
X165571715Y-127468670D01*
X165571715Y-127468670D02*
X165462858Y-127523099D01*
X167204572Y-128339527D02*
X166551429Y-128339527D01*
X166878000Y-128339527D02*
X166878000Y-127196527D01*
X166878000Y-127196527D02*
X166769143Y-127359813D01*
X166769143Y-127359813D02*
X166660286Y-127468670D01*
X166660286Y-127468670D02*
X166551429Y-127523099D01*
X154207670Y-127226785D02*
X154262099Y-127281213D01*
X154262099Y-127281213D02*
X154316527Y-127444499D01*
X154316527Y-127444499D02*
X154316527Y-127553356D01*
X154316527Y-127553356D02*
X154262099Y-127716642D01*
X154262099Y-127716642D02*
X154153241Y-127825499D01*
X154153241Y-127825499D02*
X154044384Y-127879928D01*
X154044384Y-127879928D02*
X153826670Y-127934356D01*
X153826670Y-127934356D02*
X153663384Y-127934356D01*
X153663384Y-127934356D02*
X153445670Y-127879928D01*
X153445670Y-127879928D02*
X153336813Y-127825499D01*
X153336813Y-127825499D02*
X153227956Y-127716642D01*
X153227956Y-127716642D02*
X153173527Y-127553356D01*
X153173527Y-127553356D02*
X153173527Y-127444499D01*
X153173527Y-127444499D02*
X153227956Y-127281213D01*
X153227956Y-127281213D02*
X153282384Y-127226785D01*
X153282384Y-126791356D02*
X153227956Y-126736928D01*
X153227956Y-126736928D02*
X153173527Y-126628071D01*
X153173527Y-126628071D02*
X153173527Y-126355928D01*
X153173527Y-126355928D02*
X153227956Y-126247071D01*
X153227956Y-126247071D02*
X153282384Y-126192642D01*
X153282384Y-126192642D02*
X153391241Y-126138213D01*
X153391241Y-126138213D02*
X153500099Y-126138213D01*
X153500099Y-126138213D02*
X153663384Y-126192642D01*
X153663384Y-126192642D02*
X154316527Y-126845785D01*
X154316527Y-126845785D02*
X154316527Y-126138213D01*
X153173527Y-125158500D02*
X153173527Y-125376214D01*
X153173527Y-125376214D02*
X153227956Y-125485071D01*
X153227956Y-125485071D02*
X153282384Y-125539500D01*
X153282384Y-125539500D02*
X153445670Y-125648357D01*
X153445670Y-125648357D02*
X153663384Y-125702785D01*
X153663384Y-125702785D02*
X154098813Y-125702785D01*
X154098813Y-125702785D02*
X154207670Y-125648357D01*
X154207670Y-125648357D02*
X154262099Y-125593928D01*
X154262099Y-125593928D02*
X154316527Y-125485071D01*
X154316527Y-125485071D02*
X154316527Y-125267357D01*
X154316527Y-125267357D02*
X154262099Y-125158500D01*
X154262099Y-125158500D02*
X154207670Y-125104071D01*
X154207670Y-125104071D02*
X154098813Y-125049642D01*
X154098813Y-125049642D02*
X153826670Y-125049642D01*
X153826670Y-125049642D02*
X153717813Y-125104071D01*
X153717813Y-125104071D02*
X153663384Y-125158500D01*
X153663384Y-125158500D02*
X153608956Y-125267357D01*
X153608956Y-125267357D02*
X153608956Y-125485071D01*
X153608956Y-125485071D02*
X153663384Y-125593928D01*
X153663384Y-125593928D02*
X153717813Y-125648357D01*
X153717813Y-125648357D02*
X153826670Y-125702785D01*
X125049643Y-75525527D02*
X125702786Y-75525527D01*
X125376214Y-76668527D02*
X125376214Y-75525527D01*
X126083785Y-76668527D02*
X126083785Y-75525527D01*
X126083785Y-75525527D02*
X126519214Y-75525527D01*
X126519214Y-75525527D02*
X126628071Y-75579956D01*
X126628071Y-75579956D02*
X126682500Y-75634384D01*
X126682500Y-75634384D02*
X126736928Y-75743241D01*
X126736928Y-75743241D02*
X126736928Y-75906527D01*
X126736928Y-75906527D02*
X126682500Y-76015384D01*
X126682500Y-76015384D02*
X126628071Y-76069813D01*
X126628071Y-76069813D02*
X126519214Y-76124241D01*
X126519214Y-76124241D02*
X126083785Y-76124241D01*
X127825500Y-76668527D02*
X127172357Y-76668527D01*
X127498928Y-76668527D02*
X127498928Y-75525527D01*
X127498928Y-75525527D02*
X127390071Y-75688813D01*
X127390071Y-75688813D02*
X127281214Y-75797670D01*
X127281214Y-75797670D02*
X127172357Y-75852099D01*
X182399214Y-109757670D02*
X182344786Y-109812099D01*
X182344786Y-109812099D02*
X182181500Y-109866527D01*
X182181500Y-109866527D02*
X182072643Y-109866527D01*
X182072643Y-109866527D02*
X181909357Y-109812099D01*
X181909357Y-109812099D02*
X181800500Y-109703241D01*
X181800500Y-109703241D02*
X181746071Y-109594384D01*
X181746071Y-109594384D02*
X181691643Y-109376670D01*
X181691643Y-109376670D02*
X181691643Y-109213384D01*
X181691643Y-109213384D02*
X181746071Y-108995670D01*
X181746071Y-108995670D02*
X181800500Y-108886813D01*
X181800500Y-108886813D02*
X181909357Y-108777956D01*
X181909357Y-108777956D02*
X182072643Y-108723527D01*
X182072643Y-108723527D02*
X182181500Y-108723527D01*
X182181500Y-108723527D02*
X182344786Y-108777956D01*
X182344786Y-108777956D02*
X182399214Y-108832384D01*
X183487786Y-109866527D02*
X182834643Y-109866527D01*
X183161214Y-109866527D02*
X183161214Y-108723527D01*
X183161214Y-108723527D02*
X183052357Y-108886813D01*
X183052357Y-108886813D02*
X182943500Y-108995670D01*
X182943500Y-108995670D02*
X182834643Y-109050099D01*
X184140928Y-109213384D02*
X184032071Y-109158956D01*
X184032071Y-109158956D02*
X183977642Y-109104527D01*
X183977642Y-109104527D02*
X183923214Y-108995670D01*
X183923214Y-108995670D02*
X183923214Y-108941241D01*
X183923214Y-108941241D02*
X183977642Y-108832384D01*
X183977642Y-108832384D02*
X184032071Y-108777956D01*
X184032071Y-108777956D02*
X184140928Y-108723527D01*
X184140928Y-108723527D02*
X184358642Y-108723527D01*
X184358642Y-108723527D02*
X184467500Y-108777956D01*
X184467500Y-108777956D02*
X184521928Y-108832384D01*
X184521928Y-108832384D02*
X184576357Y-108941241D01*
X184576357Y-108941241D02*
X184576357Y-108995670D01*
X184576357Y-108995670D02*
X184521928Y-109104527D01*
X184521928Y-109104527D02*
X184467500Y-109158956D01*
X184467500Y-109158956D02*
X184358642Y-109213384D01*
X184358642Y-109213384D02*
X184140928Y-109213384D01*
X184140928Y-109213384D02*
X184032071Y-109267813D01*
X184032071Y-109267813D02*
X183977642Y-109322241D01*
X183977642Y-109322241D02*
X183923214Y-109431099D01*
X183923214Y-109431099D02*
X183923214Y-109648813D01*
X183923214Y-109648813D02*
X183977642Y-109757670D01*
X183977642Y-109757670D02*
X184032071Y-109812099D01*
X184032071Y-109812099D02*
X184140928Y-109866527D01*
X184140928Y-109866527D02*
X184358642Y-109866527D01*
X184358642Y-109866527D02*
X184467500Y-109812099D01*
X184467500Y-109812099D02*
X184521928Y-109757670D01*
X184521928Y-109757670D02*
X184576357Y-109648813D01*
X184576357Y-109648813D02*
X184576357Y-109431099D01*
X184576357Y-109431099D02*
X184521928Y-109322241D01*
X184521928Y-109322241D02*
X184467500Y-109267813D01*
X184467500Y-109267813D02*
X184358642Y-109213384D01*
X166007142Y-117994527D02*
X166007142Y-118919813D01*
X166007142Y-118919813D02*
X166061571Y-119028670D01*
X166061571Y-119028670D02*
X166116000Y-119083099D01*
X166116000Y-119083099D02*
X166224857Y-119137527D01*
X166224857Y-119137527D02*
X166442571Y-119137527D01*
X166442571Y-119137527D02*
X166551428Y-119083099D01*
X166551428Y-119083099D02*
X166605857Y-119028670D01*
X166605857Y-119028670D02*
X166660285Y-118919813D01*
X166660285Y-118919813D02*
X166660285Y-117994527D01*
X167095714Y-117994527D02*
X167857714Y-117994527D01*
X167857714Y-117994527D02*
X167367857Y-119137527D01*
X175144527Y-128242785D02*
X174600241Y-128623785D01*
X175144527Y-128895928D02*
X174001527Y-128895928D01*
X174001527Y-128895928D02*
X174001527Y-128460499D01*
X174001527Y-128460499D02*
X174055956Y-128351642D01*
X174055956Y-128351642D02*
X174110384Y-128297213D01*
X174110384Y-128297213D02*
X174219241Y-128242785D01*
X174219241Y-128242785D02*
X174382527Y-128242785D01*
X174382527Y-128242785D02*
X174491384Y-128297213D01*
X174491384Y-128297213D02*
X174545813Y-128351642D01*
X174545813Y-128351642D02*
X174600241Y-128460499D01*
X174600241Y-128460499D02*
X174600241Y-128895928D01*
X175144527Y-127154213D02*
X175144527Y-127807356D01*
X175144527Y-127480785D02*
X174001527Y-127480785D01*
X174001527Y-127480785D02*
X174164813Y-127589642D01*
X174164813Y-127589642D02*
X174273670Y-127698499D01*
X174273670Y-127698499D02*
X174328099Y-127807356D01*
X174001527Y-126120071D02*
X174001527Y-126664357D01*
X174001527Y-126664357D02*
X174545813Y-126718785D01*
X174545813Y-126718785D02*
X174491384Y-126664357D01*
X174491384Y-126664357D02*
X174436956Y-126555500D01*
X174436956Y-126555500D02*
X174436956Y-126283357D01*
X174436956Y-126283357D02*
X174491384Y-126174500D01*
X174491384Y-126174500D02*
X174545813Y-126120071D01*
X174545813Y-126120071D02*
X174654670Y-126065642D01*
X174654670Y-126065642D02*
X174926813Y-126065642D01*
X174926813Y-126065642D02*
X175035670Y-126120071D01*
X175035670Y-126120071D02*
X175090099Y-126174500D01*
X175090099Y-126174500D02*
X175144527Y-126283357D01*
X175144527Y-126283357D02*
X175144527Y-126555500D01*
X175144527Y-126555500D02*
X175090099Y-126664357D01*
X175090099Y-126664357D02*
X175035670Y-126718785D01*
X114874027Y-115950999D02*
X115690456Y-115950999D01*
X115690456Y-115950999D02*
X115853741Y-116005428D01*
X115853741Y-116005428D02*
X115962599Y-116114285D01*
X115962599Y-116114285D02*
X116017027Y-116277571D01*
X116017027Y-116277571D02*
X116017027Y-116386428D01*
X115255027Y-114916857D02*
X116017027Y-114916857D01*
X114819599Y-115188999D02*
X115636027Y-115461142D01*
X115636027Y-115461142D02*
X115636027Y-114753571D01*
X159784142Y-92957384D02*
X159675285Y-92902956D01*
X159675285Y-92902956D02*
X159566428Y-92794099D01*
X159566428Y-92794099D02*
X159403142Y-92630813D01*
X159403142Y-92630813D02*
X159294285Y-92576384D01*
X159294285Y-92576384D02*
X159185428Y-92576384D01*
X159239857Y-92848527D02*
X159131000Y-92794099D01*
X159131000Y-92794099D02*
X159022142Y-92685241D01*
X159022142Y-92685241D02*
X158967714Y-92467527D01*
X158967714Y-92467527D02*
X158967714Y-92086527D01*
X158967714Y-92086527D02*
X159022142Y-91868813D01*
X159022142Y-91868813D02*
X159131000Y-91759956D01*
X159131000Y-91759956D02*
X159239857Y-91705527D01*
X159239857Y-91705527D02*
X159457571Y-91705527D01*
X159457571Y-91705527D02*
X159566428Y-91759956D01*
X159566428Y-91759956D02*
X159675285Y-91868813D01*
X159675285Y-91868813D02*
X159729714Y-92086527D01*
X159729714Y-92086527D02*
X159729714Y-92467527D01*
X159729714Y-92467527D02*
X159675285Y-92685241D01*
X159675285Y-92685241D02*
X159566428Y-92794099D01*
X159566428Y-92794099D02*
X159457571Y-92848527D01*
X159457571Y-92848527D02*
X159239857Y-92848527D01*
X160818286Y-92848527D02*
X160165143Y-92848527D01*
X160491714Y-92848527D02*
X160491714Y-91705527D01*
X160491714Y-91705527D02*
X160382857Y-91868813D01*
X160382857Y-91868813D02*
X160274000Y-91977670D01*
X160274000Y-91977670D02*
X160165143Y-92032099D01*
X171985214Y-107344670D02*
X171930786Y-107399099D01*
X171930786Y-107399099D02*
X171767500Y-107453527D01*
X171767500Y-107453527D02*
X171658643Y-107453527D01*
X171658643Y-107453527D02*
X171495357Y-107399099D01*
X171495357Y-107399099D02*
X171386500Y-107290241D01*
X171386500Y-107290241D02*
X171332071Y-107181384D01*
X171332071Y-107181384D02*
X171277643Y-106963670D01*
X171277643Y-106963670D02*
X171277643Y-106800384D01*
X171277643Y-106800384D02*
X171332071Y-106582670D01*
X171332071Y-106582670D02*
X171386500Y-106473813D01*
X171386500Y-106473813D02*
X171495357Y-106364956D01*
X171495357Y-106364956D02*
X171658643Y-106310527D01*
X171658643Y-106310527D02*
X171767500Y-106310527D01*
X171767500Y-106310527D02*
X171930786Y-106364956D01*
X171930786Y-106364956D02*
X171985214Y-106419384D01*
X173073786Y-107453527D02*
X172420643Y-107453527D01*
X172747214Y-107453527D02*
X172747214Y-106310527D01*
X172747214Y-106310527D02*
X172638357Y-106473813D01*
X172638357Y-106473813D02*
X172529500Y-106582670D01*
X172529500Y-106582670D02*
X172420643Y-106637099D01*
X173454785Y-106310527D02*
X174216785Y-106310527D01*
X174216785Y-106310527D02*
X173726928Y-107453527D01*
X182644142Y-116978527D02*
X182644142Y-117903813D01*
X182644142Y-117903813D02*
X182698571Y-118012670D01*
X182698571Y-118012670D02*
X182753000Y-118067099D01*
X182753000Y-118067099D02*
X182861857Y-118121527D01*
X182861857Y-118121527D02*
X183079571Y-118121527D01*
X183079571Y-118121527D02*
X183188428Y-118067099D01*
X183188428Y-118067099D02*
X183242857Y-118012670D01*
X183242857Y-118012670D02*
X183297285Y-117903813D01*
X183297285Y-117903813D02*
X183297285Y-116978527D01*
X183896000Y-118121527D02*
X184113714Y-118121527D01*
X184113714Y-118121527D02*
X184222571Y-118067099D01*
X184222571Y-118067099D02*
X184277000Y-118012670D01*
X184277000Y-118012670D02*
X184385857Y-117849384D01*
X184385857Y-117849384D02*
X184440286Y-117631670D01*
X184440286Y-117631670D02*
X184440286Y-117196241D01*
X184440286Y-117196241D02*
X184385857Y-117087384D01*
X184385857Y-117087384D02*
X184331429Y-117032956D01*
X184331429Y-117032956D02*
X184222571Y-116978527D01*
X184222571Y-116978527D02*
X184004857Y-116978527D01*
X184004857Y-116978527D02*
X183896000Y-117032956D01*
X183896000Y-117032956D02*
X183841571Y-117087384D01*
X183841571Y-117087384D02*
X183787143Y-117196241D01*
X183787143Y-117196241D02*
X183787143Y-117468384D01*
X183787143Y-117468384D02*
X183841571Y-117577241D01*
X183841571Y-117577241D02*
X183896000Y-117631670D01*
X183896000Y-117631670D02*
X184004857Y-117686099D01*
X184004857Y-117686099D02*
X184222571Y-117686099D01*
X184222571Y-117686099D02*
X184331429Y-117631670D01*
X184331429Y-117631670D02*
X184385857Y-117577241D01*
X184385857Y-117577241D02*
X184440286Y-117468384D01*
X182771142Y-93084384D02*
X182662285Y-93029956D01*
X182662285Y-93029956D02*
X182553428Y-92921099D01*
X182553428Y-92921099D02*
X182390142Y-92757813D01*
X182390142Y-92757813D02*
X182281285Y-92703384D01*
X182281285Y-92703384D02*
X182172428Y-92703384D01*
X182226857Y-92975527D02*
X182118000Y-92921099D01*
X182118000Y-92921099D02*
X182009142Y-92812241D01*
X182009142Y-92812241D02*
X181954714Y-92594527D01*
X181954714Y-92594527D02*
X181954714Y-92213527D01*
X181954714Y-92213527D02*
X182009142Y-91995813D01*
X182009142Y-91995813D02*
X182118000Y-91886956D01*
X182118000Y-91886956D02*
X182226857Y-91832527D01*
X182226857Y-91832527D02*
X182444571Y-91832527D01*
X182444571Y-91832527D02*
X182553428Y-91886956D01*
X182553428Y-91886956D02*
X182662285Y-91995813D01*
X182662285Y-91995813D02*
X182716714Y-92213527D01*
X182716714Y-92213527D02*
X182716714Y-92594527D01*
X182716714Y-92594527D02*
X182662285Y-92812241D01*
X182662285Y-92812241D02*
X182553428Y-92921099D01*
X182553428Y-92921099D02*
X182444571Y-92975527D01*
X182444571Y-92975527D02*
X182226857Y-92975527D01*
X183369857Y-92322384D02*
X183261000Y-92267956D01*
X183261000Y-92267956D02*
X183206571Y-92213527D01*
X183206571Y-92213527D02*
X183152143Y-92104670D01*
X183152143Y-92104670D02*
X183152143Y-92050241D01*
X183152143Y-92050241D02*
X183206571Y-91941384D01*
X183206571Y-91941384D02*
X183261000Y-91886956D01*
X183261000Y-91886956D02*
X183369857Y-91832527D01*
X183369857Y-91832527D02*
X183587571Y-91832527D01*
X183587571Y-91832527D02*
X183696429Y-91886956D01*
X183696429Y-91886956D02*
X183750857Y-91941384D01*
X183750857Y-91941384D02*
X183805286Y-92050241D01*
X183805286Y-92050241D02*
X183805286Y-92104670D01*
X183805286Y-92104670D02*
X183750857Y-92213527D01*
X183750857Y-92213527D02*
X183696429Y-92267956D01*
X183696429Y-92267956D02*
X183587571Y-92322384D01*
X183587571Y-92322384D02*
X183369857Y-92322384D01*
X183369857Y-92322384D02*
X183261000Y-92376813D01*
X183261000Y-92376813D02*
X183206571Y-92431241D01*
X183206571Y-92431241D02*
X183152143Y-92540099D01*
X183152143Y-92540099D02*
X183152143Y-92757813D01*
X183152143Y-92757813D02*
X183206571Y-92866670D01*
X183206571Y-92866670D02*
X183261000Y-92921099D01*
X183261000Y-92921099D02*
X183369857Y-92975527D01*
X183369857Y-92975527D02*
X183587571Y-92975527D01*
X183587571Y-92975527D02*
X183696429Y-92921099D01*
X183696429Y-92921099D02*
X183750857Y-92866670D01*
X183750857Y-92866670D02*
X183805286Y-92757813D01*
X183805286Y-92757813D02*
X183805286Y-92540099D01*
X183805286Y-92540099D02*
X183750857Y-92431241D01*
X183750857Y-92431241D02*
X183696429Y-92376813D01*
X183696429Y-92376813D02*
X183587571Y-92322384D01*
X137674857Y-126956527D02*
X137674857Y-127881813D01*
X137674857Y-127881813D02*
X137729286Y-127990670D01*
X137729286Y-127990670D02*
X137783715Y-128045099D01*
X137783715Y-128045099D02*
X137892572Y-128099527D01*
X137892572Y-128099527D02*
X138110286Y-128099527D01*
X138110286Y-128099527D02*
X138219143Y-128045099D01*
X138219143Y-128045099D02*
X138273572Y-127990670D01*
X138273572Y-127990670D02*
X138328000Y-127881813D01*
X138328000Y-127881813D02*
X138328000Y-126956527D01*
X139471001Y-128099527D02*
X138817858Y-128099527D01*
X139144429Y-128099527D02*
X139144429Y-126956527D01*
X139144429Y-126956527D02*
X139035572Y-127119813D01*
X139035572Y-127119813D02*
X138926715Y-127228670D01*
X138926715Y-127228670D02*
X138817858Y-127283099D01*
X140178572Y-126956527D02*
X140287429Y-126956527D01*
X140287429Y-126956527D02*
X140396286Y-127010956D01*
X140396286Y-127010956D02*
X140450715Y-127065384D01*
X140450715Y-127065384D02*
X140505143Y-127174241D01*
X140505143Y-127174241D02*
X140559572Y-127391956D01*
X140559572Y-127391956D02*
X140559572Y-127664099D01*
X140559572Y-127664099D02*
X140505143Y-127881813D01*
X140505143Y-127881813D02*
X140450715Y-127990670D01*
X140450715Y-127990670D02*
X140396286Y-128045099D01*
X140396286Y-128045099D02*
X140287429Y-128099527D01*
X140287429Y-128099527D02*
X140178572Y-128099527D01*
X140178572Y-128099527D02*
X140069715Y-128045099D01*
X140069715Y-128045099D02*
X140015286Y-127990670D01*
X140015286Y-127990670D02*
X139960857Y-127881813D01*
X139960857Y-127881813D02*
X139906429Y-127664099D01*
X139906429Y-127664099D02*
X139906429Y-127391956D01*
X139906429Y-127391956D02*
X139960857Y-127174241D01*
X139960857Y-127174241D02*
X140015286Y-127065384D01*
X140015286Y-127065384D02*
X140069715Y-127010956D01*
X140069715Y-127010956D02*
X140178572Y-126956527D01*
X171341142Y-92957384D02*
X171232285Y-92902956D01*
X171232285Y-92902956D02*
X171123428Y-92794099D01*
X171123428Y-92794099D02*
X170960142Y-92630813D01*
X170960142Y-92630813D02*
X170851285Y-92576384D01*
X170851285Y-92576384D02*
X170742428Y-92576384D01*
X170796857Y-92848527D02*
X170688000Y-92794099D01*
X170688000Y-92794099D02*
X170579142Y-92685241D01*
X170579142Y-92685241D02*
X170524714Y-92467527D01*
X170524714Y-92467527D02*
X170524714Y-92086527D01*
X170524714Y-92086527D02*
X170579142Y-91868813D01*
X170579142Y-91868813D02*
X170688000Y-91759956D01*
X170688000Y-91759956D02*
X170796857Y-91705527D01*
X170796857Y-91705527D02*
X171014571Y-91705527D01*
X171014571Y-91705527D02*
X171123428Y-91759956D01*
X171123428Y-91759956D02*
X171232285Y-91868813D01*
X171232285Y-91868813D02*
X171286714Y-92086527D01*
X171286714Y-92086527D02*
X171286714Y-92467527D01*
X171286714Y-92467527D02*
X171232285Y-92685241D01*
X171232285Y-92685241D02*
X171123428Y-92794099D01*
X171123428Y-92794099D02*
X171014571Y-92848527D01*
X171014571Y-92848527D02*
X170796857Y-92848527D01*
X172320857Y-91705527D02*
X171776571Y-91705527D01*
X171776571Y-91705527D02*
X171722143Y-92249813D01*
X171722143Y-92249813D02*
X171776571Y-92195384D01*
X171776571Y-92195384D02*
X171885429Y-92140956D01*
X171885429Y-92140956D02*
X172157571Y-92140956D01*
X172157571Y-92140956D02*
X172266429Y-92195384D01*
X172266429Y-92195384D02*
X172320857Y-92249813D01*
X172320857Y-92249813D02*
X172375286Y-92358670D01*
X172375286Y-92358670D02*
X172375286Y-92630813D01*
X172375286Y-92630813D02*
X172320857Y-92739670D01*
X172320857Y-92739670D02*
X172266429Y-92794099D01*
X172266429Y-92794099D02*
X172157571Y-92848527D01*
X172157571Y-92848527D02*
X171885429Y-92848527D01*
X171885429Y-92848527D02*
X171776571Y-92794099D01*
X171776571Y-92794099D02*
X171722143Y-92739670D01*
X154713214Y-110265670D02*
X154658786Y-110320099D01*
X154658786Y-110320099D02*
X154495500Y-110374527D01*
X154495500Y-110374527D02*
X154386643Y-110374527D01*
X154386643Y-110374527D02*
X154223357Y-110320099D01*
X154223357Y-110320099D02*
X154114500Y-110211241D01*
X154114500Y-110211241D02*
X154060071Y-110102384D01*
X154060071Y-110102384D02*
X154005643Y-109884670D01*
X154005643Y-109884670D02*
X154005643Y-109721384D01*
X154005643Y-109721384D02*
X154060071Y-109503670D01*
X154060071Y-109503670D02*
X154114500Y-109394813D01*
X154114500Y-109394813D02*
X154223357Y-109285956D01*
X154223357Y-109285956D02*
X154386643Y-109231527D01*
X154386643Y-109231527D02*
X154495500Y-109231527D01*
X154495500Y-109231527D02*
X154658786Y-109285956D01*
X154658786Y-109285956D02*
X154713214Y-109340384D01*
X155801786Y-110374527D02*
X155148643Y-110374527D01*
X155475214Y-110374527D02*
X155475214Y-109231527D01*
X155475214Y-109231527D02*
X155366357Y-109394813D01*
X155366357Y-109394813D02*
X155257500Y-109503670D01*
X155257500Y-109503670D02*
X155148643Y-109558099D01*
X156781500Y-109612527D02*
X156781500Y-110374527D01*
X156509357Y-109177099D02*
X156237214Y-109993527D01*
X156237214Y-109993527D02*
X156944785Y-109993527D01*
X152418142Y-81037527D02*
X152418142Y-81962813D01*
X152418142Y-81962813D02*
X152472571Y-82071670D01*
X152472571Y-82071670D02*
X152527000Y-82126099D01*
X152527000Y-82126099D02*
X152635857Y-82180527D01*
X152635857Y-82180527D02*
X152853571Y-82180527D01*
X152853571Y-82180527D02*
X152962428Y-82126099D01*
X152962428Y-82126099D02*
X153016857Y-82071670D01*
X153016857Y-82071670D02*
X153071285Y-81962813D01*
X153071285Y-81962813D02*
X153071285Y-81037527D01*
X154159857Y-81037527D02*
X153615571Y-81037527D01*
X153615571Y-81037527D02*
X153561143Y-81581813D01*
X153561143Y-81581813D02*
X153615571Y-81527384D01*
X153615571Y-81527384D02*
X153724429Y-81472956D01*
X153724429Y-81472956D02*
X153996571Y-81472956D01*
X153996571Y-81472956D02*
X154105429Y-81527384D01*
X154105429Y-81527384D02*
X154159857Y-81581813D01*
X154159857Y-81581813D02*
X154214286Y-81690670D01*
X154214286Y-81690670D02*
X154214286Y-81962813D01*
X154214286Y-81962813D02*
X154159857Y-82071670D01*
X154159857Y-82071670D02*
X154105429Y-82126099D01*
X154105429Y-82126099D02*
X153996571Y-82180527D01*
X153996571Y-82180527D02*
X153724429Y-82180527D01*
X153724429Y-82180527D02*
X153615571Y-82126099D01*
X153615571Y-82126099D02*
X153561143Y-82071670D01*
X133250214Y-96422670D02*
X133195786Y-96477099D01*
X133195786Y-96477099D02*
X133032500Y-96531527D01*
X133032500Y-96531527D02*
X132923643Y-96531527D01*
X132923643Y-96531527D02*
X132760357Y-96477099D01*
X132760357Y-96477099D02*
X132651500Y-96368241D01*
X132651500Y-96368241D02*
X132597071Y-96259384D01*
X132597071Y-96259384D02*
X132542643Y-96041670D01*
X132542643Y-96041670D02*
X132542643Y-95878384D01*
X132542643Y-95878384D02*
X132597071Y-95660670D01*
X132597071Y-95660670D02*
X132651500Y-95551813D01*
X132651500Y-95551813D02*
X132760357Y-95442956D01*
X132760357Y-95442956D02*
X132923643Y-95388527D01*
X132923643Y-95388527D02*
X133032500Y-95388527D01*
X133032500Y-95388527D02*
X133195786Y-95442956D01*
X133195786Y-95442956D02*
X133250214Y-95497384D01*
X134338786Y-96531527D02*
X133685643Y-96531527D01*
X134012214Y-96531527D02*
X134012214Y-95388527D01*
X134012214Y-95388527D02*
X133903357Y-95551813D01*
X133903357Y-95551813D02*
X133794500Y-95660670D01*
X133794500Y-95660670D02*
X133685643Y-95715099D01*
X134774214Y-95497384D02*
X134828642Y-95442956D01*
X134828642Y-95442956D02*
X134937500Y-95388527D01*
X134937500Y-95388527D02*
X135209642Y-95388527D01*
X135209642Y-95388527D02*
X135318500Y-95442956D01*
X135318500Y-95442956D02*
X135372928Y-95497384D01*
X135372928Y-95497384D02*
X135427357Y-95606241D01*
X135427357Y-95606241D02*
X135427357Y-95715099D01*
X135427357Y-95715099D02*
X135372928Y-95878384D01*
X135372928Y-95878384D02*
X134719785Y-96531527D01*
X134719785Y-96531527D02*
X135427357Y-96531527D01*
X153443214Y-135030670D02*
X153388786Y-135085099D01*
X153388786Y-135085099D02*
X153225500Y-135139527D01*
X153225500Y-135139527D02*
X153116643Y-135139527D01*
X153116643Y-135139527D02*
X152953357Y-135085099D01*
X152953357Y-135085099D02*
X152844500Y-134976241D01*
X152844500Y-134976241D02*
X152790071Y-134867384D01*
X152790071Y-134867384D02*
X152735643Y-134649670D01*
X152735643Y-134649670D02*
X152735643Y-134486384D01*
X152735643Y-134486384D02*
X152790071Y-134268670D01*
X152790071Y-134268670D02*
X152844500Y-134159813D01*
X152844500Y-134159813D02*
X152953357Y-134050956D01*
X152953357Y-134050956D02*
X153116643Y-133996527D01*
X153116643Y-133996527D02*
X153225500Y-133996527D01*
X153225500Y-133996527D02*
X153388786Y-134050956D01*
X153388786Y-134050956D02*
X153443214Y-134105384D01*
X153824214Y-133996527D02*
X154531786Y-133996527D01*
X154531786Y-133996527D02*
X154150786Y-134431956D01*
X154150786Y-134431956D02*
X154314071Y-134431956D01*
X154314071Y-134431956D02*
X154422929Y-134486384D01*
X154422929Y-134486384D02*
X154477357Y-134540813D01*
X154477357Y-134540813D02*
X154531786Y-134649670D01*
X154531786Y-134649670D02*
X154531786Y-134921813D01*
X154531786Y-134921813D02*
X154477357Y-135030670D01*
X154477357Y-135030670D02*
X154422929Y-135085099D01*
X154422929Y-135085099D02*
X154314071Y-135139527D01*
X154314071Y-135139527D02*
X153987500Y-135139527D01*
X153987500Y-135139527D02*
X153878643Y-135085099D01*
X153878643Y-135085099D02*
X153824214Y-135030670D01*
X155239357Y-133996527D02*
X155348214Y-133996527D01*
X155348214Y-133996527D02*
X155457071Y-134050956D01*
X155457071Y-134050956D02*
X155511500Y-134105384D01*
X155511500Y-134105384D02*
X155565928Y-134214241D01*
X155565928Y-134214241D02*
X155620357Y-134431956D01*
X155620357Y-134431956D02*
X155620357Y-134704099D01*
X155620357Y-134704099D02*
X155565928Y-134921813D01*
X155565928Y-134921813D02*
X155511500Y-135030670D01*
X155511500Y-135030670D02*
X155457071Y-135085099D01*
X155457071Y-135085099D02*
X155348214Y-135139527D01*
X155348214Y-135139527D02*
X155239357Y-135139527D01*
X155239357Y-135139527D02*
X155130500Y-135085099D01*
X155130500Y-135085099D02*
X155076071Y-135030670D01*
X155076071Y-135030670D02*
X155021642Y-134921813D01*
X155021642Y-134921813D02*
X154967214Y-134704099D01*
X154967214Y-134704099D02*
X154967214Y-134431956D01*
X154967214Y-134431956D02*
X155021642Y-134214241D01*
X155021642Y-134214241D02*
X155076071Y-134105384D01*
X155076071Y-134105384D02*
X155130500Y-134050956D01*
X155130500Y-134050956D02*
X155239357Y-133996527D01*
X182526214Y-114819527D02*
X182145214Y-114275241D01*
X181873071Y-114819527D02*
X181873071Y-113676527D01*
X181873071Y-113676527D02*
X182308500Y-113676527D01*
X182308500Y-113676527D02*
X182417357Y-113730956D01*
X182417357Y-113730956D02*
X182471786Y-113785384D01*
X182471786Y-113785384D02*
X182526214Y-113894241D01*
X182526214Y-113894241D02*
X182526214Y-114057527D01*
X182526214Y-114057527D02*
X182471786Y-114166384D01*
X182471786Y-114166384D02*
X182417357Y-114220813D01*
X182417357Y-114220813D02*
X182308500Y-114275241D01*
X182308500Y-114275241D02*
X181873071Y-114275241D01*
X183614786Y-114819527D02*
X182961643Y-114819527D01*
X183288214Y-114819527D02*
X183288214Y-113676527D01*
X183288214Y-113676527D02*
X183179357Y-113839813D01*
X183179357Y-113839813D02*
X183070500Y-113948670D01*
X183070500Y-113948670D02*
X182961643Y-114003099D01*
X183995785Y-113676527D02*
X184703357Y-113676527D01*
X184703357Y-113676527D02*
X184322357Y-114111956D01*
X184322357Y-114111956D02*
X184485642Y-114111956D01*
X184485642Y-114111956D02*
X184594500Y-114166384D01*
X184594500Y-114166384D02*
X184648928Y-114220813D01*
X184648928Y-114220813D02*
X184703357Y-114329670D01*
X184703357Y-114329670D02*
X184703357Y-114601813D01*
X184703357Y-114601813D02*
X184648928Y-114710670D01*
X184648928Y-114710670D02*
X184594500Y-114765099D01*
X184594500Y-114765099D02*
X184485642Y-114819527D01*
X184485642Y-114819527D02*
X184159071Y-114819527D01*
X184159071Y-114819527D02*
X184050214Y-114765099D01*
X184050214Y-114765099D02*
X183995785Y-114710670D01*
X158906670Y-69532499D02*
X158961099Y-69586927D01*
X158961099Y-69586927D02*
X159015527Y-69750213D01*
X159015527Y-69750213D02*
X159015527Y-69859070D01*
X159015527Y-69859070D02*
X158961099Y-70022356D01*
X158961099Y-70022356D02*
X158852241Y-70131213D01*
X158852241Y-70131213D02*
X158743384Y-70185642D01*
X158743384Y-70185642D02*
X158525670Y-70240070D01*
X158525670Y-70240070D02*
X158362384Y-70240070D01*
X158362384Y-70240070D02*
X158144670Y-70185642D01*
X158144670Y-70185642D02*
X158035813Y-70131213D01*
X158035813Y-70131213D02*
X157926956Y-70022356D01*
X157926956Y-70022356D02*
X157872527Y-69859070D01*
X157872527Y-69859070D02*
X157872527Y-69750213D01*
X157872527Y-69750213D02*
X157926956Y-69586927D01*
X157926956Y-69586927D02*
X157981384Y-69532499D01*
X158253527Y-68552785D02*
X159015527Y-68552785D01*
X157818099Y-68824927D02*
X158634527Y-69097070D01*
X158634527Y-69097070D02*
X158634527Y-68389499D01*
X182526214Y-121949670D02*
X182471786Y-122004099D01*
X182471786Y-122004099D02*
X182308500Y-122058527D01*
X182308500Y-122058527D02*
X182199643Y-122058527D01*
X182199643Y-122058527D02*
X182036357Y-122004099D01*
X182036357Y-122004099D02*
X181927500Y-121895241D01*
X181927500Y-121895241D02*
X181873071Y-121786384D01*
X181873071Y-121786384D02*
X181818643Y-121568670D01*
X181818643Y-121568670D02*
X181818643Y-121405384D01*
X181818643Y-121405384D02*
X181873071Y-121187670D01*
X181873071Y-121187670D02*
X181927500Y-121078813D01*
X181927500Y-121078813D02*
X182036357Y-120969956D01*
X182036357Y-120969956D02*
X182199643Y-120915527D01*
X182199643Y-120915527D02*
X182308500Y-120915527D01*
X182308500Y-120915527D02*
X182471786Y-120969956D01*
X182471786Y-120969956D02*
X182526214Y-121024384D01*
X182961643Y-121024384D02*
X183016071Y-120969956D01*
X183016071Y-120969956D02*
X183124929Y-120915527D01*
X183124929Y-120915527D02*
X183397071Y-120915527D01*
X183397071Y-120915527D02*
X183505929Y-120969956D01*
X183505929Y-120969956D02*
X183560357Y-121024384D01*
X183560357Y-121024384D02*
X183614786Y-121133241D01*
X183614786Y-121133241D02*
X183614786Y-121242099D01*
X183614786Y-121242099D02*
X183560357Y-121405384D01*
X183560357Y-121405384D02*
X182907214Y-122058527D01*
X182907214Y-122058527D02*
X183614786Y-122058527D01*
X184594500Y-121296527D02*
X184594500Y-122058527D01*
X184322357Y-120861099D02*
X184050214Y-121677527D01*
X184050214Y-121677527D02*
X184757785Y-121677527D01*
X165508214Y-110265670D02*
X165453786Y-110320099D01*
X165453786Y-110320099D02*
X165290500Y-110374527D01*
X165290500Y-110374527D02*
X165181643Y-110374527D01*
X165181643Y-110374527D02*
X165018357Y-110320099D01*
X165018357Y-110320099D02*
X164909500Y-110211241D01*
X164909500Y-110211241D02*
X164855071Y-110102384D01*
X164855071Y-110102384D02*
X164800643Y-109884670D01*
X164800643Y-109884670D02*
X164800643Y-109721384D01*
X164800643Y-109721384D02*
X164855071Y-109503670D01*
X164855071Y-109503670D02*
X164909500Y-109394813D01*
X164909500Y-109394813D02*
X165018357Y-109285956D01*
X165018357Y-109285956D02*
X165181643Y-109231527D01*
X165181643Y-109231527D02*
X165290500Y-109231527D01*
X165290500Y-109231527D02*
X165453786Y-109285956D01*
X165453786Y-109285956D02*
X165508214Y-109340384D01*
X166596786Y-110374527D02*
X165943643Y-110374527D01*
X166270214Y-110374527D02*
X166270214Y-109231527D01*
X166270214Y-109231527D02*
X166161357Y-109394813D01*
X166161357Y-109394813D02*
X166052500Y-109503670D01*
X166052500Y-109503670D02*
X165943643Y-109558099D01*
X167576500Y-109231527D02*
X167358785Y-109231527D01*
X167358785Y-109231527D02*
X167249928Y-109285956D01*
X167249928Y-109285956D02*
X167195500Y-109340384D01*
X167195500Y-109340384D02*
X167086642Y-109503670D01*
X167086642Y-109503670D02*
X167032214Y-109721384D01*
X167032214Y-109721384D02*
X167032214Y-110156813D01*
X167032214Y-110156813D02*
X167086642Y-110265670D01*
X167086642Y-110265670D02*
X167141071Y-110320099D01*
X167141071Y-110320099D02*
X167249928Y-110374527D01*
X167249928Y-110374527D02*
X167467642Y-110374527D01*
X167467642Y-110374527D02*
X167576500Y-110320099D01*
X167576500Y-110320099D02*
X167630928Y-110265670D01*
X167630928Y-110265670D02*
X167685357Y-110156813D01*
X167685357Y-110156813D02*
X167685357Y-109884670D01*
X167685357Y-109884670D02*
X167630928Y-109775813D01*
X167630928Y-109775813D02*
X167576500Y-109721384D01*
X167576500Y-109721384D02*
X167467642Y-109666956D01*
X167467642Y-109666956D02*
X167249928Y-109666956D01*
X167249928Y-109666956D02*
X167141071Y-109721384D01*
X167141071Y-109721384D02*
X167086642Y-109775813D01*
X167086642Y-109775813D02*
X167032214Y-109884670D01*
X145079357Y-100341527D02*
X145079357Y-99198527D01*
X145079357Y-99198527D02*
X145351500Y-99198527D01*
X145351500Y-99198527D02*
X145514786Y-99252956D01*
X145514786Y-99252956D02*
X145623643Y-99361813D01*
X145623643Y-99361813D02*
X145678072Y-99470670D01*
X145678072Y-99470670D02*
X145732500Y-99688384D01*
X145732500Y-99688384D02*
X145732500Y-99851670D01*
X145732500Y-99851670D02*
X145678072Y-100069384D01*
X145678072Y-100069384D02*
X145623643Y-100178241D01*
X145623643Y-100178241D02*
X145514786Y-100287099D01*
X145514786Y-100287099D02*
X145351500Y-100341527D01*
X145351500Y-100341527D02*
X145079357Y-100341527D01*
X146821072Y-100341527D02*
X146167929Y-100341527D01*
X146494500Y-100341527D02*
X146494500Y-99198527D01*
X146494500Y-99198527D02*
X146385643Y-99361813D01*
X146385643Y-99361813D02*
X146276786Y-99470670D01*
X146276786Y-99470670D02*
X146167929Y-99525099D01*
X133812643Y-91959527D02*
X134465786Y-91959527D01*
X134139214Y-93102527D02*
X134139214Y-91959527D01*
X134846785Y-93102527D02*
X134846785Y-91959527D01*
X134846785Y-91959527D02*
X135282214Y-91959527D01*
X135282214Y-91959527D02*
X135391071Y-92013956D01*
X135391071Y-92013956D02*
X135445500Y-92068384D01*
X135445500Y-92068384D02*
X135499928Y-92177241D01*
X135499928Y-92177241D02*
X135499928Y-92340527D01*
X135499928Y-92340527D02*
X135445500Y-92449384D01*
X135445500Y-92449384D02*
X135391071Y-92503813D01*
X135391071Y-92503813D02*
X135282214Y-92558241D01*
X135282214Y-92558241D02*
X134846785Y-92558241D01*
X135935357Y-92068384D02*
X135989785Y-92013956D01*
X135989785Y-92013956D02*
X136098643Y-91959527D01*
X136098643Y-91959527D02*
X136370785Y-91959527D01*
X136370785Y-91959527D02*
X136479643Y-92013956D01*
X136479643Y-92013956D02*
X136534071Y-92068384D01*
X136534071Y-92068384D02*
X136588500Y-92177241D01*
X136588500Y-92177241D02*
X136588500Y-92286099D01*
X136588500Y-92286099D02*
X136534071Y-92449384D01*
X136534071Y-92449384D02*
X135880928Y-93102527D01*
X135880928Y-93102527D02*
X136588500Y-93102527D01*
X160684670Y-106779785D02*
X160739099Y-106834213D01*
X160739099Y-106834213D02*
X160793527Y-106997499D01*
X160793527Y-106997499D02*
X160793527Y-107106356D01*
X160793527Y-107106356D02*
X160739099Y-107269642D01*
X160739099Y-107269642D02*
X160630241Y-107378499D01*
X160630241Y-107378499D02*
X160521384Y-107432928D01*
X160521384Y-107432928D02*
X160303670Y-107487356D01*
X160303670Y-107487356D02*
X160140384Y-107487356D01*
X160140384Y-107487356D02*
X159922670Y-107432928D01*
X159922670Y-107432928D02*
X159813813Y-107378499D01*
X159813813Y-107378499D02*
X159704956Y-107269642D01*
X159704956Y-107269642D02*
X159650527Y-107106356D01*
X159650527Y-107106356D02*
X159650527Y-106997499D01*
X159650527Y-106997499D02*
X159704956Y-106834213D01*
X159704956Y-106834213D02*
X159759384Y-106779785D01*
X160793527Y-105691213D02*
X160793527Y-106344356D01*
X160793527Y-106017785D02*
X159650527Y-106017785D01*
X159650527Y-106017785D02*
X159813813Y-106126642D01*
X159813813Y-106126642D02*
X159922670Y-106235499D01*
X159922670Y-106235499D02*
X159977099Y-106344356D01*
X159650527Y-104657071D02*
X159650527Y-105201357D01*
X159650527Y-105201357D02*
X160194813Y-105255785D01*
X160194813Y-105255785D02*
X160140384Y-105201357D01*
X160140384Y-105201357D02*
X160085956Y-105092500D01*
X160085956Y-105092500D02*
X160085956Y-104820357D01*
X160085956Y-104820357D02*
X160140384Y-104711500D01*
X160140384Y-104711500D02*
X160194813Y-104657071D01*
X160194813Y-104657071D02*
X160303670Y-104602642D01*
X160303670Y-104602642D02*
X160575813Y-104602642D01*
X160575813Y-104602642D02*
X160684670Y-104657071D01*
X160684670Y-104657071D02*
X160739099Y-104711500D01*
X160739099Y-104711500D02*
X160793527Y-104820357D01*
X160793527Y-104820357D02*
X160793527Y-105092500D01*
X160793527Y-105092500D02*
X160739099Y-105201357D01*
X160739099Y-105201357D02*
X160684670Y-105255785D01*
X140727527Y-75009499D02*
X140183241Y-75390499D01*
X140727527Y-75662642D02*
X139584527Y-75662642D01*
X139584527Y-75662642D02*
X139584527Y-75227213D01*
X139584527Y-75227213D02*
X139638956Y-75118356D01*
X139638956Y-75118356D02*
X139693384Y-75063927D01*
X139693384Y-75063927D02*
X139802241Y-75009499D01*
X139802241Y-75009499D02*
X139965527Y-75009499D01*
X139965527Y-75009499D02*
X140074384Y-75063927D01*
X140074384Y-75063927D02*
X140128813Y-75118356D01*
X140128813Y-75118356D02*
X140183241Y-75227213D01*
X140183241Y-75227213D02*
X140183241Y-75662642D01*
X139584527Y-73975356D02*
X139584527Y-74519642D01*
X139584527Y-74519642D02*
X140128813Y-74574070D01*
X140128813Y-74574070D02*
X140074384Y-74519642D01*
X140074384Y-74519642D02*
X140019956Y-74410785D01*
X140019956Y-74410785D02*
X140019956Y-74138642D01*
X140019956Y-74138642D02*
X140074384Y-74029785D01*
X140074384Y-74029785D02*
X140128813Y-73975356D01*
X140128813Y-73975356D02*
X140237670Y-73920927D01*
X140237670Y-73920927D02*
X140509813Y-73920927D01*
X140509813Y-73920927D02*
X140618670Y-73975356D01*
X140618670Y-73975356D02*
X140673099Y-74029785D01*
X140673099Y-74029785D02*
X140727527Y-74138642D01*
X140727527Y-74138642D02*
X140727527Y-74410785D01*
X140727527Y-74410785D02*
X140673099Y-74519642D01*
X140673099Y-74519642D02*
X140618670Y-74574070D01*
X143428357Y-105167527D02*
X143428357Y-104024527D01*
X143428357Y-104024527D02*
X143700500Y-104024527D01*
X143700500Y-104024527D02*
X143863786Y-104078956D01*
X143863786Y-104078956D02*
X143972643Y-104187813D01*
X143972643Y-104187813D02*
X144027072Y-104296670D01*
X144027072Y-104296670D02*
X144081500Y-104514384D01*
X144081500Y-104514384D02*
X144081500Y-104677670D01*
X144081500Y-104677670D02*
X144027072Y-104895384D01*
X144027072Y-104895384D02*
X143972643Y-105004241D01*
X143972643Y-105004241D02*
X143863786Y-105113099D01*
X143863786Y-105113099D02*
X143700500Y-105167527D01*
X143700500Y-105167527D02*
X143428357Y-105167527D01*
X144516929Y-104133384D02*
X144571357Y-104078956D01*
X144571357Y-104078956D02*
X144680215Y-104024527D01*
X144680215Y-104024527D02*
X144952357Y-104024527D01*
X144952357Y-104024527D02*
X145061215Y-104078956D01*
X145061215Y-104078956D02*
X145115643Y-104133384D01*
X145115643Y-104133384D02*
X145170072Y-104242241D01*
X145170072Y-104242241D02*
X145170072Y-104351099D01*
X145170072Y-104351099D02*
X145115643Y-104514384D01*
X145115643Y-104514384D02*
X144462500Y-105167527D01*
X144462500Y-105167527D02*
X145170072Y-105167527D01*
X150244527Y-135288642D02*
X149101527Y-135288642D01*
X149101527Y-135288642D02*
X149101527Y-135016499D01*
X149101527Y-135016499D02*
X149155956Y-134853213D01*
X149155956Y-134853213D02*
X149264813Y-134744356D01*
X149264813Y-134744356D02*
X149373670Y-134689927D01*
X149373670Y-134689927D02*
X149591384Y-134635499D01*
X149591384Y-134635499D02*
X149754670Y-134635499D01*
X149754670Y-134635499D02*
X149972384Y-134689927D01*
X149972384Y-134689927D02*
X150081241Y-134744356D01*
X150081241Y-134744356D02*
X150190099Y-134853213D01*
X150190099Y-134853213D02*
X150244527Y-135016499D01*
X150244527Y-135016499D02*
X150244527Y-135288642D01*
X149101527Y-134254499D02*
X149101527Y-133546927D01*
X149101527Y-133546927D02*
X149536956Y-133927927D01*
X149536956Y-133927927D02*
X149536956Y-133764642D01*
X149536956Y-133764642D02*
X149591384Y-133655785D01*
X149591384Y-133655785D02*
X149645813Y-133601356D01*
X149645813Y-133601356D02*
X149754670Y-133546927D01*
X149754670Y-133546927D02*
X150026813Y-133546927D01*
X150026813Y-133546927D02*
X150135670Y-133601356D01*
X150135670Y-133601356D02*
X150190099Y-133655785D01*
X150190099Y-133655785D02*
X150244527Y-133764642D01*
X150244527Y-133764642D02*
X150244527Y-134091213D01*
X150244527Y-134091213D02*
X150190099Y-134200070D01*
X150190099Y-134200070D02*
X150135670Y-134254499D01*
X176466500Y-83069527D02*
X176085500Y-82525241D01*
X175813357Y-83069527D02*
X175813357Y-81926527D01*
X175813357Y-81926527D02*
X176248786Y-81926527D01*
X176248786Y-81926527D02*
X176357643Y-81980956D01*
X176357643Y-81980956D02*
X176412072Y-82035384D01*
X176412072Y-82035384D02*
X176466500Y-82144241D01*
X176466500Y-82144241D02*
X176466500Y-82307527D01*
X176466500Y-82307527D02*
X176412072Y-82416384D01*
X176412072Y-82416384D02*
X176357643Y-82470813D01*
X176357643Y-82470813D02*
X176248786Y-82525241D01*
X176248786Y-82525241D02*
X175813357Y-82525241D01*
X177119643Y-82416384D02*
X177010786Y-82361956D01*
X177010786Y-82361956D02*
X176956357Y-82307527D01*
X176956357Y-82307527D02*
X176901929Y-82198670D01*
X176901929Y-82198670D02*
X176901929Y-82144241D01*
X176901929Y-82144241D02*
X176956357Y-82035384D01*
X176956357Y-82035384D02*
X177010786Y-81980956D01*
X177010786Y-81980956D02*
X177119643Y-81926527D01*
X177119643Y-81926527D02*
X177337357Y-81926527D01*
X177337357Y-81926527D02*
X177446215Y-81980956D01*
X177446215Y-81980956D02*
X177500643Y-82035384D01*
X177500643Y-82035384D02*
X177555072Y-82144241D01*
X177555072Y-82144241D02*
X177555072Y-82198670D01*
X177555072Y-82198670D02*
X177500643Y-82307527D01*
X177500643Y-82307527D02*
X177446215Y-82361956D01*
X177446215Y-82361956D02*
X177337357Y-82416384D01*
X177337357Y-82416384D02*
X177119643Y-82416384D01*
X177119643Y-82416384D02*
X177010786Y-82470813D01*
X177010786Y-82470813D02*
X176956357Y-82525241D01*
X176956357Y-82525241D02*
X176901929Y-82634099D01*
X176901929Y-82634099D02*
X176901929Y-82851813D01*
X176901929Y-82851813D02*
X176956357Y-82960670D01*
X176956357Y-82960670D02*
X177010786Y-83015099D01*
X177010786Y-83015099D02*
X177119643Y-83069527D01*
X177119643Y-83069527D02*
X177337357Y-83069527D01*
X177337357Y-83069527D02*
X177446215Y-83015099D01*
X177446215Y-83015099D02*
X177500643Y-82960670D01*
X177500643Y-82960670D02*
X177555072Y-82851813D01*
X177555072Y-82851813D02*
X177555072Y-82634099D01*
X177555072Y-82634099D02*
X177500643Y-82525241D01*
X177500643Y-82525241D02*
X177446215Y-82470813D01*
X177446215Y-82470813D02*
X177337357Y-82416384D01*
X138330214Y-116615670D02*
X138275786Y-116670099D01*
X138275786Y-116670099D02*
X138112500Y-116724527D01*
X138112500Y-116724527D02*
X138003643Y-116724527D01*
X138003643Y-116724527D02*
X137840357Y-116670099D01*
X137840357Y-116670099D02*
X137731500Y-116561241D01*
X137731500Y-116561241D02*
X137677071Y-116452384D01*
X137677071Y-116452384D02*
X137622643Y-116234670D01*
X137622643Y-116234670D02*
X137622643Y-116071384D01*
X137622643Y-116071384D02*
X137677071Y-115853670D01*
X137677071Y-115853670D02*
X137731500Y-115744813D01*
X137731500Y-115744813D02*
X137840357Y-115635956D01*
X137840357Y-115635956D02*
X138003643Y-115581527D01*
X138003643Y-115581527D02*
X138112500Y-115581527D01*
X138112500Y-115581527D02*
X138275786Y-115635956D01*
X138275786Y-115635956D02*
X138330214Y-115690384D01*
X138765643Y-115690384D02*
X138820071Y-115635956D01*
X138820071Y-115635956D02*
X138928929Y-115581527D01*
X138928929Y-115581527D02*
X139201071Y-115581527D01*
X139201071Y-115581527D02*
X139309929Y-115635956D01*
X139309929Y-115635956D02*
X139364357Y-115690384D01*
X139364357Y-115690384D02*
X139418786Y-115799241D01*
X139418786Y-115799241D02*
X139418786Y-115908099D01*
X139418786Y-115908099D02*
X139364357Y-116071384D01*
X139364357Y-116071384D02*
X138711214Y-116724527D01*
X138711214Y-116724527D02*
X139418786Y-116724527D01*
X140126357Y-115581527D02*
X140235214Y-115581527D01*
X140235214Y-115581527D02*
X140344071Y-115635956D01*
X140344071Y-115635956D02*
X140398500Y-115690384D01*
X140398500Y-115690384D02*
X140452928Y-115799241D01*
X140452928Y-115799241D02*
X140507357Y-116016956D01*
X140507357Y-116016956D02*
X140507357Y-116289099D01*
X140507357Y-116289099D02*
X140452928Y-116506813D01*
X140452928Y-116506813D02*
X140398500Y-116615670D01*
X140398500Y-116615670D02*
X140344071Y-116670099D01*
X140344071Y-116670099D02*
X140235214Y-116724527D01*
X140235214Y-116724527D02*
X140126357Y-116724527D01*
X140126357Y-116724527D02*
X140017500Y-116670099D01*
X140017500Y-116670099D02*
X139963071Y-116615670D01*
X139963071Y-116615670D02*
X139908642Y-116506813D01*
X139908642Y-116506813D02*
X139854214Y-116289099D01*
X139854214Y-116289099D02*
X139854214Y-116016956D01*
X139854214Y-116016956D02*
X139908642Y-115799241D01*
X139908642Y-115799241D02*
X139963071Y-115690384D01*
X139963071Y-115690384D02*
X140017500Y-115635956D01*
X140017500Y-115635956D02*
X140126357Y-115581527D01*
X115964000Y-84216527D02*
X115964000Y-85032956D01*
X115964000Y-85032956D02*
X115909571Y-85196241D01*
X115909571Y-85196241D02*
X115800714Y-85305099D01*
X115800714Y-85305099D02*
X115637428Y-85359527D01*
X115637428Y-85359527D02*
X115528571Y-85359527D01*
X117107000Y-85359527D02*
X116453857Y-85359527D01*
X116780428Y-85359527D02*
X116780428Y-84216527D01*
X116780428Y-84216527D02*
X116671571Y-84379813D01*
X116671571Y-84379813D02*
X116562714Y-84488670D01*
X116562714Y-84488670D02*
X116453857Y-84543099D01*
X160557670Y-127226785D02*
X160612099Y-127281213D01*
X160612099Y-127281213D02*
X160666527Y-127444499D01*
X160666527Y-127444499D02*
X160666527Y-127553356D01*
X160666527Y-127553356D02*
X160612099Y-127716642D01*
X160612099Y-127716642D02*
X160503241Y-127825499D01*
X160503241Y-127825499D02*
X160394384Y-127879928D01*
X160394384Y-127879928D02*
X160176670Y-127934356D01*
X160176670Y-127934356D02*
X160013384Y-127934356D01*
X160013384Y-127934356D02*
X159795670Y-127879928D01*
X159795670Y-127879928D02*
X159686813Y-127825499D01*
X159686813Y-127825499D02*
X159577956Y-127716642D01*
X159577956Y-127716642D02*
X159523527Y-127553356D01*
X159523527Y-127553356D02*
X159523527Y-127444499D01*
X159523527Y-127444499D02*
X159577956Y-127281213D01*
X159577956Y-127281213D02*
X159632384Y-127226785D01*
X159632384Y-126791356D02*
X159577956Y-126736928D01*
X159577956Y-126736928D02*
X159523527Y-126628071D01*
X159523527Y-126628071D02*
X159523527Y-126355928D01*
X159523527Y-126355928D02*
X159577956Y-126247071D01*
X159577956Y-126247071D02*
X159632384Y-126192642D01*
X159632384Y-126192642D02*
X159741241Y-126138213D01*
X159741241Y-126138213D02*
X159850099Y-126138213D01*
X159850099Y-126138213D02*
X160013384Y-126192642D01*
X160013384Y-126192642D02*
X160666527Y-126845785D01*
X160666527Y-126845785D02*
X160666527Y-126138213D01*
X160013384Y-125485071D02*
X159958956Y-125593928D01*
X159958956Y-125593928D02*
X159904527Y-125648357D01*
X159904527Y-125648357D02*
X159795670Y-125702785D01*
X159795670Y-125702785D02*
X159741241Y-125702785D01*
X159741241Y-125702785D02*
X159632384Y-125648357D01*
X159632384Y-125648357D02*
X159577956Y-125593928D01*
X159577956Y-125593928D02*
X159523527Y-125485071D01*
X159523527Y-125485071D02*
X159523527Y-125267357D01*
X159523527Y-125267357D02*
X159577956Y-125158500D01*
X159577956Y-125158500D02*
X159632384Y-125104071D01*
X159632384Y-125104071D02*
X159741241Y-125049642D01*
X159741241Y-125049642D02*
X159795670Y-125049642D01*
X159795670Y-125049642D02*
X159904527Y-125104071D01*
X159904527Y-125104071D02*
X159958956Y-125158500D01*
X159958956Y-125158500D02*
X160013384Y-125267357D01*
X160013384Y-125267357D02*
X160013384Y-125485071D01*
X160013384Y-125485071D02*
X160067813Y-125593928D01*
X160067813Y-125593928D02*
X160122241Y-125648357D01*
X160122241Y-125648357D02*
X160231099Y-125702785D01*
X160231099Y-125702785D02*
X160448813Y-125702785D01*
X160448813Y-125702785D02*
X160557670Y-125648357D01*
X160557670Y-125648357D02*
X160612099Y-125593928D01*
X160612099Y-125593928D02*
X160666527Y-125485071D01*
X160666527Y-125485071D02*
X160666527Y-125267357D01*
X160666527Y-125267357D02*
X160612099Y-125158500D01*
X160612099Y-125158500D02*
X160557670Y-125104071D01*
X160557670Y-125104071D02*
X160448813Y-125049642D01*
X160448813Y-125049642D02*
X160231099Y-125049642D01*
X160231099Y-125049642D02*
X160122241Y-125104071D01*
X160122241Y-125104071D02*
X160067813Y-125158500D01*
X160067813Y-125158500D02*
X160013384Y-125267357D01*
X148619670Y-85788499D02*
X148674099Y-85842927D01*
X148674099Y-85842927D02*
X148728527Y-86006213D01*
X148728527Y-86006213D02*
X148728527Y-86115070D01*
X148728527Y-86115070D02*
X148674099Y-86278356D01*
X148674099Y-86278356D02*
X148565241Y-86387213D01*
X148565241Y-86387213D02*
X148456384Y-86441642D01*
X148456384Y-86441642D02*
X148238670Y-86496070D01*
X148238670Y-86496070D02*
X148075384Y-86496070D01*
X148075384Y-86496070D02*
X147857670Y-86441642D01*
X147857670Y-86441642D02*
X147748813Y-86387213D01*
X147748813Y-86387213D02*
X147639956Y-86278356D01*
X147639956Y-86278356D02*
X147585527Y-86115070D01*
X147585527Y-86115070D02*
X147585527Y-86006213D01*
X147585527Y-86006213D02*
X147639956Y-85842927D01*
X147639956Y-85842927D02*
X147694384Y-85788499D01*
X148075384Y-85135356D02*
X148020956Y-85244213D01*
X148020956Y-85244213D02*
X147966527Y-85298642D01*
X147966527Y-85298642D02*
X147857670Y-85353070D01*
X147857670Y-85353070D02*
X147803241Y-85353070D01*
X147803241Y-85353070D02*
X147694384Y-85298642D01*
X147694384Y-85298642D02*
X147639956Y-85244213D01*
X147639956Y-85244213D02*
X147585527Y-85135356D01*
X147585527Y-85135356D02*
X147585527Y-84917642D01*
X147585527Y-84917642D02*
X147639956Y-84808785D01*
X147639956Y-84808785D02*
X147694384Y-84754356D01*
X147694384Y-84754356D02*
X147803241Y-84699927D01*
X147803241Y-84699927D02*
X147857670Y-84699927D01*
X147857670Y-84699927D02*
X147966527Y-84754356D01*
X147966527Y-84754356D02*
X148020956Y-84808785D01*
X148020956Y-84808785D02*
X148075384Y-84917642D01*
X148075384Y-84917642D02*
X148075384Y-85135356D01*
X148075384Y-85135356D02*
X148129813Y-85244213D01*
X148129813Y-85244213D02*
X148184241Y-85298642D01*
X148184241Y-85298642D02*
X148293099Y-85353070D01*
X148293099Y-85353070D02*
X148510813Y-85353070D01*
X148510813Y-85353070D02*
X148619670Y-85298642D01*
X148619670Y-85298642D02*
X148674099Y-85244213D01*
X148674099Y-85244213D02*
X148728527Y-85135356D01*
X148728527Y-85135356D02*
X148728527Y-84917642D01*
X148728527Y-84917642D02*
X148674099Y-84808785D01*
X148674099Y-84808785D02*
X148619670Y-84754356D01*
X148619670Y-84754356D02*
X148510813Y-84699927D01*
X148510813Y-84699927D02*
X148293099Y-84699927D01*
X148293099Y-84699927D02*
X148184241Y-84754356D01*
X148184241Y-84754356D02*
X148129813Y-84808785D01*
X148129813Y-84808785D02*
X148075384Y-84917642D01*
X144029527Y-74882499D02*
X143485241Y-75263499D01*
X144029527Y-75535642D02*
X142886527Y-75535642D01*
X142886527Y-75535642D02*
X142886527Y-75100213D01*
X142886527Y-75100213D02*
X142940956Y-74991356D01*
X142940956Y-74991356D02*
X142995384Y-74936927D01*
X142995384Y-74936927D02*
X143104241Y-74882499D01*
X143104241Y-74882499D02*
X143267527Y-74882499D01*
X143267527Y-74882499D02*
X143376384Y-74936927D01*
X143376384Y-74936927D02*
X143430813Y-74991356D01*
X143430813Y-74991356D02*
X143485241Y-75100213D01*
X143485241Y-75100213D02*
X143485241Y-75535642D01*
X142886527Y-73902785D02*
X142886527Y-74120499D01*
X142886527Y-74120499D02*
X142940956Y-74229356D01*
X142940956Y-74229356D02*
X142995384Y-74283785D01*
X142995384Y-74283785D02*
X143158670Y-74392642D01*
X143158670Y-74392642D02*
X143376384Y-74447070D01*
X143376384Y-74447070D02*
X143811813Y-74447070D01*
X143811813Y-74447070D02*
X143920670Y-74392642D01*
X143920670Y-74392642D02*
X143975099Y-74338213D01*
X143975099Y-74338213D02*
X144029527Y-74229356D01*
X144029527Y-74229356D02*
X144029527Y-74011642D01*
X144029527Y-74011642D02*
X143975099Y-73902785D01*
X143975099Y-73902785D02*
X143920670Y-73848356D01*
X143920670Y-73848356D02*
X143811813Y-73793927D01*
X143811813Y-73793927D02*
X143539670Y-73793927D01*
X143539670Y-73793927D02*
X143430813Y-73848356D01*
X143430813Y-73848356D02*
X143376384Y-73902785D01*
X143376384Y-73902785D02*
X143321956Y-74011642D01*
X143321956Y-74011642D02*
X143321956Y-74229356D01*
X143321956Y-74229356D02*
X143376384Y-74338213D01*
X143376384Y-74338213D02*
X143430813Y-74392642D01*
X143430813Y-74392642D02*
X143539670Y-74447070D01*
X168612142Y-67829527D02*
X168612142Y-68754813D01*
X168612142Y-68754813D02*
X168666571Y-68863670D01*
X168666571Y-68863670D02*
X168721000Y-68918099D01*
X168721000Y-68918099D02*
X168829857Y-68972527D01*
X168829857Y-68972527D02*
X169047571Y-68972527D01*
X169047571Y-68972527D02*
X169156428Y-68918099D01*
X169156428Y-68918099D02*
X169210857Y-68863670D01*
X169210857Y-68863670D02*
X169265285Y-68754813D01*
X169265285Y-68754813D02*
X169265285Y-67829527D01*
X169700714Y-67829527D02*
X170408286Y-67829527D01*
X170408286Y-67829527D02*
X170027286Y-68264956D01*
X170027286Y-68264956D02*
X170190571Y-68264956D01*
X170190571Y-68264956D02*
X170299429Y-68319384D01*
X170299429Y-68319384D02*
X170353857Y-68373813D01*
X170353857Y-68373813D02*
X170408286Y-68482670D01*
X170408286Y-68482670D02*
X170408286Y-68754813D01*
X170408286Y-68754813D02*
X170353857Y-68863670D01*
X170353857Y-68863670D02*
X170299429Y-68918099D01*
X170299429Y-68918099D02*
X170190571Y-68972527D01*
X170190571Y-68972527D02*
X169864000Y-68972527D01*
X169864000Y-68972527D02*
X169755143Y-68918099D01*
X169755143Y-68918099D02*
X169700714Y-68863670D01*
X167531142Y-92957384D02*
X167422285Y-92902956D01*
X167422285Y-92902956D02*
X167313428Y-92794099D01*
X167313428Y-92794099D02*
X167150142Y-92630813D01*
X167150142Y-92630813D02*
X167041285Y-92576384D01*
X167041285Y-92576384D02*
X166932428Y-92576384D01*
X166986857Y-92848527D02*
X166878000Y-92794099D01*
X166878000Y-92794099D02*
X166769142Y-92685241D01*
X166769142Y-92685241D02*
X166714714Y-92467527D01*
X166714714Y-92467527D02*
X166714714Y-92086527D01*
X166714714Y-92086527D02*
X166769142Y-91868813D01*
X166769142Y-91868813D02*
X166878000Y-91759956D01*
X166878000Y-91759956D02*
X166986857Y-91705527D01*
X166986857Y-91705527D02*
X167204571Y-91705527D01*
X167204571Y-91705527D02*
X167313428Y-91759956D01*
X167313428Y-91759956D02*
X167422285Y-91868813D01*
X167422285Y-91868813D02*
X167476714Y-92086527D01*
X167476714Y-92086527D02*
X167476714Y-92467527D01*
X167476714Y-92467527D02*
X167422285Y-92685241D01*
X167422285Y-92685241D02*
X167313428Y-92794099D01*
X167313428Y-92794099D02*
X167204571Y-92848527D01*
X167204571Y-92848527D02*
X166986857Y-92848527D01*
X167857714Y-91705527D02*
X168565286Y-91705527D01*
X168565286Y-91705527D02*
X168184286Y-92140956D01*
X168184286Y-92140956D02*
X168347571Y-92140956D01*
X168347571Y-92140956D02*
X168456429Y-92195384D01*
X168456429Y-92195384D02*
X168510857Y-92249813D01*
X168510857Y-92249813D02*
X168565286Y-92358670D01*
X168565286Y-92358670D02*
X168565286Y-92630813D01*
X168565286Y-92630813D02*
X168510857Y-92739670D01*
X168510857Y-92739670D02*
X168456429Y-92794099D01*
X168456429Y-92794099D02*
X168347571Y-92848527D01*
X168347571Y-92848527D02*
X168021000Y-92848527D01*
X168021000Y-92848527D02*
X167912143Y-92794099D01*
X167912143Y-92794099D02*
X167857714Y-92739670D01*
X179324000Y-96912527D02*
X179324000Y-97728956D01*
X179324000Y-97728956D02*
X179269571Y-97892241D01*
X179269571Y-97892241D02*
X179160714Y-98001099D01*
X179160714Y-98001099D02*
X178997428Y-98055527D01*
X178997428Y-98055527D02*
X178888571Y-98055527D01*
X179813857Y-97021384D02*
X179868285Y-96966956D01*
X179868285Y-96966956D02*
X179977143Y-96912527D01*
X179977143Y-96912527D02*
X180249285Y-96912527D01*
X180249285Y-96912527D02*
X180358143Y-96966956D01*
X180358143Y-96966956D02*
X180412571Y-97021384D01*
X180412571Y-97021384D02*
X180467000Y-97130241D01*
X180467000Y-97130241D02*
X180467000Y-97239099D01*
X180467000Y-97239099D02*
X180412571Y-97402384D01*
X180412571Y-97402384D02*
X179759428Y-98055527D01*
X179759428Y-98055527D02*
X180467000Y-98055527D01*
X133286500Y-76211527D02*
X132905500Y-75667241D01*
X132633357Y-76211527D02*
X132633357Y-75068527D01*
X132633357Y-75068527D02*
X133068786Y-75068527D01*
X133068786Y-75068527D02*
X133177643Y-75122956D01*
X133177643Y-75122956D02*
X133232072Y-75177384D01*
X133232072Y-75177384D02*
X133286500Y-75286241D01*
X133286500Y-75286241D02*
X133286500Y-75449527D01*
X133286500Y-75449527D02*
X133232072Y-75558384D01*
X133232072Y-75558384D02*
X133177643Y-75612813D01*
X133177643Y-75612813D02*
X133068786Y-75667241D01*
X133068786Y-75667241D02*
X132633357Y-75667241D01*
X134266215Y-75449527D02*
X134266215Y-76211527D01*
X133994072Y-75014099D02*
X133721929Y-75830527D01*
X133721929Y-75830527D02*
X134429500Y-75830527D01*
X182526214Y-112170670D02*
X182471786Y-112225099D01*
X182471786Y-112225099D02*
X182308500Y-112279527D01*
X182308500Y-112279527D02*
X182199643Y-112279527D01*
X182199643Y-112279527D02*
X182036357Y-112225099D01*
X182036357Y-112225099D02*
X181927500Y-112116241D01*
X181927500Y-112116241D02*
X181873071Y-112007384D01*
X181873071Y-112007384D02*
X181818643Y-111789670D01*
X181818643Y-111789670D02*
X181818643Y-111626384D01*
X181818643Y-111626384D02*
X181873071Y-111408670D01*
X181873071Y-111408670D02*
X181927500Y-111299813D01*
X181927500Y-111299813D02*
X182036357Y-111190956D01*
X182036357Y-111190956D02*
X182199643Y-111136527D01*
X182199643Y-111136527D02*
X182308500Y-111136527D01*
X182308500Y-111136527D02*
X182471786Y-111190956D01*
X182471786Y-111190956D02*
X182526214Y-111245384D01*
X182961643Y-111245384D02*
X183016071Y-111190956D01*
X183016071Y-111190956D02*
X183124929Y-111136527D01*
X183124929Y-111136527D02*
X183397071Y-111136527D01*
X183397071Y-111136527D02*
X183505929Y-111190956D01*
X183505929Y-111190956D02*
X183560357Y-111245384D01*
X183560357Y-111245384D02*
X183614786Y-111354241D01*
X183614786Y-111354241D02*
X183614786Y-111463099D01*
X183614786Y-111463099D02*
X183560357Y-111626384D01*
X183560357Y-111626384D02*
X182907214Y-112279527D01*
X182907214Y-112279527D02*
X183614786Y-112279527D01*
X184703357Y-112279527D02*
X184050214Y-112279527D01*
X184376785Y-112279527D02*
X184376785Y-111136527D01*
X184376785Y-111136527D02*
X184267928Y-111299813D01*
X184267928Y-111299813D02*
X184159071Y-111408670D01*
X184159071Y-111408670D02*
X184050214Y-111463099D01*
X146895142Y-72528527D02*
X146895142Y-73453813D01*
X146895142Y-73453813D02*
X146949571Y-73562670D01*
X146949571Y-73562670D02*
X147004000Y-73617099D01*
X147004000Y-73617099D02*
X147112857Y-73671527D01*
X147112857Y-73671527D02*
X147330571Y-73671527D01*
X147330571Y-73671527D02*
X147439428Y-73617099D01*
X147439428Y-73617099D02*
X147493857Y-73562670D01*
X147493857Y-73562670D02*
X147548285Y-73453813D01*
X147548285Y-73453813D02*
X147548285Y-72528527D01*
X148038143Y-72637384D02*
X148092571Y-72582956D01*
X148092571Y-72582956D02*
X148201429Y-72528527D01*
X148201429Y-72528527D02*
X148473571Y-72528527D01*
X148473571Y-72528527D02*
X148582429Y-72582956D01*
X148582429Y-72582956D02*
X148636857Y-72637384D01*
X148636857Y-72637384D02*
X148691286Y-72746241D01*
X148691286Y-72746241D02*
X148691286Y-72855099D01*
X148691286Y-72855099D02*
X148636857Y-73018384D01*
X148636857Y-73018384D02*
X147983714Y-73671527D01*
X147983714Y-73671527D02*
X148691286Y-73671527D01*
X142702643Y-108342527D02*
X143355786Y-108342527D01*
X143029214Y-109485527D02*
X143029214Y-108342527D01*
X143736785Y-109485527D02*
X143736785Y-108342527D01*
X143736785Y-108342527D02*
X144172214Y-108342527D01*
X144172214Y-108342527D02*
X144281071Y-108396956D01*
X144281071Y-108396956D02*
X144335500Y-108451384D01*
X144335500Y-108451384D02*
X144389928Y-108560241D01*
X144389928Y-108560241D02*
X144389928Y-108723527D01*
X144389928Y-108723527D02*
X144335500Y-108832384D01*
X144335500Y-108832384D02*
X144281071Y-108886813D01*
X144281071Y-108886813D02*
X144172214Y-108941241D01*
X144172214Y-108941241D02*
X143736785Y-108941241D01*
X144770928Y-108342527D02*
X145532928Y-108342527D01*
X145532928Y-108342527D02*
X145043071Y-109485527D01*
X173102500Y-77372670D02*
X173048072Y-77427099D01*
X173048072Y-77427099D02*
X172884786Y-77481527D01*
X172884786Y-77481527D02*
X172775929Y-77481527D01*
X172775929Y-77481527D02*
X172612643Y-77427099D01*
X172612643Y-77427099D02*
X172503786Y-77318241D01*
X172503786Y-77318241D02*
X172449357Y-77209384D01*
X172449357Y-77209384D02*
X172394929Y-76991670D01*
X172394929Y-76991670D02*
X172394929Y-76828384D01*
X172394929Y-76828384D02*
X172449357Y-76610670D01*
X172449357Y-76610670D02*
X172503786Y-76501813D01*
X172503786Y-76501813D02*
X172612643Y-76392956D01*
X172612643Y-76392956D02*
X172775929Y-76338527D01*
X172775929Y-76338527D02*
X172884786Y-76338527D01*
X172884786Y-76338527D02*
X173048072Y-76392956D01*
X173048072Y-76392956D02*
X173102500Y-76447384D01*
X174082215Y-76338527D02*
X173864500Y-76338527D01*
X173864500Y-76338527D02*
X173755643Y-76392956D01*
X173755643Y-76392956D02*
X173701215Y-76447384D01*
X173701215Y-76447384D02*
X173592357Y-76610670D01*
X173592357Y-76610670D02*
X173537929Y-76828384D01*
X173537929Y-76828384D02*
X173537929Y-77263813D01*
X173537929Y-77263813D02*
X173592357Y-77372670D01*
X173592357Y-77372670D02*
X173646786Y-77427099D01*
X173646786Y-77427099D02*
X173755643Y-77481527D01*
X173755643Y-77481527D02*
X173973357Y-77481527D01*
X173973357Y-77481527D02*
X174082215Y-77427099D01*
X174082215Y-77427099D02*
X174136643Y-77372670D01*
X174136643Y-77372670D02*
X174191072Y-77263813D01*
X174191072Y-77263813D02*
X174191072Y-76991670D01*
X174191072Y-76991670D02*
X174136643Y-76882813D01*
X174136643Y-76882813D02*
X174082215Y-76828384D01*
X174082215Y-76828384D02*
X173973357Y-76773956D01*
X173973357Y-76773956D02*
X173755643Y-76773956D01*
X173755643Y-76773956D02*
X173646786Y-76828384D01*
X173646786Y-76828384D02*
X173592357Y-76882813D01*
X173592357Y-76882813D02*
X173537929Y-76991670D01*
X148619670Y-90904785D02*
X148674099Y-90959213D01*
X148674099Y-90959213D02*
X148728527Y-91122499D01*
X148728527Y-91122499D02*
X148728527Y-91231356D01*
X148728527Y-91231356D02*
X148674099Y-91394642D01*
X148674099Y-91394642D02*
X148565241Y-91503499D01*
X148565241Y-91503499D02*
X148456384Y-91557928D01*
X148456384Y-91557928D02*
X148238670Y-91612356D01*
X148238670Y-91612356D02*
X148075384Y-91612356D01*
X148075384Y-91612356D02*
X147857670Y-91557928D01*
X147857670Y-91557928D02*
X147748813Y-91503499D01*
X147748813Y-91503499D02*
X147639956Y-91394642D01*
X147639956Y-91394642D02*
X147585527Y-91231356D01*
X147585527Y-91231356D02*
X147585527Y-91122499D01*
X147585527Y-91122499D02*
X147639956Y-90959213D01*
X147639956Y-90959213D02*
X147694384Y-90904785D01*
X148728527Y-89816213D02*
X148728527Y-90469356D01*
X148728527Y-90142785D02*
X147585527Y-90142785D01*
X147585527Y-90142785D02*
X147748813Y-90251642D01*
X147748813Y-90251642D02*
X147857670Y-90360499D01*
X147857670Y-90360499D02*
X147912099Y-90469356D01*
X148728527Y-88727642D02*
X148728527Y-89380785D01*
X148728527Y-89054214D02*
X147585527Y-89054214D01*
X147585527Y-89054214D02*
X147748813Y-89163071D01*
X147748813Y-89163071D02*
X147857670Y-89271928D01*
X147857670Y-89271928D02*
X147912099Y-89380785D01*
X130075214Y-132730670D02*
X130020786Y-132785099D01*
X130020786Y-132785099D02*
X129857500Y-132839527D01*
X129857500Y-132839527D02*
X129748643Y-132839527D01*
X129748643Y-132839527D02*
X129585357Y-132785099D01*
X129585357Y-132785099D02*
X129476500Y-132676241D01*
X129476500Y-132676241D02*
X129422071Y-132567384D01*
X129422071Y-132567384D02*
X129367643Y-132349670D01*
X129367643Y-132349670D02*
X129367643Y-132186384D01*
X129367643Y-132186384D02*
X129422071Y-131968670D01*
X129422071Y-131968670D02*
X129476500Y-131859813D01*
X129476500Y-131859813D02*
X129585357Y-131750956D01*
X129585357Y-131750956D02*
X129748643Y-131696527D01*
X129748643Y-131696527D02*
X129857500Y-131696527D01*
X129857500Y-131696527D02*
X130020786Y-131750956D01*
X130020786Y-131750956D02*
X130075214Y-131805384D01*
X130510643Y-131805384D02*
X130565071Y-131750956D01*
X130565071Y-131750956D02*
X130673929Y-131696527D01*
X130673929Y-131696527D02*
X130946071Y-131696527D01*
X130946071Y-131696527D02*
X131054929Y-131750956D01*
X131054929Y-131750956D02*
X131109357Y-131805384D01*
X131109357Y-131805384D02*
X131163786Y-131914241D01*
X131163786Y-131914241D02*
X131163786Y-132023099D01*
X131163786Y-132023099D02*
X131109357Y-132186384D01*
X131109357Y-132186384D02*
X130456214Y-132839527D01*
X130456214Y-132839527D02*
X131163786Y-132839527D01*
X131708071Y-132839527D02*
X131925785Y-132839527D01*
X131925785Y-132839527D02*
X132034642Y-132785099D01*
X132034642Y-132785099D02*
X132089071Y-132730670D01*
X132089071Y-132730670D02*
X132197928Y-132567384D01*
X132197928Y-132567384D02*
X132252357Y-132349670D01*
X132252357Y-132349670D02*
X132252357Y-131914241D01*
X132252357Y-131914241D02*
X132197928Y-131805384D01*
X132197928Y-131805384D02*
X132143500Y-131750956D01*
X132143500Y-131750956D02*
X132034642Y-131696527D01*
X132034642Y-131696527D02*
X131816928Y-131696527D01*
X131816928Y-131696527D02*
X131708071Y-131750956D01*
X131708071Y-131750956D02*
X131653642Y-131805384D01*
X131653642Y-131805384D02*
X131599214Y-131914241D01*
X131599214Y-131914241D02*
X131599214Y-132186384D01*
X131599214Y-132186384D02*
X131653642Y-132295241D01*
X131653642Y-132295241D02*
X131708071Y-132349670D01*
X131708071Y-132349670D02*
X131816928Y-132404099D01*
X131816928Y-132404099D02*
X132034642Y-132404099D01*
X132034642Y-132404099D02*
X132143500Y-132349670D01*
X132143500Y-132349670D02*
X132197928Y-132295241D01*
X132197928Y-132295241D02*
X132252357Y-132186384D01*
X129059214Y-96785527D02*
X128678214Y-96241241D01*
X128406071Y-96785527D02*
X128406071Y-95642527D01*
X128406071Y-95642527D02*
X128841500Y-95642527D01*
X128841500Y-95642527D02*
X128950357Y-95696956D01*
X128950357Y-95696956D02*
X129004786Y-95751384D01*
X129004786Y-95751384D02*
X129059214Y-95860241D01*
X129059214Y-95860241D02*
X129059214Y-96023527D01*
X129059214Y-96023527D02*
X129004786Y-96132384D01*
X129004786Y-96132384D02*
X128950357Y-96186813D01*
X128950357Y-96186813D02*
X128841500Y-96241241D01*
X128841500Y-96241241D02*
X128406071Y-96241241D01*
X130147786Y-96785527D02*
X129494643Y-96785527D01*
X129821214Y-96785527D02*
X129821214Y-95642527D01*
X129821214Y-95642527D02*
X129712357Y-95805813D01*
X129712357Y-95805813D02*
X129603500Y-95914670D01*
X129603500Y-95914670D02*
X129494643Y-95969099D01*
X130855357Y-95642527D02*
X130964214Y-95642527D01*
X130964214Y-95642527D02*
X131073071Y-95696956D01*
X131073071Y-95696956D02*
X131127500Y-95751384D01*
X131127500Y-95751384D02*
X131181928Y-95860241D01*
X131181928Y-95860241D02*
X131236357Y-96077956D01*
X131236357Y-96077956D02*
X131236357Y-96350099D01*
X131236357Y-96350099D02*
X131181928Y-96567813D01*
X131181928Y-96567813D02*
X131127500Y-96676670D01*
X131127500Y-96676670D02*
X131073071Y-96731099D01*
X131073071Y-96731099D02*
X130964214Y-96785527D01*
X130964214Y-96785527D02*
X130855357Y-96785527D01*
X130855357Y-96785527D02*
X130746500Y-96731099D01*
X130746500Y-96731099D02*
X130692071Y-96676670D01*
X130692071Y-96676670D02*
X130637642Y-96567813D01*
X130637642Y-96567813D02*
X130583214Y-96350099D01*
X130583214Y-96350099D02*
X130583214Y-96077956D01*
X130583214Y-96077956D02*
X130637642Y-95860241D01*
X130637642Y-95860241D02*
X130692071Y-95751384D01*
X130692071Y-95751384D02*
X130746500Y-95696956D01*
X130746500Y-95696956D02*
X130855357Y-95642527D01*
X146813500Y-77499670D02*
X146759072Y-77554099D01*
X146759072Y-77554099D02*
X146595786Y-77608527D01*
X146595786Y-77608527D02*
X146486929Y-77608527D01*
X146486929Y-77608527D02*
X146323643Y-77554099D01*
X146323643Y-77554099D02*
X146214786Y-77445241D01*
X146214786Y-77445241D02*
X146160357Y-77336384D01*
X146160357Y-77336384D02*
X146105929Y-77118670D01*
X146105929Y-77118670D02*
X146105929Y-76955384D01*
X146105929Y-76955384D02*
X146160357Y-76737670D01*
X146160357Y-76737670D02*
X146214786Y-76628813D01*
X146214786Y-76628813D02*
X146323643Y-76519956D01*
X146323643Y-76519956D02*
X146486929Y-76465527D01*
X146486929Y-76465527D02*
X146595786Y-76465527D01*
X146595786Y-76465527D02*
X146759072Y-76519956D01*
X146759072Y-76519956D02*
X146813500Y-76574384D01*
X147194500Y-76465527D02*
X147902072Y-76465527D01*
X147902072Y-76465527D02*
X147521072Y-76900956D01*
X147521072Y-76900956D02*
X147684357Y-76900956D01*
X147684357Y-76900956D02*
X147793215Y-76955384D01*
X147793215Y-76955384D02*
X147847643Y-77009813D01*
X147847643Y-77009813D02*
X147902072Y-77118670D01*
X147902072Y-77118670D02*
X147902072Y-77390813D01*
X147902072Y-77390813D02*
X147847643Y-77499670D01*
X147847643Y-77499670D02*
X147793215Y-77554099D01*
X147793215Y-77554099D02*
X147684357Y-77608527D01*
X147684357Y-77608527D02*
X147357786Y-77608527D01*
X147357786Y-77608527D02*
X147248929Y-77554099D01*
X147248929Y-77554099D02*
X147194500Y-77499670D01*
X165101500Y-79005527D02*
X164720500Y-78461241D01*
X164448357Y-79005527D02*
X164448357Y-77862527D01*
X164448357Y-77862527D02*
X164883786Y-77862527D01*
X164883786Y-77862527D02*
X164992643Y-77916956D01*
X164992643Y-77916956D02*
X165047072Y-77971384D01*
X165047072Y-77971384D02*
X165101500Y-78080241D01*
X165101500Y-78080241D02*
X165101500Y-78243527D01*
X165101500Y-78243527D02*
X165047072Y-78352384D01*
X165047072Y-78352384D02*
X164992643Y-78406813D01*
X164992643Y-78406813D02*
X164883786Y-78461241D01*
X164883786Y-78461241D02*
X164448357Y-78461241D01*
X165482500Y-77862527D02*
X166190072Y-77862527D01*
X166190072Y-77862527D02*
X165809072Y-78297956D01*
X165809072Y-78297956D02*
X165972357Y-78297956D01*
X165972357Y-78297956D02*
X166081215Y-78352384D01*
X166081215Y-78352384D02*
X166135643Y-78406813D01*
X166135643Y-78406813D02*
X166190072Y-78515670D01*
X166190072Y-78515670D02*
X166190072Y-78787813D01*
X166190072Y-78787813D02*
X166135643Y-78896670D01*
X166135643Y-78896670D02*
X166081215Y-78951099D01*
X166081215Y-78951099D02*
X165972357Y-79005527D01*
X165972357Y-79005527D02*
X165645786Y-79005527D01*
X165645786Y-79005527D02*
X165536929Y-78951099D01*
X165536929Y-78951099D02*
X165482500Y-78896670D01*
X153352500Y-104151527D02*
X152808214Y-104151527D01*
X152808214Y-104151527D02*
X152808214Y-103008527D01*
X153679072Y-103117384D02*
X153733500Y-103062956D01*
X153733500Y-103062956D02*
X153842358Y-103008527D01*
X153842358Y-103008527D02*
X154114500Y-103008527D01*
X154114500Y-103008527D02*
X154223358Y-103062956D01*
X154223358Y-103062956D02*
X154277786Y-103117384D01*
X154277786Y-103117384D02*
X154332215Y-103226241D01*
X154332215Y-103226241D02*
X154332215Y-103335099D01*
X154332215Y-103335099D02*
X154277786Y-103498384D01*
X154277786Y-103498384D02*
X153624643Y-104151527D01*
X153624643Y-104151527D02*
X154332215Y-104151527D01*
X139600214Y-100341527D02*
X139219214Y-99797241D01*
X138947071Y-100341527D02*
X138947071Y-99198527D01*
X138947071Y-99198527D02*
X139382500Y-99198527D01*
X139382500Y-99198527D02*
X139491357Y-99252956D01*
X139491357Y-99252956D02*
X139545786Y-99307384D01*
X139545786Y-99307384D02*
X139600214Y-99416241D01*
X139600214Y-99416241D02*
X139600214Y-99579527D01*
X139600214Y-99579527D02*
X139545786Y-99688384D01*
X139545786Y-99688384D02*
X139491357Y-99742813D01*
X139491357Y-99742813D02*
X139382500Y-99797241D01*
X139382500Y-99797241D02*
X138947071Y-99797241D01*
X140688786Y-100341527D02*
X140035643Y-100341527D01*
X140362214Y-100341527D02*
X140362214Y-99198527D01*
X140362214Y-99198527D02*
X140253357Y-99361813D01*
X140253357Y-99361813D02*
X140144500Y-99470670D01*
X140144500Y-99470670D02*
X140035643Y-99525099D01*
X141777357Y-100341527D02*
X141124214Y-100341527D01*
X141450785Y-100341527D02*
X141450785Y-99198527D01*
X141450785Y-99198527D02*
X141341928Y-99361813D01*
X141341928Y-99361813D02*
X141233071Y-99470670D01*
X141233071Y-99470670D02*
X141124214Y-99525099D01*
X165671500Y-65670527D02*
X165290500Y-65126241D01*
X165018357Y-65670527D02*
X165018357Y-64527527D01*
X165018357Y-64527527D02*
X165453786Y-64527527D01*
X165453786Y-64527527D02*
X165562643Y-64581956D01*
X165562643Y-64581956D02*
X165617072Y-64636384D01*
X165617072Y-64636384D02*
X165671500Y-64745241D01*
X165671500Y-64745241D02*
X165671500Y-64908527D01*
X165671500Y-64908527D02*
X165617072Y-65017384D01*
X165617072Y-65017384D02*
X165562643Y-65071813D01*
X165562643Y-65071813D02*
X165453786Y-65126241D01*
X165453786Y-65126241D02*
X165018357Y-65126241D01*
X166052500Y-64527527D02*
X166814500Y-64527527D01*
X166814500Y-64527527D02*
X166324643Y-65670527D01*
X153370643Y-97801527D02*
X154023786Y-97801527D01*
X153697214Y-98944527D02*
X153697214Y-97801527D01*
X154404785Y-98944527D02*
X154404785Y-97801527D01*
X154404785Y-97801527D02*
X154840214Y-97801527D01*
X154840214Y-97801527D02*
X154949071Y-97855956D01*
X154949071Y-97855956D02*
X155003500Y-97910384D01*
X155003500Y-97910384D02*
X155057928Y-98019241D01*
X155057928Y-98019241D02*
X155057928Y-98182527D01*
X155057928Y-98182527D02*
X155003500Y-98291384D01*
X155003500Y-98291384D02*
X154949071Y-98345813D01*
X154949071Y-98345813D02*
X154840214Y-98400241D01*
X154840214Y-98400241D02*
X154404785Y-98400241D01*
X156092071Y-97801527D02*
X155547785Y-97801527D01*
X155547785Y-97801527D02*
X155493357Y-98345813D01*
X155493357Y-98345813D02*
X155547785Y-98291384D01*
X155547785Y-98291384D02*
X155656643Y-98236956D01*
X155656643Y-98236956D02*
X155928785Y-98236956D01*
X155928785Y-98236956D02*
X156037643Y-98291384D01*
X156037643Y-98291384D02*
X156092071Y-98345813D01*
X156092071Y-98345813D02*
X156146500Y-98454670D01*
X156146500Y-98454670D02*
X156146500Y-98726813D01*
X156146500Y-98726813D02*
X156092071Y-98835670D01*
X156092071Y-98835670D02*
X156037643Y-98890099D01*
X156037643Y-98890099D02*
X155928785Y-98944527D01*
X155928785Y-98944527D02*
X155656643Y-98944527D01*
X155656643Y-98944527D02*
X155547785Y-98890099D01*
X155547785Y-98890099D02*
X155493357Y-98835670D01*
X154588670Y-107033785D02*
X154643099Y-107088213D01*
X154643099Y-107088213D02*
X154697527Y-107251499D01*
X154697527Y-107251499D02*
X154697527Y-107360356D01*
X154697527Y-107360356D02*
X154643099Y-107523642D01*
X154643099Y-107523642D02*
X154534241Y-107632499D01*
X154534241Y-107632499D02*
X154425384Y-107686928D01*
X154425384Y-107686928D02*
X154207670Y-107741356D01*
X154207670Y-107741356D02*
X154044384Y-107741356D01*
X154044384Y-107741356D02*
X153826670Y-107686928D01*
X153826670Y-107686928D02*
X153717813Y-107632499D01*
X153717813Y-107632499D02*
X153608956Y-107523642D01*
X153608956Y-107523642D02*
X153554527Y-107360356D01*
X153554527Y-107360356D02*
X153554527Y-107251499D01*
X153554527Y-107251499D02*
X153608956Y-107088213D01*
X153608956Y-107088213D02*
X153663384Y-107033785D01*
X154697527Y-105945213D02*
X154697527Y-106598356D01*
X154697527Y-106271785D02*
X153554527Y-106271785D01*
X153554527Y-106271785D02*
X153717813Y-106380642D01*
X153717813Y-106380642D02*
X153826670Y-106489499D01*
X153826670Y-106489499D02*
X153881099Y-106598356D01*
X153554527Y-105564214D02*
X153554527Y-104856642D01*
X153554527Y-104856642D02*
X153989956Y-105237642D01*
X153989956Y-105237642D02*
X153989956Y-105074357D01*
X153989956Y-105074357D02*
X154044384Y-104965500D01*
X154044384Y-104965500D02*
X154098813Y-104911071D01*
X154098813Y-104911071D02*
X154207670Y-104856642D01*
X154207670Y-104856642D02*
X154479813Y-104856642D01*
X154479813Y-104856642D02*
X154588670Y-104911071D01*
X154588670Y-104911071D02*
X154643099Y-104965500D01*
X154643099Y-104965500D02*
X154697527Y-105074357D01*
X154697527Y-105074357D02*
X154697527Y-105400928D01*
X154697527Y-105400928D02*
X154643099Y-105509785D01*
X154643099Y-105509785D02*
X154588670Y-105564214D01*
X138330214Y-114075670D02*
X138275786Y-114130099D01*
X138275786Y-114130099D02*
X138112500Y-114184527D01*
X138112500Y-114184527D02*
X138003643Y-114184527D01*
X138003643Y-114184527D02*
X137840357Y-114130099D01*
X137840357Y-114130099D02*
X137731500Y-114021241D01*
X137731500Y-114021241D02*
X137677071Y-113912384D01*
X137677071Y-113912384D02*
X137622643Y-113694670D01*
X137622643Y-113694670D02*
X137622643Y-113531384D01*
X137622643Y-113531384D02*
X137677071Y-113313670D01*
X137677071Y-113313670D02*
X137731500Y-113204813D01*
X137731500Y-113204813D02*
X137840357Y-113095956D01*
X137840357Y-113095956D02*
X138003643Y-113041527D01*
X138003643Y-113041527D02*
X138112500Y-113041527D01*
X138112500Y-113041527D02*
X138275786Y-113095956D01*
X138275786Y-113095956D02*
X138330214Y-113150384D01*
X139418786Y-114184527D02*
X138765643Y-114184527D01*
X139092214Y-114184527D02*
X139092214Y-113041527D01*
X139092214Y-113041527D02*
X138983357Y-113204813D01*
X138983357Y-113204813D02*
X138874500Y-113313670D01*
X138874500Y-113313670D02*
X138765643Y-113368099D01*
X139963071Y-114184527D02*
X140180785Y-114184527D01*
X140180785Y-114184527D02*
X140289642Y-114130099D01*
X140289642Y-114130099D02*
X140344071Y-114075670D01*
X140344071Y-114075670D02*
X140452928Y-113912384D01*
X140452928Y-113912384D02*
X140507357Y-113694670D01*
X140507357Y-113694670D02*
X140507357Y-113259241D01*
X140507357Y-113259241D02*
X140452928Y-113150384D01*
X140452928Y-113150384D02*
X140398500Y-113095956D01*
X140398500Y-113095956D02*
X140289642Y-113041527D01*
X140289642Y-113041527D02*
X140071928Y-113041527D01*
X140071928Y-113041527D02*
X139963071Y-113095956D01*
X139963071Y-113095956D02*
X139908642Y-113150384D01*
X139908642Y-113150384D02*
X139854214Y-113259241D01*
X139854214Y-113259241D02*
X139854214Y-113531384D01*
X139854214Y-113531384D02*
X139908642Y-113640241D01*
X139908642Y-113640241D02*
X139963071Y-113694670D01*
X139963071Y-113694670D02*
X140071928Y-113749099D01*
X140071928Y-113749099D02*
X140289642Y-113749099D01*
X140289642Y-113749099D02*
X140398500Y-113694670D01*
X140398500Y-113694670D02*
X140452928Y-113640241D01*
X140452928Y-113640241D02*
X140507357Y-113531384D01*
X146703142Y-65797527D02*
X146703142Y-66722813D01*
X146703142Y-66722813D02*
X146757571Y-66831670D01*
X146757571Y-66831670D02*
X146812000Y-66886099D01*
X146812000Y-66886099D02*
X146920857Y-66940527D01*
X146920857Y-66940527D02*
X147138571Y-66940527D01*
X147138571Y-66940527D02*
X147247428Y-66886099D01*
X147247428Y-66886099D02*
X147301857Y-66831670D01*
X147301857Y-66831670D02*
X147356285Y-66722813D01*
X147356285Y-66722813D02*
X147356285Y-65797527D01*
X148499286Y-66940527D02*
X147846143Y-66940527D01*
X148172714Y-66940527D02*
X148172714Y-65797527D01*
X148172714Y-65797527D02*
X148063857Y-65960813D01*
X148063857Y-65960813D02*
X147955000Y-66069670D01*
X147955000Y-66069670D02*
X147846143Y-66124099D01*
X141115142Y-80656527D02*
X141115142Y-81581813D01*
X141115142Y-81581813D02*
X141169571Y-81690670D01*
X141169571Y-81690670D02*
X141224000Y-81745099D01*
X141224000Y-81745099D02*
X141332857Y-81799527D01*
X141332857Y-81799527D02*
X141550571Y-81799527D01*
X141550571Y-81799527D02*
X141659428Y-81745099D01*
X141659428Y-81745099D02*
X141713857Y-81690670D01*
X141713857Y-81690670D02*
X141768285Y-81581813D01*
X141768285Y-81581813D02*
X141768285Y-80656527D01*
X142802429Y-80656527D02*
X142584714Y-80656527D01*
X142584714Y-80656527D02*
X142475857Y-80710956D01*
X142475857Y-80710956D02*
X142421429Y-80765384D01*
X142421429Y-80765384D02*
X142312571Y-80928670D01*
X142312571Y-80928670D02*
X142258143Y-81146384D01*
X142258143Y-81146384D02*
X142258143Y-81581813D01*
X142258143Y-81581813D02*
X142312571Y-81690670D01*
X142312571Y-81690670D02*
X142367000Y-81745099D01*
X142367000Y-81745099D02*
X142475857Y-81799527D01*
X142475857Y-81799527D02*
X142693571Y-81799527D01*
X142693571Y-81799527D02*
X142802429Y-81745099D01*
X142802429Y-81745099D02*
X142856857Y-81690670D01*
X142856857Y-81690670D02*
X142911286Y-81581813D01*
X142911286Y-81581813D02*
X142911286Y-81309670D01*
X142911286Y-81309670D02*
X142856857Y-81200813D01*
X142856857Y-81200813D02*
X142802429Y-81146384D01*
X142802429Y-81146384D02*
X142693571Y-81091956D01*
X142693571Y-81091956D02*
X142475857Y-81091956D01*
X142475857Y-81091956D02*
X142367000Y-81146384D01*
X142367000Y-81146384D02*
X142312571Y-81200813D01*
X142312571Y-81200813D02*
X142258143Y-81309670D01*
X134395670Y-84808785D02*
X134450099Y-84863213D01*
X134450099Y-84863213D02*
X134504527Y-85026499D01*
X134504527Y-85026499D02*
X134504527Y-85135356D01*
X134504527Y-85135356D02*
X134450099Y-85298642D01*
X134450099Y-85298642D02*
X134341241Y-85407499D01*
X134341241Y-85407499D02*
X134232384Y-85461928D01*
X134232384Y-85461928D02*
X134014670Y-85516356D01*
X134014670Y-85516356D02*
X133851384Y-85516356D01*
X133851384Y-85516356D02*
X133633670Y-85461928D01*
X133633670Y-85461928D02*
X133524813Y-85407499D01*
X133524813Y-85407499D02*
X133415956Y-85298642D01*
X133415956Y-85298642D02*
X133361527Y-85135356D01*
X133361527Y-85135356D02*
X133361527Y-85026499D01*
X133361527Y-85026499D02*
X133415956Y-84863213D01*
X133415956Y-84863213D02*
X133470384Y-84808785D01*
X134504527Y-83720213D02*
X134504527Y-84373356D01*
X134504527Y-84046785D02*
X133361527Y-84046785D01*
X133361527Y-84046785D02*
X133524813Y-84155642D01*
X133524813Y-84155642D02*
X133633670Y-84264499D01*
X133633670Y-84264499D02*
X133688099Y-84373356D01*
X133361527Y-83012642D02*
X133361527Y-82903785D01*
X133361527Y-82903785D02*
X133415956Y-82794928D01*
X133415956Y-82794928D02*
X133470384Y-82740500D01*
X133470384Y-82740500D02*
X133579241Y-82686071D01*
X133579241Y-82686071D02*
X133796956Y-82631642D01*
X133796956Y-82631642D02*
X134069099Y-82631642D01*
X134069099Y-82631642D02*
X134286813Y-82686071D01*
X134286813Y-82686071D02*
X134395670Y-82740500D01*
X134395670Y-82740500D02*
X134450099Y-82794928D01*
X134450099Y-82794928D02*
X134504527Y-82903785D01*
X134504527Y-82903785D02*
X134504527Y-83012642D01*
X134504527Y-83012642D02*
X134450099Y-83121500D01*
X134450099Y-83121500D02*
X134395670Y-83175928D01*
X134395670Y-83175928D02*
X134286813Y-83230357D01*
X134286813Y-83230357D02*
X134069099Y-83284785D01*
X134069099Y-83284785D02*
X133796956Y-83284785D01*
X133796956Y-83284785D02*
X133579241Y-83230357D01*
X133579241Y-83230357D02*
X133470384Y-83175928D01*
X133470384Y-83175928D02*
X133415956Y-83121500D01*
X133415956Y-83121500D02*
X133361527Y-83012642D01*
X146875500Y-70514670D02*
X146821072Y-70569099D01*
X146821072Y-70569099D02*
X146657786Y-70623527D01*
X146657786Y-70623527D02*
X146548929Y-70623527D01*
X146548929Y-70623527D02*
X146385643Y-70569099D01*
X146385643Y-70569099D02*
X146276786Y-70460241D01*
X146276786Y-70460241D02*
X146222357Y-70351384D01*
X146222357Y-70351384D02*
X146167929Y-70133670D01*
X146167929Y-70133670D02*
X146167929Y-69970384D01*
X146167929Y-69970384D02*
X146222357Y-69752670D01*
X146222357Y-69752670D02*
X146276786Y-69643813D01*
X146276786Y-69643813D02*
X146385643Y-69534956D01*
X146385643Y-69534956D02*
X146548929Y-69480527D01*
X146548929Y-69480527D02*
X146657786Y-69480527D01*
X146657786Y-69480527D02*
X146821072Y-69534956D01*
X146821072Y-69534956D02*
X146875500Y-69589384D01*
X147964072Y-70623527D02*
X147310929Y-70623527D01*
X147637500Y-70623527D02*
X147637500Y-69480527D01*
X147637500Y-69480527D02*
X147528643Y-69643813D01*
X147528643Y-69643813D02*
X147419786Y-69752670D01*
X147419786Y-69752670D02*
X147310929Y-69807099D01*
X175151142Y-92957384D02*
X175042285Y-92902956D01*
X175042285Y-92902956D02*
X174933428Y-92794099D01*
X174933428Y-92794099D02*
X174770142Y-92630813D01*
X174770142Y-92630813D02*
X174661285Y-92576384D01*
X174661285Y-92576384D02*
X174552428Y-92576384D01*
X174606857Y-92848527D02*
X174498000Y-92794099D01*
X174498000Y-92794099D02*
X174389142Y-92685241D01*
X174389142Y-92685241D02*
X174334714Y-92467527D01*
X174334714Y-92467527D02*
X174334714Y-92086527D01*
X174334714Y-92086527D02*
X174389142Y-91868813D01*
X174389142Y-91868813D02*
X174498000Y-91759956D01*
X174498000Y-91759956D02*
X174606857Y-91705527D01*
X174606857Y-91705527D02*
X174824571Y-91705527D01*
X174824571Y-91705527D02*
X174933428Y-91759956D01*
X174933428Y-91759956D02*
X175042285Y-91868813D01*
X175042285Y-91868813D02*
X175096714Y-92086527D01*
X175096714Y-92086527D02*
X175096714Y-92467527D01*
X175096714Y-92467527D02*
X175042285Y-92685241D01*
X175042285Y-92685241D02*
X174933428Y-92794099D01*
X174933428Y-92794099D02*
X174824571Y-92848527D01*
X174824571Y-92848527D02*
X174606857Y-92848527D01*
X176076429Y-91705527D02*
X175858714Y-91705527D01*
X175858714Y-91705527D02*
X175749857Y-91759956D01*
X175749857Y-91759956D02*
X175695429Y-91814384D01*
X175695429Y-91814384D02*
X175586571Y-91977670D01*
X175586571Y-91977670D02*
X175532143Y-92195384D01*
X175532143Y-92195384D02*
X175532143Y-92630813D01*
X175532143Y-92630813D02*
X175586571Y-92739670D01*
X175586571Y-92739670D02*
X175641000Y-92794099D01*
X175641000Y-92794099D02*
X175749857Y-92848527D01*
X175749857Y-92848527D02*
X175967571Y-92848527D01*
X175967571Y-92848527D02*
X176076429Y-92794099D01*
X176076429Y-92794099D02*
X176130857Y-92739670D01*
X176130857Y-92739670D02*
X176185286Y-92630813D01*
X176185286Y-92630813D02*
X176185286Y-92358670D01*
X176185286Y-92358670D02*
X176130857Y-92249813D01*
X176130857Y-92249813D02*
X176076429Y-92195384D01*
X176076429Y-92195384D02*
X175967571Y-92140956D01*
X175967571Y-92140956D02*
X175749857Y-92140956D01*
X175749857Y-92140956D02*
X175641000Y-92195384D01*
X175641000Y-92195384D02*
X175586571Y-92249813D01*
X175586571Y-92249813D02*
X175532143Y-92358670D01*
D11*
X150963333Y-61192580D02*
X150915714Y-61240200D01*
X150915714Y-61240200D02*
X150772857Y-61287819D01*
X150772857Y-61287819D02*
X150677619Y-61287819D01*
X150677619Y-61287819D02*
X150534762Y-61240200D01*
X150534762Y-61240200D02*
X150439524Y-61144961D01*
X150439524Y-61144961D02*
X150391905Y-61049723D01*
X150391905Y-61049723D02*
X150344286Y-60859247D01*
X150344286Y-60859247D02*
X150344286Y-60716390D01*
X150344286Y-60716390D02*
X150391905Y-60525914D01*
X150391905Y-60525914D02*
X150439524Y-60430676D01*
X150439524Y-60430676D02*
X150534762Y-60335438D01*
X150534762Y-60335438D02*
X150677619Y-60287819D01*
X150677619Y-60287819D02*
X150772857Y-60287819D01*
X150772857Y-60287819D02*
X150915714Y-60335438D01*
X150915714Y-60335438D02*
X150963333Y-60383057D01*
X151344286Y-60383057D02*
X151391905Y-60335438D01*
X151391905Y-60335438D02*
X151487143Y-60287819D01*
X151487143Y-60287819D02*
X151725238Y-60287819D01*
X151725238Y-60287819D02*
X151820476Y-60335438D01*
X151820476Y-60335438D02*
X151868095Y-60383057D01*
X151868095Y-60383057D02*
X151915714Y-60478295D01*
X151915714Y-60478295D02*
X151915714Y-60573533D01*
X151915714Y-60573533D02*
X151868095Y-60716390D01*
X151868095Y-60716390D02*
X151296667Y-61287819D01*
X151296667Y-61287819D02*
X151915714Y-61287819D01*
D10*
X154205214Y-124108670D02*
X154150786Y-124163099D01*
X154150786Y-124163099D02*
X153987500Y-124217527D01*
X153987500Y-124217527D02*
X153878643Y-124217527D01*
X153878643Y-124217527D02*
X153715357Y-124163099D01*
X153715357Y-124163099D02*
X153606500Y-124054241D01*
X153606500Y-124054241D02*
X153552071Y-123945384D01*
X153552071Y-123945384D02*
X153497643Y-123727670D01*
X153497643Y-123727670D02*
X153497643Y-123564384D01*
X153497643Y-123564384D02*
X153552071Y-123346670D01*
X153552071Y-123346670D02*
X153606500Y-123237813D01*
X153606500Y-123237813D02*
X153715357Y-123128956D01*
X153715357Y-123128956D02*
X153878643Y-123074527D01*
X153878643Y-123074527D02*
X153987500Y-123074527D01*
X153987500Y-123074527D02*
X154150786Y-123128956D01*
X154150786Y-123128956D02*
X154205214Y-123183384D01*
X154640643Y-123183384D02*
X154695071Y-123128956D01*
X154695071Y-123128956D02*
X154803929Y-123074527D01*
X154803929Y-123074527D02*
X155076071Y-123074527D01*
X155076071Y-123074527D02*
X155184929Y-123128956D01*
X155184929Y-123128956D02*
X155239357Y-123183384D01*
X155239357Y-123183384D02*
X155293786Y-123292241D01*
X155293786Y-123292241D02*
X155293786Y-123401099D01*
X155293786Y-123401099D02*
X155239357Y-123564384D01*
X155239357Y-123564384D02*
X154586214Y-124217527D01*
X154586214Y-124217527D02*
X155293786Y-124217527D01*
X155729214Y-123183384D02*
X155783642Y-123128956D01*
X155783642Y-123128956D02*
X155892500Y-123074527D01*
X155892500Y-123074527D02*
X156164642Y-123074527D01*
X156164642Y-123074527D02*
X156273500Y-123128956D01*
X156273500Y-123128956D02*
X156327928Y-123183384D01*
X156327928Y-123183384D02*
X156382357Y-123292241D01*
X156382357Y-123292241D02*
X156382357Y-123401099D01*
X156382357Y-123401099D02*
X156327928Y-123564384D01*
X156327928Y-123564384D02*
X155674785Y-124217527D01*
X155674785Y-124217527D02*
X156382357Y-124217527D01*
X180911500Y-83069527D02*
X180530500Y-82525241D01*
X180258357Y-83069527D02*
X180258357Y-81926527D01*
X180258357Y-81926527D02*
X180693786Y-81926527D01*
X180693786Y-81926527D02*
X180802643Y-81980956D01*
X180802643Y-81980956D02*
X180857072Y-82035384D01*
X180857072Y-82035384D02*
X180911500Y-82144241D01*
X180911500Y-82144241D02*
X180911500Y-82307527D01*
X180911500Y-82307527D02*
X180857072Y-82416384D01*
X180857072Y-82416384D02*
X180802643Y-82470813D01*
X180802643Y-82470813D02*
X180693786Y-82525241D01*
X180693786Y-82525241D02*
X180258357Y-82525241D01*
X181455786Y-83069527D02*
X181673500Y-83069527D01*
X181673500Y-83069527D02*
X181782357Y-83015099D01*
X181782357Y-83015099D02*
X181836786Y-82960670D01*
X181836786Y-82960670D02*
X181945643Y-82797384D01*
X181945643Y-82797384D02*
X182000072Y-82579670D01*
X182000072Y-82579670D02*
X182000072Y-82144241D01*
X182000072Y-82144241D02*
X181945643Y-82035384D01*
X181945643Y-82035384D02*
X181891215Y-81980956D01*
X181891215Y-81980956D02*
X181782357Y-81926527D01*
X181782357Y-81926527D02*
X181564643Y-81926527D01*
X181564643Y-81926527D02*
X181455786Y-81980956D01*
X181455786Y-81980956D02*
X181401357Y-82035384D01*
X181401357Y-82035384D02*
X181346929Y-82144241D01*
X181346929Y-82144241D02*
X181346929Y-82416384D01*
X181346929Y-82416384D02*
X181401357Y-82525241D01*
X181401357Y-82525241D02*
X181455786Y-82579670D01*
X181455786Y-82579670D02*
X181564643Y-82634099D01*
X181564643Y-82634099D02*
X181782357Y-82634099D01*
X181782357Y-82634099D02*
X181891215Y-82579670D01*
X181891215Y-82579670D02*
X181945643Y-82525241D01*
X181945643Y-82525241D02*
X182000072Y-82416384D01*
X157035500Y-59465670D02*
X156981072Y-59520099D01*
X156981072Y-59520099D02*
X156817786Y-59574527D01*
X156817786Y-59574527D02*
X156708929Y-59574527D01*
X156708929Y-59574527D02*
X156545643Y-59520099D01*
X156545643Y-59520099D02*
X156436786Y-59411241D01*
X156436786Y-59411241D02*
X156382357Y-59302384D01*
X156382357Y-59302384D02*
X156327929Y-59084670D01*
X156327929Y-59084670D02*
X156327929Y-58921384D01*
X156327929Y-58921384D02*
X156382357Y-58703670D01*
X156382357Y-58703670D02*
X156436786Y-58594813D01*
X156436786Y-58594813D02*
X156545643Y-58485956D01*
X156545643Y-58485956D02*
X156708929Y-58431527D01*
X156708929Y-58431527D02*
X156817786Y-58431527D01*
X156817786Y-58431527D02*
X156981072Y-58485956D01*
X156981072Y-58485956D02*
X157035500Y-58540384D01*
X157579786Y-59574527D02*
X157797500Y-59574527D01*
X157797500Y-59574527D02*
X157906357Y-59520099D01*
X157906357Y-59520099D02*
X157960786Y-59465670D01*
X157960786Y-59465670D02*
X158069643Y-59302384D01*
X158069643Y-59302384D02*
X158124072Y-59084670D01*
X158124072Y-59084670D02*
X158124072Y-58649241D01*
X158124072Y-58649241D02*
X158069643Y-58540384D01*
X158069643Y-58540384D02*
X158015215Y-58485956D01*
X158015215Y-58485956D02*
X157906357Y-58431527D01*
X157906357Y-58431527D02*
X157688643Y-58431527D01*
X157688643Y-58431527D02*
X157579786Y-58485956D01*
X157579786Y-58485956D02*
X157525357Y-58540384D01*
X157525357Y-58540384D02*
X157470929Y-58649241D01*
X157470929Y-58649241D02*
X157470929Y-58921384D01*
X157470929Y-58921384D02*
X157525357Y-59030241D01*
X157525357Y-59030241D02*
X157579786Y-59084670D01*
X157579786Y-59084670D02*
X157688643Y-59139099D01*
X157688643Y-59139099D02*
X157906357Y-59139099D01*
X157906357Y-59139099D02*
X158015215Y-59084670D01*
X158015215Y-59084670D02*
X158069643Y-59030241D01*
X158069643Y-59030241D02*
X158124072Y-58921384D01*
X153570214Y-130839670D02*
X153515786Y-130894099D01*
X153515786Y-130894099D02*
X153352500Y-130948527D01*
X153352500Y-130948527D02*
X153243643Y-130948527D01*
X153243643Y-130948527D02*
X153080357Y-130894099D01*
X153080357Y-130894099D02*
X152971500Y-130785241D01*
X152971500Y-130785241D02*
X152917071Y-130676384D01*
X152917071Y-130676384D02*
X152862643Y-130458670D01*
X152862643Y-130458670D02*
X152862643Y-130295384D01*
X152862643Y-130295384D02*
X152917071Y-130077670D01*
X152917071Y-130077670D02*
X152971500Y-129968813D01*
X152971500Y-129968813D02*
X153080357Y-129859956D01*
X153080357Y-129859956D02*
X153243643Y-129805527D01*
X153243643Y-129805527D02*
X153352500Y-129805527D01*
X153352500Y-129805527D02*
X153515786Y-129859956D01*
X153515786Y-129859956D02*
X153570214Y-129914384D01*
X154005643Y-129914384D02*
X154060071Y-129859956D01*
X154060071Y-129859956D02*
X154168929Y-129805527D01*
X154168929Y-129805527D02*
X154441071Y-129805527D01*
X154441071Y-129805527D02*
X154549929Y-129859956D01*
X154549929Y-129859956D02*
X154604357Y-129914384D01*
X154604357Y-129914384D02*
X154658786Y-130023241D01*
X154658786Y-130023241D02*
X154658786Y-130132099D01*
X154658786Y-130132099D02*
X154604357Y-130295384D01*
X154604357Y-130295384D02*
X153951214Y-130948527D01*
X153951214Y-130948527D02*
X154658786Y-130948527D01*
X155039785Y-129805527D02*
X155801785Y-129805527D01*
X155801785Y-129805527D02*
X155311928Y-130948527D01*
X163594142Y-92957384D02*
X163485285Y-92902956D01*
X163485285Y-92902956D02*
X163376428Y-92794099D01*
X163376428Y-92794099D02*
X163213142Y-92630813D01*
X163213142Y-92630813D02*
X163104285Y-92576384D01*
X163104285Y-92576384D02*
X162995428Y-92576384D01*
X163049857Y-92848527D02*
X162941000Y-92794099D01*
X162941000Y-92794099D02*
X162832142Y-92685241D01*
X162832142Y-92685241D02*
X162777714Y-92467527D01*
X162777714Y-92467527D02*
X162777714Y-92086527D01*
X162777714Y-92086527D02*
X162832142Y-91868813D01*
X162832142Y-91868813D02*
X162941000Y-91759956D01*
X162941000Y-91759956D02*
X163049857Y-91705527D01*
X163049857Y-91705527D02*
X163267571Y-91705527D01*
X163267571Y-91705527D02*
X163376428Y-91759956D01*
X163376428Y-91759956D02*
X163485285Y-91868813D01*
X163485285Y-91868813D02*
X163539714Y-92086527D01*
X163539714Y-92086527D02*
X163539714Y-92467527D01*
X163539714Y-92467527D02*
X163485285Y-92685241D01*
X163485285Y-92685241D02*
X163376428Y-92794099D01*
X163376428Y-92794099D02*
X163267571Y-92848527D01*
X163267571Y-92848527D02*
X163049857Y-92848527D01*
X164519429Y-92086527D02*
X164519429Y-92848527D01*
X164247286Y-91651099D02*
X163975143Y-92467527D01*
X163975143Y-92467527D02*
X164682714Y-92467527D01*
X140924643Y-95007527D02*
X141577786Y-95007527D01*
X141251214Y-96150527D02*
X141251214Y-95007527D01*
X141958785Y-96150527D02*
X141958785Y-95007527D01*
X141958785Y-95007527D02*
X142394214Y-95007527D01*
X142394214Y-95007527D02*
X142503071Y-95061956D01*
X142503071Y-95061956D02*
X142557500Y-95116384D01*
X142557500Y-95116384D02*
X142611928Y-95225241D01*
X142611928Y-95225241D02*
X142611928Y-95388527D01*
X142611928Y-95388527D02*
X142557500Y-95497384D01*
X142557500Y-95497384D02*
X142503071Y-95551813D01*
X142503071Y-95551813D02*
X142394214Y-95606241D01*
X142394214Y-95606241D02*
X141958785Y-95606241D01*
X142992928Y-95007527D02*
X143700500Y-95007527D01*
X143700500Y-95007527D02*
X143319500Y-95442956D01*
X143319500Y-95442956D02*
X143482785Y-95442956D01*
X143482785Y-95442956D02*
X143591643Y-95497384D01*
X143591643Y-95497384D02*
X143646071Y-95551813D01*
X143646071Y-95551813D02*
X143700500Y-95660670D01*
X143700500Y-95660670D02*
X143700500Y-95932813D01*
X143700500Y-95932813D02*
X143646071Y-96041670D01*
X143646071Y-96041670D02*
X143591643Y-96096099D01*
X143591643Y-96096099D02*
X143482785Y-96150527D01*
X143482785Y-96150527D02*
X143156214Y-96150527D01*
X143156214Y-96150527D02*
X143047357Y-96096099D01*
X143047357Y-96096099D02*
X142992928Y-96041670D01*
X153370643Y-95515527D02*
X154023786Y-95515527D01*
X153697214Y-96658527D02*
X153697214Y-95515527D01*
X154404785Y-96658527D02*
X154404785Y-95515527D01*
X154404785Y-95515527D02*
X154840214Y-95515527D01*
X154840214Y-95515527D02*
X154949071Y-95569956D01*
X154949071Y-95569956D02*
X155003500Y-95624384D01*
X155003500Y-95624384D02*
X155057928Y-95733241D01*
X155057928Y-95733241D02*
X155057928Y-95896527D01*
X155057928Y-95896527D02*
X155003500Y-96005384D01*
X155003500Y-96005384D02*
X154949071Y-96059813D01*
X154949071Y-96059813D02*
X154840214Y-96114241D01*
X154840214Y-96114241D02*
X154404785Y-96114241D01*
X156037643Y-95896527D02*
X156037643Y-96658527D01*
X155765500Y-95461099D02*
X155493357Y-96277527D01*
X155493357Y-96277527D02*
X156200928Y-96277527D01*
X166845670Y-84264499D02*
X166900099Y-84318927D01*
X166900099Y-84318927D02*
X166954527Y-84482213D01*
X166954527Y-84482213D02*
X166954527Y-84591070D01*
X166954527Y-84591070D02*
X166900099Y-84754356D01*
X166900099Y-84754356D02*
X166791241Y-84863213D01*
X166791241Y-84863213D02*
X166682384Y-84917642D01*
X166682384Y-84917642D02*
X166464670Y-84972070D01*
X166464670Y-84972070D02*
X166301384Y-84972070D01*
X166301384Y-84972070D02*
X166083670Y-84917642D01*
X166083670Y-84917642D02*
X165974813Y-84863213D01*
X165974813Y-84863213D02*
X165865956Y-84754356D01*
X165865956Y-84754356D02*
X165811527Y-84591070D01*
X165811527Y-84591070D02*
X165811527Y-84482213D01*
X165811527Y-84482213D02*
X165865956Y-84318927D01*
X165865956Y-84318927D02*
X165920384Y-84264499D01*
X165811527Y-83883499D02*
X165811527Y-83121499D01*
X165811527Y-83121499D02*
X166954527Y-83611356D01*
X175271527Y-134574642D02*
X174128527Y-134574642D01*
X174128527Y-134574642D02*
X174128527Y-134302499D01*
X174128527Y-134302499D02*
X174182956Y-134139213D01*
X174182956Y-134139213D02*
X174291813Y-134030356D01*
X174291813Y-134030356D02*
X174400670Y-133975927D01*
X174400670Y-133975927D02*
X174618384Y-133921499D01*
X174618384Y-133921499D02*
X174781670Y-133921499D01*
X174781670Y-133921499D02*
X174999384Y-133975927D01*
X174999384Y-133975927D02*
X175108241Y-134030356D01*
X175108241Y-134030356D02*
X175217099Y-134139213D01*
X175217099Y-134139213D02*
X175271527Y-134302499D01*
X175271527Y-134302499D02*
X175271527Y-134574642D01*
X174509527Y-132941785D02*
X175271527Y-132941785D01*
X174074099Y-133213927D02*
X174890527Y-133486070D01*
X174890527Y-133486070D02*
X174890527Y-132778499D01*
X156856527Y-69532499D02*
X156312241Y-69913499D01*
X156856527Y-70185642D02*
X155713527Y-70185642D01*
X155713527Y-70185642D02*
X155713527Y-69750213D01*
X155713527Y-69750213D02*
X155767956Y-69641356D01*
X155767956Y-69641356D02*
X155822384Y-69586927D01*
X155822384Y-69586927D02*
X155931241Y-69532499D01*
X155931241Y-69532499D02*
X156094527Y-69532499D01*
X156094527Y-69532499D02*
X156203384Y-69586927D01*
X156203384Y-69586927D02*
X156257813Y-69641356D01*
X156257813Y-69641356D02*
X156312241Y-69750213D01*
X156312241Y-69750213D02*
X156312241Y-70185642D01*
X156856527Y-68443927D02*
X156856527Y-69097070D01*
X156856527Y-68770499D02*
X155713527Y-68770499D01*
X155713527Y-68770499D02*
X155876813Y-68879356D01*
X155876813Y-68879356D02*
X155985670Y-68988213D01*
X155985670Y-68988213D02*
X156040099Y-69097070D01*
X161555527Y-69405499D02*
X161011241Y-69786499D01*
X161555527Y-70058642D02*
X160412527Y-70058642D01*
X160412527Y-70058642D02*
X160412527Y-69623213D01*
X160412527Y-69623213D02*
X160466956Y-69514356D01*
X160466956Y-69514356D02*
X160521384Y-69459927D01*
X160521384Y-69459927D02*
X160630241Y-69405499D01*
X160630241Y-69405499D02*
X160793527Y-69405499D01*
X160793527Y-69405499D02*
X160902384Y-69459927D01*
X160902384Y-69459927D02*
X160956813Y-69514356D01*
X160956813Y-69514356D02*
X161011241Y-69623213D01*
X161011241Y-69623213D02*
X161011241Y-70058642D01*
X160521384Y-68970070D02*
X160466956Y-68915642D01*
X160466956Y-68915642D02*
X160412527Y-68806785D01*
X160412527Y-68806785D02*
X160412527Y-68534642D01*
X160412527Y-68534642D02*
X160466956Y-68425785D01*
X160466956Y-68425785D02*
X160521384Y-68371356D01*
X160521384Y-68371356D02*
X160630241Y-68316927D01*
X160630241Y-68316927D02*
X160739099Y-68316927D01*
X160739099Y-68316927D02*
X160902384Y-68371356D01*
X160902384Y-68371356D02*
X161555527Y-69024499D01*
X161555527Y-69024499D02*
X161555527Y-68316927D01*
D12*
%TO.C,L1*%
X151690000Y-89908748D02*
X151690000Y-90431252D01*
X153110000Y-89908748D02*
X153110000Y-90431252D01*
%TO.C,U4*%
X157706000Y-60813000D02*
X161826000Y-60813000D01*
X157706000Y-60908000D02*
X157706000Y-60813000D01*
X157706000Y-65933000D02*
X157706000Y-65838000D01*
X161826000Y-60813000D02*
X161826000Y-60908000D01*
X161826000Y-65838000D02*
X161826000Y-65933000D01*
X161826000Y-65933000D02*
X157706000Y-65933000D01*
X162606000Y-66173000D02*
X162126000Y-66173000D01*
X162366000Y-65843000D01*
X162606000Y-66173000D01*
G36*
X162606000Y-66173000D02*
G01*
X162126000Y-66173000D01*
X162366000Y-65843000D01*
X162606000Y-66173000D01*
G37*
%TO.C,Q7*%
X177420000Y-88685000D02*
X177420000Y-90485000D01*
X177420000Y-90485000D02*
X178470000Y-90485000D01*
X180720000Y-88625000D02*
X180720000Y-90485000D01*
X180720000Y-90485000D02*
X179670000Y-90485000D01*
X181011676Y-88415000D02*
X180681676Y-88175000D01*
X181011676Y-87935000D01*
X181011676Y-88415000D01*
G36*
X181011676Y-88415000D02*
G01*
X180681676Y-88175000D01*
X181011676Y-87935000D01*
X181011676Y-88415000D01*
G37*
%TO.C,C25*%
X131071252Y-128805000D02*
X130548748Y-128805000D01*
X131071252Y-130275000D02*
X130548748Y-130275000D01*
%TO.C,R12*%
X139726936Y-102008000D02*
X140181064Y-102008000D01*
X139726936Y-103478000D02*
X140181064Y-103478000D01*
%TO.C,U8*%
X172720000Y-111105000D02*
X170770000Y-111105000D01*
X172720000Y-111105000D02*
X174670000Y-111105000D01*
X172720000Y-116225000D02*
X170770000Y-116225000D01*
X172720000Y-116225000D02*
X174670000Y-116225000D01*
X170020000Y-111200000D02*
X169780000Y-110870000D01*
X170260000Y-110870000D01*
X170020000Y-111200000D01*
G36*
X170020000Y-111200000D02*
G01*
X169780000Y-110870000D01*
X170260000Y-110870000D01*
X170020000Y-111200000D01*
G37*
%TO.C,J3*%
X114310000Y-87200000D02*
X120310000Y-87200000D01*
X114310000Y-88060000D02*
X114310000Y-87200000D01*
X114310000Y-89740000D02*
X120310000Y-89740000D01*
X114310000Y-90600000D02*
X114310000Y-89740000D01*
X114310000Y-92280000D02*
X120310000Y-92280000D01*
X114310000Y-93140000D02*
X114310000Y-92280000D01*
X114310000Y-94820000D02*
X120310000Y-94820000D01*
X114310000Y-95680000D02*
X114310000Y-94820000D01*
X114310000Y-97360000D02*
X120310000Y-97360000D01*
X114310000Y-98220000D02*
X114310000Y-97360000D01*
X120310000Y-86250000D02*
X120310000Y-101710000D01*
X120310000Y-88060000D02*
X114310000Y-88060000D01*
X120310000Y-90600000D02*
X114310000Y-90600000D01*
X120310000Y-93140000D02*
X114310000Y-93140000D01*
X120310000Y-95680000D02*
X114310000Y-95680000D01*
X120310000Y-98220000D02*
X114310000Y-98220000D01*
X120310000Y-101710000D02*
X123070000Y-101710000D01*
X123070000Y-86250000D02*
X120310000Y-86250000D01*
X123070000Y-88900000D02*
X120310000Y-88900000D01*
X123070000Y-91440000D02*
X120310000Y-91440000D01*
X123070000Y-93980000D02*
X120310000Y-93980000D01*
X123070000Y-96520000D02*
X120310000Y-96520000D01*
X123070000Y-99060000D02*
X120310000Y-99060000D01*
X123070000Y-101710000D02*
X123070000Y-86250000D01*
X123300000Y-99900000D02*
X123070000Y-99900000D01*
X123300000Y-100760000D02*
X123070000Y-100760000D01*
X123382642Y-87200000D02*
X123070000Y-87200000D01*
X123382642Y-88060000D02*
X123070000Y-88060000D01*
X123382642Y-89740000D02*
X123070000Y-89740000D01*
X123382642Y-90600000D02*
X123070000Y-90600000D01*
X123382642Y-92280000D02*
X123070000Y-92280000D01*
X123382642Y-93140000D02*
X123070000Y-93140000D01*
X123382642Y-94820000D02*
X123070000Y-94820000D01*
X123382642Y-95680000D02*
X123070000Y-95680000D01*
X123382642Y-97360000D02*
X123070000Y-97360000D01*
X123382642Y-98220000D02*
X123070000Y-98220000D01*
X125730000Y-100330000D02*
X125730000Y-101600000D01*
X125730000Y-101600000D02*
X124460000Y-101600000D01*
X120310000Y-100760000D02*
X114310000Y-100760000D01*
X114310000Y-99900000D01*
X120310000Y-99900000D01*
X120310000Y-100760000D01*
G36*
X120310000Y-100760000D02*
G01*
X114310000Y-100760000D01*
X114310000Y-99900000D01*
X120310000Y-99900000D01*
X120310000Y-100760000D01*
G37*
%TO.C,Q2*%
X154560000Y-88685000D02*
X154560000Y-90485000D01*
X154560000Y-90485000D02*
X155610000Y-90485000D01*
X157860000Y-88625000D02*
X157860000Y-90485000D01*
X157860000Y-90485000D02*
X156810000Y-90485000D01*
X158151676Y-88415000D02*
X157821676Y-88175000D01*
X158151676Y-87935000D01*
X158151676Y-88415000D01*
G36*
X158151676Y-88415000D02*
G01*
X157821676Y-88175000D01*
X158151676Y-87935000D01*
X158151676Y-88415000D01*
G37*
%TO.C,R14*%
X146585000Y-129497064D02*
X146585000Y-129042936D01*
X148055000Y-129497064D02*
X148055000Y-129042936D01*
%TO.C,TP6*%
X152973000Y-93091000D02*
G75*
G02*
X151573000Y-93091000I-700000J0D01*
G01*
X151573000Y-93091000D02*
G75*
G02*
X152973000Y-93091000I700000J0D01*
G01*
%TO.C,C5*%
X162652000Y-72255748D02*
X162652000Y-72778252D01*
X164122000Y-72255748D02*
X164122000Y-72778252D01*
%TO.C,Y1*%
X132025000Y-99965000D02*
X132025000Y-103235000D01*
X132025000Y-103235000D02*
X135945000Y-103235000D01*
%TO.C,C23*%
X162298767Y-123188000D02*
X162006233Y-123188000D01*
X162298767Y-124208000D02*
X162006233Y-124208000D01*
%TO.C,U11*%
X163885000Y-128910000D02*
X167645000Y-128910000D01*
X163885000Y-135730000D02*
X167645000Y-135730000D01*
X167645000Y-128910000D02*
X167645000Y-130170000D01*
X167645000Y-135730000D02*
X167645000Y-134470000D01*
X162605000Y-129010000D02*
X162365000Y-128680000D01*
X162845000Y-128680000D01*
X162605000Y-129010000D01*
G36*
X162605000Y-129010000D02*
G01*
X162365000Y-128680000D01*
X162845000Y-128680000D01*
X162605000Y-129010000D01*
G37*
%TO.C,C26*%
X154967000Y-126209248D02*
X154967000Y-126731752D01*
X156437000Y-126209248D02*
X156437000Y-126731752D01*
%TO.C,TP1*%
X127192000Y-77597000D02*
G75*
G02*
X125792000Y-77597000I-700000J0D01*
G01*
X125792000Y-77597000D02*
G75*
G02*
X127192000Y-77597000I700000J0D01*
G01*
%TO.C,C18*%
X179041248Y-108485000D02*
X179563752Y-108485000D01*
X179041248Y-109955000D02*
X179563752Y-109955000D01*
%TO.C,U7*%
X146892500Y-112980000D02*
X147137500Y-112980000D01*
X146892500Y-116840000D02*
X146892500Y-112980000D01*
X146892500Y-116840000D02*
X146892500Y-120700000D01*
X146892500Y-120700000D02*
X147137500Y-120700000D01*
X165012500Y-112980000D02*
X164767500Y-112980000D01*
X165012500Y-116840000D02*
X165012500Y-112980000D01*
X165012500Y-116840000D02*
X165012500Y-120700000D01*
X165012500Y-120700000D02*
X164767500Y-120700000D01*
X165237500Y-112467500D02*
X164767500Y-112127500D01*
X165237500Y-111787500D01*
X165237500Y-112467500D01*
G36*
X165237500Y-112467500D02*
G01*
X164767500Y-112127500D01*
X165237500Y-111787500D01*
X165237500Y-112467500D01*
G37*
%TO.C,R15*%
X171940000Y-129467064D02*
X171940000Y-129012936D01*
X173410000Y-129467064D02*
X173410000Y-129012936D01*
%TO.C,J4*%
X116497500Y-110200000D02*
X124537500Y-110200000D01*
X116497500Y-120940000D02*
X116497500Y-110200000D01*
X120117500Y-111008000D02*
X120117500Y-110200000D01*
X120117500Y-115940000D02*
X120117500Y-114632000D01*
X120117500Y-120940000D02*
X120117500Y-119700000D01*
X121117500Y-111008000D02*
X121117500Y-110200000D01*
X121117500Y-115940000D02*
X121117500Y-114632000D01*
X121117500Y-120940000D02*
X121117500Y-119700000D01*
X122417500Y-112277000D02*
X122417500Y-110200000D01*
X122417500Y-115940000D02*
X122417500Y-113363000D01*
X122417500Y-120940000D02*
X122417500Y-119700000D01*
X124537500Y-110200000D02*
X124537500Y-117520000D01*
X124537500Y-118120000D02*
X124537500Y-120940000D01*
X124537500Y-120940000D02*
X116497500Y-120940000D01*
X125147500Y-118260000D02*
X124537500Y-117820000D01*
X125147500Y-117380000D01*
X125147500Y-118260000D01*
G36*
X125147500Y-118260000D02*
G01*
X124537500Y-117820000D01*
X125147500Y-117380000D01*
X125147500Y-118260000D01*
G37*
%TO.C,Q1*%
X158370000Y-88685000D02*
X158370000Y-90485000D01*
X158370000Y-90485000D02*
X159420000Y-90485000D01*
X161670000Y-88625000D02*
X161670000Y-90485000D01*
X161670000Y-90485000D02*
X160620000Y-90485000D01*
X161961676Y-88415000D02*
X161631676Y-88175000D01*
X161961676Y-87935000D01*
X161961676Y-88415000D01*
G36*
X161961676Y-88415000D02*
G01*
X161631676Y-88175000D01*
X161961676Y-87935000D01*
X161961676Y-88415000D01*
G37*
%TO.C,C17*%
X173213752Y-107850000D02*
X172691248Y-107850000D01*
X173213752Y-109320000D02*
X172691248Y-109320000D01*
%TO.C,U9*%
X179302500Y-115915000D02*
X178652500Y-115915000D01*
X179302500Y-115915000D02*
X179952500Y-115915000D01*
X179302500Y-119035000D02*
X178652500Y-119035000D01*
X179302500Y-119035000D02*
X179952500Y-119035000D01*
X180705000Y-119315000D02*
X180225000Y-119315000D01*
X180465000Y-118985000D01*
X180705000Y-119315000D01*
G36*
X180705000Y-119315000D02*
G01*
X180225000Y-119315000D01*
X180465000Y-118985000D01*
X180705000Y-119315000D01*
G37*
%TO.C,Q8*%
X181230000Y-88685000D02*
X181230000Y-90485000D01*
X181230000Y-90485000D02*
X182280000Y-90485000D01*
X184530000Y-88625000D02*
X184530000Y-90485000D01*
X184530000Y-90485000D02*
X183480000Y-90485000D01*
X184821676Y-88415000D02*
X184491676Y-88175000D01*
X184821676Y-87935000D01*
X184821676Y-88415000D01*
G36*
X184821676Y-88415000D02*
G01*
X184491676Y-88175000D01*
X184821676Y-87935000D01*
X184821676Y-88415000D01*
G37*
%TO.C,U10*%
X137240000Y-128670000D02*
X141000000Y-128670000D01*
X137240000Y-135490000D02*
X141000000Y-135490000D01*
X141000000Y-128670000D02*
X141000000Y-129930000D01*
X141000000Y-135490000D02*
X141000000Y-134230000D01*
X135960000Y-128770000D02*
X135720000Y-128440000D01*
X136200000Y-128440000D01*
X135960000Y-128770000D01*
G36*
X135960000Y-128770000D02*
G01*
X135720000Y-128440000D01*
X136200000Y-128440000D01*
X135960000Y-128770000D01*
G37*
%TO.C,Q5*%
X169800000Y-88685000D02*
X169800000Y-90485000D01*
X169800000Y-90485000D02*
X170850000Y-90485000D01*
X173100000Y-88625000D02*
X173100000Y-90485000D01*
X173100000Y-90485000D02*
X172050000Y-90485000D01*
X173391676Y-88415000D02*
X173061676Y-88175000D01*
X173391676Y-87935000D01*
X173391676Y-88415000D01*
G36*
X173391676Y-88415000D02*
G01*
X173061676Y-88175000D01*
X173391676Y-87935000D01*
X173391676Y-88415000D01*
G37*
%TO.C,C14*%
X159111733Y-109345000D02*
X159404267Y-109345000D01*
X159111733Y-110365000D02*
X159404267Y-110365000D01*
%TO.C,U5*%
X158815000Y-75585000D02*
X156865000Y-75585000D01*
X158815000Y-75585000D02*
X160765000Y-75585000D01*
X158815000Y-85705000D02*
X156865000Y-85705000D01*
X158815000Y-85705000D02*
X160765000Y-85705000D01*
X161755000Y-85980000D02*
X161275000Y-85980000D01*
X161515000Y-85650000D01*
X161755000Y-85980000D01*
G36*
X161755000Y-85980000D02*
G01*
X161275000Y-85980000D01*
X161515000Y-85650000D01*
X161755000Y-85980000D01*
G37*
%TO.C,C12*%
X133956248Y-97055000D02*
X134478752Y-97055000D01*
X133956248Y-98525000D02*
X134478752Y-98525000D01*
%TO.C,C30*%
X158376252Y-133885000D02*
X157853748Y-133885000D01*
X158376252Y-135355000D02*
X157853748Y-135355000D01*
%TO.C,R13*%
X179529564Y-113565000D02*
X179075436Y-113565000D01*
X179529564Y-115035000D02*
X179075436Y-115035000D01*
%TO.C,C4*%
X157826000Y-72255748D02*
X157826000Y-72778252D01*
X159296000Y-72255748D02*
X159296000Y-72778252D01*
%TO.C,C24*%
X179563752Y-120550000D02*
X179041248Y-120550000D01*
X179563752Y-122020000D02*
X179041248Y-122020000D01*
%TO.C,C16*%
X162794733Y-109345000D02*
X163087267Y-109345000D01*
X162794733Y-110365000D02*
X163087267Y-110365000D01*
%TO.C,D1*%
X143165000Y-96830000D02*
X143165000Y-98750000D01*
X143165000Y-98750000D02*
X146025000Y-98750000D01*
X146025000Y-96830000D02*
X143165000Y-96830000D01*
%TO.C,TP2*%
X138368000Y-92583000D02*
G75*
G02*
X136968000Y-92583000I-700000J0D01*
G01*
X136968000Y-92583000D02*
G75*
G02*
X138368000Y-92583000I700000J0D01*
G01*
%TO.C,C15*%
X157634000Y-106560252D02*
X157634000Y-106037748D01*
X159104000Y-106560252D02*
X159104000Y-106037748D01*
%TO.C,R5*%
X139473000Y-78221064D02*
X139473000Y-77766936D01*
X140943000Y-78221064D02*
X140943000Y-77766936D01*
%TO.C,D2*%
X142666000Y-101783000D02*
X142666000Y-103703000D01*
X142666000Y-103703000D02*
X145526000Y-103703000D01*
X145526000Y-101783000D02*
X142666000Y-101783000D01*
%TO.C,D3*%
X146360000Y-133015000D02*
X146360000Y-135875000D01*
X146360000Y-135875000D02*
X148280000Y-135875000D01*
X148280000Y-135875000D02*
X148280000Y-133015000D01*
%TO.C,R8*%
X175929564Y-83720000D02*
X175475436Y-83720000D01*
X175929564Y-85190000D02*
X175475436Y-85190000D01*
%TO.C,C20*%
X144025252Y-115470000D02*
X143502748Y-115470000D01*
X144025252Y-116940000D02*
X143502748Y-116940000D01*
%TO.C,J1*%
X109170000Y-68450000D02*
X118290000Y-68450000D01*
X109170000Y-83950000D02*
X109170000Y-68450000D01*
X118290000Y-68450000D02*
X118290000Y-83950000D01*
X118290000Y-74150000D02*
X109170000Y-74150000D01*
X118290000Y-78250000D02*
X109170000Y-78250000D01*
X118290000Y-83950000D02*
X109170000Y-83950000D01*
X123910000Y-78740000D02*
X124910000Y-79240000D01*
X124910000Y-78240000D02*
X123910000Y-78740000D01*
X124910000Y-79240000D02*
X124910000Y-78240000D01*
%TO.C,C28*%
X157507000Y-126209248D02*
X157507000Y-126731752D01*
X158977000Y-126209248D02*
X158977000Y-126731752D01*
%TO.C,C8*%
X149125000Y-85986252D02*
X149125000Y-85463748D01*
X150595000Y-85986252D02*
X150595000Y-85463748D01*
%TO.C,R6*%
X142648000Y-78221064D02*
X142648000Y-77766936D01*
X144118000Y-78221064D02*
X144118000Y-77766936D01*
%TO.C,U3*%
X169356000Y-69830000D02*
X167406000Y-69830000D01*
X169356000Y-69830000D02*
X171306000Y-69830000D01*
X169356000Y-74950000D02*
X167406000Y-74950000D01*
X169356000Y-74950000D02*
X171306000Y-74950000D01*
X166656000Y-69925000D02*
X166416000Y-69595000D01*
X166896000Y-69595000D01*
X166656000Y-69925000D01*
G36*
X166656000Y-69925000D02*
G01*
X166416000Y-69595000D01*
X166896000Y-69595000D01*
X166656000Y-69925000D01*
G37*
%TO.C,Q3*%
X165990000Y-88685000D02*
X165990000Y-90485000D01*
X165990000Y-90485000D02*
X167040000Y-90485000D01*
X169290000Y-88625000D02*
X169290000Y-90485000D01*
X169290000Y-90485000D02*
X168240000Y-90485000D01*
X169581676Y-88415000D02*
X169251676Y-88175000D01*
X169581676Y-87935000D01*
X169581676Y-88415000D01*
G36*
X169581676Y-88415000D02*
G01*
X169251676Y-88175000D01*
X169581676Y-87935000D01*
X169581676Y-88415000D01*
G37*
%TO.C,J2*%
X157120000Y-94620000D02*
X157120000Y-99920000D01*
X175010000Y-94620000D02*
X157120000Y-94620000D01*
X175010000Y-94620000D02*
X175010000Y-97270000D01*
X175010000Y-97270000D02*
X177660000Y-97270000D01*
X176280000Y-94620000D02*
X177660000Y-94620000D01*
X177660000Y-94620000D02*
X177660000Y-96000000D01*
X177660000Y-97270000D02*
X177660000Y-99920000D01*
X177660000Y-99920000D02*
X157120000Y-99920000D01*
%TO.C,R4*%
X131852936Y-76735000D02*
X132307064Y-76735000D01*
X131852936Y-78205000D02*
X132307064Y-78205000D01*
%TO.C,C21*%
X179041248Y-111025000D02*
X179563752Y-111025000D01*
X179041248Y-112495000D02*
X179563752Y-112495000D01*
%TO.C,U2*%
X151322000Y-71592000D02*
X150522000Y-71592000D01*
X151322000Y-71592000D02*
X152122000Y-71592000D01*
X151322000Y-74712000D02*
X150522000Y-74712000D01*
X151322000Y-74712000D02*
X152122000Y-74712000D01*
X150022000Y-71667000D02*
X149782000Y-71337000D01*
X150262000Y-71337000D01*
X150022000Y-71667000D01*
G36*
X150022000Y-71667000D02*
G01*
X149782000Y-71337000D01*
X150262000Y-71337000D01*
X150022000Y-71667000D01*
G37*
%TO.C,TP7*%
X144591000Y-106807000D02*
G75*
G02*
X143191000Y-106807000I-700000J0D01*
G01*
X143191000Y-106807000D02*
G75*
G02*
X144591000Y-106807000I700000J0D01*
G01*
%TO.C,C6*%
X169348748Y-75973000D02*
X169871252Y-75973000D01*
X169348748Y-77443000D02*
X169871252Y-77443000D01*
%TO.C,C11*%
X149125000Y-90423752D02*
X149125000Y-89901248D01*
X150595000Y-90423752D02*
X150595000Y-89901248D01*
%TO.C,C29*%
X131071252Y-133885000D02*
X130548748Y-133885000D01*
X131071252Y-135355000D02*
X130548748Y-135355000D01*
%TO.C,R10*%
X130259064Y-93499000D02*
X129804936Y-93499000D01*
X130259064Y-94969000D02*
X129804936Y-94969000D01*
%TO.C,C3*%
X151583252Y-76227000D02*
X151060748Y-76227000D01*
X151583252Y-77697000D02*
X151060748Y-77697000D01*
%TO.C,R3*%
X165064936Y-75973000D02*
X165519064Y-75973000D01*
X165064936Y-77443000D02*
X165519064Y-77443000D01*
%TO.C,L2*%
X154356748Y-101017000D02*
X154879252Y-101017000D01*
X154356748Y-102437000D02*
X154879252Y-102437000D01*
%TO.C,R11*%
X140352936Y-97085000D02*
X140807064Y-97085000D01*
X140352936Y-98555000D02*
X140807064Y-98555000D01*
%TO.C,R7*%
X169391064Y-66140000D02*
X168936936Y-66140000D01*
X169391064Y-64670000D02*
X168936936Y-64670000D01*
%TO.C,TP5*%
X152973000Y-97790000D02*
G75*
G02*
X151573000Y-97790000I-700000J0D01*
G01*
X151573000Y-97790000D02*
G75*
G02*
X152973000Y-97790000I700000J0D01*
G01*
%TO.C,C13*%
X155348000Y-106560252D02*
X155348000Y-106037748D01*
X156818000Y-106560252D02*
X156818000Y-106037748D01*
%TO.C,C19*%
X144025252Y-112930000D02*
X143502748Y-112930000D01*
X144025252Y-114400000D02*
X143502748Y-114400000D01*
%TO.C,U1*%
X152825500Y-67565000D02*
X152345500Y-67565000D01*
X152585500Y-67235000D01*
X152825500Y-67565000D01*
G36*
X152825500Y-67565000D02*
G01*
X152345500Y-67565000D01*
X152585500Y-67235000D01*
X152825500Y-67565000D01*
G37*
X152045500Y-67285000D02*
X150225500Y-67285000D01*
X152045500Y-67235000D02*
X152045500Y-67285000D01*
X152045500Y-64165000D02*
X152045500Y-64215000D01*
X150225500Y-67285000D02*
X150225500Y-67235000D01*
X150225500Y-66115000D02*
X150225500Y-65335000D01*
X150225500Y-64215000D02*
X150225500Y-64165000D01*
X150225500Y-64165000D02*
X152045500Y-64165000D01*
%TO.C,U6*%
X138630000Y-84020000D02*
X138630000Y-84295000D01*
X138630000Y-91240000D02*
X138630000Y-90965000D01*
X138905000Y-84020000D02*
X138630000Y-84020000D01*
X138905000Y-91240000D02*
X138630000Y-91240000D01*
X145575000Y-84020000D02*
X145850000Y-84020000D01*
X145575000Y-91240000D02*
X145850000Y-91240000D01*
X145850000Y-84020000D02*
X145850000Y-84295000D01*
X145850000Y-91240000D02*
X145850000Y-90965000D01*
X138040000Y-84295000D02*
X137700000Y-83825000D01*
X138380000Y-83825000D01*
X138040000Y-84295000D01*
G36*
X138040000Y-84295000D02*
G01*
X137700000Y-83825000D01*
X138380000Y-83825000D01*
X138040000Y-84295000D01*
G37*
%TO.C,C10*%
X133250000Y-87771248D02*
X133250000Y-88293752D01*
X134720000Y-87771248D02*
X134720000Y-88293752D01*
%TO.C,C1*%
X151623752Y-69242000D02*
X151101248Y-69242000D01*
X151623752Y-70712000D02*
X151101248Y-70712000D01*
%TO.C,Q6*%
X173610000Y-88685000D02*
X173610000Y-90485000D01*
X173610000Y-90485000D02*
X174660000Y-90485000D01*
X176910000Y-88625000D02*
X176910000Y-90485000D01*
X176910000Y-90485000D02*
X175860000Y-90485000D01*
X177201676Y-88415000D02*
X176871676Y-88175000D01*
X177201676Y-87935000D01*
X177201676Y-88415000D01*
G36*
X177201676Y-88415000D02*
G01*
X176871676Y-88175000D01*
X177201676Y-87935000D01*
X177201676Y-88415000D01*
G37*
%TO.C,C2*%
X151001248Y-63285000D02*
X151523752Y-63285000D01*
X151001248Y-61815000D02*
X151523752Y-61815000D01*
%TO.C,C22*%
X158615767Y-123188000D02*
X158323233Y-123188000D01*
X158615767Y-124208000D02*
X158323233Y-124208000D01*
%TO.C,R9*%
X182144564Y-83545000D02*
X180690436Y-83545000D01*
X182144564Y-85365000D02*
X180690436Y-85365000D01*
%TO.C,C9*%
X160012748Y-59790000D02*
X160535252Y-59790000D01*
X160012748Y-58320000D02*
X160535252Y-58320000D01*
%TO.C,C27*%
X158376252Y-129440000D02*
X157853748Y-129440000D01*
X158376252Y-130910000D02*
X157853748Y-130910000D01*
%TO.C,Q4*%
X162180000Y-88685000D02*
X162180000Y-90485000D01*
X162180000Y-90485000D02*
X163230000Y-90485000D01*
X165480000Y-88625000D02*
X165480000Y-90485000D01*
X165480000Y-90485000D02*
X164430000Y-90485000D01*
X165771676Y-88415000D02*
X165441676Y-88175000D01*
X165771676Y-87935000D01*
X165771676Y-88415000D01*
G36*
X165771676Y-88415000D02*
G01*
X165441676Y-88175000D01*
X165771676Y-87935000D01*
X165771676Y-88415000D01*
G37*
%TO.C,TP3*%
X140527000Y-95504000D02*
G75*
G02*
X139127000Y-95504000I-700000J0D01*
G01*
X139127000Y-95504000D02*
G75*
G02*
X140527000Y-95504000I700000J0D01*
G01*
%TO.C,TP4*%
X152973000Y-95377000D02*
G75*
G02*
X151573000Y-95377000I-700000J0D01*
G01*
X151573000Y-95377000D02*
G75*
G02*
X152973000Y-95377000I700000J0D01*
G01*
%TO.C,C7*%
X163287000Y-84081252D02*
X163287000Y-83558748D01*
X164757000Y-84081252D02*
X164757000Y-83558748D01*
%TO.C,D4*%
X171760000Y-132985000D02*
X171760000Y-135845000D01*
X171760000Y-135845000D02*
X173680000Y-135845000D01*
X173680000Y-135845000D02*
X173680000Y-132985000D01*
%TO.C,R1*%
X155413000Y-72289936D02*
X155413000Y-72744064D01*
X156883000Y-72289936D02*
X156883000Y-72744064D01*
%TO.C,R2*%
X160112000Y-72289936D02*
X160112000Y-72744064D01*
X161582000Y-72289936D02*
X161582000Y-72744064D01*
%TD*%
M02*
