M48
; DRILL file {KiCad 9.0.3-9.0.3-0~ubuntu24.04.1} date 2025-08-17T08:06:22-0400
; FORMAT={-:-/ absolute / metric / decimal}
; #@! TF.CreationDate,2025-08-17T08:06:22-04:00
; #@! TF.GenerationSoftware,Kicad,Pcbnew,9.0.3-9.0.3-0~ubuntu24.04.1
; #@! TF.FileFunction,Plated,1,4,PTH
FMAT,2
METRIC
; #@! TA.AperFunction,Plated,PTH,ViaDrill
T1C0.305
; #@! TA.AperFunction,Plated,PTH,ViaDrill
T2C0.635
; #@! TA.AperFunction,Plated,PTH,ComponentDrill
T3C1.000
; #@! TA.AperFunction,Plated,PTH,ComponentDrill
T4C1.473
; #@! TA.AperFunction,Plated,PTH,ComponentDrill
T5C4.300
%
G90
G05
T1
X127.381Y-96.774
X127.889Y-90.424
X128.524Y-92.456
X135.255Y-95.377
X138.303Y-81.407
X138.43Y-95.377
X139.065Y-82.042
X139.446Y-94.107
X140.335Y-94.742
X141.097Y-96.012
X141.859Y-95.377
X142.621Y-80.137
X142.621Y-93.472
X143.637Y-90.297
X144.272Y-95.85
X144.78Y-88.265
X144.78Y-89.789
X145.161Y-80.391
X145.923Y-130.175
X146.138Y-135.04
X146.318Y-92.851
X147.349Y-96.266
X147.861Y-95.471
X148.509Y-92.851
X148.578Y-96.532
X148.717Y-66.548
X148.717Y-69.342
X149.606Y-90.297
X149.86Y-94.742
X150.622Y-93.472
X150.876Y-86.741
X151.257Y-94.107
X153.289Y-69.215
X153.416Y-66.675
T2
X128.524Y-129.667
X128.651Y-134.62
X131.064Y-75.565
X131.445Y-100.711
X131.572Y-97.79
X132.504Y-89.07
X132.572Y-94.234
X132.588Y-87.122
X133.223Y-134.62
X134.366Y-132.08
X134.62Y-77.47
X136.398Y-97.79
X136.398Y-102.489
X136.652Y-87.122
X137.795Y-75.565
X137.795Y-134.62
X139.573Y-88.011
X139.63Y-86.43
X141.224Y-116.205
X141.351Y-113.665
X142.113Y-74.676
X143.764Y-132.08
X144.145Y-99.314
X144.78Y-86.487
X146.431Y-112.141
X147.697Y-123.313
X148.717Y-63.5
X148.971Y-71.755
X150.981Y-84.688
X151.13Y-88.138
X151.13Y-90.043
X152.654Y-103.505
X153.543Y-71.755
X153.543Y-75.311
X155.575Y-119.126
X155.829Y-130.175
X155.829Y-134.62
X156.21Y-82.55
X156.588Y-110.236
X157.353Y-103.505
X157.353Y-105.664
X157.734Y-74.041
X157.734Y-125.984
X158.115Y-85.217
X160.252Y-105.812
X160.796Y-132.32
X162.052Y-69.215
X162.942Y-85.091
X163.195Y-64.897
X163.195Y-123.19
X163.322Y-110.363
X164.207Y-119.637
X164.465Y-134.62
X167.768Y-84.964
X168.402Y-69.088
X168.402Y-72.898
X168.402Y-74.803
X168.656Y-115.57
X170.688Y-108.585
X170.815Y-132.334
X172.595Y-84.965
X173.101Y-66.548
X173.355Y-113.03
X174.117Y-130.302
X174.362Y-135.01
X175.26Y-108.585
X176.784Y-117.348
X177.165Y-90.043
X177.695Y-77.3
X177.695Y-79.375
X178.435Y-123.063
X180.34Y-110.49
X180.34Y-122.936
X180.975Y-90.424
X181.422Y-118.425
T3
X120.02Y-73.66
X120.02Y-76.2
X120.02Y-78.74
X122.56Y-73.66
X122.56Y-76.2
X122.56Y-78.74
X124.46Y-87.63
X124.46Y-90.17
X124.46Y-92.71
X124.46Y-95.25
X124.46Y-97.79
X124.46Y-100.33
X158.5Y-96.0
X158.5Y-98.54
X161.04Y-96.0
X161.04Y-98.54
X163.58Y-96.0
X163.58Y-98.54
X166.12Y-96.0
X166.12Y-98.54
X168.66Y-96.0
X168.66Y-98.54
X171.2Y-96.0
X171.2Y-98.54
X173.74Y-96.0
X173.74Y-98.54
X176.28Y-96.0
X176.28Y-98.54
T4
X120.617Y-112.82
X120.617Y-117.82
T5
X121.92Y-62.23
X121.92Y-132.08
X180.34Y-62.23
X180.34Y-132.08
M30
