%TF.GenerationSoftware,KiCad,Pcbnew,9.0.3-9.0.3-0~ubuntu24.04.1*%
%TF.CreationDate,2025-08-25T07:44:28-04:00*%
%TF.ProjectId,led-photodiode-avr,6c65642d-7068-46f7-946f-64696f64652d,rev?*%
%TF.SameCoordinates,Original*%
%TF.FileFunction,Copper,L2,Inr*%
%TF.FilePolarity,Positive*%
%FSLAX46Y46*%
G04 Gerber Fmt 4.6, Leading zero omitted, Abs format (unit mm)*
G04 Created by KiCad (PCBNEW 9.0.3-9.0.3-0~ubuntu24.04.1) date 2025-08-25 07:44:28*
%MOMM*%
%LPD*%
G01*
G04 APERTURE LIST*
G04 Aperture macros list*
%AMRoundRect*
0 Rectangle with rounded corners*
0 $1 Rounding radius*
0 $2 $3 $4 $5 $6 $7 $8 $9 X,Y pos of 4 corners*
0 Add a 4 corners polygon primitive as box body*
4,1,4,$2,$3,$4,$5,$6,$7,$8,$9,$2,$3,0*
0 Add four circle primitives for the rounded corners*
1,1,$1+$1,$2,$3*
1,1,$1+$1,$4,$5*
1,1,$1+$1,$6,$7*
1,1,$1+$1,$8,$9*
0 Add four rect primitives between the rounded corners*
20,1,$1+$1,$2,$3,$4,$5,0*
20,1,$1+$1,$4,$5,$6,$7,0*
20,1,$1+$1,$6,$7,$8,$9,0*
20,1,$1+$1,$8,$9,$2,$3,0*%
G04 Aperture macros list end*
%TA.AperFunction,ComponentPad*%
%ADD10RoundRect,0.250001X1.149999X-1.149999X1.149999X1.149999X-1.149999X1.149999X-1.149999X-1.149999X0*%
%TD*%
%TA.AperFunction,ComponentPad*%
%ADD11C,2.800000*%
%TD*%
%TA.AperFunction,ComponentPad*%
%ADD12R,1.700000X1.700000*%
%TD*%
%TA.AperFunction,ComponentPad*%
%ADD13C,1.700000*%
%TD*%
%TA.AperFunction,ComponentPad*%
%ADD14C,7.500000*%
%TD*%
%TA.AperFunction,ComponentPad*%
%ADD15RoundRect,0.250000X0.600000X0.600000X-0.600000X0.600000X-0.600000X-0.600000X0.600000X-0.600000X0*%
%TD*%
%TA.AperFunction,ViaPad*%
%ADD16C,0.635000*%
%TD*%
%TA.AperFunction,ViaPad*%
%ADD17C,1.016000*%
%TD*%
G04 APERTURE END LIST*
D10*
%TO.N,VBUS*%
%TO.C,J1*%
X120617500Y-117820000D03*
D11*
%TO.N,GND*%
X120617500Y-112820000D03*
%TD*%
D12*
%TO.N,GND*%
%TO.C,J4*%
X124460000Y-100330000D03*
D13*
%TO.N,unconnected-(J4-Pin_2-Pad2)*%
X124460000Y-97790000D03*
%TO.N,Net-(J4-Pin_3)*%
X124460000Y-95250000D03*
%TO.N,/RXD*%
X124460000Y-92710000D03*
%TO.N,/TXD*%
X124460000Y-90170000D03*
%TO.N,unconnected-(J4-Pin_6-Pad6)*%
X124460000Y-87630000D03*
%TD*%
D14*
%TO.N,N/C*%
%TO.C,H3*%
X121920000Y-132080000D03*
%TD*%
%TO.N,N/C*%
%TO.C,H4*%
X180340000Y-132080000D03*
%TD*%
D15*
%TO.N,/MISO*%
%TO.C,J3*%
X122560000Y-78740000D03*
D13*
%TO.N,VCC*%
X120020000Y-78740000D03*
%TO.N,/SCK*%
X122560000Y-76200000D03*
%TO.N,/MOSI*%
X120020000Y-76200000D03*
%TO.N,/~{RESET}*%
X122560000Y-73660000D03*
%TO.N,GND*%
X120020000Y-73660000D03*
%TD*%
D12*
%TO.N,/LED_driver/LED_3*%
%TO.C,J2*%
X176280000Y-96000000D03*
D13*
%TO.N,Net-(J2-Pin_2)*%
X176280000Y-98540000D03*
%TO.N,/LED_driver/LED_K*%
X173740000Y-96000000D03*
%TO.N,Earth*%
X173740000Y-98540000D03*
%TO.N,/LED_driver/LED_2*%
X171200000Y-96000000D03*
%TO.N,unconnected-(J2-Pin_6-Pad6)*%
X171200000Y-98540000D03*
%TO.N,/LED_driver/LED_K*%
X168660000Y-96000000D03*
%TO.N,unconnected-(J2-Pin_8-Pad8)*%
X168660000Y-98540000D03*
%TO.N,/LED_driver/LED_1*%
X166120000Y-96000000D03*
%TO.N,unconnected-(J2-Pin_10-Pad10)*%
X166120000Y-98540000D03*
%TO.N,/LED_driver/LED_K*%
X163580000Y-96000000D03*
%TO.N,unconnected-(J2-Pin_12-Pad12)*%
X163580000Y-98540000D03*
%TO.N,unconnected-(J2-Pin_13-Pad13)*%
X161040000Y-96000000D03*
%TO.N,Earth*%
X161040000Y-98540000D03*
%TO.N,unconnected-(J2-Pin_15-Pad15)*%
X158500000Y-96000000D03*
%TO.N,Net-(J2-Pin_16)*%
X158500000Y-98540000D03*
%TD*%
D14*
%TO.N,N/C*%
%TO.C,H2*%
X180340000Y-62230000D03*
%TD*%
%TO.N,N/C*%
%TO.C,H1*%
X121920000Y-62230000D03*
%TD*%
D16*
%TO.N,GND*%
X142621000Y-101727000D03*
%TO.N,/GP_LED2*%
X138176000Y-101727000D03*
X135763000Y-99314000D03*
D17*
%TO.N,Earth*%
X160796000Y-132320000D03*
X180340000Y-110490000D03*
X157353000Y-105664000D03*
X163322000Y-110363000D03*
X168656000Y-115570000D03*
X170688000Y-108585000D03*
X178435000Y-123063000D03*
X155575000Y-119126000D03*
X157353000Y-103505000D03*
X162052000Y-69215000D03*
X174362000Y-135010000D03*
X177694500Y-79375000D03*
X160252500Y-105812500D03*
X176784000Y-117348000D03*
X180975000Y-90424000D03*
X170815000Y-132334000D03*
X157734000Y-125984000D03*
X155829000Y-130175000D03*
X155829000Y-134620000D03*
X168402000Y-69088000D03*
X163195000Y-123190000D03*
X157734000Y-74041000D03*
%TO.N,+5VA*%
X172595028Y-84965028D03*
X158115000Y-85217000D03*
X164465000Y-134620000D03*
X173101000Y-66548000D03*
X162941676Y-85090676D03*
X181422000Y-118425000D03*
X163195000Y-64897000D03*
X156210000Y-82550000D03*
X173355000Y-113030000D03*
X177694500Y-77300000D03*
X167768352Y-84964352D03*
X175260000Y-108585000D03*
X174117000Y-130302000D03*
X180340000Y-122936000D03*
X156587500Y-110236000D03*
%TO.N,GND*%
X144145000Y-99314000D03*
X153543000Y-75311000D03*
D16*
X148717000Y-66548000D03*
D17*
X144780000Y-86487000D03*
X141224000Y-116205000D03*
X132504000Y-89070000D03*
D16*
X146138000Y-135040000D03*
D17*
X148717000Y-63500000D03*
X151130000Y-90043000D03*
D16*
X148717000Y-69342000D03*
D17*
X134366000Y-132080000D03*
X139573000Y-88011000D03*
X147697500Y-123313500D03*
X152654000Y-103505000D03*
X150981500Y-84687500D03*
X128524000Y-129667000D03*
X143764000Y-132080000D03*
X141351000Y-113665000D03*
X128651000Y-134620000D03*
X148971000Y-71755000D03*
X136398000Y-97790000D03*
X136398000Y-102489000D03*
X139630000Y-86430000D03*
%TO.N,VCC*%
X134620000Y-77470000D03*
D16*
X153416000Y-66675000D03*
D17*
X153543000Y-71755000D03*
X133223000Y-134620000D03*
X132572000Y-94234000D03*
X132588000Y-87122000D03*
D16*
X153289000Y-69215000D03*
D17*
X142113000Y-74676000D03*
X146431000Y-112141000D03*
X131572000Y-97790000D03*
D16*
X145923000Y-130175000D03*
D17*
X136652000Y-87122000D03*
X137795000Y-134620000D03*
X131445000Y-100711000D03*
X151130000Y-88138000D03*
%TO.N,Net-(U8--)*%
X168402000Y-72898000D03*
X168402000Y-74803000D03*
D16*
%TO.N,Net-(U7-AVCC)*%
X144780000Y-89789000D03*
X149606000Y-90297000D03*
%TO.N,Net-(U7-AREF)*%
X144780000Y-88265000D03*
X150876000Y-86741000D03*
D17*
%TO.N,Net-(J2-Pin_16)*%
X164207500Y-119637500D03*
%TO.N,/LED_driver/LED_K*%
X177165000Y-90043000D03*
D16*
%TO.N,/MOSI*%
X147348600Y-96266000D03*
X127381000Y-96774000D03*
X144272000Y-95849800D03*
%TO.N,/MISO*%
X143637000Y-90297000D03*
X127889000Y-90424000D03*
D17*
%TO.N,/~{RESET}*%
X131064000Y-75565000D03*
X137795000Y-75565000D03*
D16*
%TO.N,/SCK*%
X128524000Y-92456000D03*
X146318401Y-92851401D03*
X148508820Y-92851401D03*
%TO.N,/RXD*%
X138303000Y-81407000D03*
%TO.N,/TXD*%
X139065000Y-82042000D03*
%TO.N,/SCL*%
X145161000Y-80391000D03*
X142621000Y-80137000D03*
%TO.N,/GP_LED*%
X138430000Y-95377000D03*
X135255000Y-95377000D03*
%TO.N,/PB0*%
X141859000Y-95377000D03*
X148578006Y-96531994D03*
%TO.N,/PD5*%
X139446000Y-94107000D03*
X151257000Y-94107000D03*
%TO.N,/PD6{slash}OC0A*%
X140335000Y-94742000D03*
X149860000Y-94742000D03*
%TO.N,/PB1{slash}OC1A*%
X150622000Y-93472000D03*
X142621000Y-93472000D03*
%TO.N,/PD7*%
X141097000Y-96012000D03*
X147861000Y-95471000D03*
%TD*%
%TA.AperFunction,Conductor*%
%TO.N,GND*%
G36*
X154247121Y-57670502D02*
G01*
X154293614Y-57724158D01*
X154305000Y-57776500D01*
X154305000Y-71134473D01*
X154284998Y-71202594D01*
X154231342Y-71249087D01*
X154161068Y-71259191D01*
X154096488Y-71229697D01*
X154089905Y-71223568D01*
X154029067Y-71162730D01*
X154029065Y-71162728D01*
X153904179Y-71079282D01*
X153765414Y-71021803D01*
X153618103Y-70992500D01*
X153618100Y-70992500D01*
X153467900Y-70992500D01*
X153467896Y-70992500D01*
X153320585Y-71021803D01*
X153320584Y-71021804D01*
X153181819Y-71079283D01*
X153056939Y-71162725D01*
X153056932Y-71162730D01*
X152950730Y-71268932D01*
X152950725Y-71268939D01*
X152867283Y-71393819D01*
X152809804Y-71532584D01*
X152809803Y-71532585D01*
X152780500Y-71679896D01*
X152780500Y-71830103D01*
X152809803Y-71977413D01*
X152867282Y-72116179D01*
X152950728Y-72241065D01*
X153056935Y-72347272D01*
X153181821Y-72430718D01*
X153320587Y-72488197D01*
X153467900Y-72517500D01*
X153618100Y-72517500D01*
X153765413Y-72488197D01*
X153904179Y-72430718D01*
X154029065Y-72347272D01*
X154089905Y-72286432D01*
X154152217Y-72252406D01*
X154223032Y-72257471D01*
X154279868Y-72300018D01*
X154304679Y-72366538D01*
X154305000Y-72375527D01*
X154305000Y-136533500D01*
X154284998Y-136601621D01*
X154231342Y-136648114D01*
X154179000Y-136659500D01*
X117466500Y-136659500D01*
X117398379Y-136639498D01*
X117351886Y-136585842D01*
X117340500Y-136533500D01*
X117340500Y-131883265D01*
X117915500Y-131883265D01*
X117915500Y-132276734D01*
X117954064Y-132668283D01*
X117954066Y-132668291D01*
X118030826Y-133054187D01*
X118145040Y-133430702D01*
X118295610Y-133794209D01*
X118481085Y-134141209D01*
X118699677Y-134468355D01*
X118762496Y-134544900D01*
X118949283Y-134772501D01*
X118949290Y-134772508D01*
X118949299Y-134772518D01*
X119227481Y-135050700D01*
X119227490Y-135050708D01*
X119227499Y-135050717D01*
X119227509Y-135050725D01*
X119531644Y-135300322D01*
X119610774Y-135353195D01*
X119858793Y-135518916D01*
X120205791Y-135704390D01*
X120569298Y-135854960D01*
X120945813Y-135969174D01*
X121331709Y-136045934D01*
X121331712Y-136045934D01*
X121331716Y-136045935D01*
X121527490Y-136065217D01*
X121723272Y-136084500D01*
X121723281Y-136084500D01*
X122116719Y-136084500D01*
X122116728Y-136084500D01*
X122374598Y-136059101D01*
X122508283Y-136045935D01*
X122508285Y-136045934D01*
X122508291Y-136045934D01*
X122894187Y-135969174D01*
X123270702Y-135854960D01*
X123634209Y-135704390D01*
X123981207Y-135518916D01*
X124308354Y-135300323D01*
X124612501Y-135050717D01*
X124890717Y-134772501D01*
X125077507Y-134544896D01*
X132460500Y-134544896D01*
X132460500Y-134695103D01*
X132489803Y-134842413D01*
X132547282Y-134981179D01*
X132630728Y-135106065D01*
X132736935Y-135212272D01*
X132861821Y-135295718D01*
X133000587Y-135353197D01*
X133147900Y-135382500D01*
X133298100Y-135382500D01*
X133445413Y-135353197D01*
X133584179Y-135295718D01*
X133709065Y-135212272D01*
X133815272Y-135106065D01*
X133898718Y-134981179D01*
X133956197Y-134842413D01*
X133985500Y-134695100D01*
X133985500Y-134544900D01*
X133985499Y-134544896D01*
X137032500Y-134544896D01*
X137032500Y-134695103D01*
X137061803Y-134842413D01*
X137119282Y-134981179D01*
X137202728Y-135106065D01*
X137308935Y-135212272D01*
X137433821Y-135295718D01*
X137572587Y-135353197D01*
X137719900Y-135382500D01*
X137870100Y-135382500D01*
X138017413Y-135353197D01*
X138156179Y-135295718D01*
X138281065Y-135212272D01*
X138387272Y-135106065D01*
X138470718Y-134981179D01*
X138528197Y-134842413D01*
X138557500Y-134695100D01*
X138557500Y-134544900D01*
X138528197Y-134397587D01*
X138470718Y-134258821D01*
X138387272Y-134133935D01*
X138281065Y-134027728D01*
X138156179Y-133944282D01*
X138017414Y-133886803D01*
X137870103Y-133857500D01*
X137870100Y-133857500D01*
X137719900Y-133857500D01*
X137719896Y-133857500D01*
X137572585Y-133886803D01*
X137572584Y-133886804D01*
X137433819Y-133944283D01*
X137308939Y-134027725D01*
X137308932Y-134027730D01*
X137202730Y-134133932D01*
X137202725Y-134133939D01*
X137119283Y-134258819D01*
X137061804Y-134397584D01*
X137061803Y-134397585D01*
X137032500Y-134544896D01*
X133985499Y-134544896D01*
X133956197Y-134397587D01*
X133898718Y-134258821D01*
X133815272Y-134133935D01*
X133709065Y-134027728D01*
X133584179Y-133944282D01*
X133445414Y-133886803D01*
X133298103Y-133857500D01*
X133298100Y-133857500D01*
X133147900Y-133857500D01*
X133147896Y-133857500D01*
X133000585Y-133886803D01*
X133000584Y-133886804D01*
X132861819Y-133944283D01*
X132736939Y-134027725D01*
X132736932Y-134027730D01*
X132630730Y-134133932D01*
X132630725Y-134133939D01*
X132547283Y-134258819D01*
X132489804Y-134397584D01*
X132489803Y-134397585D01*
X132460500Y-134544896D01*
X125077507Y-134544896D01*
X125140323Y-134468354D01*
X125358916Y-134141207D01*
X125544390Y-133794209D01*
X125694960Y-133430702D01*
X125809174Y-133054187D01*
X125885934Y-132668291D01*
X125924500Y-132276728D01*
X125924500Y-131883272D01*
X125885934Y-131491709D01*
X125809174Y-131105813D01*
X125694960Y-130729298D01*
X125544390Y-130365791D01*
X125402159Y-130099695D01*
X145351000Y-130099695D01*
X145351000Y-130250305D01*
X145379535Y-130356800D01*
X145389980Y-130395781D01*
X145389983Y-130395788D01*
X145465283Y-130526212D01*
X145465291Y-130526222D01*
X145571777Y-130632708D01*
X145571782Y-130632712D01*
X145571784Y-130632714D01*
X145702216Y-130708019D01*
X145847695Y-130747000D01*
X145847697Y-130747000D01*
X145998303Y-130747000D01*
X145998305Y-130747000D01*
X146143784Y-130708019D01*
X146274216Y-130632714D01*
X146380714Y-130526216D01*
X146456019Y-130395784D01*
X146495000Y-130250305D01*
X146495000Y-130099695D01*
X146456019Y-129954216D01*
X146380714Y-129823784D01*
X146380712Y-129823782D01*
X146380708Y-129823777D01*
X146274222Y-129717291D01*
X146274212Y-129717283D01*
X146143788Y-129641983D01*
X146143785Y-129641982D01*
X146143784Y-129641981D01*
X146143782Y-129641980D01*
X146143781Y-129641980D01*
X146104800Y-129631535D01*
X145998305Y-129603000D01*
X145847695Y-129603000D01*
X145769735Y-129623889D01*
X145702218Y-129641980D01*
X145702211Y-129641983D01*
X145571787Y-129717283D01*
X145571777Y-129717291D01*
X145465291Y-129823777D01*
X145465283Y-129823787D01*
X145389983Y-129954211D01*
X145389980Y-129954218D01*
X145365267Y-130046447D01*
X145351000Y-130099695D01*
X125402159Y-130099695D01*
X125358916Y-130018793D01*
X125228610Y-129823777D01*
X125140322Y-129691644D01*
X124890725Y-129387509D01*
X124890717Y-129387499D01*
X124890708Y-129387490D01*
X124890700Y-129387481D01*
X124612518Y-129109299D01*
X124612508Y-129109290D01*
X124612501Y-129109283D01*
X124602653Y-129101201D01*
X124308355Y-128859677D01*
X123981209Y-128641085D01*
X123634209Y-128455610D01*
X123270702Y-128305040D01*
X122894187Y-128190826D01*
X122894188Y-128190826D01*
X122508283Y-128114064D01*
X122116734Y-128075500D01*
X122116728Y-128075500D01*
X121723272Y-128075500D01*
X121723265Y-128075500D01*
X121331716Y-128114064D01*
X120945812Y-128190826D01*
X120569307Y-128305037D01*
X120569304Y-128305038D01*
X120569298Y-128305040D01*
X120337624Y-128401002D01*
X120205790Y-128455610D01*
X119858790Y-128641085D01*
X119531644Y-128859677D01*
X119227509Y-129109274D01*
X119227481Y-129109299D01*
X118949299Y-129387481D01*
X118949274Y-129387509D01*
X118699677Y-129691644D01*
X118481085Y-130018790D01*
X118295610Y-130365790D01*
X118241002Y-130497624D01*
X118145040Y-130729298D01*
X118145038Y-130729304D01*
X118145037Y-130729307D01*
X118030826Y-131105812D01*
X117954064Y-131491716D01*
X117915500Y-131883265D01*
X117340500Y-131883265D01*
X117340500Y-116621733D01*
X118963000Y-116621733D01*
X118963000Y-119018266D01*
X118969458Y-119078335D01*
X118969459Y-119078340D01*
X118969460Y-119078341D01*
X119020158Y-119214267D01*
X119107096Y-119330404D01*
X119223233Y-119417342D01*
X119359159Y-119468040D01*
X119359162Y-119468040D01*
X119359164Y-119468041D01*
X119419233Y-119474499D01*
X119419241Y-119474499D01*
X119419246Y-119474500D01*
X119419250Y-119474500D01*
X121815750Y-119474500D01*
X121815754Y-119474500D01*
X121815759Y-119474499D01*
X121815766Y-119474499D01*
X121875835Y-119468041D01*
X121875836Y-119468040D01*
X121875841Y-119468040D01*
X122011767Y-119417342D01*
X122127904Y-119330404D01*
X122214842Y-119214267D01*
X122265540Y-119078341D01*
X122272000Y-119018254D01*
X122272000Y-116621746D01*
X122265540Y-116561659D01*
X122214842Y-116425733D01*
X122127904Y-116309596D01*
X122011767Y-116222658D01*
X121875841Y-116171960D01*
X121875840Y-116171959D01*
X121875835Y-116171958D01*
X121815766Y-116165500D01*
X121815754Y-116165500D01*
X119419246Y-116165500D01*
X119419233Y-116165500D01*
X119359164Y-116171958D01*
X119359159Y-116171960D01*
X119223233Y-116222658D01*
X119223232Y-116222658D01*
X119223231Y-116222659D01*
X119107096Y-116309596D01*
X119020159Y-116425731D01*
X118969458Y-116561664D01*
X118963000Y-116621733D01*
X117340500Y-116621733D01*
X117340500Y-112689830D01*
X118963500Y-112689830D01*
X118963500Y-112950169D01*
X119004227Y-113207314D01*
X119084678Y-113454913D01*
X119202875Y-113686888D01*
X119355901Y-113897510D01*
X119358142Y-113899751D01*
X119358144Y-113899751D01*
X120076936Y-113180958D01*
X120112612Y-113234351D01*
X120203149Y-113324888D01*
X120256540Y-113360562D01*
X119537748Y-114079355D01*
X119537748Y-114079357D01*
X119539989Y-114081598D01*
X119750611Y-114234624D01*
X119982586Y-114352821D01*
X120230185Y-114433272D01*
X120487330Y-114474000D01*
X120747670Y-114474000D01*
X121004814Y-114433272D01*
X121252413Y-114352821D01*
X121484388Y-114234624D01*
X121695008Y-114081599D01*
X121697251Y-114079356D01*
X121697250Y-114079354D01*
X120978458Y-113360562D01*
X121031851Y-113324888D01*
X121122388Y-113234351D01*
X121158062Y-113180958D01*
X121876854Y-113899750D01*
X121876856Y-113899751D01*
X121879099Y-113897508D01*
X122032124Y-113686888D01*
X122150321Y-113454913D01*
X122230772Y-113207314D01*
X122271500Y-112950169D01*
X122271500Y-112689830D01*
X122230772Y-112432685D01*
X122150321Y-112185086D01*
X122115585Y-112116913D01*
X122115584Y-112116911D01*
X122089591Y-112065896D01*
X145668500Y-112065896D01*
X145668500Y-112216103D01*
X145674045Y-112243978D01*
X145697803Y-112363413D01*
X145755282Y-112502179D01*
X145838728Y-112627065D01*
X145944935Y-112733272D01*
X146069821Y-112816718D01*
X146208587Y-112874197D01*
X146355900Y-112903500D01*
X146506100Y-112903500D01*
X146653413Y-112874197D01*
X146792179Y-112816718D01*
X146917065Y-112733272D01*
X147023272Y-112627065D01*
X147106718Y-112502179D01*
X147164197Y-112363413D01*
X147193500Y-112216100D01*
X147193500Y-112065900D01*
X147164197Y-111918587D01*
X147106718Y-111779821D01*
X147023272Y-111654935D01*
X146917065Y-111548728D01*
X146792179Y-111465282D01*
X146653414Y-111407803D01*
X146506103Y-111378500D01*
X146506100Y-111378500D01*
X146355900Y-111378500D01*
X146355896Y-111378500D01*
X146208585Y-111407803D01*
X146208584Y-111407804D01*
X146069819Y-111465283D01*
X145944939Y-111548725D01*
X145944932Y-111548730D01*
X145838730Y-111654932D01*
X145838725Y-111654939D01*
X145755283Y-111779819D01*
X145697804Y-111918584D01*
X145697803Y-111918585D01*
X145668500Y-112065896D01*
X122089591Y-112065896D01*
X122032126Y-111953114D01*
X121879098Y-111742489D01*
X121876857Y-111740248D01*
X121876855Y-111740248D01*
X121158062Y-112459040D01*
X121122388Y-112405649D01*
X121031851Y-112315112D01*
X120978458Y-112279436D01*
X121697251Y-111560644D01*
X121697251Y-111560642D01*
X121695010Y-111558401D01*
X121484388Y-111405375D01*
X121252413Y-111287178D01*
X121004814Y-111206727D01*
X120747670Y-111166000D01*
X120487330Y-111166000D01*
X120230185Y-111206727D01*
X119982586Y-111287178D01*
X119750611Y-111405375D01*
X119539994Y-111558398D01*
X119539989Y-111558403D01*
X119537747Y-111560643D01*
X120256541Y-112279436D01*
X120203149Y-112315112D01*
X120112612Y-112405649D01*
X120076937Y-112459041D01*
X119358143Y-111740247D01*
X119355903Y-111742489D01*
X119355898Y-111742494D01*
X119202875Y-111953111D01*
X119084678Y-112185086D01*
X119004227Y-112432685D01*
X118963500Y-112689830D01*
X117340500Y-112689830D01*
X117340500Y-101651695D01*
X137604000Y-101651695D01*
X137604000Y-101802305D01*
X137632535Y-101908800D01*
X137642980Y-101947781D01*
X137642983Y-101947788D01*
X137718283Y-102078212D01*
X137718291Y-102078222D01*
X137824777Y-102184708D01*
X137824782Y-102184712D01*
X137824784Y-102184714D01*
X137955216Y-102260019D01*
X138100695Y-102299000D01*
X138100697Y-102299000D01*
X138251303Y-102299000D01*
X138251305Y-102299000D01*
X138396784Y-102260019D01*
X138527216Y-102184714D01*
X138633714Y-102078216D01*
X138709019Y-101947784D01*
X138748000Y-101802305D01*
X138748000Y-101651695D01*
X138709019Y-101506216D01*
X138673211Y-101444195D01*
X138633716Y-101375787D01*
X138633708Y-101375777D01*
X138527222Y-101269291D01*
X138527212Y-101269283D01*
X138396788Y-101193983D01*
X138396785Y-101193982D01*
X138396784Y-101193981D01*
X138396782Y-101193980D01*
X138396781Y-101193980D01*
X138357800Y-101183535D01*
X138251305Y-101155000D01*
X138100695Y-101155000D01*
X138022735Y-101175889D01*
X137955218Y-101193980D01*
X137955211Y-101193983D01*
X137824787Y-101269283D01*
X137824777Y-101269291D01*
X137718291Y-101375777D01*
X137718283Y-101375787D01*
X137642983Y-101506211D01*
X137642981Y-101506216D01*
X137604000Y-101651695D01*
X117340500Y-101651695D01*
X117340500Y-99454977D01*
X123356000Y-99454977D01*
X123356000Y-100203000D01*
X123976392Y-100203000D01*
X123960000Y-100264174D01*
X123960000Y-100395826D01*
X123976392Y-100457000D01*
X123356001Y-100457000D01*
X123356001Y-101205022D01*
X123370737Y-101279105D01*
X123370737Y-101279107D01*
X123426875Y-101363124D01*
X123510893Y-101419262D01*
X123510894Y-101419263D01*
X123584980Y-101433999D01*
X124333000Y-101433999D01*
X124333000Y-100813608D01*
X124394174Y-100830000D01*
X124525826Y-100830000D01*
X124587000Y-100813608D01*
X124587000Y-101433999D01*
X125335014Y-101433999D01*
X125335022Y-101433998D01*
X125409105Y-101419262D01*
X125409107Y-101419262D01*
X125493124Y-101363124D01*
X125549262Y-101279106D01*
X125549263Y-101279105D01*
X125563999Y-101205022D01*
X125564000Y-101205015D01*
X125564000Y-100635896D01*
X130682500Y-100635896D01*
X130682500Y-100786103D01*
X130684454Y-100795925D01*
X130711803Y-100933413D01*
X130769282Y-101072179D01*
X130852728Y-101197065D01*
X130958935Y-101303272D01*
X131083821Y-101386718D01*
X131222587Y-101444197D01*
X131369900Y-101473500D01*
X131520100Y-101473500D01*
X131667413Y-101444197D01*
X131806179Y-101386718D01*
X131931065Y-101303272D01*
X132037272Y-101197065D01*
X132120718Y-101072179D01*
X132178197Y-100933413D01*
X132207500Y-100786100D01*
X132207500Y-100635900D01*
X132178197Y-100488587D01*
X132120718Y-100349821D01*
X132037272Y-100224935D01*
X131931065Y-100118728D01*
X131806179Y-100035282D01*
X131667414Y-99977803D01*
X131520103Y-99948500D01*
X131520100Y-99948500D01*
X131369900Y-99948500D01*
X131369896Y-99948500D01*
X131222585Y-99977803D01*
X131222584Y-99977804D01*
X131083819Y-100035283D01*
X130958939Y-100118725D01*
X130958932Y-100118730D01*
X130852730Y-100224932D01*
X130852725Y-100224939D01*
X130769283Y-100349819D01*
X130711804Y-100488584D01*
X130711803Y-100488585D01*
X130682500Y-100635896D01*
X125564000Y-100635896D01*
X125564000Y-100457000D01*
X124943608Y-100457000D01*
X124960000Y-100395826D01*
X124960000Y-100264174D01*
X124943608Y-100203000D01*
X125563999Y-100203000D01*
X125563999Y-99454986D01*
X125563998Y-99454977D01*
X125549262Y-99380894D01*
X125549262Y-99380892D01*
X125495505Y-99300439D01*
X125493124Y-99296875D01*
X125409106Y-99240737D01*
X125409105Y-99240736D01*
X125398844Y-99238695D01*
X135191000Y-99238695D01*
X135191000Y-99389305D01*
X135208597Y-99454977D01*
X135229980Y-99534781D01*
X135229983Y-99534788D01*
X135305283Y-99665212D01*
X135305291Y-99665222D01*
X135411777Y-99771708D01*
X135411782Y-99771712D01*
X135411784Y-99771714D01*
X135542216Y-99847019D01*
X135687695Y-99886000D01*
X135687697Y-99886000D01*
X135838303Y-99886000D01*
X135838305Y-99886000D01*
X135983784Y-99847019D01*
X136114216Y-99771714D01*
X136220714Y-99665216D01*
X136296019Y-99534784D01*
X136335000Y-99389305D01*
X136335000Y-99238695D01*
X136296019Y-99093216D01*
X136220714Y-98962784D01*
X136220712Y-98962782D01*
X136220708Y-98962777D01*
X136114222Y-98856291D01*
X136114212Y-98856283D01*
X135983788Y-98780983D01*
X135983785Y-98780982D01*
X135983784Y-98780981D01*
X135983782Y-98780980D01*
X135983781Y-98780980D01*
X135944800Y-98770535D01*
X135838305Y-98742000D01*
X135687695Y-98742000D01*
X135609735Y-98762889D01*
X135542218Y-98780980D01*
X135542211Y-98780983D01*
X135411787Y-98856283D01*
X135411777Y-98856291D01*
X135305291Y-98962777D01*
X135305283Y-98962787D01*
X135229983Y-99093211D01*
X135229981Y-99093216D01*
X135191000Y-99238695D01*
X125398844Y-99238695D01*
X125335022Y-99226000D01*
X124587000Y-99226000D01*
X124587000Y-99846391D01*
X124525826Y-99830000D01*
X124394174Y-99830000D01*
X124333000Y-99846391D01*
X124333000Y-99226000D01*
X123584986Y-99226000D01*
X123584976Y-99226001D01*
X123510894Y-99240737D01*
X123510892Y-99240737D01*
X123426875Y-99296875D01*
X123370737Y-99380893D01*
X123370736Y-99380894D01*
X123356000Y-99454977D01*
X117340500Y-99454977D01*
X117340500Y-97703074D01*
X123355500Y-97703074D01*
X123355500Y-97876926D01*
X123376960Y-98012414D01*
X123382698Y-98048642D01*
X123416014Y-98151180D01*
X123436420Y-98213981D01*
X123515347Y-98368884D01*
X123515349Y-98368887D01*
X123617536Y-98509535D01*
X123740464Y-98632463D01*
X123740467Y-98632465D01*
X123881116Y-98734653D01*
X124036019Y-98813580D01*
X124201362Y-98867303D01*
X124373074Y-98894500D01*
X124373077Y-98894500D01*
X124546923Y-98894500D01*
X124546926Y-98894500D01*
X124718638Y-98867303D01*
X124883981Y-98813580D01*
X125038884Y-98734653D01*
X125179533Y-98632465D01*
X125302465Y-98509533D01*
X125404653Y-98368884D01*
X125483580Y-98213981D01*
X125537303Y-98048638D01*
X125564500Y-97876926D01*
X125564500Y-97714896D01*
X130809500Y-97714896D01*
X130809500Y-97865103D01*
X130811852Y-97876926D01*
X130838803Y-98012413D01*
X130896282Y-98151179D01*
X130979728Y-98276065D01*
X131085935Y-98382272D01*
X131210821Y-98465718D01*
X131349587Y-98523197D01*
X131496900Y-98552500D01*
X131647100Y-98552500D01*
X131794413Y-98523197D01*
X131933179Y-98465718D01*
X132058065Y-98382272D01*
X132164272Y-98276065D01*
X132247718Y-98151179D01*
X132305197Y-98012413D01*
X132334500Y-97865100D01*
X132334500Y-97714900D01*
X132305197Y-97567587D01*
X132247718Y-97428821D01*
X132164272Y-97303935D01*
X132058065Y-97197728D01*
X131933179Y-97114282D01*
X131794414Y-97056803D01*
X131647103Y-97027500D01*
X131647100Y-97027500D01*
X131496900Y-97027500D01*
X131496896Y-97027500D01*
X131349585Y-97056803D01*
X131349584Y-97056804D01*
X131316599Y-97070467D01*
X131235659Y-97103994D01*
X131210819Y-97114283D01*
X131085939Y-97197725D01*
X131085932Y-97197730D01*
X130979730Y-97303932D01*
X130979725Y-97303939D01*
X130896283Y-97428819D01*
X130838804Y-97567584D01*
X130838803Y-97567585D01*
X130809500Y-97714896D01*
X125564500Y-97714896D01*
X125564500Y-97703074D01*
X125537303Y-97531362D01*
X125483580Y-97366019D01*
X125404653Y-97211116D01*
X125302465Y-97070467D01*
X125302463Y-97070464D01*
X125179535Y-96947536D01*
X125038887Y-96845349D01*
X125038886Y-96845348D01*
X125038884Y-96845347D01*
X124883981Y-96766420D01*
X124883978Y-96766419D01*
X124883976Y-96766418D01*
X124718642Y-96712698D01*
X124718640Y-96712697D01*
X124718638Y-96712697D01*
X124630234Y-96698695D01*
X126809000Y-96698695D01*
X126809000Y-96849305D01*
X126835321Y-96947535D01*
X126847980Y-96994781D01*
X126847983Y-96994788D01*
X126923283Y-97125212D01*
X126923291Y-97125222D01*
X127029777Y-97231708D01*
X127029782Y-97231712D01*
X127029784Y-97231714D01*
X127160216Y-97307019D01*
X127305695Y-97346000D01*
X127305697Y-97346000D01*
X127456303Y-97346000D01*
X127456305Y-97346000D01*
X127601784Y-97307019D01*
X127732216Y-97231714D01*
X127838714Y-97125216D01*
X127914019Y-96994784D01*
X127953000Y-96849305D01*
X127953000Y-96698695D01*
X127914019Y-96553216D01*
X127875667Y-96486788D01*
X127838716Y-96422787D01*
X127838708Y-96422777D01*
X127732222Y-96316291D01*
X127732212Y-96316283D01*
X127601788Y-96240983D01*
X127601785Y-96240982D01*
X127601784Y-96240981D01*
X127601782Y-96240980D01*
X127601781Y-96240980D01*
X127562800Y-96230535D01*
X127456305Y-96202000D01*
X127305695Y-96202000D01*
X127227735Y-96222889D01*
X127160218Y-96240980D01*
X127160211Y-96240983D01*
X127029787Y-96316283D01*
X127029777Y-96316291D01*
X126923291Y-96422777D01*
X126923283Y-96422787D01*
X126847983Y-96553211D01*
X126847980Y-96553218D01*
X126828604Y-96625532D01*
X126809000Y-96698695D01*
X124630234Y-96698695D01*
X124546926Y-96685500D01*
X124373074Y-96685500D01*
X124201362Y-96712697D01*
X124201360Y-96712697D01*
X124201357Y-96712698D01*
X124036023Y-96766418D01*
X124036017Y-96766421D01*
X123881112Y-96845349D01*
X123740464Y-96947536D01*
X123617536Y-97070464D01*
X123515349Y-97211112D01*
X123436421Y-97366017D01*
X123436418Y-97366023D01*
X123382698Y-97531357D01*
X123382697Y-97531360D01*
X123382697Y-97531362D01*
X123355500Y-97703074D01*
X117340500Y-97703074D01*
X117340500Y-95163074D01*
X123355500Y-95163074D01*
X123355500Y-95336926D01*
X123381105Y-95498584D01*
X123382698Y-95508642D01*
X123432129Y-95660777D01*
X123436420Y-95673981D01*
X123515347Y-95828884D01*
X123515349Y-95828887D01*
X123617536Y-95969535D01*
X123740464Y-96092463D01*
X123832859Y-96159592D01*
X123881116Y-96194653D01*
X124036019Y-96273580D01*
X124201362Y-96327303D01*
X124373074Y-96354500D01*
X124373077Y-96354500D01*
X124546923Y-96354500D01*
X124546926Y-96354500D01*
X124718638Y-96327303D01*
X124883981Y-96273580D01*
X125038884Y-96194653D01*
X125179533Y-96092465D01*
X125302465Y-95969533D01*
X125404653Y-95828884D01*
X125483580Y-95673981D01*
X125537303Y-95508638D01*
X125564500Y-95336926D01*
X125564500Y-95301695D01*
X134683000Y-95301695D01*
X134683000Y-95452305D01*
X134708187Y-95546303D01*
X134721980Y-95597781D01*
X134721983Y-95597788D01*
X134797283Y-95728212D01*
X134797291Y-95728222D01*
X134903777Y-95834708D01*
X134903782Y-95834712D01*
X134903784Y-95834714D01*
X134903785Y-95834715D01*
X134903787Y-95834716D01*
X134995464Y-95887645D01*
X135034216Y-95910019D01*
X135179695Y-95949000D01*
X135179697Y-95949000D01*
X135330303Y-95949000D01*
X135330305Y-95949000D01*
X135475784Y-95910019D01*
X135606216Y-95834714D01*
X135712714Y-95728216D01*
X135788019Y-95597784D01*
X135827000Y-95452305D01*
X135827000Y-95301695D01*
X137858000Y-95301695D01*
X137858000Y-95452305D01*
X137883187Y-95546303D01*
X137896980Y-95597781D01*
X137896983Y-95597788D01*
X137972283Y-95728212D01*
X137972291Y-95728222D01*
X138078777Y-95834708D01*
X138078782Y-95834712D01*
X138078784Y-95834714D01*
X138078785Y-95834715D01*
X138078787Y-95834716D01*
X138170464Y-95887645D01*
X138209216Y-95910019D01*
X138354695Y-95949000D01*
X138354697Y-95949000D01*
X138505303Y-95949000D01*
X138505305Y-95949000D01*
X138551228Y-95936695D01*
X140525000Y-95936695D01*
X140525000Y-96087305D01*
X140526383Y-96092465D01*
X140563980Y-96232781D01*
X140563983Y-96232788D01*
X140639283Y-96363212D01*
X140639291Y-96363222D01*
X140745777Y-96469708D01*
X140745782Y-96469712D01*
X140745784Y-96469714D01*
X140876216Y-96545019D01*
X141021695Y-96584000D01*
X141021697Y-96584000D01*
X141172303Y-96584000D01*
X141172305Y-96584000D01*
X141317784Y-96545019D01*
X141448216Y-96469714D01*
X141554714Y-96363216D01*
X141630019Y-96232784D01*
X141669000Y-96087305D01*
X141669000Y-96075000D01*
X141689002Y-96006879D01*
X141742658Y-95960386D01*
X141795000Y-95949000D01*
X141934303Y-95949000D01*
X141934305Y-95949000D01*
X142079784Y-95910019D01*
X142210216Y-95834714D01*
X142270435Y-95774495D01*
X143700000Y-95774495D01*
X143700000Y-95925105D01*
X143719794Y-95998977D01*
X143738980Y-96070581D01*
X143738983Y-96070588D01*
X143814283Y-96201012D01*
X143814291Y-96201022D01*
X143920777Y-96307508D01*
X143920782Y-96307512D01*
X143920784Y-96307514D01*
X143920785Y-96307515D01*
X143920787Y-96307516D01*
X143979308Y-96341303D01*
X144051216Y-96382819D01*
X144196695Y-96421800D01*
X144196697Y-96421800D01*
X144347303Y-96421800D01*
X144347305Y-96421800D01*
X144492784Y-96382819D01*
X144623216Y-96307514D01*
X144729714Y-96201016D01*
X144735673Y-96190695D01*
X146776600Y-96190695D01*
X146776600Y-96341305D01*
X146780136Y-96354500D01*
X146815580Y-96486781D01*
X146815583Y-96486788D01*
X146890883Y-96617212D01*
X146890891Y-96617222D01*
X146997377Y-96723708D01*
X146997382Y-96723712D01*
X146997384Y-96723714D01*
X147127816Y-96799019D01*
X147273295Y-96838000D01*
X147273297Y-96838000D01*
X147423903Y-96838000D01*
X147423905Y-96838000D01*
X147569384Y-96799019D01*
X147699816Y-96723714D01*
X147806314Y-96617216D01*
X147806315Y-96617213D01*
X147811583Y-96611946D01*
X147873895Y-96577921D01*
X147944711Y-96582985D01*
X148001547Y-96625532D01*
X148022385Y-96668429D01*
X148044984Y-96752770D01*
X148044989Y-96752782D01*
X148120289Y-96883206D01*
X148120297Y-96883216D01*
X148226783Y-96989702D01*
X148226788Y-96989706D01*
X148226790Y-96989708D01*
X148226791Y-96989709D01*
X148226793Y-96989710D01*
X148318470Y-97042639D01*
X148357222Y-97065013D01*
X148502701Y-97103994D01*
X148502703Y-97103994D01*
X148653309Y-97103994D01*
X148653311Y-97103994D01*
X148798790Y-97065013D01*
X148929222Y-96989708D01*
X149035720Y-96883210D01*
X149111025Y-96752778D01*
X149150006Y-96607299D01*
X149150006Y-96456689D01*
X149111025Y-96311210D01*
X149047408Y-96201022D01*
X149035722Y-96180781D01*
X149035714Y-96180771D01*
X148929228Y-96074285D01*
X148929218Y-96074277D01*
X148798794Y-95998977D01*
X148798791Y-95998976D01*
X148798790Y-95998975D01*
X148798788Y-95998974D01*
X148798787Y-95998974D01*
X148759806Y-95988529D01*
X148653311Y-95959994D01*
X148502701Y-95959994D01*
X148502700Y-95959994D01*
X148484759Y-95964801D01*
X148413783Y-95963109D01*
X148354988Y-95923313D01*
X148327043Y-95858048D01*
X148338818Y-95788034D01*
X148343024Y-95780108D01*
X148394019Y-95691784D01*
X148433000Y-95546305D01*
X148433000Y-95395695D01*
X148394019Y-95250216D01*
X148318714Y-95119784D01*
X148318712Y-95119782D01*
X148318708Y-95119777D01*
X148212222Y-95013291D01*
X148212212Y-95013283D01*
X148081788Y-94937983D01*
X148081785Y-94937982D01*
X148081784Y-94937981D01*
X148081782Y-94937980D01*
X148081781Y-94937980D01*
X148042800Y-94927535D01*
X147936305Y-94899000D01*
X147785695Y-94899000D01*
X147709998Y-94919283D01*
X147640218Y-94937980D01*
X147640211Y-94937983D01*
X147509787Y-95013283D01*
X147509777Y-95013291D01*
X147403291Y-95119777D01*
X147403283Y-95119787D01*
X147327983Y-95250211D01*
X147327980Y-95250218D01*
X147289000Y-95395696D01*
X147289000Y-95546307D01*
X147292260Y-95558472D01*
X147290571Y-95629448D01*
X147250778Y-95688244D01*
X147203166Y-95712790D01*
X147127823Y-95732978D01*
X147127811Y-95732983D01*
X146997387Y-95808283D01*
X146997377Y-95808291D01*
X146890891Y-95914777D01*
X146890883Y-95914787D01*
X146815583Y-96045211D01*
X146815580Y-96045218D01*
X146790867Y-96137447D01*
X146776600Y-96190695D01*
X144735673Y-96190695D01*
X144805019Y-96070584D01*
X144844000Y-95925105D01*
X144844000Y-95774495D01*
X144805019Y-95629016D01*
X144764290Y-95558472D01*
X144729716Y-95498587D01*
X144729708Y-95498577D01*
X144623222Y-95392091D01*
X144623212Y-95392083D01*
X144492788Y-95316783D01*
X144492785Y-95316782D01*
X144492784Y-95316781D01*
X144492782Y-95316780D01*
X144492781Y-95316780D01*
X144436482Y-95301695D01*
X144347305Y-95277800D01*
X144196695Y-95277800D01*
X144118735Y-95298689D01*
X144051218Y-95316780D01*
X144051211Y-95316783D01*
X143920787Y-95392083D01*
X143920777Y-95392091D01*
X143814291Y-95498577D01*
X143814283Y-95498587D01*
X143738983Y-95629011D01*
X143738980Y-95629018D01*
X143716534Y-95712790D01*
X143700000Y-95774495D01*
X142270435Y-95774495D01*
X142316714Y-95728216D01*
X142348030Y-95673976D01*
X142355650Y-95660777D01*
X142392019Y-95597784D01*
X142431000Y-95452305D01*
X142431000Y-95301695D01*
X142392019Y-95156216D01*
X142316714Y-95025784D01*
X142316712Y-95025782D01*
X142316708Y-95025777D01*
X142210222Y-94919291D01*
X142210212Y-94919283D01*
X142079788Y-94843983D01*
X142079785Y-94843982D01*
X142079784Y-94843981D01*
X142079782Y-94843980D01*
X142079781Y-94843980D01*
X142040800Y-94833535D01*
X141934305Y-94805000D01*
X141783695Y-94805000D01*
X141705735Y-94825889D01*
X141638218Y-94843980D01*
X141638211Y-94843983D01*
X141507787Y-94919283D01*
X141507777Y-94919291D01*
X141401291Y-95025777D01*
X141401283Y-95025787D01*
X141325983Y-95156211D01*
X141325980Y-95156218D01*
X141287000Y-95301696D01*
X141287000Y-95314000D01*
X141266998Y-95382121D01*
X141213342Y-95428614D01*
X141161000Y-95440000D01*
X141021695Y-95440000D01*
X140943735Y-95460889D01*
X140876218Y-95478980D01*
X140876211Y-95478983D01*
X140745787Y-95554283D01*
X140745777Y-95554291D01*
X140639291Y-95660777D01*
X140639283Y-95660787D01*
X140563983Y-95791211D01*
X140563980Y-95791218D01*
X140552325Y-95834716D01*
X140525000Y-95936695D01*
X138551228Y-95936695D01*
X138650784Y-95910019D01*
X138781216Y-95834714D01*
X138887714Y-95728216D01*
X138963019Y-95597784D01*
X139002000Y-95452305D01*
X139002000Y-95301695D01*
X138963019Y-95156216D01*
X138887714Y-95025784D01*
X138887712Y-95025782D01*
X138887708Y-95025777D01*
X138781222Y-94919291D01*
X138781212Y-94919283D01*
X138650788Y-94843983D01*
X138650785Y-94843982D01*
X138650784Y-94843981D01*
X138650782Y-94843980D01*
X138650781Y-94843980D01*
X138611800Y-94833535D01*
X138505305Y-94805000D01*
X138354695Y-94805000D01*
X138276735Y-94825889D01*
X138209218Y-94843980D01*
X138209211Y-94843983D01*
X138078787Y-94919283D01*
X138078777Y-94919291D01*
X137972291Y-95025777D01*
X137972283Y-95025787D01*
X137896983Y-95156211D01*
X137896980Y-95156218D01*
X137885325Y-95199716D01*
X137858000Y-95301695D01*
X135827000Y-95301695D01*
X135788019Y-95156216D01*
X135712714Y-95025784D01*
X135712712Y-95025782D01*
X135712708Y-95025777D01*
X135606222Y-94919291D01*
X135606212Y-94919283D01*
X135475788Y-94843983D01*
X135475785Y-94843982D01*
X135475784Y-94843981D01*
X135475782Y-94843980D01*
X135475781Y-94843980D01*
X135436800Y-94833535D01*
X135330305Y-94805000D01*
X135179695Y-94805000D01*
X135101735Y-94825889D01*
X135034218Y-94843980D01*
X135034211Y-94843983D01*
X134903787Y-94919283D01*
X134903777Y-94919291D01*
X134797291Y-95025777D01*
X134797283Y-95025787D01*
X134721983Y-95156211D01*
X134721980Y-95156218D01*
X134710325Y-95199716D01*
X134683000Y-95301695D01*
X125564500Y-95301695D01*
X125564500Y-95163074D01*
X125537303Y-94991362D01*
X125483580Y-94826019D01*
X125404653Y-94671116D01*
X125330766Y-94569420D01*
X125302463Y-94530464D01*
X125179535Y-94407536D01*
X125038887Y-94305349D01*
X125038886Y-94305348D01*
X125038884Y-94305347D01*
X124883981Y-94226420D01*
X124883978Y-94226419D01*
X124883976Y-94226418D01*
X124718642Y-94172698D01*
X124718640Y-94172697D01*
X124718638Y-94172697D01*
X124631503Y-94158896D01*
X131809500Y-94158896D01*
X131809500Y-94309103D01*
X131838803Y-94456413D01*
X131896282Y-94595179D01*
X131979728Y-94720065D01*
X132085935Y-94826272D01*
X132210821Y-94909718D01*
X132349587Y-94967197D01*
X132496900Y-94996500D01*
X132647100Y-94996500D01*
X132794413Y-94967197D01*
X132933179Y-94909718D01*
X133058065Y-94826272D01*
X133164272Y-94720065D01*
X133247718Y-94595179D01*
X133305197Y-94456413D01*
X133334500Y-94309100D01*
X133334500Y-94158900D01*
X133309197Y-94031695D01*
X138874000Y-94031695D01*
X138874000Y-94182305D01*
X138885820Y-94226418D01*
X138912980Y-94327781D01*
X138912983Y-94327788D01*
X138988283Y-94458212D01*
X138988291Y-94458222D01*
X139094777Y-94564708D01*
X139094782Y-94564712D01*
X139094784Y-94564714D01*
X139094785Y-94564715D01*
X139094787Y-94564716D01*
X139186464Y-94617645D01*
X139225216Y-94640019D01*
X139370695Y-94679000D01*
X139370697Y-94679000D01*
X139521302Y-94679000D01*
X139521305Y-94679000D01*
X139604391Y-94656737D01*
X139675365Y-94658427D01*
X139734161Y-94698221D01*
X139762109Y-94763485D01*
X139763000Y-94778444D01*
X139763000Y-94817305D01*
X139787762Y-94909718D01*
X139801980Y-94962781D01*
X139801983Y-94962788D01*
X139877283Y-95093212D01*
X139877291Y-95093222D01*
X139983777Y-95199708D01*
X139983782Y-95199712D01*
X139983784Y-95199714D01*
X140114216Y-95275019D01*
X140259695Y-95314000D01*
X140259697Y-95314000D01*
X140410303Y-95314000D01*
X140410305Y-95314000D01*
X140555784Y-95275019D01*
X140686216Y-95199714D01*
X140792714Y-95093216D01*
X140868019Y-94962784D01*
X140907000Y-94817305D01*
X140907000Y-94666695D01*
X149288000Y-94666695D01*
X149288000Y-94817305D01*
X149312762Y-94909718D01*
X149326980Y-94962781D01*
X149326983Y-94962788D01*
X149402283Y-95093212D01*
X149402291Y-95093222D01*
X149508777Y-95199708D01*
X149508782Y-95199712D01*
X149508784Y-95199714D01*
X149639216Y-95275019D01*
X149784695Y-95314000D01*
X149784697Y-95314000D01*
X149935303Y-95314000D01*
X149935305Y-95314000D01*
X150080784Y-95275019D01*
X150211216Y-95199714D01*
X150317714Y-95093216D01*
X150393019Y-94962784D01*
X150432000Y-94817305D01*
X150432000Y-94666695D01*
X150393019Y-94521216D01*
X150317714Y-94390784D01*
X150317712Y-94390782D01*
X150317708Y-94390777D01*
X150211222Y-94284291D01*
X150211212Y-94284283D01*
X150080788Y-94208983D01*
X150080785Y-94208982D01*
X150080784Y-94208981D01*
X150080782Y-94208980D01*
X150080781Y-94208980D01*
X150041800Y-94198535D01*
X149935305Y-94170000D01*
X149784695Y-94170000D01*
X149707919Y-94190572D01*
X149639218Y-94208980D01*
X149639211Y-94208983D01*
X149508787Y-94284283D01*
X149508777Y-94284291D01*
X149402291Y-94390777D01*
X149402283Y-94390787D01*
X149326983Y-94521211D01*
X149326980Y-94521218D01*
X149315325Y-94564716D01*
X149288000Y-94666695D01*
X140907000Y-94666695D01*
X140868019Y-94521216D01*
X140792714Y-94390784D01*
X140792712Y-94390782D01*
X140792708Y-94390777D01*
X140686222Y-94284291D01*
X140686212Y-94284283D01*
X140555788Y-94208983D01*
X140555785Y-94208982D01*
X140555784Y-94208981D01*
X140555782Y-94208980D01*
X140555781Y-94208980D01*
X140516800Y-94198535D01*
X140410305Y-94170000D01*
X140259695Y-94170000D01*
X140259694Y-94170000D01*
X140176610Y-94192262D01*
X140105634Y-94190572D01*
X140046838Y-94150777D01*
X140018891Y-94085513D01*
X140018000Y-94070555D01*
X140018000Y-94031696D01*
X140012612Y-94011587D01*
X139979019Y-93886216D01*
X139921912Y-93787303D01*
X139903716Y-93755787D01*
X139903708Y-93755777D01*
X139797222Y-93649291D01*
X139797212Y-93649283D01*
X139666788Y-93573983D01*
X139666785Y-93573982D01*
X139666784Y-93573981D01*
X139666782Y-93573980D01*
X139666781Y-93573980D01*
X139608198Y-93558283D01*
X139521305Y-93535000D01*
X139370695Y-93535000D01*
X139305515Y-93552465D01*
X139225218Y-93573980D01*
X139225211Y-93573983D01*
X139094787Y-93649283D01*
X139094777Y-93649291D01*
X138988291Y-93755777D01*
X138988283Y-93755787D01*
X138912983Y-93886211D01*
X138912980Y-93886218D01*
X138901325Y-93929716D01*
X138874000Y-94031695D01*
X133309197Y-94031695D01*
X133305197Y-94011587D01*
X133247718Y-93872821D01*
X133164272Y-93747935D01*
X133058065Y-93641728D01*
X132933179Y-93558282D01*
X132804174Y-93504846D01*
X132804172Y-93504845D01*
X132794419Y-93500805D01*
X132794414Y-93500803D01*
X132647103Y-93471500D01*
X132647100Y-93471500D01*
X132496900Y-93471500D01*
X132496896Y-93471500D01*
X132349585Y-93500803D01*
X132349584Y-93500804D01*
X132339826Y-93504846D01*
X132224865Y-93552465D01*
X132210819Y-93558283D01*
X132085939Y-93641725D01*
X132085932Y-93641730D01*
X131979730Y-93747932D01*
X131979725Y-93747939D01*
X131896283Y-93872819D01*
X131838804Y-94011584D01*
X131838803Y-94011585D01*
X131809500Y-94158896D01*
X124631503Y-94158896D01*
X124546926Y-94145500D01*
X124373074Y-94145500D01*
X124201362Y-94172697D01*
X124201360Y-94172697D01*
X124201357Y-94172698D01*
X124036023Y-94226418D01*
X124036017Y-94226421D01*
X123881112Y-94305349D01*
X123740464Y-94407536D01*
X123617536Y-94530464D01*
X123515349Y-94671112D01*
X123436421Y-94826017D01*
X123436418Y-94826023D01*
X123382698Y-94991357D01*
X123382697Y-94991360D01*
X123382697Y-94991362D01*
X123355500Y-95163074D01*
X117340500Y-95163074D01*
X117340500Y-92623074D01*
X123355500Y-92623074D01*
X123355500Y-92796926D01*
X123376056Y-92926706D01*
X123382698Y-92968642D01*
X123432129Y-93120777D01*
X123436420Y-93133981D01*
X123515347Y-93288884D01*
X123515349Y-93288887D01*
X123617536Y-93429535D01*
X123740464Y-93552463D01*
X123740467Y-93552465D01*
X123881116Y-93654653D01*
X124036019Y-93733580D01*
X124201362Y-93787303D01*
X124373074Y-93814500D01*
X124373077Y-93814500D01*
X124546923Y-93814500D01*
X124546926Y-93814500D01*
X124718638Y-93787303D01*
X124883981Y-93733580D01*
X125038884Y-93654653D01*
X125179533Y-93552465D01*
X125302465Y-93429533D01*
X125326323Y-93396695D01*
X142049000Y-93396695D01*
X142049000Y-93547305D01*
X142074300Y-93641725D01*
X142087980Y-93692781D01*
X142087983Y-93692788D01*
X142163283Y-93823212D01*
X142163291Y-93823222D01*
X142269777Y-93929708D01*
X142269782Y-93929712D01*
X142269784Y-93929714D01*
X142400216Y-94005019D01*
X142545695Y-94044000D01*
X142545697Y-94044000D01*
X142696303Y-94044000D01*
X142696305Y-94044000D01*
X142841784Y-94005019D01*
X142972216Y-93929714D01*
X143078714Y-93823216D01*
X143154019Y-93692784D01*
X143193000Y-93547305D01*
X143193000Y-93396695D01*
X143154019Y-93251216D01*
X143086334Y-93133982D01*
X143078716Y-93120787D01*
X143078708Y-93120777D01*
X142972222Y-93014291D01*
X142972212Y-93014283D01*
X142841788Y-92938983D01*
X142841785Y-92938982D01*
X142841784Y-92938981D01*
X142841782Y-92938980D01*
X142841781Y-92938980D01*
X142795966Y-92926704D01*
X142696305Y-92900000D01*
X142545695Y-92900000D01*
X142467735Y-92920889D01*
X142400218Y-92938980D01*
X142400211Y-92938983D01*
X142269787Y-93014283D01*
X142269777Y-93014291D01*
X142163291Y-93120777D01*
X142163283Y-93120787D01*
X142087983Y-93251211D01*
X142087980Y-93251218D01*
X142072467Y-93309115D01*
X142049000Y-93396695D01*
X125326323Y-93396695D01*
X125404653Y-93288884D01*
X125483580Y-93133981D01*
X125537303Y-92968638D01*
X125564500Y-92796926D01*
X125564500Y-92623074D01*
X125537303Y-92451362D01*
X125514342Y-92380695D01*
X127952000Y-92380695D01*
X127952000Y-92531305D01*
X127976590Y-92623077D01*
X127990980Y-92676781D01*
X127990983Y-92676788D01*
X128066283Y-92807212D01*
X128066291Y-92807222D01*
X128172777Y-92913708D01*
X128172782Y-92913712D01*
X128172784Y-92913714D01*
X128172785Y-92913715D01*
X128172787Y-92913716D01*
X128216551Y-92938983D01*
X128303216Y-92989019D01*
X128448695Y-93028000D01*
X128448697Y-93028000D01*
X128599303Y-93028000D01*
X128599305Y-93028000D01*
X128744784Y-92989019D01*
X128875216Y-92913714D01*
X128981714Y-92807216D01*
X128999681Y-92776096D01*
X145746401Y-92776096D01*
X145746401Y-92926706D01*
X145749691Y-92938983D01*
X145785381Y-93072182D01*
X145785384Y-93072189D01*
X145860684Y-93202613D01*
X145860692Y-93202623D01*
X145967178Y-93309109D01*
X145967183Y-93309113D01*
X145967185Y-93309115D01*
X146097617Y-93384420D01*
X146243096Y-93423401D01*
X146243098Y-93423401D01*
X146393704Y-93423401D01*
X146393706Y-93423401D01*
X146539185Y-93384420D01*
X146669617Y-93309115D01*
X146776115Y-93202617D01*
X146851420Y-93072185D01*
X146890401Y-92926706D01*
X146890401Y-92776096D01*
X147936820Y-92776096D01*
X147936820Y-92926706D01*
X147940110Y-92938983D01*
X147975800Y-93072182D01*
X147975803Y-93072189D01*
X148051103Y-93202613D01*
X148051111Y-93202623D01*
X148157597Y-93309109D01*
X148157602Y-93309113D01*
X148157604Y-93309115D01*
X148288036Y-93384420D01*
X148433515Y-93423401D01*
X148433517Y-93423401D01*
X148584123Y-93423401D01*
X148584125Y-93423401D01*
X148683793Y-93396695D01*
X150050000Y-93396695D01*
X150050000Y-93547305D01*
X150075300Y-93641725D01*
X150088980Y-93692781D01*
X150088983Y-93692788D01*
X150164283Y-93823212D01*
X150164291Y-93823222D01*
X150270777Y-93929708D01*
X150270782Y-93929712D01*
X150270784Y-93929714D01*
X150401216Y-94005019D01*
X150546695Y-94044000D01*
X150559000Y-94044000D01*
X150627121Y-94064002D01*
X150673614Y-94117658D01*
X150685000Y-94170000D01*
X150685000Y-94182305D01*
X150696820Y-94226418D01*
X150723980Y-94327781D01*
X150723983Y-94327788D01*
X150799283Y-94458212D01*
X150799291Y-94458222D01*
X150905777Y-94564708D01*
X150905782Y-94564712D01*
X150905784Y-94564714D01*
X150905785Y-94564715D01*
X150905787Y-94564716D01*
X150997464Y-94617645D01*
X151036216Y-94640019D01*
X151181695Y-94679000D01*
X151181697Y-94679000D01*
X151332303Y-94679000D01*
X151332305Y-94679000D01*
X151477784Y-94640019D01*
X151608216Y-94564714D01*
X151714714Y-94458216D01*
X151790019Y-94327784D01*
X151829000Y-94182305D01*
X151829000Y-94031695D01*
X151790019Y-93886216D01*
X151732912Y-93787303D01*
X151714716Y-93755787D01*
X151714708Y-93755777D01*
X151608222Y-93649291D01*
X151608212Y-93649283D01*
X151477788Y-93573983D01*
X151477785Y-93573982D01*
X151477784Y-93573981D01*
X151477782Y-93573980D01*
X151477781Y-93573980D01*
X151419198Y-93558283D01*
X151332305Y-93535000D01*
X151332303Y-93535000D01*
X151320000Y-93535000D01*
X151251879Y-93514998D01*
X151205386Y-93461342D01*
X151194000Y-93409000D01*
X151194000Y-93396696D01*
X151190710Y-93384417D01*
X151155019Y-93251216D01*
X151087334Y-93133982D01*
X151079716Y-93120787D01*
X151079708Y-93120777D01*
X150973222Y-93014291D01*
X150973212Y-93014283D01*
X150842788Y-92938983D01*
X150842785Y-92938982D01*
X150842784Y-92938981D01*
X150842782Y-92938980D01*
X150842781Y-92938980D01*
X150796966Y-92926704D01*
X150697305Y-92900000D01*
X150546695Y-92900000D01*
X150468735Y-92920889D01*
X150401218Y-92938980D01*
X150401211Y-92938983D01*
X150270787Y-93014283D01*
X150270777Y-93014291D01*
X150164291Y-93120777D01*
X150164283Y-93120787D01*
X150088983Y-93251211D01*
X150088980Y-93251218D01*
X150073467Y-93309115D01*
X150050000Y-93396695D01*
X148683793Y-93396695D01*
X148729604Y-93384420D01*
X148860036Y-93309115D01*
X148860042Y-93309109D01*
X148869810Y-93299342D01*
X148966528Y-93202623D01*
X148966534Y-93202617D01*
X149041839Y-93072185D01*
X149080820Y-92926706D01*
X149080820Y-92776096D01*
X149041839Y-92630617D01*
X148966534Y-92500185D01*
X148966532Y-92500183D01*
X148966528Y-92500178D01*
X148860042Y-92393692D01*
X148860032Y-92393684D01*
X148729608Y-92318384D01*
X148729605Y-92318383D01*
X148729604Y-92318382D01*
X148729602Y-92318381D01*
X148729601Y-92318381D01*
X148690620Y-92307936D01*
X148584125Y-92279401D01*
X148433515Y-92279401D01*
X148355555Y-92300290D01*
X148288038Y-92318381D01*
X148288031Y-92318384D01*
X148157607Y-92393684D01*
X148157597Y-92393692D01*
X148051111Y-92500178D01*
X148051103Y-92500188D01*
X147975803Y-92630612D01*
X147975800Y-92630619D01*
X147951087Y-92722848D01*
X147936820Y-92776096D01*
X146890401Y-92776096D01*
X146851420Y-92630617D01*
X146776115Y-92500185D01*
X146776113Y-92500183D01*
X146776109Y-92500178D01*
X146669623Y-92393692D01*
X146669613Y-92393684D01*
X146539189Y-92318384D01*
X146539186Y-92318383D01*
X146539185Y-92318382D01*
X146539183Y-92318381D01*
X146539182Y-92318381D01*
X146500201Y-92307936D01*
X146393706Y-92279401D01*
X146243096Y-92279401D01*
X146165136Y-92300290D01*
X146097619Y-92318381D01*
X146097612Y-92318384D01*
X145967188Y-92393684D01*
X145967178Y-92393692D01*
X145860692Y-92500178D01*
X145860684Y-92500188D01*
X145785384Y-92630612D01*
X145785381Y-92630619D01*
X145760668Y-92722848D01*
X145746401Y-92776096D01*
X128999681Y-92776096D01*
X129057019Y-92676784D01*
X129096000Y-92531305D01*
X129096000Y-92380695D01*
X129057019Y-92235216D01*
X128996917Y-92131116D01*
X128981716Y-92104787D01*
X128981708Y-92104777D01*
X128875222Y-91998291D01*
X128875212Y-91998283D01*
X128744788Y-91922983D01*
X128744785Y-91922982D01*
X128744784Y-91922981D01*
X128744782Y-91922980D01*
X128744781Y-91922980D01*
X128705800Y-91912535D01*
X128599305Y-91884000D01*
X128448695Y-91884000D01*
X128370735Y-91904889D01*
X128303218Y-91922980D01*
X128303211Y-91922983D01*
X128172787Y-91998283D01*
X128172777Y-91998291D01*
X128066291Y-92104777D01*
X128066283Y-92104787D01*
X127990983Y-92235211D01*
X127990980Y-92235218D01*
X127977369Y-92286017D01*
X127952000Y-92380695D01*
X125514342Y-92380695D01*
X125483580Y-92286019D01*
X125404653Y-92131116D01*
X125369592Y-92082859D01*
X125302463Y-91990464D01*
X125179535Y-91867536D01*
X125038887Y-91765349D01*
X125038886Y-91765348D01*
X125038884Y-91765347D01*
X124883981Y-91686420D01*
X124883978Y-91686419D01*
X124883976Y-91686418D01*
X124718642Y-91632698D01*
X124718640Y-91632697D01*
X124718638Y-91632697D01*
X124546926Y-91605500D01*
X124373074Y-91605500D01*
X124201362Y-91632697D01*
X124201360Y-91632697D01*
X124201357Y-91632698D01*
X124036023Y-91686418D01*
X124036017Y-91686421D01*
X123881112Y-91765349D01*
X123740464Y-91867536D01*
X123617536Y-91990464D01*
X123515349Y-92131112D01*
X123436421Y-92286017D01*
X123436418Y-92286023D01*
X123382698Y-92451357D01*
X123382697Y-92451360D01*
X123382697Y-92451362D01*
X123355500Y-92623074D01*
X117340500Y-92623074D01*
X117340500Y-90083074D01*
X123355500Y-90083074D01*
X123355500Y-90256926D01*
X123382697Y-90428638D01*
X123436420Y-90593981D01*
X123515347Y-90748884D01*
X123515349Y-90748887D01*
X123617536Y-90889535D01*
X123740464Y-91012463D01*
X123740467Y-91012465D01*
X123881116Y-91114653D01*
X124036019Y-91193580D01*
X124201362Y-91247303D01*
X124373074Y-91274500D01*
X124373077Y-91274500D01*
X124546923Y-91274500D01*
X124546926Y-91274500D01*
X124718638Y-91247303D01*
X124883981Y-91193580D01*
X125038884Y-91114653D01*
X125179533Y-91012465D01*
X125302465Y-90889533D01*
X125404653Y-90748884D01*
X125483580Y-90593981D01*
X125537303Y-90428638D01*
X125549965Y-90348695D01*
X127317000Y-90348695D01*
X127317000Y-90499305D01*
X127321953Y-90517788D01*
X127355980Y-90644781D01*
X127355983Y-90644788D01*
X127431283Y-90775212D01*
X127431291Y-90775222D01*
X127537777Y-90881708D01*
X127537782Y-90881712D01*
X127537784Y-90881714D01*
X127668216Y-90957019D01*
X127813695Y-90996000D01*
X127813697Y-90996000D01*
X127964303Y-90996000D01*
X127964305Y-90996000D01*
X128109784Y-90957019D01*
X128240216Y-90881714D01*
X128346714Y-90775216D01*
X128422019Y-90644784D01*
X128461000Y-90499305D01*
X128461000Y-90348695D01*
X128426970Y-90221695D01*
X143065000Y-90221695D01*
X143065000Y-90372305D01*
X143093535Y-90478800D01*
X143103980Y-90517781D01*
X143103983Y-90517788D01*
X143179283Y-90648212D01*
X143179291Y-90648222D01*
X143285777Y-90754708D01*
X143285782Y-90754712D01*
X143285784Y-90754714D01*
X143285785Y-90754715D01*
X143285787Y-90754716D01*
X143321294Y-90775216D01*
X143416216Y-90830019D01*
X143561695Y-90869000D01*
X143561697Y-90869000D01*
X143712303Y-90869000D01*
X143712305Y-90869000D01*
X143857784Y-90830019D01*
X143988216Y-90754714D01*
X144094714Y-90648216D01*
X144170019Y-90517784D01*
X144209000Y-90372305D01*
X144209000Y-90331121D01*
X144229002Y-90263000D01*
X144282658Y-90216507D01*
X144352932Y-90206403D01*
X144417512Y-90235897D01*
X144424095Y-90242026D01*
X144428777Y-90246708D01*
X144428782Y-90246712D01*
X144428784Y-90246714D01*
X144428785Y-90246715D01*
X144428787Y-90246716D01*
X144456992Y-90263000D01*
X144559216Y-90322019D01*
X144704695Y-90361000D01*
X144704697Y-90361000D01*
X144855303Y-90361000D01*
X144855305Y-90361000D01*
X145000784Y-90322019D01*
X145131216Y-90246714D01*
X145156235Y-90221695D01*
X149034000Y-90221695D01*
X149034000Y-90372305D01*
X149062535Y-90478800D01*
X149072980Y-90517781D01*
X149072983Y-90517788D01*
X149148283Y-90648212D01*
X149148291Y-90648222D01*
X149254777Y-90754708D01*
X149254782Y-90754712D01*
X149254784Y-90754714D01*
X149254785Y-90754715D01*
X149254787Y-90754716D01*
X149290294Y-90775216D01*
X149385216Y-90830019D01*
X149530695Y-90869000D01*
X149530697Y-90869000D01*
X149681303Y-90869000D01*
X149681305Y-90869000D01*
X149826784Y-90830019D01*
X149957216Y-90754714D01*
X150063714Y-90648216D01*
X150139019Y-90517784D01*
X150178000Y-90372305D01*
X150178000Y-90221695D01*
X150139019Y-90076216D01*
X150100667Y-90009788D01*
X150063716Y-89945787D01*
X150063708Y-89945777D01*
X149957222Y-89839291D01*
X149957212Y-89839283D01*
X149826788Y-89763983D01*
X149826785Y-89763982D01*
X149826784Y-89763981D01*
X149826782Y-89763980D01*
X149826781Y-89763980D01*
X149787800Y-89753535D01*
X149681305Y-89725000D01*
X149530695Y-89725000D01*
X149452735Y-89745889D01*
X149385218Y-89763980D01*
X149385211Y-89763983D01*
X149254787Y-89839283D01*
X149254777Y-89839291D01*
X149148291Y-89945777D01*
X149148283Y-89945787D01*
X149072983Y-90076211D01*
X149072980Y-90076218D01*
X149055832Y-90140216D01*
X149034000Y-90221695D01*
X145156235Y-90221695D01*
X145237714Y-90140216D01*
X145313019Y-90009784D01*
X145352000Y-89864305D01*
X145352000Y-89713695D01*
X145313019Y-89568216D01*
X145237714Y-89437784D01*
X145237712Y-89437782D01*
X145237708Y-89437777D01*
X145131222Y-89331291D01*
X145131212Y-89331283D01*
X145000788Y-89255983D01*
X145000785Y-89255982D01*
X145000784Y-89255981D01*
X145000782Y-89255980D01*
X145000781Y-89255980D01*
X144961800Y-89245535D01*
X144855305Y-89217000D01*
X144704695Y-89217000D01*
X144626735Y-89237889D01*
X144559218Y-89255980D01*
X144559211Y-89255983D01*
X144428787Y-89331283D01*
X144428777Y-89331291D01*
X144322291Y-89437777D01*
X144322283Y-89437787D01*
X144246983Y-89568211D01*
X144246980Y-89568218D01*
X144208000Y-89713696D01*
X144208000Y-89754879D01*
X144187998Y-89823000D01*
X144134342Y-89869493D01*
X144064068Y-89879597D01*
X143999488Y-89850103D01*
X143992905Y-89843974D01*
X143988222Y-89839291D01*
X143988212Y-89839283D01*
X143857788Y-89763983D01*
X143857785Y-89763982D01*
X143857784Y-89763981D01*
X143857782Y-89763980D01*
X143857781Y-89763980D01*
X143818800Y-89753535D01*
X143712305Y-89725000D01*
X143561695Y-89725000D01*
X143483735Y-89745889D01*
X143416218Y-89763980D01*
X143416211Y-89763983D01*
X143285787Y-89839283D01*
X143285777Y-89839291D01*
X143179291Y-89945777D01*
X143179283Y-89945787D01*
X143103983Y-90076211D01*
X143103980Y-90076218D01*
X143086832Y-90140216D01*
X143065000Y-90221695D01*
X128426970Y-90221695D01*
X128422019Y-90203216D01*
X128348697Y-90076218D01*
X128346716Y-90072787D01*
X128346708Y-90072777D01*
X128240222Y-89966291D01*
X128240212Y-89966283D01*
X128109788Y-89890983D01*
X128109785Y-89890982D01*
X128109784Y-89890981D01*
X128109782Y-89890980D01*
X128109781Y-89890980D01*
X128067298Y-89879597D01*
X127964305Y-89852000D01*
X127813695Y-89852000D01*
X127735735Y-89872889D01*
X127668218Y-89890980D01*
X127668211Y-89890983D01*
X127537787Y-89966283D01*
X127537777Y-89966291D01*
X127431291Y-90072777D01*
X127431283Y-90072787D01*
X127355983Y-90203211D01*
X127355980Y-90203218D01*
X127341589Y-90256926D01*
X127317000Y-90348695D01*
X125549965Y-90348695D01*
X125564500Y-90256926D01*
X125564500Y-90083074D01*
X125537303Y-89911362D01*
X125483580Y-89746019D01*
X125404653Y-89591116D01*
X125302465Y-89450467D01*
X125302463Y-89450464D01*
X125179535Y-89327536D01*
X125038887Y-89225349D01*
X125038886Y-89225348D01*
X125038884Y-89225347D01*
X124883981Y-89146420D01*
X124883978Y-89146419D01*
X124883976Y-89146418D01*
X124718642Y-89092698D01*
X124718640Y-89092697D01*
X124718638Y-89092697D01*
X124546926Y-89065500D01*
X124373074Y-89065500D01*
X124201362Y-89092697D01*
X124201360Y-89092697D01*
X124201357Y-89092698D01*
X124036023Y-89146418D01*
X124036017Y-89146421D01*
X123881112Y-89225349D01*
X123740464Y-89327536D01*
X123617536Y-89450464D01*
X123515349Y-89591112D01*
X123436421Y-89746017D01*
X123436418Y-89746023D01*
X123382698Y-89911357D01*
X123382697Y-89911360D01*
X123382697Y-89911362D01*
X123355500Y-90083074D01*
X117340500Y-90083074D01*
X117340500Y-87543074D01*
X123355500Y-87543074D01*
X123355500Y-87716926D01*
X123382042Y-87884500D01*
X123382698Y-87888642D01*
X123433247Y-88044218D01*
X123436420Y-88053981D01*
X123515347Y-88208884D01*
X123515349Y-88208887D01*
X123617536Y-88349535D01*
X123740464Y-88472463D01*
X123740467Y-88472465D01*
X123881116Y-88574653D01*
X124036019Y-88653580D01*
X124201362Y-88707303D01*
X124373074Y-88734500D01*
X124373077Y-88734500D01*
X124546923Y-88734500D01*
X124546926Y-88734500D01*
X124718638Y-88707303D01*
X124883981Y-88653580D01*
X125038884Y-88574653D01*
X125179533Y-88472465D01*
X125302465Y-88349533D01*
X125404653Y-88208884D01*
X125414430Y-88189695D01*
X144208000Y-88189695D01*
X144208000Y-88340305D01*
X144236535Y-88446800D01*
X144246980Y-88485781D01*
X144246983Y-88485788D01*
X144322283Y-88616212D01*
X144322291Y-88616222D01*
X144428777Y-88722708D01*
X144428782Y-88722712D01*
X144428784Y-88722714D01*
X144428785Y-88722715D01*
X144428787Y-88722716D01*
X144441878Y-88730274D01*
X144559216Y-88798019D01*
X144704695Y-88837000D01*
X144704697Y-88837000D01*
X144855303Y-88837000D01*
X144855305Y-88837000D01*
X145000784Y-88798019D01*
X145131216Y-88722714D01*
X145237714Y-88616216D01*
X145313019Y-88485784D01*
X145352000Y-88340305D01*
X145352000Y-88189695D01*
X145313019Y-88044216D01*
X145237714Y-87913784D01*
X145237712Y-87913782D01*
X145237708Y-87913777D01*
X145131222Y-87807291D01*
X145131212Y-87807283D01*
X145000788Y-87731983D01*
X145000785Y-87731982D01*
X145000784Y-87731981D01*
X145000782Y-87731980D01*
X145000781Y-87731980D01*
X144944583Y-87716922D01*
X144855305Y-87693000D01*
X144704695Y-87693000D01*
X144626735Y-87713889D01*
X144559218Y-87731980D01*
X144559211Y-87731983D01*
X144428787Y-87807283D01*
X144428777Y-87807291D01*
X144322291Y-87913777D01*
X144322283Y-87913787D01*
X144246983Y-88044211D01*
X144246980Y-88044218D01*
X144225540Y-88124234D01*
X144208000Y-88189695D01*
X125414430Y-88189695D01*
X125483580Y-88053981D01*
X125537303Y-87888638D01*
X125564500Y-87716926D01*
X125564500Y-87543074D01*
X125537303Y-87371362D01*
X125483580Y-87206019D01*
X125404653Y-87051116D01*
X125401589Y-87046899D01*
X131825500Y-87046899D01*
X131825500Y-87197103D01*
X131854803Y-87344413D01*
X131912282Y-87483179D01*
X131995728Y-87608065D01*
X132101935Y-87714272D01*
X132226821Y-87797718D01*
X132365587Y-87855197D01*
X132512900Y-87884500D01*
X132663100Y-87884500D01*
X132810413Y-87855197D01*
X132949179Y-87797718D01*
X133074065Y-87714272D01*
X133180272Y-87608065D01*
X133263718Y-87483179D01*
X133321197Y-87344413D01*
X133350500Y-87197100D01*
X133350500Y-87046900D01*
X133350500Y-87046899D01*
X135889500Y-87046899D01*
X135889500Y-87197103D01*
X135918803Y-87344413D01*
X135976282Y-87483179D01*
X136059728Y-87608065D01*
X136165935Y-87714272D01*
X136290821Y-87797718D01*
X136429587Y-87855197D01*
X136576900Y-87884500D01*
X136727100Y-87884500D01*
X136874413Y-87855197D01*
X137013179Y-87797718D01*
X137138065Y-87714272D01*
X137244272Y-87608065D01*
X137327718Y-87483179D01*
X137385197Y-87344413D01*
X137414500Y-87197100D01*
X137414500Y-87046900D01*
X137414500Y-87046899D01*
X137414499Y-87046892D01*
X137387361Y-86910467D01*
X137385197Y-86899587D01*
X137327718Y-86760821D01*
X137327717Y-86760819D01*
X137327716Y-86760817D01*
X137327715Y-86760816D01*
X137305414Y-86727440D01*
X137305413Y-86727439D01*
X137277288Y-86685347D01*
X137264157Y-86665695D01*
X150304000Y-86665695D01*
X150304000Y-86816305D01*
X150326315Y-86899584D01*
X150342980Y-86961781D01*
X150342983Y-86961788D01*
X150418283Y-87092212D01*
X150418291Y-87092222D01*
X150524777Y-87198708D01*
X150524782Y-87198712D01*
X150524784Y-87198714D01*
X150524785Y-87198715D01*
X150524787Y-87198716D01*
X150579541Y-87230328D01*
X150655216Y-87274019D01*
X150668800Y-87277658D01*
X150729422Y-87314610D01*
X150760443Y-87378471D01*
X150752015Y-87448965D01*
X150706812Y-87503712D01*
X150706190Y-87504130D01*
X150643939Y-87545724D01*
X150643932Y-87545730D01*
X150537730Y-87651932D01*
X150537725Y-87651939D01*
X150454283Y-87776819D01*
X150396804Y-87915584D01*
X150396803Y-87915585D01*
X150367500Y-88062896D01*
X150367500Y-88213103D01*
X150392803Y-88340303D01*
X150396803Y-88360413D01*
X150454282Y-88499179D01*
X150537728Y-88624065D01*
X150643935Y-88730272D01*
X150768821Y-88813718D01*
X150907587Y-88871197D01*
X151054900Y-88900500D01*
X151205100Y-88900500D01*
X151352413Y-88871197D01*
X151491179Y-88813718D01*
X151616065Y-88730272D01*
X151722272Y-88624065D01*
X151805718Y-88499179D01*
X151863197Y-88360413D01*
X151892500Y-88213100D01*
X151892500Y-88062900D01*
X151863197Y-87915587D01*
X151805718Y-87776821D01*
X151722272Y-87651935D01*
X151616065Y-87545728D01*
X151491179Y-87462282D01*
X151352413Y-87404803D01*
X151307289Y-87395827D01*
X151244380Y-87362918D01*
X151209249Y-87301223D01*
X151213050Y-87230328D01*
X151242775Y-87183154D01*
X151333714Y-87092216D01*
X151409019Y-86961784D01*
X151448000Y-86816305D01*
X151448000Y-86665695D01*
X151409019Y-86520216D01*
X151333714Y-86389784D01*
X151333712Y-86389782D01*
X151333708Y-86389777D01*
X151227222Y-86283291D01*
X151227212Y-86283283D01*
X151096788Y-86207983D01*
X151096785Y-86207982D01*
X151096784Y-86207981D01*
X151096782Y-86207980D01*
X151096781Y-86207980D01*
X151057800Y-86197535D01*
X150951305Y-86169000D01*
X150800695Y-86169000D01*
X150722735Y-86189889D01*
X150655218Y-86207980D01*
X150655211Y-86207983D01*
X150524787Y-86283283D01*
X150524777Y-86283291D01*
X150418291Y-86389777D01*
X150418283Y-86389787D01*
X150342983Y-86520211D01*
X150342980Y-86520218D01*
X150334277Y-86552698D01*
X150304000Y-86665695D01*
X137264157Y-86665695D01*
X137244272Y-86635935D01*
X137138065Y-86529728D01*
X137013179Y-86446282D01*
X136874414Y-86388803D01*
X136727103Y-86359500D01*
X136727100Y-86359500D01*
X136576900Y-86359500D01*
X136576896Y-86359500D01*
X136429585Y-86388803D01*
X136429584Y-86388804D01*
X136290819Y-86446283D01*
X136165939Y-86529725D01*
X136165932Y-86529730D01*
X136059730Y-86635932D01*
X136059725Y-86635939D01*
X135976283Y-86760819D01*
X135918804Y-86899584D01*
X135918803Y-86899585D01*
X135889501Y-87046892D01*
X135889500Y-87046899D01*
X133350500Y-87046899D01*
X133350499Y-87046892D01*
X133323361Y-86910467D01*
X133321197Y-86899587D01*
X133263718Y-86760821D01*
X133180272Y-86635935D01*
X133074065Y-86529728D01*
X132949179Y-86446282D01*
X132810414Y-86388803D01*
X132663103Y-86359500D01*
X132663100Y-86359500D01*
X132512900Y-86359500D01*
X132512896Y-86359500D01*
X132365585Y-86388803D01*
X132365584Y-86388804D01*
X132226819Y-86446283D01*
X132101939Y-86529725D01*
X132101932Y-86529730D01*
X131995730Y-86635932D01*
X131995725Y-86635939D01*
X131912283Y-86760819D01*
X131854804Y-86899584D01*
X131854803Y-86899585D01*
X131825501Y-87046892D01*
X131825500Y-87046899D01*
X125401589Y-87046899D01*
X125302465Y-86910467D01*
X125302463Y-86910464D01*
X125179535Y-86787536D01*
X125038887Y-86685349D01*
X125038886Y-86685348D01*
X125038884Y-86685347D01*
X124883981Y-86606420D01*
X124883978Y-86606419D01*
X124883976Y-86606418D01*
X124718642Y-86552698D01*
X124718640Y-86552697D01*
X124718638Y-86552697D01*
X124546926Y-86525500D01*
X124373074Y-86525500D01*
X124201362Y-86552697D01*
X124201360Y-86552697D01*
X124201357Y-86552698D01*
X124036023Y-86606418D01*
X124036017Y-86606421D01*
X123881112Y-86685349D01*
X123740464Y-86787536D01*
X123617536Y-86910464D01*
X123515349Y-87051112D01*
X123436421Y-87206017D01*
X123436418Y-87206023D01*
X123382698Y-87371357D01*
X123382697Y-87371360D01*
X123382697Y-87371362D01*
X123355500Y-87543074D01*
X117340500Y-87543074D01*
X117340500Y-81331695D01*
X137731000Y-81331695D01*
X137731000Y-81482305D01*
X137758325Y-81584283D01*
X137769980Y-81627781D01*
X137769983Y-81627788D01*
X137845283Y-81758212D01*
X137845291Y-81758222D01*
X137951777Y-81864708D01*
X137951782Y-81864712D01*
X137951784Y-81864714D01*
X138082216Y-81940019D01*
X138227695Y-81979000D01*
X138227697Y-81979000D01*
X138367000Y-81979000D01*
X138435121Y-81999002D01*
X138481614Y-82052658D01*
X138493000Y-82105000D01*
X138493000Y-82117305D01*
X138521535Y-82223800D01*
X138531980Y-82262781D01*
X138531983Y-82262788D01*
X138607283Y-82393212D01*
X138607291Y-82393222D01*
X138713777Y-82499708D01*
X138713782Y-82499712D01*
X138713784Y-82499714D01*
X138844216Y-82575019D01*
X138989695Y-82614000D01*
X138989697Y-82614000D01*
X139140303Y-82614000D01*
X139140305Y-82614000D01*
X139285784Y-82575019D01*
X139416216Y-82499714D01*
X139522714Y-82393216D01*
X139598019Y-82262784D01*
X139637000Y-82117305D01*
X139637000Y-81966695D01*
X139598019Y-81821216D01*
X139522714Y-81690784D01*
X139522712Y-81690782D01*
X139522708Y-81690777D01*
X139416222Y-81584291D01*
X139416212Y-81584283D01*
X139285788Y-81508983D01*
X139285785Y-81508982D01*
X139285784Y-81508981D01*
X139285782Y-81508980D01*
X139285781Y-81508980D01*
X139246800Y-81498535D01*
X139140305Y-81470000D01*
X139001000Y-81470000D01*
X138932879Y-81449998D01*
X138886386Y-81396342D01*
X138875000Y-81344000D01*
X138875000Y-81331696D01*
X138875000Y-81331695D01*
X138836019Y-81186216D01*
X138760714Y-81055784D01*
X138760712Y-81055782D01*
X138760708Y-81055777D01*
X138654222Y-80949291D01*
X138654212Y-80949283D01*
X138523788Y-80873983D01*
X138523785Y-80873982D01*
X138523784Y-80873981D01*
X138523782Y-80873980D01*
X138523781Y-80873980D01*
X138484800Y-80863535D01*
X138378305Y-80835000D01*
X138227695Y-80835000D01*
X138149735Y-80855889D01*
X138082218Y-80873980D01*
X138082211Y-80873983D01*
X137951787Y-80949283D01*
X137951777Y-80949291D01*
X137845291Y-81055777D01*
X137845283Y-81055787D01*
X137769983Y-81186211D01*
X137769981Y-81186216D01*
X137731000Y-81331695D01*
X117340500Y-81331695D01*
X117340500Y-80061695D01*
X142049000Y-80061695D01*
X142049000Y-80212305D01*
X142076703Y-80315695D01*
X142087980Y-80357781D01*
X142087983Y-80357788D01*
X142163283Y-80488212D01*
X142163291Y-80488222D01*
X142269777Y-80594708D01*
X142269782Y-80594712D01*
X142269784Y-80594714D01*
X142400216Y-80670019D01*
X142545695Y-80709000D01*
X142545697Y-80709000D01*
X142696303Y-80709000D01*
X142696305Y-80709000D01*
X142841784Y-80670019D01*
X142972216Y-80594714D01*
X143078714Y-80488216D01*
X143154019Y-80357784D01*
X143165297Y-80315695D01*
X144589000Y-80315695D01*
X144589000Y-80466305D01*
X144594870Y-80488212D01*
X144627980Y-80611781D01*
X144627983Y-80611788D01*
X144703283Y-80742212D01*
X144703291Y-80742222D01*
X144809777Y-80848708D01*
X144809782Y-80848712D01*
X144809784Y-80848714D01*
X144809785Y-80848715D01*
X144809787Y-80848716D01*
X144853551Y-80873983D01*
X144940216Y-80924019D01*
X145085695Y-80963000D01*
X145085697Y-80963000D01*
X145236303Y-80963000D01*
X145236305Y-80963000D01*
X145381784Y-80924019D01*
X145512216Y-80848714D01*
X145618714Y-80742216D01*
X145694019Y-80611784D01*
X145733000Y-80466305D01*
X145733000Y-80315695D01*
X145694019Y-80170216D01*
X145631365Y-80061696D01*
X145618716Y-80039787D01*
X145618708Y-80039777D01*
X145512222Y-79933291D01*
X145512212Y-79933283D01*
X145381788Y-79857983D01*
X145381785Y-79857982D01*
X145381784Y-79857981D01*
X145381782Y-79857980D01*
X145381781Y-79857980D01*
X145331472Y-79844500D01*
X145236305Y-79819000D01*
X145085695Y-79819000D01*
X145014648Y-79838037D01*
X144940218Y-79857980D01*
X144940211Y-79857983D01*
X144809787Y-79933283D01*
X144809777Y-79933291D01*
X144703291Y-80039777D01*
X144703283Y-80039787D01*
X144627983Y-80170211D01*
X144627981Y-80170216D01*
X144589000Y-80315695D01*
X143165297Y-80315695D01*
X143193000Y-80212305D01*
X143193000Y-80061695D01*
X143154019Y-79916216D01*
X143108884Y-79838040D01*
X143078716Y-79785787D01*
X143078708Y-79785777D01*
X142972222Y-79679291D01*
X142972212Y-79679283D01*
X142841788Y-79603983D01*
X142841785Y-79603982D01*
X142841784Y-79603981D01*
X142841782Y-79603980D01*
X142841781Y-79603980D01*
X142768210Y-79584267D01*
X142696305Y-79565000D01*
X142545695Y-79565000D01*
X142473790Y-79584267D01*
X142400218Y-79603980D01*
X142400211Y-79603983D01*
X142269787Y-79679283D01*
X142269777Y-79679291D01*
X142163291Y-79785777D01*
X142163283Y-79785787D01*
X142087983Y-79916211D01*
X142087980Y-79916218D01*
X142063267Y-80008447D01*
X142049000Y-80061695D01*
X117340500Y-80061695D01*
X117340500Y-78653074D01*
X118915500Y-78653074D01*
X118915500Y-78826926D01*
X118942697Y-78998638D01*
X118996420Y-79163981D01*
X118996421Y-79163982D01*
X119075349Y-79318887D01*
X119177536Y-79459535D01*
X119300464Y-79582463D01*
X119300467Y-79582465D01*
X119441116Y-79684653D01*
X119596019Y-79763580D01*
X119761362Y-79817303D01*
X119933074Y-79844500D01*
X119933077Y-79844500D01*
X120106923Y-79844500D01*
X120106926Y-79844500D01*
X120278638Y-79817303D01*
X120443981Y-79763580D01*
X120598884Y-79684653D01*
X120739533Y-79582465D01*
X120862465Y-79459533D01*
X120964653Y-79318884D01*
X121043580Y-79163981D01*
X121097303Y-78998638D01*
X121124500Y-78826926D01*
X121124500Y-78653074D01*
X121097303Y-78481362D01*
X121043580Y-78316019D01*
X120964653Y-78161116D01*
X120914246Y-78091737D01*
X121455500Y-78091737D01*
X121455500Y-79388246D01*
X121455502Y-79388270D01*
X121461959Y-79448339D01*
X121461959Y-79448341D01*
X121512657Y-79584266D01*
X121527417Y-79603983D01*
X121599596Y-79700404D01*
X121715733Y-79787342D01*
X121851658Y-79838040D01*
X121911745Y-79844500D01*
X123208254Y-79844499D01*
X123268342Y-79838040D01*
X123404267Y-79787342D01*
X123520404Y-79700404D01*
X123607342Y-79584267D01*
X123658040Y-79448342D01*
X123664500Y-79388255D01*
X123664499Y-78091746D01*
X123658040Y-78031658D01*
X123607342Y-77895733D01*
X123520404Y-77779596D01*
X123404267Y-77692658D01*
X123404265Y-77692657D01*
X123404266Y-77692657D01*
X123268349Y-77641962D01*
X123268344Y-77641960D01*
X123268342Y-77641960D01*
X123238298Y-77638730D01*
X123208256Y-77635500D01*
X121911753Y-77635500D01*
X121911729Y-77635502D01*
X121851660Y-77641959D01*
X121851658Y-77641959D01*
X121715733Y-77692657D01*
X121599596Y-77779596D01*
X121512657Y-77895734D01*
X121461962Y-78031650D01*
X121461960Y-78031658D01*
X121455500Y-78091737D01*
X120914246Y-78091737D01*
X120862465Y-78020467D01*
X120862463Y-78020464D01*
X120739535Y-77897536D01*
X120598887Y-77795349D01*
X120598886Y-77795348D01*
X120598884Y-77795347D01*
X120443981Y-77716420D01*
X120443978Y-77716419D01*
X120443976Y-77716418D01*
X120278642Y-77662698D01*
X120278640Y-77662697D01*
X120278638Y-77662697D01*
X120106926Y-77635500D01*
X119933074Y-77635500D01*
X119761362Y-77662697D01*
X119761360Y-77662697D01*
X119761357Y-77662698D01*
X119596023Y-77716418D01*
X119596017Y-77716421D01*
X119441112Y-77795349D01*
X119300464Y-77897536D01*
X119177536Y-78020464D01*
X119075349Y-78161112D01*
X118996421Y-78316017D01*
X118996418Y-78316023D01*
X118942698Y-78481357D01*
X118942697Y-78481360D01*
X118942697Y-78481362D01*
X118915500Y-78653074D01*
X117340500Y-78653074D01*
X117340500Y-77394896D01*
X133857500Y-77394896D01*
X133857500Y-77545103D01*
X133875482Y-77635500D01*
X133886803Y-77692413D01*
X133944282Y-77831179D01*
X134027728Y-77956065D01*
X134133935Y-78062272D01*
X134258821Y-78145718D01*
X134397587Y-78203197D01*
X134544900Y-78232500D01*
X134695100Y-78232500D01*
X134842413Y-78203197D01*
X134981179Y-78145718D01*
X135106065Y-78062272D01*
X135212272Y-77956065D01*
X135295718Y-77831179D01*
X135353197Y-77692413D01*
X135382500Y-77545100D01*
X135382500Y-77394900D01*
X135353197Y-77247587D01*
X135295718Y-77108821D01*
X135212272Y-76983935D01*
X135106065Y-76877728D01*
X134981179Y-76794282D01*
X134842414Y-76736803D01*
X134695103Y-76707500D01*
X134695100Y-76707500D01*
X134544900Y-76707500D01*
X134544896Y-76707500D01*
X134397585Y-76736803D01*
X134397584Y-76736804D01*
X134258819Y-76794283D01*
X134133939Y-76877725D01*
X134133932Y-76877730D01*
X134027730Y-76983932D01*
X134027725Y-76983939D01*
X133944283Y-77108819D01*
X133886804Y-77247584D01*
X133886803Y-77247585D01*
X133857500Y-77394896D01*
X117340500Y-77394896D01*
X117340500Y-76113074D01*
X118915500Y-76113074D01*
X118915500Y-76286926D01*
X118942697Y-76458638D01*
X118996420Y-76623981D01*
X119075347Y-76778884D01*
X119075349Y-76778887D01*
X119177536Y-76919535D01*
X119300464Y-77042463D01*
X119300467Y-77042465D01*
X119441116Y-77144653D01*
X119596019Y-77223580D01*
X119761362Y-77277303D01*
X119933074Y-77304500D01*
X119933077Y-77304500D01*
X120106923Y-77304500D01*
X120106926Y-77304500D01*
X120278638Y-77277303D01*
X120443981Y-77223580D01*
X120598884Y-77144653D01*
X120739533Y-77042465D01*
X120862465Y-76919533D01*
X120964653Y-76778884D01*
X121043580Y-76623981D01*
X121097303Y-76458638D01*
X121124500Y-76286926D01*
X121124500Y-76113074D01*
X121455500Y-76113074D01*
X121455500Y-76286926D01*
X121482697Y-76458638D01*
X121536420Y-76623981D01*
X121615347Y-76778884D01*
X121615349Y-76778887D01*
X121717536Y-76919535D01*
X121840464Y-77042463D01*
X121840467Y-77042465D01*
X121981116Y-77144653D01*
X122136019Y-77223580D01*
X122301362Y-77277303D01*
X122473074Y-77304500D01*
X122473077Y-77304500D01*
X122646923Y-77304500D01*
X122646926Y-77304500D01*
X122818638Y-77277303D01*
X122983981Y-77223580D01*
X123138884Y-77144653D01*
X123279533Y-77042465D01*
X123402465Y-76919533D01*
X123504653Y-76778884D01*
X123583580Y-76623981D01*
X123637303Y-76458638D01*
X123664500Y-76286926D01*
X123664500Y-76113074D01*
X123637303Y-75941362D01*
X123583580Y-75776019D01*
X123504653Y-75621116D01*
X123409316Y-75489896D01*
X130301500Y-75489896D01*
X130301500Y-75640103D01*
X130328537Y-75776023D01*
X130330803Y-75787413D01*
X130388282Y-75926179D01*
X130471728Y-76051065D01*
X130577935Y-76157272D01*
X130702821Y-76240718D01*
X130841587Y-76298197D01*
X130988900Y-76327500D01*
X131139100Y-76327500D01*
X131286413Y-76298197D01*
X131425179Y-76240718D01*
X131550065Y-76157272D01*
X131656272Y-76051065D01*
X131739718Y-75926179D01*
X131797197Y-75787413D01*
X131826500Y-75640100D01*
X131826500Y-75489900D01*
X131826499Y-75489896D01*
X137032500Y-75489896D01*
X137032500Y-75640103D01*
X137059537Y-75776023D01*
X137061803Y-75787413D01*
X137119282Y-75926179D01*
X137202728Y-76051065D01*
X137308935Y-76157272D01*
X137433821Y-76240718D01*
X137572587Y-76298197D01*
X137719900Y-76327500D01*
X137870100Y-76327500D01*
X138017413Y-76298197D01*
X138156179Y-76240718D01*
X138281065Y-76157272D01*
X138387272Y-76051065D01*
X138470718Y-75926179D01*
X138528197Y-75787413D01*
X138557500Y-75640100D01*
X138557500Y-75489900D01*
X138528197Y-75342587D01*
X138470718Y-75203821D01*
X138387272Y-75078935D01*
X138281065Y-74972728D01*
X138156179Y-74889282D01*
X138017414Y-74831803D01*
X137870103Y-74802500D01*
X137870100Y-74802500D01*
X137719900Y-74802500D01*
X137719896Y-74802500D01*
X137572585Y-74831803D01*
X137572584Y-74831804D01*
X137433819Y-74889283D01*
X137308939Y-74972725D01*
X137308932Y-74972730D01*
X137202730Y-75078932D01*
X137202725Y-75078939D01*
X137119283Y-75203819D01*
X137061804Y-75342584D01*
X137061803Y-75342585D01*
X137032500Y-75489896D01*
X131826499Y-75489896D01*
X131797197Y-75342587D01*
X131739718Y-75203821D01*
X131656272Y-75078935D01*
X131550065Y-74972728D01*
X131425179Y-74889282D01*
X131286414Y-74831803D01*
X131139103Y-74802500D01*
X131139100Y-74802500D01*
X130988900Y-74802500D01*
X130988896Y-74802500D01*
X130841585Y-74831803D01*
X130841584Y-74831804D01*
X130702819Y-74889283D01*
X130577939Y-74972725D01*
X130577932Y-74972730D01*
X130471730Y-75078932D01*
X130471725Y-75078939D01*
X130388283Y-75203819D01*
X130330804Y-75342584D01*
X130330803Y-75342585D01*
X130301500Y-75489896D01*
X123409316Y-75489896D01*
X123402465Y-75480467D01*
X123402463Y-75480464D01*
X123279535Y-75357536D01*
X123138887Y-75255349D01*
X123138886Y-75255348D01*
X123138884Y-75255347D01*
X122983981Y-75176420D01*
X122983978Y-75176419D01*
X122983976Y-75176418D01*
X122818642Y-75122698D01*
X122818640Y-75122697D01*
X122818638Y-75122697D01*
X122646926Y-75095500D01*
X122473074Y-75095500D01*
X122301362Y-75122697D01*
X122301360Y-75122697D01*
X122301357Y-75122698D01*
X122136023Y-75176418D01*
X122136017Y-75176421D01*
X121981112Y-75255349D01*
X121840464Y-75357536D01*
X121717536Y-75480464D01*
X121615349Y-75621112D01*
X121536421Y-75776017D01*
X121536418Y-75776023D01*
X121482698Y-75941357D01*
X121482697Y-75941360D01*
X121482697Y-75941362D01*
X121455500Y-76113074D01*
X121124500Y-76113074D01*
X121097303Y-75941362D01*
X121043580Y-75776019D01*
X120964653Y-75621116D01*
X120862465Y-75480467D01*
X120862463Y-75480464D01*
X120739535Y-75357536D01*
X120598887Y-75255349D01*
X120598886Y-75255348D01*
X120598884Y-75255347D01*
X120443981Y-75176420D01*
X120443978Y-75176419D01*
X120443976Y-75176418D01*
X120278642Y-75122698D01*
X120278640Y-75122697D01*
X120278638Y-75122697D01*
X120106926Y-75095500D01*
X119933074Y-75095500D01*
X119761362Y-75122697D01*
X119761360Y-75122697D01*
X119761357Y-75122698D01*
X119596023Y-75176418D01*
X119596017Y-75176421D01*
X119441112Y-75255349D01*
X119300464Y-75357536D01*
X119177536Y-75480464D01*
X119075349Y-75621112D01*
X118996421Y-75776017D01*
X118996418Y-75776023D01*
X118942698Y-75941357D01*
X118942697Y-75941360D01*
X118942697Y-75941362D01*
X118915500Y-76113074D01*
X117340500Y-76113074D01*
X117340500Y-73573116D01*
X118916000Y-73573116D01*
X118916000Y-73746883D01*
X118943185Y-73918524D01*
X118996883Y-74083788D01*
X118996884Y-74083790D01*
X119075776Y-74238625D01*
X119154042Y-74346349D01*
X119154043Y-74346349D01*
X119588234Y-73912158D01*
X119619901Y-73967007D01*
X119712993Y-74060099D01*
X119767840Y-74091765D01*
X119333649Y-74525955D01*
X119333649Y-74525956D01*
X119441374Y-74604223D01*
X119596209Y-74683115D01*
X119596211Y-74683116D01*
X119761475Y-74736814D01*
X119933116Y-74764000D01*
X120106884Y-74764000D01*
X120278524Y-74736814D01*
X120443788Y-74683116D01*
X120443790Y-74683115D01*
X120598621Y-74604225D01*
X120706349Y-74525955D01*
X120706349Y-74525954D01*
X120272159Y-74091764D01*
X120327007Y-74060099D01*
X120420099Y-73967007D01*
X120451764Y-73912159D01*
X120885954Y-74346349D01*
X120885955Y-74346349D01*
X120964225Y-74238621D01*
X121043115Y-74083790D01*
X121043116Y-74083788D01*
X121096814Y-73918524D01*
X121124000Y-73746883D01*
X121124000Y-73573116D01*
X121123993Y-73573074D01*
X121455500Y-73573074D01*
X121455500Y-73746926D01*
X121482679Y-73918524D01*
X121482698Y-73918642D01*
X121536337Y-74083728D01*
X121536420Y-74083981D01*
X121615347Y-74238884D01*
X121615349Y-74238887D01*
X121717536Y-74379535D01*
X121840464Y-74502463D01*
X121840467Y-74502465D01*
X121981116Y-74604653D01*
X122136019Y-74683580D01*
X122301362Y-74737303D01*
X122473074Y-74764500D01*
X122473077Y-74764500D01*
X122646923Y-74764500D01*
X122646926Y-74764500D01*
X122818638Y-74737303D01*
X122983981Y-74683580D01*
X123138884Y-74604653D01*
X123144055Y-74600896D01*
X141350500Y-74600896D01*
X141350500Y-74751103D01*
X141377987Y-74889283D01*
X141379803Y-74898413D01*
X141437282Y-75037179D01*
X141520728Y-75162065D01*
X141626935Y-75268272D01*
X141751821Y-75351718D01*
X141890587Y-75409197D01*
X142037900Y-75438500D01*
X142188100Y-75438500D01*
X142335413Y-75409197D01*
X142474179Y-75351718D01*
X142599065Y-75268272D01*
X142705272Y-75162065D01*
X142788718Y-75037179D01*
X142846197Y-74898413D01*
X142875500Y-74751100D01*
X142875500Y-74600900D01*
X142846197Y-74453587D01*
X142788718Y-74314821D01*
X142705272Y-74189935D01*
X142599065Y-74083728D01*
X142474179Y-74000282D01*
X142335414Y-73942803D01*
X142188103Y-73913500D01*
X142188100Y-73913500D01*
X142037900Y-73913500D01*
X142037896Y-73913500D01*
X141890585Y-73942803D01*
X141890584Y-73942804D01*
X141751819Y-74000283D01*
X141626939Y-74083725D01*
X141626932Y-74083730D01*
X141520730Y-74189932D01*
X141520725Y-74189939D01*
X141437283Y-74314819D01*
X141379804Y-74453584D01*
X141379803Y-74453585D01*
X141350500Y-74600896D01*
X123144055Y-74600896D01*
X123279533Y-74502465D01*
X123402465Y-74379533D01*
X123504653Y-74238884D01*
X123583580Y-74083981D01*
X123637303Y-73918638D01*
X123664500Y-73746926D01*
X123664500Y-73573074D01*
X123637303Y-73401362D01*
X123583580Y-73236019D01*
X123504653Y-73081116D01*
X123402465Y-72940467D01*
X123402463Y-72940464D01*
X123279535Y-72817536D01*
X123138887Y-72715349D01*
X123138886Y-72715348D01*
X123138884Y-72715347D01*
X122983981Y-72636420D01*
X122983978Y-72636419D01*
X122983976Y-72636418D01*
X122818642Y-72582698D01*
X122818640Y-72582697D01*
X122818638Y-72582697D01*
X122646926Y-72555500D01*
X122473074Y-72555500D01*
X122301362Y-72582697D01*
X122301360Y-72582697D01*
X122301357Y-72582698D01*
X122136023Y-72636418D01*
X122136017Y-72636421D01*
X121981112Y-72715349D01*
X121840464Y-72817536D01*
X121717536Y-72940464D01*
X121615349Y-73081112D01*
X121536421Y-73236017D01*
X121536418Y-73236023D01*
X121482698Y-73401357D01*
X121482697Y-73401360D01*
X121482697Y-73401362D01*
X121455500Y-73573074D01*
X121123993Y-73573074D01*
X121096814Y-73401475D01*
X121043116Y-73236211D01*
X121043115Y-73236209D01*
X120964223Y-73081374D01*
X120885955Y-72973649D01*
X120451764Y-73407839D01*
X120420099Y-73352993D01*
X120327007Y-73259901D01*
X120272158Y-73228234D01*
X120706349Y-72794043D01*
X120706349Y-72794042D01*
X120598625Y-72715776D01*
X120443790Y-72636884D01*
X120443788Y-72636883D01*
X120278524Y-72583185D01*
X120106884Y-72556000D01*
X119933116Y-72556000D01*
X119761475Y-72583185D01*
X119596211Y-72636883D01*
X119596209Y-72636884D01*
X119441379Y-72715773D01*
X119441379Y-72715774D01*
X119333649Y-72794042D01*
X119333649Y-72794044D01*
X119767840Y-73228235D01*
X119712993Y-73259901D01*
X119619901Y-73352993D01*
X119588235Y-73407840D01*
X119154044Y-72973649D01*
X119154042Y-72973649D01*
X119075774Y-73081379D01*
X119075773Y-73081379D01*
X118996884Y-73236209D01*
X118996883Y-73236211D01*
X118943185Y-73401475D01*
X118916000Y-73573116D01*
X117340500Y-73573116D01*
X117340500Y-69139695D01*
X152717000Y-69139695D01*
X152717000Y-69290305D01*
X152745535Y-69396800D01*
X152755980Y-69435781D01*
X152755983Y-69435788D01*
X152831283Y-69566212D01*
X152831291Y-69566222D01*
X152937777Y-69672708D01*
X152937782Y-69672712D01*
X152937784Y-69672714D01*
X153068216Y-69748019D01*
X153213695Y-69787000D01*
X153213697Y-69787000D01*
X153364303Y-69787000D01*
X153364305Y-69787000D01*
X153509784Y-69748019D01*
X153640216Y-69672714D01*
X153746714Y-69566216D01*
X153822019Y-69435784D01*
X153861000Y-69290305D01*
X153861000Y-69139695D01*
X153822019Y-68994216D01*
X153746714Y-68863784D01*
X153746712Y-68863782D01*
X153746708Y-68863777D01*
X153640222Y-68757291D01*
X153640212Y-68757283D01*
X153509788Y-68681983D01*
X153509785Y-68681982D01*
X153509784Y-68681981D01*
X153509782Y-68681980D01*
X153509781Y-68681980D01*
X153470800Y-68671535D01*
X153364305Y-68643000D01*
X153213695Y-68643000D01*
X153135735Y-68663889D01*
X153068218Y-68681980D01*
X153068211Y-68681983D01*
X152937787Y-68757283D01*
X152937777Y-68757291D01*
X152831291Y-68863777D01*
X152831283Y-68863787D01*
X152755983Y-68994211D01*
X152755981Y-68994216D01*
X152717000Y-69139695D01*
X117340500Y-69139695D01*
X117340500Y-66599695D01*
X152844000Y-66599695D01*
X152844000Y-66750305D01*
X152872535Y-66856800D01*
X152882980Y-66895781D01*
X152882983Y-66895788D01*
X152958283Y-67026212D01*
X152958291Y-67026222D01*
X153064777Y-67132708D01*
X153064782Y-67132712D01*
X153064784Y-67132714D01*
X153195216Y-67208019D01*
X153340695Y-67247000D01*
X153340697Y-67247000D01*
X153491303Y-67247000D01*
X153491305Y-67247000D01*
X153636784Y-67208019D01*
X153767216Y-67132714D01*
X153873714Y-67026216D01*
X153949019Y-66895784D01*
X153988000Y-66750305D01*
X153988000Y-66599695D01*
X153949019Y-66454216D01*
X153873714Y-66323784D01*
X153873712Y-66323782D01*
X153873708Y-66323777D01*
X153767222Y-66217291D01*
X153767212Y-66217283D01*
X153636788Y-66141983D01*
X153636785Y-66141982D01*
X153636784Y-66141981D01*
X153636782Y-66141980D01*
X153636781Y-66141980D01*
X153597800Y-66131535D01*
X153491305Y-66103000D01*
X153340695Y-66103000D01*
X153280337Y-66119173D01*
X153195218Y-66141980D01*
X153195211Y-66141983D01*
X153064787Y-66217283D01*
X153064777Y-66217291D01*
X152958291Y-66323777D01*
X152958283Y-66323787D01*
X152882983Y-66454211D01*
X152882981Y-66454216D01*
X152844000Y-66599695D01*
X117340500Y-66599695D01*
X117340500Y-62033265D01*
X117915500Y-62033265D01*
X117915500Y-62426734D01*
X117954064Y-62818283D01*
X117954066Y-62818291D01*
X118030826Y-63204187D01*
X118145040Y-63580702D01*
X118295610Y-63944209D01*
X118481085Y-64291209D01*
X118699677Y-64618355D01*
X118941201Y-64912653D01*
X118949283Y-64922501D01*
X118949290Y-64922508D01*
X118949299Y-64922518D01*
X119227481Y-65200700D01*
X119227490Y-65200708D01*
X119227499Y-65200717D01*
X119227509Y-65200725D01*
X119531644Y-65450322D01*
X119858790Y-65668914D01*
X119858793Y-65668916D01*
X120205791Y-65854390D01*
X120569298Y-66004960D01*
X120945813Y-66119174D01*
X121331709Y-66195934D01*
X121331712Y-66195934D01*
X121331716Y-66195935D01*
X121527490Y-66215217D01*
X121723272Y-66234500D01*
X121723281Y-66234500D01*
X122116719Y-66234500D01*
X122116728Y-66234500D01*
X122374598Y-66209101D01*
X122508283Y-66195935D01*
X122508285Y-66195934D01*
X122508291Y-66195934D01*
X122894187Y-66119174D01*
X123270702Y-66004960D01*
X123634209Y-65854390D01*
X123981207Y-65668916D01*
X124308354Y-65450323D01*
X124612501Y-65200717D01*
X124890717Y-64922501D01*
X125140323Y-64618354D01*
X125358916Y-64291207D01*
X125544390Y-63944209D01*
X125694960Y-63580702D01*
X125809174Y-63204187D01*
X125885934Y-62818291D01*
X125924500Y-62426728D01*
X125924500Y-62033272D01*
X125885934Y-61641709D01*
X125809174Y-61255813D01*
X125694960Y-60879298D01*
X125544390Y-60515791D01*
X125358916Y-60168793D01*
X125140323Y-59841646D01*
X125140322Y-59841644D01*
X124890725Y-59537509D01*
X124890717Y-59537499D01*
X124890708Y-59537490D01*
X124890700Y-59537481D01*
X124612518Y-59259299D01*
X124612508Y-59259290D01*
X124612501Y-59259283D01*
X124602653Y-59251201D01*
X124308355Y-59009677D01*
X123981209Y-58791085D01*
X123634209Y-58605610D01*
X123270702Y-58455040D01*
X122894187Y-58340826D01*
X122894188Y-58340826D01*
X122508283Y-58264064D01*
X122116734Y-58225500D01*
X122116728Y-58225500D01*
X121723272Y-58225500D01*
X121723265Y-58225500D01*
X121331716Y-58264064D01*
X120945812Y-58340826D01*
X120569307Y-58455037D01*
X120569304Y-58455038D01*
X120569298Y-58455040D01*
X120337624Y-58551002D01*
X120205790Y-58605610D01*
X119858790Y-58791085D01*
X119531644Y-59009677D01*
X119227509Y-59259274D01*
X119227481Y-59259299D01*
X118949299Y-59537481D01*
X118949274Y-59537509D01*
X118699677Y-59841644D01*
X118481085Y-60168790D01*
X118295610Y-60515790D01*
X118295610Y-60515791D01*
X118145040Y-60879298D01*
X118145038Y-60879304D01*
X118145037Y-60879307D01*
X118030826Y-61255812D01*
X117954064Y-61641716D01*
X117915500Y-62033265D01*
X117340500Y-62033265D01*
X117340500Y-57776500D01*
X117360502Y-57708379D01*
X117414158Y-57661886D01*
X117466500Y-57650500D01*
X154179000Y-57650500D01*
X154247121Y-57670502D01*
G37*
%TD.AperFunction*%
%TD*%
%TA.AperFunction,Conductor*%
%TO.N,Earth*%
G36*
X184861621Y-57670502D02*
G01*
X184908114Y-57724158D01*
X184919500Y-57776500D01*
X184919500Y-136533500D01*
X184899498Y-136601621D01*
X184845842Y-136648114D01*
X184793500Y-136659500D01*
X155066000Y-136659500D01*
X154997879Y-136639498D01*
X154951386Y-136585842D01*
X154940000Y-136533500D01*
X154940000Y-134544896D01*
X163702500Y-134544896D01*
X163702500Y-134695103D01*
X163731803Y-134842413D01*
X163789282Y-134981179D01*
X163872728Y-135106065D01*
X163978935Y-135212272D01*
X164103821Y-135295718D01*
X164242587Y-135353197D01*
X164389900Y-135382500D01*
X164540100Y-135382500D01*
X164687413Y-135353197D01*
X164826179Y-135295718D01*
X164951065Y-135212272D01*
X165057272Y-135106065D01*
X165140718Y-134981179D01*
X165198197Y-134842413D01*
X165227500Y-134695100D01*
X165227500Y-134544900D01*
X165198197Y-134397587D01*
X165140718Y-134258821D01*
X165057272Y-134133935D01*
X164951065Y-134027728D01*
X164826179Y-133944282D01*
X164687414Y-133886803D01*
X164540103Y-133857500D01*
X164540100Y-133857500D01*
X164389900Y-133857500D01*
X164389896Y-133857500D01*
X164242585Y-133886803D01*
X164242584Y-133886804D01*
X164103819Y-133944283D01*
X163978939Y-134027725D01*
X163978932Y-134027730D01*
X163872730Y-134133932D01*
X163872725Y-134133939D01*
X163789283Y-134258819D01*
X163731804Y-134397584D01*
X163731803Y-134397585D01*
X163702500Y-134544896D01*
X154940000Y-134544896D01*
X154940000Y-131883265D01*
X176335500Y-131883265D01*
X176335500Y-132276734D01*
X176374064Y-132668283D01*
X176374066Y-132668291D01*
X176450826Y-133054187D01*
X176565040Y-133430702D01*
X176715610Y-133794209D01*
X176901085Y-134141209D01*
X177119677Y-134468355D01*
X177182496Y-134544900D01*
X177369283Y-134772501D01*
X177369290Y-134772508D01*
X177369299Y-134772518D01*
X177647481Y-135050700D01*
X177647490Y-135050708D01*
X177647499Y-135050717D01*
X177647509Y-135050725D01*
X177951644Y-135300322D01*
X178030774Y-135353195D01*
X178278793Y-135518916D01*
X178625791Y-135704390D01*
X178989298Y-135854960D01*
X179365813Y-135969174D01*
X179751709Y-136045934D01*
X179751712Y-136045934D01*
X179751716Y-136045935D01*
X179947490Y-136065217D01*
X180143272Y-136084500D01*
X180143281Y-136084500D01*
X180536719Y-136084500D01*
X180536728Y-136084500D01*
X180794598Y-136059101D01*
X180928283Y-136045935D01*
X180928285Y-136045934D01*
X180928291Y-136045934D01*
X181314187Y-135969174D01*
X181690702Y-135854960D01*
X182054209Y-135704390D01*
X182401207Y-135518916D01*
X182728354Y-135300323D01*
X183032501Y-135050717D01*
X183310717Y-134772501D01*
X183560323Y-134468354D01*
X183778916Y-134141207D01*
X183964390Y-133794209D01*
X184114960Y-133430702D01*
X184229174Y-133054187D01*
X184305934Y-132668291D01*
X184344500Y-132276728D01*
X184344500Y-131883272D01*
X184305934Y-131491709D01*
X184229174Y-131105813D01*
X184114960Y-130729298D01*
X183964390Y-130365791D01*
X183778916Y-130018793D01*
X183643373Y-129815939D01*
X183560322Y-129691644D01*
X183310725Y-129387509D01*
X183310717Y-129387499D01*
X183310708Y-129387490D01*
X183310700Y-129387481D01*
X183032518Y-129109299D01*
X183032508Y-129109290D01*
X183032501Y-129109283D01*
X183022653Y-129101201D01*
X182728355Y-128859677D01*
X182401209Y-128641085D01*
X182054209Y-128455610D01*
X181690702Y-128305040D01*
X181314187Y-128190826D01*
X181314188Y-128190826D01*
X180928283Y-128114064D01*
X180536734Y-128075500D01*
X180536728Y-128075500D01*
X180143272Y-128075500D01*
X180143265Y-128075500D01*
X179751716Y-128114064D01*
X179365812Y-128190826D01*
X178989307Y-128305037D01*
X178989304Y-128305038D01*
X178989298Y-128305040D01*
X178757624Y-128401002D01*
X178625790Y-128455610D01*
X178278790Y-128641085D01*
X177951644Y-128859677D01*
X177647509Y-129109274D01*
X177647481Y-129109299D01*
X177369299Y-129387481D01*
X177369274Y-129387509D01*
X177119677Y-129691644D01*
X176901085Y-130018790D01*
X176715610Y-130365790D01*
X176710924Y-130377103D01*
X176565040Y-130729298D01*
X176565038Y-130729304D01*
X176565037Y-130729307D01*
X176450826Y-131105812D01*
X176374064Y-131491716D01*
X176335500Y-131883265D01*
X154940000Y-131883265D01*
X154940000Y-130226896D01*
X173354500Y-130226896D01*
X173354500Y-130377103D01*
X173383803Y-130524413D01*
X173441282Y-130663179D01*
X173524728Y-130788065D01*
X173630935Y-130894272D01*
X173755821Y-130977718D01*
X173894587Y-131035197D01*
X174041900Y-131064500D01*
X174192100Y-131064500D01*
X174339413Y-131035197D01*
X174478179Y-130977718D01*
X174603065Y-130894272D01*
X174709272Y-130788065D01*
X174792718Y-130663179D01*
X174850197Y-130524413D01*
X174879500Y-130377100D01*
X174879500Y-130226900D01*
X174850197Y-130079587D01*
X174792718Y-129940821D01*
X174709272Y-129815935D01*
X174603065Y-129709728D01*
X174478179Y-129626282D01*
X174339414Y-129568803D01*
X174192103Y-129539500D01*
X174192100Y-129539500D01*
X174041900Y-129539500D01*
X174041896Y-129539500D01*
X173894585Y-129568803D01*
X173894584Y-129568804D01*
X173755819Y-129626283D01*
X173630939Y-129709725D01*
X173630932Y-129709730D01*
X173524730Y-129815932D01*
X173524725Y-129815939D01*
X173441283Y-129940819D01*
X173383804Y-130079584D01*
X173383803Y-130079585D01*
X173354500Y-130226896D01*
X154940000Y-130226896D01*
X154940000Y-122860896D01*
X179577500Y-122860896D01*
X179577500Y-123011103D01*
X179606803Y-123158413D01*
X179664282Y-123297179D01*
X179747728Y-123422065D01*
X179853935Y-123528272D01*
X179978821Y-123611718D01*
X180117587Y-123669197D01*
X180264900Y-123698500D01*
X180415100Y-123698500D01*
X180562413Y-123669197D01*
X180701179Y-123611718D01*
X180826065Y-123528272D01*
X180932272Y-123422065D01*
X181015718Y-123297179D01*
X181073197Y-123158413D01*
X181102500Y-123011100D01*
X181102500Y-122860900D01*
X181073197Y-122713587D01*
X181015718Y-122574821D01*
X180932272Y-122449935D01*
X180826065Y-122343728D01*
X180701179Y-122260282D01*
X180562414Y-122202803D01*
X180415103Y-122173500D01*
X180415100Y-122173500D01*
X180264900Y-122173500D01*
X180264896Y-122173500D01*
X180117585Y-122202803D01*
X180117584Y-122202804D01*
X179978819Y-122260283D01*
X179853939Y-122343725D01*
X179853932Y-122343730D01*
X179747730Y-122449932D01*
X179747725Y-122449939D01*
X179664283Y-122574819D01*
X179606804Y-122713584D01*
X179606803Y-122713585D01*
X179577500Y-122860896D01*
X154940000Y-122860896D01*
X154940000Y-119562396D01*
X163445000Y-119562396D01*
X163445000Y-119712603D01*
X163474303Y-119859913D01*
X163531782Y-119998679D01*
X163615228Y-120123565D01*
X163721435Y-120229772D01*
X163846321Y-120313218D01*
X163985087Y-120370697D01*
X164132400Y-120400000D01*
X164282600Y-120400000D01*
X164429913Y-120370697D01*
X164568679Y-120313218D01*
X164693565Y-120229772D01*
X164799772Y-120123565D01*
X164883218Y-119998679D01*
X164940697Y-119859913D01*
X164970000Y-119712600D01*
X164970000Y-119562400D01*
X164940697Y-119415087D01*
X164883218Y-119276321D01*
X164799772Y-119151435D01*
X164693565Y-119045228D01*
X164568679Y-118961782D01*
X164429914Y-118904303D01*
X164282603Y-118875000D01*
X164282600Y-118875000D01*
X164132400Y-118875000D01*
X164132396Y-118875000D01*
X163985085Y-118904303D01*
X163985084Y-118904304D01*
X163846319Y-118961783D01*
X163721439Y-119045225D01*
X163721432Y-119045230D01*
X163615230Y-119151432D01*
X163615225Y-119151439D01*
X163531783Y-119276319D01*
X163474304Y-119415084D01*
X163474303Y-119415085D01*
X163445000Y-119562396D01*
X154940000Y-119562396D01*
X154940000Y-118349896D01*
X180659500Y-118349896D01*
X180659500Y-118500103D01*
X180688803Y-118647413D01*
X180746282Y-118786179D01*
X180829728Y-118911065D01*
X180935935Y-119017272D01*
X181060821Y-119100718D01*
X181199587Y-119158197D01*
X181346900Y-119187500D01*
X181497100Y-119187500D01*
X181644413Y-119158197D01*
X181783179Y-119100718D01*
X181908065Y-119017272D01*
X182014272Y-118911065D01*
X182097718Y-118786179D01*
X182155197Y-118647413D01*
X182184500Y-118500100D01*
X182184500Y-118349900D01*
X182155197Y-118202587D01*
X182097718Y-118063821D01*
X182014272Y-117938935D01*
X181908065Y-117832728D01*
X181783179Y-117749282D01*
X181644414Y-117691803D01*
X181497103Y-117662500D01*
X181497100Y-117662500D01*
X181346900Y-117662500D01*
X181346896Y-117662500D01*
X181199585Y-117691803D01*
X181199584Y-117691804D01*
X181060819Y-117749283D01*
X180935939Y-117832725D01*
X180935932Y-117832730D01*
X180829730Y-117938932D01*
X180829725Y-117938939D01*
X180746283Y-118063819D01*
X180688804Y-118202584D01*
X180688803Y-118202585D01*
X180659500Y-118349896D01*
X154940000Y-118349896D01*
X154940000Y-112954896D01*
X172592500Y-112954896D01*
X172592500Y-113105103D01*
X172621803Y-113252413D01*
X172679282Y-113391179D01*
X172762728Y-113516065D01*
X172868935Y-113622272D01*
X172993821Y-113705718D01*
X173132587Y-113763197D01*
X173279900Y-113792500D01*
X173430100Y-113792500D01*
X173577413Y-113763197D01*
X173716179Y-113705718D01*
X173841065Y-113622272D01*
X173947272Y-113516065D01*
X174030718Y-113391179D01*
X174088197Y-113252413D01*
X174117500Y-113105100D01*
X174117500Y-112954900D01*
X174088197Y-112807587D01*
X174030718Y-112668821D01*
X173947272Y-112543935D01*
X173841065Y-112437728D01*
X173716179Y-112354282D01*
X173577414Y-112296803D01*
X173430103Y-112267500D01*
X173430100Y-112267500D01*
X173279900Y-112267500D01*
X173279896Y-112267500D01*
X173132585Y-112296803D01*
X173132584Y-112296804D01*
X172993819Y-112354283D01*
X172868939Y-112437725D01*
X172868932Y-112437730D01*
X172762730Y-112543932D01*
X172762725Y-112543939D01*
X172679283Y-112668819D01*
X172621804Y-112807584D01*
X172621803Y-112807585D01*
X172592500Y-112954896D01*
X154940000Y-112954896D01*
X154940000Y-110160896D01*
X155825000Y-110160896D01*
X155825000Y-110311103D01*
X155854303Y-110458413D01*
X155911782Y-110597179D01*
X155995228Y-110722065D01*
X156101435Y-110828272D01*
X156226321Y-110911718D01*
X156365087Y-110969197D01*
X156512400Y-110998500D01*
X156662600Y-110998500D01*
X156809913Y-110969197D01*
X156948679Y-110911718D01*
X157073565Y-110828272D01*
X157179772Y-110722065D01*
X157263218Y-110597179D01*
X157320697Y-110458413D01*
X157350000Y-110311100D01*
X157350000Y-110160900D01*
X157320697Y-110013587D01*
X157263218Y-109874821D01*
X157179772Y-109749935D01*
X157073565Y-109643728D01*
X156948679Y-109560282D01*
X156809914Y-109502803D01*
X156662603Y-109473500D01*
X156662600Y-109473500D01*
X156512400Y-109473500D01*
X156512396Y-109473500D01*
X156365085Y-109502803D01*
X156365084Y-109502804D01*
X156226319Y-109560283D01*
X156101439Y-109643725D01*
X156101432Y-109643730D01*
X155995230Y-109749932D01*
X155995225Y-109749939D01*
X155911783Y-109874819D01*
X155854304Y-110013584D01*
X155854303Y-110013585D01*
X155825000Y-110160896D01*
X154940000Y-110160896D01*
X154940000Y-108509896D01*
X174497500Y-108509896D01*
X174497500Y-108660103D01*
X174526803Y-108807413D01*
X174584282Y-108946179D01*
X174667728Y-109071065D01*
X174773935Y-109177272D01*
X174898821Y-109260718D01*
X175037587Y-109318197D01*
X175184900Y-109347500D01*
X175335100Y-109347500D01*
X175482413Y-109318197D01*
X175621179Y-109260718D01*
X175746065Y-109177272D01*
X175852272Y-109071065D01*
X175935718Y-108946179D01*
X175993197Y-108807413D01*
X176022500Y-108660100D01*
X176022500Y-108509900D01*
X175993197Y-108362587D01*
X175935718Y-108223821D01*
X175852272Y-108098935D01*
X175746065Y-107992728D01*
X175621179Y-107909282D01*
X175482414Y-107851803D01*
X175335103Y-107822500D01*
X175335100Y-107822500D01*
X175184900Y-107822500D01*
X175184896Y-107822500D01*
X175037585Y-107851803D01*
X175037584Y-107851804D01*
X174898819Y-107909283D01*
X174773939Y-107992725D01*
X174773932Y-107992730D01*
X174667730Y-108098932D01*
X174667725Y-108098939D01*
X174584283Y-108223819D01*
X174526804Y-108362584D01*
X174526803Y-108362585D01*
X174497500Y-108509896D01*
X154940000Y-108509896D01*
X154940000Y-98453074D01*
X157395500Y-98453074D01*
X157395500Y-98626926D01*
X157422697Y-98798638D01*
X157476420Y-98963981D01*
X157555347Y-99118884D01*
X157555349Y-99118887D01*
X157657536Y-99259535D01*
X157780464Y-99382463D01*
X157780467Y-99382465D01*
X157921116Y-99484653D01*
X158076019Y-99563580D01*
X158241362Y-99617303D01*
X158413074Y-99644500D01*
X158413077Y-99644500D01*
X158586923Y-99644500D01*
X158586926Y-99644500D01*
X158758638Y-99617303D01*
X158923981Y-99563580D01*
X159078884Y-99484653D01*
X159219533Y-99382465D01*
X159219538Y-99382460D01*
X159333160Y-99268839D01*
X159342460Y-99259538D01*
X159342463Y-99259535D01*
X159342465Y-99259533D01*
X159444653Y-99118884D01*
X159523580Y-98963981D01*
X159577303Y-98798638D01*
X159604500Y-98626926D01*
X159604500Y-98453116D01*
X159936000Y-98453116D01*
X159936000Y-98626883D01*
X159963185Y-98798524D01*
X160016883Y-98963788D01*
X160016884Y-98963790D01*
X160095776Y-99118625D01*
X160174042Y-99226349D01*
X160174043Y-99226349D01*
X160608234Y-98792158D01*
X160639901Y-98847007D01*
X160732993Y-98940099D01*
X160787840Y-98971765D01*
X160353649Y-99405955D01*
X160353649Y-99405956D01*
X160461374Y-99484223D01*
X160616209Y-99563115D01*
X160616211Y-99563116D01*
X160781475Y-99616814D01*
X160953116Y-99644000D01*
X161126884Y-99644000D01*
X161298524Y-99616814D01*
X161463788Y-99563116D01*
X161463790Y-99563115D01*
X161618621Y-99484225D01*
X161726349Y-99405955D01*
X161726349Y-99405954D01*
X161292159Y-98971764D01*
X161347007Y-98940099D01*
X161440099Y-98847007D01*
X161471764Y-98792159D01*
X161905954Y-99226349D01*
X161905955Y-99226349D01*
X161984225Y-99118621D01*
X162063115Y-98963790D01*
X162063116Y-98963788D01*
X162116814Y-98798524D01*
X162144000Y-98626883D01*
X162144000Y-98453116D01*
X162143993Y-98453074D01*
X162475500Y-98453074D01*
X162475500Y-98626926D01*
X162502697Y-98798638D01*
X162556420Y-98963981D01*
X162635347Y-99118884D01*
X162635349Y-99118887D01*
X162737536Y-99259535D01*
X162860464Y-99382463D01*
X162860467Y-99382465D01*
X163001116Y-99484653D01*
X163156019Y-99563580D01*
X163321362Y-99617303D01*
X163493074Y-99644500D01*
X163493077Y-99644500D01*
X163666923Y-99644500D01*
X163666926Y-99644500D01*
X163838638Y-99617303D01*
X164003981Y-99563580D01*
X164158884Y-99484653D01*
X164299533Y-99382465D01*
X164422465Y-99259533D01*
X164524653Y-99118884D01*
X164603580Y-98963981D01*
X164657303Y-98798638D01*
X164684500Y-98626926D01*
X164684500Y-98453074D01*
X165015500Y-98453074D01*
X165015500Y-98626926D01*
X165042697Y-98798638D01*
X165096420Y-98963981D01*
X165175347Y-99118884D01*
X165175349Y-99118887D01*
X165277536Y-99259535D01*
X165400464Y-99382463D01*
X165400467Y-99382465D01*
X165541116Y-99484653D01*
X165696019Y-99563580D01*
X165861362Y-99617303D01*
X166033074Y-99644500D01*
X166033077Y-99644500D01*
X166206923Y-99644500D01*
X166206926Y-99644500D01*
X166378638Y-99617303D01*
X166543981Y-99563580D01*
X166698884Y-99484653D01*
X166839533Y-99382465D01*
X166962465Y-99259533D01*
X167064653Y-99118884D01*
X167143580Y-98963981D01*
X167197303Y-98798638D01*
X167224500Y-98626926D01*
X167224500Y-98453074D01*
X167555500Y-98453074D01*
X167555500Y-98626926D01*
X167582697Y-98798638D01*
X167636420Y-98963981D01*
X167715347Y-99118884D01*
X167715349Y-99118887D01*
X167817536Y-99259535D01*
X167940464Y-99382463D01*
X167940467Y-99382465D01*
X168081116Y-99484653D01*
X168236019Y-99563580D01*
X168401362Y-99617303D01*
X168573074Y-99644500D01*
X168573077Y-99644500D01*
X168746923Y-99644500D01*
X168746926Y-99644500D01*
X168918638Y-99617303D01*
X169083981Y-99563580D01*
X169238884Y-99484653D01*
X169379533Y-99382465D01*
X169502465Y-99259533D01*
X169604653Y-99118884D01*
X169683580Y-98963981D01*
X169737303Y-98798638D01*
X169764500Y-98626926D01*
X169764500Y-98453074D01*
X170095500Y-98453074D01*
X170095500Y-98626926D01*
X170122697Y-98798638D01*
X170176420Y-98963981D01*
X170255347Y-99118884D01*
X170255349Y-99118887D01*
X170357536Y-99259535D01*
X170480464Y-99382463D01*
X170480467Y-99382465D01*
X170621116Y-99484653D01*
X170776019Y-99563580D01*
X170941362Y-99617303D01*
X171113074Y-99644500D01*
X171113077Y-99644500D01*
X171286923Y-99644500D01*
X171286926Y-99644500D01*
X171458638Y-99617303D01*
X171623981Y-99563580D01*
X171778884Y-99484653D01*
X171919533Y-99382465D01*
X171919538Y-99382460D01*
X172033160Y-99268839D01*
X172042460Y-99259538D01*
X172042463Y-99259535D01*
X172042465Y-99259533D01*
X172144653Y-99118884D01*
X172223580Y-98963981D01*
X172277303Y-98798638D01*
X172304500Y-98626926D01*
X172304500Y-98453116D01*
X172636000Y-98453116D01*
X172636000Y-98626883D01*
X172663185Y-98798524D01*
X172716883Y-98963788D01*
X172716884Y-98963790D01*
X172795776Y-99118625D01*
X172874042Y-99226349D01*
X172874043Y-99226349D01*
X173308234Y-98792158D01*
X173339901Y-98847007D01*
X173432993Y-98940099D01*
X173487840Y-98971765D01*
X173053649Y-99405955D01*
X173053649Y-99405956D01*
X173161374Y-99484223D01*
X173316209Y-99563115D01*
X173316211Y-99563116D01*
X173481475Y-99616814D01*
X173653116Y-99644000D01*
X173826884Y-99644000D01*
X173998524Y-99616814D01*
X174163788Y-99563116D01*
X174163790Y-99563115D01*
X174318621Y-99484225D01*
X174426349Y-99405955D01*
X174426349Y-99405954D01*
X173992159Y-98971764D01*
X174047007Y-98940099D01*
X174140099Y-98847007D01*
X174171764Y-98792159D01*
X174605954Y-99226349D01*
X174605955Y-99226349D01*
X174684225Y-99118621D01*
X174763115Y-98963790D01*
X174763116Y-98963788D01*
X174816814Y-98798524D01*
X174844000Y-98626883D01*
X174844000Y-98453116D01*
X174843993Y-98453074D01*
X175175500Y-98453074D01*
X175175500Y-98626926D01*
X175202697Y-98798638D01*
X175256420Y-98963981D01*
X175335347Y-99118884D01*
X175335349Y-99118887D01*
X175437536Y-99259535D01*
X175560464Y-99382463D01*
X175560467Y-99382465D01*
X175701116Y-99484653D01*
X175856019Y-99563580D01*
X176021362Y-99617303D01*
X176193074Y-99644500D01*
X176193077Y-99644500D01*
X176366923Y-99644500D01*
X176366926Y-99644500D01*
X176538638Y-99617303D01*
X176703981Y-99563580D01*
X176858884Y-99484653D01*
X176999533Y-99382465D01*
X177122465Y-99259533D01*
X177224653Y-99118884D01*
X177303580Y-98963981D01*
X177357303Y-98798638D01*
X177384500Y-98626926D01*
X177384500Y-98453074D01*
X177357303Y-98281362D01*
X177303580Y-98116019D01*
X177224653Y-97961116D01*
X177122465Y-97820467D01*
X177122463Y-97820464D01*
X176999535Y-97697536D01*
X176858887Y-97595349D01*
X176858886Y-97595348D01*
X176858884Y-97595347D01*
X176703981Y-97516420D01*
X176703978Y-97516419D01*
X176703976Y-97516418D01*
X176538642Y-97462698D01*
X176538640Y-97462697D01*
X176538638Y-97462697D01*
X176366926Y-97435500D01*
X176193074Y-97435500D01*
X176021362Y-97462697D01*
X176021360Y-97462697D01*
X176021357Y-97462698D01*
X175856023Y-97516418D01*
X175856017Y-97516421D01*
X175701112Y-97595349D01*
X175560464Y-97697536D01*
X175437536Y-97820464D01*
X175335349Y-97961112D01*
X175256421Y-98116017D01*
X175256418Y-98116023D01*
X175202698Y-98281357D01*
X175202697Y-98281360D01*
X175202697Y-98281362D01*
X175175500Y-98453074D01*
X174843993Y-98453074D01*
X174816814Y-98281475D01*
X174763116Y-98116211D01*
X174763115Y-98116209D01*
X174684223Y-97961374D01*
X174605955Y-97853649D01*
X174171764Y-98287839D01*
X174140099Y-98232993D01*
X174047007Y-98139901D01*
X173992158Y-98108234D01*
X174426349Y-97674043D01*
X174426349Y-97674042D01*
X174318625Y-97595776D01*
X174163790Y-97516884D01*
X174163788Y-97516883D01*
X173998524Y-97463185D01*
X173826884Y-97436000D01*
X173653116Y-97436000D01*
X173481475Y-97463185D01*
X173316211Y-97516883D01*
X173316209Y-97516884D01*
X173161379Y-97595773D01*
X173161379Y-97595774D01*
X173053649Y-97674042D01*
X173053649Y-97674044D01*
X173487840Y-98108235D01*
X173432993Y-98139901D01*
X173339901Y-98232993D01*
X173308235Y-98287840D01*
X172874044Y-97853649D01*
X172874042Y-97853649D01*
X172795774Y-97961379D01*
X172795773Y-97961379D01*
X172716884Y-98116209D01*
X172716883Y-98116211D01*
X172663185Y-98281475D01*
X172636000Y-98453116D01*
X172304500Y-98453116D01*
X172304500Y-98453074D01*
X172277303Y-98281362D01*
X172223580Y-98116019D01*
X172144653Y-97961116D01*
X172042465Y-97820467D01*
X172042463Y-97820464D01*
X171919535Y-97697536D01*
X171778887Y-97595349D01*
X171778886Y-97595348D01*
X171778884Y-97595347D01*
X171623981Y-97516420D01*
X171623978Y-97516419D01*
X171623976Y-97516418D01*
X171458642Y-97462698D01*
X171458640Y-97462697D01*
X171458638Y-97462697D01*
X171286926Y-97435500D01*
X171113074Y-97435500D01*
X170941362Y-97462697D01*
X170941360Y-97462697D01*
X170941357Y-97462698D01*
X170776023Y-97516418D01*
X170776017Y-97516421D01*
X170621112Y-97595349D01*
X170480464Y-97697536D01*
X170357536Y-97820464D01*
X170255349Y-97961112D01*
X170176421Y-98116017D01*
X170176418Y-98116023D01*
X170122698Y-98281357D01*
X170122697Y-98281360D01*
X170122697Y-98281362D01*
X170095500Y-98453074D01*
X169764500Y-98453074D01*
X169737303Y-98281362D01*
X169683580Y-98116019D01*
X169604653Y-97961116D01*
X169502465Y-97820467D01*
X169502463Y-97820464D01*
X169379535Y-97697536D01*
X169238887Y-97595349D01*
X169238886Y-97595348D01*
X169238884Y-97595347D01*
X169083981Y-97516420D01*
X169083978Y-97516419D01*
X169083976Y-97516418D01*
X168918642Y-97462698D01*
X168918640Y-97462697D01*
X168918638Y-97462697D01*
X168746926Y-97435500D01*
X168573074Y-97435500D01*
X168401362Y-97462697D01*
X168401360Y-97462697D01*
X168401357Y-97462698D01*
X168236023Y-97516418D01*
X168236017Y-97516421D01*
X168081112Y-97595349D01*
X167940464Y-97697536D01*
X167817536Y-97820464D01*
X167715349Y-97961112D01*
X167636421Y-98116017D01*
X167636418Y-98116023D01*
X167582698Y-98281357D01*
X167582697Y-98281360D01*
X167582697Y-98281362D01*
X167555500Y-98453074D01*
X167224500Y-98453074D01*
X167197303Y-98281362D01*
X167143580Y-98116019D01*
X167064653Y-97961116D01*
X166962465Y-97820467D01*
X166962463Y-97820464D01*
X166839535Y-97697536D01*
X166698887Y-97595349D01*
X166698886Y-97595348D01*
X166698884Y-97595347D01*
X166543981Y-97516420D01*
X166543978Y-97516419D01*
X166543976Y-97516418D01*
X166378642Y-97462698D01*
X166378640Y-97462697D01*
X166378638Y-97462697D01*
X166206926Y-97435500D01*
X166033074Y-97435500D01*
X165861362Y-97462697D01*
X165861360Y-97462697D01*
X165861357Y-97462698D01*
X165696023Y-97516418D01*
X165696017Y-97516421D01*
X165541112Y-97595349D01*
X165400464Y-97697536D01*
X165277536Y-97820464D01*
X165175349Y-97961112D01*
X165096421Y-98116017D01*
X165096418Y-98116023D01*
X165042698Y-98281357D01*
X165042697Y-98281360D01*
X165042697Y-98281362D01*
X165015500Y-98453074D01*
X164684500Y-98453074D01*
X164657303Y-98281362D01*
X164603580Y-98116019D01*
X164524653Y-97961116D01*
X164422465Y-97820467D01*
X164422463Y-97820464D01*
X164299535Y-97697536D01*
X164158887Y-97595349D01*
X164158886Y-97595348D01*
X164158884Y-97595347D01*
X164003981Y-97516420D01*
X164003978Y-97516419D01*
X164003976Y-97516418D01*
X163838642Y-97462698D01*
X163838640Y-97462697D01*
X163838638Y-97462697D01*
X163666926Y-97435500D01*
X163493074Y-97435500D01*
X163321362Y-97462697D01*
X163321360Y-97462697D01*
X163321357Y-97462698D01*
X163156023Y-97516418D01*
X163156017Y-97516421D01*
X163001112Y-97595349D01*
X162860464Y-97697536D01*
X162737536Y-97820464D01*
X162635349Y-97961112D01*
X162556421Y-98116017D01*
X162556418Y-98116023D01*
X162502698Y-98281357D01*
X162502697Y-98281360D01*
X162502697Y-98281362D01*
X162475500Y-98453074D01*
X162143993Y-98453074D01*
X162116814Y-98281475D01*
X162063116Y-98116211D01*
X162063115Y-98116209D01*
X161984223Y-97961374D01*
X161905955Y-97853649D01*
X161471764Y-98287839D01*
X161440099Y-98232993D01*
X161347007Y-98139901D01*
X161292158Y-98108234D01*
X161726349Y-97674043D01*
X161726349Y-97674042D01*
X161618625Y-97595776D01*
X161463790Y-97516884D01*
X161463788Y-97516883D01*
X161298524Y-97463185D01*
X161126884Y-97436000D01*
X160953116Y-97436000D01*
X160781475Y-97463185D01*
X160616211Y-97516883D01*
X160616209Y-97516884D01*
X160461379Y-97595773D01*
X160461379Y-97595774D01*
X160353649Y-97674042D01*
X160353649Y-97674044D01*
X160787840Y-98108235D01*
X160732993Y-98139901D01*
X160639901Y-98232993D01*
X160608235Y-98287840D01*
X160174044Y-97853649D01*
X160174042Y-97853649D01*
X160095774Y-97961379D01*
X160095773Y-97961379D01*
X160016884Y-98116209D01*
X160016883Y-98116211D01*
X159963185Y-98281475D01*
X159936000Y-98453116D01*
X159604500Y-98453116D01*
X159604500Y-98453074D01*
X159577303Y-98281362D01*
X159523580Y-98116019D01*
X159444653Y-97961116D01*
X159342465Y-97820467D01*
X159342463Y-97820464D01*
X159219535Y-97697536D01*
X159078887Y-97595349D01*
X159078886Y-97595348D01*
X159078884Y-97595347D01*
X158923981Y-97516420D01*
X158923978Y-97516419D01*
X158923976Y-97516418D01*
X158758642Y-97462698D01*
X158758640Y-97462697D01*
X158758638Y-97462697D01*
X158586926Y-97435500D01*
X158413074Y-97435500D01*
X158241362Y-97462697D01*
X158241360Y-97462697D01*
X158241357Y-97462698D01*
X158076023Y-97516418D01*
X158076017Y-97516421D01*
X157921112Y-97595349D01*
X157780464Y-97697536D01*
X157657536Y-97820464D01*
X157555349Y-97961112D01*
X157476421Y-98116017D01*
X157476418Y-98116023D01*
X157422698Y-98281357D01*
X157422697Y-98281360D01*
X157422697Y-98281362D01*
X157395500Y-98453074D01*
X154940000Y-98453074D01*
X154940000Y-95913074D01*
X157395500Y-95913074D01*
X157395500Y-96086926D01*
X157422697Y-96258638D01*
X157476420Y-96423981D01*
X157476421Y-96423982D01*
X157555349Y-96578887D01*
X157657536Y-96719535D01*
X157780464Y-96842463D01*
X157825342Y-96875069D01*
X157921116Y-96944653D01*
X158076019Y-97023580D01*
X158241362Y-97077303D01*
X158413074Y-97104500D01*
X158413077Y-97104500D01*
X158586923Y-97104500D01*
X158586926Y-97104500D01*
X158758638Y-97077303D01*
X158923981Y-97023580D01*
X159078884Y-96944653D01*
X159219533Y-96842465D01*
X159342465Y-96719533D01*
X159444653Y-96578884D01*
X159523580Y-96423981D01*
X159577303Y-96258638D01*
X159604500Y-96086926D01*
X159604500Y-95913074D01*
X159935500Y-95913074D01*
X159935500Y-96086926D01*
X159962697Y-96258638D01*
X160016420Y-96423981D01*
X160016421Y-96423982D01*
X160095349Y-96578887D01*
X160197536Y-96719535D01*
X160320464Y-96842463D01*
X160365342Y-96875069D01*
X160461116Y-96944653D01*
X160616019Y-97023580D01*
X160781362Y-97077303D01*
X160953074Y-97104500D01*
X160953077Y-97104500D01*
X161126923Y-97104500D01*
X161126926Y-97104500D01*
X161298638Y-97077303D01*
X161463981Y-97023580D01*
X161618884Y-96944653D01*
X161759533Y-96842465D01*
X161882465Y-96719533D01*
X161984653Y-96578884D01*
X162063580Y-96423981D01*
X162117303Y-96258638D01*
X162144500Y-96086926D01*
X162144500Y-95913074D01*
X162475500Y-95913074D01*
X162475500Y-96086926D01*
X162502697Y-96258638D01*
X162556420Y-96423981D01*
X162556421Y-96423982D01*
X162635349Y-96578887D01*
X162737536Y-96719535D01*
X162860464Y-96842463D01*
X162905342Y-96875069D01*
X163001116Y-96944653D01*
X163156019Y-97023580D01*
X163321362Y-97077303D01*
X163493074Y-97104500D01*
X163493077Y-97104500D01*
X163666923Y-97104500D01*
X163666926Y-97104500D01*
X163838638Y-97077303D01*
X164003981Y-97023580D01*
X164158884Y-96944653D01*
X164299533Y-96842465D01*
X164422465Y-96719533D01*
X164524653Y-96578884D01*
X164603580Y-96423981D01*
X164657303Y-96258638D01*
X164684500Y-96086926D01*
X164684500Y-95913074D01*
X165015500Y-95913074D01*
X165015500Y-96086926D01*
X165042697Y-96258638D01*
X165096420Y-96423981D01*
X165096421Y-96423982D01*
X165175349Y-96578887D01*
X165277536Y-96719535D01*
X165400464Y-96842463D01*
X165445342Y-96875069D01*
X165541116Y-96944653D01*
X165696019Y-97023580D01*
X165861362Y-97077303D01*
X166033074Y-97104500D01*
X166033077Y-97104500D01*
X166206923Y-97104500D01*
X166206926Y-97104500D01*
X166378638Y-97077303D01*
X166543981Y-97023580D01*
X166698884Y-96944653D01*
X166839533Y-96842465D01*
X166962465Y-96719533D01*
X167064653Y-96578884D01*
X167143580Y-96423981D01*
X167197303Y-96258638D01*
X167224500Y-96086926D01*
X167224500Y-95913074D01*
X167555500Y-95913074D01*
X167555500Y-96086926D01*
X167582697Y-96258638D01*
X167636420Y-96423981D01*
X167636421Y-96423982D01*
X167715349Y-96578887D01*
X167817536Y-96719535D01*
X167940464Y-96842463D01*
X167985342Y-96875069D01*
X168081116Y-96944653D01*
X168236019Y-97023580D01*
X168401362Y-97077303D01*
X168573074Y-97104500D01*
X168573077Y-97104500D01*
X168746923Y-97104500D01*
X168746926Y-97104500D01*
X168918638Y-97077303D01*
X169083981Y-97023580D01*
X169238884Y-96944653D01*
X169379533Y-96842465D01*
X169502465Y-96719533D01*
X169604653Y-96578884D01*
X169683580Y-96423981D01*
X169737303Y-96258638D01*
X169764500Y-96086926D01*
X169764500Y-95913074D01*
X170095500Y-95913074D01*
X170095500Y-96086926D01*
X170122697Y-96258638D01*
X170176420Y-96423981D01*
X170176421Y-96423982D01*
X170255349Y-96578887D01*
X170357536Y-96719535D01*
X170480464Y-96842463D01*
X170525342Y-96875069D01*
X170621116Y-96944653D01*
X170776019Y-97023580D01*
X170941362Y-97077303D01*
X171113074Y-97104500D01*
X171113077Y-97104500D01*
X171286923Y-97104500D01*
X171286926Y-97104500D01*
X171458638Y-97077303D01*
X171623981Y-97023580D01*
X171778884Y-96944653D01*
X171919533Y-96842465D01*
X172042465Y-96719533D01*
X172144653Y-96578884D01*
X172223580Y-96423981D01*
X172277303Y-96258638D01*
X172304500Y-96086926D01*
X172304500Y-95913074D01*
X172635500Y-95913074D01*
X172635500Y-96086926D01*
X172662697Y-96258638D01*
X172716420Y-96423981D01*
X172716421Y-96423982D01*
X172795349Y-96578887D01*
X172897536Y-96719535D01*
X173020464Y-96842463D01*
X173065342Y-96875069D01*
X173161116Y-96944653D01*
X173316019Y-97023580D01*
X173481362Y-97077303D01*
X173653074Y-97104500D01*
X173653077Y-97104500D01*
X173826923Y-97104500D01*
X173826926Y-97104500D01*
X173998638Y-97077303D01*
X174163981Y-97023580D01*
X174318884Y-96944653D01*
X174459533Y-96842465D01*
X174582465Y-96719533D01*
X174684653Y-96578884D01*
X174763580Y-96423981D01*
X174817303Y-96258638D01*
X174844500Y-96086926D01*
X174844500Y-95913074D01*
X174817303Y-95741362D01*
X174763580Y-95576019D01*
X174684653Y-95421116D01*
X174582465Y-95280467D01*
X174582463Y-95280464D01*
X174459535Y-95157536D01*
X174414657Y-95124930D01*
X175175500Y-95124930D01*
X175175500Y-96875063D01*
X175175501Y-96875073D01*
X175190265Y-96949300D01*
X175246516Y-97033484D01*
X175330697Y-97089733D01*
X175330699Y-97089734D01*
X175404933Y-97104500D01*
X177155066Y-97104499D01*
X177155069Y-97104498D01*
X177155073Y-97104498D01*
X177204326Y-97094701D01*
X177229301Y-97089734D01*
X177313484Y-97033484D01*
X177369734Y-96949301D01*
X177384500Y-96875067D01*
X177384499Y-95124934D01*
X177384498Y-95124930D01*
X177384498Y-95124926D01*
X177369734Y-95050699D01*
X177320102Y-94976421D01*
X177313484Y-94966516D01*
X177247907Y-94922698D01*
X177229302Y-94910266D01*
X177155067Y-94895500D01*
X175404936Y-94895500D01*
X175404926Y-94895501D01*
X175330699Y-94910265D01*
X175246515Y-94966516D01*
X175190266Y-95050697D01*
X175175500Y-95124930D01*
X174414657Y-95124930D01*
X174318887Y-95055349D01*
X174318886Y-95055348D01*
X174318884Y-95055347D01*
X174163981Y-94976420D01*
X174163978Y-94976419D01*
X174163976Y-94976418D01*
X173998642Y-94922698D01*
X173998640Y-94922697D01*
X173998638Y-94922697D01*
X173826926Y-94895500D01*
X173653074Y-94895500D01*
X173481362Y-94922697D01*
X173481360Y-94922697D01*
X173481357Y-94922698D01*
X173316023Y-94976418D01*
X173316017Y-94976421D01*
X173161112Y-95055349D01*
X173020464Y-95157536D01*
X172897536Y-95280464D01*
X172795349Y-95421112D01*
X172716421Y-95576017D01*
X172716418Y-95576023D01*
X172662698Y-95741357D01*
X172662697Y-95741360D01*
X172662697Y-95741362D01*
X172635500Y-95913074D01*
X172304500Y-95913074D01*
X172277303Y-95741362D01*
X172223580Y-95576019D01*
X172144653Y-95421116D01*
X172042465Y-95280467D01*
X172042463Y-95280464D01*
X171919535Y-95157536D01*
X171778887Y-95055349D01*
X171778886Y-95055348D01*
X171778884Y-95055347D01*
X171623981Y-94976420D01*
X171623978Y-94976419D01*
X171623976Y-94976418D01*
X171458642Y-94922698D01*
X171458640Y-94922697D01*
X171458638Y-94922697D01*
X171286926Y-94895500D01*
X171113074Y-94895500D01*
X170941362Y-94922697D01*
X170941360Y-94922697D01*
X170941357Y-94922698D01*
X170776023Y-94976418D01*
X170776017Y-94976421D01*
X170621112Y-95055349D01*
X170480464Y-95157536D01*
X170357536Y-95280464D01*
X170255349Y-95421112D01*
X170176421Y-95576017D01*
X170176418Y-95576023D01*
X170122698Y-95741357D01*
X170122697Y-95741360D01*
X170122697Y-95741362D01*
X170095500Y-95913074D01*
X169764500Y-95913074D01*
X169737303Y-95741362D01*
X169683580Y-95576019D01*
X169604653Y-95421116D01*
X169502465Y-95280467D01*
X169502463Y-95280464D01*
X169379535Y-95157536D01*
X169238887Y-95055349D01*
X169238886Y-95055348D01*
X169238884Y-95055347D01*
X169083981Y-94976420D01*
X169083978Y-94976419D01*
X169083976Y-94976418D01*
X168918642Y-94922698D01*
X168918640Y-94922697D01*
X168918638Y-94922697D01*
X168746926Y-94895500D01*
X168573074Y-94895500D01*
X168401362Y-94922697D01*
X168401360Y-94922697D01*
X168401357Y-94922698D01*
X168236023Y-94976418D01*
X168236017Y-94976421D01*
X168081112Y-95055349D01*
X167940464Y-95157536D01*
X167817536Y-95280464D01*
X167715349Y-95421112D01*
X167636421Y-95576017D01*
X167636418Y-95576023D01*
X167582698Y-95741357D01*
X167582697Y-95741360D01*
X167582697Y-95741362D01*
X167555500Y-95913074D01*
X167224500Y-95913074D01*
X167197303Y-95741362D01*
X167143580Y-95576019D01*
X167064653Y-95421116D01*
X166962465Y-95280467D01*
X166962463Y-95280464D01*
X166839535Y-95157536D01*
X166698887Y-95055349D01*
X166698886Y-95055348D01*
X166698884Y-95055347D01*
X166543981Y-94976420D01*
X166543978Y-94976419D01*
X166543976Y-94976418D01*
X166378642Y-94922698D01*
X166378640Y-94922697D01*
X166378638Y-94922697D01*
X166206926Y-94895500D01*
X166033074Y-94895500D01*
X165861362Y-94922697D01*
X165861360Y-94922697D01*
X165861357Y-94922698D01*
X165696023Y-94976418D01*
X165696017Y-94976421D01*
X165541112Y-95055349D01*
X165400464Y-95157536D01*
X165277536Y-95280464D01*
X165175349Y-95421112D01*
X165096421Y-95576017D01*
X165096418Y-95576023D01*
X165042698Y-95741357D01*
X165042697Y-95741360D01*
X165042697Y-95741362D01*
X165015500Y-95913074D01*
X164684500Y-95913074D01*
X164657303Y-95741362D01*
X164603580Y-95576019D01*
X164524653Y-95421116D01*
X164422465Y-95280467D01*
X164422463Y-95280464D01*
X164299535Y-95157536D01*
X164158887Y-95055349D01*
X164158886Y-95055348D01*
X164158884Y-95055347D01*
X164003981Y-94976420D01*
X164003978Y-94976419D01*
X164003976Y-94976418D01*
X163838642Y-94922698D01*
X163838640Y-94922697D01*
X163838638Y-94922697D01*
X163666926Y-94895500D01*
X163493074Y-94895500D01*
X163321362Y-94922697D01*
X163321360Y-94922697D01*
X163321357Y-94922698D01*
X163156023Y-94976418D01*
X163156017Y-94976421D01*
X163001112Y-95055349D01*
X162860464Y-95157536D01*
X162737536Y-95280464D01*
X162635349Y-95421112D01*
X162556421Y-95576017D01*
X162556418Y-95576023D01*
X162502698Y-95741357D01*
X162502697Y-95741360D01*
X162502697Y-95741362D01*
X162475500Y-95913074D01*
X162144500Y-95913074D01*
X162117303Y-95741362D01*
X162063580Y-95576019D01*
X161984653Y-95421116D01*
X161882465Y-95280467D01*
X161882463Y-95280464D01*
X161759535Y-95157536D01*
X161618887Y-95055349D01*
X161618886Y-95055348D01*
X161618884Y-95055347D01*
X161463981Y-94976420D01*
X161463978Y-94976419D01*
X161463976Y-94976418D01*
X161298642Y-94922698D01*
X161298640Y-94922697D01*
X161298638Y-94922697D01*
X161126926Y-94895500D01*
X160953074Y-94895500D01*
X160781362Y-94922697D01*
X160781360Y-94922697D01*
X160781357Y-94922698D01*
X160616023Y-94976418D01*
X160616017Y-94976421D01*
X160461112Y-95055349D01*
X160320464Y-95157536D01*
X160197536Y-95280464D01*
X160095349Y-95421112D01*
X160016421Y-95576017D01*
X160016418Y-95576023D01*
X159962698Y-95741357D01*
X159962697Y-95741360D01*
X159962697Y-95741362D01*
X159935500Y-95913074D01*
X159604500Y-95913074D01*
X159577303Y-95741362D01*
X159523580Y-95576019D01*
X159444653Y-95421116D01*
X159342465Y-95280467D01*
X159342463Y-95280464D01*
X159219535Y-95157536D01*
X159078887Y-95055349D01*
X159078886Y-95055348D01*
X159078884Y-95055347D01*
X158923981Y-94976420D01*
X158923978Y-94976419D01*
X158923976Y-94976418D01*
X158758642Y-94922698D01*
X158758640Y-94922697D01*
X158758638Y-94922697D01*
X158586926Y-94895500D01*
X158413074Y-94895500D01*
X158241362Y-94922697D01*
X158241360Y-94922697D01*
X158241357Y-94922698D01*
X158076023Y-94976418D01*
X158076017Y-94976421D01*
X157921112Y-95055349D01*
X157780464Y-95157536D01*
X157657536Y-95280464D01*
X157555349Y-95421112D01*
X157476421Y-95576017D01*
X157476418Y-95576023D01*
X157422698Y-95741357D01*
X157422697Y-95741360D01*
X157422697Y-95741362D01*
X157395500Y-95913074D01*
X154940000Y-95913074D01*
X154940000Y-89967896D01*
X176402500Y-89967896D01*
X176402500Y-90118103D01*
X176431803Y-90265413D01*
X176489282Y-90404179D01*
X176572728Y-90529065D01*
X176678935Y-90635272D01*
X176803821Y-90718718D01*
X176942587Y-90776197D01*
X177089900Y-90805500D01*
X177240100Y-90805500D01*
X177387413Y-90776197D01*
X177526179Y-90718718D01*
X177651065Y-90635272D01*
X177757272Y-90529065D01*
X177840718Y-90404179D01*
X177898197Y-90265413D01*
X177927500Y-90118100D01*
X177927500Y-89967900D01*
X177898197Y-89820587D01*
X177840718Y-89681821D01*
X177757272Y-89556935D01*
X177651065Y-89450728D01*
X177526179Y-89367282D01*
X177387414Y-89309803D01*
X177240103Y-89280500D01*
X177240100Y-89280500D01*
X177089900Y-89280500D01*
X177089896Y-89280500D01*
X176942585Y-89309803D01*
X176942584Y-89309804D01*
X176803819Y-89367283D01*
X176678939Y-89450725D01*
X176678932Y-89450730D01*
X176572730Y-89556932D01*
X176572725Y-89556939D01*
X176489283Y-89681819D01*
X176431804Y-89820584D01*
X176431803Y-89820585D01*
X176402500Y-89967896D01*
X154940000Y-89967896D01*
X154940000Y-85141896D01*
X157352500Y-85141896D01*
X157352500Y-85292103D01*
X157381803Y-85439413D01*
X157439282Y-85578179D01*
X157522728Y-85703065D01*
X157628935Y-85809272D01*
X157753821Y-85892718D01*
X157892587Y-85950197D01*
X158039900Y-85979500D01*
X158190100Y-85979500D01*
X158337413Y-85950197D01*
X158476179Y-85892718D01*
X158601065Y-85809272D01*
X158707272Y-85703065D01*
X158790718Y-85578179D01*
X158848197Y-85439413D01*
X158877500Y-85292100D01*
X158877500Y-85141900D01*
X158852371Y-85015572D01*
X162179176Y-85015572D01*
X162179176Y-85165779D01*
X162208479Y-85313089D01*
X162265958Y-85451855D01*
X162349404Y-85576741D01*
X162455611Y-85682948D01*
X162580497Y-85766394D01*
X162719263Y-85823873D01*
X162866576Y-85853176D01*
X163016776Y-85853176D01*
X163164089Y-85823873D01*
X163302855Y-85766394D01*
X163427741Y-85682948D01*
X163533948Y-85576741D01*
X163617394Y-85451855D01*
X163674873Y-85313089D01*
X163704176Y-85165776D01*
X163704176Y-85015576D01*
X163679047Y-84889248D01*
X167005852Y-84889248D01*
X167005852Y-85039455D01*
X167035155Y-85186765D01*
X167092634Y-85325531D01*
X167176080Y-85450417D01*
X167282287Y-85556624D01*
X167407173Y-85640070D01*
X167545939Y-85697549D01*
X167693252Y-85726852D01*
X167843452Y-85726852D01*
X167990765Y-85697549D01*
X168129531Y-85640070D01*
X168254417Y-85556624D01*
X168360624Y-85450417D01*
X168444070Y-85325531D01*
X168501549Y-85186765D01*
X168530852Y-85039452D01*
X168530852Y-84889924D01*
X171832528Y-84889924D01*
X171832528Y-85040131D01*
X171861697Y-85186766D01*
X171861831Y-85187441D01*
X171919310Y-85326207D01*
X172002756Y-85451093D01*
X172108963Y-85557300D01*
X172233849Y-85640746D01*
X172372615Y-85698225D01*
X172519928Y-85727528D01*
X172670128Y-85727528D01*
X172817441Y-85698225D01*
X172956207Y-85640746D01*
X173081093Y-85557300D01*
X173187300Y-85451093D01*
X173270746Y-85326207D01*
X173328225Y-85187441D01*
X173357528Y-85040128D01*
X173357528Y-84889928D01*
X173328225Y-84742615D01*
X173270746Y-84603849D01*
X173187300Y-84478963D01*
X173081093Y-84372756D01*
X172956207Y-84289310D01*
X172817442Y-84231831D01*
X172670131Y-84202528D01*
X172670128Y-84202528D01*
X172519928Y-84202528D01*
X172519924Y-84202528D01*
X172372613Y-84231831D01*
X172372612Y-84231832D01*
X172233847Y-84289311D01*
X172108967Y-84372753D01*
X172108960Y-84372758D01*
X172002758Y-84478960D01*
X172002753Y-84478967D01*
X171919762Y-84603173D01*
X171919310Y-84603849D01*
X171918993Y-84604615D01*
X171861832Y-84742612D01*
X171861831Y-84742613D01*
X171832528Y-84889924D01*
X168530852Y-84889924D01*
X168530852Y-84889252D01*
X168501549Y-84741939D01*
X168444070Y-84603173D01*
X168360624Y-84478287D01*
X168254417Y-84372080D01*
X168129531Y-84288634D01*
X167990766Y-84231155D01*
X167843455Y-84201852D01*
X167843452Y-84201852D01*
X167693252Y-84201852D01*
X167693248Y-84201852D01*
X167545937Y-84231155D01*
X167545936Y-84231156D01*
X167407171Y-84288635D01*
X167282291Y-84372077D01*
X167282284Y-84372082D01*
X167176082Y-84478284D01*
X167176077Y-84478291D01*
X167172394Y-84483804D01*
X167092634Y-84603173D01*
X167092037Y-84604615D01*
X167035156Y-84741936D01*
X167035155Y-84741937D01*
X167005852Y-84889248D01*
X163679047Y-84889248D01*
X163674873Y-84868263D01*
X163617394Y-84729497D01*
X163533948Y-84604611D01*
X163427741Y-84498404D01*
X163302855Y-84414958D01*
X163164090Y-84357479D01*
X163016779Y-84328176D01*
X163016776Y-84328176D01*
X162866576Y-84328176D01*
X162866572Y-84328176D01*
X162719261Y-84357479D01*
X162719260Y-84357480D01*
X162580495Y-84414959D01*
X162455615Y-84498401D01*
X162455608Y-84498406D01*
X162349406Y-84604608D01*
X162349404Y-84604611D01*
X162265958Y-84729497D01*
X162265361Y-84730939D01*
X162208480Y-84868260D01*
X162208479Y-84868261D01*
X162179176Y-85015572D01*
X158852371Y-85015572D01*
X158848197Y-84994587D01*
X158790718Y-84855821D01*
X158707272Y-84730935D01*
X158601065Y-84624728D01*
X158476179Y-84541282D01*
X158337414Y-84483803D01*
X158190103Y-84454500D01*
X158190100Y-84454500D01*
X158039900Y-84454500D01*
X158039896Y-84454500D01*
X157892585Y-84483803D01*
X157892584Y-84483804D01*
X157753819Y-84541283D01*
X157628939Y-84624725D01*
X157628932Y-84624730D01*
X157522730Y-84730932D01*
X157522725Y-84730939D01*
X157439283Y-84855819D01*
X157381804Y-84994584D01*
X157381803Y-84994585D01*
X157352500Y-85141896D01*
X154940000Y-85141896D01*
X154940000Y-82474896D01*
X155447500Y-82474896D01*
X155447500Y-82625103D01*
X155476803Y-82772413D01*
X155534282Y-82911179D01*
X155617728Y-83036065D01*
X155723935Y-83142272D01*
X155848821Y-83225718D01*
X155987587Y-83283197D01*
X156134900Y-83312500D01*
X156285100Y-83312500D01*
X156432413Y-83283197D01*
X156571179Y-83225718D01*
X156696065Y-83142272D01*
X156802272Y-83036065D01*
X156885718Y-82911179D01*
X156943197Y-82772413D01*
X156972500Y-82625100D01*
X156972500Y-82474900D01*
X156943197Y-82327587D01*
X156885718Y-82188821D01*
X156802272Y-82063935D01*
X156696065Y-81957728D01*
X156571179Y-81874282D01*
X156432414Y-81816803D01*
X156285103Y-81787500D01*
X156285100Y-81787500D01*
X156134900Y-81787500D01*
X156134896Y-81787500D01*
X155987585Y-81816803D01*
X155987584Y-81816804D01*
X155848819Y-81874283D01*
X155723939Y-81957725D01*
X155723932Y-81957730D01*
X155617730Y-82063932D01*
X155617725Y-82063939D01*
X155534283Y-82188819D01*
X155476804Y-82327584D01*
X155476803Y-82327585D01*
X155447500Y-82474896D01*
X154940000Y-82474896D01*
X154940000Y-77224896D01*
X176932000Y-77224896D01*
X176932000Y-77375103D01*
X176961303Y-77522413D01*
X177018782Y-77661179D01*
X177102228Y-77786065D01*
X177208435Y-77892272D01*
X177333321Y-77975718D01*
X177472087Y-78033197D01*
X177619400Y-78062500D01*
X177769600Y-78062500D01*
X177916913Y-78033197D01*
X178055679Y-77975718D01*
X178180565Y-77892272D01*
X178286772Y-77786065D01*
X178370218Y-77661179D01*
X178427697Y-77522413D01*
X178457000Y-77375100D01*
X178457000Y-77224900D01*
X178427697Y-77077587D01*
X178370218Y-76938821D01*
X178286772Y-76813935D01*
X178180565Y-76707728D01*
X178055679Y-76624282D01*
X177916914Y-76566803D01*
X177769603Y-76537500D01*
X177769600Y-76537500D01*
X177619400Y-76537500D01*
X177619396Y-76537500D01*
X177472085Y-76566803D01*
X177472084Y-76566804D01*
X177333319Y-76624283D01*
X177208439Y-76707725D01*
X177208432Y-76707730D01*
X177102230Y-76813932D01*
X177102225Y-76813939D01*
X177018783Y-76938819D01*
X176961304Y-77077584D01*
X176961303Y-77077585D01*
X176932000Y-77224896D01*
X154940000Y-77224896D01*
X154940000Y-74727896D01*
X167639500Y-74727896D01*
X167639500Y-74878103D01*
X167668803Y-75025413D01*
X167726282Y-75164179D01*
X167809728Y-75289065D01*
X167915935Y-75395272D01*
X168040821Y-75478718D01*
X168179587Y-75536197D01*
X168326900Y-75565500D01*
X168477100Y-75565500D01*
X168624413Y-75536197D01*
X168763179Y-75478718D01*
X168888065Y-75395272D01*
X168994272Y-75289065D01*
X169077718Y-75164179D01*
X169135197Y-75025413D01*
X169164500Y-74878100D01*
X169164500Y-74727900D01*
X169135197Y-74580587D01*
X169077718Y-74441821D01*
X168994272Y-74316935D01*
X168888065Y-74210728D01*
X168763179Y-74127282D01*
X168624414Y-74069803D01*
X168477103Y-74040500D01*
X168477100Y-74040500D01*
X168326900Y-74040500D01*
X168326896Y-74040500D01*
X168179585Y-74069803D01*
X168179584Y-74069804D01*
X168040819Y-74127283D01*
X167915939Y-74210725D01*
X167915932Y-74210730D01*
X167809730Y-74316932D01*
X167809725Y-74316939D01*
X167726283Y-74441819D01*
X167668804Y-74580584D01*
X167668803Y-74580585D01*
X167639500Y-74727896D01*
X154940000Y-74727896D01*
X154940000Y-72822896D01*
X167639500Y-72822896D01*
X167639500Y-72973103D01*
X167668803Y-73120413D01*
X167726282Y-73259179D01*
X167809728Y-73384065D01*
X167915935Y-73490272D01*
X168040821Y-73573718D01*
X168179587Y-73631197D01*
X168326900Y-73660500D01*
X168477100Y-73660500D01*
X168624413Y-73631197D01*
X168763179Y-73573718D01*
X168888065Y-73490272D01*
X168994272Y-73384065D01*
X169077718Y-73259179D01*
X169135197Y-73120413D01*
X169164500Y-72973100D01*
X169164500Y-72822900D01*
X169135197Y-72675587D01*
X169077718Y-72536821D01*
X168994272Y-72411935D01*
X168888065Y-72305728D01*
X168763179Y-72222282D01*
X168624414Y-72164803D01*
X168477103Y-72135500D01*
X168477100Y-72135500D01*
X168326900Y-72135500D01*
X168326896Y-72135500D01*
X168179585Y-72164803D01*
X168179584Y-72164804D01*
X168040819Y-72222283D01*
X167915939Y-72305725D01*
X167915932Y-72305730D01*
X167809730Y-72411932D01*
X167809725Y-72411939D01*
X167726283Y-72536819D01*
X167668804Y-72675584D01*
X167668803Y-72675585D01*
X167639500Y-72822896D01*
X154940000Y-72822896D01*
X154940000Y-66472896D01*
X172338500Y-66472896D01*
X172338500Y-66623103D01*
X172367803Y-66770413D01*
X172425282Y-66909179D01*
X172508728Y-67034065D01*
X172614935Y-67140272D01*
X172739821Y-67223718D01*
X172878587Y-67281197D01*
X173025900Y-67310500D01*
X173176100Y-67310500D01*
X173323413Y-67281197D01*
X173462179Y-67223718D01*
X173587065Y-67140272D01*
X173693272Y-67034065D01*
X173776718Y-66909179D01*
X173834197Y-66770413D01*
X173863500Y-66623100D01*
X173863500Y-66472900D01*
X173834197Y-66325587D01*
X173776718Y-66186821D01*
X173693272Y-66061935D01*
X173587065Y-65955728D01*
X173462179Y-65872282D01*
X173323414Y-65814803D01*
X173176103Y-65785500D01*
X173176100Y-65785500D01*
X173025900Y-65785500D01*
X173025896Y-65785500D01*
X172878585Y-65814803D01*
X172878584Y-65814804D01*
X172739819Y-65872283D01*
X172614939Y-65955725D01*
X172614932Y-65955730D01*
X172508730Y-66061932D01*
X172508725Y-66061939D01*
X172425283Y-66186819D01*
X172367804Y-66325584D01*
X172367803Y-66325585D01*
X172338500Y-66472896D01*
X154940000Y-66472896D01*
X154940000Y-64821896D01*
X162432500Y-64821896D01*
X162432500Y-64972103D01*
X162461803Y-65119413D01*
X162519282Y-65258179D01*
X162602728Y-65383065D01*
X162708935Y-65489272D01*
X162833821Y-65572718D01*
X162972587Y-65630197D01*
X163119900Y-65659500D01*
X163270100Y-65659500D01*
X163417413Y-65630197D01*
X163556179Y-65572718D01*
X163681065Y-65489272D01*
X163787272Y-65383065D01*
X163870718Y-65258179D01*
X163928197Y-65119413D01*
X163957500Y-64972100D01*
X163957500Y-64821900D01*
X163928197Y-64674587D01*
X163870718Y-64535821D01*
X163787272Y-64410935D01*
X163681065Y-64304728D01*
X163556179Y-64221282D01*
X163417414Y-64163803D01*
X163270103Y-64134500D01*
X163270100Y-64134500D01*
X163119900Y-64134500D01*
X163119896Y-64134500D01*
X162972585Y-64163803D01*
X162972584Y-64163804D01*
X162833819Y-64221283D01*
X162708939Y-64304725D01*
X162708932Y-64304730D01*
X162602730Y-64410932D01*
X162602725Y-64410939D01*
X162519283Y-64535819D01*
X162461804Y-64674584D01*
X162461803Y-64674585D01*
X162432500Y-64821896D01*
X154940000Y-64821896D01*
X154940000Y-62033265D01*
X176335500Y-62033265D01*
X176335500Y-62426734D01*
X176374064Y-62818283D01*
X176374066Y-62818291D01*
X176450826Y-63204187D01*
X176565040Y-63580702D01*
X176715610Y-63944209D01*
X176901085Y-64291209D01*
X177119677Y-64618355D01*
X177286719Y-64821896D01*
X177369283Y-64922501D01*
X177369290Y-64922508D01*
X177369299Y-64922518D01*
X177647481Y-65200700D01*
X177647490Y-65200708D01*
X177647499Y-65200717D01*
X177647509Y-65200725D01*
X177951644Y-65450322D01*
X178220846Y-65630197D01*
X178278793Y-65668916D01*
X178625791Y-65854390D01*
X178989298Y-66004960D01*
X179365813Y-66119174D01*
X179751709Y-66195934D01*
X179751712Y-66195934D01*
X179751716Y-66195935D01*
X179947490Y-66215217D01*
X180143272Y-66234500D01*
X180143281Y-66234500D01*
X180536719Y-66234500D01*
X180536728Y-66234500D01*
X180794598Y-66209101D01*
X180928283Y-66195935D01*
X180928285Y-66195934D01*
X180928291Y-66195934D01*
X181314187Y-66119174D01*
X181690702Y-66004960D01*
X182054209Y-65854390D01*
X182401207Y-65668916D01*
X182728354Y-65450323D01*
X183032501Y-65200717D01*
X183310717Y-64922501D01*
X183560323Y-64618354D01*
X183778916Y-64291207D01*
X183964390Y-63944209D01*
X184114960Y-63580702D01*
X184229174Y-63204187D01*
X184305934Y-62818291D01*
X184344500Y-62426728D01*
X184344500Y-62033272D01*
X184305934Y-61641709D01*
X184229174Y-61255813D01*
X184114960Y-60879298D01*
X183964390Y-60515791D01*
X183778916Y-60168793D01*
X183560323Y-59841646D01*
X183560322Y-59841644D01*
X183310725Y-59537509D01*
X183310717Y-59537499D01*
X183310708Y-59537490D01*
X183310700Y-59537481D01*
X183032518Y-59259299D01*
X183032508Y-59259290D01*
X183032501Y-59259283D01*
X183022653Y-59251201D01*
X182728355Y-59009677D01*
X182401209Y-58791085D01*
X182054209Y-58605610D01*
X181690702Y-58455040D01*
X181314187Y-58340826D01*
X181314188Y-58340826D01*
X180928283Y-58264064D01*
X180536734Y-58225500D01*
X180536728Y-58225500D01*
X180143272Y-58225500D01*
X180143265Y-58225500D01*
X179751716Y-58264064D01*
X179365812Y-58340826D01*
X178989307Y-58455037D01*
X178989304Y-58455038D01*
X178989298Y-58455040D01*
X178757624Y-58551002D01*
X178625790Y-58605610D01*
X178278790Y-58791085D01*
X177951644Y-59009677D01*
X177647509Y-59259274D01*
X177647481Y-59259299D01*
X177369299Y-59537481D01*
X177369274Y-59537509D01*
X177119677Y-59841644D01*
X176901085Y-60168790D01*
X176715610Y-60515790D01*
X176715610Y-60515791D01*
X176565040Y-60879298D01*
X176565038Y-60879304D01*
X176565037Y-60879307D01*
X176450826Y-61255812D01*
X176374064Y-61641716D01*
X176335500Y-62033265D01*
X154940000Y-62033265D01*
X154940000Y-57776500D01*
X154960002Y-57708379D01*
X155013658Y-57661886D01*
X155066000Y-57650500D01*
X184793500Y-57650500D01*
X184861621Y-57670502D01*
G37*
%TD.AperFunction*%
%TD*%
M02*
