%TF.GenerationSoftware,KiCad,Pcbnew,9.0.5-9.0.5~ubuntu24.04.1*%
%TF.CreationDate,2025-10-21T16:22:32-04:00*%
%TF.ProjectId,led-photodiode-avr,6c65642d-7068-46f7-946f-64696f64652d,rev?*%
%TF.SameCoordinates,Original*%
%TF.FileFunction,Copper,L4,Bot*%
%TF.FilePolarity,Positive*%
%FSLAX46Y46*%
G04 Gerber Fmt 4.6, Leading zero omitted, Abs format (unit mm)*
G04 Created by KiCad (PCBNEW 9.0.5-9.0.5~ubuntu24.04.1) date 2025-10-21 16:22:32*
%MOMM*%
%LPD*%
G01*
G04 APERTURE LIST*
G04 Aperture macros list*
%AMRoundRect*
0 Rectangle with rounded corners*
0 $1 Rounding radius*
0 $2 $3 $4 $5 $6 $7 $8 $9 X,Y pos of 4 corners*
0 Add a 4 corners polygon primitive as box body*
4,1,4,$2,$3,$4,$5,$6,$7,$8,$9,$2,$3,0*
0 Add four circle primitives for the rounded corners*
1,1,$1+$1,$2,$3*
1,1,$1+$1,$4,$5*
1,1,$1+$1,$6,$7*
1,1,$1+$1,$8,$9*
0 Add four rect primitives between the rounded corners*
20,1,$1+$1,$2,$3,$4,$5,0*
20,1,$1+$1,$4,$5,$6,$7,0*
20,1,$1+$1,$6,$7,$8,$9,0*
20,1,$1+$1,$8,$9,$2,$3,0*%
G04 Aperture macros list end*
%TA.AperFunction,ComponentPad*%
%ADD10R,1.700000X1.700000*%
%TD*%
%TA.AperFunction,ComponentPad*%
%ADD11C,1.700000*%
%TD*%
%TA.AperFunction,ComponentPad*%
%ADD12C,7.500000*%
%TD*%
%TA.AperFunction,ComponentPad*%
%ADD13RoundRect,0.250001X1.149999X-1.149999X1.149999X1.149999X-1.149999X1.149999X-1.149999X-1.149999X0*%
%TD*%
%TA.AperFunction,ComponentPad*%
%ADD14C,2.800000*%
%TD*%
%TA.AperFunction,ComponentPad*%
%ADD15RoundRect,0.250000X0.600000X0.600000X-0.600000X0.600000X-0.600000X-0.600000X0.600000X-0.600000X0*%
%TD*%
%TA.AperFunction,ViaPad*%
%ADD16C,0.635000*%
%TD*%
%TA.AperFunction,ViaPad*%
%ADD17C,1.016000*%
%TD*%
%TA.AperFunction,Conductor*%
%ADD18C,0.177800*%
%TD*%
%TA.AperFunction,Conductor*%
%ADD19C,0.254000*%
%TD*%
G04 APERTURE END LIST*
D10*
%TO.P,J3,1,Pin_1*%
%TO.N,GND*%
X124460000Y-100330000D03*
D11*
%TO.P,J3,2,Pin_2*%
%TO.N,unconnected-(J3-Pin_2-Pad2)*%
X124460000Y-97790000D03*
%TO.P,J3,3,Pin_3*%
%TO.N,Net-(J3-Pin_3)*%
X124460000Y-95250000D03*
%TO.P,J3,4,Pin_4*%
%TO.N,/RXD*%
X124460000Y-92710000D03*
%TO.P,J3,5,Pin_5*%
%TO.N,/TXD*%
X124460000Y-90170000D03*
%TO.P,J3,6,Pin_6*%
%TO.N,unconnected-(J3-Pin_6-Pad6)*%
X124460000Y-87630000D03*
%TD*%
D12*
%TO.P,H3,1*%
%TO.N,N/C*%
X121920000Y-132080000D03*
%TD*%
D13*
%TO.P,J4,1,Pin_1*%
%TO.N,VBUS*%
X120617500Y-117820000D03*
D14*
%TO.P,J4,2,Pin_2*%
%TO.N,GND*%
X120617500Y-112820000D03*
%TD*%
D12*
%TO.P,H4,1*%
%TO.N,N/C*%
X180340000Y-132080000D03*
%TD*%
D15*
%TO.P,J1,1,MISO*%
%TO.N,/MISO*%
X122560000Y-78740000D03*
D11*
%TO.P,J1,2,VCC*%
%TO.N,VCC*%
X120020000Y-78740000D03*
%TO.P,J1,3,SCK*%
%TO.N,/SCK*%
X122560000Y-76200000D03*
%TO.P,J1,4,MOSI*%
%TO.N,/MOSI*%
X120020000Y-76200000D03*
%TO.P,J1,5,~{RST}*%
%TO.N,/~{RESET}*%
X122560000Y-73660000D03*
%TO.P,J1,6,GND*%
%TO.N,GND*%
X120020000Y-73660000D03*
%TD*%
D10*
%TO.P,J2,1,Pin_1*%
%TO.N,/LED_driver/LED_1*%
X176280000Y-96000000D03*
D11*
%TO.P,J2,2,Pin_2*%
%TO.N,Net-(J2-Pin_2)*%
X176280000Y-98540000D03*
%TO.P,J2,3,Pin_3*%
%TO.N,/LED_driver/LED_2*%
X173740000Y-96000000D03*
%TO.P,J2,4,Pin_4*%
%TO.N,Earth*%
X173740000Y-98540000D03*
%TO.P,J2,5,Pin_5*%
%TO.N,/LED_driver/LED_3*%
X171200000Y-96000000D03*
%TO.P,J2,6,Pin_6*%
%TO.N,Net-(J2-Pin_6)*%
X171200000Y-98540000D03*
%TO.P,J2,7,Pin_7*%
%TO.N,/LED_driver/LED_4*%
X168660000Y-96000000D03*
%TO.P,J2,8,Pin_8*%
%TO.N,+5VA*%
X168660000Y-98540000D03*
%TO.P,J2,9,Pin_9*%
%TO.N,/LED_driver/LED_5*%
X166120000Y-96000000D03*
%TO.P,J2,10,Pin_10*%
%TO.N,+5VA*%
X166120000Y-98540000D03*
%TO.P,J2,11,Pin_11*%
%TO.N,/LED_driver/LED_6*%
X163580000Y-96000000D03*
%TO.P,J2,12,Pin_12*%
%TO.N,unconnected-(J2-Pin_12-Pad12)*%
X163580000Y-98540000D03*
%TO.P,J2,13,Pin_13*%
%TO.N,/LED_driver/LED_7*%
X161040000Y-96000000D03*
%TO.P,J2,14,Pin_14*%
%TO.N,Earth*%
X161040000Y-98540000D03*
%TO.P,J2,15,Pin_15*%
%TO.N,/LED_driver/LED_8*%
X158500000Y-96000000D03*
%TO.P,J2,16,Pin_16*%
%TO.N,Net-(J2-Pin_16)*%
X158500000Y-98540000D03*
%TD*%
D12*
%TO.P,H2,1*%
%TO.N,N/C*%
X180340000Y-62230000D03*
%TD*%
%TO.P,H1,1*%
%TO.N,N/C*%
X121920000Y-62230000D03*
%TD*%
D16*
%TO.N,/SCL*%
X146558000Y-81153000D03*
%TO.N,/SDA*%
X147828000Y-81026000D03*
X147828000Y-64770000D03*
X147828000Y-74168000D03*
%TO.N,/SCL*%
X146939000Y-66548000D03*
X146812000Y-74168000D03*
%TO.N,+5VA*%
X171196000Y-65405000D03*
%TO.N,Earth*%
X163322000Y-60706000D03*
%TO.N,+5VA*%
X155702000Y-64008000D03*
%TO.N,GND*%
X153543000Y-65405000D03*
%TO.N,VCC*%
X153543000Y-66675000D03*
X149098000Y-62611000D03*
%TO.N,GND*%
X153228000Y-62550000D03*
%TO.N,+5VA*%
X157988000Y-59182000D03*
%TO.N,Earth*%
X162433000Y-59182000D03*
%TO.N,Net-(J2-Pin_6)*%
X167132000Y-65405000D03*
%TO.N,Net-(U3--)*%
X169418000Y-76708000D03*
X173609000Y-84455000D03*
%TO.N,Net-(Q6-B)*%
X176276000Y-87503000D03*
X176530000Y-81915000D03*
%TO.N,Net-(Q7-B)*%
X178562000Y-81788000D03*
X179959000Y-87503000D03*
D17*
%TO.N,Earth*%
X160796000Y-132320000D03*
X180340000Y-110490000D03*
X156083000Y-104013000D03*
X168656000Y-115570000D03*
X170688000Y-108585000D03*
X156972000Y-127508000D03*
X178435000Y-123063000D03*
X155575000Y-119126000D03*
X157031000Y-101727000D03*
X182880000Y-82931000D03*
X162687000Y-119507000D03*
X162244000Y-74422000D03*
X174362000Y-135010000D03*
X158369000Y-104013000D03*
X176784000Y-117348000D03*
D16*
X165165000Y-82804000D03*
D17*
X170815000Y-132334000D03*
X155829000Y-130175000D03*
X155829000Y-134620000D03*
X168594000Y-74295000D03*
X157861000Y-77470000D03*
D16*
X162937500Y-114169500D03*
D17*
%TO.N,+5VA*%
X157926000Y-85090000D03*
X164465000Y-134620000D03*
X173293000Y-71755000D03*
X181422000Y-118425000D03*
X163387000Y-70104000D03*
X173355000Y-113030000D03*
X175260000Y-108585000D03*
D16*
X165143500Y-84857500D03*
D17*
X174117000Y-130302000D03*
X180340000Y-122936000D03*
X156587500Y-110236000D03*
%TO.N,GND*%
X144145000Y-99314000D03*
X153670000Y-78740000D03*
D16*
X148909000Y-71755000D03*
X142621000Y-101727000D03*
D17*
X144780000Y-86487000D03*
X141224000Y-116205000D03*
X132504000Y-89070000D03*
D16*
X146138000Y-135040000D03*
D17*
X148949500Y-69977000D03*
X151130000Y-90043000D03*
D16*
X148909000Y-74549000D03*
D17*
X134366000Y-132080000D03*
X139573000Y-88011000D03*
X147697500Y-123313500D03*
X152332000Y-101727000D03*
X150981500Y-84687500D03*
X128524000Y-129667000D03*
X143764000Y-132080000D03*
X141351000Y-113665000D03*
X128651000Y-134620000D03*
X149163000Y-76962000D03*
X136398000Y-97790000D03*
X136398000Y-102489000D03*
X139630000Y-86430000D03*
%TO.N,VCC*%
X134620000Y-77470000D03*
D16*
X153608000Y-71882000D03*
D17*
X153735000Y-76962000D03*
X133223000Y-134620000D03*
X132572000Y-94234000D03*
X132588000Y-87122000D03*
D16*
X153481000Y-74422000D03*
D17*
X141859000Y-76978000D03*
X146431000Y-112141000D03*
X131572000Y-97790000D03*
D16*
X145923000Y-130175000D03*
D17*
X136652000Y-87122000D03*
X137795000Y-134620000D03*
X131445000Y-100711000D03*
X151130000Y-88138000D03*
D16*
%TO.N,Net-(J2-Pin_16)*%
X164338000Y-119507000D03*
%TO.N,/MOSI*%
X147348600Y-96266000D03*
X127381000Y-96774000D03*
X144272000Y-95849800D03*
%TO.N,/MISO*%
X143637000Y-90297000D03*
X127889000Y-90424000D03*
D17*
%TO.N,/~{RESET}*%
X131064000Y-75565000D03*
X137795000Y-75565000D03*
D16*
%TO.N,/SCK*%
X128524000Y-92456000D03*
X146318401Y-92851401D03*
X148508820Y-92851401D03*
%TO.N,/RXD*%
X138303000Y-81407000D03*
%TO.N,/TXD*%
X139065000Y-82042000D03*
%TO.N,/GP_LED*%
X138430000Y-95377000D03*
X135255000Y-95377000D03*
%TO.N,/PB0*%
X141859000Y-95377000D03*
X152273000Y-95377000D03*
X148578006Y-96531994D03*
%TO.N,/PD5*%
X139446000Y-94107000D03*
X151257000Y-94107000D03*
%TO.N,/PD6{slash}OC0A*%
X140335000Y-94742000D03*
X149860000Y-94742000D03*
%TO.N,/PB1{slash}OC1A*%
X150622000Y-93472000D03*
X142621000Y-93472000D03*
%TO.N,/PD7*%
X152273000Y-97790000D03*
X141097000Y-96012000D03*
X147861000Y-95471000D03*
%TO.N,/GP_LED2*%
X138176000Y-101727000D03*
X135763000Y-99314000D03*
%TO.N,Net-(U6-AREF)*%
X144780000Y-88265000D03*
X150876000Y-86741000D03*
%TO.N,Net-(U6-AVCC)*%
X144780000Y-89789000D03*
X149606000Y-90297000D03*
%TD*%
D18*
%TO.N,/SCL*%
X146558000Y-81153000D02*
X146558000Y-74422000D01*
X146558000Y-74422000D02*
X146812000Y-74168000D01*
%TO.N,/SDA*%
X147828000Y-74168000D02*
X147828000Y-81026000D01*
X147828000Y-74168000D02*
X147828000Y-64770000D01*
%TO.N,/SCL*%
X146812000Y-66675000D02*
X146939000Y-66548000D01*
X146812000Y-74168000D02*
X146812000Y-66675000D01*
%TO.N,Net-(J2-Pin_6)*%
X171200000Y-98540000D02*
X172266900Y-97473100D01*
X172266900Y-97473100D02*
X172266900Y-83874900D01*
X172266900Y-83874900D02*
X167132000Y-78740000D01*
X167132000Y-78740000D02*
X167132000Y-65405000D01*
%TO.N,Net-(U3--)*%
X173609000Y-80899000D02*
X169418000Y-76708000D01*
X173609000Y-84455000D02*
X173609000Y-80899000D01*
%TO.N,Net-(Q6-B)*%
X176530000Y-87249000D02*
X176276000Y-87503000D01*
X176530000Y-81915000D02*
X176530000Y-87249000D01*
%TO.N,Net-(Q7-B)*%
X178562000Y-86106000D02*
X179959000Y-87503000D01*
X178562000Y-81788000D02*
X178562000Y-86106000D01*
D19*
%TO.N,Net-(J2-Pin_16)*%
X158500000Y-100842000D02*
X158500000Y-98540000D01*
X166751000Y-109093000D02*
X158500000Y-100842000D01*
X166751000Y-113284000D02*
X166751000Y-109093000D01*
X164274500Y-115760500D02*
X164274500Y-119443500D01*
X164274500Y-119443500D02*
X164338000Y-119507000D01*
X164274500Y-115760500D02*
X166751000Y-113284000D01*
D18*
%TO.N,/MOSI*%
X143347800Y-96774000D02*
X127381000Y-96774000D01*
X144272000Y-95758000D02*
X144272000Y-95849800D01*
X147348600Y-96266000D02*
X144780000Y-96266000D01*
X144780000Y-96266000D02*
X144272000Y-95758000D01*
X144272000Y-95849800D02*
X143347800Y-96774000D01*
%TO.N,/MISO*%
X143637000Y-90297000D02*
X128016000Y-90297000D01*
X128016000Y-90297000D02*
X127889000Y-90424000D01*
%TO.N,/~{RESET}*%
X137795000Y-75565000D02*
X128143000Y-75565000D01*
X128143000Y-75565000D02*
X126238000Y-73660000D01*
X126238000Y-73660000D02*
X122560000Y-73660000D01*
%TO.N,/SCK*%
X148508820Y-92851401D02*
X146318401Y-92851401D01*
X146318401Y-92851401D02*
X145923000Y-92456000D01*
X145923000Y-92456000D02*
X128524000Y-92456000D01*
%TO.N,/RXD*%
X138303000Y-81407000D02*
X139288994Y-81407000D01*
X127254000Y-83439000D02*
X127254000Y-89916000D01*
X139288994Y-81407000D02*
X139672400Y-81790406D01*
X127889000Y-82804000D02*
X127254000Y-83439000D01*
X139672400Y-82293594D02*
X139161994Y-82804000D01*
X127254000Y-89916000D02*
X124460000Y-92710000D01*
X139161994Y-82804000D02*
X127889000Y-82804000D01*
X139672400Y-81790406D02*
X139672400Y-82293594D01*
%TO.N,/TXD*%
X126492000Y-83185000D02*
X126492000Y-88138000D01*
X139065000Y-82042000D02*
X127635000Y-82042000D01*
X126492000Y-88138000D02*
X124460000Y-90170000D01*
X127635000Y-82042000D02*
X126492000Y-83185000D01*
%TO.N,/GP_LED*%
X135255000Y-95377000D02*
X138430000Y-95377000D01*
%TO.N,/PB0*%
X148578006Y-96531994D02*
X148578006Y-95250000D01*
X148578006Y-95250000D02*
X148578006Y-95111006D01*
X148331600Y-94864600D02*
X142371400Y-94864600D01*
X152273000Y-95377000D02*
X148705006Y-95377000D01*
X148705006Y-95377000D02*
X148578006Y-95250000D01*
X148578006Y-95111006D02*
X148331600Y-94864600D01*
X142371400Y-94864600D02*
X141859000Y-95377000D01*
%TO.N,/PD5*%
X151257000Y-94107000D02*
X151051497Y-93901497D01*
X150873594Y-94079400D02*
X150370406Y-94079400D01*
X151051497Y-93901497D02*
X150873594Y-94079400D01*
X150141806Y-93850800D02*
X143101194Y-93850800D01*
X142872594Y-94079400D02*
X142369406Y-94079400D01*
X139827000Y-93726000D02*
X139446000Y-94107000D01*
X143101194Y-93850800D02*
X142872594Y-94079400D01*
X142016006Y-93726000D02*
X139827000Y-93726000D01*
X142369406Y-94079400D02*
X142016006Y-93726000D01*
X150370406Y-94079400D02*
X150141806Y-93850800D01*
%TO.N,/PD6{slash}OC0A*%
X140591200Y-94485800D02*
X140335000Y-94742000D01*
X149603800Y-94485800D02*
X140591200Y-94485800D01*
X149860000Y-94742000D02*
X149603800Y-94485800D01*
%TO.N,/PB1{slash}OC1A*%
X150622000Y-93472000D02*
X142621000Y-93472000D01*
%TO.N,/PD7*%
X141607406Y-95984400D02*
X141508006Y-95885000D01*
X147861000Y-95471000D02*
X147883000Y-95493000D01*
X147633400Y-95243400D02*
X143008600Y-95243400D01*
X147861000Y-95471000D02*
X147633400Y-95243400D01*
X147883000Y-96829000D02*
X148844000Y-97790000D01*
X143008600Y-95243400D02*
X142267600Y-95984400D01*
X141224000Y-95885000D02*
X141097000Y-96012000D01*
X147883000Y-95493000D02*
X147883000Y-96829000D01*
X142267600Y-95984400D02*
X141607406Y-95984400D01*
X141508006Y-95885000D02*
X141224000Y-95885000D01*
X148844000Y-97790000D02*
X152273000Y-97790000D01*
%TO.N,/GP_LED2*%
X135763000Y-99314000D02*
X138176000Y-101727000D01*
%TD*%
%TA.AperFunction,Conductor*%
%TO.N,Earth*%
G36*
X157505043Y-95270002D02*
G01*
X157551536Y-95323658D01*
X157561640Y-95393932D01*
X157549190Y-95433199D01*
X157478548Y-95571841D01*
X157476421Y-95576017D01*
X157476418Y-95576023D01*
X157422698Y-95741357D01*
X157422697Y-95741360D01*
X157422697Y-95741362D01*
X157395500Y-95913074D01*
X157395500Y-96086926D01*
X157422697Y-96258638D01*
X157476420Y-96423981D01*
X157476421Y-96423982D01*
X157555349Y-96578887D01*
X157657536Y-96719535D01*
X157780464Y-96842463D01*
X157780467Y-96842465D01*
X157921116Y-96944653D01*
X158076019Y-97023580D01*
X158241362Y-97077303D01*
X158413074Y-97104500D01*
X158413077Y-97104500D01*
X158586923Y-97104500D01*
X158586926Y-97104500D01*
X158758638Y-97077303D01*
X158923981Y-97023580D01*
X159078884Y-96944653D01*
X159219533Y-96842465D01*
X159342465Y-96719533D01*
X159444653Y-96578884D01*
X159523580Y-96423981D01*
X159577303Y-96258638D01*
X159604500Y-96086926D01*
X159604500Y-95913074D01*
X159577303Y-95741362D01*
X159523580Y-95576019D01*
X159450810Y-95433201D01*
X159437707Y-95363426D01*
X159464407Y-95297641D01*
X159522435Y-95256735D01*
X159563078Y-95250000D01*
X159976922Y-95250000D01*
X160045043Y-95270002D01*
X160091536Y-95323658D01*
X160101640Y-95393932D01*
X160089190Y-95433199D01*
X160018548Y-95571841D01*
X160016421Y-95576017D01*
X160016418Y-95576023D01*
X159962698Y-95741357D01*
X159962697Y-95741360D01*
X159962697Y-95741362D01*
X159935500Y-95913074D01*
X159935500Y-96086926D01*
X159962697Y-96258638D01*
X160016420Y-96423981D01*
X160016421Y-96423982D01*
X160095349Y-96578887D01*
X160197536Y-96719535D01*
X160320464Y-96842463D01*
X160320467Y-96842465D01*
X160461116Y-96944653D01*
X160616019Y-97023580D01*
X160781362Y-97077303D01*
X160953074Y-97104500D01*
X160953077Y-97104500D01*
X161126923Y-97104500D01*
X161126926Y-97104500D01*
X161298638Y-97077303D01*
X161463981Y-97023580D01*
X161618884Y-96944653D01*
X161759533Y-96842465D01*
X161882465Y-96719533D01*
X161984653Y-96578884D01*
X162063580Y-96423981D01*
X162117303Y-96258638D01*
X162144500Y-96086926D01*
X162144500Y-95913074D01*
X162117303Y-95741362D01*
X162063580Y-95576019D01*
X161990810Y-95433201D01*
X161977707Y-95363426D01*
X162004407Y-95297641D01*
X162062435Y-95256735D01*
X162103078Y-95250000D01*
X162516922Y-95250000D01*
X162585043Y-95270002D01*
X162631536Y-95323658D01*
X162641640Y-95393932D01*
X162629190Y-95433199D01*
X162558548Y-95571841D01*
X162556421Y-95576017D01*
X162556418Y-95576023D01*
X162502698Y-95741357D01*
X162502697Y-95741360D01*
X162502697Y-95741362D01*
X162475500Y-95913074D01*
X162475500Y-96086926D01*
X162502697Y-96258638D01*
X162556420Y-96423981D01*
X162556421Y-96423982D01*
X162635349Y-96578887D01*
X162737536Y-96719535D01*
X162860464Y-96842463D01*
X162860467Y-96842465D01*
X163001116Y-96944653D01*
X163126203Y-97008388D01*
X163177818Y-97057135D01*
X163195000Y-97120654D01*
X163195000Y-97419345D01*
X163174998Y-97487466D01*
X163126203Y-97531612D01*
X163001113Y-97595348D01*
X162860464Y-97697536D01*
X162737536Y-97820464D01*
X162635349Y-97961112D01*
X162556421Y-98116017D01*
X162556418Y-98116023D01*
X162502698Y-98281357D01*
X162502697Y-98281360D01*
X162502697Y-98281362D01*
X162475500Y-98453074D01*
X162475500Y-98626926D01*
X162502697Y-98798638D01*
X162556420Y-98963981D01*
X162635347Y-99118884D01*
X162635349Y-99118887D01*
X162737536Y-99259535D01*
X162860464Y-99382463D01*
X162860467Y-99382465D01*
X163001116Y-99484653D01*
X163126203Y-99548388D01*
X163177818Y-99597135D01*
X163195000Y-99660654D01*
X163195000Y-100965000D01*
X169512232Y-107913955D01*
X169543255Y-107977815D01*
X169545000Y-107998712D01*
X169545000Y-124334000D01*
X169524998Y-124402121D01*
X169471342Y-124448614D01*
X169419000Y-124460000D01*
X156717867Y-124460000D01*
X156649746Y-124439998D01*
X156603253Y-124386342D01*
X156591870Y-124333136D01*
X156621045Y-120079000D01*
X156626263Y-119318158D01*
X156646732Y-119250177D01*
X156680140Y-119215705D01*
X161290000Y-115998031D01*
X161290000Y-107950000D01*
X161289999Y-107949998D01*
X155611905Y-102271904D01*
X155577879Y-102209592D01*
X155575000Y-102182809D01*
X155575000Y-98453074D01*
X157395500Y-98453074D01*
X157395500Y-98626926D01*
X157422697Y-98798638D01*
X157476420Y-98963981D01*
X157555347Y-99118884D01*
X157555349Y-99118887D01*
X157657536Y-99259535D01*
X157780464Y-99382463D01*
X157780467Y-99382465D01*
X157921116Y-99484653D01*
X158049703Y-99550171D01*
X158101318Y-99598919D01*
X158118500Y-99662438D01*
X158118500Y-100892223D01*
X158118499Y-100892223D01*
X158144500Y-100989258D01*
X158194721Y-101076243D01*
X158194729Y-101076253D01*
X166332595Y-109214118D01*
X166366621Y-109276430D01*
X166369500Y-109303213D01*
X166369500Y-113073787D01*
X166349498Y-113141908D01*
X166332595Y-113162882D01*
X164040253Y-115455224D01*
X164004739Y-115490738D01*
X163969225Y-115526251D01*
X163969221Y-115526256D01*
X163919000Y-115613241D01*
X163893000Y-115710276D01*
X163893000Y-119100001D01*
X163876119Y-119163001D01*
X163804983Y-119286211D01*
X163804981Y-119286216D01*
X163766000Y-119431695D01*
X163766000Y-119582305D01*
X163794535Y-119688800D01*
X163804980Y-119727781D01*
X163804983Y-119727788D01*
X163880283Y-119858212D01*
X163880291Y-119858222D01*
X163986777Y-119964708D01*
X163986782Y-119964712D01*
X163986784Y-119964714D01*
X164117216Y-120040019D01*
X164262695Y-120079000D01*
X164262697Y-120079000D01*
X164413303Y-120079000D01*
X164413305Y-120079000D01*
X164558784Y-120040019D01*
X164689216Y-119964714D01*
X164795714Y-119858216D01*
X164871019Y-119727784D01*
X164910000Y-119582305D01*
X164910000Y-119431695D01*
X164871019Y-119286216D01*
X164848645Y-119247464D01*
X164795716Y-119155787D01*
X164795708Y-119155777D01*
X164692905Y-119052974D01*
X164658879Y-118990662D01*
X164656000Y-118963879D01*
X164656000Y-115970713D01*
X164676002Y-115902592D01*
X164692905Y-115881618D01*
X167056270Y-113518253D01*
X167056276Y-113518247D01*
X167106502Y-113431253D01*
X167132500Y-113334225D01*
X167132500Y-113233775D01*
X167132500Y-109042775D01*
X167106501Y-108945746D01*
X167106499Y-108945743D01*
X167106499Y-108945741D01*
X167056278Y-108858756D01*
X167056274Y-108858751D01*
X166985247Y-108787724D01*
X158918405Y-100720882D01*
X158884379Y-100658570D01*
X158881500Y-100631787D01*
X158881500Y-99662438D01*
X158901502Y-99594317D01*
X158950296Y-99550171D01*
X159078884Y-99484653D01*
X159219533Y-99382465D01*
X159219538Y-99382460D01*
X159333160Y-99268839D01*
X159342460Y-99259538D01*
X159342463Y-99259535D01*
X159342465Y-99259533D01*
X159444653Y-99118884D01*
X159523580Y-98963981D01*
X159577303Y-98798638D01*
X159604500Y-98626926D01*
X159604500Y-98453116D01*
X159936000Y-98453116D01*
X159936000Y-98626883D01*
X159963185Y-98798524D01*
X160016883Y-98963788D01*
X160016884Y-98963790D01*
X160095776Y-99118625D01*
X160174042Y-99226349D01*
X160174043Y-99226349D01*
X160608234Y-98792158D01*
X160639901Y-98847007D01*
X160732993Y-98940099D01*
X160787840Y-98971765D01*
X160353649Y-99405955D01*
X160353649Y-99405956D01*
X160461374Y-99484223D01*
X160616209Y-99563115D01*
X160616211Y-99563116D01*
X160781475Y-99616814D01*
X160953116Y-99644000D01*
X161126884Y-99644000D01*
X161298524Y-99616814D01*
X161463788Y-99563116D01*
X161463790Y-99563115D01*
X161618621Y-99484225D01*
X161726349Y-99405955D01*
X161726349Y-99405954D01*
X161292159Y-98971764D01*
X161347007Y-98940099D01*
X161440099Y-98847007D01*
X161471764Y-98792159D01*
X161905954Y-99226349D01*
X161905955Y-99226349D01*
X161984225Y-99118621D01*
X162063115Y-98963790D01*
X162063116Y-98963788D01*
X162116814Y-98798524D01*
X162144000Y-98626883D01*
X162144000Y-98453116D01*
X162116814Y-98281475D01*
X162063116Y-98116211D01*
X162063115Y-98116209D01*
X161984223Y-97961374D01*
X161905955Y-97853649D01*
X161471764Y-98287839D01*
X161440099Y-98232993D01*
X161347007Y-98139901D01*
X161292158Y-98108234D01*
X161726349Y-97674043D01*
X161726349Y-97674042D01*
X161618625Y-97595776D01*
X161463790Y-97516884D01*
X161463788Y-97516883D01*
X161298524Y-97463185D01*
X161126884Y-97436000D01*
X160953116Y-97436000D01*
X160781475Y-97463185D01*
X160616211Y-97516883D01*
X160616209Y-97516884D01*
X160461379Y-97595773D01*
X160461379Y-97595774D01*
X160353649Y-97674042D01*
X160353649Y-97674044D01*
X160787840Y-98108235D01*
X160732993Y-98139901D01*
X160639901Y-98232993D01*
X160608235Y-98287840D01*
X160174044Y-97853649D01*
X160174042Y-97853649D01*
X160095774Y-97961379D01*
X160095773Y-97961379D01*
X160016884Y-98116209D01*
X160016883Y-98116211D01*
X159963185Y-98281475D01*
X159936000Y-98453116D01*
X159604500Y-98453116D01*
X159604500Y-98453074D01*
X159577303Y-98281362D01*
X159523580Y-98116019D01*
X159444653Y-97961116D01*
X159342465Y-97820467D01*
X159342463Y-97820464D01*
X159219535Y-97697536D01*
X159078887Y-97595349D01*
X159078886Y-97595348D01*
X159078884Y-97595347D01*
X158923981Y-97516420D01*
X158923978Y-97516419D01*
X158923976Y-97516418D01*
X158758642Y-97462698D01*
X158758640Y-97462697D01*
X158758638Y-97462697D01*
X158586926Y-97435500D01*
X158413074Y-97435500D01*
X158241362Y-97462697D01*
X158241360Y-97462697D01*
X158241357Y-97462698D01*
X158076023Y-97516418D01*
X158076017Y-97516421D01*
X157921112Y-97595349D01*
X157780464Y-97697536D01*
X157657536Y-97820464D01*
X157555349Y-97961112D01*
X157476421Y-98116017D01*
X157476418Y-98116023D01*
X157422698Y-98281357D01*
X157422697Y-98281360D01*
X157422697Y-98281362D01*
X157395500Y-98453074D01*
X155575000Y-98453074D01*
X155575000Y-95376000D01*
X155595002Y-95307879D01*
X155648658Y-95261386D01*
X155701000Y-95250000D01*
X157436922Y-95250000D01*
X157505043Y-95270002D01*
G37*
%TD.AperFunction*%
%TD*%
M02*
